<svg version="1.1" xmlns="http://www.w3.org/2000/svg" viewBox="0 0 1481.5514740293145 2313.170668932509" width="1481.5514740293145" height="2313.170668932509">
  <!-- svg-source:excalidraw -->
  
  <defs>
    <style class="style-fonts">
      @font-face {
        font-family: "Virgil";
        src: url("https://file%2B.vscode-resource.vscode-cdn.net/c%3A/Users/lisa-/.vscode/extensions/pomdtr.excalidraw-editor-3.7.4/public//dist/excalidraw-assets/Virgil.woff2");
      }
      @font-face {
        font-family: "Cascadia";
        src: url("https://file%2B.vscode-resource.vscode-cdn.net/c%3A/Users/lisa-/.vscode/extensions/pomdtr.excalidraw-editor-3.7.4/public//dist/excalidraw-assets/Cascadia.woff2");
      }
      @font-face {
        font-family: "Assistant";
        src: url("https://file%2B.vscode-resource.vscode-cdn.net/c%3A/Users/lisa-/.vscode/extensions/pomdtr.excalidraw-editor-3.7.4/public//dist/excalidraw-assets/Assistant-Regular.woff2");
      }
    </style>
    <clipPath id="pYW-lO5cVO1Wh9hgKRNLS">
            <rect transform="translate(75.2311615293147 1471.256606432509) rotate(0 698.1601562499999 415.9570312500001)" width="1396.3203124999998" height="831.9140625000002">
          </rect>
        </clipPath>
  </defs>
  <rect x="0" y="0" width="1481.5514740293145" height="2313.170668932509" fill="#ffffff"></rect><g clip-path="url(#pYW-lO5cVO1Wh9hgKRNLS)"><g stroke-linecap="round" transform="translate(130.85797710249608 1532.8931066001678) rotate(0 640 360)"><path d="M0 0 C280.11 0, 560.22 0, 1280 0 M0 0 C429.04 0, 858.07 0, 1280 0 M1280 0 C1280 206.08, 1280 412.16, 1280 720 M1280 0 C1280 213.3, 1280 426.6, 1280 720 M1280 720 C817.18 720, 354.36 720, 0 720 M1280 720 C901.61 720, 523.21 720, 0 720 M0 720 C0 567.2, 0 414.39, 0 0 M0 720 C0 445.14, 0 170.28, 0 0" stroke="#ced4da" stroke-width="4" fill="none"></path></g></g><g clip-path="url(#pYW-lO5cVO1Wh9hgKRNLS)"><g stroke-linecap="round"><g transform="translate(407.61725135672896 1532.4442343368257) rotate(0 0.67626953125 360.6884765625)"><path d="M0.33 -0.27 C0.66 119.88, 0.93 601.7, 1.16 721.8 M-0.96 -1.46 C-0.73 118.24, -0.23 599.47, 0.11 719.9" stroke="#bbb" stroke-width="2" fill="none"></path></g></g><mask></mask></g><g clip-path="url(#pYW-lO5cVO1Wh9hgKRNLS)"><g transform="translate(166.82238505472924 2204.368236079481) rotate(0 29.653038024902344 11.152405278842025)"><text x="0" y="0" font-family="Helvetica, Segoe UI Emoji" font-size="19.39548744146448px" fill="#1e1e1e" text-anchor="start" style="white-space: pre;" direction="ltr" dominant-baseline="text-before-edge">Logout</text></g></g><g clip-path="url(#pYW-lO5cVO1Wh9hgKRNLS)"><g transform="translate(168.52169984089414 1561.9500030105191) rotate(0 80.01953125 103.5)"><text x="0" y="0" font-family="Helvetica, Segoe UI Emoji" font-size="20px" fill="#1e1e1e" text-anchor="start" style="white-space: pre;" direction="ltr" dominant-baseline="text-before-edge">Home</text><text x="0" y="23" font-family="Helvetica, Segoe UI Emoji" font-size="20px" fill="#1e1e1e" text-anchor="start" style="white-space: pre;" direction="ltr" dominant-baseline="text-before-edge"></text><text x="0" y="46" font-family="Helvetica, Segoe UI Emoji" font-size="20px" fill="#1e1e1e" text-anchor="start" style="white-space: pre;" direction="ltr" dominant-baseline="text-before-edge"></text><text x="0" y="69" font-family="Helvetica, Segoe UI Emoji" font-size="20px" fill="#1e1e1e" text-anchor="start" style="white-space: pre;" direction="ltr" dominant-baseline="text-before-edge">- Stadtwerke</text><text x="0" y="92" font-family="Helvetica, Segoe UI Emoji" font-size="20px" fill="#1e1e1e" text-anchor="start" style="white-space: pre;" direction="ltr" dominant-baseline="text-before-edge">    - Wasser</text><text x="0" y="115" font-family="Helvetica, Segoe UI Emoji" font-size="20px" fill="#1e1e1e" text-anchor="start" style="white-space: pre;" direction="ltr" dominant-baseline="text-before-edge">    - Strom</text><text x="0" y="138" font-family="Helvetica, Segoe UI Emoji" font-size="20px" fill="#1e1e1e" text-anchor="start" style="white-space: pre;" direction="ltr" dominant-baseline="text-before-edge">    - Wärmepumpe</text><text x="0" y="161" font-family="Helvetica, Segoe UI Emoji" font-size="20px" fill="#1e1e1e" text-anchor="start" style="white-space: pre;" direction="ltr" dominant-baseline="text-before-edge">    - Gas</text><text x="0" y="184" font-family="Helvetica, Segoe UI Emoji" font-size="20px" fill="#1e1e1e" text-anchor="start" style="white-space: pre;" direction="ltr" dominant-baseline="text-before-edge">    - Rechnungen</text></g></g><g clip-path="url(#pYW-lO5cVO1Wh9hgKRNLS)"><g stroke-linecap="round" transform="translate(407.9594248226349 1533.204750135944) rotate(0 503.00695269974335 360.0109060460611)"><path d="M0 0 C331.51 -1.35, 662.02 -0.77, 1006.01 0 M1006.01 0 C1008.38 266.59, 1008.58 534.32, 1006.01 720.02 M1006.01 720.02 C649.75 723.92, 294.47 723.99, 0 720.02 M0 720.02 C0.08 517.55, 0.35 316.16, 0 0" stroke="#bbb" stroke-width="2.5" fill="none" stroke-dasharray="1.5 8"></path></g></g><g clip-path="url(#pYW-lO5cVO1Wh9hgKRNLS)"><g stroke-linecap="round"><g transform="translate(215.29581897962635 2054.4732623903365) rotate(0 23.488593070429488 0.5019395301313807)"><path d="M-0.47 0.03 C7.33 0.21, 38.92 1.15, 46.9 1.39 M0.28 -0.43 C8 -0.44, 38.6 0.45, 46.43 0.63" stroke="#1e1e1e" stroke-width="2" fill="none"></path></g></g><mask></mask></g><g clip-path="url(#pYW-lO5cVO1Wh9hgKRNLS)"><g transform="translate(139.5717289346394 1809.2624096236377) rotate(0 48.91015625 9.200000000000045)"><text x="0" y="0" font-family="Helvetica, Segoe UI Emoji" font-size="16px" fill="#bbb" text-anchor="start" style="white-space: pre;" direction="ltr" dominant-baseline="text-before-edge">Admin Center</text></g></g><g clip-path="url(#pYW-lO5cVO1Wh9hgKRNLS)"><g stroke-linecap="round"><g transform="translate(133.65756862554554 1836.6133652395026) rotate(0 141.61061985371225 -0.5230918750871751)"><path d="M0 0 C82.36 -1.9, 161.02 -1.82, 283.22 -1.05" stroke="#bbb" stroke-width="4.5" fill="none" stroke-dasharray="1.5 10"></path></g></g><mask></mask></g><g clip-path="url(#pYW-lO5cVO1Wh9hgKRNLS)"><g transform="translate(162.59762558689908 1845.3408506375729) rotate(0 91.1328125 115)"><text x="0" y="0" font-family="Helvetica, Segoe UI Emoji" font-size="20px" fill="#1e1e1e" text-anchor="start" style="white-space: pre;" direction="ltr" dominant-baseline="text-before-edge">General</text><text x="0" y="23" font-family="Helvetica, Segoe UI Emoji" font-size="20px" fill="#1e1e1e" text-anchor="start" style="white-space: pre;" direction="ltr" dominant-baseline="text-before-edge"></text><text x="0" y="46" font-family="Helvetica, Segoe UI Emoji" font-size="20px" fill="#1e1e1e" text-anchor="start" style="white-space: pre;" direction="ltr" dominant-baseline="text-before-edge"></text><text x="0" y="69" font-family="Helvetica, Segoe UI Emoji" font-size="20px" fill="#1e1e1e" text-anchor="start" style="white-space: pre;" direction="ltr" dominant-baseline="text-before-edge">- Stadtwerke</text><text x="0" y="92" font-family="Helvetica, Segoe UI Emoji" font-size="20px" fill="#1e1e1e" text-anchor="start" style="white-space: pre;" direction="ltr" dominant-baseline="text-before-edge">    - Tarife</text><text x="0" y="115" font-family="Helvetica, Segoe UI Emoji" font-size="20px" fill="#1e1e1e" text-anchor="start" style="white-space: pre;" direction="ltr" dominant-baseline="text-before-edge">        - Wasser</text><text x="0" y="138" font-family="Helvetica, Segoe UI Emoji" font-size="20px" fill="#1e1e1e" text-anchor="start" style="white-space: pre;" direction="ltr" dominant-baseline="text-before-edge">        - Strom</text><text x="0" y="161" font-family="Helvetica, Segoe UI Emoji" font-size="20px" fill="#1e1e1e" text-anchor="start" style="white-space: pre;" direction="ltr" dominant-baseline="text-before-edge">        - Wärmepumpe</text><text x="0" y="184" font-family="Helvetica, Segoe UI Emoji" font-size="20px" fill="#1e1e1e" text-anchor="start" style="white-space: pre;" direction="ltr" dominant-baseline="text-before-edge">        - Gas</text><text x="0" y="207" font-family="Helvetica, Segoe UI Emoji" font-size="20px" fill="#1e1e1e" text-anchor="start" style="white-space: pre;" direction="ltr" dominant-baseline="text-before-edge">    - Kunden</text></g></g><g clip-path="url(#pYW-lO5cVO1Wh9hgKRNLS)"><g stroke-linecap="round"><g transform="translate(133.6733052534728 2122.4075950052693) rotate(0 141.61061985371225 -0.5230918750871751)"><path d="M0 0 C87.13 -0.22, 173.99 -0.04, 283.22 -1.05" stroke="#bbb" stroke-width="4.5" fill="none" stroke-dasharray="1.5 10"></path></g></g><mask></mask></g><g clip-path="url(#pYW-lO5cVO1Wh9hgKRNLS)"><g stroke-linecap="round" transform="translate(644.7119156609842 1749.946205867772) rotate(0 324.60499571594414 27.62105468575578)"><path d="M13.81 0 C153.47 -3.78, 292.41 -3.65, 635.4 0 C645.81 0.06, 652.45 1.53, 649.21 13.81 C646.08 19.52, 651.7 32.79, 649.21 41.43 C652.51 51.48, 647.42 57.17, 635.4 55.24 C447.99 56.18, 260.14 55.79, 13.81 55.24 C5.41 52.22, -3.34 53.4, 0 41.43 C3.01 33.59, 2.25 19.81, 0 13.81 C0.27 5.15, 1.97 -3.09, 13.81 0" stroke="none" stroke-width="0" fill="#fff"></path><path d="M13.81 0 C220.56 -0.64, 426.91 -0.9, 635.4 0 M13.81 0 C153.53 0.29, 293.24 0.21, 635.4 0 M635.4 0 C645.05 -0.09, 649.25 5.92, 649.21 13.81 M635.4 0 C643.26 1.63, 650.34 5, 649.21 13.81 M649.21 13.81 C649.76 18.75, 650.84 26.73, 649.21 41.43 M649.21 13.81 C649.85 23.79, 649.48 35.18, 649.21 41.43 M649.21 41.43 C647.89 49.01, 645.84 54.41, 635.4 55.24 M649.21 41.43 C648.99 48.91, 645.38 55.05, 635.4 55.24 M635.4 55.24 C503.46 54.51, 371.29 54.05, 13.81 55.24 M635.4 55.24 C476.71 56.58, 318.29 56.83, 13.81 55.24 M13.81 55.24 C4.6 54.63, -0.73 49.32, 0 41.43 M13.81 55.24 C4.02 54.5, 1.43 49.57, 0 41.43 M0 41.43 C-1.75 31.44, -1.29 24.32, 0 13.81 M0 41.43 C0.24 31.31, 0.13 21.92, 0 13.81 M0 13.81 C1.14 4.65, 5.1 -0.99, 13.81 0 M0 13.81 C2.22 2.53, 2.87 -2.02, 13.81 0" stroke="#1e1e1e" stroke-width="2" fill="none"></path></g></g><g clip-path="url(#pYW-lO5cVO1Wh9hgKRNLS)"><g transform="translate(649.7119156609842 1766.0672605535278) rotate(0 215.6494140625 11.5)"><text x="0" y="0" font-family="Helvetica, Segoe UI Emoji" font-size="20px" fill="#1e1e1e" text-anchor="start" style="white-space: pre;" direction="ltr" dominant-baseline="text-before-edge">  Tarif1          3.33€          12 Monate           Active</text></g></g><g clip-path="url(#pYW-lO5cVO1Wh9hgKRNLS)"><g stroke-linecap="round" transform="translate(625.6147493449389 1574.3947606097354) rotate(359.9296265924723 373.66296604115723 120.03262627291781)"><path d="M0 0 C288.12 -1.09, 577.29 -1.63, 747.33 0 M0 0 C187.21 2.06, 374.25 2.34, 747.33 0 M747.33 0 C749.03 56.47, 747.96 115.56, 747.33 240.07 M747.33 0 C746.9 80.9, 746.77 161.15, 747.33 240.07 M747.33 240.07 C484.66 240, 220.89 241.02, 0 240.07 M747.33 240.07 C554.25 237.78, 360.56 237.81, 0 240.07 M0 240.07 C-0.38 183.52, -0.91 124.87, 0 0 M0 240.07 C0.67 153.19, 0.62 65.88, 0 0" stroke="#000000" stroke-width="1" fill="none"></path></g></g><g clip-path="url(#pYW-lO5cVO1Wh9hgKRNLS)"><g stroke-linecap="round" transform="translate(1327.0789066748766 1594.8973414126779) rotate(359.9296265924723 15.44090099337484 103.3042967389606)"><path d="M0 0 C10.5 -0.31, 20.8 -0.43, 30.88 0 M0 0 C7.14 0.67, 13.65 0.72, 30.88 0 M30.88 0 C30.37 71.77, 31.81 143.39, 30.88 206.61 M30.88 0 C32.36 80.93, 32.44 159.82, 30.88 206.61 M30.88 206.61 C19.51 207.64, 10.58 206.21, 0 206.61 M30.88 206.61 C23.06 206.55, 16.38 206.66, 0 206.61 M0 206.61 C-0.55 123.35, 1.35 41.01, 0 0 M0 206.61 C-0.11 155.06, -0.43 103.48, 0 0" stroke="#000000" stroke-width="1" fill="none"></path></g></g><g clip-path="url(#pYW-lO5cVO1Wh9hgKRNLS)"><g stroke-linecap="round" transform="translate(1330.6180609908333 1605.2765677439809) rotate(359.9296265924723 9.457430284254315 81.77208864368265)"><path d="M0.62 -0.46 L18.81 -0.4 L18.32 162.61 L-0.99 162.84" stroke="none" stroke-width="0" fill="black"></path><path d="M0 0 C6.37 -0.11, 13.02 0.22, 18.91 0 M0 0 C5.31 0.27, 11.41 0.02, 18.91 0 M18.91 0 C18.87 34.25, 19.41 70.01, 18.91 163.54 M18.91 0 C19.53 62.15, 19.35 125.01, 18.91 163.54 M18.91 163.54 C14.09 163.51, 9.35 163.92, 0 163.54 M18.91 163.54 C13.11 163.58, 8.35 163.48, 0 163.54 M0 163.54 C0.99 107.24, -0.15 51.61, 0 0 M0 163.54 C-0.18 112.46, -0.13 61.88, 0 0" stroke="#000000" stroke-width="1" fill="none"></path></g></g><g clip-path="url(#pYW-lO5cVO1Wh9hgKRNLS)"><g stroke-linecap="round" transform="translate(643.6103535094007 1602.410791266661) rotate(0 324.60499571594414 27.62105468575578)"><path d="M13.81 0 C146.15 -3.28, 279.12 -1.03, 635.4 0 C645.1 3.3, 650.05 7.42, 649.21 13.81 C649.67 22.68, 650.16 30.45, 649.21 41.43 C649.16 51.44, 641.58 51.9, 635.4 55.24 C400.93 60.04, 168 59.73, 13.81 55.24 C2.68 55.51, 0.54 48.01, 0 41.43 C0.75 33.22, 3.07 32.59, 0 13.81 C-0.55 2.41, 4.41 -1.14, 13.81 0" stroke="none" stroke-width="0" fill="#fff"></path><path d="M13.81 0 C195.95 0.48, 379.17 0.32, 635.4 0 M13.81 0 C241.29 -1.69, 468.03 -1.95, 635.4 0 M635.4 0 C644.23 0.68, 648.29 6.36, 649.21 13.81 M635.4 0 C645.98 1.88, 650.21 6.59, 649.21 13.81 M649.21 13.81 C649.61 22.21, 647.42 34.48, 649.21 41.43 M649.21 13.81 C649.52 20.87, 648.31 28.06, 649.21 41.43 M649.21 41.43 C647.98 50.8, 646.59 54.97, 635.4 55.24 M649.21 41.43 C650.19 49.61, 643.66 56.67, 635.4 55.24 M635.4 55.24 C468.23 55.39, 300.65 55.1, 13.81 55.24 M635.4 55.24 C490.23 54.25, 344.53 54.28, 13.81 55.24 M13.81 55.24 C3.42 53.38, -1.98 49.24, 0 41.43 M13.81 55.24 C3.34 56.36, 0.47 48.99, 0 41.43 M0 41.43 C-0.39 33.46, 0.18 23.7, 0 13.81 M0 41.43 C-1.02 33.63, -1.01 27.56, 0 13.81 M0 13.81 C1.24 4.15, 3.19 -1.91, 13.81 0 M0 13.81 C-1.41 5.37, 4.64 2.07, 13.81 0" stroke="#1e1e1e" stroke-width="2" fill="none"></path></g></g><g clip-path="url(#pYW-lO5cVO1Wh9hgKRNLS)"><g transform="translate(648.6103535094007 1618.5318459524167) rotate(0 215.6494140625 11.5)"><text x="0" y="0" font-family="Helvetica, Segoe UI Emoji" font-size="20px" fill="#1e1e1e" text-anchor="start" style="white-space: pre;" direction="ltr" dominant-baseline="text-before-edge">  Tarif1          3.33€          12 Monate           Active</text></g></g><g clip-path="url(#pYW-lO5cVO1Wh9hgKRNLS)"><g stroke-linecap="round" transform="translate(643.4358739943127 1680.8142614233275) rotate(0 324.60499571594414 27.62105468575578)"><path d="M13.81 0 C142.74 -1.51, 271.62 -1.71, 635.4 0 C646.53 0.03, 647.6 5.06, 649.21 13.81 C649.29 22.21, 646.31 25.67, 649.21 41.43 C651.97 52.67, 647.37 54.33, 635.4 55.24 C389.54 58.62, 145.43 57.46, 13.81 55.24 C1.51 54.51, 1.72 51.29, 0 41.43 C-0.96 32.71, -0.6 27.24, 0 13.81 C0.8 5.15, 1.12 -1.16, 13.81 0" stroke="none" stroke-width="0" fill="#fff"></path><path d="M13.81 0 C214.68 -0.52, 415.06 0.34, 635.4 0 M13.81 0 C211 1.3, 408.15 1.51, 635.4 0 M635.4 0 C645.8 1.64, 650.08 6.33, 649.21 13.81 M635.4 0 C645.8 -1.31, 649.56 5.25, 649.21 13.81 M649.21 13.81 C648.16 20.09, 647.48 27.42, 649.21 41.43 M649.21 13.81 C648.35 21.95, 649.96 29.79, 649.21 41.43 M649.21 41.43 C650.06 49.74, 643.78 56.49, 635.4 55.24 M649.21 41.43 C648.5 49.45, 644.74 55.48, 635.4 55.24 M635.4 55.24 C448.38 54.13, 262.17 54.83, 13.81 55.24 M635.4 55.24 C477.56 53.88, 319.79 53.97, 13.81 55.24 M13.81 55.24 C3.51 56.21, 0.41 49.21, 0 41.43 M13.81 55.24 C5.29 54.1, 0.43 50.03, 0 41.43 M0 41.43 C-0.99 33.49, -1.81 20.19, 0 13.81 M0 41.43 C0.82 35.35, -0.5 28.77, 0 13.81 M0 13.81 C-1.23 5.27, 4.63 1.8, 13.81 0 M0 13.81 C-1.97 5.4, 5.6 -1.63, 13.81 0" stroke="#1e1e1e" stroke-width="2" fill="none"></path></g></g><g clip-path="url(#pYW-lO5cVO1Wh9hgKRNLS)"><g transform="translate(648.4358739943127 1696.9353161090833) rotate(0 215.6494140625 11.5)"><text x="0" y="0" font-family="Helvetica, Segoe UI Emoji" font-size="20px" fill="#1e1e1e" text-anchor="start" style="white-space: pre;" direction="ltr" dominant-baseline="text-before-edge">  Tarif1          3.33€          12 Monate           Active</text></g></g><g clip-path="url(#pYW-lO5cVO1Wh9hgKRNLS)"><g stroke-linecap="round" transform="translate(1131.643285447004 1611.895518221723) rotate(0 73.93466188158709 16.942610235379107)"><path d="M8.47 0 C59.73 0, 111 0, 139.4 0 C145.05 0, 147.87 2.82, 147.87 8.47 C147.87 13.93, 147.87 19.4, 147.87 25.41 C147.87 31.06, 145.05 33.89, 139.4 33.89 C99.14 33.89, 58.88 33.89, 8.47 33.89 C2.82 33.89, 0 31.06, 0 25.41 C0 21.37, 0 17.32, 0 8.47 C0 2.82, 2.82 0, 8.47 0" stroke="none" stroke-width="0" fill="black"></path><path d="M8.47 0 C40.07 0, 71.67 0, 139.4 0 M8.47 0 C52.22 0, 95.97 0, 139.4 0 M139.4 0 C145.05 0, 147.87 2.82, 147.87 8.47 M139.4 0 C145.05 0, 147.87 2.82, 147.87 8.47 M147.87 8.47 C147.87 13.39, 147.87 18.31, 147.87 25.41 M147.87 8.47 C147.87 13.69, 147.87 18.91, 147.87 25.41 M147.87 25.41 C147.87 31.06, 145.05 33.89, 139.4 33.89 M147.87 25.41 C147.87 31.06, 145.05 33.89, 139.4 33.89 M139.4 33.89 C103.45 33.89, 67.5 33.89, 8.47 33.89 M139.4 33.89 C112.33 33.89, 85.25 33.89, 8.47 33.89 M8.47 33.89 C2.82 33.89, 0 31.06, 0 25.41 M8.47 33.89 C2.82 33.89, 0 31.06, 0 25.41 M0 25.41 C0 18.7, 0 11.98, 0 8.47 M0 25.41 C0 20.72, 0 16.02, 0 8.47 M0 8.47 C0 2.82, 2.82 0, 8.47 0 M0 8.47 C0 2.82, 2.82 0, 8.47 0" stroke="white" stroke-width="2" fill="none"></path></g></g><g clip-path="url(#pYW-lO5cVO1Wh9hgKRNLS)"><g transform="translate(1166.882634828591 1619.638128457102) rotate(0 38.6953125 9.200000000000045)"><text x="38.6953125" y="0" font-family="Helvetica, Segoe UI Emoji" font-size="16px" fill="white" text-anchor="middle" style="white-space: pre;" direction="ltr" dominant-baseline="text-before-edge">Bearbeiten</text></g></g><g clip-path="url(#pYW-lO5cVO1Wh9hgKRNLS)"><g stroke-linecap="round" transform="translate(1131.180860606437 1693.5282961514818) rotate(0 73.93466188158709 16.942610235378993)"><path d="M8.47 0 C47.87 0, 87.27 0, 139.4 0 C145.05 0, 147.87 2.82, 147.87 8.47 C147.87 14.51, 147.87 20.55, 147.87 25.41 C147.87 31.06, 145.05 33.89, 139.4 33.89 C102.78 33.89, 66.15 33.89, 8.47 33.89 C2.82 33.89, 0 31.06, 0 25.41 C0 20.07, 0 14.73, 0 8.47 C0 2.82, 2.82 0, 8.47 0" stroke="none" stroke-width="0" fill="black"></path><path d="M8.47 0 C36.26 0, 64.04 0, 139.4 0 M8.47 0 C58.45 0, 108.43 0, 139.4 0 M139.4 0 C145.05 0, 147.87 2.82, 147.87 8.47 M139.4 0 C145.05 0, 147.87 2.82, 147.87 8.47 M147.87 8.47 C147.87 12.07, 147.87 15.67, 147.87 25.41 M147.87 8.47 C147.87 12.79, 147.87 17.12, 147.87 25.41 M147.87 25.41 C147.87 31.06, 145.05 33.89, 139.4 33.89 M147.87 25.41 C147.87 31.06, 145.05 33.89, 139.4 33.89 M139.4 33.89 C101.45 33.89, 63.5 33.89, 8.47 33.89 M139.4 33.89 C93.78 33.89, 48.16 33.89, 8.47 33.89 M8.47 33.89 C2.82 33.89, 0 31.06, 0 25.41 M8.47 33.89 C2.82 33.89, 0 31.06, 0 25.41 M0 25.41 C0 21.6, 0 17.78, 0 8.47 M0 25.41 C0 19.76, 0 14.11, 0 8.47 M0 8.47 C0 2.82, 2.82 0, 8.47 0 M0 8.47 C0 2.82, 2.82 0, 8.47 0" stroke="white" stroke-width="2" fill="none"></path></g></g><g clip-path="url(#pYW-lO5cVO1Wh9hgKRNLS)"><g transform="translate(1166.420209988024 1701.2709063868608) rotate(0 38.6953125 9.200000000000045)"><text x="38.6953125" y="0" font-family="Helvetica, Segoe UI Emoji" font-size="16px" fill="white" text-anchor="middle" style="white-space: pre;" direction="ltr" dominant-baseline="text-before-edge">Bearbeiten</text></g></g><g clip-path="url(#pYW-lO5cVO1Wh9hgKRNLS)"><g stroke-linecap="round" transform="translate(1134.3622842175537 1760.3121503181487) rotate(0 73.93466188158709 16.942610235378993)"><path d="M8.47 0 C51.17 0, 93.88 0, 139.4 0 C145.05 0, 147.87 2.82, 147.87 8.47 C147.87 14.5, 147.87 20.52, 147.87 25.41 C147.87 31.06, 145.05 33.89, 139.4 33.89 C89.34 33.89, 39.28 33.89, 8.47 33.89 C2.82 33.89, 0 31.06, 0 25.41 C0 21.6, 0 17.78, 0 8.47 C0 2.82, 2.82 0, 8.47 0" stroke="none" stroke-width="0" fill="black"></path><path d="M8.47 0 C41.73 0, 74.98 0, 139.4 0 M8.47 0 C40.3 0, 72.13 0, 139.4 0 M139.4 0 C145.05 0, 147.87 2.82, 147.87 8.47 M139.4 0 C145.05 0, 147.87 2.82, 147.87 8.47 M147.87 8.47 C147.87 15.24, 147.87 22.01, 147.87 25.41 M147.87 8.47 C147.87 12.68, 147.87 16.88, 147.87 25.41 M147.87 25.41 C147.87 31.06, 145.05 33.89, 139.4 33.89 M147.87 25.41 C147.87 31.06, 145.05 33.89, 139.4 33.89 M139.4 33.89 C113.1 33.89, 86.8 33.89, 8.47 33.89 M139.4 33.89 C106.6 33.89, 73.81 33.89, 8.47 33.89 M8.47 33.89 C2.82 33.89, 0 31.06, 0 25.41 M8.47 33.89 C2.82 33.89, 0 31.06, 0 25.41 M0 25.41 C0 21.53, 0 17.65, 0 8.47 M0 25.41 C0 19.74, 0 14.08, 0 8.47 M0 8.47 C0 2.82, 2.82 0, 8.47 0 M0 8.47 C0 2.82, 2.82 0, 8.47 0" stroke="white" stroke-width="2" fill="none"></path></g></g><g clip-path="url(#pYW-lO5cVO1Wh9hgKRNLS)"><g transform="translate(1169.6016335991408 1768.0547605535278) rotate(0 38.6953125 9.200000000000045)"><text x="38.6953125" y="0" font-family="Helvetica, Segoe UI Emoji" font-size="16px" fill="white" text-anchor="middle" style="white-space: pre;" direction="ltr" dominant-baseline="text-before-edge">Bearbeiten</text></g></g><g clip-path="url(#pYW-lO5cVO1Wh9hgKRNLS)"><g stroke-linecap="round" transform="translate(446.75811755088944 1606.8529489292596) rotate(0 73.93466188158703 19.62273176315682)"><path d="M9.81 0 C37.51 0, 65.2 0, 138.06 0 C144.6 0, 147.87 3.27, 147.87 9.81 C147.87 15.99, 147.87 22.18, 147.87 29.43 C147.87 35.98, 144.6 39.25, 138.06 39.25 C100.28 39.25, 62.5 39.25, 9.81 39.25 C3.27 39.25, 0 35.98, 0 29.43 C0 23.61, 0 17.79, 0 9.81 C0 3.27, 3.27 0, 9.81 0" stroke="none" stroke-width="0" fill="black"></path><path d="M9.81 0 C53.86 0, 97.91 0, 138.06 0 M9.81 0 C37.82 0, 65.83 0, 138.06 0 M138.06 0 C144.6 0, 147.87 3.27, 147.87 9.81 M138.06 0 C144.6 0, 147.87 3.27, 147.87 9.81 M147.87 9.81 C147.87 14.89, 147.87 19.97, 147.87 29.43 M147.87 9.81 C147.87 15.09, 147.87 20.38, 147.87 29.43 M147.87 29.43 C147.87 35.98, 144.6 39.25, 138.06 39.25 M147.87 29.43 C147.87 35.98, 144.6 39.25, 138.06 39.25 M138.06 39.25 C96.98 39.25, 55.89 39.25, 9.81 39.25 M138.06 39.25 C99.31 39.25, 60.56 39.25, 9.81 39.25 M9.81 39.25 C3.27 39.25, 0 35.98, 0 29.43 M9.81 39.25 C3.27 39.25, 0 35.98, 0 29.43 M0 29.43 C0 23.52, 0 17.6, 0 9.81 M0 29.43 C0 25.47, 0 21.52, 0 9.81 M0 9.81 C0 3.27, 3.27 0, 9.81 0 M0 9.81 C0 3.27, 3.27 0, 9.81 0" stroke="white" stroke-width="2" fill="none"></path></g></g><g clip-path="url(#pYW-lO5cVO1Wh9hgKRNLS)"><g transform="translate(464.6498106824765 1617.2756806924162) rotate(0 56.04296875 9.200000000000045)"><text x="56.04296875" y="0" font-family="Helvetica, Segoe UI Emoji" font-size="16px" fill="white" text-anchor="middle" style="white-space: pre;" direction="ltr" dominant-baseline="text-before-edge">Neu hinzufügen</text></g></g><g clip-path="url(#pYW-lO5cVO1Wh9hgKRNLS)"><g stroke-linecap="round" transform="translate(444.2147147731157 1678.6389732348155) rotate(0 73.93466188158703 19.622731763156708)"><path d="M9.81 0 C58.13 0, 106.46 0, 138.06 0 C144.6 0, 147.87 3.27, 147.87 9.81 C147.87 16.63, 147.87 23.45, 147.87 29.43 C147.87 35.98, 144.6 39.25, 138.06 39.25 C111.98 39.25, 85.9 39.25, 9.81 39.25 C3.27 39.25, 0 35.98, 0 29.43 C0 23.08, 0 16.72, 0 9.81 C0 3.27, 3.27 0, 9.81 0" stroke="none" stroke-width="0" fill="black"></path><path d="M9.81 0 C50.25 0, 90.68 0, 138.06 0 M9.81 0 C38.65 0, 67.48 0, 138.06 0 M138.06 0 C144.6 0, 147.87 3.27, 147.87 9.81 M138.06 0 C144.6 0, 147.87 3.27, 147.87 9.81 M147.87 9.81 C147.87 15.82, 147.87 21.82, 147.87 29.43 M147.87 9.81 C147.87 15.06, 147.87 20.32, 147.87 29.43 M147.87 29.43 C147.87 35.98, 144.6 39.25, 138.06 39.25 M147.87 29.43 C147.87 35.98, 144.6 39.25, 138.06 39.25 M138.06 39.25 C97.16 39.25, 56.27 39.25, 9.81 39.25 M138.06 39.25 C111.16 39.25, 84.26 39.25, 9.81 39.25 M9.81 39.25 C3.27 39.25, 0 35.98, 0 29.43 M9.81 39.25 C3.27 39.25, 0 35.98, 0 29.43 M0 29.43 C0 22.7, 0 15.96, 0 9.81 M0 29.43 C0 23.09, 0 16.74, 0 9.81 M0 9.81 C0 3.27, 3.27 0, 9.81 0 M0 9.81 C0 3.27, 3.27 0, 9.81 0" stroke="white" stroke-width="2" fill="none"></path></g></g><g clip-path="url(#pYW-lO5cVO1Wh9hgKRNLS)"><g transform="translate(482.1259391547028 1689.0617049979721) rotate(0 36.0234375 9.200000000000045)"><text x="36.0234375" y="0" font-family="Helvetica, Segoe UI Emoji" font-size="16px" fill="white" text-anchor="middle" style="white-space: pre;" direction="ltr" dominant-baseline="text-before-edge">Speichern</text></g></g><g clip-path="url(#pYW-lO5cVO1Wh9hgKRNLS)"><g stroke-linecap="round" transform="translate(447.2876314397872 1746.9158829570376) rotate(0 73.93466188158703 19.622731763156708)"><path d="M9.81 0 C57.65 0, 105.5 0, 138.06 0 C144.6 0, 147.87 3.27, 147.87 9.81 C147.87 17.33, 147.87 24.85, 147.87 29.43 C147.87 35.98, 144.6 39.25, 138.06 39.25 C99.13 39.25, 60.2 39.25, 9.81 39.25 C3.27 39.25, 0 35.98, 0 29.43 C0 24.15, 0 18.87, 0 9.81 C0 3.27, 3.27 0, 9.81 0" stroke="none" stroke-width="0" fill="black"></path><path d="M9.81 0 C56.23 0, 102.64 0, 138.06 0 M9.81 0 C47.9 0, 85.98 0, 138.06 0 M138.06 0 C144.6 0, 147.87 3.27, 147.87 9.81 M138.06 0 C144.6 0, 147.87 3.27, 147.87 9.81 M147.87 9.81 C147.87 14.98, 147.87 20.15, 147.87 29.43 M147.87 9.81 C147.87 14.91, 147.87 20.02, 147.87 29.43 M147.87 29.43 C147.87 35.98, 144.6 39.25, 138.06 39.25 M147.87 29.43 C147.87 35.98, 144.6 39.25, 138.06 39.25 M138.06 39.25 C96.4 39.25, 54.74 39.25, 9.81 39.25 M138.06 39.25 C99.98 39.25, 61.9 39.25, 9.81 39.25 M9.81 39.25 C3.27 39.25, 0 35.98, 0 29.43 M9.81 39.25 C3.27 39.25, 0 35.98, 0 29.43 M0 29.43 C0 22.31, 0 15.18, 0 9.81 M0 29.43 C0 24.43, 0 19.42, 0 9.81 M0 9.81 C0 3.27, 3.27 0, 9.81 0 M0 9.81 C0 3.27, 3.27 0, 9.81 0" stroke="white" stroke-width="2" fill="none"></path></g></g><g clip-path="url(#pYW-lO5cVO1Wh9hgKRNLS)"><g transform="translate(490.9761995713743 1757.3386147201943) rotate(0 30.24609375 9.200000000000045)"><text x="30.24609375" y="0" font-family="Helvetica, Segoe UI Emoji" font-size="16px" fill="white" text-anchor="middle" style="white-space: pre;" direction="ltr" dominant-baseline="text-before-edge">Löschen</text></g></g><g clip-path="url(#pYW-lO5cVO1Wh9hgKRNLS)"><g stroke-linecap="round" transform="translate(468.1617726511322 1899.8821457866832) rotate(0 97.65182665281498 16.66276041666663)"><path d="M0 0 C65.1 0.48, 130.48 3.7, 195.3 0 M0 0 C55.54 1.5, 111.6 0.36, 195.3 0 M195.3 0 C194.72 9.47, 194.02 19.88, 195.3 33.33 M195.3 0 C195.41 8.52, 194.92 16.91, 195.3 33.33 M195.3 33.33 C157.04 32.66, 115.42 32.85, 0 33.33 M195.3 33.33 C146.96 32.83, 97.72 32.32, 0 33.33 M0 33.33 C-1.46 18.62, 0.24 8.15, 0 0 M0 33.33 C-0.38 24.42, 0.25 15.74, 0 0" stroke="#000000" stroke-width="1" fill="none"></path></g></g><g clip-path="url(#pYW-lO5cVO1Wh9hgKRNLS)"><g transform="translate(470.1655969573476 1873.9387076281903) rotate(0 24.90998077392578 12.478556469662749)"><text x="0" y="0" font-family="Virgil, Segoe UI Emoji" font-size="20px" fill="#1e1e1e" text-anchor="start" style="white-space: pre;" direction="ltr" dominant-baseline="text-before-edge">Name</text></g></g><g clip-path="url(#pYW-lO5cVO1Wh9hgKRNLS)"><g stroke-linecap="round" transform="translate(750.8167009271565 1889.6957449583085) rotate(0 314.23465654228403 154.87757109507095)"><path d="M0 0 C149.78 -2.16, 299.41 -2.83, 628.47 0 M0 0 C227.69 1.34, 455.33 1.18, 628.47 0 M628.47 0 C626.54 82.5, 626.34 163.07, 628.47 309.76 M628.47 0 C626.44 80.05, 626.76 161.45, 628.47 309.76 M628.47 309.76 C426.75 310.66, 225.61 310.97, 0 309.76 M628.47 309.76 C438.98 308.15, 248.41 308.16, 0 309.76 M0 309.76 C-0.26 238.98, -1.3 169.35, 0 0 M0 309.76 C-0.65 206.69, 0.28 102.63, 0 0" stroke="#000000" stroke-width="1" fill="none"></path></g></g><g clip-path="url(#pYW-lO5cVO1Wh9hgKRNLS)"><g stroke-linecap="round" transform="translate(1348.2929489460003 1905.432548120497) rotate(0 8.560534753823049 135.14638269102943)"><path d="M0 0 C6.45 -0.39, 14.21 -0.3, 17.12 0 M0 0 C4.25 -0.14, 8.34 -0.29, 17.12 0 M17.12 0 C16.42 74.13, 16.47 147.96, 17.12 270.29 M17.12 0 C15.86 56.08, 16.15 111.5, 17.12 270.29 M17.12 270.29 C11.25 270.8, 5.84 270.52, 0 270.29 M17.12 270.29 C12.51 269.84, 8.22 270.2, 0 270.29 M0 270.29 C-0.51 172.02, 0.5 74.73, 0 0 M0 270.29 C1.07 164.59, 0.54 59.06, 0 0" stroke="#000000" stroke-width="1" fill="none"></path></g></g><g clip-path="url(#pYW-lO5cVO1Wh9hgKRNLS)"><g stroke-linecap="round" transform="translate(1351.0962820181448 1906.939482748242) rotate(0 6.357253804493553 35.32018470933383)"><path d="M0.92 0.23 L13.5 0.53 L12.72 70.19 L0.13 70.39" stroke="none" stroke-width="0" fill="black"></path><path d="M0 0 C4.75 -0.17, 8.38 0.06, 12.71 0 M0 0 C3.83 -0.19, 7.81 -0.08, 12.71 0 M12.71 0 C12.15 24.99, 11.62 50.17, 12.71 70.64 M12.71 0 C12.62 15.89, 12.67 32.25, 12.71 70.64 M12.71 70.64 C8.67 70.83, 4.29 71.29, 0 70.64 M12.71 70.64 C9.81 70.57, 7.58 70.51, 0 70.64 M0 70.64 C0.67 54.46, 1.24 37.4, 0 0 M0 70.64 C-0.62 46.51, 0.16 23.44, 0 0" stroke="#000000" stroke-width="1" fill="none"></path></g></g><g clip-path="url(#pYW-lO5cVO1Wh9hgKRNLS)"><g transform="translate(774.2591180323652 1903.2459029970887) rotate(0 48.42396545410156 9.982845175730176)"><text x="0" y="0" font-family="Virgil, Segoe UI Emoji" font-size="16px" fill="#ced4da" text-anchor="start" style="white-space: pre;" direction="ltr" dominant-baseline="text-before-edge">Beschreibung</text></g></g><g clip-path="url(#pYW-lO5cVO1Wh9hgKRNLS)"><g stroke-linecap="round" transform="translate(471.4538733455847 1984.9816670770701) rotate(0 97.65182665281498 16.66276041666663)"><path d="M0 0 C52.76 -0.12, 104.49 -0.85, 195.3 0 M0 0 C46.31 0.17, 91.28 0.23, 195.3 0 M195.3 0 C193.59 6.92, 195.96 16.44, 195.3 33.33 M195.3 0 C195.59 7.35, 195.97 15.25, 195.3 33.33 M195.3 33.33 C130.06 33.7, 66.66 33.71, 0 33.33 M195.3 33.33 C136.6 31.93, 78.71 33.22, 0 33.33 M0 33.33 C0.39 24.14, -1.72 11.37, 0 0 M0 33.33 C0.7 26.84, 0.57 20.41, 0 0" stroke="#000000" stroke-width="1" fill="none"></path></g></g><g clip-path="url(#pYW-lO5cVO1Wh9hgKRNLS)"><g transform="translate(473.45769765179284 1959.0382289185773) rotate(0 26.059974670410156 12.478556469662749)"><text x="0" y="0" font-family="Virgil, Segoe UI Emoji" font-size="20px" fill="#1e1e1e" text-anchor="start" style="white-space: pre;" direction="ltr" dominant-baseline="text-before-edge">Tarif</text></g></g><g clip-path="url(#pYW-lO5cVO1Wh9hgKRNLS)"><g stroke-linecap="round" transform="translate(472.23946362336574 2075.6804517992923) rotate(0 97.65182665281498 16.66276041666663)"><path d="M0 0 C57.27 0.21, 116.54 1.96, 195.3 0 M0 0 C48.93 -0.15, 98.05 0.08, 195.3 0 M195.3 0 C194.04 8.77, 194.47 16.72, 195.3 33.33 M195.3 0 C195.74 8.62, 196.46 17.33, 195.3 33.33 M195.3 33.33 C151.4 33.1, 107.17 30.45, 0 33.33 M195.3 33.33 C155.4 34.88, 114.62 34.33, 0 33.33 M0 33.33 C-1.73 23.15, 0.51 12.28, 0 0 M0 33.33 C-0.25 22.1, -0.13 11.52, 0 0" stroke="#000000" stroke-width="1" fill="none"></path></g></g><g clip-path="url(#pYW-lO5cVO1Wh9hgKRNLS)"><g transform="translate(474.2432879295666 2049.7370136407994) rotate(0 64.62993621826172 12.478556469662749)"><text x="0" y="0" font-family="Virgil, Segoe UI Emoji" font-size="20px" fill="#1e1e1e" text-anchor="start" style="white-space: pre;" direction="ltr" dominant-baseline="text-before-edge">Preisgarantie</text></g></g><g clip-path="url(#pYW-lO5cVO1Wh9hgKRNLS)"><g stroke-linecap="round" transform="translate(477.47300132487726 2160.6388419313516) rotate(0 6.223614017363445 6.2236140173633885)"><path d="M5.6 -0.49 C6.84 -0.6, 8.59 0.15, 9.75 1.08 C10.91 2.01, 12.3 3.71, 12.57 5.09 C12.83 6.47, 12.05 8.18, 11.33 9.35 C10.61 10.52, 9.46 11.6, 8.25 12.11 C7.05 12.62, 5.33 12.83, 4.11 12.41 C2.89 11.99, 1.64 10.7, 0.93 9.6 C0.21 8.49, -0.3 7.18, -0.18 5.78 C-0.06 4.38, 0.65 2.21, 1.65 1.18 C2.65 0.16, 5.03 -0.25, 5.83 -0.37 C6.64 -0.5, 6.41 0.33, 6.46 0.44 M4.76 0.85 C5.94 0.48, 7.09 0.51, 8.34 0.9 C9.59 1.29, 11.72 2.13, 12.25 3.19 C12.77 4.24, 11.85 5.85, 11.5 7.23 C11.15 8.62, 11.03 10.61, 10.15 11.5 C9.27 12.4, 7.53 12.68, 6.23 12.59 C4.92 12.49, 3.35 11.97, 2.31 10.92 C1.28 9.87, 0.19 7.72, 0.02 6.29 C-0.15 4.86, 0.48 3.47, 1.3 2.35 C2.12 1.23, 4.37 -0.11, 4.95 -0.42 C5.52 -0.74, 4.88 0.38, 4.77 0.47" stroke="#000000" stroke-width="1" fill="none"></path></g></g><g clip-path="url(#pYW-lO5cVO1Wh9hgKRNLS)"><g transform="translate(496.205878801542 2154.0860025945594) rotate(0 24.499977111816406 13.094006896816836)"><text x="0" y="0" font-family="Virgil, Segoe UI Emoji" font-size="20px" fill="#000000" text-anchor="start" style="white-space: pre;" direction="ltr" dominant-baseline="text-before-edge">Aktiv</text></g></g><g clip-path="url(#pYW-lO5cVO1Wh9hgKRNLS)"><g stroke-linecap="round" transform="translate(480.9688404861372 2163.939161199839) rotate(0 2.972368194454816 2.972368194454816)"><path d="M3.38 -0.22 C3.97 -0.2, 4.41 0.36, 4.86 0.88 C5.31 1.39, 6.05 2.18, 6.1 2.88 C6.15 3.57, 5.5 4.54, 5.13 5.03 C4.77 5.52, 4.54 5.72, 3.92 5.82 C3.3 5.91, 2.05 5.87, 1.42 5.6 C0.79 5.34, 0.34 4.85, 0.13 4.21 C-0.08 3.57, -0.01 2.41, 0.18 1.78 C0.37 1.15, 0.75 0.72, 1.25 0.43 C1.75 0.14, 2.77 0.05, 3.18 0.05 C3.59 0.04, 3.69 0.33, 3.72 0.38 M3.21 0.26 C3.76 0.23, 4.18 0.31, 4.65 0.71 C5.12 1.11, 5.92 1.95, 6.02 2.66 C6.12 3.38, 5.54 4.51, 5.23 4.98 C4.93 5.45, 4.79 5.27, 4.18 5.47 C3.57 5.66, 2.28 6.42, 1.58 6.15 C0.88 5.88, 0.19 4.54, -0.02 3.83 C-0.24 3.12, 0.14 2.48, 0.29 1.9 C0.43 1.31, 0.34 0.63, 0.85 0.33 C1.35 0.03, 2.88 0.1, 3.33 0.09 C3.78 0.08, 3.55 0.22, 3.56 0.28" stroke="none" stroke-width="0" fill="black"></path><path d="M2.64 0.11 C3.23 0.02, 3.75 0.19, 4.24 0.51 C4.74 0.83, 5.37 1.43, 5.61 2.04 C5.85 2.66, 5.86 3.61, 5.67 4.21 C5.47 4.81, 5.01 5.31, 4.44 5.64 C3.87 5.98, 2.94 6.39, 2.26 6.22 C1.59 6.04, 0.8 5.2, 0.38 4.61 C-0.05 4.02, -0.35 3.26, -0.29 2.7 C-0.24 2.13, 0.25 1.73, 0.7 1.25 C1.16 0.76, 2.19 0.03, 2.44 -0.2 C2.7 -0.43, 2.2 -0.21, 2.24 -0.12 M3.63 -0.32 C4.23 -0.38, 4.3 -0.03, 4.74 0.52 C5.18 1.06, 6.09 2.23, 6.26 2.97 C6.43 3.71, 6.14 4.41, 5.75 4.94 C5.37 5.47, 4.65 6.08, 3.95 6.15 C3.25 6.22, 2.17 5.73, 1.55 5.36 C0.94 4.99, 0.48 4.55, 0.27 3.93 C0.06 3.31, 0.09 2.19, 0.29 1.62 C0.48 1.06, 0.97 0.89, 1.42 0.55 C1.87 0.21, 2.6 -0.4, 3 -0.43 C3.39 -0.46, 3.66 0.27, 3.79 0.37" stroke="#000000" stroke-width="1" fill="none"></path></g></g><g clip-path="url(#pYW-lO5cVO1Wh9hgKRNLS)"><g stroke-linecap="round" transform="translate(477.50814773778984 2183.5909440851246) rotate(0 6.223614017363445 6.2236140173633885)"><path d="M5.02 0.21 C6.18 -0.04, 8.12 0.32, 9.29 1.05 C10.45 1.78, 11.56 3.33, 12.02 4.6 C12.47 5.88, 12.52 7.43, 12 8.69 C11.48 9.96, 10.14 11.67, 8.88 12.21 C7.63 12.75, 5.8 12.35, 4.46 11.93 C3.13 11.51, 1.62 10.61, 0.87 9.67 C0.12 8.73, -0.12 7.63, -0.01 6.3 C0.09 4.97, 0.66 2.79, 1.5 1.69 C2.33 0.6, 4.3 -0.01, 5.02 -0.26 C5.74 -0.52, 5.63 0.08, 5.8 0.16 M6.06 -0.71 C7.36 -0.58, 9.92 0.83, 11.1 1.92 C12.27 3.02, 12.97 4.47, 13.11 5.85 C13.25 7.23, 12.79 9.18, 11.91 10.19 C11.03 11.2, 9.22 11.65, 7.85 11.9 C6.48 12.15, 4.87 12.29, 3.69 11.68 C2.51 11.07, 1.36 9.41, 0.78 8.26 C0.2 7.11, -0.01 6.09, 0.2 4.79 C0.41 3.48, 0.83 1.16, 2.02 0.43 C3.21 -0.29, 6.45 0.53, 7.34 0.45 C8.22 0.37, 7.31 -0.14, 7.33 -0.04" stroke="#000000" stroke-width="1" fill="none"></path></g></g><g clip-path="url(#pYW-lO5cVO1Wh9hgKRNLS)"><g transform="translate(496.2236197476741 2177.314558102488) rotate(0 55.48994445800781 12.5)"><text x="0" y="0" font-family="Virgil, Segoe UI Emoji" font-size="20px" fill="#000000" text-anchor="start" style="white-space: pre;" direction="ltr" dominant-baseline="text-before-edge">Deaktiviert</text></g></g><g clip-path="url(#pYW-lO5cVO1Wh9hgKRNLS)"><g transform="translate(475.51743044678005 2124.0457144448274) rotate(0 35.15996551513672 12.478556469662749)"><text x="0" y="0" font-family="Virgil, Segoe UI Emoji" font-size="20px" fill="#1e1e1e" text-anchor="start" style="white-space: pre;" direction="ltr" dominant-baseline="text-before-edge">Status</text></g></g><g clip-path="url(#pYW-lO5cVO1Wh9hgKRNLS)"><g stroke-linecap="round"><g transform="translate(438.97925485959786 1853.3066529618088) rotate(0 474.8784722222226 -2.003038194444457)"><path d="M0 0 C158.29 -0.67, 791.46 -3.34, 949.76 -4.01" stroke="#bbb" stroke-width="2.5" fill="none" stroke-dasharray="1.5 8"></path></g></g><mask></mask></g><g transform="translate(75.2311615293147 1450.756606432509) rotate(0 10.716987609863281 8.75)"><text x="0" y="0" font-family="Assistant, Segoe UI Emoji" font-size="14px" fill="#999999" text-anchor="start" style="white-space: pre;" direction="ltr" dominant-baseline="text-before-edge">Gas</text></g><rect transform="translate(75.2311615293147 1471.256606432509) rotate(0 698.1601562499999 415.9570312500001)" width="1396.3203124999998px" height="831.9140625000002px" rx="8" ry="8" fill="none" stroke="#bbb" stroke-width="2"></rect><g transform="translate(10 10) rotate(0 214.76255798339844 134.29949190355447)"><text x="0" y="0" font-family="Virgil, Segoe UI Emoji" font-size="214.87918704568716px" fill="#2f9e44" text-anchor="start" style="white-space: pre;" direction="ltr" dominant-baseline="text-before-edge">Gas</text></g><g stroke-linecap="round"><g transform="translate(246.53409595172343 1251.422460941256) rotate(0 341.42933100550727 46.406796827116295)" fill-rule="evenodd"><path d="M1.75 -1.5 L-0.57 94.74 L681.65 87.34 L683.09 16.82 L602.59 5.16 L0.4 0.32" stroke="none" stroke-width="0" fill="#fff" fill-rule="evenodd"></path><path d="M0 0 C-0.97 35.07, -1.78 64.78, 0 92.81 M0 0 C-0.08 19.45, -1.4 38.39, 0 92.81 M0 92.81 C163.64 91.17, 326.12 91.28, 682.86 88.96 M0 92.81 C156.66 94.67, 313.17 93.82, 682.86 88.96 M682.86 88.96 C681.39 62.4, 681.59 35.85, 682.34 18.07 M682.86 88.96 C681.91 72.45, 683.4 58.35, 682.34 18.07 M682.34 18.07 C654.06 15.72, 622.46 9.86, 604.26 6 M682.34 18.07 C657.62 14.07, 633.41 9.15, 604.26 6 M604.26 6 C372.72 3.29, 141.91 1.22, 0 0 M604.26 6 C413.76 3.03, 223.38 1.69, 0 0 M0 0 C0 0, 0 0, 0 0 M0 0 C0 0, 0 0, 0 0" stroke="#000000" stroke-width="1" fill="none"></path></g></g><mask></mask><g transform="translate(283.56371331950504 1275.624013836798) rotate(0 310.6297302246094 25)"><text x="0" y="0" font-family="Virgil, Segoe UI Emoji" font-size="20px" fill="#000000" text-anchor="start" style="white-space: pre;" direction="ltr" dominant-baseline="text-before-edge">If you click on "Bearbeiten" the data should be loaded into </text><text x="0" y="25.000000000000007" font-family="Virgil, Segoe UI Emoji" font-size="20px" fill="#000000" text-anchor="start" style="white-space: pre;" direction="ltr" dominant-baseline="text-before-edge">the form and if saved the specific entry should be overwritten</text></g><g stroke-linecap="round"><g transform="translate(848.7292138737139 1258.7236059733527) rotate(0 40.50205307824581 15.733386535092961)" fill-rule="evenodd"><path d="M-0.35 0.48 L67.14 32.32 L64.94 30.85 L81.35 9.96 L-0.71 1.22" stroke="none" stroke-width="0" fill="#868e96" fill-rule="evenodd"></path><path d="M0 0 C24.6 11.42, 52.93 26.57, 67.21 31.32 M0 0 C17.8 9.66, 37.07 18.91, 67.21 31.32 M67.21 31.32 C67.05 31.3, 66.91 31.42, 66.64 31.47 M67.21 31.32 C67.06 31.38, 66.85 31.4, 66.64 31.47 M66.64 31.47 C69.58 24.74, 76.12 16.41, 81 10.14 M66.64 31.47 C70.22 26.71, 73.37 23.1, 81 10.14 M81 10.14 C51.14 4.95, 18.9 2.23, 0 0 M81 10.14 C53.65 6.93, 24.51 1.96, 0 0 M0 0 C0 0, 0 0, 0 0 M0 0 C0 0, 0 0, 0 0" stroke="#000000" stroke-width="1" fill="none"></path></g></g><mask></mask></svg>