<svg version="1.1" xmlns="http://www.w3.org/2000/svg" viewBox="0 0 1416.3203124999998 2120.36584665807" width="1416.3203124999998" height="2120.36584665807">
  <!-- svg-source:excalidraw -->
  
  <defs>
    <style class="style-fonts">
      @font-face {
        font-family: "Virgil";
        src: url("https://file%2B.vscode-resource.vscode-cdn.net/c%3A/Users/lisa-/.vscode/extensions/pomdtr.excalidraw-editor-3.7.4/public//dist/excalidraw-assets/Virgil.woff2");
      }
      @font-face {
        font-family: "Cascadia";
        src: url("https://file%2B.vscode-resource.vscode-cdn.net/c%3A/Users/lisa-/.vscode/extensions/pomdtr.excalidraw-editor-3.7.4/public//dist/excalidraw-assets/Cascadia.woff2");
      }
      @font-face {
        font-family: "Assistant";
        src: url("https://file%2B.vscode-resource.vscode-cdn.net/c%3A/Users/lisa-/.vscode/extensions/pomdtr.excalidraw-editor-3.7.4/public//dist/excalidraw-assets/Assistant-Regular.woff2");
      }
    </style>
    <clipPath id="5UzER827NEgpk4KB9yPVX">
            <rect transform="translate(10 1278.45178415807) rotate(0 698.1601562499999 415.95703125000017)" width="1396.3203124999998" height="831.9140625000002">
          </rect>
        </clipPath>
  </defs>
  <rect x="0" y="0" width="1416.3203124999998" height="2120.36584665807" fill="#ffffff"></rect><g clip-path="url(#5UzER827NEgpk4KB9yPVX)"><g stroke-linecap="round" transform="translate(65.62681557318137 1340.0882843257286) rotate(0 640 360)"><path d="M0 0 C316.31 0, 632.62 0, 1280 0 M0 0 C441.88 0, 883.75 0, 1280 0 M1280 0 C1280 282.64, 1280 565.28, 1280 720 M1280 0 C1280 219.65, 1280 439.29, 1280 720 M1280 720 C950.31 720, 620.62 720, 0 720 M1280 720 C1005.79 720, 731.57 720, 0 720 M0 720 C0 543.87, 0 367.74, 0 0 M0 720 C0 457.68, 0 195.35, 0 0" stroke="#ced4da" stroke-width="4" fill="none"></path></g></g><g clip-path="url(#5UzER827NEgpk4KB9yPVX)"><g stroke-linecap="round"><g transform="translate(342.3860898274106 1339.6394120623866) rotate(0 0.67626953125 360.6884765625)"><path d="M-0.96 -0.94 C-0.82 119.3, 1.58 601.38, 2.01 721.92 M0.74 1.18 C0.67 121.02, 1.37 600.21, 1.4 720.08" stroke="#bbb" stroke-width="2" fill="none"></path></g></g><mask></mask></g><g clip-path="url(#5UzER827NEgpk4KB9yPVX)"><g transform="translate(101.59122352541453 2011.5634138050418) rotate(0 29.653038024902344 11.152405278842025)"><text x="0" y="0" font-family="Helvetica, Segoe UI Emoji" font-size="19.39548744146448px" fill="#1e1e1e" text-anchor="start" style="white-space: pre;" direction="ltr" dominant-baseline="text-before-edge">Logout</text></g></g><g clip-path="url(#5UzER827NEgpk4KB9yPVX)"><g transform="translate(103.29053831157944 1369.14518073608) rotate(0 80.01953125 103.5)"><text x="0" y="0" font-family="Helvetica, Segoe UI Emoji" font-size="20px" fill="#1e1e1e" text-anchor="start" style="white-space: pre;" direction="ltr" dominant-baseline="text-before-edge">Home</text><text x="0" y="23" font-family="Helvetica, Segoe UI Emoji" font-size="20px" fill="#1e1e1e" text-anchor="start" style="white-space: pre;" direction="ltr" dominant-baseline="text-before-edge"></text><text x="0" y="46" font-family="Helvetica, Segoe UI Emoji" font-size="20px" fill="#1e1e1e" text-anchor="start" style="white-space: pre;" direction="ltr" dominant-baseline="text-before-edge"></text><text x="0" y="69" font-family="Helvetica, Segoe UI Emoji" font-size="20px" fill="#1e1e1e" text-anchor="start" style="white-space: pre;" direction="ltr" dominant-baseline="text-before-edge">- Stadtwerke</text><text x="0" y="92" font-family="Helvetica, Segoe UI Emoji" font-size="20px" fill="#1e1e1e" text-anchor="start" style="white-space: pre;" direction="ltr" dominant-baseline="text-before-edge">    - Wasser</text><text x="0" y="115" font-family="Helvetica, Segoe UI Emoji" font-size="20px" fill="#1e1e1e" text-anchor="start" style="white-space: pre;" direction="ltr" dominant-baseline="text-before-edge">    - Strom</text><text x="0" y="138" font-family="Helvetica, Segoe UI Emoji" font-size="20px" fill="#1e1e1e" text-anchor="start" style="white-space: pre;" direction="ltr" dominant-baseline="text-before-edge">    - Wärmepumpe</text><text x="0" y="161" font-family="Helvetica, Segoe UI Emoji" font-size="20px" fill="#1e1e1e" text-anchor="start" style="white-space: pre;" direction="ltr" dominant-baseline="text-before-edge">    - Gas</text><text x="0" y="184" font-family="Helvetica, Segoe UI Emoji" font-size="20px" fill="#1e1e1e" text-anchor="start" style="white-space: pre;" direction="ltr" dominant-baseline="text-before-edge">    - Rechnungen</text></g></g><g clip-path="url(#5UzER827NEgpk4KB9yPVX)"><g stroke-linecap="round" transform="translate(342.72826329331656 1340.399927861505) rotate(0 503.00695269974335 360.0109060460611)"><path d="M0 0 C321.2 3.55, 642.82 4.65, 1006.01 0 M1006.01 0 C1009.15 193.12, 1008.01 384.84, 1006.01 720.02 M1006.01 720.02 C707.68 722.12, 409.21 721.66, 0 720.02 M0 720.02 C0.72 470.02, 0.16 219.82, 0 0" stroke="#bbb" stroke-width="2.5" fill="none" stroke-dasharray="1.5 8"></path></g></g><g clip-path="url(#5UzER827NEgpk4KB9yPVX)"><g stroke-linecap="round"><g transform="translate(101.2062296928816 1703.7824610820594) rotate(0 36.999588960958135 -0.2596469632354115)"><path d="M-0.53 -1.19 C12.18 -1.19, 62.51 -1.2, 75.11 -0.91 M1.39 0.8 C14.14 1.05, 62.5 0.76, 74.74 0.42" stroke="#1e1e1e" stroke-width="2" fill="none"></path></g></g><mask></mask></g><g clip-path="url(#5UzER827NEgpk4KB9yPVX)"><g transform="translate(73.81189750377962 1640.458341253508) rotate(0 48.91015625 9.199999999999989)"><text x="0" y="0" font-family="Helvetica, Segoe UI Emoji" font-size="16px" fill="#bbb" text-anchor="start" style="white-space: pre;" direction="ltr" dominant-baseline="text-before-edge">Admin Center</text></g></g><g clip-path="url(#5UzER827NEgpk4KB9yPVX)"><g stroke-linecap="round"><g transform="translate(67.79888022122759 1663.2102985388556) rotate(0 141.61061985371225 -0.523091875087232)"><path d="M0 0 C112.54 -1.2, 223.74 -3.77, 283.22 -1.05" stroke="#bbb" stroke-width="4.5" fill="none" stroke-dasharray="1.5 10"></path></g></g><mask></mask></g><g clip-path="url(#5UzER827NEgpk4KB9yPVX)"><g transform="translate(97.65443871940079 1675.4751443350715) rotate(0 91.1328125 115)"><text x="0" y="0" font-family="Helvetica, Segoe UI Emoji" font-size="20px" fill="#1e1e1e" text-anchor="start" style="white-space: pre;" direction="ltr" dominant-baseline="text-before-edge">General</text><text x="0" y="23" font-family="Helvetica, Segoe UI Emoji" font-size="20px" fill="#1e1e1e" text-anchor="start" style="white-space: pre;" direction="ltr" dominant-baseline="text-before-edge"></text><text x="0" y="46" font-family="Helvetica, Segoe UI Emoji" font-size="20px" fill="#1e1e1e" text-anchor="start" style="white-space: pre;" direction="ltr" dominant-baseline="text-before-edge"></text><text x="0" y="69" font-family="Helvetica, Segoe UI Emoji" font-size="20px" fill="#1e1e1e" text-anchor="start" style="white-space: pre;" direction="ltr" dominant-baseline="text-before-edge">- Stadtwerke</text><text x="0" y="92" font-family="Helvetica, Segoe UI Emoji" font-size="20px" fill="#1e1e1e" text-anchor="start" style="white-space: pre;" direction="ltr" dominant-baseline="text-before-edge">    - Tarife</text><text x="0" y="115" font-family="Helvetica, Segoe UI Emoji" font-size="20px" fill="#1e1e1e" text-anchor="start" style="white-space: pre;" direction="ltr" dominant-baseline="text-before-edge">        - Wasser</text><text x="0" y="138" font-family="Helvetica, Segoe UI Emoji" font-size="20px" fill="#1e1e1e" text-anchor="start" style="white-space: pre;" direction="ltr" dominant-baseline="text-before-edge">        - Strom</text><text x="0" y="161" font-family="Helvetica, Segoe UI Emoji" font-size="20px" fill="#1e1e1e" text-anchor="start" style="white-space: pre;" direction="ltr" dominant-baseline="text-before-edge">        - Wärmepumpe</text><text x="0" y="184" font-family="Helvetica, Segoe UI Emoji" font-size="20px" fill="#1e1e1e" text-anchor="start" style="white-space: pre;" direction="ltr" dominant-baseline="text-before-edge">        - Gas</text><text x="0" y="207" font-family="Helvetica, Segoe UI Emoji" font-size="20px" fill="#1e1e1e" text-anchor="start" style="white-space: pre;" direction="ltr" dominant-baseline="text-before-edge">    - Kunden</text></g></g><g clip-path="url(#5UzER827NEgpk4KB9yPVX)"><g stroke-linecap="round"><g transform="translate(63.70990338593765 1941.7793729835) rotate(0 141.61061985371225 -0.523091875087232)"><path d="M0 0 C105.82 1.03, 210.46 1.45, 283.22 -1.05" stroke="#bbb" stroke-width="4.5" fill="none" stroke-dasharray="1.5 10"></path></g></g><mask></mask></g><g transform="translate(10 1257.95178415807) rotate(0 29.89696502685547 8.75)"><text x="0" y="0" font-family="Assistant, Segoe UI Emoji" font-size="14px" fill="#999999" text-anchor="start" style="white-space: pre;" direction="ltr" dominant-baseline="text-before-edge">P_General</text></g><rect transform="translate(10 1278.45178415807) rotate(0 698.1601562499999 415.95703125000017)" width="1396.3203124999998px" height="831.9140625000002px" rx="8" ry="8" fill="none" stroke="#bbb" stroke-width="2"></rect><g transform="translate(31.78212476066983 10) rotate(0 398.5838317871094 134.29949190355444)"><text x="0" y="0" font-family="Virgil, Segoe UI Emoji" font-size="214.87918704568716px" fill="#2f9e44" text-anchor="start" style="white-space: pre;" direction="ltr" dominant-baseline="text-before-edge">General</text></g><g clip-path="url(#5UzER827NEgpk4KB9yPVX)"><g transform="translate(374.69702148437545 1377.3783193890704) rotate(0 331.6583251953125 110.68798828125)"><text x="0" y="0" font-family="Helvetica, Segoe UI Emoji" font-size="96.25042459239128px" fill="#1e1e1e" text-anchor="start" style="white-space: pre;" direction="ltr" dominant-baseline="text-before-edge">Willkommen </text><text x="0" y="110.68798828124997" font-family="Helvetica, Segoe UI Emoji" font-size="96.25042459239128px" fill="#1e1e1e" text-anchor="start" style="white-space: pre;" direction="ltr" dominant-baseline="text-before-edge">Herr Paul Peter</text></g></g><g clip-path="url(#5UzER827NEgpk4KB9yPVX)"><g stroke-linecap="round" transform="translate(382.1865036374086 1645.3527685923896) rotate(0 452.22609401884154 191.05643458574326)"><path d="M0 0 C266.03 -0.94, 532.33 -1.34, 904.45 0 M0 0 C185.38 1.36, 370.13 1.64, 904.45 0 M904.45 0 C905.2 131.01, 906.23 262.06, 904.45 382.11 M904.45 0 C904.69 130.98, 903.65 261.09, 904.45 382.11 M904.45 382.11 C717.35 380.86, 529.29 381.14, 0 382.11 M904.45 382.11 C549.98 384.21, 196.32 384.36, 0 382.11 M0 382.11 C1.02 272.32, 1.18 163.76, 0 0 M0 382.11 C-1.73 235.21, -2.42 88.16, 0 0" stroke="#000000" stroke-width="1" fill="none"></path></g></g><g clip-path="url(#5UzER827NEgpk4KB9yPVX)"><g stroke-linecap="round" transform="translate(471.85405613061926 1720.8060110199358) rotate(0 44.54548100742838 44.54548100742835)"><path d="M52.54 1.65 C60.21 2.52, 68.78 6.97, 74.7 12.5 C80.61 18.04, 85.95 27.06, 88.02 34.85 C90.08 42.64, 89.71 51.75, 87.08 59.25 C84.45 66.75, 78.58 75.08, 72.27 79.86 C65.95 84.64, 57.27 87.27, 49.18 87.92 C41.1 88.58, 31.05 87.3, 23.75 83.79 C16.45 80.28, 9.16 73.64, 5.36 66.85 C1.55 60.05, 0.38 51.16, 0.93 43.02 C1.47 34.87, 4.15 24.7, 8.61 17.97 C13.07 11.25, 19.59 5.5, 27.71 2.65 C35.82 -0.2, 51.72 0.57, 57.3 0.87 C62.87 1.16, 61.4 3.39, 61.15 4.4 M25.88 3.99 C32.47 0.24, 41.65 0.64, 49.74 1.63 C57.82 2.62, 68.24 5.05, 74.39 9.94 C80.54 14.82, 84.29 23.05, 86.65 30.92 C89.01 38.78, 90.55 49.1, 88.55 57.12 C86.56 65.15, 80.84 73.83, 74.69 79.07 C68.54 84.31, 59.99 87.38, 51.64 88.56 C43.28 89.74, 31.78 89.58, 24.56 86.13 C17.34 82.69, 12.25 74.67, 8.33 67.87 C4.41 61.08, 1.17 53.21, 1.01 45.36 C0.86 37.52, 3.19 27.55, 7.39 20.82 C11.59 14.08, 22.79 7.64, 26.2 4.95 C29.61 2.26, 27.73 4.14, 27.84 4.68" stroke="none" stroke-width="0" fill="black"></path><path d="M52.25 1.07 C60 1.7, 68.92 5.64, 74.93 11.15 C80.95 16.66, 86.33 26.14, 88.35 34.13 C90.37 42.11, 89.71 51.49, 87.05 59.07 C84.4 66.64, 78.58 74.53, 72.42 79.59 C66.25 84.64, 57.97 88.6, 50.04 89.37 C42.12 90.14, 32.16 87.78, 24.87 84.2 C17.58 80.62, 10.4 74.96, 6.32 67.9 C2.23 60.83, 0.22 50.11, 0.38 41.81 C0.54 33.5, 2.77 24.52, 7.27 18.07 C11.77 11.62, 18.65 5.82, 27.37 3.1 C36.1 0.38, 53.41 1.39, 59.65 1.76 C65.88 2.13, 65.02 4.38, 64.78 5.33 M56.83 2.87 C64.52 4.06, 71.86 8.5, 77.25 14.37 C82.63 20.24, 87.8 29.93, 89.14 38.07 C90.47 46.21, 88.35 55.77, 85.26 63.2 C82.17 70.63, 76.98 78.38, 70.59 82.64 C64.21 86.91, 55.07 88.85, 46.96 88.78 C38.85 88.71, 29.2 86.53, 21.92 82.22 C14.64 77.9, 6.75 70.06, 3.28 62.88 C-0.19 55.7, -0.18 46.9, 1.1 39.13 C2.39 31.36, 6.16 22.15, 10.98 16.24 C15.81 10.32, 22.73 5.86, 30.05 3.64 C37.37 1.42, 50.83 3.36, 54.92 2.93 C59 2.51, 54.77 0.71, 54.54 1.08" stroke="#000000" stroke-width="1" fill="none"></path></g></g><g clip-path="url(#5UzER827NEgpk4KB9yPVX)"><g stroke-linecap="round"><g transform="translate(399.8909733504636 1999.645526728904) rotate(0 422.5299750583944 -115.09160397470282)" fill-rule="evenodd"><path d="M-0.12 1.76 L294.29 -165.99 L429.63 -106.3 L663.47 -240.57 L843.16 11.1 L0.62 -0.11" stroke="none" stroke-width="0" fill="black" fill-rule="evenodd"></path><path d="M0 0 C112.24 -65.32, 226.43 -129.3, 293.31 -166.81 M0 0 C86.44 -49.39, 171.48 -97.96, 293.31 -166.81 M293.31 -166.81 C339.44 -147.98, 383.66 -126.5, 431.27 -105.93 M293.31 -166.81 C337.9 -145.67, 384.71 -124.12, 431.27 -105.93 M431.27 -105.93 C489.06 -137.1, 545.48 -172.69, 664.63 -240.88 M431.27 -105.93 C513.36 -155.56, 596.61 -202.84, 664.63 -240.88 M664.63 -240.88 C718.18 -169.56, 767.6 -99.34, 845.06 10.7 M664.63 -240.88 C712.68 -171.39, 761.87 -102.74, 845.06 10.7 M845.06 10.7 C639.8 5.03, 432.36 2.37, 0 0 M845.06 10.7 C626.17 6.06, 406.98 3.51, 0 0 M0 0 C0 0, 0 0, 0 0 M0 0 C0 0, 0 0, 0 0" stroke="#000000" stroke-width="1" fill="none"></path></g></g><mask></mask></g></svg>