<svg version="1.1" xmlns="http://www.w3.org/2000/svg" viewBox="0 0 1441.0364680145137 2549.9010275826977" width="1441.0364680145137" height="2549.9010275826977">
  <!-- svg-source:excalidraw -->
  
  <defs>
    <style class="style-fonts">
      @font-face {
        font-family: "Virgil";
        src: url("https://file%2B.vscode-resource.vscode-cdn.net/c%3A/Users/lisa-/.vscode/extensions/pomdtr.excalidraw-editor-3.7.4/public//dist/excalidraw-assets/Virgil.woff2");
      }
      @font-face {
        font-family: "Cascadia";
        src: url("https://file%2B.vscode-resource.vscode-cdn.net/c%3A/Users/lisa-/.vscode/extensions/pomdtr.excalidraw-editor-3.7.4/public//dist/excalidraw-assets/Cascadia.woff2");
      }
      @font-face {
        font-family: "Assistant";
        src: url("https://file%2B.vscode-resource.vscode-cdn.net/c%3A/Users/lisa-/.vscode/extensions/pomdtr.excalidraw-editor-3.7.4/public//dist/excalidraw-assets/Assistant-Regular.woff2");
      }
    </style>
    <clipPath id="opfBFkDv7arlNCUWkP9Vv">
            <rect transform="translate(34.71615551451396 1305.2179981328582) rotate(0 698.1601562499999 415.95703125000006)" width="1396.3203124999998" height="831.9140625000002">
          </rect>
        </clipPath>
  </defs>
  <rect x="0" y="0" width="1441.0364680145137" height="2549.9010275826977" fill="#ffffff"></rect><g clip-path="url(#opfBFkDv7arlNCUWkP9Vv)"><g stroke-linecap="round" transform="translate(90.34297108769533 1366.854498300517) rotate(0 640 360)"><path d="M0 0 C457.69 0, 915.39 0, 1280 0 M0 0 C448.08 0, 896.16 0, 1280 0 M1280 0 C1280 167.76, 1280 335.52, 1280 720 M1280 0 C1280 230.69, 1280 461.39, 1280 720 M1280 720 C890.49 720, 500.97 720, 0 720 M1280 720 C934.68 720, 589.35 720, 0 720 M0 720 C0 505.64, 0 291.27, 0 0 M0 720 C0 569.29, 0 418.59, 0 0" stroke="#ced4da" stroke-width="4" fill="none"></path></g></g><g clip-path="url(#opfBFkDv7arlNCUWkP9Vv)"><g stroke-linecap="round"><g transform="translate(367.1022453419282 1366.405626037175) rotate(0 0.67626953125 360.6884765625)"><path d="M-0.28 0.1 C0.1 120.56, 1.17 601.73, 1.33 721.98 M1.77 -0.89 C2.08 119.28, 0.75 599.53, 0.37 720.17" stroke="#bbb" stroke-width="2" fill="none"></path></g></g><mask></mask></g><g clip-path="url(#opfBFkDv7arlNCUWkP9Vv)"><g transform="translate(126.30737903992849 2038.3296277798302) rotate(0 29.653038024902344 11.152405278842025)"><text x="0" y="0" font-family="Helvetica, Segoe UI Emoji" font-size="19.39548744146448px" fill="#1e1e1e" text-anchor="start" style="white-space: pre;" direction="ltr" dominant-baseline="text-before-edge">Logout</text></g></g><g clip-path="url(#opfBFkDv7arlNCUWkP9Vv)"><g transform="translate(128.0066938260934 1395.9113947108683) rotate(0 80.01953125 103.5)"><text x="0" y="0" font-family="Helvetica, Segoe UI Emoji" font-size="20px" fill="#1e1e1e" text-anchor="start" style="white-space: pre;" direction="ltr" dominant-baseline="text-before-edge">Home</text><text x="0" y="23" font-family="Helvetica, Segoe UI Emoji" font-size="20px" fill="#1e1e1e" text-anchor="start" style="white-space: pre;" direction="ltr" dominant-baseline="text-before-edge"></text><text x="0" y="46" font-family="Helvetica, Segoe UI Emoji" font-size="20px" fill="#1e1e1e" text-anchor="start" style="white-space: pre;" direction="ltr" dominant-baseline="text-before-edge"></text><text x="0" y="69" font-family="Helvetica, Segoe UI Emoji" font-size="20px" fill="#1e1e1e" text-anchor="start" style="white-space: pre;" direction="ltr" dominant-baseline="text-before-edge">- Stadtwerke</text><text x="0" y="92" font-family="Helvetica, Segoe UI Emoji" font-size="20px" fill="#1e1e1e" text-anchor="start" style="white-space: pre;" direction="ltr" dominant-baseline="text-before-edge">    - Wasser</text><text x="0" y="115" font-family="Helvetica, Segoe UI Emoji" font-size="20px" fill="#1e1e1e" text-anchor="start" style="white-space: pre;" direction="ltr" dominant-baseline="text-before-edge">    - Strom</text><text x="0" y="138" font-family="Helvetica, Segoe UI Emoji" font-size="20px" fill="#1e1e1e" text-anchor="start" style="white-space: pre;" direction="ltr" dominant-baseline="text-before-edge">    - Wärmepumpe</text><text x="0" y="161" font-family="Helvetica, Segoe UI Emoji" font-size="20px" fill="#1e1e1e" text-anchor="start" style="white-space: pre;" direction="ltr" dominant-baseline="text-before-edge">    - Gas</text><text x="0" y="184" font-family="Helvetica, Segoe UI Emoji" font-size="20px" fill="#1e1e1e" text-anchor="start" style="white-space: pre;" direction="ltr" dominant-baseline="text-before-edge">    - Rechnungen</text></g></g><g clip-path="url(#opfBFkDv7arlNCUWkP9Vv)"><g stroke-linecap="round" transform="translate(367.44441880783415 1367.1661418362933) rotate(0 503.00695269974335 360.0109060460612)"><path d="M0 0 C243.47 0.86, 488.08 0.08, 1006.01 0 M1006.01 0 C1006.54 255.13, 1006.42 509.07, 1006.01 720.02 M1006.01 720.02 C747.23 718.33, 490.42 717.91, 0 720.02 M0 720.02 C0.27 523.11, 1.35 325.98, 0 0" stroke="#bbb" stroke-width="2.5" fill="none" stroke-dasharray="1.5 8"></path></g></g><g clip-path="url(#opfBFkDv7arlNCUWkP9Vv)"><g stroke-linecap="round"><g transform="translate(137.31327156741463 1795.0438440092748) rotate(0 45.724121942312195 0.5082948081226277)"><path d="M0.37 -0.19 C15.51 0.24, 75.45 1.56, 90.64 1.66 M-0.9 -1.34 C14.64 -1.17, 77.65 -0.58, 92.93 -0.13" stroke="#1e1e1e" stroke-width="2" fill="none"></path></g></g><mask></mask></g><g clip-path="url(#opfBFkDv7arlNCUWkP9Vv)"><g transform="translate(98.52805301829358 1667.2245552282966) rotate(0 48.91015625 9.199999999999989)"><text x="0" y="0" font-family="Helvetica, Segoe UI Emoji" font-size="16px" fill="#bbb" text-anchor="start" style="white-space: pre;" direction="ltr" dominant-baseline="text-before-edge">Admin Center</text></g></g><g clip-path="url(#opfBFkDv7arlNCUWkP9Vv)"><g stroke-linecap="round"><g transform="translate(92.51503573574155 1689.976512513644) rotate(0 141.61061985371225 -0.523091875087232)"><path d="M0 0 C65.18 0.27, 133.26 -0.2, 283.22 -1.05" stroke="#bbb" stroke-width="4.5" fill="none" stroke-dasharray="1.5 10"></path></g></g><mask></mask></g><g clip-path="url(#opfBFkDv7arlNCUWkP9Vv)"><g transform="translate(122.37059423391474 1701.9576817773232) rotate(0 91.1328125 114.99999999999994)"><text x="0" y="0" font-family="Helvetica, Segoe UI Emoji" font-size="20px" fill="#1e1e1e" text-anchor="start" style="white-space: pre;" direction="ltr" dominant-baseline="text-before-edge">General</text><text x="0" y="23" font-family="Helvetica, Segoe UI Emoji" font-size="20px" fill="#1e1e1e" text-anchor="start" style="white-space: pre;" direction="ltr" dominant-baseline="text-before-edge"></text><text x="0" y="46" font-family="Helvetica, Segoe UI Emoji" font-size="20px" fill="#1e1e1e" text-anchor="start" style="white-space: pre;" direction="ltr" dominant-baseline="text-before-edge"></text><text x="0" y="69" font-family="Helvetica, Segoe UI Emoji" font-size="20px" fill="#1e1e1e" text-anchor="start" style="white-space: pre;" direction="ltr" dominant-baseline="text-before-edge">- Stadtwerke</text><text x="0" y="92" font-family="Helvetica, Segoe UI Emoji" font-size="20px" fill="#1e1e1e" text-anchor="start" style="white-space: pre;" direction="ltr" dominant-baseline="text-before-edge">    - Tarife</text><text x="0" y="115" font-family="Helvetica, Segoe UI Emoji" font-size="20px" fill="#1e1e1e" text-anchor="start" style="white-space: pre;" direction="ltr" dominant-baseline="text-before-edge">        - Wasser</text><text x="0" y="138" font-family="Helvetica, Segoe UI Emoji" font-size="20px" fill="#1e1e1e" text-anchor="start" style="white-space: pre;" direction="ltr" dominant-baseline="text-before-edge">        - Strom</text><text x="0" y="161" font-family="Helvetica, Segoe UI Emoji" font-size="20px" fill="#1e1e1e" text-anchor="start" style="white-space: pre;" direction="ltr" dominant-baseline="text-before-edge">        - Wärmepumpe</text><text x="0" y="184" font-family="Helvetica, Segoe UI Emoji" font-size="20px" fill="#1e1e1e" text-anchor="start" style="white-space: pre;" direction="ltr" dominant-baseline="text-before-edge">        - Gas</text><text x="0" y="207" font-family="Helvetica, Segoe UI Emoji" font-size="20px" fill="#1e1e1e" text-anchor="start" style="white-space: pre;" direction="ltr" dominant-baseline="text-before-edge">    - Kunden</text></g></g><g clip-path="url(#opfBFkDv7arlNCUWkP9Vv)"><g stroke-linecap="round"><g transform="translate(92.59094617360097 1927.1717945007515) rotate(0 141.61061985371225 -0.523091875087232)"><path d="M0 0 C97.43 -1.63, 195.51 -2.14, 283.22 -1.05" stroke="#bbb" stroke-width="4.5" fill="none" stroke-dasharray="1.5 10"></path></g></g><mask></mask></g><g clip-path="url(#opfBFkDv7arlNCUWkP9Vv)"><g transform="translate(405.732469315215 1654.4351144351658) rotate(0 203.369140625 16.100000000000023)"><text x="0" y="0" font-family="Helvetica, Segoe UI Emoji" font-size="28px" fill="#1e1e1e" text-anchor="start" style="white-space: pre;" direction="ltr" dominant-baseline="text-before-edge">Was möchten Sie sich ansehen?</text></g></g><g clip-path="url(#opfBFkDv7arlNCUWkP9Vv)"><g transform="translate(396.6701689509573 1401.2498714316857) rotate(0 331.6583251953125 110.68798828124994)"><text x="0" y="0" font-family="Helvetica, Segoe UI Emoji" font-size="96.25042459239128px" fill="#1e1e1e" text-anchor="start" style="white-space: pre;" direction="ltr" dominant-baseline="text-before-edge">Willkommen </text><text x="0" y="110.68798828124997" font-family="Helvetica, Segoe UI Emoji" font-size="96.25042459239128px" fill="#1e1e1e" text-anchor="start" style="white-space: pre;" direction="ltr" dominant-baseline="text-before-edge">Herr Paul Peter</text></g></g><g clip-path="url(#opfBFkDv7arlNCUWkP9Vv)"><g stroke-linecap="round" transform="translate(679.0349613660328 1766.6766722341667) rotate(0 327.83858181181006 138.50521097528997)"><path d="M0 0 C162.1 -1.48, 323.17 -1.73, 655.68 0 M0 0 C212.65 -0.07, 425.01 0.14, 655.68 0 M655.68 0 C658.79 72.28, 656.27 144.77, 655.68 277.01 M655.68 0 C654.61 103.18, 655.39 208.42, 655.68 277.01 M655.68 277.01 C405.37 276, 153.94 275.87, 0 277.01 M655.68 277.01 C454.88 277.88, 253.78 277.5, 0 277.01 M0 277.01 C1.12 205.98, 1.49 132.52, 0 0 M0 277.01 C0.08 175.8, -0.22 75.05, 0 0" stroke="#000000" stroke-width="1" fill="none"></path></g></g><g clip-path="url(#opfBFkDv7arlNCUWkP9Vv)"><g stroke-linecap="round" transform="translate(744.0389132226592 1821.3760456620053) rotate(0 32.292978031895245 32.292978031895245)"><path d="M24.88 1.93 C30.58 -0.19, 38.57 -0.79, 44.38 1.45 C50.19 3.68, 56.48 9.91, 59.74 15.34 C63 20.77, 64.39 27.96, 63.95 34.04 C63.51 40.12, 61.19 47.03, 57.1 51.8 C53.01 56.56, 45.68 60.73, 39.43 62.64 C33.19 64.54, 25.42 65.39, 19.64 63.22 C13.85 61.04, 7.92 54.93, 4.73 49.57 C1.53 44.21, 0.01 37.38, 0.49 31.08 C0.97 24.78, 3.31 16.75, 7.58 11.78 C11.86 6.81, 22.85 3.22, 26.14 1.26 C29.43 -0.7, 27.1 -0.28, 27.34 0.02 M42.78 2.76 C48.89 4.32, 55.72 8.74, 59.55 13.61 C63.39 18.48, 66.06 25.62, 65.78 31.95 C65.51 38.29, 61.81 46.56, 57.92 51.61 C54.02 56.66, 48.46 60.32, 42.39 62.26 C36.33 64.2, 27.53 65.15, 21.53 63.23 C15.52 61.31, 9.87 55.96, 6.38 50.75 C2.89 45.55, 0.45 37.98, 0.6 32.02 C0.75 26.05, 3.92 20.04, 7.27 14.97 C10.63 9.91, 14.84 3.99, 20.74 1.61 C26.65 -0.77, 39.02 0.61, 42.7 0.68 C46.38 0.76, 43.01 1.41, 42.83 2.04" stroke="none" stroke-width="0" fill="black"></path><path d="M27.89 1 C33.7 -0.02, 41.63 1.72, 47.25 4.53 C52.87 7.33, 58.65 12.23, 61.6 17.85 C64.55 23.47, 66 31.95, 64.97 38.24 C63.94 44.53, 60.28 51.22, 55.42 55.58 C50.57 59.93, 42.1 63.55, 35.83 64.37 C29.55 65.19, 23.19 63.63, 17.78 60.51 C12.37 57.39, 6.39 51.25, 3.37 45.65 C0.34 40.04, -1.64 32.86, -0.4 26.89 C0.84 20.91, 5.61 14.38, 10.8 9.81 C16 5.24, 26.74 0.89, 30.79 -0.53 C34.83 -1.96, 35.01 0.57, 35.07 1.27 M34.48 0.28 C40.61 -0.22, 48.49 2, 53.19 5.65 C57.89 9.31, 61 16.03, 62.7 22.23 C64.41 28.43, 65.36 36.72, 63.41 42.84 C61.46 48.96, 56.56 55.16, 51 58.94 C45.45 62.72, 36.48 65.69, 30.08 65.54 C23.68 65.39, 17.31 62.12, 12.61 58.03 C7.91 53.93, 3.65 47.03, 1.87 40.97 C0.09 34.92, -0.22 27.38, 1.94 21.68 C4.09 15.97, 9.34 10.4, 14.8 6.75 C20.25 3.09, 31.67 0.74, 34.65 -0.28 C37.64 -1.3, 32.97 -0.14, 32.7 0.64" stroke="#000000" stroke-width="1" fill="none"></path></g></g><g clip-path="url(#opfBFkDv7arlNCUWkP9Vv)"><g stroke-linecap="round"><g transform="translate(691.8697100000136 2023.519072329793) rotate(0 306.31055931582785 -83.43496477658147)" fill-rule="evenodd"><path d="M-0.02 -0.07 L213.98 -122.85 L310.89 -75.29 L480.4 -173.41 L612.42 7.07 L1.08 1.7" stroke="none" stroke-width="0" fill="black" fill-rule="evenodd"></path><path d="M0 0 C65.37 -37.37, 129.65 -71.96, 212.63 -120.93 M0 0 C56.35 -32.3, 114.23 -65.01, 212.63 -120.93 M212.63 -120.93 C243.54 -108.37, 272.11 -96.14, 312.65 -76.8 M212.63 -120.93 C234.53 -112.96, 254.09 -102.7, 312.65 -76.8 M312.65 -76.8 C372.92 -111.6, 433.39 -145.35, 481.82 -174.63 M312.65 -76.8 C365.31 -107.32, 419.99 -137.96, 481.82 -174.63 M481.82 -174.63 C527.42 -111.42, 571.19 -48.74, 612.62 7.76 M481.82 -174.63 C519.1 -122.74, 556.42 -72.1, 612.62 7.76 M612.62 7.76 C456.24 4.64, 298.33 2.93, 0 0 M612.62 7.76 C405.33 7.02, 197.02 4.37, 0 0 M0 0 C0 0, 0 0, 0 0 M0 0 C0 0, 0 0, 0 0" stroke="#000000" stroke-width="1" fill="none"></path></g></g><mask></mask></g><g clip-path="url(#opfBFkDv7arlNCUWkP9Vv)"><g stroke-linecap="round" transform="translate(407.7636001603787 1729.8881931298404) rotate(0 87.20672621179727 20.6338737691118)"><path d="M10.32 0 C44.35 2.23, 83.91 3.45, 164.1 0 C172.3 2.88, 174.36 1.79, 174.41 10.32 C171.76 17.63, 174.43 22.47, 174.41 30.95 C175.85 36.41, 174.07 44.64, 164.1 41.27 C129.07 45.13, 97.74 44.04, 10.32 41.27 C3.23 41.7, -2.6 39.64, 0 30.95 C0.76 28.65, 2.12 22.62, 0 10.32 C-3.23 5.61, 4.49 -3.33, 10.32 0" stroke="none" stroke-width="0" fill="black"></path><path d="M10.32 0 C52.23 2.39, 93.61 2.37, 164.1 0 M10.32 0 C60.25 -0.59, 109.71 -2.22, 164.1 0 M164.1 0 C171.15 1.5, 173.92 3.73, 174.41 10.32 M164.1 0 C169.36 -2.09, 175.13 5.42, 174.41 10.32 M174.41 10.32 C175.57 19.3, 174.03 26.86, 174.41 30.95 M174.41 10.32 C175.21 16.82, 175.17 22.2, 174.41 30.95 M174.41 30.95 C173.59 36.34, 171.99 40.67, 164.1 41.27 M174.41 30.95 C175.35 37.68, 169.23 42.76, 164.1 41.27 M164.1 41.27 C115.97 41.9, 69.07 42.69, 10.32 41.27 M164.1 41.27 C105.24 40.95, 47.07 41.72, 10.32 41.27 M10.32 41.27 C1.74 40.47, -1.02 38.61, 0 30.95 M10.32 41.27 C4.21 42.94, 2.04 38.52, 0 30.95 M0 30.95 C-1.2 26.02, -0.33 19.8, 0 10.32 M0 30.95 C1.05 26.45, 0.07 23.1, 0 10.32 M0 10.32 C1.42 3.91, 3.42 -0.07, 10.32 0 M0 10.32 C1.54 1.22, 1.41 1.73, 10.32 0" stroke="#000000" stroke-width="1" fill="none"></path></g></g><g clip-path="url(#opfBFkDv7arlNCUWkP9Vv)"><g transform="translate(467.8230180225728 1739.234648151808) rotate(0 27.147308349609375 11.287418747144727)"><text x="27.147308349609375" y="0" font-family="Virgil, Segoe UI Emoji" font-size="17.22436454406139px" fill="white" text-anchor="middle" style="white-space: pre;" direction="ltr" dominant-baseline="text-before-edge">Tarife</text></g></g><g clip-path="url(#opfBFkDv7arlNCUWkP9Vv)"><g stroke-linecap="round" transform="translate(407.75108795334745 1795.2194614403872) rotate(0 87.20672621179727 20.6338737691118)"><path d="M10.32 0 C66.08 0.44, 119.14 -4.09, 164.1 0 C172.4 -0.43, 172.86 0.83, 174.41 10.32 C175.85 15.26, 177.52 26.42, 174.41 30.95 C171.36 37.66, 172.73 39.35, 164.1 41.27 C107 42.79, 47.74 44.17, 10.32 41.27 C1.83 39.18, -2.19 38.37, 0 30.95 C-3.43 25.24, 0.85 11.85, 0 10.32 C1.95 0.1, 1.57 -0.88, 10.32 0" stroke="none" stroke-width="0" fill="black"></path><path d="M10.32 0 C67.74 -1.85, 126.01 -0.61, 164.1 0 M10.32 0 C68.54 2.05, 126.34 1.45, 164.1 0 M164.1 0 C169.57 -1.81, 175.04 5.16, 174.41 10.32 M164.1 0 C172.87 -0.94, 173.15 4.87, 174.41 10.32 M174.41 10.32 C174.52 18.16, 174.99 26.43, 174.41 30.95 M174.41 10.32 C174.15 16.13, 175.06 23.13, 174.41 30.95 M174.41 30.95 C175.23 37.7, 169.46 42.57, 164.1 41.27 M174.41 30.95 C174.66 38.22, 171.9 40.86, 164.1 41.27 M164.1 41.27 C119.48 43.59, 71.28 41.01, 10.32 41.27 M164.1 41.27 C117.4 42.03, 71.9 42.82, 10.32 41.27 M10.32 41.27 C4.11 42.72, 1.77 38.43, 0 30.95 M10.32 41.27 C1.64 41.81, 1.01 36.5, 0 30.95 M0 30.95 C-1.96 23.31, -1.71 21.01, 0 10.32 M0 30.95 C0.73 25.74, 0.01 20.01, 0 10.32 M0 10.32 C1.34 1.51, 1.68 1.5, 10.32 0 M0 10.32 C-1.63 4.84, 3.21 -0.79, 10.32 0" stroke="#000000" stroke-width="1" fill="none"></path></g></g><g clip-path="url(#opfBFkDv7arlNCUWkP9Vv)"><g transform="translate(467.13892836192827 1804.5659164623548) rotate(0 27.818885803222656 11.287418747144727)"><text x="27.818885803222656" y="0" font-family="Virgil, Segoe UI Emoji" font-size="17.22436454406139px" fill="white" text-anchor="middle" style="white-space: pre;" direction="ltr" dominant-baseline="text-before-edge">Kunden</text></g></g><g transform="translate(34.71615551451396 1284.7179981328582) rotate(0 32.9139404296875 8.75)"><text x="0" y="0" font-family="Assistant, Segoe UI Emoji" font-size="14px" fill="#999999" text-anchor="start" style="white-space: pre;" direction="ltr" dominant-baseline="text-before-edge">Stadtwerke</text></g><rect transform="translate(34.71615551451396 1305.2179981328582) rotate(0 698.1601562499999 415.95703125000006)" width="1396.3203124999998px" height="831.9140625000002px" rx="8" ry="8" fill="none" stroke="#bbb" stroke-width="2"></rect><g transform="translate(10 10) rotate(0 600.9913940429688 134.29949190355444)"><text x="0" y="0" font-family="Virgil, Segoe UI Emoji" font-size="214.87918704568716px" fill="#2f9e44" text-anchor="start" style="white-space: pre;" direction="ltr" dominant-baseline="text-before-edge">Stadtwerke</text></g><g stroke-linecap="round"><g transform="translate(816.4566987320977 2417.4193640818276) rotate(0 132.19311432230302 61.1435851774994)" fill-rule="evenodd"><path d="M1.6 -0.03 L-0.92 121.03 L264.15 121.43 L262.25 27.5 L231.63 -0.29 L0.8 -0.79" stroke="none" stroke-width="0" fill="#fff" fill-rule="evenodd"></path><path d="M0 0 C0.48 35.31, -0.73 70.19, 0 120.24 M0 0 C1.2 24.76, -0.17 50.95, 0 120.24 M0 120.24 C93.86 120.59, 188 122.07, 264.39 122.29 M0 120.24 C83.7 121.92, 168.45 122.93, 264.39 122.29 M264.39 122.29 C265.51 90.12, 264.33 58.35, 263.7 27.33 M264.39 122.29 C264.59 96.28, 264.85 68.47, 263.7 27.33 M263.7 27.33 C256.99 18.75, 246.46 12.62, 231.59 0.74 M263.7 27.33 C253.62 18.85, 241.07 9.78, 231.59 0.74 M231.59 0.74 C151.74 -1.55, 70.68 -1.65, 0 0 M231.59 0.74 C182.11 0.25, 133.44 -0.08, 0 0 M0 0 C0 0, 0 0, 0 0 M0 0 C0 0, 0 0, 0 0" stroke="#e03131" stroke-width="1" fill="none"></path></g></g><mask></mask><g transform="translate(822.4894812857783 2457.6395498075462) rotate(0 123.22990417480469 25)"><text x="0" y="0" font-family="Virgil, Segoe UI Emoji" font-size="20px" fill="#000000" text-anchor="start" style="white-space: pre;" direction="ltr" dominant-baseline="text-before-edge">Depending on Button:</text><text x="0" y="25.000000000000007" font-family="Virgil, Segoe UI Emoji" font-size="20px" fill="#000000" text-anchor="start" style="white-space: pre;" direction="ltr" dominant-baseline="text-before-edge">Change to Tarife/Kunden</text></g><g stroke-linecap="round"><g transform="translate(1047.3730239157885 2417.7350813399867) rotate(0 16.784875044352077 14.935693895398117)" fill-rule="evenodd"><path d="M-0.88 0.75 L-0.71 30.48 L32.9 29.25 L34.11 26.74 L0.88 0.37" stroke="none" stroke-width="0" fill="#ffc9c9" fill-rule="evenodd"></path><path d="M0 0 C-0.89 8.54, 0.88 17.28, 0 29.87 M0 0 C0.19 7.66, 0.11 15.51, 0 29.87 M0 29.87 C10.95 30.36, 20.77 29.15, 33 29.59 M0 29.87 C7.65 29.82, 14.52 30.12, 33 29.59 M33 29.59 C33.14 28.44, 33.4 27.36, 33.57 25.89 M33 29.59 C33.16 28.18, 33.4 26.85, 33.57 25.89 M33.57 25.89 C26.8 20.58, 19.92 15.56, 0 0 M33.57 25.89 C22.81 17.09, 11.41 8.76, 0 0 M0 0 C0 0, 0 0, 0 0 M0 0 C0 0, 0 0, 0 0" stroke="#e03131" stroke-width="1" fill="none"></path></g></g><mask></mask><g stroke-linecap="round"><g transform="translate(530.5321171423711 1844.475275822292) rotate(0 167.58747100830078 280.9312057495117)"><path d="M0.38 1.03 C56.54 94.78, 280.48 467.78, 336.17 561.37" stroke="#e03131" stroke-width="4.5" fill="none" stroke-dasharray="8 12"></path></g><g transform="translate(530.5321171423711 1844.475275822292) rotate(0 167.58747100830078 280.9312057495117)"><path d="M312.89 542.44 C319.79 548.37, 322.6 549.97, 336.17 561.37" stroke="#e03131" stroke-width="4.5" fill="none"></path></g><g transform="translate(530.5321171423711 1844.475275822292) rotate(0 167.58747100830078 280.9312057495117)"><path d="M330.5 531.91 C333.26 540.31, 332.02 544.33, 336.17 561.37" stroke="#e03131" stroke-width="4.5" fill="none"></path></g></g><mask></mask></svg>