<svg version="1.1" xmlns="http://www.w3.org/2000/svg" viewBox="0 0 1416.3203124999998 2275.669214815482" width="1416.3203124999998" height="2275.669214815482">
  <!-- svg-source:excalidraw -->
  
  <defs>
    <style class="style-fonts">
      @font-face {
        font-family: "Virgil";
        src: url("https://file%2B.vscode-resource.vscode-cdn.net/c%3A/Users/lisa-/.vscode/extensions/pomdtr.excalidraw-editor-3.7.4/public//dist/excalidraw-assets/Virgil.woff2");
      }
      @font-face {
        font-family: "Cascadia";
        src: url("https://file%2B.vscode-resource.vscode-cdn.net/c%3A/Users/lisa-/.vscode/extensions/pomdtr.excalidraw-editor-3.7.4/public//dist/excalidraw-assets/Cascadia.woff2");
      }
      @font-face {
        font-family: "Assistant";
        src: url("https://file%2B.vscode-resource.vscode-cdn.net/c%3A/Users/lisa-/.vscode/extensions/pomdtr.excalidraw-editor-3.7.4/public//dist/excalidraw-assets/Assistant-Regular.woff2");
      }
    </style>
    <clipPath id="hoGjeq7Vw-Bp8s2qYB3CL">
            <rect transform="translate(10 1433.7551523154818) rotate(0 698.1601562499999 415.9570312500001)" width="1396.3203124999998" height="831.9140625000002">
          </rect>
        </clipPath>
  </defs>
  <rect x="0" y="0" width="1416.3203124999998" height="2275.669214815482" fill="#ffffff"></rect><g clip-path="url(#hoGjeq7Vw-Bp8s2qYB3CL)"><g stroke-linecap="round" transform="translate(65.62681557318137 1495.3916524831404) rotate(0 640 360)"><path d="M0 0 C464.65 0, 929.31 0, 1280 0 M0 0 C489.01 0, 978.02 0, 1280 0 M1280 0 C1280 208, 1280 416, 1280 720 M1280 0 C1280 198.8, 1280 397.6, 1280 720 M1280 720 C1003.88 720, 727.76 720, 0 720 M1280 720 C822.93 720, 365.85 720, 0 720 M0 720 C0 436.54, 0 153.09, 0 0 M0 720 C0 502.36, 0 284.72, 0 0" stroke="#ced4da" stroke-width="4" fill="none"></path></g></g><g clip-path="url(#hoGjeq7Vw-Bp8s2qYB3CL)"><g stroke-linecap="round"><g transform="translate(342.38608982741425 1494.9427802197984) rotate(0 0.67626953125 360.6884765625)"><path d="M0.7 -0.86 C1.02 119.41, 1.12 602.01, 1.28 722.36 M-0.4 1.3 C-0.18 121.19, 0.05 600.56, 0.29 720.76" stroke="#bbb" stroke-width="2" fill="none"></path></g></g><mask></mask></g><g clip-path="url(#hoGjeq7Vw-Bp8s2qYB3CL)"><g transform="translate(101.59122352541453 2166.8667819624534) rotate(0 29.653038024902344 11.152405278842025)"><text x="0" y="0" font-family="Helvetica, Segoe UI Emoji" font-size="19.39548744146448px" fill="#1e1e1e" text-anchor="start" style="white-space: pre;" direction="ltr" dominant-baseline="text-before-edge">Logout</text></g></g><g clip-path="url(#hoGjeq7Vw-Bp8s2qYB3CL)"><g transform="translate(103.29053831157944 1524.4485488934918) rotate(0 80.01953125 103.5)"><text x="0" y="0" font-family="Helvetica, Segoe UI Emoji" font-size="20px" fill="#1e1e1e" text-anchor="start" style="white-space: pre;" direction="ltr" dominant-baseline="text-before-edge">Home</text><text x="0" y="23" font-family="Helvetica, Segoe UI Emoji" font-size="20px" fill="#1e1e1e" text-anchor="start" style="white-space: pre;" direction="ltr" dominant-baseline="text-before-edge"></text><text x="0" y="46" font-family="Helvetica, Segoe UI Emoji" font-size="20px" fill="#1e1e1e" text-anchor="start" style="white-space: pre;" direction="ltr" dominant-baseline="text-before-edge"></text><text x="0" y="69" font-family="Helvetica, Segoe UI Emoji" font-size="20px" fill="#1e1e1e" text-anchor="start" style="white-space: pre;" direction="ltr" dominant-baseline="text-before-edge">- Stadtwerke</text><text x="0" y="92" font-family="Helvetica, Segoe UI Emoji" font-size="20px" fill="#1e1e1e" text-anchor="start" style="white-space: pre;" direction="ltr" dominant-baseline="text-before-edge">    - Wasser</text><text x="0" y="115" font-family="Helvetica, Segoe UI Emoji" font-size="20px" fill="#1e1e1e" text-anchor="start" style="white-space: pre;" direction="ltr" dominant-baseline="text-before-edge">    - Strom</text><text x="0" y="138" font-family="Helvetica, Segoe UI Emoji" font-size="20px" fill="#1e1e1e" text-anchor="start" style="white-space: pre;" direction="ltr" dominant-baseline="text-before-edge">    - Wärmepumpe</text><text x="0" y="161" font-family="Helvetica, Segoe UI Emoji" font-size="20px" fill="#1e1e1e" text-anchor="start" style="white-space: pre;" direction="ltr" dominant-baseline="text-before-edge">    - Gas</text><text x="0" y="184" font-family="Helvetica, Segoe UI Emoji" font-size="20px" fill="#1e1e1e" text-anchor="start" style="white-space: pre;" direction="ltr" dominant-baseline="text-before-edge">    - Rechnungen</text></g></g><g clip-path="url(#hoGjeq7Vw-Bp8s2qYB3CL)"><g stroke-linecap="round" transform="translate(342.7282632933202 1495.7032960189167) rotate(0 503.00695269974335 360.0109060460612)"><path d="M0 0 C325.82 -1.76, 652.41 -1.73, 1006.01 0 M1006.01 0 C1005.4 280.06, 1006.45 561.1, 1006.01 720.02 M1006.01 720.02 C690.25 719.13, 374.29 718.37, 0 720.02 M0 720.02 C1.99 547.86, 1.84 375.33, 0 0" stroke="#bbb" stroke-width="2.5" fill="none" stroke-dasharray="1.5 8"></path></g></g><g clip-path="url(#hoGjeq7Vw-Bp8s2qYB3CL)"><g stroke-linecap="round"><g transform="translate(145.6466505880053 1991.8227727955893) rotate(0 35.34198713187834 -1.2819258307857808)"><path d="M-0.17 -0.29 C11.51 -0.42, 58.74 -1.01, 70.55 -1.49 M-1.72 -1.49 C9.75 -1.87, 57.59 -2.94, 69.53 -3.04" stroke="#1e1e1e" stroke-width="2" fill="none"></path></g></g><mask></mask></g><g clip-path="url(#hoGjeq7Vw-Bp8s2qYB3CL)"><g transform="translate(74.19443100977514 1795.8089888330094) rotate(0 48.91015625 9.200000000000045)"><text x="0" y="0" font-family="Helvetica, Segoe UI Emoji" font-size="16px" fill="#bbb" text-anchor="start" style="white-space: pre;" direction="ltr" dominant-baseline="text-before-edge">Admin Center</text></g></g><g clip-path="url(#hoGjeq7Vw-Bp8s2qYB3CL)"><g stroke-linecap="round"><g transform="translate(68.18141372722312 1818.560946118357) rotate(0 141.61061985371225 -0.5230918750871751)"><path d="M0 0 C81.1 -1.46, 162.51 0.25, 283.22 -1.05" stroke="#bbb" stroke-width="4.5" fill="none" stroke-dasharray="1.5 10"></path></g></g><mask></mask></g><g clip-path="url(#hoGjeq7Vw-Bp8s2qYB3CL)"><g transform="translate(98.03697222539631 1830.8257919145728) rotate(0 91.1328125 115)"><text x="0" y="0" font-family="Helvetica, Segoe UI Emoji" font-size="20px" fill="#1e1e1e" text-anchor="start" style="white-space: pre;" direction="ltr" dominant-baseline="text-before-edge">General</text><text x="0" y="23" font-family="Helvetica, Segoe UI Emoji" font-size="20px" fill="#1e1e1e" text-anchor="start" style="white-space: pre;" direction="ltr" dominant-baseline="text-before-edge"></text><text x="0" y="46" font-family="Helvetica, Segoe UI Emoji" font-size="20px" fill="#1e1e1e" text-anchor="start" style="white-space: pre;" direction="ltr" dominant-baseline="text-before-edge"></text><text x="0" y="69" font-family="Helvetica, Segoe UI Emoji" font-size="20px" fill="#1e1e1e" text-anchor="start" style="white-space: pre;" direction="ltr" dominant-baseline="text-before-edge">- Stadtwerke</text><text x="0" y="92" font-family="Helvetica, Segoe UI Emoji" font-size="20px" fill="#1e1e1e" text-anchor="start" style="white-space: pre;" direction="ltr" dominant-baseline="text-before-edge">    - Tarife</text><text x="0" y="115" font-family="Helvetica, Segoe UI Emoji" font-size="20px" fill="#1e1e1e" text-anchor="start" style="white-space: pre;" direction="ltr" dominant-baseline="text-before-edge">        - Wasser</text><text x="0" y="138" font-family="Helvetica, Segoe UI Emoji" font-size="20px" fill="#1e1e1e" text-anchor="start" style="white-space: pre;" direction="ltr" dominant-baseline="text-before-edge">        - Strom</text><text x="0" y="161" font-family="Helvetica, Segoe UI Emoji" font-size="20px" fill="#1e1e1e" text-anchor="start" style="white-space: pre;" direction="ltr" dominant-baseline="text-before-edge">        - Wärmepumpe</text><text x="0" y="184" font-family="Helvetica, Segoe UI Emoji" font-size="20px" fill="#1e1e1e" text-anchor="start" style="white-space: pre;" direction="ltr" dominant-baseline="text-before-edge">        - Gas</text><text x="0" y="207" font-family="Helvetica, Segoe UI Emoji" font-size="20px" fill="#1e1e1e" text-anchor="start" style="white-space: pre;" direction="ltr" dominant-baseline="text-before-edge">    - Kunden</text></g></g><g clip-path="url(#hoGjeq7Vw-Bp8s2qYB3CL)"><g stroke-linecap="round"><g transform="translate(67.87479065908701 2055.7089486833747) rotate(0 141.61061985371225 -0.5230918750871751)"><path d="M0 0 C62.99 -1.22, 128.07 -2.03, 283.22 -1.05" stroke="#bbb" stroke-width="4.5" fill="none" stroke-dasharray="1.5 10"></path></g></g><mask></mask></g><g clip-path="url(#hoGjeq7Vw-Bp8s2qYB3CL)"><g stroke-linecap="round" transform="translate(562.5295219111613 1709.766281625347) rotate(0 324.60499571594414 27.62105468575578)"><path d="M13.81 0 C180.07 1.05, 345.69 1.58, 635.4 0 C645.28 -3.21, 647.08 3.72, 649.21 13.81 C652.35 19.09, 648.86 25.85, 649.21 41.43 C648.91 48.23, 647.6 56.52, 635.4 55.24 C500.8 56.96, 369.25 58.62, 13.81 55.24 C2.93 52.62, -0.52 48.35, 0 41.43 C0.49 32.99, 0.18 18.95, 0 13.81 C-2.16 1.27, 6.68 2.04, 13.81 0" stroke="none" stroke-width="0" fill="#fff"></path><path d="M13.81 0 C235.49 -0.54, 455.66 -0.26, 635.4 0 M13.81 0 C175.15 1.34, 337.16 1.71, 635.4 0 M635.4 0 C645.5 1.14, 648.02 3.64, 649.21 13.81 M635.4 0 C644.58 1.31, 646.92 3.59, 649.21 13.81 M649.21 13.81 C648.41 26.58, 649.11 36.5, 649.21 41.43 M649.21 13.81 C649.13 22.54, 649.98 29.68, 649.21 41.43 M649.21 41.43 C649.02 49.91, 643.24 55.7, 635.4 55.24 M649.21 41.43 C649.65 51.96, 643.89 54.4, 635.4 55.24 M635.4 55.24 C485.11 56.82, 334.3 57.54, 13.81 55.24 M635.4 55.24 C447.59 57.4, 259.94 57.58, 13.81 55.24 M13.81 55.24 C2.87 54.47, -1.17 50.46, 0 41.43 M13.81 55.24 C6.48 54.35, 1.04 52.29, 0 41.43 M0 41.43 C0.69 34.94, 1.28 26.66, 0 13.81 M0 41.43 C0.17 35.5, -0.27 30.42, 0 13.81 M0 13.81 C0.07 4.31, 5.26 -0.41, 13.81 0 M0 13.81 C-0.54 6.35, 4.59 1.61, 13.81 0" stroke="#1e1e1e" stroke-width="2" fill="none"></path></g></g><g clip-path="url(#hoGjeq7Vw-Bp8s2qYB3CL)"><g transform="translate(567.5295219111613 1725.8873363111027) rotate(0 215.6494140625 11.5)"><text x="0" y="0" font-family="Helvetica, Segoe UI Emoji" font-size="20px" fill="#1e1e1e" text-anchor="start" style="white-space: pre;" direction="ltr" dominant-baseline="text-before-edge">  Tarif1          3.33€          12 Monate           Active</text></g></g><g clip-path="url(#hoGjeq7Vw-Bp8s2qYB3CL)"><g stroke-linecap="round" transform="translate(543.4323555951305 1534.2148363673102) rotate(359.9296265924723 373.66296604115723 120.0326262729177)"><path d="M0 0 C205.71 -1, 411.57 -0.73, 747.33 0 M0 0 C194.93 -1.32, 389.27 -1.74, 747.33 0 M747.33 0 C747.73 73.32, 746.96 144.01, 747.33 240.07 M747.33 0 C749.61 65.46, 748.8 131.59, 747.33 240.07 M747.33 240.07 C518.03 242.72, 289.78 242.25, 0 240.07 M747.33 240.07 C505.92 241.63, 264.54 242.13, 0 240.07 M0 240.07 C-0.55 148.99, -0.8 57.46, 0 0 M0 240.07 C0.46 144.4, -0.07 48.81, 0 0" stroke="#000000" stroke-width="1" fill="none"></path></g></g><g clip-path="url(#hoGjeq7Vw-Bp8s2qYB3CL)"><g stroke-linecap="round" transform="translate(1244.896512925061 1554.7174171702527) rotate(359.9296265924723 15.44090099337484 103.30429673896066)"><path d="M0 0 C8.39 -0.77, 18.41 1.53, 30.88 0 M0 0 C10.27 -0.66, 21.71 0.39, 30.88 0 M30.88 0 C28.47 41.93, 29.58 84.49, 30.88 206.61 M30.88 0 C31.31 64.3, 31.8 127.43, 30.88 206.61 M30.88 206.61 C18.07 205.22, 7.18 206.96, 0 206.61 M30.88 206.61 C19.27 207.37, 9.63 206.91, 0 206.61 M0 206.61 C-0.27 157.02, 1.43 105.47, 0 0 M0 206.61 C-0.35 158.33, -0.11 110.65, 0 0" stroke="#000000" stroke-width="1" fill="none"></path></g></g><g clip-path="url(#hoGjeq7Vw-Bp8s2qYB3CL)"><g stroke-linecap="round" transform="translate(1248.4356672410104 1565.0966435015557) rotate(359.9296265924723 9.457430284254315 81.77208864368265)"><path d="M0.45 0.72 L18.57 0.45 L19.28 163.95 L0.42 164.24" stroke="none" stroke-width="0" fill="black"></path><path d="M0 0 C3.71 0.65, 8.65 0.47, 18.91 0 M0 0 C6.75 0.31, 13.04 -0.16, 18.91 0 M18.91 0 C17.9 65.33, 18.25 129.24, 18.91 163.54 M18.91 0 C18.54 49.62, 18.96 98.46, 18.91 163.54 M18.91 163.54 C13.63 163.66, 8.46 163.18, 0 163.54 M18.91 163.54 C14.32 163.82, 8.68 163.71, 0 163.54 M0 163.54 C0.96 108.79, -0.7 54.46, 0 0 M0 163.54 C0.41 118.29, 1.12 72.93, 0 0" stroke="#000000" stroke-width="1" fill="none"></path></g></g><g clip-path="url(#hoGjeq7Vw-Bp8s2qYB3CL)"><g stroke-linecap="round" transform="translate(561.4279597595923 1562.2308670242357) rotate(0 324.60499571594414 27.62105468575578)"><path d="M13.81 0 C186.35 -1.13, 355.89 -2.53, 635.4 0 C643.5 -0.3, 646.8 7.59, 649.21 13.81 C650.9 20.22, 646.5 34.23, 649.21 41.43 C651.08 48.96, 641.99 54.72, 635.4 55.24 C488.82 57.31, 342.04 57.18, 13.81 55.24 C1.72 53.08, -3.33 52.71, 0 41.43 C-0.49 30.4, -2.78 24.92, 0 13.81 C2.51 5.49, 5.33 2.59, 13.81 0" stroke="none" stroke-width="0" fill="#fff"></path><path d="M13.81 0 C168.83 -1.23, 323.49 -2.06, 635.4 0 M13.81 0 C169.88 -1.59, 327.12 -1.78, 635.4 0 M635.4 0 C645.19 -0.55, 651.1 4.75, 649.21 13.81 M635.4 0 C645.69 0.05, 648.06 6.55, 649.21 13.81 M649.21 13.81 C647.65 22.07, 648.59 29.35, 649.21 41.43 M649.21 13.81 C648.95 22.36, 648.69 32.52, 649.21 41.43 M649.21 41.43 C650.84 51.47, 643.47 55.58, 635.4 55.24 M649.21 41.43 C649.96 50.68, 645.5 57.49, 635.4 55.24 M635.4 55.24 C469.01 53.99, 302.69 54.21, 13.81 55.24 M635.4 55.24 C454.66 54.56, 273.42 54.45, 13.81 55.24 M13.81 55.24 C5.34 56.06, 0.85 52.04, 0 41.43 M13.81 55.24 C4.51 53.24, 1.62 49.11, 0 41.43 M0 41.43 C1.53 32.22, -0.28 23.51, 0 13.81 M0 41.43 C0.06 34.4, -0.26 26.48, 0 13.81 M0 13.81 C-0.35 4.87, 4.99 -0.36, 13.81 0 M0 13.81 C1.29 5.03, 2.55 -1.36, 13.81 0" stroke="#1e1e1e" stroke-width="2" fill="none"></path></g></g><g clip-path="url(#hoGjeq7Vw-Bp8s2qYB3CL)"><g transform="translate(566.4279597595923 1578.3519217099915) rotate(0 215.6494140625 11.5)"><text x="0" y="0" font-family="Helvetica, Segoe UI Emoji" font-size="20px" fill="#1e1e1e" text-anchor="start" style="white-space: pre;" direction="ltr" dominant-baseline="text-before-edge">  Tarif1          3.33€          12 Monate           Active</text></g></g><g clip-path="url(#hoGjeq7Vw-Bp8s2qYB3CL)"><g stroke-linecap="round" transform="translate(561.253480244497 1640.6343371809023) rotate(0 324.60499571594414 27.62105468575578)"><path d="M13.81 0 C249.72 0.63, 485.54 1.94, 635.4 0 C645.88 -3.07, 650.02 6.72, 649.21 13.81 C650.76 18.23, 646.27 25.48, 649.21 41.43 C646.92 52.61, 646.05 56.17, 635.4 55.24 C435.82 54.85, 237.22 56.55, 13.81 55.24 C6.65 54.21, -1.39 50.01, 0 41.43 C2.91 34.93, 1.13 29.26, 0 13.81 C-0.51 2.59, 6.28 3.04, 13.81 0" stroke="none" stroke-width="0" fill="#fff"></path><path d="M13.81 0 C227.77 1.47, 442.95 0.68, 635.4 0 M13.81 0 C173 2.13, 332.34 2.27, 635.4 0 M635.4 0 C645.55 0.05, 648.21 6.29, 649.21 13.81 M635.4 0 C644.74 0.87, 651.31 2.69, 649.21 13.81 M649.21 13.81 C649.57 22.22, 650.25 29.24, 649.21 41.43 M649.21 13.81 C649.87 21.5, 648.48 28.53, 649.21 41.43 M649.21 41.43 C649.87 50.68, 645.38 57.2, 635.4 55.24 M649.21 41.43 C648.46 49.08, 644.09 54.7, 635.4 55.24 M635.4 55.24 C502.67 54.44, 369.78 54.14, 13.81 55.24 M635.4 55.24 C404.48 56.53, 173.44 56.65, 13.81 55.24 M13.81 55.24 C4.52 53.5, 1.41 49.31, 0 41.43 M13.81 55.24 C5.44 55.12, -0.17 52.38, 0 41.43 M0 41.43 C-0.37 32.58, 1.56 24.65, 0 13.81 M0 41.43 C-0.08 31.35, 0.29 20.82, 0 13.81 M0 13.81 C1.12 4.98, 2.82 -1.18, 13.81 0 M0 13.81 C-0.56 3.17, 5.78 1.98, 13.81 0" stroke="#1e1e1e" stroke-width="2" fill="none"></path></g></g><g clip-path="url(#hoGjeq7Vw-Bp8s2qYB3CL)"><g transform="translate(566.253480244497 1656.755391866658) rotate(0 215.6494140625 11.5)"><text x="0" y="0" font-family="Helvetica, Segoe UI Emoji" font-size="20px" fill="#1e1e1e" text-anchor="start" style="white-space: pre;" direction="ltr" dominant-baseline="text-before-edge">  Tarif1          3.33€          12 Monate           Active</text></g></g><g clip-path="url(#hoGjeq7Vw-Bp8s2qYB3CL)"><g stroke-linecap="round" transform="translate(1049.4608916971883 1571.7155939792979) rotate(0 73.93466188158709 16.94261023537905)"><path d="M8.47 0 C46.67 0, 84.87 0, 139.4 0 C145.05 0, 147.87 2.82, 147.87 8.47 C147.87 12.77, 147.87 17.06, 147.87 25.41 C147.87 31.06, 145.05 33.89, 139.4 33.89 C107.97 33.89, 76.54 33.89, 8.47 33.89 C2.82 33.89, 0 31.06, 0 25.41 C0 19.92, 0 14.42, 0 8.47 C0 2.82, 2.82 0, 8.47 0" stroke="none" stroke-width="0" fill="black"></path><path d="M8.47 0 C47.61 0, 86.74 0, 139.4 0 M8.47 0 C44.16 0, 79.85 0, 139.4 0 M139.4 0 C145.05 0, 147.87 2.82, 147.87 8.47 M139.4 0 C145.05 0, 147.87 2.82, 147.87 8.47 M147.87 8.47 C147.87 13.88, 147.87 19.29, 147.87 25.41 M147.87 8.47 C147.87 14.26, 147.87 20.04, 147.87 25.41 M147.87 25.41 C147.87 31.06, 145.05 33.89, 139.4 33.89 M147.87 25.41 C147.87 31.06, 145.05 33.89, 139.4 33.89 M139.4 33.89 C89.42 33.89, 39.44 33.89, 8.47 33.89 M139.4 33.89 C94.77 33.89, 50.15 33.89, 8.47 33.89 M8.47 33.89 C2.82 33.89, 0 31.06, 0 25.41 M8.47 33.89 C2.82 33.89, 0 31.06, 0 25.41 M0 25.41 C0 20.73, 0 16.04, 0 8.47 M0 25.41 C0 20.11, 0 14.8, 0 8.47 M0 8.47 C0 2.82, 2.82 0, 8.47 0 M0 8.47 C0 2.82, 2.82 0, 8.47 0" stroke="white" stroke-width="2" fill="none"></path></g></g><g clip-path="url(#hoGjeq7Vw-Bp8s2qYB3CL)"><g transform="translate(1084.7002410787754 1579.4582042146767) rotate(0 38.6953125 9.199999999999989)"><text x="38.6953125" y="0" font-family="Helvetica, Segoe UI Emoji" font-size="16px" fill="white" text-anchor="middle" style="white-space: pre;" direction="ltr" dominant-baseline="text-before-edge">Bearbeiten</text></g></g><g clip-path="url(#hoGjeq7Vw-Bp8s2qYB3CL)"><g stroke-linecap="round" transform="translate(1048.9984668566212 1653.3483719090566) rotate(0 73.93466188158709 16.942610235379107)"><path d="M8.47 0 C36.58 0, 64.69 0, 139.4 0 C145.05 0, 147.87 2.82, 147.87 8.47 C147.87 14.48, 147.87 20.5, 147.87 25.41 C147.87 31.06, 145.05 33.89, 139.4 33.89 C103.86 33.89, 68.31 33.89, 8.47 33.89 C2.82 33.89, 0 31.06, 0 25.41 C0 21.28, 0 17.15, 0 8.47 C0 2.82, 2.82 0, 8.47 0" stroke="none" stroke-width="0" fill="black"></path><path d="M8.47 0 C60.02 0, 111.56 0, 139.4 0 M8.47 0 C48.05 0, 87.62 0, 139.4 0 M139.4 0 C145.05 0, 147.87 2.82, 147.87 8.47 M139.4 0 C145.05 0, 147.87 2.82, 147.87 8.47 M147.87 8.47 C147.87 12.58, 147.87 16.68, 147.87 25.41 M147.87 8.47 C147.87 13.59, 147.87 18.7, 147.87 25.41 M147.87 25.41 C147.87 31.06, 145.05 33.89, 139.4 33.89 M147.87 25.41 C147.87 31.06, 145.05 33.89, 139.4 33.89 M139.4 33.89 C104.58 33.89, 69.76 33.89, 8.47 33.89 M139.4 33.89 C111.51 33.89, 83.63 33.89, 8.47 33.89 M8.47 33.89 C2.82 33.89, 0 31.06, 0 25.41 M8.47 33.89 C2.82 33.89, 0 31.06, 0 25.41 M0 25.41 C0 20.89, 0 16.36, 0 8.47 M0 25.41 C0 20.01, 0 14.62, 0 8.47 M0 8.47 C0 2.82, 2.82 0, 8.47 0 M0 8.47 C0 2.82, 2.82 0, 8.47 0" stroke="white" stroke-width="2" fill="none"></path></g></g><g clip-path="url(#hoGjeq7Vw-Bp8s2qYB3CL)"><g transform="translate(1084.2378162382083 1661.0909821444357) rotate(0 38.6953125 9.199999999999989)"><text x="38.6953125" y="0" font-family="Helvetica, Segoe UI Emoji" font-size="16px" fill="white" text-anchor="middle" style="white-space: pre;" direction="ltr" dominant-baseline="text-before-edge">Bearbeiten</text></g></g><g clip-path="url(#hoGjeq7Vw-Bp8s2qYB3CL)"><g stroke-linecap="round" transform="translate(1052.1798904677453 1720.1322260757236) rotate(0 73.93466188158709 16.942610235379107)"><path d="M8.47 0 C39.43 0, 70.39 0, 139.4 0 C145.05 0, 147.87 2.82, 147.87 8.47 C147.87 14.19, 147.87 19.92, 147.87 25.41 C147.87 31.06, 145.05 33.89, 139.4 33.89 C110.75 33.89, 82.11 33.89, 8.47 33.89 C2.82 33.89, 0 31.06, 0 25.41 C0 18.92, 0 12.43, 0 8.47 C0 2.82, 2.82 0, 8.47 0" stroke="none" stroke-width="0" fill="black"></path><path d="M8.47 0 C60.14 0, 111.81 0, 139.4 0 M8.47 0 C52.68 0, 96.89 0, 139.4 0 M139.4 0 C145.05 0, 147.87 2.82, 147.87 8.47 M139.4 0 C145.05 0, 147.87 2.82, 147.87 8.47 M147.87 8.47 C147.87 12.59, 147.87 16.72, 147.87 25.41 M147.87 8.47 C147.87 12.4, 147.87 16.33, 147.87 25.41 M147.87 25.41 C147.87 31.06, 145.05 33.89, 139.4 33.89 M147.87 25.41 C147.87 31.06, 145.05 33.89, 139.4 33.89 M139.4 33.89 C94.56 33.89, 49.71 33.89, 8.47 33.89 M139.4 33.89 C100.79 33.89, 62.18 33.89, 8.47 33.89 M8.47 33.89 C2.82 33.89, 0 31.06, 0 25.41 M8.47 33.89 C2.82 33.89, 0 31.06, 0 25.41 M0 25.41 C0 20, 0 14.59, 0 8.47 M0 25.41 C0 21.38, 0 17.35, 0 8.47 M0 8.47 C0 2.82, 2.82 0, 8.47 0 M0 8.47 C0 2.82, 2.82 0, 8.47 0" stroke="white" stroke-width="2" fill="none"></path></g></g><g clip-path="url(#hoGjeq7Vw-Bp8s2qYB3CL)"><g transform="translate(1087.4192398493324 1727.8748363111026) rotate(0 38.6953125 9.200000000000045)"><text x="38.6953125" y="0" font-family="Helvetica, Segoe UI Emoji" font-size="16px" fill="white" text-anchor="middle" style="white-space: pre;" direction="ltr" dominant-baseline="text-before-edge">Bearbeiten</text></g></g><g clip-path="url(#hoGjeq7Vw-Bp8s2qYB3CL)"><g stroke-linecap="round" transform="translate(364.57572380107376 1566.6730246868344) rotate(0 73.93466188158703 19.622731763156764)"><path d="M9.81 0 C38.95 0, 68.09 0, 138.06 0 C144.6 0, 147.87 3.27, 147.87 9.81 C147.87 13.88, 147.87 17.95, 147.87 29.43 C147.87 35.98, 144.6 39.25, 138.06 39.25 C97 39.25, 55.93 39.25, 9.81 39.25 C3.27 39.25, 0 35.98, 0 29.43 C0 24.69, 0 19.94, 0 9.81 C0 3.27, 3.27 0, 9.81 0" stroke="none" stroke-width="0" fill="black"></path><path d="M9.81 0 C41.89 0, 73.96 0, 138.06 0 M9.81 0 C43.62 0, 77.43 0, 138.06 0 M138.06 0 C144.6 0, 147.87 3.27, 147.87 9.81 M138.06 0 C144.6 0, 147.87 3.27, 147.87 9.81 M147.87 9.81 C147.87 16.46, 147.87 23.1, 147.87 29.43 M147.87 9.81 C147.87 14.94, 147.87 20.06, 147.87 29.43 M147.87 29.43 C147.87 35.98, 144.6 39.25, 138.06 39.25 M147.87 29.43 C147.87 35.98, 144.6 39.25, 138.06 39.25 M138.06 39.25 C90.52 39.25, 42.99 39.25, 9.81 39.25 M138.06 39.25 C101.44 39.25, 64.83 39.25, 9.81 39.25 M9.81 39.25 C3.27 39.25, 0 35.98, 0 29.43 M9.81 39.25 C3.27 39.25, 0 35.98, 0 29.43 M0 29.43 C0 25.3, 0 21.16, 0 9.81 M0 29.43 C0 24.25, 0 19.07, 0 9.81 M0 9.81 C0 3.27, 3.27 0, 9.81 0 M0 9.81 C0 3.27, 3.27 0, 9.81 0" stroke="white" stroke-width="2" fill="none"></path></g></g><g clip-path="url(#hoGjeq7Vw-Bp8s2qYB3CL)"><g transform="translate(382.4674169326608 1577.0957564499913) rotate(0 56.04296875000003 9.199999999999989)"><text x="56.04296875" y="0" font-family="Helvetica, Segoe UI Emoji" font-size="16px" fill="white" text-anchor="middle" style="white-space: pre;" direction="ltr" dominant-baseline="text-before-edge">Neu hinzufügen</text></g></g><g clip-path="url(#hoGjeq7Vw-Bp8s2qYB3CL)"><g stroke-linecap="round" transform="translate(362.0323210233073 1638.4590489923903) rotate(0 73.93466188158703 19.622731763156764)"><path d="M9.81 0 C53.41 0, 97.02 0, 138.06 0 C144.6 0, 147.87 3.27, 147.87 9.81 C147.87 14.94, 147.87 20.07, 147.87 29.43 C147.87 35.98, 144.6 39.25, 138.06 39.25 C93.6 39.25, 49.15 39.25, 9.81 39.25 C3.27 39.25, 0 35.98, 0 29.43 C0 22.33, 0 15.23, 0 9.81 C0 3.27, 3.27 0, 9.81 0" stroke="none" stroke-width="0" fill="black"></path><path d="M9.81 0 C59.98 0, 110.15 0, 138.06 0 M9.81 0 C55.63 0, 101.44 0, 138.06 0 M138.06 0 C144.6 0, 147.87 3.27, 147.87 9.81 M138.06 0 C144.6 0, 147.87 3.27, 147.87 9.81 M147.87 9.81 C147.87 15.25, 147.87 20.7, 147.87 29.43 M147.87 9.81 C147.87 14.93, 147.87 20.05, 147.87 29.43 M147.87 29.43 C147.87 35.98, 144.6 39.25, 138.06 39.25 M147.87 29.43 C147.87 35.98, 144.6 39.25, 138.06 39.25 M138.06 39.25 C100.55 39.25, 63.04 39.25, 9.81 39.25 M138.06 39.25 C89.84 39.25, 41.62 39.25, 9.81 39.25 M9.81 39.25 C3.27 39.25, 0 35.98, 0 29.43 M9.81 39.25 C3.27 39.25, 0 35.98, 0 29.43 M0 29.43 C0 22.55, 0 15.66, 0 9.81 M0 29.43 C0 24.86, 0 20.29, 0 9.81 M0 9.81 C0 3.27, 3.27 0, 9.81 0 M0 9.81 C0 3.27, 3.27 0, 9.81 0" stroke="white" stroke-width="2" fill="none"></path></g></g><g clip-path="url(#hoGjeq7Vw-Bp8s2qYB3CL)"><g transform="translate(399.94354540489434 1648.881780755547) rotate(0 36.02343750000003 9.199999999999989)"><text x="36.0234375" y="0" font-family="Helvetica, Segoe UI Emoji" font-size="16px" fill="white" text-anchor="middle" style="white-space: pre;" direction="ltr" dominant-baseline="text-before-edge">Speichern</text></g></g><g clip-path="url(#hoGjeq7Vw-Bp8s2qYB3CL)"><g stroke-linecap="round" transform="translate(365.10523768997155 1706.7359587146123) rotate(0 73.93466188158703 19.622731763156708)"><path d="M9.81 0 C49.64 0, 89.47 0, 138.06 0 C144.6 0, 147.87 3.27, 147.87 9.81 C147.87 17.44, 147.87 25.07, 147.87 29.43 C147.87 35.98, 144.6 39.25, 138.06 39.25 C99.34 39.25, 60.63 39.25, 9.81 39.25 C3.27 39.25, 0 35.98, 0 29.43 C0 24.97, 0 20.51, 0 9.81 C0 3.27, 3.27 0, 9.81 0" stroke="none" stroke-width="0" fill="black"></path><path d="M9.81 0 C39.54 0, 69.28 0, 138.06 0 M9.81 0 C59.55 0, 109.28 0, 138.06 0 M138.06 0 C144.6 0, 147.87 3.27, 147.87 9.81 M138.06 0 C144.6 0, 147.87 3.27, 147.87 9.81 M147.87 9.81 C147.87 14.55, 147.87 19.28, 147.87 29.43 M147.87 9.81 C147.87 16.59, 147.87 23.36, 147.87 29.43 M147.87 29.43 C147.87 35.98, 144.6 39.25, 138.06 39.25 M147.87 29.43 C147.87 35.98, 144.6 39.25, 138.06 39.25 M138.06 39.25 C95.38 39.25, 52.7 39.25, 9.81 39.25 M138.06 39.25 C93.21 39.25, 48.37 39.25, 9.81 39.25 M9.81 39.25 C3.27 39.25, 0 35.98, 0 29.43 M9.81 39.25 C3.27 39.25, 0 35.98, 0 29.43 M0 29.43 C0 23.88, 0 18.32, 0 9.81 M0 29.43 C0 23.11, 0 16.78, 0 9.81 M0 9.81 C0 3.27, 3.27 0, 9.81 0 M0 9.81 C0 3.27, 3.27 0, 9.81 0" stroke="white" stroke-width="2" fill="none"></path></g></g><g clip-path="url(#hoGjeq7Vw-Bp8s2qYB3CL)"><g transform="translate(408.7938058215586 1717.158690477769) rotate(0 30.24609375000003 9.200000000000045)"><text x="30.24609375" y="0" font-family="Helvetica, Segoe UI Emoji" font-size="16px" fill="white" text-anchor="middle" style="white-space: pre;" direction="ltr" dominant-baseline="text-before-edge">Löschen</text></g></g><g clip-path="url(#hoGjeq7Vw-Bp8s2qYB3CL)"><g stroke-linecap="round" transform="translate(385.9793789013238 1859.7022215442578) rotate(0 97.65182665281498 16.66276041666663)"><path d="M0 0 C54.26 2.76, 105.83 -0.01, 195.3 0 M0 0 C62.24 0.94, 123.39 -0.72, 195.3 0 M195.3 0 C194.45 8.07, 195.05 20.12, 195.3 33.33 M195.3 0 C195.11 9.15, 195.82 17.81, 195.3 33.33 M195.3 33.33 C126.67 34.66, 60.19 33.97, 0 33.33 M195.3 33.33 C137.75 34.66, 80.45 34.6, 0 33.33 M0 33.33 C1.14 23.45, 0.74 14.54, 0 0 M0 33.33 C0.5 23.08, -0.96 11.87, 0 0" stroke="#000000" stroke-width="1" fill="none"></path></g></g><g clip-path="url(#hoGjeq7Vw-Bp8s2qYB3CL)"><g transform="translate(387.9832032075319 1833.7587833857651) rotate(0 24.90998077392578 12.478556469662749)"><text x="0" y="0" font-family="Virgil, Segoe UI Emoji" font-size="20px" fill="#1e1e1e" text-anchor="start" style="white-space: pre;" direction="ltr" dominant-baseline="text-before-edge">Name</text></g></g><g clip-path="url(#hoGjeq7Vw-Bp8s2qYB3CL)"><g stroke-linecap="round" transform="translate(668.6343071773335 1849.5158207158831) rotate(0 314.23465654228403 154.87757109507095)"><path d="M0 0 C240 1.69, 479.75 1.73, 628.47 0 M0 0 C249.83 1.61, 499.49 1.55, 628.47 0 M628.47 0 C627.71 75.38, 629.3 148.98, 628.47 309.76 M628.47 0 C629.59 107.47, 629.25 213.3, 628.47 309.76 M628.47 309.76 C395.49 310.61, 163.2 310.69, 0 309.76 M628.47 309.76 C448.94 309.55, 269.6 309.52, 0 309.76 M0 309.76 C-0.92 227.28, -1.36 145.05, 0 0 M0 309.76 C1.81 210.6, 2.35 112.94, 0 0" stroke="#000000" stroke-width="1" fill="none"></path></g></g><g clip-path="url(#hoGjeq7Vw-Bp8s2qYB3CL)"><g stroke-linecap="round" transform="translate(1266.1105551961846 1865.2526238780717) rotate(0 8.560534753823049 135.14638269102943)"><path d="M0 0 C4.18 0.3, 9.17 -0.31, 17.12 0 M0 0 C3.6 -0.15, 7.69 -0.02, 17.12 0 M17.12 0 C17.27 102.91, 17.06 206.64, 17.12 270.29 M17.12 0 C17.55 91.79, 17.85 184, 17.12 270.29 M17.12 270.29 C12.01 270.32, 5.48 270.57, 0 270.29 M17.12 270.29 C12.33 270.66, 7.4 270.57, 0 270.29 M0 270.29 C-0.28 194.32, 0.01 116.77, 0 0 M0 270.29 C0.46 205.53, 0.57 139.95, 0 0" stroke="#000000" stroke-width="1" fill="none"></path></g></g><g clip-path="url(#hoGjeq7Vw-Bp8s2qYB3CL)"><g stroke-linecap="round" transform="translate(1268.9138882683292 1866.7595585058168) rotate(0 6.357253804493553 35.32018470933383)"><path d="M-0.08 -0.67 L13.54 0.35 L11.86 70.87 L0.59 69.85" stroke="none" stroke-width="0" fill="black"></path><path d="M0 0 C4.85 -0.23, 8.03 -0.17, 12.71 0 M0 0 C3.33 0, 7.29 -0.1, 12.71 0 M12.71 0 C13.42 24.75, 13.38 49.19, 12.71 70.64 M12.71 0 C13.05 25.81, 12.88 52.26, 12.71 70.64 M12.71 70.64 C8.9 70.85, 5.15 70.49, 0 70.64 M12.71 70.64 C7.83 70.84, 3.1 70.73, 0 70.64 M0 70.64 C0.25 47.18, -0.53 25.27, 0 0 M0 70.64 C0.22 53.66, -0.26 36.89, 0 0" stroke="#000000" stroke-width="1" fill="none"></path></g></g><g clip-path="url(#hoGjeq7Vw-Bp8s2qYB3CL)"><g transform="translate(692.0767242825423 1863.0659787546635) rotate(0 48.42396545410156 9.982845175730176)"><text x="0" y="0" font-family="Virgil, Segoe UI Emoji" font-size="16px" fill="#ced4da" text-anchor="start" style="white-space: pre;" direction="ltr" dominant-baseline="text-before-edge">Beschreibung</text></g></g><g clip-path="url(#hoGjeq7Vw-Bp8s2qYB3CL)"><g stroke-linecap="round" transform="translate(389.27147959576905 1944.801742834645) rotate(0 97.65182665281498 16.66276041666663)"><path d="M0 0 C51.75 -1.29, 103.66 -0.73, 195.3 0 M0 0 C57.3 1.48, 113.35 1.21, 195.3 0 M195.3 0 C196.84 11.14, 193.7 23.85, 195.3 33.33 M195.3 0 C195.35 8.54, 195.46 15.41, 195.3 33.33 M195.3 33.33 C131.83 32.86, 66.7 32.21, 0 33.33 M195.3 33.33 C127.2 33.4, 59.28 33.77, 0 33.33 M0 33.33 C-1.05 27.32, 1.92 20.89, 0 0 M0 33.33 C-0.03 23.86, 0.89 16.08, 0 0" stroke="#000000" stroke-width="1" fill="none"></path></g></g><g clip-path="url(#hoGjeq7Vw-Bp8s2qYB3CL)"><g transform="translate(391.27530390197717 1918.858304676152) rotate(0 26.059974670410156 12.478556469662749)"><text x="0" y="0" font-family="Virgil, Segoe UI Emoji" font-size="20px" fill="#1e1e1e" text-anchor="start" style="white-space: pre;" direction="ltr" dominant-baseline="text-before-edge">Tarif</text></g></g><g clip-path="url(#hoGjeq7Vw-Bp8s2qYB3CL)"><g stroke-linecap="round" transform="translate(390.0570698735428 2035.5005275568672) rotate(0 97.65182665281498 16.66276041666663)"><path d="M0 0 C41.5 2.78, 82.58 2.05, 195.3 0 M0 0 C72.97 -0.48, 145.63 -0.18, 195.3 0 M195.3 0 C193.68 10.59, 194.91 19.57, 195.3 33.33 M195.3 0 C195.64 12.32, 195.08 25.81, 195.3 33.33 M195.3 33.33 C137.83 32.34, 78.62 33.07, 0 33.33 M195.3 33.33 C139.32 33.1, 84.88 33.07, 0 33.33 M0 33.33 C-1.01 21.29, -0.9 9.76, 0 0 M0 33.33 C-1.13 25.79, 0.31 17, 0 0" stroke="#000000" stroke-width="1" fill="none"></path></g></g><g clip-path="url(#hoGjeq7Vw-Bp8s2qYB3CL)"><g transform="translate(392.0608941797582 2009.5570893983743) rotate(0 64.62993621826172 12.478556469662749)"><text x="0" y="0" font-family="Virgil, Segoe UI Emoji" font-size="20px" fill="#1e1e1e" text-anchor="start" style="white-space: pre;" direction="ltr" dominant-baseline="text-before-edge">Preisgarantie</text></g></g><g clip-path="url(#hoGjeq7Vw-Bp8s2qYB3CL)"><g stroke-linecap="round" transform="translate(395.2906075750543 2120.4589176889267) rotate(0 6.223614017363445 6.2236140173633885)"><path d="M5.9 0.24 C7.17 0.01, 9.17 0.32, 10.15 1.11 C11.14 1.9, 11.57 3.66, 11.8 4.98 C12.03 6.3, 12.02 7.9, 11.53 9.05 C11.03 10.19, 9.91 11.3, 8.82 11.83 C7.73 12.37, 6.27 12.56, 4.98 12.25 C3.68 11.94, 1.89 11.06, 1.05 9.95 C0.2 8.83, -0.27 6.91, -0.08 5.55 C0.12 4.2, 1.12 2.76, 2.21 1.81 C3.3 0.86, 5.69 0.13, 6.45 -0.16 C7.2 -0.46, 6.79 -0.1, 6.75 0.04 M5.28 -0.44 C6.44 -0.67, 8.59 -0.18, 9.82 0.82 C11.06 1.81, 12.26 4.18, 12.68 5.51 C13.1 6.85, 13.05 7.78, 12.35 8.82 C11.65 9.86, 9.83 11.27, 8.49 11.74 C7.14 12.21, 5.44 11.98, 4.3 11.66 C3.15 11.34, 2.42 10.85, 1.6 9.84 C0.79 8.83, -0.73 7.05, -0.59 5.59 C-0.45 4.12, 1.45 1.91, 2.45 1.04 C3.46 0.18, 4.82 0.61, 5.47 0.4 C6.12 0.19, 6.35 -0.24, 6.34 -0.22" stroke="#000000" stroke-width="1" fill="none"></path></g></g><g clip-path="url(#hoGjeq7Vw-Bp8s2qYB3CL)"><g transform="translate(414.0234850517263 2113.9060783521345) rotate(0 24.499977111816406 13.094006896816836)"><text x="0" y="0" font-family="Virgil, Segoe UI Emoji" font-size="20px" fill="#000000" text-anchor="start" style="white-space: pre;" direction="ltr" dominant-baseline="text-before-edge">Aktiv</text></g></g><g clip-path="url(#hoGjeq7Vw-Bp8s2qYB3CL)"><g stroke-linecap="round" transform="translate(398.7864467363215 2123.759236957414) rotate(0 2.9723681944548446 2.972368194454816)"><path d="M2.72 0.19 C3.4 0.18, 4.6 0.26, 5.11 0.63 C5.62 1.01, 5.73 1.85, 5.78 2.45 C5.83 3.05, 5.67 3.64, 5.41 4.23 C5.15 4.83, 4.81 5.75, 4.24 6.01 C3.67 6.28, 2.59 6.09, 1.99 5.81 C1.38 5.54, 0.97 4.91, 0.61 4.37 C0.26 3.82, -0.26 3.13, -0.13 2.56 C0 1.99, 0.8 1.36, 1.38 0.93 C1.97 0.51, 3.08 0.1, 3.37 0.01 C3.67 -0.09, 3.22 0.3, 3.14 0.36 M3.63 0.12 C4.29 0.02, 5.05 0.05, 5.5 0.51 C5.94 0.98, 6.35 2.15, 6.29 2.89 C6.23 3.64, 5.63 4.58, 5.15 5.01 C4.67 5.44, 3.91 5.43, 3.41 5.49 C2.91 5.55, 2.71 5.64, 2.14 5.37 C1.57 5.11, 0.28 4.36, -0.03 3.89 C-0.33 3.42, 0.11 3.13, 0.31 2.55 C0.52 1.96, 0.76 0.87, 1.2 0.37 C1.64 -0.14, 2.7 -0.37, 2.96 -0.47 C3.22 -0.57, 2.71 -0.31, 2.76 -0.23" stroke="none" stroke-width="0" fill="black"></path><path d="M2.89 0.24 C3.42 0.27, 4.31 0.56, 4.82 0.96 C5.32 1.36, 5.77 2.02, 5.91 2.64 C6.06 3.25, 6.05 4.1, 5.69 4.65 C5.33 5.2, 4.41 5.78, 3.74 5.94 C3.07 6.1, 2.22 5.89, 1.69 5.61 C1.16 5.33, 0.78 4.85, 0.55 4.27 C0.32 3.69, 0.18 2.77, 0.32 2.14 C0.46 1.51, 0.9 0.85, 1.39 0.51 C1.89 0.16, 2.99 0.12, 3.3 0.08 C3.61 0.04, 3.27 0.28, 3.27 0.27 M2.94 0.44 C3.62 0.37, 4.58 0.08, 5.05 0.34 C5.52 0.6, 5.65 1.43, 5.75 2.02 C5.85 2.6, 5.82 3.23, 5.64 3.86 C5.46 4.5, 5.31 5.48, 4.67 5.83 C4.04 6.18, 2.45 6.22, 1.81 5.96 C1.17 5.71, 1.2 4.8, 0.85 4.31 C0.5 3.82, -0.35 3.62, -0.31 3.01 C-0.27 2.4, 0.67 1.17, 1.11 0.66 C1.54 0.15, 2.11 -0.01, 2.32 -0.06 C2.53 -0.11, 2.27 0.26, 2.37 0.35" stroke="#000000" stroke-width="1" fill="none"></path></g></g><g clip-path="url(#hoGjeq7Vw-Bp8s2qYB3CL)"><g stroke-linecap="round" transform="translate(395.32575398797417 2143.4110198426993) rotate(0 6.223614017363445 6.223614017363502)"><path d="M5.83 0.18 C7.16 0.02, 9 0.56, 10.15 1.38 C11.3 2.2, 12.48 3.75, 12.72 5.1 C12.96 6.44, 12.31 8.31, 11.57 9.44 C10.84 10.58, 9.48 11.49, 8.31 11.93 C7.14 12.37, 5.72 12.54, 4.53 12.09 C3.35 11.64, 1.92 10.39, 1.21 9.23 C0.51 8.06, 0.16 6.39, 0.33 5.12 C0.5 3.85, 1.22 2.4, 2.24 1.59 C3.26 0.79, 5.67 0.6, 6.47 0.29 C7.27 -0.02, 7.07 -0.32, 7.03 -0.28 M5.86 -0.19 C7.02 -0.61, 8.28 0.01, 9.31 0.66 C10.34 1.31, 11.49 2.36, 12.05 3.7 C12.61 5.05, 13.23 7.37, 12.65 8.73 C12.08 10.09, 9.79 11.34, 8.59 11.84 C7.39 12.34, 6.75 11.95, 5.47 11.74 C4.19 11.52, 1.75 11.52, 0.9 10.53 C0.06 9.53, 0.38 7.17, 0.39 5.76 C0.4 4.34, 0.26 2.9, 0.99 2.02 C1.72 1.15, 4.02 0.76, 4.78 0.49 C5.55 0.21, 5.46 0.31, 5.58 0.39" stroke="#000000" stroke-width="1" fill="none"></path></g></g><g clip-path="url(#hoGjeq7Vw-Bp8s2qYB3CL)"><g transform="translate(414.0412259978584 2137.1346338600624) rotate(0 55.48994445800781 12.5)"><text x="0" y="0" font-family="Virgil, Segoe UI Emoji" font-size="20px" fill="#000000" text-anchor="start" style="white-space: pre;" direction="ltr" dominant-baseline="text-before-edge">Deaktiviert</text></g></g><g clip-path="url(#hoGjeq7Vw-Bp8s2qYB3CL)"><g transform="translate(393.3350366969644 2083.8657902024024) rotate(0 35.15996551513672 12.478556469662749)"><text x="0" y="0" font-family="Virgil, Segoe UI Emoji" font-size="20px" fill="#1e1e1e" text-anchor="start" style="white-space: pre;" direction="ltr" dominant-baseline="text-before-edge">Status</text></g></g><g clip-path="url(#hoGjeq7Vw-Bp8s2qYB3CL)"><g stroke-linecap="round"><g transform="translate(372.4538213370324 1804.491548795141) rotate(0 474.8784722222226 -2.003038194444457)"><path d="M0 0 C158.29 -0.67, 791.46 -3.34, 949.76 -4.01" stroke="#bbb" stroke-width="2.5" fill="none" stroke-dasharray="1.5 8"></path></g></g><mask></mask></g><g transform="translate(10 1413.2551523154818) rotate(0 17.730979919433594 8.75)"><text x="0" y="0" font-family="Assistant, Segoe UI Emoji" font-size="14px" fill="#999999" text-anchor="start" style="white-space: pre;" direction="ltr" dominant-baseline="text-before-edge">Strom</text></g><rect transform="translate(10 1433.7551523154818) rotate(0 698.1601562499999 415.9570312500001)" width="1396.3203124999998px" height="831.9140625000002px" rx="8" ry="8" fill="none" stroke="#bbb" stroke-width="2"></rect><g transform="translate(12.224566477456392 10) rotate(0 299.74365234375 134.29949190355447)"><text x="0" y="0" font-family="Virgil, Segoe UI Emoji" font-size="214.87918704568716px" fill="#2f9e44" text-anchor="start" style="white-space: pre;" direction="ltr" dominant-baseline="text-before-edge">Strom</text></g><g stroke-linecap="round"><g transform="translate(342.47263558177656 1238.069479526621) rotate(0 341.42933100550727 46.406796827116295)" fill-rule="evenodd"><path d="M-1.29 -1.41 L1.74 91.66 L681.66 87.64 L683.17 19.48 L603.97 5.34 L-1.13 -1.94" stroke="none" stroke-width="0" fill="#fff" fill-rule="evenodd"></path><path d="M0 0 C-0.54 27.71, 1.39 56.34, 0 92.81 M0 0 C-0.48 34.45, -0.11 68.47, 0 92.81 M0 92.81 C242.66 93.68, 485.76 92.91, 682.86 88.96 M0 92.81 C263.45 92.19, 527.02 90.55, 682.86 88.96 M682.86 88.96 C682.86 62.98, 680.62 33.37, 682.34 18.07 M682.86 88.96 C681.58 63.81, 681.49 39.51, 682.34 18.07 M682.34 18.07 C656.52 14.32, 627.62 8.81, 604.26 6 M682.34 18.07 C665.78 15.62, 649.69 13.17, 604.26 6 M604.26 6 C472.23 6.53, 340.41 4.94, 0 0 M604.26 6 C457.12 6.91, 309.35 5.08, 0 0 M0 0 C0 0, 0 0, 0 0 M0 0 C0 0, 0 0, 0 0" stroke="#000000" stroke-width="1" fill="none"></path></g></g><mask></mask><g transform="translate(379.5022529495618 1262.271032422163) rotate(0 310.6297302246094 25)"><text x="0" y="0" font-family="Virgil, Segoe UI Emoji" font-size="20px" fill="#000000" text-anchor="start" style="white-space: pre;" direction="ltr" dominant-baseline="text-before-edge">If you click on "Bearbeiten" the data should be loaded into </text><text x="0" y="25.000000000000007" font-family="Virgil, Segoe UI Emoji" font-size="20px" fill="#000000" text-anchor="start" style="white-space: pre;" direction="ltr" dominant-baseline="text-before-edge">the form and if saved the specific entry should be overwritten</text></g><g stroke-linecap="round"><g transform="translate(944.667753503767 1245.3706245587177) rotate(0 40.50205307824581 15.733386535092961)" fill-rule="evenodd"><path d="M0.46 1.24 L68.78 31.73 L68.29 30.01 L82.42 10.82 L-1.01 1.29" stroke="none" stroke-width="0" fill="#868e96" fill-rule="evenodd"></path><path d="M0 0 C20.23 8.01, 38.43 16.99, 67.21 31.32 M0 0 C21.67 10.11, 41.26 19.14, 67.21 31.32 M67.21 31.32 C67.11 31.41, 66.87 31.39, 66.64 31.47 M67.21 31.32 C67.08 31.37, 66.88 31.4, 66.64 31.47 M66.64 31.47 C73.01 24.94, 76.19 14.8, 81 10.14 M66.64 31.47 C71.27 25.56, 75.17 19.58, 81 10.14 M81 10.14 C54.08 7.66, 31.91 2.78, 0 0 M81 10.14 C59.04 8.11, 39.38 4.82, 0 0 M0 0 C0 0, 0 0, 0 0 M0 0 C0 0, 0 0, 0 0" stroke="#000000" stroke-width="1" fill="none"></path></g></g><mask></mask></svg>