<svg version="1.1" xmlns="http://www.w3.org/2000/svg" viewBox="0 0 1416.3203124999998 2582.6762675384925" width="1416.3203124999998" height="2582.6762675384925">
  <!-- svg-source:excalidraw -->
  
  <defs>
    <style class="style-fonts">
      @font-face {
        font-family: "Virgil";
        src: url("https://file%2B.vscode-resource.vscode-cdn.net/c%3A/Users/lisa-/.vscode/extensions/pomdtr.excalidraw-editor-3.7.4/public//dist/excalidraw-assets/Virgil.woff2");
      }
      @font-face {
        font-family: "Cascadia";
        src: url("https://file%2B.vscode-resource.vscode-cdn.net/c%3A/Users/lisa-/.vscode/extensions/pomdtr.excalidraw-editor-3.7.4/public//dist/excalidraw-assets/Cascadia.woff2");
      }
      @font-face {
        font-family: "Assistant";
        src: url("https://file%2B.vscode-resource.vscode-cdn.net/c%3A/Users/lisa-/.vscode/extensions/pomdtr.excalidraw-editor-3.7.4/public//dist/excalidraw-assets/Assistant-Regular.woff2");
      }
    </style>
    <clipPath id="I1s3QIhxjclg-5pSUfpwp">
            <rect transform="translate(10 1348.9216185210507) rotate(0 698.1601562499999 415.95703125000017)" width="1396.3203124999998" height="831.9140625000002">
          </rect>
        </clipPath>
  </defs>
  <rect x="0" y="0" width="1416.3203124999998" height="2582.6762675384925" fill="#ffffff"></rect><g clip-path="url(#I1s3QIhxjclg-5pSUfpwp)"><g transform="translate(376.4857191141564 1691.8101449527444) rotate(0 203.369140625 16.100000000000023)"><text x="0" y="0" font-family="Helvetica, Segoe UI Emoji" font-size="28px" fill="#1e1e1e" text-anchor="start" style="white-space: pre;" direction="ltr" dominant-baseline="text-before-edge">Was möchten Sie sich ansehen?</text></g></g><g clip-path="url(#I1s3QIhxjclg-5pSUfpwp)"><g stroke-linecap="round" transform="translate(65.62681557318137 1410.5581186887093) rotate(0 640 360)"><path d="M0 0 C268.43 0, 536.86 0, 1280 0 M0 0 C366.54 0, 733.07 0, 1280 0 M1280 0 C1280 248.04, 1280 496.09, 1280 720 M1280 0 C1280 279.12, 1280 558.24, 1280 720 M1280 720 C883.61 720, 487.23 720, 0 720 M1280 720 C838.15 720, 396.3 720, 0 720 M0 720 C0 502.41, 0 284.82, 0 0 M0 720 C0 500.55, 0 281.1, 0 0" stroke="#ced4da" stroke-width="4" fill="none"></path></g></g><g clip-path="url(#I1s3QIhxjclg-5pSUfpwp)"><g stroke-linecap="round"><g transform="translate(342.38608982741425 1410.1092464253672) rotate(0 0.67626953125 360.6884765625)"><path d="M-0.92 1.2 C-0.75 121.42, 1.25 601.29, 1.68 721.21 M0.79 0.78 C0.78 121.21, 0.86 602.51, 0.91 722.66" stroke="#bbb" stroke-width="2" fill="none"></path></g></g><mask></mask></g><g clip-path="url(#I1s3QIhxjclg-5pSUfpwp)"><g transform="translate(101.59122352541453 2082.0332481680225) rotate(0 29.653038024902344 11.152405278842025)"><text x="0" y="0" font-family="Helvetica, Segoe UI Emoji" font-size="19.39548744146448px" fill="#1e1e1e" text-anchor="start" style="white-space: pre;" direction="ltr" dominant-baseline="text-before-edge">Logout</text></g></g><g clip-path="url(#I1s3QIhxjclg-5pSUfpwp)"><g transform="translate(103.29053831157944 1439.6150150990607) rotate(0 80.01953125 103.5)"><text x="0" y="0" font-family="Helvetica, Segoe UI Emoji" font-size="20px" fill="#1e1e1e" text-anchor="start" style="white-space: pre;" direction="ltr" dominant-baseline="text-before-edge">Home</text><text x="0" y="23" font-family="Helvetica, Segoe UI Emoji" font-size="20px" fill="#1e1e1e" text-anchor="start" style="white-space: pre;" direction="ltr" dominant-baseline="text-before-edge"></text><text x="0" y="46" font-family="Helvetica, Segoe UI Emoji" font-size="20px" fill="#1e1e1e" text-anchor="start" style="white-space: pre;" direction="ltr" dominant-baseline="text-before-edge"></text><text x="0" y="69" font-family="Helvetica, Segoe UI Emoji" font-size="20px" fill="#1e1e1e" text-anchor="start" style="white-space: pre;" direction="ltr" dominant-baseline="text-before-edge">- Stadtwerke</text><text x="0" y="92" font-family="Helvetica, Segoe UI Emoji" font-size="20px" fill="#1e1e1e" text-anchor="start" style="white-space: pre;" direction="ltr" dominant-baseline="text-before-edge">    - Wasser</text><text x="0" y="115" font-family="Helvetica, Segoe UI Emoji" font-size="20px" fill="#1e1e1e" text-anchor="start" style="white-space: pre;" direction="ltr" dominant-baseline="text-before-edge">    - Strom</text><text x="0" y="138" font-family="Helvetica, Segoe UI Emoji" font-size="20px" fill="#1e1e1e" text-anchor="start" style="white-space: pre;" direction="ltr" dominant-baseline="text-before-edge">    - Wärmepumpe</text><text x="0" y="161" font-family="Helvetica, Segoe UI Emoji" font-size="20px" fill="#1e1e1e" text-anchor="start" style="white-space: pre;" direction="ltr" dominant-baseline="text-before-edge">    - Gas</text><text x="0" y="184" font-family="Helvetica, Segoe UI Emoji" font-size="20px" fill="#1e1e1e" text-anchor="start" style="white-space: pre;" direction="ltr" dominant-baseline="text-before-edge">    - Rechnungen</text></g></g><g clip-path="url(#I1s3QIhxjclg-5pSUfpwp)"><g stroke-linecap="round" transform="translate(342.7282632933202 1410.8697622244856) rotate(0 503.00695269974335 360.0109060460611)"><path d="M0 0 C329.86 -3.98, 658.67 -3.64, 1006.01 0 M1006.01 0 C1004.5 241.33, 1004.22 482.53, 1006.01 720.02 M1006.01 720.02 C708.88 716.27, 413.86 716.45, 0 720.02 M0 720.02 C-0.54 453.73, -1.39 189.05, 0 0" stroke="#bbb" stroke-width="2.5" fill="none" stroke-dasharray="1.5 8"></path></g></g><g clip-path="url(#I1s3QIhxjclg-5pSUfpwp)"><g stroke-linecap="round"><g transform="translate(132.35140903031424 1861.4377839988776) rotate(0 42.63625744633646 -0.29050246415079073)"><path d="M0.03 -0.19 C14.13 -0.34, 71.71 -0.03, 85.81 -0.17 M-1.41 -1.34 C12.48 -1.91, 70.98 -2.31, 85.14 -2.07" stroke="#1e1e1e" stroke-width="2" fill="none"></path></g></g><mask></mask></g><g clip-path="url(#I1s3QIhxjclg-5pSUfpwp)"><g transform="translate(73.81189750377962 1710.9281756164887) rotate(0 48.91015625 9.199999999999989)"><text x="0" y="0" font-family="Helvetica, Segoe UI Emoji" font-size="16px" fill="#bbb" text-anchor="start" style="white-space: pre;" direction="ltr" dominant-baseline="text-before-edge">Admin Center</text></g></g><g clip-path="url(#I1s3QIhxjclg-5pSUfpwp)"><g stroke-linecap="round"><g transform="translate(67.79888022122759 1733.6801329018363) rotate(0 141.61061985371225 -0.523091875087232)"><path d="M0 0 C97.02 0.9, 195.93 0.01, 283.22 -1.05" stroke="#bbb" stroke-width="4.5" fill="none" stroke-dasharray="1.5 10"></path></g></g><mask></mask></g><g clip-path="url(#I1s3QIhxjclg-5pSUfpwp)"><g transform="translate(97.65443871940079 1745.9449786980522) rotate(0 91.1328125 114.99999999999994)"><text x="0" y="0" font-family="Helvetica, Segoe UI Emoji" font-size="20px" fill="#1e1e1e" text-anchor="start" style="white-space: pre;" direction="ltr" dominant-baseline="text-before-edge">General</text><text x="0" y="23" font-family="Helvetica, Segoe UI Emoji" font-size="20px" fill="#1e1e1e" text-anchor="start" style="white-space: pre;" direction="ltr" dominant-baseline="text-before-edge"></text><text x="0" y="46" font-family="Helvetica, Segoe UI Emoji" font-size="20px" fill="#1e1e1e" text-anchor="start" style="white-space: pre;" direction="ltr" dominant-baseline="text-before-edge"></text><text x="0" y="69" font-family="Helvetica, Segoe UI Emoji" font-size="20px" fill="#1e1e1e" text-anchor="start" style="white-space: pre;" direction="ltr" dominant-baseline="text-before-edge">- Stadtwerke</text><text x="0" y="92" font-family="Helvetica, Segoe UI Emoji" font-size="20px" fill="#1e1e1e" text-anchor="start" style="white-space: pre;" direction="ltr" dominant-baseline="text-before-edge">    - Tarife</text><text x="0" y="115" font-family="Helvetica, Segoe UI Emoji" font-size="20px" fill="#1e1e1e" text-anchor="start" style="white-space: pre;" direction="ltr" dominant-baseline="text-before-edge">        - Wasser</text><text x="0" y="138" font-family="Helvetica, Segoe UI Emoji" font-size="20px" fill="#1e1e1e" text-anchor="start" style="white-space: pre;" direction="ltr" dominant-baseline="text-before-edge">        - Strom</text><text x="0" y="161" font-family="Helvetica, Segoe UI Emoji" font-size="20px" fill="#1e1e1e" text-anchor="start" style="white-space: pre;" direction="ltr" dominant-baseline="text-before-edge">        - Wärmepumpe</text><text x="0" y="184" font-family="Helvetica, Segoe UI Emoji" font-size="20px" fill="#1e1e1e" text-anchor="start" style="white-space: pre;" direction="ltr" dominant-baseline="text-before-edge">        - Gas</text><text x="0" y="207" font-family="Helvetica, Segoe UI Emoji" font-size="20px" fill="#1e1e1e" text-anchor="start" style="white-space: pre;" direction="ltr" dominant-baseline="text-before-edge">    - Kunden</text></g></g><g clip-path="url(#I1s3QIhxjclg-5pSUfpwp)"><g stroke-linecap="round"><g transform="translate(65.80309234571541 1994.9019575689388) rotate(0 141.61061985371225 -0.5230918750871751)"><path d="M0 0 C88.05 0.23, 174.27 -1.39, 283.22 -1.05" stroke="#bbb" stroke-width="4.5" fill="none" stroke-dasharray="1.5 10"></path></g></g><mask></mask></g><g clip-path="url(#I1s3QIhxjclg-5pSUfpwp)"><g transform="translate(372.2235794758126 1437.0248653281706) rotate(0 331.6583251953125 110.68798828124994)"><text x="0" y="0" font-family="Helvetica, Segoe UI Emoji" font-size="96.25042459239128px" fill="#1e1e1e" text-anchor="start" style="white-space: pre;" direction="ltr" dominant-baseline="text-before-edge">Willkommen </text><text x="0" y="110.68798828124997" font-family="Helvetica, Segoe UI Emoji" font-size="96.25042459239128px" fill="#1e1e1e" text-anchor="start" style="white-space: pre;" direction="ltr" dominant-baseline="text-before-edge">Herr Paul Peter</text></g></g><g clip-path="url(#I1s3QIhxjclg-5pSUfpwp)"><g stroke-linecap="round" transform="translate(652.6883983394546 1817.2017271658078) rotate(0 327.83858181181006 138.50521097528997)"><path d="M0 0 C192.55 2.28, 387.22 2.46, 655.68 0 M0 0 C242.08 -1.29, 483.58 -0.8, 655.68 0 M655.68 0 C655.27 75.47, 654.22 153.26, 655.68 277.01 M655.68 0 C655.22 104.25, 656.09 207.44, 655.68 277.01 M655.68 277.01 C433.8 280.17, 212.33 279.07, 0 277.01 M655.68 277.01 C492.99 274.27, 330.98 274.42, 0 277.01 M0 277.01 C-0.24 189.36, -2.66 98.82, 0 0 M0 277.01 C0.41 203, -0.04 130.37, 0 0" stroke="#000000" stroke-width="1" fill="none"></path></g></g><g clip-path="url(#I1s3QIhxjclg-5pSUfpwp)"><g stroke-linecap="round" transform="translate(717.692350196081 1871.9011005936466) rotate(0 32.292978031895245 32.292978031895245)"><path d="M26.81 1.35 C32.48 -0.25, 40.64 0.83, 46.19 3.33 C51.74 5.82, 56.98 10.91, 60.11 16.35 C63.23 21.78, 65.59 29.64, 64.94 35.93 C64.3 42.22, 60.89 49.43, 56.23 54.07 C51.58 58.72, 43.49 62.74, 37.02 63.78 C30.56 64.82, 22.96 62.91, 17.46 60.33 C11.95 57.75, 7.01 53.72, 4.02 48.31 C1.03 42.91, -1.28 34.2, -0.47 27.88 C0.33 21.56, 3.22 15.09, 8.85 10.38 C14.48 5.67, 28.5 1.12, 33.32 -0.36 C38.14 -1.84, 37.77 1.08, 37.78 1.52 M36.62 0.84 C42.7 0.7, 50.38 3.53, 54.68 7.63 C58.98 11.74, 61.37 19.42, 62.42 25.5 C63.47 31.58, 63.32 38.25, 60.99 44.11 C58.67 49.97, 53.97 57.51, 48.49 60.68 C43 63.84, 34.48 63.89, 28.09 63.09 C21.71 62.28, 14.88 60.03, 10.17 55.83 C5.46 51.63, 1.31 43.97, -0.17 37.87 C-1.64 31.77, -1.38 24.76, 1.32 19.23 C4.02 13.7, 10.44 7.95, 16.01 4.71 C21.57 1.47, 31.41 0.21, 34.71 -0.22 C38.01 -0.64, 35.92 1.41, 35.8 2.17" stroke="none" stroke-width="0" fill="black"></path><path d="M34.23 0.42 C40.01 0.11, 46.79 2.57, 51.74 6.43 C56.69 10.29, 62.26 17.4, 63.9 23.58 C65.55 29.75, 63.76 37.65, 61.6 43.48 C59.44 49.32, 56.05 55.05, 50.95 58.57 C45.85 62.08, 37.37 64.75, 31.01 64.57 C24.66 64.39, 17.92 61.59, 12.81 57.51 C7.71 53.42, 2.04 46.11, 0.37 40.07 C-1.3 34.04, 0.43 27.02, 2.81 21.28 C5.19 15.54, 8.24 8.87, 14.65 5.66 C21.05 2.45, 36.08 2.18, 41.26 2.02 C46.43 1.85, 46.09 4.4, 45.69 4.65 M23.09 -0.19 C29.05 -2.05, 38.6 -1.23, 44.7 1.45 C50.81 4.13, 56.58 10.24, 59.71 15.9 C62.85 21.55, 63.68 29.43, 63.52 35.39 C63.36 41.36, 62.6 47.07, 58.78 51.67 C54.97 56.26, 46.99 61.31, 40.63 62.96 C34.28 64.61, 26.44 63.95, 20.64 61.56 C14.84 59.17, 9.31 53.75, 5.84 48.61 C2.37 43.47, -0.2 37.08, -0.2 30.73 C-0.19 24.37, 1.78 15.38, 5.87 10.47 C9.97 5.55, 21.29 2.75, 24.39 1.24 C27.49 -0.26, 24.59 0.77, 24.46 1.44" stroke="#000000" stroke-width="1" fill="none"></path></g></g><g clip-path="url(#I1s3QIhxjclg-5pSUfpwp)"><g stroke-linecap="round"><g transform="translate(665.5231469734354 2074.0441272614344) rotate(0 306.31055931582785 -83.43496477658141)" fill-rule="evenodd"><path d="M1 1.23 L211.91 -122.6 L313.11 -75.32 L479.82 -174.2 L613.14 9.58 L1.18 0.88" stroke="none" stroke-width="0" fill="black" fill-rule="evenodd"></path><path d="M0 0 C61.3 -34.45, 121.9 -69.07, 212.63 -120.93 M0 0 C47.79 -28.43, 95.07 -53.8, 212.63 -120.93 M212.63 -120.93 C236.86 -110.9, 256.45 -102.4, 312.65 -76.8 M212.63 -120.93 C250.33 -103.73, 288.07 -88.82, 312.65 -76.8 M312.65 -76.8 C375.44 -113.19, 437.78 -149.87, 481.82 -174.63 M312.65 -76.8 C348.64 -96.22, 384.04 -117.07, 481.82 -174.63 M481.82 -174.63 C531.69 -102.9, 582.79 -30.31, 612.62 7.76 M481.82 -174.63 C509.08 -136.15, 538.38 -95.78, 612.62 7.76 M612.62 7.76 C415.64 3.81, 217.73 0.53, 0 0 M612.62 7.76 C381.5 5.09, 149.74 1.98, 0 0 M0 0 C0 0, 0 0, 0 0 M0 0 C0 0, 0 0, 0 0" stroke="#000000" stroke-width="1" fill="none"></path></g></g><mask></mask></g><g clip-path="url(#I1s3QIhxjclg-5pSUfpwp)"><g stroke-linecap="round" transform="translate(377.86688912354657 1760.438177108112) rotate(0 82.13502690350816 19.433865376777817)"><path d="M9.72 0 C41.98 1.45, 69.26 1.08, 154.55 0 C159.35 -3.53, 163.93 1.38, 164.27 9.72 C162.51 10.7, 163.19 16.83, 164.27 29.15 C162.2 33.04, 157.44 39.17, 154.55 38.87 C111.97 37.44, 74.53 33.86, 9.72 38.87 C5.48 35.35, -3.54 39.21, 0 29.15 C2.75 24.13, -3.33 22.42, 0 9.72 C1.93 6.69, 1.14 0.81, 9.72 0" stroke="none" stroke-width="0" fill="black"></path><path d="M9.72 0 C55.32 0.33, 97.87 -1.79, 154.55 0 M9.72 0 C59.45 2.25, 108.97 1.57, 154.55 0 M154.55 0 C161.08 1.49, 164.34 1.71, 164.27 9.72 M154.55 0 C159.42 1.64, 165.28 3.35, 164.27 9.72 M164.27 9.72 C163.24 17.7, 163.02 21.59, 164.27 29.15 M164.27 9.72 C163.62 13.7, 164.71 18.89, 164.27 29.15 M164.27 29.15 C164.7 37.19, 159.67 40.72, 154.55 38.87 M164.27 29.15 C166.42 34.15, 161.03 38.06, 154.55 38.87 M154.55 38.87 C109.99 39.17, 68.97 37.71, 9.72 38.87 M154.55 38.87 C125.66 38.82, 95.53 39.71, 9.72 38.87 M9.72 38.87 C4.49 39.4, -0.7 37.18, 0 29.15 M9.72 38.87 C5.18 39.21, 1.97 35.08, 0 29.15 M0 29.15 C1.43 21.57, 1.48 16, 0 9.72 M0 29.15 C-0.91 25.29, 0.87 20.23, 0 9.72 M0 9.72 C0.12 2.85, 4.24 1.23, 9.72 0 M0 9.72 C-0.84 1.32, 3.77 1.7, 9.72 0" stroke="#000000" stroke-width="1" fill="none"></path></g></g><g clip-path="url(#I1s3QIhxjclg-5pSUfpwp)"><g transform="translate(431.81158552168927 1769.2410684449262) rotate(0 28.190330505371094 10.630974039964315)"><text x="28.190330505371094" y="0" font-family="Virgil, Segoe UI Emoji" font-size="16.222643672993794px" fill="white" text-anchor="middle" style="white-space: pre;" direction="ltr" dominant-baseline="text-before-edge">Wasser</text></g></g><g clip-path="url(#I1s3QIhxjclg-5pSUfpwp)"><g stroke-linecap="round" transform="translate(376.6544257446403 1819.7694606774483) rotate(0 82.13502690350816 19.433865376777817)"><path d="M9.72 0 C60.06 -4.8, 113.43 -3.13, 154.55 0 C157.74 0.23, 165.2 1.41, 164.27 9.72 C162.15 11.33, 160.67 18.26, 164.27 29.15 C163.82 36.62, 158.58 37.91, 154.55 38.87 C111.95 33.01, 61.32 40.11, 9.72 38.87 C0.67 39.79, 2.09 38.55, 0 29.15 C2.2 27, -1.71 18.92, 0 9.72 C-2.43 6.58, 6.51 -1.47, 9.72 0" stroke="none" stroke-width="0" fill="black"></path><path d="M9.72 0 C59.55 0.52, 105.8 0.47, 154.55 0 M9.72 0 C67.13 0.33, 124.53 -1.18, 154.55 0 M154.55 0 C159.63 1.43, 165.15 3.33, 164.27 9.72 M154.55 0 C161.9 1.99, 166.53 1.82, 164.27 9.72 M164.27 9.72 C163.11 16.02, 162.35 23.1, 164.27 29.15 M164.27 9.72 C164.59 14.65, 163.72 18.96, 164.27 29.15 M164.27 29.15 C166.14 34.34, 161.03 38.16, 154.55 38.87 M164.27 29.15 C164.18 34.29, 162.02 36.94, 154.55 38.87 M154.55 38.87 C111.45 38.16, 72.51 38.03, 9.72 38.87 M154.55 38.87 C114.45 40.15, 72.74 40.67, 9.72 38.87 M9.72 38.87 C4.93 39.16, 1.71 35.15, 0 29.15 M9.72 38.87 C3.4 37.29, -1.75 37.17, 0 29.15 M0 29.15 C-1.89 24.33, -1.5 18.78, 0 9.72 M0 29.15 C-0.11 22.69, 0.32 17.2, 0 9.72 M0 9.72 C-0.73 1.57, 3.7 1.48, 9.72 0 M0 9.72 C-2.3 3.73, 3.84 2.1, 9.72 0" stroke="#000000" stroke-width="1" fill="none"></path></g></g><g clip-path="url(#I1s3QIhxjclg-5pSUfpwp)"><g transform="translate(436.1625681877049 1828.5723520142624) rotate(0 22.62688446044922 10.630974039964372)"><text x="22.62688446044922" y="0" font-family="Virgil, Segoe UI Emoji" font-size="16.222643672993794px" fill="white" text-anchor="middle" style="white-space: pre;" direction="ltr" dominant-baseline="text-before-edge">Strom</text></g></g><g clip-path="url(#I1s3QIhxjclg-5pSUfpwp)"><g stroke-linecap="round" transform="translate(375.81725228272626 1878.1632442467842) rotate(0 82.13502690350816 19.433865376777817)"><path d="M9.72 0 C35.67 1.58, 69.14 -0.49, 154.55 0 C157.87 -1.14, 163.26 1.17, 164.27 9.72 C163.48 15.12, 161.54 17.65, 164.27 29.15 C164.62 38.86, 157.8 41.11, 154.55 38.87 C122.68 42.39, 98.03 44.38, 9.72 38.87 C2.64 35.53, 2.21 37.56, 0 29.15 C-2.16 24.7, 3.38 12.34, 0 9.72 C1.84 5.36, 2.65 3.52, 9.72 0" stroke="none" stroke-width="0" fill="black"></path><path d="M9.72 0 C51.7 -1.1, 90.4 0.42, 154.55 0 M9.72 0 C63.24 1.82, 118.6 1.16, 154.55 0 M154.55 0 C161.78 1.73, 166.24 2.01, 164.27 9.72 M154.55 0 C162.71 -1.68, 162.79 2.04, 164.27 9.72 M164.27 9.72 C162.43 15.66, 163.19 19.91, 164.27 29.15 M164.27 9.72 C165.05 16.44, 164.14 24.07, 164.27 29.15 M164.27 29.15 C164.19 34.47, 161.89 37.19, 154.55 38.87 M164.27 29.15 C163.9 35.85, 158.98 36.59, 154.55 38.87 M154.55 38.87 C106.53 37.6, 60.66 40.45, 9.72 38.87 M154.55 38.87 C108.09 40.14, 60.8 39.75, 9.72 38.87 M9.72 38.87 C3.37 37.49, -1.53 36.96, 0 29.15 M9.72 38.87 C1.33 40.46, -1.45 33.56, 0 29.15 M0 29.15 C0.58 25.55, -1.39 18.81, 0 9.72 M0 29.15 C-0.45 22.89, 0.13 18.96, 0 9.72 M0 9.72 C-2 3.67, 3.76 1.82, 9.72 0 M0 9.72 C1.36 4.25, 4.36 -1.07, 9.72 0" stroke="#000000" stroke-width="1" fill="none"></path></g></g><g clip-path="url(#I1s3QIhxjclg-5pSUfpwp)"><g transform="translate(411.263054943076 1886.9661355835983) rotate(0 46.68922424316406 10.630974039964372)"><text x="46.68922424316406" y="0" font-family="Virgil, Segoe UI Emoji" font-size="16.222643672993794px" fill="white" text-anchor="middle" style="white-space: pre;" direction="ltr" dominant-baseline="text-before-edge">Wärmepumpe</text></g></g><g clip-path="url(#I1s3QIhxjclg-5pSUfpwp)"><g stroke-linecap="round" transform="translate(375.4294501587028 1938.4319515221748) rotate(0 82.13502690350816 19.433865376777817)"><path d="M9.72 0 C50.95 0.19, 97.49 -0.74, 154.55 0 C158.44 -3.59, 164.57 2.79, 164.27 9.72 C164.37 19.23, 160.89 24.63, 164.27 29.15 C160.75 32.09, 164.61 36.3, 154.55 38.87 C106.78 37.64, 62.41 42.91, 9.72 38.87 C6.69 36.77, 0.81 33.2, 0 29.15 C1.47 23.57, -0.89 17.3, 0 9.72 C2.14 4.55, 3.83 -1, 9.72 0" stroke="none" stroke-width="0" fill="black"></path><path d="M9.72 0 C43.95 0.04, 73.68 -1.43, 154.55 0 M9.72 0 C63.86 0.79, 118.24 -0.69, 154.55 0 M154.55 0 C162.49 -1.46, 162.99 2.19, 164.27 9.72 M154.55 0 C159.91 -2.11, 162.95 1.27, 164.27 9.72 M164.27 9.72 C165.7 15.29, 165.98 25.32, 164.27 29.15 M164.27 9.72 C164.23 13.73, 164.69 18.06, 164.27 29.15 M164.27 29.15 C163.95 35.82, 159.25 36.89, 154.55 38.87 M164.27 29.15 C164.94 35.85, 161.55 38.44, 154.55 38.87 M154.55 38.87 C123.14 39.08, 92.23 41.46, 9.72 38.87 M154.55 38.87 C109.02 37.83, 62.59 39.19, 9.72 38.87 M9.72 38.87 C1.58 40.25, -1.26 33.83, 0 29.15 M9.72 38.87 C2.52 37.25, -2.3 36.15, 0 29.15 M0 29.15 C-0.23 22.66, 1.35 13.53, 0 9.72 M0 29.15 C-1.02 25.15, 0.21 21.62, 0 9.72 M0 9.72 C1.18 4.12, 4.22 -0.93, 9.72 0 M0 9.72 C-2.26 3.02, 2.05 -2.11, 9.72 0" stroke="#000000" stroke-width="1" fill="none"></path></g></g><g clip-path="url(#I1s3QIhxjclg-5pSUfpwp)"><g transform="translate(441.35260114668927 1947.234842858989) rotate(0 16.211875915527344 10.630974039964372)"><text x="16.211875915527344" y="0" font-family="Virgil, Segoe UI Emoji" font-size="16.222643672993794px" fill="white" text-anchor="middle" style="white-space: pre;" direction="ltr" dominant-baseline="text-before-edge">Gas</text></g></g><g transform="translate(10 1328.4216185210507) rotate(0 16.155975341796875 8.75)"><text x="0" y="0" font-family="Assistant, Segoe UI Emoji" font-size="14px" fill="#999999" text-anchor="start" style="white-space: pre;" direction="ltr" dominant-baseline="text-before-edge">Tarife</text></g><rect transform="translate(10 1348.9216185210507) rotate(0 698.1601562499999 415.95703125000017)" width="1396.3203124999998px" height="831.9140625000002px" rx="8" ry="8" fill="none" stroke="#bbb" stroke-width="2"></rect><g transform="translate(34.45533720128151 10) rotate(0 338.7425231933594 134.29949190355447)"><text x="0" y="0" font-family="Virgil, Segoe UI Emoji" font-size="214.87918704568716px" fill="#2f9e44" text-anchor="start" style="white-space: pre;" direction="ltr" dominant-baseline="text-before-edge">Tarife</text></g><g stroke-linecap="round"><g transform="translate(410.45992818598825 2450.349295722453) rotate(0 132.19311432230302 61.1435851774994)" fill-rule="evenodd"><path d="M-0.63 -0.56 L-1.15 118.8 L262.39 122.45 L263.45 27.88 L230.23 0.21 L0.19 1.8" stroke="none" stroke-width="0" fill="#fff" fill-rule="evenodd"></path><path d="M0 0 C1.79 43.31, -1.18 84.15, 0 120.24 M0 0 C-1.26 26.39, -1.35 53.76, 0 120.24 M0 120.24 C94.97 119.43, 188.94 122.72, 264.39 122.29 M0 120.24 C62.26 121, 124.92 121.28, 264.39 122.29 M264.39 122.29 C262.12 95.9, 264.1 68.81, 263.7 27.33 M264.39 122.29 C265.58 95.85, 264.41 69.66, 263.7 27.33 M263.7 27.33 C250.84 17.52, 237.61 5.64, 231.59 0.74 M263.7 27.33 C251.51 16.9, 240.06 7.34, 231.59 0.74 M231.59 0.74 C183.94 2.33, 138.61 2.94, 0 0 M231.59 0.74 C148.1 -0.54, 63.37 -1.25, 0 0 M0 0 C0 0, 0 0, 0 0 M0 0 C0 0, 0 0, 0 0" stroke="#e03131" stroke-width="1" fill="none"></path></g></g><mask></mask><g transform="translate(418.4126936498251 2477.129540041922) rotate(0 117.07649993896484 34.56904922539513)"><text x="0" y="0" font-family="Virgil, Segoe UI Emoji" font-size="18.436826253544044px" fill="#000000" text-anchor="start" style="white-space: pre;" direction="ltr" dominant-baseline="text-before-edge">Depending on Button:</text><text x="0" y="23.046032816930065" font-family="Virgil, Segoe UI Emoji" font-size="18.436826253544044px" fill="#000000" text-anchor="start" style="white-space: pre;" direction="ltr" dominant-baseline="text-before-edge">Change to Wasser/Strom/</text><text x="0" y="46.09206563386013" font-family="Virgil, Segoe UI Emoji" font-size="18.436826253544044px" fill="#000000" text-anchor="start" style="white-space: pre;" direction="ltr" dominant-baseline="text-before-edge">Wärmepumpe/Gas</text></g><g stroke-linecap="round"><g transform="translate(641.376253369679 2450.665012980612) rotate(0 16.784875044352077 14.935693895398117)" fill-rule="evenodd"><path d="M0.49 -0.47 L-0.98 29.78 L32.48 28.67 L33.63 26.15 L-0.51 -0.88" stroke="none" stroke-width="0" fill="#ffc9c9" fill-rule="evenodd"></path><path d="M0 0 C-0.82 11.25, -0.61 23.31, 0 29.87 M0 0 C0.19 5.99, 0.02 12.84, 0 29.87 M0 29.87 C7.01 29.65, 14.96 29.55, 33 29.59 M0 29.87 C7.9 29.99, 15.52 29.38, 33 29.59 M33 29.59 C33.15 28.22, 33.51 27.27, 33.57 25.89 M33 29.59 C33.27 28.39, 33.46 27.15, 33.57 25.89 M33.57 25.89 C24.03 16.99, 13.75 9.24, 0 0 M33.57 25.89 C26.06 20.45, 19.94 14.51, 0 0 M0 0 C0 0, 0 0, 0 0 M0 0 C0 0, 0 0, 0 0" stroke="#e03131" stroke-width="1" fill="none"></path></g></g><mask></mask><g stroke-linecap="round"><g transform="translate(471.35529647115254 1988.8066509334633) rotate(0 24.6300048828125 227.62509155273438)"><path d="M-0.77 -0.63 C7.2 75.21, 40.45 378.34, 48.68 454.15" stroke="#e03131" stroke-width="4.5" fill="none" stroke-dasharray="8 12"></path></g><g transform="translate(471.35529647115254 1988.8066509334633) rotate(0 24.6300048828125 227.62509155273438)"><path d="M35.42 427.24 C39.13 436.39, 43.29 446.26, 48.68 454.15" stroke="#e03131" stroke-width="4.5" fill="none"></path></g><g transform="translate(471.35529647115254 1988.8066509334633) rotate(0 24.6300048828125 227.62509155273438)"><path d="M55.82 425.01 C51.9 434.87, 48.45 445.56, 48.68 454.15" stroke="#e03131" stroke-width="4.5" fill="none"></path></g></g><mask></mask></svg>