<svg version="1.1" xmlns="http://www.w3.org/2000/svg" viewBox="0 0 1416.3203124999998 2216.4968444272913" width="1416.3203124999998" height="2216.4968444272913">
  <!-- svg-source:excalidraw -->
  
  <defs>
    <style class="style-fonts">
      @font-face {
        font-family: "Virgil";
        src: url("https://file%2B.vscode-resource.vscode-cdn.net/c%3A/Users/lisa-/.vscode/extensions/pomdtr.excalidraw-editor-3.7.4/public//dist/excalidraw-assets/Virgil.woff2");
      }
      @font-face {
        font-family: "Cascadia";
        src: url("https://file%2B.vscode-resource.vscode-cdn.net/c%3A/Users/lisa-/.vscode/extensions/pomdtr.excalidraw-editor-3.7.4/public//dist/excalidraw-assets/Cascadia.woff2");
      }
      @font-face {
        font-family: "Assistant";
        src: url("https://file%2B.vscode-resource.vscode-cdn.net/c%3A/Users/lisa-/.vscode/extensions/pomdtr.excalidraw-editor-3.7.4/public//dist/excalidraw-assets/Assistant-Regular.woff2");
      }
    </style>
    <clipPath id="ZOMPN4LW1e5ieDdOtEhpd">
            <rect transform="translate(10 1374.582781927291) rotate(0 698.1601562499999 415.9570312500001)" width="1396.3203124999998" height="831.9140625000002">
          </rect>
        </clipPath>
  </defs>
  <rect x="0" y="0" width="1416.3203124999998" height="2216.4968444272913" fill="#ffffff"></rect><g clip-path="url(#ZOMPN4LW1e5ieDdOtEhpd)"><g stroke-linecap="round" transform="translate(555.6882207358758 1645.0939603898378) rotate(0 324.60499571594414 27.62105468575578)"><path d="M13.81 0 C251.83 3.1, 488.1 2.17, 635.4 0 C644.59 -3.29, 646.81 4.74, 649.21 13.81 C652.22 21.3, 648.22 30.91, 649.21 41.43 C649.97 52.95, 646.68 58.16, 635.4 55.24 C468.9 57.38, 299.14 57.83, 13.81 55.24 C5.08 57.54, 1.97 51.89, 0 41.43 C1.11 36.87, -1.05 26.22, 0 13.81 C1.32 1.39, 6.39 -1.58, 13.81 0" stroke="none" stroke-width="0" fill="#fff"></path><path d="M13.81 0 C207.85 1.14, 401.62 1, 635.4 0 M13.81 0 C146.87 0.47, 280.36 0.45, 635.4 0 M635.4 0 C644.09 0.79, 649.15 4.51, 649.21 13.81 M635.4 0 C642.58 -0.45, 650.65 3.21, 649.21 13.81 M649.21 13.81 C651.39 23.19, 651.08 33.57, 649.21 41.43 M649.21 13.81 C648.42 22.21, 649.11 29.05, 649.21 41.43 M649.21 41.43 C649.35 50.53, 644.31 54.32, 635.4 55.24 M649.21 41.43 C649.28 52.56, 642.59 55.26, 635.4 55.24 M635.4 55.24 C462.3 57.12, 290.22 57.32, 13.81 55.24 M635.4 55.24 C406.44 54.22, 178.66 54.37, 13.81 55.24 M13.81 55.24 C6.36 55.34, 1.64 51.56, 0 41.43 M13.81 55.24 C4.97 56.12, -0.88 49.74, 0 41.43 M0 41.43 C1.47 33.13, -1.18 28.46, 0 13.81 M0 41.43 C-0.06 30.73, 0.04 20.35, 0 13.81 M0 13.81 C0.81 4.97, 4.17 1.64, 13.81 0 M0 13.81 C-1.24 6.49, 3.44 1.05, 13.81 0" stroke="#1e1e1e" stroke-width="2" fill="none"></path></g></g><g clip-path="url(#ZOMPN4LW1e5ieDdOtEhpd)"><g transform="translate(560.6882207358758 1661.2150150755936) rotate(0 215.6494140625 11.5)"><text x="0" y="0" font-family="Helvetica, Segoe UI Emoji" font-size="20px" fill="#1e1e1e" text-anchor="start" style="white-space: pre;" direction="ltr" dominant-baseline="text-before-edge">  Tarif1          3.33€          12 Monate           Active</text></g></g><g clip-path="url(#ZOMPN4LW1e5ieDdOtEhpd)"><g stroke-linecap="round" transform="translate(65.62681557318137 1436.21928209495) rotate(0 640 360)"><path d="M0 0 C459.18 0, 918.36 0, 1280 0 M0 0 C451.56 0, 903.13 0, 1280 0 M1280 0 C1280 152.52, 1280 305.04, 1280 720 M1280 0 C1280 285.67, 1280 571.34, 1280 720 M1280 720 C964.75 720, 649.49 720, 0 720 M1280 720 C954.75 720, 629.49 720, 0 720 M0 720 C0 441.64, 0 163.27, 0 0 M0 720 C0 522.76, 0 325.51, 0 0" stroke="#ced4da" stroke-width="4" fill="none"></path></g></g><g clip-path="url(#ZOMPN4LW1e5ieDdOtEhpd)"><g stroke-linecap="round"><g transform="translate(343.351998918326 1437.9508075588808) rotate(0 0.67626953125 360.6884765625)"><path d="M0.94 -0.13 C0.94 120.38, 0.5 601.66, 0.49 722.01 M-0.03 -1.24 C0.3 119.01, 2.77 600.03, 2.75 720.22" stroke="#bbb" stroke-width="2" fill="none"></path></g></g><mask></mask></g><g clip-path="url(#ZOMPN4LW1e5ieDdOtEhpd)"><g transform="translate(101.59122352541453 2107.694411574263) rotate(0 29.653038024902344 11.152405278842025)"><text x="0" y="0" font-family="Helvetica, Segoe UI Emoji" font-size="19.39548744146448px" fill="#1e1e1e" text-anchor="start" style="white-space: pre;" direction="ltr" dominant-baseline="text-before-edge">Logout</text></g></g><g clip-path="url(#ZOMPN4LW1e5ieDdOtEhpd)"><g transform="translate(103.29053831157944 1465.2761785053012) rotate(0 80.01953125 103.5)"><text x="0" y="0" font-family="Helvetica, Segoe UI Emoji" font-size="20px" fill="#1e1e1e" text-anchor="start" style="white-space: pre;" direction="ltr" dominant-baseline="text-before-edge">Home</text><text x="0" y="23" font-family="Helvetica, Segoe UI Emoji" font-size="20px" fill="#1e1e1e" text-anchor="start" style="white-space: pre;" direction="ltr" dominant-baseline="text-before-edge"></text><text x="0" y="46" font-family="Helvetica, Segoe UI Emoji" font-size="20px" fill="#1e1e1e" text-anchor="start" style="white-space: pre;" direction="ltr" dominant-baseline="text-before-edge"></text><text x="0" y="69" font-family="Helvetica, Segoe UI Emoji" font-size="20px" fill="#1e1e1e" text-anchor="start" style="white-space: pre;" direction="ltr" dominant-baseline="text-before-edge">- Stadtwerke</text><text x="0" y="92" font-family="Helvetica, Segoe UI Emoji" font-size="20px" fill="#1e1e1e" text-anchor="start" style="white-space: pre;" direction="ltr" dominant-baseline="text-before-edge">    - Wasser</text><text x="0" y="115" font-family="Helvetica, Segoe UI Emoji" font-size="20px" fill="#1e1e1e" text-anchor="start" style="white-space: pre;" direction="ltr" dominant-baseline="text-before-edge">    - Strom</text><text x="0" y="138" font-family="Helvetica, Segoe UI Emoji" font-size="20px" fill="#1e1e1e" text-anchor="start" style="white-space: pre;" direction="ltr" dominant-baseline="text-before-edge">    - Wärmepumpe</text><text x="0" y="161" font-family="Helvetica, Segoe UI Emoji" font-size="20px" fill="#1e1e1e" text-anchor="start" style="white-space: pre;" direction="ltr" dominant-baseline="text-before-edge">    - Gas</text><text x="0" y="184" font-family="Helvetica, Segoe UI Emoji" font-size="20px" fill="#1e1e1e" text-anchor="start" style="white-space: pre;" direction="ltr" dominant-baseline="text-before-edge">    - Rechnungen</text></g></g><g clip-path="url(#ZOMPN4LW1e5ieDdOtEhpd)"><g stroke-linecap="round" transform="translate(338.6799678387797 1437.8164369943624) rotate(0 503.00695269974335 360.0109060460612)"><path d="M0 0 C264.07 1.01, 527.47 0.33, 1006.01 0 M1006.01 0 C1008.35 202.49, 1008.07 404.35, 1006.01 720.02 M1006.01 720.02 C742.87 718.2, 479.79 718.5, 0 720.02 M0 720.02 C-0.39 472.98, -0.57 225.67, 0 0" stroke="#bbb" stroke-width="2.5" fill="none" stroke-dasharray="1.5 8"></path></g></g><g clip-path="url(#ZOMPN4LW1e5ieDdOtEhpd)"><g stroke-linecap="round"><g transform="translate(152.61630156379033 1910.8720651977326) rotate(0 33.98115703398253 0.29539299541579567)"><path d="M-0.04 -0.06 C11.17 -0.08, 55.45 0.37, 66.9 0.35 M-1.51 -1.13 C10.08 -1.01, 57.42 1.44, 69.06 1.77" stroke="#1e1e1e" stroke-width="2" fill="none"></path></g></g><mask></mask></g><g clip-path="url(#ZOMPN4LW1e5ieDdOtEhpd)"><g transform="translate(73.81189750377962 1736.5893390227295) rotate(0 48.91015625 9.200000000000045)"><text x="0" y="0" font-family="Helvetica, Segoe UI Emoji" font-size="16px" fill="#bbb" text-anchor="start" style="white-space: pre;" direction="ltr" dominant-baseline="text-before-edge">Admin Center</text></g></g><g clip-path="url(#ZOMPN4LW1e5ieDdOtEhpd)"><g stroke-linecap="round"><g transform="translate(67.79888022122759 1759.3412963080768) rotate(0 141.61061985371225 -0.5230918750872888)"><path d="M0 0 C59.08 -0.54, 121.33 -1.3, 283.22 -1.05" stroke="#bbb" stroke-width="4.5" fill="none" stroke-dasharray="1.5 10"></path></g></g><mask></mask></g><g clip-path="url(#ZOMPN4LW1e5ieDdOtEhpd)"><g transform="translate(97.65443871940079 1771.6061421042925) rotate(0 91.1328125 115)"><text x="0" y="0" font-family="Helvetica, Segoe UI Emoji" font-size="20px" fill="#1e1e1e" text-anchor="start" style="white-space: pre;" direction="ltr" dominant-baseline="text-before-edge">General</text><text x="0" y="23" font-family="Helvetica, Segoe UI Emoji" font-size="20px" fill="#1e1e1e" text-anchor="start" style="white-space: pre;" direction="ltr" dominant-baseline="text-before-edge"></text><text x="0" y="46" font-family="Helvetica, Segoe UI Emoji" font-size="20px" fill="#1e1e1e" text-anchor="start" style="white-space: pre;" direction="ltr" dominant-baseline="text-before-edge"></text><text x="0" y="69" font-family="Helvetica, Segoe UI Emoji" font-size="20px" fill="#1e1e1e" text-anchor="start" style="white-space: pre;" direction="ltr" dominant-baseline="text-before-edge">- Stadtwerke</text><text x="0" y="92" font-family="Helvetica, Segoe UI Emoji" font-size="20px" fill="#1e1e1e" text-anchor="start" style="white-space: pre;" direction="ltr" dominant-baseline="text-before-edge">    - Tarife</text><text x="0" y="115" font-family="Helvetica, Segoe UI Emoji" font-size="20px" fill="#1e1e1e" text-anchor="start" style="white-space: pre;" direction="ltr" dominant-baseline="text-before-edge">        - Wasser</text><text x="0" y="138" font-family="Helvetica, Segoe UI Emoji" font-size="20px" fill="#1e1e1e" text-anchor="start" style="white-space: pre;" direction="ltr" dominant-baseline="text-before-edge">        - Strom</text><text x="0" y="161" font-family="Helvetica, Segoe UI Emoji" font-size="20px" fill="#1e1e1e" text-anchor="start" style="white-space: pre;" direction="ltr" dominant-baseline="text-before-edge">        - Wärmepumpe</text><text x="0" y="184" font-family="Helvetica, Segoe UI Emoji" font-size="20px" fill="#1e1e1e" text-anchor="start" style="white-space: pre;" direction="ltr" dominant-baseline="text-before-edge">        - Gas</text><text x="0" y="207" font-family="Helvetica, Segoe UI Emoji" font-size="20px" fill="#1e1e1e" text-anchor="start" style="white-space: pre;" direction="ltr" dominant-baseline="text-before-edge">    - Kunden</text></g></g><g clip-path="url(#ZOMPN4LW1e5ieDdOtEhpd)"><g stroke-linecap="round"><g transform="translate(67.87479065908701 1996.5365782951844) rotate(0 141.61061985371225 -0.5230918750872888)"><path d="M0 0 C105.52 -1.66, 209.34 -1.87, 283.22 -1.05" stroke="#bbb" stroke-width="4.5" fill="none" stroke-dasharray="1.5 10"></path></g></g><mask></mask></g><g clip-path="url(#ZOMPN4LW1e5ieDdOtEhpd)"><g stroke-linecap="round"><g transform="translate(370.3149178407075 1744.4728275755933) rotate(0 474.8784722222226 -2.003038194444457)"><path d="M0 0 C158.29 -0.67, 791.46 -3.34, 949.76 -4.01" stroke="#bbb" stroke-width="2.5" fill="none" stroke-dasharray="1.5 8"></path></g></g><mask></mask></g><g clip-path="url(#ZOMPN4LW1e5ieDdOtEhpd)"><g stroke-linecap="round" transform="translate(536.5910544198377 1469.542515131801) rotate(359.9296265924723 373.66296604115723 120.0326262729177)"><path d="M0 0 C195.32 0.07, 390.7 0.38, 747.33 0 M0 0 C256.39 2.07, 512.66 1.91, 747.33 0 M747.33 0 C749.01 72.4, 749.94 146.99, 747.33 240.07 M747.33 0 C746.56 53.36, 746.63 105.37, 747.33 240.07 M747.33 240.07 C596.88 243.69, 447.4 243.64, 0 240.07 M747.33 240.07 C488.61 241.05, 229.98 241.16, 0 240.07 M0 240.07 C-2.45 182.25, -0.28 123.6, 0 0 M0 240.07 C0.16 146.39, 0.49 53.97, 0 0" stroke="#000000" stroke-width="1" fill="none"></path></g></g><g clip-path="url(#ZOMPN4LW1e5ieDdOtEhpd)"><g stroke-linecap="round" transform="translate(1238.0552117497718 1490.0450959347436) rotate(359.9296265924723 15.44090099337484 103.30429673896066)"><path d="M0 0 C8.13 -0.79, 17.72 0.6, 30.88 0 M0 0 C6.96 -0.44, 14.24 0.85, 30.88 0 M30.88 0 C31.9 45.45, 29.47 87.21, 30.88 206.61 M30.88 0 C30.69 54.92, 29.82 109.48, 30.88 206.61 M30.88 206.61 C18.7 208.52, 7.24 207.19, 0 206.61 M30.88 206.61 C19.86 206.36, 9.42 207.21, 0 206.61 M0 206.61 C2.35 161.03, 2.68 115.55, 0 0 M0 206.61 C0.33 154.98, -0.23 103.74, 0 0" stroke="#000000" stroke-width="1" fill="none"></path></g></g><g clip-path="url(#ZOMPN4LW1e5ieDdOtEhpd)"><g stroke-linecap="round" transform="translate(1241.594366065725 1500.4243222660466) rotate(359.9296265924723 9.457430284254315 81.77208864368265)"><path d="M-0.5 0.45 L19.73 0.57 L18.27 163.97 L0.16 163.19" stroke="none" stroke-width="0" fill="black"></path><path d="M0 0 C4.35 0.2, 7.22 0.12, 18.91 0 M0 0 C5.58 0.44, 10.73 0.05, 18.91 0 M18.91 0 C18.58 45.03, 19.05 90.65, 18.91 163.54 M18.91 0 C18.4 59.67, 19.39 119.99, 18.91 163.54 M18.91 163.54 C12.02 163.77, 4.61 163.26, 0 163.54 M18.91 163.54 C13.71 163.87, 8.67 163.24, 0 163.54 M0 163.54 C0.31 110.84, -1.06 58.3, 0 0 M0 163.54 C-0.44 125.77, -0.6 87.6, 0 0" stroke="#000000" stroke-width="1" fill="none"></path></g></g><g clip-path="url(#ZOMPN4LW1e5ieDdOtEhpd)"><g stroke-linecap="round" transform="translate(554.5866585842996 1497.5585457887266) rotate(0 324.60499571594414 27.62105468575578)"><path d="M13.81 0 C221.16 2.34, 431.44 1.48, 635.4 0 C645.27 1.32, 646 6.39, 649.21 13.81 C647.69 18.92, 646.94 25.03, 649.21 41.43 C650.85 53.51, 645.42 55.14, 635.4 55.24 C422.57 52.35, 212.17 52.31, 13.81 55.24 C1.66 58.62, 3.05 50.87, 0 41.43 C-1.49 30.22, -3.36 21.77, 0 13.81 C-0.16 6.15, 2.06 -1.15, 13.81 0" stroke="none" stroke-width="0" fill="#fff"></path><path d="M13.81 0 C166.34 -0.33, 319.95 -0.51, 635.4 0 M13.81 0 C171.41 -2.07, 329.62 -1.85, 635.4 0 M635.4 0 C646.34 -1.6, 648.53 3.94, 649.21 13.81 M635.4 0 C644.39 1.56, 649.16 4, 649.21 13.81 M649.21 13.81 C647.81 21.11, 649.05 26.54, 649.21 41.43 M649.21 13.81 C648.87 22.97, 648.68 32.79, 649.21 41.43 M649.21 41.43 C648.06 52.08, 643.01 54.02, 635.4 55.24 M649.21 41.43 C649.71 52.24, 644.45 57.26, 635.4 55.24 M635.4 55.24 C452.98 55.61, 271.77 55.12, 13.81 55.24 M635.4 55.24 C397.85 57.46, 161.04 57.5, 13.81 55.24 M13.81 55.24 C3.32 56.1, 0.32 49.93, 0 41.43 M13.81 55.24 C3.48 55.23, -2.1 49.11, 0 41.43 M0 41.43 C0.1 34.94, 0.54 24.33, 0 13.81 M0 41.43 C0.52 31.25, -0.36 19.75, 0 13.81 M0 13.81 C1.44 6.6, 3.11 -0.55, 13.81 0 M0 13.81 C-1 4.91, 6.07 1.26, 13.81 0" stroke="#1e1e1e" stroke-width="2" fill="none"></path></g></g><g clip-path="url(#ZOMPN4LW1e5ieDdOtEhpd)"><g transform="translate(559.5866585842996 1513.6796004744824) rotate(0 215.6494140625 11.5)"><text x="0" y="0" font-family="Helvetica, Segoe UI Emoji" font-size="20px" fill="#1e1e1e" text-anchor="start" style="white-space: pre;" direction="ltr" dominant-baseline="text-before-edge">  Tarif1          3.33€          12 Monate           Active</text></g></g><g clip-path="url(#ZOMPN4LW1e5ieDdOtEhpd)"><g stroke-linecap="round" transform="translate(554.4121790692079 1575.9620159453932) rotate(0 324.60499571594414 27.62105468575578)"><path d="M13.81 0 C215.82 2.1, 416.01 2.29, 635.4 0 C643.03 -0.88, 646.41 3.21, 649.21 13.81 C650.55 23.45, 649.73 27.26, 649.21 41.43 C650.7 49.17, 641.33 53.82, 635.4 55.24 C396.77 60.13, 161.71 58.88, 13.81 55.24 C7.68 55.14, 2.21 49.14, 0 41.43 C0.31 35.12, -2.08 24.57, 0 13.81 C-0.96 4.43, 3.44 2.39, 13.81 0" stroke="none" stroke-width="0" fill="#fff"></path><path d="M13.81 0 C204.17 0.39, 395.93 -0.33, 635.4 0 M13.81 0 C201.11 -1.73, 387.58 -1.54, 635.4 0 M635.4 0 C644.42 1.35, 649.17 4.08, 649.21 13.81 M635.4 0 C642.32 -2.15, 651.46 3.29, 649.21 13.81 M649.21 13.81 C650.14 24.84, 649.99 34.47, 649.21 41.43 M649.21 13.81 C648.48 21.73, 648.25 27.61, 649.21 41.43 M649.21 41.43 C649.65 52.03, 644.47 57, 635.4 55.24 M649.21 41.43 C649.04 49.5, 644.65 53.71, 635.4 55.24 M635.4 55.24 C424.25 54.27, 212.45 54.3, 13.81 55.24 M635.4 55.24 C420.39 56.82, 205.96 56.51, 13.81 55.24 M13.81 55.24 C3.63 55.23, -1.83 49.31, 0 41.43 M13.81 55.24 C4.69 53.99, -1.95 50.59, 0 41.43 M0 41.43 C1.91 30.93, 1.23 20.74, 0 13.81 M0 41.43 C0.8 31.91, -0.66 20.12, 0 13.81 M0 13.81 C-0.87 4.87, 5.88 1.1, 13.81 0 M0 13.81 C0.8 4.31, 3.58 -1.26, 13.81 0" stroke="#1e1e1e" stroke-width="2" fill="none"></path></g></g><g clip-path="url(#ZOMPN4LW1e5ieDdOtEhpd)"><g transform="translate(559.4121790692079 1592.083070631149) rotate(0 215.6494140625 11.5)"><text x="0" y="0" font-family="Helvetica, Segoe UI Emoji" font-size="20px" fill="#1e1e1e" text-anchor="start" style="white-space: pre;" direction="ltr" dominant-baseline="text-before-edge">  Tarif1          3.33€          12 Monate           Active</text></g></g><g clip-path="url(#ZOMPN4LW1e5ieDdOtEhpd)"><g stroke-linecap="round" transform="translate(1042.6195905218992 1507.0432727437887) rotate(0 73.93466188158709 16.94261023537905)"><path d="M8.47 0 C52.53 0, 96.6 0, 139.4 0 C145.05 0, 147.87 2.82, 147.87 8.47 C147.87 14.9, 147.87 21.34, 147.87 25.41 C147.87 31.06, 145.05 33.89, 139.4 33.89 C87.84 33.89, 36.29 33.89, 8.47 33.89 C2.82 33.89, 0 31.06, 0 25.41 C0 19.6, 0 13.8, 0 8.47 C0 2.82, 2.82 0, 8.47 0" stroke="none" stroke-width="0" fill="black"></path><path d="M8.47 0 C48.16 0, 87.85 0, 139.4 0 M8.47 0 C37.26 0, 66.06 0, 139.4 0 M139.4 0 C145.05 0, 147.87 2.82, 147.87 8.47 M139.4 0 C145.05 0, 147.87 2.82, 147.87 8.47 M147.87 8.47 C147.87 13.82, 147.87 19.17, 147.87 25.41 M147.87 8.47 C147.87 14.77, 147.87 21.07, 147.87 25.41 M147.87 25.41 C147.87 31.06, 145.05 33.89, 139.4 33.89 M147.87 25.41 C147.87 31.06, 145.05 33.89, 139.4 33.89 M139.4 33.89 C107.19 33.89, 74.98 33.89, 8.47 33.89 M139.4 33.89 C94.48 33.89, 49.57 33.89, 8.47 33.89 M8.47 33.89 C2.82 33.89, 0 31.06, 0 25.41 M8.47 33.89 C2.82 33.89, 0 31.06, 0 25.41 M0 25.41 C0 19.97, 0 14.53, 0 8.47 M0 25.41 C0 18.64, 0 11.87, 0 8.47 M0 8.47 C0 2.82, 2.82 0, 8.47 0 M0 8.47 C0 2.82, 2.82 0, 8.47 0" stroke="white" stroke-width="2" fill="none"></path></g></g><g clip-path="url(#ZOMPN4LW1e5ieDdOtEhpd)"><g transform="translate(1077.8589399034863 1514.7858829791678) rotate(0 38.6953125 9.199999999999989)"><text x="38.6953125" y="0" font-family="Helvetica, Segoe UI Emoji" font-size="16px" fill="white" text-anchor="middle" style="white-space: pre;" direction="ltr" dominant-baseline="text-before-edge">Bearbeiten</text></g></g><g clip-path="url(#ZOMPN4LW1e5ieDdOtEhpd)"><g stroke-linecap="round" transform="translate(1042.1571656813321 1588.6760506735475) rotate(0 73.93466188158709 16.94261023537905)"><path d="M8.47 0 C44.55 0, 80.63 0, 139.4 0 C145.05 0, 147.87 2.82, 147.87 8.47 C147.87 12.86, 147.87 17.26, 147.87 25.41 C147.87 31.06, 145.05 33.89, 139.4 33.89 C100.49 33.89, 61.58 33.89, 8.47 33.89 C2.82 33.89, 0 31.06, 0 25.41 C0 20.41, 0 15.41, 0 8.47 C0 2.82, 2.82 0, 8.47 0" stroke="none" stroke-width="0" fill="black"></path><path d="M8.47 0 C44.8 0, 81.12 0, 139.4 0 M8.47 0 C56.61 0, 104.76 0, 139.4 0 M139.4 0 C145.05 0, 147.87 2.82, 147.87 8.47 M139.4 0 C145.05 0, 147.87 2.82, 147.87 8.47 M147.87 8.47 C147.87 12.58, 147.87 16.69, 147.87 25.41 M147.87 8.47 C147.87 14.73, 147.87 20.99, 147.87 25.41 M147.87 25.41 C147.87 31.06, 145.05 33.89, 139.4 33.89 M147.87 25.41 C147.87 31.06, 145.05 33.89, 139.4 33.89 M139.4 33.89 C89.39 33.89, 39.39 33.89, 8.47 33.89 M139.4 33.89 C100.2 33.89, 60.99 33.89, 8.47 33.89 M8.47 33.89 C2.82 33.89, 0 31.06, 0 25.41 M8.47 33.89 C2.82 33.89, 0 31.06, 0 25.41 M0 25.41 C0 20.84, 0 16.26, 0 8.47 M0 25.41 C0 20.11, 0 14.8, 0 8.47 M0 8.47 C0 2.82, 2.82 0, 8.47 0 M0 8.47 C0 2.82, 2.82 0, 8.47 0" stroke="white" stroke-width="2" fill="none"></path></g></g><g clip-path="url(#ZOMPN4LW1e5ieDdOtEhpd)"><g transform="translate(1077.3965150629192 1596.4186609089265) rotate(0 38.6953125 9.199999999999989)"><text x="38.6953125" y="0" font-family="Helvetica, Segoe UI Emoji" font-size="16px" fill="white" text-anchor="middle" style="white-space: pre;" direction="ltr" dominant-baseline="text-before-edge">Bearbeiten</text></g></g><g clip-path="url(#ZOMPN4LW1e5ieDdOtEhpd)"><g stroke-linecap="round" transform="translate(1045.3385892924525 1655.4599048402144) rotate(0 73.93466188158709 16.94261023537905)"><path d="M8.47 0 C39.92 0, 71.36 0, 139.4 0 C145.05 0, 147.87 2.82, 147.87 8.47 C147.87 15.08, 147.87 21.69, 147.87 25.41 C147.87 31.06, 145.05 33.89, 139.4 33.89 C112.37 33.89, 85.35 33.89, 8.47 33.89 C2.82 33.89, 0 31.06, 0 25.41 C0 18.95, 0 12.48, 0 8.47 C0 2.82, 2.82 0, 8.47 0" stroke="none" stroke-width="0" fill="black"></path><path d="M8.47 0 C43.27 0, 78.08 0, 139.4 0 M8.47 0 C35.51 0, 62.56 0, 139.4 0 M139.4 0 C145.05 0, 147.87 2.82, 147.87 8.47 M139.4 0 C145.05 0, 147.87 2.82, 147.87 8.47 M147.87 8.47 C147.87 12.2, 147.87 15.93, 147.87 25.41 M147.87 8.47 C147.87 12.72, 147.87 16.97, 147.87 25.41 M147.87 25.41 C147.87 31.06, 145.05 33.89, 139.4 33.89 M147.87 25.41 C147.87 31.06, 145.05 33.89, 139.4 33.89 M139.4 33.89 C98.05 33.89, 56.71 33.89, 8.47 33.89 M139.4 33.89 C107.22 33.89, 75.04 33.89, 8.47 33.89 M8.47 33.89 C2.82 33.89, 0 31.06, 0 25.41 M8.47 33.89 C2.82 33.89, 0 31.06, 0 25.41 M0 25.41 C0 21.59, 0 17.77, 0 8.47 M0 25.41 C0 20.54, 0 15.67, 0 8.47 M0 8.47 C0 2.82, 2.82 0, 8.47 0 M0 8.47 C0 2.82, 2.82 0, 8.47 0" stroke="white" stroke-width="2" fill="none"></path></g></g><g clip-path="url(#ZOMPN4LW1e5ieDdOtEhpd)"><g transform="translate(1080.5779386740396 1663.2025150755935) rotate(0 38.6953125 9.199999999999989)"><text x="38.6953125" y="0" font-family="Helvetica, Segoe UI Emoji" font-size="16px" fill="white" text-anchor="middle" style="white-space: pre;" direction="ltr" dominant-baseline="text-before-edge">Bearbeiten</text></g></g><g clip-path="url(#ZOMPN4LW1e5ieDdOtEhpd)"><g stroke-linecap="round" transform="translate(357.73442262578465 1502.0007034513253) rotate(0 73.93466188158703 19.622731763156764)"><path d="M9.81 0 C51.19 0, 92.57 0, 138.06 0 C144.6 0, 147.87 3.27, 147.87 9.81 C147.87 17.36, 147.87 24.91, 147.87 29.43 C147.87 35.98, 144.6 39.25, 138.06 39.25 C108.65 39.25, 79.23 39.25, 9.81 39.25 C3.27 39.25, 0 35.98, 0 29.43 C0 22.58, 0 15.72, 0 9.81 C0 3.27, 3.27 0, 9.81 0" stroke="none" stroke-width="0" fill="black"></path><path d="M9.81 0 C48.03 0, 86.26 0, 138.06 0 M9.81 0 C48.94 0, 88.06 0, 138.06 0 M138.06 0 C144.6 0, 147.87 3.27, 147.87 9.81 M138.06 0 C144.6 0, 147.87 3.27, 147.87 9.81 M147.87 9.81 C147.87 15.57, 147.87 21.33, 147.87 29.43 M147.87 9.81 C147.87 16.06, 147.87 22.31, 147.87 29.43 M147.87 29.43 C147.87 35.98, 144.6 39.25, 138.06 39.25 M147.87 29.43 C147.87 35.98, 144.6 39.25, 138.06 39.25 M138.06 39.25 C111.3 39.25, 84.54 39.25, 9.81 39.25 M138.06 39.25 C97.09 39.25, 56.11 39.25, 9.81 39.25 M9.81 39.25 C3.27 39.25, 0 35.98, 0 29.43 M9.81 39.25 C3.27 39.25, 0 35.98, 0 29.43 M0 29.43 C0 22.29, 0 15.15, 0 9.81 M0 29.43 C0 21.7, 0 13.97, 0 9.81 M0 9.81 C0 3.27, 3.27 0, 9.81 0 M0 9.81 C0 3.27, 3.27 0, 9.81 0" stroke="white" stroke-width="2" fill="none"></path></g></g><g clip-path="url(#ZOMPN4LW1e5ieDdOtEhpd)"><g transform="translate(375.6261157573717 1512.4234352144822) rotate(0 56.04296875 9.199999999999989)"><text x="56.04296875" y="0" font-family="Helvetica, Segoe UI Emoji" font-size="16px" fill="white" text-anchor="middle" style="white-space: pre;" direction="ltr" dominant-baseline="text-before-edge">Neu hinzufügen</text></g></g><g clip-path="url(#ZOMPN4LW1e5ieDdOtEhpd)"><g stroke-linecap="round" transform="translate(355.19101984801455 1573.7867277568812) rotate(0 73.93466188158703 19.622731763156764)"><path d="M9.81 0 C36.62 0, 63.43 0, 138.06 0 C144.6 0, 147.87 3.27, 147.87 9.81 C147.87 16.9, 147.87 24, 147.87 29.43 C147.87 35.98, 144.6 39.25, 138.06 39.25 C103.73 39.25, 69.4 39.25, 9.81 39.25 C3.27 39.25, 0 35.98, 0 29.43 C0 24.5, 0 19.57, 0 9.81 C0 3.27, 3.27 0, 9.81 0" stroke="none" stroke-width="0" fill="black"></path><path d="M9.81 0 C60.81 0, 111.81 0, 138.06 0 M9.81 0 C53.18 0, 96.56 0, 138.06 0 M138.06 0 C144.6 0, 147.87 3.27, 147.87 9.81 M138.06 0 C144.6 0, 147.87 3.27, 147.87 9.81 M147.87 9.81 C147.87 15.74, 147.87 21.66, 147.87 29.43 M147.87 9.81 C147.87 17.3, 147.87 24.8, 147.87 29.43 M147.87 29.43 C147.87 35.98, 144.6 39.25, 138.06 39.25 M147.87 29.43 C147.87 35.98, 144.6 39.25, 138.06 39.25 M138.06 39.25 C110.45 39.25, 82.85 39.25, 9.81 39.25 M138.06 39.25 C91.35 39.25, 44.64 39.25, 9.81 39.25 M9.81 39.25 C3.27 39.25, 0 35.98, 0 29.43 M9.81 39.25 C3.27 39.25, 0 35.98, 0 29.43 M0 29.43 C0 24.42, 0 19.4, 0 9.81 M0 29.43 C0 25.3, 0 21.16, 0 9.81 M0 9.81 C0 3.27, 3.27 0, 9.81 0 M0 9.81 C0 3.27, 3.27 0, 9.81 0" stroke="white" stroke-width="2" fill="none"></path></g></g><g clip-path="url(#ZOMPN4LW1e5ieDdOtEhpd)"><g transform="translate(393.1022442296016 1584.2094595200379) rotate(0 36.0234375 9.199999999999989)"><text x="36.0234375" y="0" font-family="Helvetica, Segoe UI Emoji" font-size="16px" fill="white" text-anchor="middle" style="white-space: pre;" direction="ltr" dominant-baseline="text-before-edge">Speichern</text></g></g><g clip-path="url(#ZOMPN4LW1e5ieDdOtEhpd)"><g stroke-linecap="round" transform="translate(358.2639365146824 1642.0636374791034) rotate(0 73.93466188158703 19.622731763156764)"><path d="M9.81 0 C58.43 0, 107.05 0, 138.06 0 C144.6 0, 147.87 3.27, 147.87 9.81 C147.87 16.59, 147.87 23.38, 147.87 29.43 C147.87 35.98, 144.6 39.25, 138.06 39.25 C110.26 39.25, 82.46 39.25, 9.81 39.25 C3.27 39.25, 0 35.98, 0 29.43 C0 24.59, 0 19.75, 0 9.81 C0 3.27, 3.27 0, 9.81 0" stroke="none" stroke-width="0" fill="black"></path><path d="M9.81 0 C58.79 0, 107.77 0, 138.06 0 M9.81 0 C46.63 0, 83.44 0, 138.06 0 M138.06 0 C144.6 0, 147.87 3.27, 147.87 9.81 M138.06 0 C144.6 0, 147.87 3.27, 147.87 9.81 M147.87 9.81 C147.87 15.27, 147.87 20.74, 147.87 29.43 M147.87 9.81 C147.87 16.81, 147.87 23.81, 147.87 29.43 M147.87 29.43 C147.87 35.98, 144.6 39.25, 138.06 39.25 M147.87 29.43 C147.87 35.98, 144.6 39.25, 138.06 39.25 M138.06 39.25 C101.61 39.25, 65.17 39.25, 9.81 39.25 M138.06 39.25 C95.75 39.25, 53.45 39.25, 9.81 39.25 M9.81 39.25 C3.27 39.25, 0 35.98, 0 29.43 M9.81 39.25 C3.27 39.25, 0 35.98, 0 29.43 M0 29.43 C0 24.24, 0 19.04, 0 9.81 M0 29.43 C0 25.07, 0 20.72, 0 9.81 M0 9.81 C0 3.27, 3.27 0, 9.81 0 M0 9.81 C0 3.27, 3.27 0, 9.81 0" stroke="white" stroke-width="2" fill="none"></path></g></g><g clip-path="url(#ZOMPN4LW1e5ieDdOtEhpd)"><g transform="translate(401.95250464626946 1652.48636924226) rotate(0 30.24609375 9.199999999999989)"><text x="30.24609375" y="0" font-family="Helvetica, Segoe UI Emoji" font-size="16px" fill="white" text-anchor="middle" style="white-space: pre;" direction="ltr" dominant-baseline="text-before-edge">Löschen</text></g></g><g clip-path="url(#ZOMPN4LW1e5ieDdOtEhpd)"><g stroke-linecap="round" transform="translate(379.13807772603104 1795.029900308749) rotate(0 97.65182665281498 16.66276041666663)"><path d="M0 0 C50.89 -0.03, 103.73 -0.48, 195.3 0 M0 0 C46.63 -0.48, 93.32 -1.85, 195.3 0 M195.3 0 C195.45 9.63, 196.72 19.04, 195.3 33.33 M195.3 0 C195.95 13.29, 194.49 25.88, 195.3 33.33 M195.3 33.33 C133.62 30.55, 70.62 32.45, 0 33.33 M195.3 33.33 C148.26 33.48, 99.15 34.26, 0 33.33 M0 33.33 C1.4 22.03, 0.38 13.36, 0 0 M0 33.33 C-0.19 20.14, 0.89 7.24, 0 0" stroke="#000000" stroke-width="1" fill="none"></path></g></g><g clip-path="url(#ZOMPN4LW1e5ieDdOtEhpd)"><g transform="translate(381.1419020322428 1769.0864621502562) rotate(0 24.90998077392578 12.478556469662749)"><text x="0" y="0" font-family="Virgil, Segoe UI Emoji" font-size="20px" fill="#1e1e1e" text-anchor="start" style="white-space: pre;" direction="ltr" dominant-baseline="text-before-edge">Name</text></g></g><g clip-path="url(#ZOMPN4LW1e5ieDdOtEhpd)"><g stroke-linecap="round" transform="translate(661.7930060020481 1784.8434994803742) rotate(0 314.23465654228403 154.87757109507095)"><path d="M0 0 C151.82 2.18, 305.17 1.96, 628.47 0 M0 0 C243.8 0.97, 487.75 1.31, 628.47 0 M628.47 0 C631.46 85.5, 630.94 173.63, 628.47 309.76 M628.47 0 C627.16 110.2, 626.69 220.91, 628.47 309.76 M628.47 309.76 C496.91 309.18, 366.2 310.62, 0 309.76 M628.47 309.76 C427.77 312.47, 227.13 312.54, 0 309.76 M0 309.76 C0.76 225, -1.06 141.76, 0 0 M0 309.76 C-1.17 212.64, -1.74 115.3, 0 0" stroke="#000000" stroke-width="1" fill="none"></path></g></g><g clip-path="url(#ZOMPN4LW1e5ieDdOtEhpd)"><g stroke-linecap="round" transform="translate(1259.2692540208955 1800.5803026425626) rotate(0 8.560534753823049 135.14638269102943)"><path d="M0 0 C4.36 -0.08, 8.29 -0.08, 17.12 0 M0 0 C4.47 0.14, 8.49 0.41, 17.12 0 M17.12 0 C18.34 67.13, 18.43 132.48, 17.12 270.29 M17.12 0 C17.1 92.72, 16.93 185.19, 17.12 270.29 M17.12 270.29 C11.9 271.04, 6.88 270.08, 0 270.29 M17.12 270.29 C10.55 270.69, 3.37 270.48, 0 270.29 M0 270.29 C-1.27 169.45, -0.95 69.79, 0 0 M0 270.29 C-0.54 174.17, -0.27 78.84, 0 0" stroke="#000000" stroke-width="1" fill="none"></path></g></g><g clip-path="url(#ZOMPN4LW1e5ieDdOtEhpd)"><g stroke-linecap="round" transform="translate(1262.07258709304 1802.0872372703077) rotate(0 6.357253804493553 35.32018470933383)"><path d="M0.37 -0.89 L13.21 -0.44 L12.47 69.86 L-0.39 70.09" stroke="none" stroke-width="0" fill="black"></path><path d="M0 0 C4.65 -0.04, 7.87 0.02, 12.71 0 M0 0 C2.9 0.25, 5.76 0.25, 12.71 0 M12.71 0 C13.44 16.98, 13.31 35.41, 12.71 70.64 M12.71 0 C12.09 18.35, 12.56 37.09, 12.71 70.64 M12.71 70.64 C10.1 70.6, 7.86 70.84, 0 70.64 M12.71 70.64 C7.99 70.79, 3.68 71.01, 0 70.64 M0 70.64 C0.23 55.35, 0.65 39.12, 0 0 M0 70.64 C0.28 50.81, -0.02 30.13, 0 0" stroke="#000000" stroke-width="1" fill="none"></path></g></g><g clip-path="url(#ZOMPN4LW1e5ieDdOtEhpd)"><g transform="translate(685.2354231072568 1798.3936575191544) rotate(0 48.42396545410156 9.982845175730176)"><text x="0" y="0" font-family="Virgil, Segoe UI Emoji" font-size="16px" fill="#ced4da" text-anchor="start" style="white-space: pre;" direction="ltr" dominant-baseline="text-before-edge">Beschreibung</text></g></g><g clip-path="url(#ZOMPN4LW1e5ieDdOtEhpd)"><g stroke-linecap="round" transform="translate(382.43017842047993 1880.1294215991359) rotate(0 97.65182665281498 16.66276041666663)"><path d="M0 0 C55.82 0.78, 114.67 -0.47, 195.3 0 M0 0 C74.07 -1.14, 149.97 -1.03, 195.3 0 M195.3 0 C194.74 6.88, 195.44 13.89, 195.3 33.33 M195.3 0 C194.47 7.75, 196.27 15.75, 195.3 33.33 M195.3 33.33 C141.09 34.89, 85.92 33.14, 0 33.33 M195.3 33.33 C130.13 35, 66.01 35.4, 0 33.33 M0 33.33 C-0.43 20.31, -1.28 9.56, 0 0 M0 33.33 C0.48 19.31, 0.61 6.63, 0 0" stroke="#000000" stroke-width="1" fill="none"></path></g></g><g clip-path="url(#ZOMPN4LW1e5ieDdOtEhpd)"><g transform="translate(384.43400272668805 1854.185983440643) rotate(0 26.059974670410156 12.478556469662749)"><text x="0" y="0" font-family="Virgil, Segoe UI Emoji" font-size="20px" fill="#1e1e1e" text-anchor="start" style="white-space: pre;" direction="ltr" dominant-baseline="text-before-edge">Tarif</text></g></g><g clip-path="url(#ZOMPN4LW1e5ieDdOtEhpd)"><g stroke-linecap="round" transform="translate(383.2157686982573 1970.828206321358) rotate(0 97.65182665281498 16.66276041666663)"><path d="M0 0 C68.19 -0.66, 134.73 -0.59, 195.3 0 M0 0 C66.83 -0.67, 135.11 -1.46, 195.3 0 M195.3 0 C193.97 8.45, 194.22 15.05, 195.3 33.33 M195.3 0 C195.46 10.9, 195.83 20.49, 195.3 33.33 M195.3 33.33 C126.04 34.18, 57.58 31.25, 0 33.33 M195.3 33.33 C142.7 34.13, 89.16 33.46, 0 33.33 M0 33.33 C2.06 24.1, 0.55 17.02, 0 0 M0 33.33 C-0.41 25.52, -0.55 18.73, 0 0" stroke="#000000" stroke-width="1" fill="none"></path></g></g><g clip-path="url(#ZOMPN4LW1e5ieDdOtEhpd)"><g transform="translate(385.2195930044654 1944.8847681628652) rotate(0 64.62993621826172 12.478556469662749)"><text x="0" y="0" font-family="Virgil, Segoe UI Emoji" font-size="20px" fill="#1e1e1e" text-anchor="start" style="white-space: pre;" direction="ltr" dominant-baseline="text-before-edge">Preisgarantie</text></g></g><g clip-path="url(#ZOMPN4LW1e5ieDdOtEhpd)"><g stroke-linecap="round" transform="translate(388.44930639976883 2055.7865964534176) rotate(0 6.223614017363445 6.223614017363502)"><path d="M7.7 0.21 C8.88 0.4, 10.14 1.17, 10.93 2.13 C11.72 3.08, 12.51 4.58, 12.44 5.96 C12.38 7.33, 11.47 9.39, 10.53 10.39 C9.6 11.39, 8.11 11.69, 6.85 11.96 C5.58 12.23, 4.01 12.64, 2.94 11.99 C1.87 11.35, 0.75 9.42, 0.41 8.1 C0.08 6.77, 0.4 5.2, 0.93 4.02 C1.46 2.85, 2.4 1.7, 3.6 1.03 C4.8 0.37, 7.39 0.09, 8.13 0.04 C8.88 -0.01, 8.09 0.66, 8.08 0.73 M6.28 0.43 C7.63 0.23, 9.21 0.45, 10.15 1.1 C11.09 1.75, 11.62 2.89, 11.93 4.32 C12.24 5.74, 12.57 8.37, 12 9.66 C11.42 10.95, 9.69 11.74, 8.48 12.05 C7.28 12.36, 5.95 11.98, 4.77 11.53 C3.6 11.09, 2.25 10.46, 1.43 9.37 C0.61 8.28, -0.18 6.32, -0.15 4.98 C-0.12 3.64, 0.7 2.26, 1.62 1.33 C2.53 0.4, 4.59 -0.5, 5.35 -0.6 C6.1 -0.69, 6.04 0.53, 6.15 0.74" stroke="#000000" stroke-width="1" fill="none"></path></g></g><g clip-path="url(#ZOMPN4LW1e5ieDdOtEhpd)"><g transform="translate(407.1821838764372 2049.2337571166254) rotate(0 24.499977111816406 13.094006896816836)"><text x="0" y="0" font-family="Virgil, Segoe UI Emoji" font-size="20px" fill="#000000" text-anchor="start" style="white-space: pre;" direction="ltr" dominant-baseline="text-before-edge">Aktiv</text></g></g><g clip-path="url(#ZOMPN4LW1e5ieDdOtEhpd)"><g stroke-linecap="round" transform="translate(391.9451455610324 2059.086915721905) rotate(0 2.9723681944548446 2.972368194454816)"><path d="M3.65 0.05 C4.34 0.04, 5.03 0.51, 5.45 0.96 C5.87 1.4, 6.18 2.12, 6.15 2.71 C6.12 3.29, 5.67 3.95, 5.28 4.47 C4.88 5, 4.35 5.71, 3.76 5.86 C3.18 6.01, 2.35 5.68, 1.74 5.37 C1.13 5.07, 0.39 4.59, 0.12 4.02 C-0.15 3.45, -0.12 2.59, 0.12 1.97 C0.37 1.34, 1 0.63, 1.6 0.26 C2.2 -0.1, 3.37 -0.18, 3.74 -0.24 C4.11 -0.29, 3.87 -0.22, 3.84 -0.09 M3.81 -0.06 C4.39 -0.03, 4.53 0.12, 4.96 0.67 C5.39 1.22, 6.28 2.63, 6.39 3.23 C6.49 3.83, 6.12 3.87, 5.58 4.26 C5.05 4.65, 3.81 5.36, 3.2 5.58 C2.6 5.79, 2.44 5.77, 1.97 5.55 C1.49 5.34, 0.65 4.8, 0.37 4.29 C0.09 3.79, 0.07 3.2, 0.31 2.51 C0.55 1.82, 1.34 0.59, 1.81 0.14 C2.28 -0.3, 2.9 -0.08, 3.12 -0.15 C3.34 -0.21, 3.09 -0.28, 3.14 -0.25" stroke="none" stroke-width="0" fill="black"></path><path d="M3.05 -0.3 C3.64 -0.3, 4.27 0.33, 4.72 0.76 C5.17 1.19, 5.6 1.57, 5.73 2.25 C5.86 2.93, 5.79 4.26, 5.5 4.84 C5.21 5.43, 4.53 5.58, 3.98 5.74 C3.43 5.9, 2.78 6, 2.21 5.81 C1.64 5.62, 0.89 5.17, 0.57 4.58 C0.26 3.99, 0.22 2.9, 0.33 2.28 C0.44 1.66, 0.7 1.31, 1.22 0.89 C1.74 0.46, 3.13 -0.08, 3.43 -0.25 C3.74 -0.41, 3.11 -0.21, 3.06 -0.08 M3.02 -0.26 C3.62 -0.16, 4.75 0.84, 5.21 1.35 C5.66 1.86, 5.7 2.34, 5.76 2.82 C5.82 3.3, 5.88 3.77, 5.58 4.24 C5.29 4.71, 4.64 5.46, 3.98 5.63 C3.31 5.8, 2.23 5.55, 1.58 5.27 C0.93 4.99, 0.38 4.53, 0.08 3.94 C-0.22 3.36, -0.43 2.29, -0.19 1.78 C0.04 1.28, 0.91 1.23, 1.51 0.93 C2.1 0.63, 3.03 0.18, 3.36 0 C3.68 -0.18, 3.54 -0.15, 3.45 -0.13" stroke="#000000" stroke-width="1" fill="none"></path></g></g><g clip-path="url(#ZOMPN4LW1e5ieDdOtEhpd)"><g stroke-linecap="round" transform="translate(388.48445281268505 2078.7386986071906) rotate(0 6.223614017363445 6.2236140173633885)"><path d="M5.13 0.07 C6.34 -0.16, 8.17 -0.22, 9.34 0.58 C10.52 1.38, 11.71 3.55, 12.16 4.88 C12.62 6.22, 12.49 7.41, 12.05 8.58 C11.61 9.74, 10.69 11.21, 9.54 11.88 C8.39 12.54, 6.46 12.92, 5.14 12.58 C3.83 12.23, 2.49 10.87, 1.66 9.82 C0.83 8.76, 0.07 7.62, 0.16 6.25 C0.24 4.89, 1.28 2.68, 2.17 1.61 C3.07 0.53, 4.9 0, 5.53 -0.19 C6.16 -0.39, 5.87 0.28, 5.95 0.45 M6.21 0.71 C7.49 0.68, 8.75 0.88, 9.81 1.47 C10.87 2.07, 12.21 3.05, 12.59 4.28 C12.97 5.51, 12.79 7.65, 12.08 8.84 C11.37 10.03, 9.7 10.94, 8.35 11.42 C7 11.9, 5.3 12.15, 3.99 11.73 C2.68 11.3, 1.08 9.86, 0.49 8.89 C-0.11 7.93, 0.11 7.16, 0.41 5.93 C0.7 4.71, 1.26 2.6, 2.25 1.56 C3.23 0.52, 5.82 -0.01, 6.34 -0.3 C6.86 -0.59, 5.3 -0.44, 5.35 -0.17" stroke="#000000" stroke-width="1" fill="none"></path></g></g><g clip-path="url(#ZOMPN4LW1e5ieDdOtEhpd)"><g transform="translate(407.1999248225693 2072.4623126245533) rotate(0 55.48994445800781 12.5)"><text x="0" y="0" font-family="Virgil, Segoe UI Emoji" font-size="20px" fill="#000000" text-anchor="start" style="white-space: pre;" direction="ltr" dominant-baseline="text-before-edge">Deaktiviert</text></g></g><g clip-path="url(#ZOMPN4LW1e5ieDdOtEhpd)"><g transform="translate(386.49373552167526 2019.1934689668935) rotate(0 35.15996551513672 12.478556469662749)"><text x="0" y="0" font-family="Virgil, Segoe UI Emoji" font-size="20px" fill="#1e1e1e" text-anchor="start" style="white-space: pre;" direction="ltr" dominant-baseline="text-before-edge">Status</text></g></g><g transform="translate(10 1354.082781927291) rotate(0 20.509971618652344 8.75)"><text x="0" y="0" font-family="Assistant, Segoe UI Emoji" font-size="14px" fill="#999999" text-anchor="start" style="white-space: pre;" direction="ltr" dominant-baseline="text-before-edge">Wasser</text></g><rect transform="translate(10 1374.582781927291) rotate(0 698.1601562499999 415.9570312500001)" width="1396.3203124999998px" height="831.9140625000002px" rx="8" ry="8" fill="none" stroke="#bbb" stroke-width="2"></rect><g transform="translate(21.946302928325167 10) rotate(0 373.44403076171875 134.29949190355447)"><text x="0" y="0" font-family="Virgil, Segoe UI Emoji" font-size="214.87918704568716px" fill="#2f9e44" text-anchor="start" style="white-space: pre;" direction="ltr" dominant-baseline="text-before-edge">Wasser</text></g><g stroke-linecap="round"><g transform="translate(254.2000211694576 1140.6236009777765) rotate(0 341.42933100550727 46.406796827116295)" fill-rule="evenodd"><path d="M0.93 -1.98 L-1.79 91.65 L684.2 88.68 L682.86 18.68 L604.98 7.59 L1.87 -1.36" stroke="none" stroke-width="0" fill="#fff" fill-rule="evenodd"></path><path d="M0 0 C0.37 19.66, 1.94 40.38, 0 92.81 M0 0 C0.24 34.1, 1.25 68.61, 0 92.81 M0 92.81 C154.13 93.65, 308.48 92.54, 682.86 88.96 M0 92.81 C196.38 93.58, 392.41 92.17, 682.86 88.96 M682.86 88.96 C682.44 64.61, 681.58 40.47, 682.34 18.07 M682.86 88.96 C683.61 72.36, 683.25 54.15, 682.34 18.07 M682.34 18.07 C654.94 14.87, 630.87 10.7, 604.26 6 M682.34 18.07 C665.25 16.95, 648.13 14.07, 604.26 6 M604.26 6 C448.59 2.15, 292.52 0.07, 0 0 M604.26 6 C442.1 4.54, 279.95 2.99, 0 0 M0 0 C0 0, 0 0, 0 0 M0 0 C0 0, 0 0, 0 0" stroke="#000000" stroke-width="1" fill="none"></path></g></g><mask></mask><g transform="translate(291.22963853724286 1164.8251538733184) rotate(0 310.6297302246094 25)"><text x="0" y="0" font-family="Virgil, Segoe UI Emoji" font-size="20px" fill="#000000" text-anchor="start" style="white-space: pre;" direction="ltr" dominant-baseline="text-before-edge">If you click on "Bearbeiten" the data should be loaded into </text><text x="0" y="25.000000000000007" font-family="Virgil, Segoe UI Emoji" font-size="20px" fill="#000000" text-anchor="start" style="white-space: pre;" direction="ltr" dominant-baseline="text-before-edge">the form and if saved the specific entry should be overwritten</text></g><g stroke-linecap="round"><g transform="translate(856.3951390914481 1147.9247460098732) rotate(0 40.50205307824581 15.733386535092961)" fill-rule="evenodd"><path d="M1.32 1.43 L67.26 30.35 L68.59 31.15 L80.29 9.07 L1.78 1.7" stroke="none" stroke-width="0" fill="#868e96" fill-rule="evenodd"></path><path d="M0 0 C20.69 9.91, 40.13 17.06, 67.21 31.32 M0 0 C21.65 9.39, 44.13 20.13, 67.21 31.32 M67.21 31.32 C67 31.35, 66.76 31.44, 66.64 31.47 M67.21 31.32 C67 31.35, 66.77 31.42, 66.64 31.47 M66.64 31.47 C69.67 24.45, 73.09 20.68, 81 10.14 M66.64 31.47 C72.46 22.97, 76.59 14.88, 81 10.14 M81 10.14 C48.33 8.78, 20.72 3.16, 0 0 M81 10.14 C49.36 6.57, 17.61 3.27, 0 0 M0 0 C0 0, 0 0, 0 0 M0 0 C0 0, 0 0, 0 0" stroke="#000000" stroke-width="1" fill="none"></path></g></g><mask></mask></svg>