<svg version="1.1" xmlns="http://www.w3.org/2000/svg" viewBox="0 0 1416.3203124999998 2275.6692148154825" width="1416.3203124999998" height="2275.6692148154825">
  <!-- svg-source:excalidraw -->
  
  <defs>
    <style class="style-fonts">
      @font-face {
        font-family: "Virgil";
        src: url("https://file%2B.vscode-resource.vscode-cdn.net/c%3A/Users/lisa-/.vscode/extensions/pomdtr.excalidraw-editor-3.7.4/public//dist/excalidraw-assets/Virgil.woff2");
      }
      @font-face {
        font-family: "Cascadia";
        src: url("https://file%2B.vscode-resource.vscode-cdn.net/c%3A/Users/lisa-/.vscode/extensions/pomdtr.excalidraw-editor-3.7.4/public//dist/excalidraw-assets/Cascadia.woff2");
      }
      @font-face {
        font-family: "Assistant";
        src: url("https://file%2B.vscode-resource.vscode-cdn.net/c%3A/Users/lisa-/.vscode/extensions/pomdtr.excalidraw-editor-3.7.4/public//dist/excalidraw-assets/Assistant-Regular.woff2");
      }
    </style>
    <clipPath id="R8omI80zWPz3bDmpyaaTp">
            <rect transform="translate(10 1433.7551523154823) rotate(0 698.1601562499999 415.9570312500001)" width="1396.3203124999998" height="831.9140625000002">
          </rect>
        </clipPath>
  </defs>
  <rect x="0" y="0" width="1416.3203124999998" height="2275.6692148154825" fill="#ffffff"></rect><g clip-path="url(#R8omI80zWPz3bDmpyaaTp)"><g transform="translate(99.16308209697672 1826.8715129761838) rotate(0 91.1328125 115)"><text x="0" y="0" font-family="Helvetica, Segoe UI Emoji" font-size="20px" fill="#1e1e1e" text-anchor="start" style="white-space: pre;" direction="ltr" dominant-baseline="text-before-edge">General</text><text x="0" y="23" font-family="Helvetica, Segoe UI Emoji" font-size="20px" fill="#1e1e1e" text-anchor="start" style="white-space: pre;" direction="ltr" dominant-baseline="text-before-edge"></text><text x="0" y="46" font-family="Helvetica, Segoe UI Emoji" font-size="20px" fill="#1e1e1e" text-anchor="start" style="white-space: pre;" direction="ltr" dominant-baseline="text-before-edge"></text><text x="0" y="69" font-family="Helvetica, Segoe UI Emoji" font-size="20px" fill="#1e1e1e" text-anchor="start" style="white-space: pre;" direction="ltr" dominant-baseline="text-before-edge">- Stadtwerke</text><text x="0" y="92" font-family="Helvetica, Segoe UI Emoji" font-size="20px" fill="#1e1e1e" text-anchor="start" style="white-space: pre;" direction="ltr" dominant-baseline="text-before-edge">    - Tarife</text><text x="0" y="115" font-family="Helvetica, Segoe UI Emoji" font-size="20px" fill="#1e1e1e" text-anchor="start" style="white-space: pre;" direction="ltr" dominant-baseline="text-before-edge">        - Wasser</text><text x="0" y="138" font-family="Helvetica, Segoe UI Emoji" font-size="20px" fill="#1e1e1e" text-anchor="start" style="white-space: pre;" direction="ltr" dominant-baseline="text-before-edge">        - Strom</text><text x="0" y="161" font-family="Helvetica, Segoe UI Emoji" font-size="20px" fill="#1e1e1e" text-anchor="start" style="white-space: pre;" direction="ltr" dominant-baseline="text-before-edge">        - Wärmepumpe</text><text x="0" y="184" font-family="Helvetica, Segoe UI Emoji" font-size="20px" fill="#1e1e1e" text-anchor="start" style="white-space: pre;" direction="ltr" dominant-baseline="text-before-edge">        - Gas</text><text x="0" y="207" font-family="Helvetica, Segoe UI Emoji" font-size="20px" fill="#1e1e1e" text-anchor="start" style="white-space: pre;" direction="ltr" dominant-baseline="text-before-edge">    - Kunden</text></g></g><g clip-path="url(#R8omI80zWPz3bDmpyaaTp)"><g stroke-linecap="round" transform="translate(65.62681557318137 1495.391652483141) rotate(0 640 360)"><path d="M0 0 C462.97 0, 925.93 0, 1280 0 M0 0 C455.33 0, 910.65 0, 1280 0 M1280 0 C1280 208.18, 1280 416.36, 1280 720 M1280 0 C1280 183.09, 1280 366.17, 1280 720 M1280 720 C898.13 720, 516.26 720, 0 720 M1280 720 C833.41 720, 386.83 720, 0 720 M0 720 C0 507.21, 0 294.43, 0 0 M0 720 C0 565.98, 0 411.95, 0 0" stroke="#ced4da" stroke-width="4" fill="none"></path></g></g><g clip-path="url(#R8omI80zWPz3bDmpyaaTp)"><g stroke-linecap="round"><g transform="translate(342.38608982741425 1494.9427802197988) rotate(0 0.67626953125 360.6884765625)"><path d="M-0.27 -0.02 C0.22 120.44, 1.87 601.7, 2.12 722.05 M1.79 -1.08 C2.26 119.1, 1.81 600.08, 1.57 720.27" stroke="#bbb" stroke-width="2" fill="none"></path></g></g><mask></mask></g><g clip-path="url(#R8omI80zWPz3bDmpyaaTp)"><g transform="translate(101.59122352540726 2166.8667819624543) rotate(0 29.653038024902344 11.152405278842025)"><text x="0" y="0" font-family="Helvetica, Segoe UI Emoji" font-size="19.39548744146448px" fill="#1e1e1e" text-anchor="start" style="white-space: pre;" direction="ltr" dominant-baseline="text-before-edge">Logout</text></g></g><g clip-path="url(#R8omI80zWPz3bDmpyaaTp)"><g transform="translate(103.29053831157216 1524.4485488934922) rotate(0 80.01953125 103.5)"><text x="0" y="0" font-family="Helvetica, Segoe UI Emoji" font-size="20px" fill="#1e1e1e" text-anchor="start" style="white-space: pre;" direction="ltr" dominant-baseline="text-before-edge">Home</text><text x="0" y="23" font-family="Helvetica, Segoe UI Emoji" font-size="20px" fill="#1e1e1e" text-anchor="start" style="white-space: pre;" direction="ltr" dominant-baseline="text-before-edge"></text><text x="0" y="46" font-family="Helvetica, Segoe UI Emoji" font-size="20px" fill="#1e1e1e" text-anchor="start" style="white-space: pre;" direction="ltr" dominant-baseline="text-before-edge"></text><text x="0" y="69" font-family="Helvetica, Segoe UI Emoji" font-size="20px" fill="#1e1e1e" text-anchor="start" style="white-space: pre;" direction="ltr" dominant-baseline="text-before-edge">- Stadtwerke</text><text x="0" y="92" font-family="Helvetica, Segoe UI Emoji" font-size="20px" fill="#1e1e1e" text-anchor="start" style="white-space: pre;" direction="ltr" dominant-baseline="text-before-edge">    - Wasser</text><text x="0" y="115" font-family="Helvetica, Segoe UI Emoji" font-size="20px" fill="#1e1e1e" text-anchor="start" style="white-space: pre;" direction="ltr" dominant-baseline="text-before-edge">    - Strom</text><text x="0" y="138" font-family="Helvetica, Segoe UI Emoji" font-size="20px" fill="#1e1e1e" text-anchor="start" style="white-space: pre;" direction="ltr" dominant-baseline="text-before-edge">    - Wärmepumpe</text><text x="0" y="161" font-family="Helvetica, Segoe UI Emoji" font-size="20px" fill="#1e1e1e" text-anchor="start" style="white-space: pre;" direction="ltr" dominant-baseline="text-before-edge">    - Gas</text><text x="0" y="184" font-family="Helvetica, Segoe UI Emoji" font-size="20px" fill="#1e1e1e" text-anchor="start" style="white-space: pre;" direction="ltr" dominant-baseline="text-before-edge">    - Rechnungen</text></g></g><g clip-path="url(#R8omI80zWPz3bDmpyaaTp)"><g stroke-linecap="round" transform="translate(342.7282632933202 1495.7032960189172) rotate(0 503.00695269974335 360.0109060460612)"><path d="M0 0 C290.32 0.26, 580.19 -0.48, 1006.01 0 M1006.01 0 C1004.64 233.67, 1005.71 466.23, 1006.01 720.02 M1006.01 720.02 C674.48 716.91, 343.4 717.39, 0 720.02 M0 720.02 C1.28 542.7, 0.47 365.09, 0 0" stroke="#bbb" stroke-width="2.5" fill="none" stroke-dasharray="1.5 8"></path></g></g><g clip-path="url(#R8omI80zWPz3bDmpyaaTp)"><g stroke-linecap="round"><g transform="translate(148.48771404265062 2012.5225634122005) rotate(0 62.40730721343971 -0.1644122177627878)"><path d="M0.98 0.05 C21.75 -0.02, 104.09 -0.11, 124.68 -0.04 M0.04 -0.97 C20.62 -1.45, 103.06 -1.93, 123.67 -2.01" stroke="#1e1e1e" stroke-width="2" fill="none"></path></g></g><mask></mask></g><g clip-path="url(#R8omI80zWPz3bDmpyaaTp)"><g transform="translate(73.81189750377962 1795.7617094109203) rotate(0 48.91015625 9.200000000000045)"><text x="0" y="0" font-family="Helvetica, Segoe UI Emoji" font-size="16px" fill="#bbb" text-anchor="start" style="white-space: pre;" direction="ltr" dominant-baseline="text-before-edge">Admin Center</text></g></g><g clip-path="url(#R8omI80zWPz3bDmpyaaTp)"><g stroke-linecap="round"><g transform="translate(67.79888022122032 1818.5136666962678) rotate(0 141.61061985371225 -0.5230918750871751)"><path d="M0 0 C82.87 -1.37, 164.49 0.37, 283.22 -1.05" stroke="#bbb" stroke-width="4.5" fill="none" stroke-dasharray="1.5 10"></path></g></g><mask></mask></g><g clip-path="url(#R8omI80zWPz3bDmpyaaTp)"><g stroke-linecap="round"><g transform="translate(67.87479065908701 2055.7089486833756) rotate(0 141.61061985371225 -0.5230918750871751)"><path d="M0 0 C79.93 2.37, 157.75 1.99, 283.22 -1.05" stroke="#bbb" stroke-width="4.5" fill="none" stroke-dasharray="1.5 10"></path></g></g><mask></mask></g><g clip-path="url(#R8omI80zWPz3bDmpyaaTp)"><g stroke-linecap="round" transform="translate(562.5295219111576 1709.7662816253473) rotate(0 324.60499571594414 27.62105468575578)"><path d="M13.81 0 C168.18 -5.03, 324.87 -3.03, 635.4 0 C644.12 -2.31, 652.66 4.01, 649.21 13.81 C650.4 20.08, 648.32 28.37, 649.21 41.43 C648.03 48.31, 642.25 54.6, 635.4 55.24 C444.07 57.54, 250.16 58.43, 13.81 55.24 C4.62 57.18, -2.05 50.39, 0 41.43 C0.23 34.04, -1.37 20.8, 0 13.81 C1.67 4.99, 4.57 -2.58, 13.81 0" stroke="none" stroke-width="0" fill="#fff"></path><path d="M13.81 0 C138.65 -0.64, 264.6 -1.39, 635.4 0 M13.81 0 C188.79 -0.68, 363.69 -0.09, 635.4 0 M635.4 0 C646.16 0.85, 648.74 5.58, 649.21 13.81 M635.4 0 C645.95 -1.05, 648.07 4.67, 649.21 13.81 M649.21 13.81 C647.43 21.45, 649.58 27.87, 649.21 41.43 M649.21 13.81 C648.35 25.42, 649.73 36.31, 649.21 41.43 M649.21 41.43 C650.58 49.73, 643.57 54.64, 635.4 55.24 M649.21 41.43 C647.44 51.94, 643.64 53.4, 635.4 55.24 M635.4 55.24 C403.12 54.95, 170.36 54.57, 13.81 55.24 M635.4 55.24 C439.11 53.61, 243.08 53.5, 13.81 55.24 M13.81 55.24 C4.32 53.56, 1.36 50.87, 0 41.43 M13.81 55.24 C4 56.78, 1.53 49.22, 0 41.43 M0 41.43 C-0.59 32.04, 0.43 21.66, 0 13.81 M0 41.43 C0.42 33.31, -0.59 24.4, 0 13.81 M0 13.81 C-0.16 5.38, 5.6 0.9, 13.81 0 M0 13.81 C0.69 2.6, 5.82 0.9, 13.81 0" stroke="#1e1e1e" stroke-width="2" fill="none"></path></g></g><g clip-path="url(#R8omI80zWPz3bDmpyaaTp)"><g transform="translate(567.5295219111576 1725.8873363111031) rotate(0 215.6494140625 11.5)"><text x="0" y="0" font-family="Helvetica, Segoe UI Emoji" font-size="20px" fill="#1e1e1e" text-anchor="start" style="white-space: pre;" direction="ltr" dominant-baseline="text-before-edge">  Tarif1          3.33€          12 Monate           Active</text></g></g><g clip-path="url(#R8omI80zWPz3bDmpyaaTp)"><g stroke-linecap="round" transform="translate(543.4323555951269 1534.2148363673107) rotate(359.9296265924723 373.66296604115723 120.0326262729177)"><path d="M0 0 C246.02 1.46, 492.49 1.93, 747.33 0 M0 0 C184.71 -2.63, 368.7 -2.6, 747.33 0 M747.33 0 C746.46 85.28, 745.72 171.91, 747.33 240.07 M747.33 0 C747.78 52.81, 748.25 103.35, 747.33 240.07 M747.33 240.07 C597.81 241.78, 446.64 240.82, 0 240.07 M747.33 240.07 C545.58 241.44, 344.47 241.98, 0 240.07 M0 240.07 C-0.19 171.71, -0.96 104.8, 0 0 M0 240.07 C0.53 183.49, -0.11 126.7, 0 0" stroke="#000000" stroke-width="1" fill="none"></path></g></g><g clip-path="url(#R8omI80zWPz3bDmpyaaTp)"><g stroke-linecap="round" transform="translate(1244.8965129250573 1554.717417170253) rotate(359.9296265924723 15.44090099337484 103.3042967389606)"><path d="M0 0 C7.63 0.16, 13.44 -0.27, 30.88 0 M0 0 C11.92 0.36, 24.89 -0.59, 30.88 0 M30.88 0 C30.2 51.65, 29.46 103.92, 30.88 206.61 M30.88 0 C31.15 66.27, 29.85 134.75, 30.88 206.61 M30.88 206.61 C19.5 205.79, 9.34 205.28, 0 206.61 M30.88 206.61 C20.61 206.91, 8.68 206.97, 0 206.61 M0 206.61 C-0.86 141.61, -2.3 75.66, 0 0 M0 206.61 C-1.28 144.2, -0.55 83.38, 0 0" stroke="#000000" stroke-width="1" fill="none"></path></g></g><g clip-path="url(#R8omI80zWPz3bDmpyaaTp)"><g stroke-linecap="round" transform="translate(1248.4356672410067 1565.0966435015562) rotate(359.9296265924723 9.457430284254315 81.77208864368265)"><path d="M0.67 -0.62 L19.34 0.43 L19.58 163.31 L0.04 163.82" stroke="none" stroke-width="0" fill="black"></path><path d="M0 0 C4.01 -0.21, 9.91 0.74, 18.91 0 M0 0 C6.76 -0.26, 12.73 -0.03, 18.91 0 M18.91 0 C17.74 42.37, 18.82 84.14, 18.91 163.54 M18.91 0 C18.81 64.62, 19.5 128.88, 18.91 163.54 M18.91 163.54 C11.65 162.77, 5.5 163.1, 0 163.54 M18.91 163.54 C14.67 163.88, 10.68 163.89, 0 163.54 M0 163.54 C-0.78 119.42, -0.14 75.93, 0 0 M0 163.54 C0.46 119.27, -0.01 75.21, 0 0" stroke="#000000" stroke-width="1" fill="none"></path></g></g><g clip-path="url(#R8omI80zWPz3bDmpyaaTp)"><g stroke-linecap="round" transform="translate(561.4279597595887 1562.2308670242362) rotate(0 324.60499571594414 27.62105468575578)"><path d="M13.81 0 C189.71 2.36, 366.53 1.52, 635.4 0 C647.85 -1.18, 646.88 2.25, 649.21 13.81 C650.69 23.12, 650.55 25.98, 649.21 41.43 C652.74 50.66, 646.55 53.2, 635.4 55.24 C452.59 50.71, 271.59 50.07, 13.81 55.24 C2.25 56.91, 0.38 50.61, 0 41.43 C-0.77 35.15, -2.98 29.19, 0 13.81 C3.3 1.1, 3.61 2.66, 13.81 0" stroke="none" stroke-width="0" fill="#fff"></path><path d="M13.81 0 C200 1.19, 385.04 0.38, 635.4 0 M13.81 0 C230.48 1.15, 447.38 0.97, 635.4 0 M635.4 0 C644.52 -1.67, 649.74 5.09, 649.21 13.81 M635.4 0 C644.41 2.13, 650.31 2.62, 649.21 13.81 M649.21 13.81 C651.03 20.73, 648.51 23.88, 649.21 41.43 M649.21 13.81 C648.58 20.46, 649.74 29.26, 649.21 41.43 M649.21 41.43 C648.86 51.86, 644.94 56.48, 635.4 55.24 M649.21 41.43 C648.52 51, 645.22 53.74, 635.4 55.24 M635.4 55.24 C448.82 56.7, 262.03 57.35, 13.81 55.24 M635.4 55.24 C442.06 56.66, 248.35 57.08, 13.81 55.24 M13.81 55.24 C5.93 54.77, 0.08 51.19, 0 41.43 M13.81 55.24 C3.63 55.08, -2.26 52.83, 0 41.43 M0 41.43 C-1.7 32.59, 0.78 25.06, 0 13.81 M0 41.43 C0.44 32.29, -0.59 22.91, 0 13.81 M0 13.81 C1.96 3.42, 3.72 0.85, 13.81 0 M0 13.81 C2.18 4.29, 3.13 2.2, 13.81 0" stroke="#1e1e1e" stroke-width="2" fill="none"></path></g></g><g clip-path="url(#R8omI80zWPz3bDmpyaaTp)"><g transform="translate(566.4279597595887 1578.351921709992) rotate(0 215.6494140625 11.5)"><text x="0" y="0" font-family="Helvetica, Segoe UI Emoji" font-size="20px" fill="#1e1e1e" text-anchor="start" style="white-space: pre;" direction="ltr" dominant-baseline="text-before-edge">  Tarif1          3.33€          12 Monate           Active</text></g></g><g clip-path="url(#R8omI80zWPz3bDmpyaaTp)"><g stroke-linecap="round" transform="translate(561.2534802444934 1640.6343371809028) rotate(0 324.60499571594414 27.62105468575578)"><path d="M13.81 0 C225.66 0.39, 433.98 -0.08, 635.4 0 C643.97 0.32, 651.57 6.04, 649.21 13.81 C652.91 23.28, 651.33 30.66, 649.21 41.43 C648.97 51.75, 641.04 53.86, 635.4 55.24 C452.53 53.59, 271.69 52.91, 13.81 55.24 C2.02 58.36, 0.63 50.3, 0 41.43 C3.65 29.62, -0.64 27.48, 0 13.81 C0.18 3.76, 8.11 -2.36, 13.81 0" stroke="none" stroke-width="0" fill="#fff"></path><path d="M13.81 0 C249.02 1.05, 483.08 0.19, 635.4 0 M13.81 0 C202.17 0.7, 390.67 1.13, 635.4 0 M635.4 0 C644.44 1.86, 650.17 2.88, 649.21 13.81 M635.4 0 C642.33 1.75, 650.11 6.45, 649.21 13.81 M649.21 13.81 C648.48 22.45, 650.22 33.34, 649.21 41.43 M649.21 13.81 C649.24 20.5, 649.58 26.58, 649.21 41.43 M649.21 41.43 C648.61 50.95, 645.14 53.94, 635.4 55.24 M649.21 41.43 C649.21 50.6, 646.06 54.58, 635.4 55.24 M635.4 55.24 C457.83 56.72, 280.61 57.47, 13.81 55.24 M635.4 55.24 C487.48 56.22, 339.04 56.42, 13.81 55.24 M13.81 55.24 C3.76 55.1, -1.96 52.54, 0 41.43 M13.81 55.24 C4.94 55.16, -1.98 48.67, 0 41.43 M0 41.43 C0.8 33.96, -1.85 26.35, 0 13.81 M0 41.43 C1.12 31.47, -0.3 23.12, 0 13.81 M0 13.81 C1.89 4.33, 3.32 1.91, 13.81 0 M0 13.81 C-0.38 2.42, 3.68 -0.54, 13.81 0" stroke="#1e1e1e" stroke-width="2" fill="none"></path></g></g><g clip-path="url(#R8omI80zWPz3bDmpyaaTp)"><g transform="translate(566.2534802444934 1656.7553918666586) rotate(0 215.6494140625 11.5)"><text x="0" y="0" font-family="Helvetica, Segoe UI Emoji" font-size="20px" fill="#1e1e1e" text-anchor="start" style="white-space: pre;" direction="ltr" dominant-baseline="text-before-edge">  Tarif1          3.33€          12 Monate           Active</text></g></g><g clip-path="url(#R8omI80zWPz3bDmpyaaTp)"><g stroke-linecap="round" transform="translate(1049.4608916971847 1571.715593979298) rotate(0 73.93466188158703 16.94261023537905)"><path d="M8.47 0 C43.46 0, 78.45 0, 139.4 0 C145.05 0, 147.87 2.82, 147.87 8.47 C147.87 13.56, 147.87 18.66, 147.87 25.41 C147.87 31.06, 145.05 33.89, 139.4 33.89 C94.06 33.89, 48.73 33.89, 8.47 33.89 C2.82 33.89, 0 31.06, 0 25.41 C0 21.98, 0 18.55, 0 8.47 C0 2.82, 2.82 0, 8.47 0" stroke="none" stroke-width="0" fill="black"></path><path d="M8.47 0 C55.37 0, 102.27 0, 139.4 0 M8.47 0 C36.85 0, 65.23 0, 139.4 0 M139.4 0 C145.05 0, 147.87 2.82, 147.87 8.47 M139.4 0 C145.05 0, 147.87 2.82, 147.87 8.47 M147.87 8.47 C147.87 12.25, 147.87 16.03, 147.87 25.41 M147.87 8.47 C147.87 14.59, 147.87 20.71, 147.87 25.41 M147.87 25.41 C147.87 31.06, 145.05 33.89, 139.4 33.89 M147.87 25.41 C147.87 31.06, 145.05 33.89, 139.4 33.89 M139.4 33.89 C103.54 33.89, 67.69 33.89, 8.47 33.89 M139.4 33.89 C103.19 33.89, 66.98 33.89, 8.47 33.89 M8.47 33.89 C2.82 33.89, 0 31.06, 0 25.41 M8.47 33.89 C2.82 33.89, 0 31.06, 0 25.41 M0 25.41 C0 19.82, 0 14.23, 0 8.47 M0 25.41 C0 21.33, 0 17.25, 0 8.47 M0 8.47 C0 2.82, 2.82 0, 8.47 0 M0 8.47 C0 2.82, 2.82 0, 8.47 0" stroke="white" stroke-width="2" fill="none"></path></g></g><g clip-path="url(#R8omI80zWPz3bDmpyaaTp)"><g transform="translate(1084.7002410787718 1579.4582042146772) rotate(0 38.6953125 9.199999999999989)"><text x="38.6953125" y="0" font-family="Helvetica, Segoe UI Emoji" font-size="16px" fill="white" text-anchor="middle" style="white-space: pre;" direction="ltr" dominant-baseline="text-before-edge">Bearbeiten</text></g></g><g clip-path="url(#R8omI80zWPz3bDmpyaaTp)"><g stroke-linecap="round" transform="translate(1048.9984668566176 1653.348371909057) rotate(0 73.93466188158703 16.94261023537905)"><path d="M8.47 0 C48.9 0, 89.33 0, 139.4 0 C145.05 0, 147.87 2.82, 147.87 8.47 C147.87 14.08, 147.87 19.68, 147.87 25.41 C147.87 31.06, 145.05 33.89, 139.4 33.89 C88.78 33.89, 38.17 33.89, 8.47 33.89 C2.82 33.89, 0 31.06, 0 25.41 C0 20.73, 0 16.04, 0 8.47 C0 2.82, 2.82 0, 8.47 0" stroke="none" stroke-width="0" fill="black"></path><path d="M8.47 0 C42.18 0, 75.89 0, 139.4 0 M8.47 0 C59.9 0, 111.33 0, 139.4 0 M139.4 0 C145.05 0, 147.87 2.82, 147.87 8.47 M139.4 0 C145.05 0, 147.87 2.82, 147.87 8.47 M147.87 8.47 C147.87 14.82, 147.87 21.16, 147.87 25.41 M147.87 8.47 C147.87 13.82, 147.87 19.17, 147.87 25.41 M147.87 25.41 C147.87 31.06, 145.05 33.89, 139.4 33.89 M147.87 25.41 C147.87 31.06, 145.05 33.89, 139.4 33.89 M139.4 33.89 C94.53 33.89, 49.67 33.89, 8.47 33.89 M139.4 33.89 C101.05 33.89, 62.7 33.89, 8.47 33.89 M8.47 33.89 C2.82 33.89, 0 31.06, 0 25.41 M8.47 33.89 C2.82 33.89, 0 31.06, 0 25.41 M0 25.41 C0 21.18, 0 16.95, 0 8.47 M0 25.41 C0 20.56, 0 15.7, 0 8.47 M0 8.47 C0 2.82, 2.82 0, 8.47 0 M0 8.47 C0 2.82, 2.82 0, 8.47 0" stroke="white" stroke-width="2" fill="none"></path></g></g><g clip-path="url(#R8omI80zWPz3bDmpyaaTp)"><g transform="translate(1084.2378162382047 1661.090982144436) rotate(0 38.6953125 9.199999999999989)"><text x="38.6953125" y="0" font-family="Helvetica, Segoe UI Emoji" font-size="16px" fill="white" text-anchor="middle" style="white-space: pre;" direction="ltr" dominant-baseline="text-before-edge">Bearbeiten</text></g></g><g clip-path="url(#R8omI80zWPz3bDmpyaaTp)"><g stroke-linecap="round" transform="translate(1052.1798904677416 1720.132226075724) rotate(0 73.93466188158703 16.942610235379107)"><path d="M8.47 0 C52.45 0, 96.43 0, 139.4 0 C145.05 0, 147.87 2.82, 147.87 8.47 C147.87 14.37, 147.87 20.28, 147.87 25.41 C147.87 31.06, 145.05 33.89, 139.4 33.89 C109.39 33.89, 79.38 33.89, 8.47 33.89 C2.82 33.89, 0 31.06, 0 25.41 C0 19.35, 0 13.29, 0 8.47 C0 2.82, 2.82 0, 8.47 0" stroke="none" stroke-width="0" fill="black"></path><path d="M8.47 0 C51.19 0, 93.9 0, 139.4 0 M8.47 0 C57.74 0, 107 0, 139.4 0 M139.4 0 C145.05 0, 147.87 2.82, 147.87 8.47 M139.4 0 C145.05 0, 147.87 2.82, 147.87 8.47 M147.87 8.47 C147.87 13.84, 147.87 19.21, 147.87 25.41 M147.87 8.47 C147.87 13.53, 147.87 18.58, 147.87 25.41 M147.87 25.41 C147.87 31.06, 145.05 33.89, 139.4 33.89 M147.87 25.41 C147.87 31.06, 145.05 33.89, 139.4 33.89 M139.4 33.89 C99.62 33.89, 59.83 33.89, 8.47 33.89 M139.4 33.89 C100.57 33.89, 61.75 33.89, 8.47 33.89 M8.47 33.89 C2.82 33.89, 0 31.06, 0 25.41 M8.47 33.89 C2.82 33.89, 0 31.06, 0 25.41 M0 25.41 C0 21.08, 0 16.74, 0 8.47 M0 25.41 C0 21.94, 0 18.47, 0 8.47 M0 8.47 C0 2.82, 2.82 0, 8.47 0 M0 8.47 C0 2.82, 2.82 0, 8.47 0" stroke="white" stroke-width="2" fill="none"></path></g></g><g clip-path="url(#R8omI80zWPz3bDmpyaaTp)"><g transform="translate(1087.4192398493287 1727.874836311103) rotate(0 38.6953125 9.200000000000045)"><text x="38.6953125" y="0" font-family="Helvetica, Segoe UI Emoji" font-size="16px" fill="white" text-anchor="middle" style="white-space: pre;" direction="ltr" dominant-baseline="text-before-edge">Bearbeiten</text></g></g><g clip-path="url(#R8omI80zWPz3bDmpyaaTp)"><g stroke-linecap="round" transform="translate(364.5757238010701 1566.6730246868349) rotate(0 73.93466188158703 19.622731763156764)"><path d="M9.81 0 C55.2 0, 100.59 0, 138.06 0 C144.6 0, 147.87 3.27, 147.87 9.81 C147.87 15.91, 147.87 22, 147.87 29.43 C147.87 35.98, 144.6 39.25, 138.06 39.25 C103.12 39.25, 68.18 39.25, 9.81 39.25 C3.27 39.25, 0 35.98, 0 29.43 C0 24.08, 0 18.73, 0 9.81 C0 3.27, 3.27 0, 9.81 0" stroke="none" stroke-width="0" fill="black"></path><path d="M9.81 0 C54.44 0, 99.08 0, 138.06 0 M9.81 0 C42.44 0, 75.07 0, 138.06 0 M138.06 0 C144.6 0, 147.87 3.27, 147.87 9.81 M138.06 0 C144.6 0, 147.87 3.27, 147.87 9.81 M147.87 9.81 C147.87 16.22, 147.87 22.63, 147.87 29.43 M147.87 9.81 C147.87 14.05, 147.87 18.28, 147.87 29.43 M147.87 29.43 C147.87 35.98, 144.6 39.25, 138.06 39.25 M147.87 29.43 C147.87 35.98, 144.6 39.25, 138.06 39.25 M138.06 39.25 C112.17 39.25, 86.29 39.25, 9.81 39.25 M138.06 39.25 C94.62 39.25, 51.17 39.25, 9.81 39.25 M9.81 39.25 C3.27 39.25, 0 35.98, 0 29.43 M9.81 39.25 C3.27 39.25, 0 35.98, 0 29.43 M0 29.43 C0 24.81, 0 20.18, 0 9.81 M0 29.43 C0 23.22, 0 17, 0 9.81 M0 9.81 C0 3.27, 3.27 0, 9.81 0 M0 9.81 C0 3.27, 3.27 0, 9.81 0" stroke="white" stroke-width="2" fill="none"></path></g></g><g clip-path="url(#R8omI80zWPz3bDmpyaaTp)"><g transform="translate(382.46741693265716 1577.0957564499918) rotate(0 56.04296875 9.199999999999989)"><text x="56.04296875" y="0" font-family="Helvetica, Segoe UI Emoji" font-size="16px" fill="white" text-anchor="middle" style="white-space: pre;" direction="ltr" dominant-baseline="text-before-edge">Neu hinzufügen</text></g></g><g clip-path="url(#R8omI80zWPz3bDmpyaaTp)"><g stroke-linecap="round" transform="translate(362.03232102330367 1638.4590489923905) rotate(0 73.93466188158703 19.622731763156764)"><path d="M9.81 0 C35.59 0, 61.37 0, 138.06 0 C144.6 0, 147.87 3.27, 147.87 9.81 C147.87 16.04, 147.87 22.27, 147.87 29.43 C147.87 35.98, 144.6 39.25, 138.06 39.25 C87.1 39.25, 36.14 39.25, 9.81 39.25 C3.27 39.25, 0 35.98, 0 29.43 C0 22.74, 0 16.05, 0 9.81 C0 3.27, 3.27 0, 9.81 0" stroke="none" stroke-width="0" fill="black"></path><path d="M9.81 0 C53.29 0, 96.77 0, 138.06 0 M9.81 0 C55.55 0, 101.28 0, 138.06 0 M138.06 0 C144.6 0, 147.87 3.27, 147.87 9.81 M138.06 0 C144.6 0, 147.87 3.27, 147.87 9.81 M147.87 9.81 C147.87 16.93, 147.87 24.06, 147.87 29.43 M147.87 9.81 C147.87 17.01, 147.87 24.22, 147.87 29.43 M147.87 29.43 C147.87 35.98, 144.6 39.25, 138.06 39.25 M147.87 29.43 C147.87 35.98, 144.6 39.25, 138.06 39.25 M138.06 39.25 C110.64 39.25, 83.22 39.25, 9.81 39.25 M138.06 39.25 C110.74 39.25, 83.43 39.25, 9.81 39.25 M9.81 39.25 C3.27 39.25, 0 35.98, 0 29.43 M9.81 39.25 C3.27 39.25, 0 35.98, 0 29.43 M0 29.43 C0 24.34, 0 19.24, 0 9.81 M0 29.43 C0 24.82, 0 20.2, 0 9.81 M0 9.81 C0 3.27, 3.27 0, 9.81 0 M0 9.81 C0 3.27, 3.27 0, 9.81 0" stroke="white" stroke-width="2" fill="none"></path></g></g><g clip-path="url(#R8omI80zWPz3bDmpyaaTp)"><g transform="translate(399.9435454048907 1648.8817807555474) rotate(0 36.0234375 9.199999999999989)"><text x="36.0234375" y="0" font-family="Helvetica, Segoe UI Emoji" font-size="16px" fill="white" text-anchor="middle" style="white-space: pre;" direction="ltr" dominant-baseline="text-before-edge">Speichern</text></g></g><g clip-path="url(#R8omI80zWPz3bDmpyaaTp)"><g stroke-linecap="round" transform="translate(365.1052376899679 1706.735958714613) rotate(0 73.93466188158703 19.622731763156764)"><path d="M9.81 0 C41.64 0, 73.46 0, 138.06 0 C144.6 0, 147.87 3.27, 147.87 9.81 C147.87 15.9, 147.87 22, 147.87 29.43 C147.87 35.98, 144.6 39.25, 138.06 39.25 C103.69 39.25, 69.33 39.25, 9.81 39.25 C3.27 39.25, 0 35.98, 0 29.43 C0 24.05, 0 18.67, 0 9.81 C0 3.27, 3.27 0, 9.81 0" stroke="none" stroke-width="0" fill="black"></path><path d="M9.81 0 C41.67 0, 73.52 0, 138.06 0 M9.81 0 C55.27 0, 100.74 0, 138.06 0 M138.06 0 C144.6 0, 147.87 3.27, 147.87 9.81 M138.06 0 C144.6 0, 147.87 3.27, 147.87 9.81 M147.87 9.81 C147.87 17.03, 147.87 24.25, 147.87 29.43 M147.87 9.81 C147.87 16.54, 147.87 23.28, 147.87 29.43 M147.87 29.43 C147.87 35.98, 144.6 39.25, 138.06 39.25 M147.87 29.43 C147.87 35.98, 144.6 39.25, 138.06 39.25 M138.06 39.25 C93.19 39.25, 48.32 39.25, 9.81 39.25 M138.06 39.25 C92.53 39.25, 47.01 39.25, 9.81 39.25 M9.81 39.25 C3.27 39.25, 0 35.98, 0 29.43 M9.81 39.25 C3.27 39.25, 0 35.98, 0 29.43 M0 29.43 C0 23.92, 0 18.41, 0 9.81 M0 29.43 C0 22.26, 0 15.08, 0 9.81 M0 9.81 C0 3.27, 3.27 0, 9.81 0 M0 9.81 C0 3.27, 3.27 0, 9.81 0" stroke="white" stroke-width="2" fill="none"></path></g></g><g clip-path="url(#R8omI80zWPz3bDmpyaaTp)"><g transform="translate(408.79380582155494 1717.1586904777696) rotate(0 30.24609375 9.199999999999989)"><text x="30.24609375" y="0" font-family="Helvetica, Segoe UI Emoji" font-size="16px" fill="white" text-anchor="middle" style="white-space: pre;" direction="ltr" dominant-baseline="text-before-edge">Löschen</text></g></g><g clip-path="url(#R8omI80zWPz3bDmpyaaTp)"><g stroke-linecap="round" transform="translate(385.97937890132016 1859.7022215442582) rotate(0 97.65182665281498 16.66276041666663)"><path d="M0 0 C51.48 -1.8, 102.01 -1.12, 195.3 0 M0 0 C70.94 -0.96, 141.34 -0.32, 195.3 0 M195.3 0 C193.53 13.46, 195.44 23.67, 195.3 33.33 M195.3 0 C195.95 12.66, 196.19 24.23, 195.3 33.33 M195.3 33.33 C135.82 30.54, 78.52 32.79, 0 33.33 M195.3 33.33 C137.31 32.05, 79.97 32.11, 0 33.33 M0 33.33 C1.07 21.32, 1.39 13.3, 0 0 M0 33.33 C1.09 25.16, -0.49 18.23, 0 0" stroke="#000000" stroke-width="1" fill="none"></path></g></g><g clip-path="url(#R8omI80zWPz3bDmpyaaTp)"><g transform="translate(387.9832032075283 1833.7587833857656) rotate(0 24.90998077392578 12.478556469662749)"><text x="0" y="0" font-family="Virgil, Segoe UI Emoji" font-size="20px" fill="#1e1e1e" text-anchor="start" style="white-space: pre;" direction="ltr" dominant-baseline="text-before-edge">Name</text></g></g><g clip-path="url(#R8omI80zWPz3bDmpyaaTp)"><g stroke-linecap="round" transform="translate(668.6343071773299 1849.5158207158836) rotate(0 314.23465654228403 154.87757109507095)"><path d="M0 0 C178.13 -0.67, 355.4 -0.21, 628.47 0 M0 0 C147.72 -0.08, 294.89 -0.3, 628.47 0 M628.47 0 C629.69 114.95, 627.84 228.6, 628.47 309.76 M628.47 0 C629.97 106.48, 629.64 212.52, 628.47 309.76 M628.47 309.76 C501.6 309.43, 374.1 310.05, 0 309.76 M628.47 309.76 C415.7 310.54, 202.9 311.05, 0 309.76 M0 309.76 C-2.07 231.77, -0.61 156.41, 0 0 M0 309.76 C1.31 220.32, 1.14 132.08, 0 0" stroke="#000000" stroke-width="1" fill="none"></path></g></g><g clip-path="url(#R8omI80zWPz3bDmpyaaTp)"><g stroke-linecap="round" transform="translate(1266.110555196181 1865.2526238780722) rotate(0 8.560534753823049 135.14638269102943)"><path d="M0 0 C5.56 0.25, 10.29 0.02, 17.12 0 M0 0 C5.05 -0.34, 10.51 0.07, 17.12 0 M17.12 0 C17.35 74.35, 18.17 148.56, 17.12 270.29 M17.12 0 C17 74.73, 16.78 149.88, 17.12 270.29 M17.12 270.29 C11.01 270.15, 6.69 270.65, 0 270.29 M17.12 270.29 C11.44 270.39, 5.08 270.45, 0 270.29 M0 270.29 C0.96 163.39, 0.52 54.51, 0 0 M0 270.29 C0.02 163.25, 0.33 56.45, 0 0" stroke="#000000" stroke-width="1" fill="none"></path></g></g><g clip-path="url(#R8omI80zWPz3bDmpyaaTp)"><g stroke-linecap="round" transform="translate(1268.9138882683255 1866.7595585058173) rotate(0 6.357253804493553 35.32018470933383)"><path d="M-0.33 -0.65 L12.06 -0.18 L12.8 71.3 L0.4 71.06" stroke="none" stroke-width="0" fill="black"></path><path d="M0 0 C3.01 -0.02, 6.85 0.38, 12.71 0 M0 0 C3.66 0.09, 6.81 0.27, 12.71 0 M12.71 0 C12.93 26.56, 12.26 51.83, 12.71 70.64 M12.71 0 C12.07 23.6, 12.64 46.23, 12.71 70.64 M12.71 70.64 C10.24 70.95, 7.56 70.83, 0 70.64 M12.71 70.64 C9.85 70.84, 7.61 70.48, 0 70.64 M0 70.64 C-0.28 51.92, 0.81 34.33, 0 0 M0 70.64 C0.34 56.25, 0.05 42.14, 0 0" stroke="#000000" stroke-width="1" fill="none"></path></g></g><g clip-path="url(#R8omI80zWPz3bDmpyaaTp)"><g transform="translate(692.0767242825386 1863.065978754664) rotate(0 48.42396545410156 9.982845175730176)"><text x="0" y="0" font-family="Virgil, Segoe UI Emoji" font-size="16px" fill="#ced4da" text-anchor="start" style="white-space: pre;" direction="ltr" dominant-baseline="text-before-edge">Beschreibung</text></g></g><g clip-path="url(#R8omI80zWPz3bDmpyaaTp)"><g stroke-linecap="round" transform="translate(389.2714795957654 1944.8017428346454) rotate(0 97.65182665281498 16.66276041666663)"><path d="M0 0 C57.97 -1.51, 115.42 0.13, 195.3 0 M0 0 C61.5 -1.93, 122.09 -0.88, 195.3 0 M195.3 0 C195.77 11.37, 195.08 22.45, 195.3 33.33 M195.3 0 C194.49 12.32, 195.27 26.73, 195.3 33.33 M195.3 33.33 C125.24 34.97, 59.43 32.91, 0 33.33 M195.3 33.33 C125.54 32.6, 57.6 32.04, 0 33.33 M0 33.33 C-2.22 24.66, -0.78 18.38, 0 0 M0 33.33 C-0.26 22.12, -0.59 12.03, 0 0" stroke="#000000" stroke-width="1" fill="none"></path></g></g><g clip-path="url(#R8omI80zWPz3bDmpyaaTp)"><g transform="translate(391.27530390197353 1918.8583046761526) rotate(0 26.059974670410156 12.478556469662749)"><text x="0" y="0" font-family="Virgil, Segoe UI Emoji" font-size="20px" fill="#1e1e1e" text-anchor="start" style="white-space: pre;" direction="ltr" dominant-baseline="text-before-edge">Tarif</text></g></g><g clip-path="url(#R8omI80zWPz3bDmpyaaTp)"><g stroke-linecap="round" transform="translate(390.05706987353915 2035.5005275568676) rotate(0 97.65182665281498 16.66276041666663)"><path d="M0 0 C56.05 -1.85, 112.99 0, 195.3 0 M0 0 C47.22 -1.08, 93.16 -0.57, 195.3 0 M195.3 0 C197.19 8.88, 195.21 15.46, 195.3 33.33 M195.3 0 C195.78 7.6, 195.58 13.43, 195.3 33.33 M195.3 33.33 C127.51 34.31, 56.33 31.46, 0 33.33 M195.3 33.33 C127.77 34.02, 61.35 32.11, 0 33.33 M0 33.33 C0.42 24.28, 1.88 15.35, 0 0 M0 33.33 C0.31 26.14, 0.62 18.06, 0 0" stroke="#000000" stroke-width="1" fill="none"></path></g></g><g clip-path="url(#R8omI80zWPz3bDmpyaaTp)"><g transform="translate(392.06089417975454 2009.5570893983747) rotate(0 64.62993621826172 12.478556469662749)"><text x="0" y="0" font-family="Virgil, Segoe UI Emoji" font-size="20px" fill="#1e1e1e" text-anchor="start" style="white-space: pre;" direction="ltr" dominant-baseline="text-before-edge">Preisgarantie</text></g></g><g clip-path="url(#R8omI80zWPz3bDmpyaaTp)"><g stroke-linecap="round" transform="translate(395.2906075750507 2120.4589176889267) rotate(0 6.223614017363445 6.2236140173633885)"><path d="M6.77 0.05 C8.02 0.02, 9.91 0.82, 10.85 1.7 C11.78 2.57, 12.25 3.93, 12.4 5.31 C12.54 6.69, 12.51 8.88, 11.73 9.96 C10.95 11.05, 9.15 11.53, 7.7 11.83 C6.26 12.14, 4.22 12.25, 3.06 11.77 C1.9 11.3, 1.16 10.18, 0.73 8.99 C0.3 7.81, 0.21 5.93, 0.47 4.65 C0.74 3.37, 1.19 2.13, 2.32 1.32 C3.45 0.51, 6.4 -0.09, 7.26 -0.19 C8.13 -0.3, 7.6 0.59, 7.5 0.7 M6.4 0.75 C7.53 0.71, 9.63 0.38, 10.58 1.19 C11.54 2.01, 11.97 4.15, 12.13 5.62 C12.29 7.1, 12.3 8.8, 11.54 10.02 C10.78 11.24, 8.96 12.72, 7.58 12.94 C6.19 13.16, 4.5 12.05, 3.24 11.33 C1.99 10.61, 0.53 9.67, 0.04 8.61 C-0.45 7.56, -0.19 6.2, 0.31 4.99 C0.81 3.78, 1.91 2.32, 3.05 1.37 C4.19 0.43, 6.39 -0.48, 7.15 -0.68 C7.91 -0.88, 7.59 0.01, 7.61 0.16" stroke="#000000" stroke-width="1" fill="none"></path></g></g><g clip-path="url(#R8omI80zWPz3bDmpyaaTp)"><g transform="translate(414.0234850517227 2113.9060783521354) rotate(0 24.499977111816406 13.094006896816836)"><text x="0" y="0" font-family="Virgil, Segoe UI Emoji" font-size="20px" fill="#000000" text-anchor="start" style="white-space: pre;" direction="ltr" dominant-baseline="text-before-edge">Aktiv</text></g></g><g clip-path="url(#R8omI80zWPz3bDmpyaaTp)"><g stroke-linecap="round" transform="translate(398.7864467363179 2123.759236957414) rotate(0 2.9723681944548446 2.972368194454816)"><path d="M2.75 0.01 C3.35 -0.06, 3.92 0.47, 4.44 0.83 C4.97 1.19, 5.7 1.65, 5.9 2.17 C6.11 2.7, 5.94 3.36, 5.67 3.99 C5.39 4.63, 4.89 5.68, 4.26 5.97 C3.63 6.27, 2.46 5.96, 1.88 5.75 C1.3 5.54, 1.11 5.14, 0.78 4.69 C0.46 4.24, -0.04 3.64, -0.07 3.04 C-0.09 2.43, 0.15 1.61, 0.65 1.09 C1.16 0.56, 2.58 0.1, 2.97 -0.1 C3.37 -0.3, 3.1 -0.16, 3.05 -0.14 M2.36 0.46 C3.08 0.33, 4.56 0.19, 5.09 0.45 C5.62 0.7, 5.42 1.38, 5.54 2 C5.65 2.62, 6.01 3.59, 5.77 4.17 C5.53 4.75, 4.7 5.19, 4.09 5.5 C3.48 5.81, 2.77 6.17, 2.12 6.03 C1.47 5.9, 0.54 5.22, 0.2 4.7 C-0.14 4.19, -0.09 3.65, 0.08 2.94 C0.26 2.24, 0.76 1.06, 1.25 0.5 C1.73 -0.07, 2.81 -0.35, 2.98 -0.44 C3.16 -0.53, 2.26 -0.14, 2.3 -0.04" stroke="none" stroke-width="0" fill="black"></path><path d="M2.97 -0.33 C3.61 -0.33, 4.73 0.34, 5.22 0.76 C5.7 1.17, 5.89 1.57, 5.89 2.19 C5.9 2.8, 5.55 3.82, 5.25 4.45 C4.95 5.07, 4.63 5.7, 4.1 5.94 C3.57 6.17, 2.76 6.08, 2.09 5.86 C1.42 5.64, 0.42 5.22, 0.1 4.62 C-0.22 4.02, -0.01 2.87, 0.18 2.27 C0.37 1.67, 0.81 1.41, 1.26 1.01 C1.71 0.61, 2.52 -0.04, 2.86 -0.15 C3.19 -0.25, 3.23 0.34, 3.25 0.38 M3.24 -0.08 C3.89 0.07, 4.98 0.54, 5.41 1.11 C5.85 1.69, 5.9 2.81, 5.85 3.38 C5.8 3.95, 5.55 4.12, 5.11 4.53 C4.67 4.93, 3.8 5.57, 3.21 5.8 C2.61 6.03, 2.04 6.16, 1.57 5.9 C1.1 5.64, 0.6 4.97, 0.39 4.24 C0.19 3.51, 0.09 2.16, 0.34 1.52 C0.6 0.89, 1.38 0.72, 1.94 0.42 C2.5 0.13, 3.47 -0.22, 3.71 -0.25 C3.96 -0.28, 3.54 0.19, 3.4 0.25" stroke="#000000" stroke-width="1" fill="none"></path></g></g><g clip-path="url(#R8omI80zWPz3bDmpyaaTp)"><g stroke-linecap="round" transform="translate(395.32575398797053 2143.4110198426997) rotate(0 6.223614017363445 6.223614017363502)"><path d="M6.05 0.11 C7.3 -0.1, 8.73 -0.1, 9.68 0.63 C10.64 1.36, 11.37 3.07, 11.78 4.47 C12.18 5.86, 12.54 7.75, 12.1 9 C11.67 10.25, 10.48 11.38, 9.18 11.97 C7.88 12.55, 5.59 12.92, 4.29 12.53 C2.99 12.14, 2.05 10.67, 1.39 9.63 C0.72 8.59, 0.28 7.61, 0.29 6.28 C0.3 4.96, 0.49 2.65, 1.45 1.68 C2.41 0.72, 5.3 0.8, 6.07 0.48 C6.84 0.17, 6.02 -0.21, 6.07 -0.2 M5.05 0.3 C6.29 0.07, 7.74 0.83, 8.84 1.32 C9.95 1.81, 11.2 2.16, 11.68 3.25 C12.16 4.33, 12.03 6.4, 11.7 7.85 C11.38 9.29, 10.71 11.09, 9.74 11.9 C8.76 12.71, 7.12 13.07, 5.83 12.72 C4.54 12.38, 2.83 10.82, 1.99 9.8 C1.14 8.79, 0.81 7.9, 0.75 6.62 C0.69 5.34, 0.96 3.14, 1.62 2.11 C2.28 1.07, 4.3 0.76, 4.71 0.41 C5.11 0.06, 4.02 -0.11, 4.05 0.01" stroke="#000000" stroke-width="1" fill="none"></path></g></g><g clip-path="url(#R8omI80zWPz3bDmpyaaTp)"><g transform="translate(414.0412259978548 2137.1346338600633) rotate(0 55.48994445800781 12.5)"><text x="0" y="0" font-family="Virgil, Segoe UI Emoji" font-size="20px" fill="#000000" text-anchor="start" style="white-space: pre;" direction="ltr" dominant-baseline="text-before-edge">Deaktiviert</text></g></g><g clip-path="url(#R8omI80zWPz3bDmpyaaTp)"><g transform="translate(393.33503669696074 2083.865790202403) rotate(0 35.15996551513672 12.478556469662749)"><text x="0" y="0" font-family="Virgil, Segoe UI Emoji" font-size="20px" fill="#1e1e1e" text-anchor="start" style="white-space: pre;" direction="ltr" dominant-baseline="text-before-edge">Status</text></g></g><g clip-path="url(#R8omI80zWPz3bDmpyaaTp)"><g stroke-linecap="round"><g transform="translate(372.45382133702515 1804.4915487951414) rotate(0 474.8784722222226 -2.003038194444457)"><path d="M0 0 C158.29 -0.67, 791.46 -3.34, 949.76 -4.01" stroke="#bbb" stroke-width="2.5" fill="none" stroke-dasharray="1.5 8"></path></g></g><mask></mask></g><g transform="translate(10 1413.2551523154823) rotate(0 41.187957763671875 8.75)"><text x="0" y="0" font-family="Assistant, Segoe UI Emoji" font-size="14px" fill="#999999" text-anchor="start" style="white-space: pre;" direction="ltr" dominant-baseline="text-before-edge">Wärmepumpe</text></g><rect transform="translate(10 1433.7551523154823) rotate(0 698.1601562499999 415.9570312500001)" width="1396.3203124999998px" height="831.9140625000002px" rx="8" ry="8" fill="none" stroke="#bbb" stroke-width="2"></rect><g transform="translate(12.224566477452754 10) rotate(0 618.5032958984375 134.29949190355447)"><text x="0" y="0" font-family="Virgil, Segoe UI Emoji" font-size="214.87918704568716px" fill="#2f9e44" text-anchor="start" style="white-space: pre;" direction="ltr" dominant-baseline="text-before-edge">Wärmepumpe</text></g><g stroke-linecap="round"><g transform="translate(342.4726355817693 1238.0694795266215) rotate(0 341.42933100550727 46.406796827116295)" fill-rule="evenodd"><path d="M-0.32 -0.78 L-0.07 93.65 L681.67 89.29 L682.59 19.26 L605.57 4.69 L0.8 -1.79" stroke="none" stroke-width="0" fill="#fff" fill-rule="evenodd"></path><path d="M0 0 C1.26 27.72, -1.38 55.29, 0 92.81 M0 0 C0.52 30.89, -0.91 63.39, 0 92.81 M0 92.81 C270.31 92.91, 538.33 91.2, 682.86 88.96 M0 92.81 C188.89 91.65, 377.8 89.96, 682.86 88.96 M682.86 88.96 C684.18 73.13, 683.58 56.42, 682.34 18.07 M682.86 88.96 C682.6 73.85, 681.88 60.2, 682.34 18.07 M682.34 18.07 C667.66 14.55, 649.69 14.08, 604.26 6 M682.34 18.07 C658.95 13.93, 633.73 10.02, 604.26 6 M604.26 6 C464.98 6.62, 327.85 5.51, 0 0 M604.26 6 C437.31 2.98, 269.72 1.33, 0 0 M0 0 C0 0, 0 0, 0 0 M0 0 C0 0, 0 0, 0 0" stroke="#000000" stroke-width="1" fill="none"></path></g></g><mask></mask><g transform="translate(379.5022529495618 1262.2710324221634) rotate(0 310.6297302246094 25)"><text x="0" y="0" font-family="Virgil, Segoe UI Emoji" font-size="20px" fill="#000000" text-anchor="start" style="white-space: pre;" direction="ltr" dominant-baseline="text-before-edge">If you click on "Bearbeiten" the data should be loaded into </text><text x="0" y="25.000000000000007" font-family="Virgil, Segoe UI Emoji" font-size="20px" fill="#000000" text-anchor="start" style="white-space: pre;" direction="ltr" dominant-baseline="text-before-edge">the form and if saved the specific entry should be overwritten</text></g><g stroke-linecap="round"><g transform="translate(944.6677535037597 1245.3706245587182) rotate(0 40.50205307824581 15.733386535092961)" fill-rule="evenodd"><path d="M-1.37 0.82 L65.53 33.16 L68.07 30.95 L79.71 9.06 L0.54 -0.48" stroke="none" stroke-width="0" fill="#868e96" fill-rule="evenodd"></path><path d="M0 0 C22.69 8.98, 45.19 22.28, 67.21 31.32 M0 0 C17 7.12, 31.6 15.76, 67.21 31.32 M67.21 31.32 C67.03 31.38, 66.89 31.39, 66.64 31.47 M67.21 31.32 C66.97 31.37, 66.76 31.45, 66.64 31.47 M66.64 31.47 C69.53 26.13, 76.32 18, 81 10.14 M66.64 31.47 C69.15 25.85, 73.56 21.54, 81 10.14 M81 10.14 C61.18 7.98, 39.43 7.21, 0 0 M81 10.14 C54.6 7.03, 30.51 2.74, 0 0 M0 0 C0 0, 0 0, 0 0 M0 0 C0 0, 0 0, 0 0" stroke="#000000" stroke-width="1" fill="none"></path></g></g><mask></mask></svg>