<svg version="1.1" xmlns="http://www.w3.org/2000/svg" viewBox="0 0 1923.4914872752825 3586.698362611369" width="1923.4914872752825" height="3586.698362611369">
  <!-- svg-source:excalidraw -->
  
  <defs>
    <style class="style-fonts">
      @font-face {
        font-family: "Virgil";
        src: url("https://file%2B.vscode-resource.vscode-cdn.net/Users/lukasstrickler/.vscode/extensions/pomdtr.excalidraw-editor-3.7.3/public//dist/excalidraw-assets/Virgil.woff2");
      }
      @font-face {
        font-family: "Cascadia";
        src: url("https://file%2B.vscode-resource.vscode-cdn.net/Users/lukasstrickler/.vscode/extensions/pomdtr.excalidraw-editor-3.7.3/public//dist/excalidraw-assets/Cascadia.woff2");
      }
      @font-face {
        font-family: "Assistant";
        src: url("https://file%2B.vscode-resource.vscode-cdn.net/Users/lukasstrickler/.vscode/extensions/pomdtr.excalidraw-editor-3.7.3/public//dist/excalidraw-assets/Assistant-Regular.woff2");
      }
    </style>
    <clipPath id="zrMmGkR8KDdDo-C2mm2Vj">
            <rect transform="translate(438.67765391342255 882.086869431045) rotate(0 698.1601562499999 415.9570312500001)" width="1396.3203124999998" height="831.9140625000002">
          </rect>
        </clipPath><clipPath id="g65JTA0erPZAWCFQ3d2N9">
            <rect transform="translate(443.41002929937895 1834.6466556155626) rotate(0 698.1601562499999 415.9570312500001)" width="1396.3203124999998" height="831.9140625000002">
          </rect>
        </clipPath><clipPath id="i3_hKY3SnkQhTr5FdnZbr">
            <rect transform="translate(446.72466099714984 2744.784300111369) rotate(0 698.1601562499999 415.9570312500001)" width="1396.3203124999998" height="831.9140625000002">
          </rect>
        </clipPath>
  </defs>
  <rect x="0" y="0" width="1923.4914872752825" height="3586.698362611369" fill="#ffffff"></rect><g clip-path="url(#zrMmGkR8KDdDo-C2mm2Vj)"><g stroke-linecap="round" transform="translate(494.3044694866039 943.9463176904053) rotate(0 640 360)"><path d="M0 0 C289.33 0, 578.66 0, 1280 0 M0 0 C462.3 0, 924.6 0, 1280 0 M1280 0 C1280 167.67, 1280 335.33, 1280 720 M1280 0 C1280 232.48, 1280 464.96, 1280 720 M1280 720 C853.24 720, 426.49 720, 0 720 M1280 720 C999.37 720, 718.73 720, 0 720 M0 720 C0 484.54, 0 249.08, 0 0 M0 720 C0 509.86, 0 299.73, 0 0" stroke="#ced4da" stroke-width="4" fill="none"></path></g></g><g clip-path="url(#zrMmGkR8KDdDo-C2mm2Vj)"><g transform="translate(580.8656410542062 990.9573162832487) rotate(0 192.4453125 20.700000000000003)"><text x="0" y="0" font-family="Helvetica, Segoe UI Emoji" font-size="36px" fill="#1e1e1e" text-anchor="start" style="white-space: pre;" direction="ltr" dominant-baseline="text-before-edge">Stadtwerke Bad Walden</text></g></g><g clip-path="url(#zrMmGkR8KDdDo-C2mm2Vj)"><g stroke-linecap="round"><g transform="translate(579.6277440592912 1186.6309643748334) rotate(0 76.32880290703724 0.20007292832866597)"><path d="M0 0 C25.44 0.07, 127.21 0.33, 152.66 0.4 M0 0 C25.44 0.07, 127.21 0.33, 152.66 0.4" stroke="#9c36b5" stroke-width="1" fill="none"></path></g></g><mask></mask></g><g clip-path="url(#zrMmGkR8KDdDo-C2mm2Vj)"><g transform="translate(581.8775837533394 1168.074342346218) rotate(0 78.703125 9.2)"><text x="0" y="0" font-family="Helvetica, Segoe UI Emoji" font-size="16px" fill="#9c36b5" text-anchor="start" style="white-space: pre;" direction="ltr" dominant-baseline="text-before-edge">Passwort vergessen ?</text></g></g><g clip-path="url(#zrMmGkR8KDdDo-C2mm2Vj)"><g stroke-linecap="round" transform="translate(580.2197329941864 1116.5851932661271) rotate(0 175.28898051730235 22.5)"><path d="M0 0 C116.71 0, 233.42 0, 350.58 0 M0 0 C100.63 0, 201.26 0, 350.58 0 M350.58 0 C350.58 14.59, 350.58 29.19, 350.58 45 M350.58 0 C350.58 12.71, 350.58 25.43, 350.58 45 M350.58 45 C230.58 45, 110.59 45, 0 45 M350.58 45 C270.59 45, 190.6 45, 0 45 M0 45 C0 30.85, 0 16.7, 0 0 M0 45 C0 27.56, 0 10.13, 0 0" stroke="#000000" stroke-width="1" fill="none"></path></g></g><g clip-path="url(#zrMmGkR8KDdDo-C2mm2Vj)"><g transform="translate(580.165727941765 1080.8300782550273) rotate(0 76.2548828125 16.099999999999994)"><text x="0" y="0" font-family="Helvetica, Segoe UI Emoji" font-size="28px" fill="#1e1e1e" text-anchor="start" style="white-space: pre;" direction="ltr" dominant-baseline="text-before-edge">Nutzername</text></g></g><g clip-path="url(#zrMmGkR8KDdDo-C2mm2Vj)"><g stroke-linecap="round" transform="translate(580.4930904480971 1253.7844376333967) rotate(0 175.28898051730235 22.5)"><path d="M0 0 C77.71 0, 155.42 0, 350.58 0 M0 0 C130.06 0, 260.11 0, 350.58 0 M350.58 0 C350.58 15.65, 350.58 31.3, 350.58 45 M350.58 0 C350.58 11.23, 350.58 22.45, 350.58 45 M350.58 45 C241.12 45, 131.66 45, 0 45 M350.58 45 C239.92 45, 129.27 45, 0 45 M0 45 C0 28.95, 0 12.9, 0 0 M0 45 C0 31.78, 0 18.56, 0 0" stroke="#000000" stroke-width="1" fill="none"></path></g></g><g clip-path="url(#zrMmGkR8KDdDo-C2mm2Vj)"><g transform="translate(580.4390853956756 1218.0293226222968) rotate(0 57.572265625 16.099999999999998)"><text x="0" y="0" font-family="Helvetica, Segoe UI Emoji" font-size="28px" fill="#1e1e1e" text-anchor="start" style="white-space: pre;" direction="ltr" dominant-baseline="text-before-edge">Passwort</text></g></g><g clip-path="url(#zrMmGkR8KDdDo-C2mm2Vj)"><g stroke-linecap="round" transform="translate(1061.374583038607 953.7315184215147) rotate(0 350 350)"><path d="M0 0 C219.95 1.54, 438.94 1.52, 700 0 M0 0 C246.58 1.47, 492.91 1.17, 700 0 M700 0 C700.42 148.28, 700.18 295.48, 700 700 M700 0 C701.28 151.01, 701.34 302.1, 700 700 M700 700 C521.45 701.33, 342.59 702.23, 0 700 M700 700 C519.5 699.83, 338.84 700.3, 0 700 M0 700 C-2.37 488.67, -2.85 276.16, 0 0 M0 700 C1.35 445.47, 1.91 190.77, 0 0" stroke="#000000" stroke-width="1" fill="none"></path></g></g><g clip-path="url(#zrMmGkR8KDdDo-C2mm2Vj)"><g stroke-linecap="round" transform="translate(1260.167634972233 1012.9847706413377) rotate(0 47.45860607276063 53.00303966651063)"><path d="M46.22 0.2 C53.55 -0.77, 61.51 1.94, 68.46 6.08 C75.41 10.22, 83.38 17.63, 87.94 25.04 C92.5 32.46, 95.45 41.87, 95.81 50.57 C96.17 59.26, 94.08 69.52, 90.12 77.21 C86.16 84.9, 78.85 91.89, 72.06 96.73 C65.27 101.57, 57.23 105.71, 49.36 106.25 C41.5 106.79, 32 104.01, 24.86 99.97 C17.72 95.94, 10.75 89.31, 6.53 82.02 C2.3 74.74, -0.16 65.06, -0.47 56.26 C-0.78 47.46, 1 37.19, 4.68 29.22 C8.36 21.25, 14.62 13.19, 21.63 8.46 C28.65 3.74, 42.23 2.14, 46.78 0.87 C51.33 -0.41, 48.97 0.19, 48.92 0.78 M68.28 6.9 C75.25 10.17, 82.34 17.17, 86.59 24.38 C90.84 31.59, 93.48 41.31, 93.78 50.16 C94.07 59, 91.66 69.32, 88.34 77.46 C85.02 85.59, 80.25 94.31, 73.85 98.95 C67.45 103.6, 57.83 104.93, 49.94 105.33 C42.06 105.73, 33.61 105.23, 26.53 101.36 C19.46 97.5, 11.7 89.66, 7.49 82.14 C3.29 74.63, 1.69 65.1, 1.3 56.27 C0.9 47.44, 1.56 36.91, 5.12 29.17 C8.68 21.43, 16.2 14.78, 22.65 9.83 C29.1 4.89, 35.87 0.33, 43.84 -0.5 C51.82 -1.33, 66.19 3.53, 70.5 4.87 C74.81 6.21, 70.1 6.38, 69.7 7.54" stroke="none" stroke-width="0" fill="black"></path><path d="M52.77 0.87 C60.32 1.07, 70.21 5.9, 76.57 10.98 C82.94 16.07, 87.91 23.29, 90.96 31.37 C94 39.44, 95.88 50.37, 94.86 59.44 C93.85 68.5, 89.82 78.63, 84.88 85.76 C79.94 92.88, 72.56 98.82, 65.23 102.2 C57.89 105.58, 48.43 107.18, 40.87 106.06 C33.31 104.94, 26.11 100.82, 19.85 95.48 C13.6 90.14, 6.69 82.24, 3.32 74.02 C-0.05 65.79, -1.32 54.82, -0.37 46.13 C0.58 37.45, 4.1 29.04, 9 21.89 C13.9 14.74, 20.63 6.59, 29.04 3.26 C37.45 -0.08, 53.48 1.47, 59.45 1.89 C65.42 2.3, 65.04 4.83, 64.85 5.76 M40.7 1.79 C48.1 -0.41, 59.11 0.78, 66.55 3.69 C73.99 6.59, 80.85 12.08, 85.32 19.2 C89.79 26.31, 92.48 37.52, 93.38 46.37 C94.27 55.22, 93.59 64.1, 90.67 72.29 C87.75 80.47, 81.73 89.77, 75.85 95.49 C69.96 101.21, 62.87 105.6, 55.38 106.58 C47.89 107.56, 38.47 105.09, 30.9 101.4 C23.34 97.71, 14.85 91.47, 9.97 84.45 C5.1 77.42, 2.74 67.86, 1.68 59.26 C0.62 50.67, 0.63 40.99, 3.6 32.89 C6.58 24.79, 13.12 16.17, 19.51 10.67 C25.9 5.17, 38.3 1.23, 41.94 -0.08 C45.58 -1.39, 41.66 1.84, 41.34 2.8" stroke="#000000" stroke-width="1" fill="none"></path></g></g><g clip-path="url(#zrMmGkR8KDdDo-C2mm2Vj)"><g stroke-linecap="round"><g transform="translate(1072.9008016407824 1615.8271387500638) rotate(0 334.52933706756494 -304.1516092303484)" fill-rule="evenodd"><path d="M-1.91 -0.41 L231.85 -431.66 L340.6 -285.72 L526.9 -609.34 L670.87 -4.79 L1.31 -0.59" stroke="none" stroke-width="0" fill="black" fill-rule="evenodd"></path><path d="M0 0 C75.66 -140.36, 150.48 -281.25, 231.26 -430.22 M0 0 C81.81 -153.72, 164.98 -308.08, 231.26 -430.22 M231.26 -430.22 C270.94 -372.92, 317.03 -316.67, 340.73 -283.87 M231.26 -430.22 C258.98 -392.84, 287.95 -355.03, 340.73 -283.87 M340.73 -283.87 C377.93 -348.93, 415.97 -414.94, 525.89 -608.3 M340.73 -283.87 C389.48 -372.35, 440.3 -460.9, 525.89 -608.3 M525.89 -608.3 C573.35 -403.2, 621.2 -198.1, 669.06 -3.47 M525.89 -608.3 C579.09 -393.01, 629.87 -177.21, 669.06 -3.47 M669.06 -3.47 C415.06 -1, 161.18 0.24, 0 0 M669.06 -3.47 C496.03 -0.47, 323.74 0.12, 0 0 M0 0 C0 0, 0 0, 0 0 M0 0 C0 0, 0 0, 0 0" stroke="#000000" stroke-width="1" fill="none"></path></g></g><mask></mask></g><g clip-path="url(#zrMmGkR8KDdDo-C2mm2Vj)"><g stroke-linecap="round" transform="translate(580.4285899629176 1345.7501226285992) rotate(0 70.17697409785035 20.17837629977845)"><path d="M10.09 0 C52.22 0, 94.35 0, 130.26 0 C136.99 0, 140.35 3.36, 140.35 10.09 C140.35 14.78, 140.35 19.47, 140.35 30.27 C140.35 36.99, 136.99 40.36, 130.26 40.36 C104.47 40.36, 78.67 40.36, 10.09 40.36 C3.36 40.36, 0 36.99, 0 30.27 C0 23.15, 0 16.04, 0 10.09 C0 3.36, 3.36 0, 10.09 0" stroke="none" stroke-width="0" fill="black"></path><path d="M10.09 0 C49.06 0, 88.03 0, 130.26 0 M10.09 0 C44.04 0, 77.99 0, 130.26 0 M130.26 0 C136.99 0, 140.35 3.36, 140.35 10.09 M130.26 0 C136.99 0, 140.35 3.36, 140.35 10.09 M140.35 10.09 C140.35 15.24, 140.35 20.39, 140.35 30.27 M140.35 10.09 C140.35 15.3, 140.35 20.51, 140.35 30.27 M140.35 30.27 C140.35 36.99, 136.99 40.36, 130.26 40.36 M140.35 30.27 C140.35 36.99, 136.99 40.36, 130.26 40.36 M130.26 40.36 C101.13 40.36, 72 40.36, 10.09 40.36 M130.26 40.36 C100.85 40.36, 71.44 40.36, 10.09 40.36 M10.09 40.36 C3.36 40.36, 0 36.99, 0 30.27 M10.09 40.36 C3.36 40.36, 0 36.99, 0 30.27 M0 30.27 C0 24.04, 0 17.82, 0 10.09 M0 30.27 C0 25.99, 0 21.71, 0 10.09 M0 10.09 C0 3.36, 3.36 0, 10.09 0 M0 10.09 C0 3.36, 3.36 0, 10.09 0" stroke="white" stroke-width="1" fill="none"></path></g></g><g clip-path="url(#zrMmGkR8KDdDo-C2mm2Vj)"><g transform="translate(624.1284342720337 1353.448640535374) rotate(0 24.4677734375 11.5)"><text x="24.4677734375" y="0" font-family="Helvetica, Segoe UI Emoji" font-size="20px" fill="white" text-anchor="middle" style="white-space: pre;" direction="ltr" dominant-baseline="text-before-edge">Login</text></g></g><g transform="translate(438.67765391342255 861.586869431045) rotate(0 97.19482421875 8.75)"><text x="0" y="0" font-family="Assistant, Segoe UI Emoji" font-size="14px" fill="#999999" text-anchor="start" style="white-space: pre;" direction="ltr" dominant-baseline="text-before-edge">Example - Basic Frame (1280x720)</text></g><rect transform="translate(438.67765391342255 882.086869431045) rotate(0 698.1601562499999 415.9570312500001)" width="1396.3203124999998px" height="831.9140625000002px" rx="8" ry="8" fill="none" stroke="#bbb" stroke-width="2"></rect><g transform="translate(411.0194605742131 10) rotate(0 381.20941162109375 203.64202872731028)"><text x="0" y="0" font-family="Virgil, Segoe UI Emoji" font-size="325.82724596369644px" fill="#2f9e44" text-anchor="start" style="white-space: pre;" direction="ltr" dominant-baseline="text-before-edge">Login</text></g><g transform="translate(412.2794112876486 411.14845514484864) rotate(0 251.39788818359375 134.29949190355447)"><text x="0" y="0" font-family="Virgil, Segoe UI Emoji" font-size="214.87918704568716px" fill="#2f9e44" text-anchor="start" style="white-space: pre;" direction="ltr" dominant-baseline="text-before-edge">Login</text></g><g stroke-linecap="round"><g transform="translate(1237.2796719044654 517.4763012110309) rotate(0 195.85879491336004 90.59101883589531)" fill-rule="evenodd"><path d="M0.28 -0.64 L1.73 178.35 L391.12 179.83 L388.99 42.39 L342.2 0.31 L-1.28 1.32" stroke="none" stroke-width="0" fill="#fff" fill-rule="evenodd"></path><path d="M0 0 C-2.51 54.55, -2.58 108.3, 0 178.15 M0 0 C0.49 69.26, -0.23 139.43, 0 178.15 M0 178.15 C146.97 181.66, 293.64 183.49, 391.72 181.18 M0 178.15 C117.26 180.21, 233.65 181.09, 391.72 181.18 M391.72 181.18 C390.06 123.55, 392.27 67.56, 390.71 40.49 M391.72 181.18 C393.11 143.2, 392.78 103.17, 390.71 40.49 M390.71 40.49 C375.67 29.88, 363.22 20.22, 343.13 1.1 M390.71 40.49 C378.68 31.11, 365.38 20.24, 343.13 1.1 M343.13 1.1 C237.2 -0.68, 132.54 0.41, 0 0 M343.13 1.1 C270.75 2.56, 197.58 2.07, 0 0 M0 0 C0 0, 0 0, 0 0 M0 0 C0 0, 0 0, 0 0" stroke="#000000" stroke-width="1" fill="none"></path></g></g><mask></mask><g transform="translate(1248.1547005215198 532.7587138667743) rotate(0 149.83859252929688 45.28297726389991)"><text x="0" y="0" font-family="Virgil, Segoe UI Emoji" font-size="24.150921207413287px" fill="#1e1e1e" text-anchor="start" style="white-space: pre;" direction="ltr" dominant-baseline="text-before-edge">Square Image of images </text><text x="0" y="30.18865150926662" font-family="Virgil, Segoe UI Emoji" font-size="24.150921207413287px" fill="#1e1e1e" text-anchor="start" style="white-space: pre;" direction="ltr" dominant-baseline="text-before-edge">from the City </text><text x="0" y="60.37730301853324" font-family="Virgil, Segoe UI Emoji" font-size="24.150921207413287px" fill="#1e1e1e" text-anchor="start" style="white-space: pre;" direction="ltr" dominant-baseline="text-before-edge">(rotate between 5-10s)</text></g><g stroke-linecap="round"><g transform="translate(1579.4078788701463 517.9440714276068) rotate(0 24.868658370078833 22.12889092252783)" fill-rule="evenodd"><path d="M0.3 -0.72 L-0.06 43.33 L49.4 43.32 L50.64 37.69 L0.65 -0.29" stroke="none" stroke-width="0" fill="#868e96" fill-rule="evenodd"></path><path d="M0 0 C0.74 15.27, -0.65 30.57, 0 44.26 M0 0 C0.28 10.18, -0.58 20.16, 0 44.26 M0 44.26 C15.36 44.51, 30.46 44.56, 48.89 43.84 M0 44.26 C19.44 43.86, 38.09 43.39, 48.89 43.84 M48.89 43.84 C49 42.4, 49.42 41.53, 49.74 38.36 M48.89 43.84 C49.17 41.66, 49.62 39.61, 49.74 38.36 M49.74 38.36 C33.68 27.38, 18.08 14.82, 0 0 M49.74 38.36 C31.05 23.32, 12.07 9.16, 0 0 M0 0 C0 0, 0 0, 0 0 M0 0 C0 0, 0 0, 0 0" stroke="#000000" stroke-width="1" fill="none"></path></g></g><mask></mask><g stroke-linecap="round"><g transform="translate(1524.5331527125636 696.5353108767315) rotate(0 97.07894877733725 129.40434950882843)"><path d="M0 0 C28.41 25.4, 138.11 109.29, 170.47 152.43 C202.83 195.56, 190.21 241.08, 194.16 258.81" stroke="#f08c00" stroke-width="4.5" fill="none" stroke-dasharray="1.5 10"></path></g></g><mask></mask><g stroke-linecap="round"><g transform="translate(898.64984393743 1631.3687418525906) rotate(0 64.21225375804806 121.81519541668138)"><path d="M0 0 C19.8 28.77, 97.41 132.02, 118.82 172.62 C140.22 213.23, 126.82 231.8, 128.42 243.63" stroke="#e03131" stroke-width="4.5" fill="none" stroke-dasharray="8 12"></path></g><g transform="translate(898.64984393743 1631.3687418525906) rotate(0 64.21225375804806 121.81519541668138)"><path d="M120.97 214.57 C123.3 223.64, 125.62 232.72, 128.42 243.63" stroke="#e03131" stroke-width="4.5" fill="none"></path></g><g transform="translate(898.64984393743 1631.3687418525906) rotate(0 64.21225375804806 121.81519541668138)"><path d="M141.39 216.58 C137.34 225.02, 133.29 233.47, 128.42 243.63" stroke="#e03131" stroke-width="4.5" fill="none"></path></g></g><mask></mask><g stroke-linecap="round"><g transform="translate(1063.8137576435097 1741.7618964427186) rotate(0 200.30535365352614 31.811919856386623)" fill-rule="evenodd"><path d="M-1.28 1.32 L-1.09 62.55 L399.16 63.13 L397.87 14.39 L351.94 2.17 L0.35 -0.83" stroke="none" stroke-width="0" fill="#fff" fill-rule="evenodd"></path><path d="M0 0 C-1.51 21.97, -0.14 38.97, 0 62.56 M0 0 C0.83 18.24, 0.66 36.23, 0 62.56 M0 62.56 C151.11 64.03, 300.27 63.75, 400.61 63.62 M0 62.56 C93.06 61.22, 186.41 61.93, 400.61 63.62 M400.61 63.62 C398.75 44.84, 397.65 28.19, 399.58 14.22 M400.61 63.62 C401.27 52.72, 400.95 42.33, 399.58 14.22 M399.58 14.22 C382.93 9.3, 365.02 4.31, 350.92 0.39 M399.58 14.22 C385.48 9.68, 371.09 6.95, 350.92 0.39 M350.92 0.39 C226.92 -0.24, 100.3 -1.31, 0 0 M350.92 0.39 C252.71 -1.96, 154.92 -1.8, 0 0 M0 0 C0 0, 0 0, 0 0 M0 0 C0 0, 0 0, 0 0" stroke="#e03131" stroke-width="1" fill="none"></path></g></g><mask></mask><g transform="translate(1074.5627774194913 1755.7390202871745) rotate(0 163.6005859375 14.72684237724809)"><text x="0" y="0" font-family="Virgil, Segoe UI Emoji" font-size="23.562947803596906px" fill="#e03131" text-anchor="start" style="white-space: pre;" direction="ltr" dominant-baseline="text-before-edge">When Credidentials are valid</text></g><g stroke-linecap="round"><g transform="translate(1414.9376902786248 1742.2174449604793) rotate(0 23.98614048210311 13.29682712929872)" fill-rule="evenodd"><path d="M0.14 -0.32 L32.98 26.7 L47.1 14.15 L47.11 14.66 L-0.46 -0.39" stroke="none" stroke-width="0" fill="#868e96" fill-rule="evenodd"></path><path d="M0 0 C12 10.28, 23.72 20.86, 32.11 26.59 M0 0 C10.03 8.41, 19.24 16.32, 32.11 26.59 M32.11 26.59 C37.58 21.18, 44.96 16.6, 47.4 14.82 M32.11 26.59 C36.72 23.67, 40.91 19.8, 47.4 14.82 M47.4 14.82 C47.51 14.51, 47.71 14.24, 47.97 13.7 M47.4 14.82 C47.55 14.56, 47.66 14.25, 47.97 13.7 M47.97 13.7 C33.18 8.52, 19.29 5.37, 0 0 M47.97 13.7 C38.07 11.38, 27.58 8.28, 0 0 M0 0 C0 0, 0 0, 0 0 M0 0 C0 0, 0 0, 0 0" stroke="#e03131" stroke-width="1" fill="none"></path></g></g><mask></mask><g clip-path="url(#g65JTA0erPZAWCFQ3d2N9)"><g stroke-linecap="round" transform="translate(499.0368448725603 1896.506103874923) rotate(0 640 360)"><path d="M0 0 C259.6 0, 519.21 0, 1280 0 M0 0 C347.2 0, 694.4 0, 1280 0 M1280 0 C1280 244.23, 1280 488.46, 1280 720 M1280 0 C1280 257.06, 1280 514.12, 1280 720 M1280 720 C794.55 720, 309.1 720, 0 720 M1280 720 C949.64 720, 619.28 720, 0 720 M0 720 C0 510.4, 0 300.8, 0 0 M0 720 C0 469.92, 0 219.83, 0 0" stroke="#ced4da" stroke-width="4" fill="none"></path></g></g><g clip-path="url(#g65JTA0erPZAWCFQ3d2N9)"><g transform="translate(585.5980164401626 1943.517102467766) rotate(0 192.4453125 20.69999999999999)"><text x="0" y="0" font-family="Helvetica, Segoe UI Emoji" font-size="36px" fill="#1e1e1e" text-anchor="start" style="white-space: pre;" direction="ltr" dominant-baseline="text-before-edge">Stadtwerke Bad Walden</text></g></g><g clip-path="url(#g65JTA0erPZAWCFQ3d2N9)"><g stroke-linecap="round"><g transform="translate(584.3601194452476 2139.190750559351) rotate(0 79.34986726742454 -0.693774095730987)"><path d="M0 0 C26.45 -0.23, 132.25 -1.16, 158.7 -1.39 M0 0 C26.45 -0.23, 132.25 -1.16, 158.7 -1.39" stroke="#9c36b5" stroke-width="1" fill="none"></path></g></g><mask></mask></g><g clip-path="url(#g65JTA0erPZAWCFQ3d2N9)"><g transform="translate(586.6099591392958 2120.6341285307353) rotate(0 76.48046875 9.199999999999989)"><text x="0" y="0" font-family="Helvetica, Segoe UI Emoji" font-size="16px" fill="#9c36b5" text-anchor="start" style="white-space: pre;" direction="ltr" dominant-baseline="text-before-edge">Passwort vergessen?</text></g></g><g clip-path="url(#g65JTA0erPZAWCFQ3d2N9)"><g stroke-linecap="round" transform="translate(584.9521083801446 2069.1449794506443) rotate(0 175.28898051730235 22.5)"><path d="M0 0 C131.41 0, 262.83 0, 350.58 0 M0 0 C81.73 0, 163.46 0, 350.58 0 M350.58 0 C350.58 16.86, 350.58 33.72, 350.58 45 M350.58 0 C350.58 9.51, 350.58 19.01, 350.58 45 M350.58 45 C232.75 45, 114.91 45, 0 45 M350.58 45 C247.08 45, 143.59 45, 0 45 M0 45 C0 29.01, 0 13.02, 0 0 M0 45 C0 32.41, 0 19.82, 0 0" stroke="#000000" stroke-width="1" fill="none"></path></g></g><g clip-path="url(#g65JTA0erPZAWCFQ3d2N9)"><g transform="translate(584.8981033277214 2033.3898644395447) rotate(0 76.2548828125 16.100000000000023)"><text x="0" y="0" font-family="Helvetica, Segoe UI Emoji" font-size="28px" fill="#1e1e1e" text-anchor="start" style="white-space: pre;" direction="ltr" dominant-baseline="text-before-edge">Nutzername</text></g></g><g clip-path="url(#g65JTA0erPZAWCFQ3d2N9)"><g transform="translate(733.566284209947 2080.1449794506443) rotate(0 26.674804687499986 11.5)"><text x="26.6748046875" y="0" font-family="Helvetica, Segoe UI Emoji" font-size="20px" fill="#1e1e1e" text-anchor="middle" style="white-space: pre;" direction="ltr" dominant-baseline="text-before-edge">User1</text></g></g><g clip-path="url(#g65JTA0erPZAWCFQ3d2N9)"><g stroke-linecap="round" transform="translate(585.2254658340553 2206.344223817914) rotate(0 175.28898051730235 22.5)"><path d="M0 0 C118.92 0, 237.84 0, 350.58 0 M0 0 C125.17 0, 250.33 0, 350.58 0 M350.58 0 C350.58 17.07, 350.58 34.13, 350.58 45 M350.58 0 C350.58 11.61, 350.58 23.23, 350.58 45 M350.58 45 C248.52 45, 146.46 45, 0 45 M350.58 45 C228.81 45, 107.04 45, 0 45 M0 45 C0 35.79, 0 26.58, 0 0 M0 45 C0 33.82, 0 22.64, 0 0" stroke="#000000" stroke-width="1" fill="none"></path></g></g><g clip-path="url(#g65JTA0erPZAWCFQ3d2N9)"><g transform="translate(585.171460781632 2170.5891088068147) rotate(0 57.572265625 16.100000000000023)"><text x="0" y="0" font-family="Helvetica, Segoe UI Emoji" font-size="28px" fill="#1e1e1e" text-anchor="start" style="white-space: pre;" direction="ltr" dominant-baseline="text-before-edge">Passwort</text></g></g><g clip-path="url(#g65JTA0erPZAWCFQ3d2N9)"><g stroke-linecap="round" transform="translate(1066.1069584245633 1906.2913046060319) rotate(0 350 350)"><path d="M0 0 C170.15 2.44, 339.99 2.39, 700 0 M0 0 C171.63 2.19, 342.69 2.42, 700 0 M700 0 C698.36 276.9, 699.33 552.51, 700 700 M700 0 C700.2 203.48, 699.87 407.35, 700 700 M700 700 C480.38 700.76, 260.76 700.25, 0 700 M700 700 C451.47 697.31, 203.81 697.1, 0 700 M0 700 C2.18 495.13, 2.07 289.34, 0 0 M0 700 C-0.04 510.55, -0.51 320.75, 0 0" stroke="#000000" stroke-width="1" fill="none"></path></g></g><g clip-path="url(#g65JTA0erPZAWCFQ3d2N9)"><g stroke-linecap="round" transform="translate(1264.9000103581893 1965.5445568258551) rotate(0 47.45860607276063 53.00303966651063)"><path d="M47.65 -0.11 C55.15 -0.98, 64.27 3.23, 71.22 7.46 C78.17 11.68, 85.46 17.58, 89.35 25.24 C93.24 32.91, 94.76 44.37, 94.54 53.46 C94.32 62.55, 91.8 72.11, 88.03 79.77 C84.26 87.43, 78.51 95.15, 71.94 99.43 C65.37 103.7, 56.76 105.63, 48.63 105.42 C40.5 105.2, 30.05 102.35, 23.19 98.14 C16.33 93.93, 11.31 87.52, 7.48 80.16 C3.65 72.8, 0.56 62.85, 0.21 53.97 C-0.14 45.09, 1.48 34.64, 5.39 26.86 C9.29 19.07, 15.13 11.7, 23.62 7.26 C32.12 2.82, 49.26 0.54, 56.35 0.2 C63.44 -0.14, 66.05 4.21, 66.15 5.22 M47.26 -0.7 C54.6 -1.61, 62.34 2.58, 69.13 6.77 C75.92 10.97, 83.7 16.94, 88 24.48 C92.3 32.02, 94.77 43.23, 94.93 52.03 C95.1 60.84, 92.8 69.48, 88.97 77.3 C85.14 85.11, 78.69 93.99, 71.95 98.9 C65.21 103.81, 56.3 106.39, 48.54 106.78 C40.78 107.17, 32.34 105.51, 25.37 101.24 C18.41 96.97, 11.09 88.84, 6.74 81.15 C2.39 73.47, -0.44 64.02, -0.74 55.13 C-1.03 46.23, 1.32 35.89, 4.96 27.79 C8.6 19.7, 14.1 11.31, 21.12 6.55 C28.14 1.79, 42.78 0.14, 47.08 -0.75 C51.38 -1.63, 46.89 0.03, 46.92 1.25" stroke="none" stroke-width="0" fill="black"></path><path d="M62.7 3.96 C69.95 6.14, 77.68 12.22, 82.87 19.01 C88.07 25.79, 92.42 35.84, 93.88 44.66 C95.33 53.47, 94.33 63.69, 91.62 71.89 C88.91 80.1, 83.45 88.51, 77.61 93.91 C71.77 99.31, 64.32 102.79, 56.58 104.29 C48.85 105.79, 38.93 105.8, 31.21 102.93 C23.5 100.05, 15.38 93.98, 10.29 87.06 C5.2 80.13, 1.79 70.02, 0.69 61.36 C-0.41 52.71, 1.15 43.24, 3.7 35.11 C6.25 26.97, 10.02 18.19, 16.01 12.57 C21.99 6.95, 29.99 2.13, 39.61 1.38 C49.22 0.62, 66.85 5.68, 73.69 8.07 C80.52 10.46, 81.33 15.12, 80.6 15.72 M42.56 -1.12 C50.02 -2.68, 60.21 0.2, 67.67 3.88 C75.13 7.57, 82.64 13.78, 87.31 21 C91.97 28.22, 95.04 38.33, 95.65 47.2 C96.26 56.08, 94.14 66.09, 90.95 74.25 C87.77 82.41, 83.04 91.07, 76.52 96.15 C69.99 101.22, 60.11 103.62, 51.81 104.72 C43.51 105.83, 33.97 106.33, 26.72 102.78 C19.46 99.23, 12.84 90.66, 8.27 83.42 C3.7 76.18, 0.1 68.05, -0.72 59.35 C-1.54 50.66, 0.13 39.56, 3.35 31.27 C6.57 22.99, 12.27 14.8, 18.61 9.65 C24.94 4.5, 37.23 1.56, 41.38 0.4 C45.53 -0.77, 43.18 1.91, 43.52 2.66" stroke="#000000" stroke-width="1" fill="none"></path></g></g><g clip-path="url(#g65JTA0erPZAWCFQ3d2N9)"><g stroke-linecap="round"><g transform="translate(1077.6331770267388 2568.3869249345807) rotate(0 334.52933706756494 -304.1516092303484)" fill-rule="evenodd"><path d="M1.42 1.66 L230.08 -431.9 L338.82 -281.96 L526.54 -607.88 L670.23 -5.07 L0.06 0.38" stroke="none" stroke-width="0" fill="black" fill-rule="evenodd"></path><path d="M0 0 C84.84 -161.99, 171.19 -322.41, 231.26 -430.22 M0 0 C48.99 -90.79, 97.8 -181.66, 231.26 -430.22 M231.26 -430.22 C269.04 -379.88, 304.28 -331.04, 340.73 -283.87 M231.26 -430.22 C262.35 -388.84, 294.63 -344.29, 340.73 -283.87 M340.73 -283.87 C405.33 -399.35, 469.33 -515.53, 525.89 -608.3 M340.73 -283.87 C391.9 -374.38, 444.05 -464.88, 525.89 -608.3 M525.89 -608.3 C579.95 -372.42, 635.83 -135.68, 669.06 -3.47 M525.89 -608.3 C569.26 -419.81, 613.85 -232.62, 669.06 -3.47 M669.06 -3.47 C511.15 -4.69, 353.03 -3.97, 0 0 M669.06 -3.47 C462.78 -0.18, 256.58 1.39, 0 0 M0 0 C0 0, 0 0, 0 0 M0 0 C0 0, 0 0, 0 0" stroke="#000000" stroke-width="1" fill="none"></path></g></g><mask></mask></g><g clip-path="url(#g65JTA0erPZAWCFQ3d2N9)"><g transform="translate(713.8152276013576 2217.344223817914) rotate(0 46.699218749999986 11.5)"><text x="46.69921875" y="0" font-family="Helvetica, Segoe UI Emoji" font-size="20px" fill="#1e1e1e" text-anchor="middle" style="white-space: pre;" direction="ltr" dominant-baseline="text-before-edge">************</text></g></g><g clip-path="url(#g65JTA0erPZAWCFQ3d2N9)"><g transform="translate(588.9821532142942 2271.835858901067) rotate(0 169.51171875 11.5)"><text x="0" y="0" font-family="Helvetica, Segoe UI Emoji" font-size="20px" fill="#e03131" text-anchor="start" style="white-space: pre;" direction="ltr" dominant-baseline="text-before-edge">Falsches Passwort oder Nutzername !</text></g></g><g clip-path="url(#g65JTA0erPZAWCFQ3d2N9)"><g stroke-linecap="round" transform="translate(586.5863387309873 2304.1983836953477) rotate(0 70.17697409785035 20.178376299778392)"><path d="M10.09 0 C46.5 0, 82.91 0, 130.26 0 C136.99 0, 140.35 3.36, 140.35 10.09 C140.35 15.78, 140.35 21.47, 140.35 30.27 C140.35 36.99, 136.99 40.36, 130.26 40.36 C98.72 40.36, 67.17 40.36, 10.09 40.36 C3.36 40.36, 0 36.99, 0 30.27 C0 24.5, 0 18.74, 0 10.09 C0 3.36, 3.36 0, 10.09 0" stroke="none" stroke-width="0" fill="black"></path><path d="M10.09 0 C55.67 0, 101.24 0, 130.26 0 M10.09 0 C41.11 0, 72.12 0, 130.26 0 M130.26 0 C136.99 0, 140.35 3.36, 140.35 10.09 M130.26 0 C136.99 0, 140.35 3.36, 140.35 10.09 M140.35 10.09 C140.35 17.26, 140.35 24.43, 140.35 30.27 M140.35 10.09 C140.35 15.73, 140.35 21.38, 140.35 30.27 M140.35 30.27 C140.35 36.99, 136.99 40.36, 130.26 40.36 M140.35 30.27 C140.35 36.99, 136.99 40.36, 130.26 40.36 M130.26 40.36 C97.8 40.36, 65.33 40.36, 10.09 40.36 M130.26 40.36 C86.27 40.36, 42.27 40.36, 10.09 40.36 M10.09 40.36 C3.36 40.36, 0 36.99, 0 30.27 M10.09 40.36 C3.36 40.36, 0 36.99, 0 30.27 M0 30.27 C0 22.54, 0 14.8, 0 10.09 M0 30.27 C0 24.96, 0 19.66, 0 10.09 M0 10.09 C0 3.36, 3.36 0, 10.09 0 M0 10.09 C0 3.36, 3.36 0, 10.09 0" stroke="white" stroke-width="1" fill="none"></path></g></g><g clip-path="url(#g65JTA0erPZAWCFQ3d2N9)"><g transform="translate(630.2861830401034 2311.8969016021224) rotate(0 24.4677734375 11.5)"><text x="24.4677734375" y="0" font-family="Helvetica, Segoe UI Emoji" font-size="20px" fill="white" text-anchor="middle" style="white-space: pre;" direction="ltr" dominant-baseline="text-before-edge">Login</text></g></g><g transform="translate(443.41002929937895 1814.1466556155626) rotate(0 97.19482421875 8.75)"><text x="0" y="0" font-family="Assistant, Segoe UI Emoji" font-size="14px" fill="#999999" text-anchor="start" style="white-space: pre;" direction="ltr" dominant-baseline="text-before-edge">Example - Basic Frame (1280x720)</text></g><rect transform="translate(443.41002929937895 1834.6466556155626) rotate(0 698.1601562499999 415.9570312500001)" width="1396.3203124999998px" height="831.9140625000002px" rx="8" ry="8" fill="none" stroke="#bbb" stroke-width="2"></rect><g stroke-linecap="round"><g transform="translate(603.3589803000577 1732.4537385313) rotate(0 200.30535365352614 31.811919856386623)" fill-rule="evenodd"><path d="M-0.06 -1.57 L-1.82 62.19 L399.99 65.2 L399.45 14.09 L351.17 0.02 L1.8 -0.98" stroke="none" stroke-width="0" fill="#fff" fill-rule="evenodd"></path><path d="M0 0 C1.34 22.31, -0.45 48.37, 0 62.56 M0 0 C-0.99 14.19, 0.09 25.77, 0 62.56 M0 62.56 C125.73 61.54, 249.95 61.71, 400.61 63.62 M0 62.56 C83 62.83, 165.63 62.93, 400.61 63.62 M400.61 63.62 C399.18 47.62, 399.55 29.27, 399.58 14.22 M400.61 63.62 C399.61 49.7, 398.77 38.08, 399.58 14.22 M399.58 14.22 C388.61 9.31, 374.95 5.44, 350.92 0.39 M399.58 14.22 C386.8 11.34, 373.06 6.22, 350.92 0.39 M350.92 0.39 C226.05 1.29, 100.97 -0.07, 0 0 M350.92 0.39 C233.48 2.2, 117.79 1.86, 0 0 M0 0 C0 0, 0 0, 0 0 M0 0 C0 0, 0 0, 0 0" stroke="#e03131" stroke-width="1" fill="none"></path></g></g><mask></mask><g transform="translate(614.1080000760376 1746.4308623757554) rotate(0 167.37017822265625 14.72684237724809)"><text x="0" y="0" font-family="Virgil, Segoe UI Emoji" font-size="23.562947803596906px" fill="#e03131" text-anchor="start" style="white-space: pre;" direction="ltr" dominant-baseline="text-before-edge">When Credidentials are wrong</text></g><g stroke-linecap="round"><g transform="translate(954.482912935171 1732.9092870490606) rotate(0 23.98614048210311 13.29682712929872)" fill-rule="evenodd"><path d="M-0.59 -0.84 L31.16 27.55 L47.73 15.03 L48.56 12.9 L0.03 0.19" stroke="none" stroke-width="0" fill="#868e96" fill-rule="evenodd"></path><path d="M0 0 C5.88 5.5, 13.47 10.26, 32.11 26.59 M0 0 C12.49 10.66, 25.12 21.17, 32.11 26.59 M32.11 26.59 C35.64 22.26, 40.81 20.03, 47.4 14.82 M32.11 26.59 C35.85 23.73, 39.53 20.97, 47.4 14.82 M47.4 14.82 C47.59 14.47, 47.83 13.98, 47.97 13.7 M47.4 14.82 C47.53 14.55, 47.65 14.32, 47.97 13.7 M47.97 13.7 C35.95 9.31, 24.51 7.31, 0 0 M47.97 13.7 C29.58 8.7, 10.63 3.12, 0 0 M0 0 C0 0, 0 0, 0 0 M0 0 C0 0, 0 0, 0 0" stroke="#e03131" stroke-width="1" fill="none"></path></g></g><mask></mask><g stroke-linecap="round"><g transform="translate(561.0285282481018 1190.2319348822405) rotate(0 -98.0418640120024 790.8804734057445)"><path d="M0 0 C-32.68 114.83, -173.25 425.34, -196.08 688.97 C-218.92 952.59, -146.85 1432.96, -137 1581.76" stroke="#e03131" stroke-width="4.5" fill="none" stroke-dasharray="8 12"></path></g><g transform="translate(561.0285282481018 1190.2319348822405) rotate(0 -98.0418640120024 790.8804734057445)"><path d="M-150.09 1554.77 C-146.05 1563.09, -142.01 1571.42, -137 1581.76" stroke="#e03131" stroke-width="4.5" fill="none"></path></g><g transform="translate(561.0285282481018 1190.2319348822405) rotate(0 -98.0418640120024 790.8804734057445)"><path d="M-129.67 1552.67 C-131.94 1561.65, -134.2 1570.62, -137 1581.76" stroke="#e03131" stroke-width="4.5" fill="none"></path></g></g><mask></mask><g clip-path="url(#i3_hKY3SnkQhTr5FdnZbr)"><g stroke-linecap="round" transform="translate(502.3514765703312 2806.6437483707286) rotate(0 640 359.9999999999999)"><path d="M0 0 C372.62 0, 745.25 0, 1280 0 M0 0 C444.59 0, 889.19 0, 1280 0 M1280 0 C1280 147.33, 1280 294.66, 1280 720 M1280 0 C1280 178.86, 1280 357.71, 1280 720 M1280 720 C785.44 720, 290.88 720, 0 720 M1280 720 C946.24 720, 612.48 720, 0 720 M0 720 C0 565.45, 0 410.89, 0 0 M0 720 C0 443.1, 0 166.21, 0 0" stroke="#ced4da" stroke-width="4" fill="none"></path></g></g><g clip-path="url(#i3_hKY3SnkQhTr5FdnZbr)"><g transform="translate(588.9126481379335 2853.6547469635725) rotate(0 192.4453125 20.700000000000045)"><text x="0" y="0" font-family="Helvetica, Segoe UI Emoji" font-size="36px" fill="#1e1e1e" text-anchor="start" style="white-space: pre;" direction="ltr" dominant-baseline="text-before-edge">Stadtwerke Bad Walden</text></g></g><g clip-path="url(#i3_hKY3SnkQhTr5FdnZbr)"><g stroke-linecap="round"><g transform="translate(587.6747511430185 3049.3283950551568) rotate(0 76.32880290703724 0.2000729283287228)"><path d="M0 0 C25.44 0.07, 127.21 0.33, 152.66 0.4 M0 0 C25.44 0.07, 127.21 0.33, 152.66 0.4" stroke="#9c36b5" stroke-width="1" fill="none"></path></g></g><mask></mask></g><g clip-path="url(#i3_hKY3SnkQhTr5FdnZbr)"><g transform="translate(589.9245908370667 3030.7717730265413) rotate(0 78.703125 9.200000000000045)"><text x="0" y="0" font-family="Helvetica, Segoe UI Emoji" font-size="16px" fill="#9c36b5" text-anchor="start" style="white-space: pre;" direction="ltr" dominant-baseline="text-before-edge">Passwort vergessen ?</text></g></g><g clip-path="url(#i3_hKY3SnkQhTr5FdnZbr)"><g stroke-linecap="round" transform="translate(588.2667400779137 2979.282623946451) rotate(0 175.28898051730235 22.5)"><path d="M0 0 C124.58 0, 249.17 0, 350.58 0 M0 0 C98.07 0, 196.14 0, 350.58 0 M350.58 0 C350.58 17.57, 350.58 35.14, 350.58 45 M350.58 0 C350.58 13.97, 350.58 27.93, 350.58 45 M350.58 45 C267.83 45, 185.08 45, 0 45 M350.58 45 C242.45 45, 134.32 45, 0 45 M0 45 C0 31.56, 0 18.13, 0 0 M0 45 C0 27.18, 0 9.36, 0 0" stroke="#000000" stroke-width="1" fill="none"></path></g></g><g clip-path="url(#i3_hKY3SnkQhTr5FdnZbr)"><g transform="translate(588.2127350254923 2943.527508935351) rotate(0 76.2548828125 16.100000000000023)"><text x="0" y="0" font-family="Helvetica, Segoe UI Emoji" font-size="28px" fill="#1e1e1e" text-anchor="start" style="white-space: pre;" direction="ltr" dominant-baseline="text-before-edge">Nutzername</text></g></g><g clip-path="url(#i3_hKY3SnkQhTr5FdnZbr)"><g stroke-linecap="round" transform="translate(588.5400975318244 3116.6355639240574) rotate(0 175.28898051730235 22.5)"><path d="M0 0 C97.13 0, 194.26 0, 350.58 0 M0 0 C72.65 0, 145.3 0, 350.58 0 M350.58 0 C350.58 14.12, 350.58 28.24, 350.58 45 M350.58 0 C350.58 17.79, 350.58 35.58, 350.58 45 M350.58 45 C270.83 45, 191.08 45, 0 45 M350.58 45 C259.89 45, 169.2 45, 0 45 M0 45 C0 32.01, 0 19.02, 0 0 M0 45 C0 34.64, 0 24.28, 0 0" stroke="#000000" stroke-width="1" fill="none"></path></g></g><g clip-path="url(#i3_hKY3SnkQhTr5FdnZbr)"><g transform="translate(588.4860924794029 3080.880448912957) rotate(0 57.572265625 16.100000000000023)"><text x="0" y="0" font-family="Helvetica, Segoe UI Emoji" font-size="28px" fill="#1e1e1e" text-anchor="start" style="white-space: pre;" direction="ltr" dominant-baseline="text-before-edge">Passwort</text></g></g><g clip-path="url(#i3_hKY3SnkQhTr5FdnZbr)"><g stroke-linecap="round" transform="translate(589.1238230141007 3217.2904176172633) rotate(0 70.17697409785035 20.178376299778506)"><path d="M10.09 0 C40.04 0, 70 0, 130.26 0 C136.99 0, 140.35 3.36, 140.35 10.09 C140.35 17.83, 140.35 25.58, 140.35 30.27 C140.35 36.99, 136.99 40.36, 130.26 40.36 C91.49 40.36, 52.71 40.36, 10.09 40.36 C3.36 40.36, 0 36.99, 0 30.27 C0 24.29, 0 18.32, 0 10.09 C0 3.36, 3.36 0, 10.09 0" stroke="none" stroke-width="0" fill="black"></path><path d="M10.09 0 C49.69 0, 89.3 0, 130.26 0 M10.09 0 C38.17 0, 66.24 0, 130.26 0 M130.26 0 C136.99 0, 140.35 3.36, 140.35 10.09 M130.26 0 C136.99 0, 140.35 3.36, 140.35 10.09 M140.35 10.09 C140.35 15.04, 140.35 19.99, 140.35 30.27 M140.35 10.09 C140.35 17.94, 140.35 25.79, 140.35 30.27 M140.35 30.27 C140.35 36.99, 136.99 40.36, 130.26 40.36 M140.35 30.27 C140.35 36.99, 136.99 40.36, 130.26 40.36 M130.26 40.36 C84.15 40.36, 38.03 40.36, 10.09 40.36 M130.26 40.36 C104.26 40.36, 78.26 40.36, 10.09 40.36 M10.09 40.36 C3.36 40.36, 0 36.99, 0 30.27 M10.09 40.36 C3.36 40.36, 0 36.99, 0 30.27 M0 30.27 C0 24.34, 0 18.41, 0 10.09 M0 30.27 C0 23.53, 0 16.79, 0 10.09 M0 10.09 C0 3.36, 3.36 0, 10.09 0 M0 10.09 C0 3.36, 3.36 0, 10.09 0" stroke="white" stroke-width="1" fill="none"></path></g></g><g clip-path="url(#i3_hKY3SnkQhTr5FdnZbr)"><g transform="translate(632.8236673232168 3224.9889355240384) rotate(0 24.4677734375 11.500000000000114)"><text x="24.4677734375" y="0" font-family="Helvetica, Segoe UI Emoji" font-size="20px" fill="white" text-anchor="middle" style="white-space: pre;" direction="ltr" dominant-baseline="text-before-edge">Login</text></g></g><g clip-path="url(#i3_hKY3SnkQhTr5FdnZbr)"><g stroke-linecap="round" transform="translate(1069.4215901223342 2816.428949101838) rotate(0 350 349.9999999999999)"><path d="M0 0 C244.87 -2.01, 490.57 -2.42, 700 0 M0 0 C187.59 -0.56, 375.08 0.09, 700 0 M700 0 C699.43 177.07, 698.9 354.43, 700 700 M700 0 C697.81 193.21, 697.68 385.55, 700 700 M700 700 C450.3 700.63, 200.47 699.87, 0 700 M700 700 C466.56 702.54, 234.21 702.41, 0 700 M0 700 C-0.62 447.71, -1.95 195.59, 0 0 M0 700 C-0.68 422.91, -0.9 146.54, 0 0" stroke="#000000" stroke-width="1" fill="none"></path></g></g><g clip-path="url(#i3_hKY3SnkQhTr5FdnZbr)"><g stroke-linecap="round" transform="translate(1268.2146420559602 2875.6822013216615) rotate(0 47.45860607276063 53.00303966651063)"><path d="M42.66 0.03 C50.21 -1.58, 59.58 1.06, 66.9 4.58 C74.23 8.11, 81.96 14.21, 86.6 21.19 C91.23 28.17, 93.95 37.73, 94.72 46.48 C95.5 55.23, 94.45 65.64, 91.25 73.69 C88.06 81.73, 82.12 89.28, 75.56 94.74 C69 100.2, 59.81 105.19, 51.89 106.44 C43.97 107.69, 35.11 105.78, 28.03 102.26 C20.96 98.75, 13.91 92.65, 9.43 85.34 C4.94 78.03, 2 67.16, 1.14 58.41 C0.29 49.65, 1.3 40.72, 4.29 32.82 C7.29 24.92, 11.51 16.41, 19.1 11.01 C26.69 5.61, 43.61 2.04, 49.83 0.42 C56.05 -1.19, 56.46 0.46, 56.41 1.32 M35.84 2.44 C42.74 -0.05, 53.16 -0.57, 61.04 2 C68.93 4.58, 77.46 11.4, 83.15 17.9 C88.84 24.4, 93.38 32.55, 95.18 41.01 C96.99 49.46, 96.79 60.32, 93.99 68.62 C91.19 76.92, 84.3 84.91, 78.38 90.81 C72.47 96.71, 65.87 101.94, 58.52 104.03 C51.16 106.13, 42 105.86, 34.27 103.4 C26.53 100.93, 17.7 95.86, 12.09 89.24 C6.49 82.62, 2.55 72.19, 0.63 63.68 C-1.28 55.17, -2.02 46.56, 0.58 38.19 C3.18 29.82, 10.01 19.64, 16.24 13.47 C22.47 7.3, 34.48 2.76, 37.95 1.14 C41.42 -0.48, 36.85 2.99, 37.07 3.76" stroke="none" stroke-width="0" fill="black"></path><path d="M50.83 -0.17 C58.31 -0.64, 66.58 3.27, 73.29 8.18 C79.99 13.08, 87.53 21.29, 91.05 29.26 C94.57 37.23, 95.01 47.21, 94.41 56.01 C93.82 64.81, 91.84 74.74, 87.49 82.06 C83.14 89.37, 75.56 96.07, 68.3 99.9 C61.04 103.72, 51.82 105.43, 43.95 105.03 C36.07 104.62, 27.41 102.24, 21.04 97.48 C14.67 92.72, 9.27 84.38, 5.71 76.46 C2.16 68.53, -0.84 58.77, -0.3 49.92 C0.24 41.08, 4.39 30.67, 8.94 23.39 C13.48 16.1, 19.13 10.01, 26.96 6.22 C34.8 2.43, 50.43 1.1, 55.96 0.64 C61.48 0.18, 60.19 2.73, 60.13 3.47 M39.58 1.6 C46.81 -0.32, 57.08 1.64, 64.25 4.24 C71.41 6.84, 77.84 10.49, 82.58 17.22 C87.32 23.95, 90.97 35.69, 92.67 44.63 C94.36 53.58, 94.96 62.98, 92.73 70.88 C90.49 78.77, 85.33 86.26, 79.26 92.01 C73.18 97.76, 64.21 103.74, 56.28 105.37 C48.35 107.01, 39.39 104.86, 31.69 101.84 C23.99 98.82, 15.31 93.57, 10.09 87.26 C4.86 80.95, 1.6 72.64, 0.35 63.98 C-0.9 55.33, -0.14 43.92, 2.59 35.35 C5.32 26.77, 10.49 18.38, 16.73 12.52 C22.97 6.66, 36.46 1.86, 40.03 0.18 C43.6 -1.49, 38.19 1.57, 38.15 2.47" stroke="#000000" stroke-width="1" fill="none"></path></g></g><g clip-path="url(#i3_hKY3SnkQhTr5FdnZbr)"><g stroke-linecap="round"><g transform="translate(1080.9478087245097 3478.5245694303876) rotate(0 334.52933706756494 -304.1516092303484)" fill-rule="evenodd"><path d="M-1.72 -1.92 L232.81 -431.25 L342.02 -283.65 L527.48 -606.63 L667.83 -2.73 L1.88 -0.23" stroke="none" stroke-width="0" fill="black" fill-rule="evenodd"></path><path d="M0 0 C84.73 -156.56, 169.56 -314.68, 231.26 -430.22 M0 0 C55.12 -101.1, 108.8 -200.68, 231.26 -430.22 M231.26 -430.22 C257.63 -395.22, 285.16 -356.57, 340.73 -283.87 M231.26 -430.22 C274.68 -371.99, 316.68 -315.55, 340.73 -283.87 M340.73 -283.87 C411.04 -407.39, 482.75 -533.5, 525.89 -608.3 M340.73 -283.87 C388.1 -368.06, 436.83 -453.1, 525.89 -608.3 M525.89 -608.3 C559.16 -461.63, 593.09 -315.55, 669.06 -3.47 M525.89 -608.3 C557.4 -475.87, 588.49 -342.77, 669.06 -3.47 M669.06 -3.47 C489.16 -2.6, 309.21 -1.05, 0 0 M669.06 -3.47 C501.04 -1.83, 332.92 -0.61, 0 0 M0 0 C0 0, 0 0, 0 0 M0 0 C0 0, 0 0, 0 0" stroke="#000000" stroke-width="1" fill="none"></path></g></g><mask></mask></g><g clip-path="url(#i3_hKY3SnkQhTr5FdnZbr)"><g stroke-opacity="0.5" fill-opacity="0.5" stroke-linecap="round" transform="translate(503.15470460331744 2807.3035762200498) rotate(0 640 360.0000000000001)"><path d="M0 0 L1280 0 L1280 720 L0 720" stroke="none" stroke-width="0" fill="black"></path><path d="M0 0 C401.64 0, 803.29 0, 1280 0 M0 0 C506.07 0, 1012.13 0, 1280 0 M1280 0 C1280 163.79, 1280 327.58, 1280 720 M1280 0 C1280 186.26, 1280 372.51, 1280 720 M1280 720 C910.54 720, 541.07 720, 0 720 M1280 720 C985.31 720, 690.62 720, 0 720 M0 720 C0 572.78, 0 425.57, 0 0 M0 720 C0 490.47, 0 260.93, 0 0" stroke="#ced4da" stroke-width="4" fill="none"></path></g></g><g clip-path="url(#i3_hKY3SnkQhTr5FdnZbr)"><g stroke-linecap="round" transform="translate(836.6853378582709 3002.0013321907645) rotate(0 315.66071365741305 146.75427897689462)"><path d="M0.25 -0.36 L633.12 -0.98 L630.38 294.19 L0.31 292.79" stroke="none" stroke-width="0" fill="white"></path><path d="M0 0 C243.39 0.07, 488.62 0.38, 631.32 0 M0 0 C164.4 -1.67, 328.94 -1.77, 631.32 0 M631.32 0 C632.83 63.27, 630.89 126.86, 631.32 293.51 M631.32 0 C631.91 113.27, 631.21 226, 631.32 293.51 M631.32 293.51 C407.23 291.83, 183.17 291.64, 0 293.51 M631.32 293.51 C412.72 295.28, 194.2 295.99, 0 293.51 M0 293.51 C-1.65 195.93, -0.18 98.22, 0 0 M0 293.51 C1.76 229.09, 1.95 163.45, 0 0" stroke="#000000" stroke-width="1" fill="none"></path></g></g><g clip-path="url(#i3_hKY3SnkQhTr5FdnZbr)"><g transform="translate(854.3025498661173 3016.659757536443) rotate(0 278.1474609375 20.700000000000045)"><text x="0" y="0" font-family="Helvetica, Segoe UI Emoji" font-size="36px" fill="#000000" text-anchor="start" style="white-space: pre;" direction="ltr" dominant-baseline="text-before-edge">Passwort vergessen? Keine Panik!</text></g></g><g clip-path="url(#i3_hKY3SnkQhTr5FdnZbr)"><g stroke-linecap="round"><g transform="translate(1423.4912536480788 3045.1536024065135) rotate(0 9.771745196834615 -9.749293044569072)"><path d="M0 0 C3.7 -4.77, 8.94 -8.85, 19.54 -19.5 M0 0 C5.5 -5.78, 12.04 -11.22, 19.54 -19.5" stroke="#000000" stroke-width="1" fill="none"></path></g></g><mask></mask></g><g clip-path="url(#i3_hKY3SnkQhTr5FdnZbr)"><g stroke-linecap="round"><g transform="translate(1443.0347440417554 3045.1536024065135) rotate(0 -9.771745196834615 -9.749293044569072)"><path d="M0 0 C-4.26 -5.55, -9.88 -10.68, -19.54 -19.5 M0 0 C-5.05 -4.92, -10.6 -10.94, -19.54 -19.5" stroke="#000000" stroke-width="1" fill="none"></path></g></g><mask></mask></g><g clip-path="url(#i3_hKY3SnkQhTr5FdnZbr)"><g transform="translate(866.5707893756517 3077.989956408731) rotate(0 282.3681640625 46)"><text x="0" y="0" font-family="Helvetica, Segoe UI Emoji" font-size="20px" fill="#1e1e1e" text-anchor="start" style="white-space: pre;" direction="ltr" dominant-baseline="text-before-edge">Ein Klick genügt,</text><text x="0" y="23" font-family="Helvetica, Segoe UI Emoji" font-size="20px" fill="#1e1e1e" text-anchor="start" style="white-space: pre;" direction="ltr" dominant-baseline="text-before-edge">und wir senden Ihnen einen Link zum Zurücksetzen per E-Mail. </text><text x="0" y="46" font-family="Helvetica, Segoe UI Emoji" font-size="20px" fill="#1e1e1e" text-anchor="start" style="white-space: pre;" direction="ltr" dominant-baseline="text-before-edge"></text><text x="0" y="69" font-family="Helvetica, Segoe UI Emoji" font-size="20px" fill="#1e1e1e" text-anchor="start" style="white-space: pre;" direction="ltr" dominant-baseline="text-before-edge">Einfach, schnell und sicher. Klicken Sie unten, um loszulegen."</text></g></g><g clip-path="url(#i3_hKY3SnkQhTr5FdnZbr)"><g stroke-linecap="round" transform="translate(1009.3117546648064 3207.4815245973514) rotate(0 124.90916321286039 20.534890713378786)"><path d="M10.27 0 C84.25 0, 158.23 0, 239.55 0 C246.4 0, 249.82 3.42, 249.82 10.27 C249.82 16.35, 249.82 22.43, 249.82 30.8 C249.82 37.65, 246.4 41.07, 239.55 41.07 C179.7 41.07, 119.85 41.07, 10.27 41.07 C3.42 41.07, 0 37.65, 0 30.8 C0 25.67, 0 20.54, 0 10.27 C0 3.42, 3.42 0, 10.27 0" stroke="none" stroke-width="0" fill="black"></path><path d="M10.27 0 C66.54 0, 122.81 0, 239.55 0 M10.27 0 C99.46 0, 188.66 0, 239.55 0 M239.55 0 C246.4 0, 249.82 3.42, 249.82 10.27 M239.55 0 C246.4 0, 249.82 3.42, 249.82 10.27 M249.82 10.27 C249.82 18.15, 249.82 26.03, 249.82 30.8 M249.82 10.27 C249.82 14.71, 249.82 19.15, 249.82 30.8 M249.82 30.8 C249.82 37.65, 246.4 41.07, 239.55 41.07 M249.82 30.8 C249.82 37.65, 246.4 41.07, 239.55 41.07 M239.55 41.07 C172.17 41.07, 104.79 41.07, 10.27 41.07 M239.55 41.07 C162.97 41.07, 86.39 41.07, 10.27 41.07 M10.27 41.07 C3.42 41.07, 0 37.65, 0 30.8 M10.27 41.07 C3.42 41.07, 0 37.65, 0 30.8 M0 30.8 C0 25.68, 0 20.57, 0 10.27 M0 30.8 C0 25.7, 0 20.6, 0 10.27 M0 10.27 C0 3.42, 3.42 0, 10.27 0 M0 10.27 C0 3.42, 3.42 0, 10.27 0" stroke="white" stroke-width="1" fill="none"></path></g></g><g clip-path="url(#i3_hKY3SnkQhTr5FdnZbr)"><g transform="translate(1034.3852931828426 3216.8474257632224) rotate(0 99.83562469482422 11.168989547507977)"><text x="99.83562469482422" y="0" font-family="Helvetica, Segoe UI Emoji" font-size="19.42432964783989px" fill="white" text-anchor="middle" style="white-space: pre;" direction="ltr" dominant-baseline="text-before-edge">Passwort zurücksetzen</text></g></g><g transform="translate(446.72466099714984 2724.284300111369) rotate(0 97.19482421875 8.75)"><text x="0" y="0" font-family="Assistant, Segoe UI Emoji" font-size="14px" fill="#999999" text-anchor="start" style="white-space: pre;" direction="ltr" dominant-baseline="text-before-edge">Example - Basic Frame (1280x720)</text></g><rect transform="translate(446.72466099714984 2744.784300111369) rotate(0 698.1601562499999 415.9570312500001)" width="1396.3203124999998px" height="831.9140625000002px" rx="8" ry="8" fill="none" stroke="#bbb" stroke-width="2"></rect><g stroke-linecap="round"><g transform="translate(10 2825.2705480314435) rotate(0 205.02453197789623 52.2329858828125)" fill-rule="evenodd"><path d="M1.76 -1.56 L-1.25 104.15 L409.68 104.06 L410.3 24.75 L361.17 0.55 L1.52 0.18" stroke="none" stroke-width="0" fill="#fff" fill-rule="evenodd"></path><path d="M0 0 C0.09 37.21, 2.61 72.1, 0 102.72 M0 0 C0.74 34.7, 1.4 69.7, 0 102.72 M0 102.72 C84.06 101.85, 170.17 102.33, 410.05 104.47 M0 102.72 C156.6 105.8, 314.45 106.06, 410.05 104.47 M410.05 104.47 C410.7 75.3, 408.37 44.43, 408.99 23.34 M410.05 104.47 C409.94 81.57, 409.83 58.61, 408.99 23.34 M408.99 23.34 C390.37 14.57, 369.56 5.46, 359.19 0.63 M408.99 23.34 C391.22 15.74, 373.85 7.74, 359.19 0.63 M359.19 0.63 C244.54 -0.84, 129.94 -0.94, 0 0 M359.19 0.63 C257.1 -2.06, 154.43 -1.85, 0 0 M0 0 C0 0, 0 0, 0 0 M0 0 C0 0, 0 0, 0 0" stroke="#000000" stroke-width="1" fill="none"></path></g></g><mask></mask><g transform="translate(21.152605632883933 2840.552960687187) rotate(0 196.58091735839844 30.188651509266606)"><text x="0" y="0" font-family="Virgil, Segoe UI Emoji" font-size="24.150921207413287px" fill="#1e1e1e" text-anchor="start" style="white-space: pre;" direction="ltr" dominant-baseline="text-before-edge">Layer of Black with </text><text x="0" y="30.18865150926662" font-family="Virgil, Segoe UI Emoji" font-size="24.150921207413287px" fill="#1e1e1e" text-anchor="start" style="white-space: pre;" direction="ltr" dominant-baseline="text-before-edge">50% Opacity to focus on pop up</text></g><g stroke-linecap="round"><g transform="translate(368.81634313146424 2825.1375395951973) rotate(0 24.716890072451406 15.419613138453542)" fill-rule="evenodd"><path d="M0.94 -0.12 L33.68 31.69 L49.4 24.38 L48.87 24.66 L0.23 -0.45" stroke="none" stroke-width="0" fill="#868e96" fill-rule="evenodd"></path><path d="M0 0 C12.29 11.85, 24.28 21.91, 33.08 30.84 M0 0 C10.63 9.92, 22.53 20.03, 33.08 30.84 M33.08 30.84 C39.52 27.69, 43.79 24.79, 49.01 23.67 M33.08 30.84 C39.62 27.64, 45.68 25.23, 49.01 23.67 M49.01 23.67 C49.13 23.75, 49.28 23.84, 49.43 23.96 M49.01 23.67 C49.15 23.75, 49.25 23.84, 49.43 23.96 M49.43 23.96 C34.39 16.18, 17.82 8.48, 0 0 M49.43 23.96 C31.83 16, 13.86 6.96, 0 0 M0 0 C0 0, 0 0, 0 0 M0 0 C0 0, 0 0, 0 0" stroke="#000000" stroke-width="1" fill="none"></path></g></g><mask></mask><g stroke-linecap="round"><g transform="translate(297.9054501151895 2940.792605800395) rotate(0 156.34349292611614 232.89050722527497)"><path d="M0 0 C1.45 23.74, -43.43 64.82, 8.69 142.45 C60.8 220.08, 262.02 411.89, 312.69 465.78" stroke="#f08c00" stroke-width="4.5" fill="none" stroke-dasharray="8 12"></path></g></g><mask></mask><g stroke-linecap="round"><g transform="translate(712.6910951736854 1383.358136575304) rotate(0 424.6863581566972 178.72402730277287)"><path d="M0 0 C59.03 51.47, 212.65 249.27, 354.21 308.84 C495.77 368.41, 766.85 349.35, 849.37 357.45" stroke="#e03131" stroke-width="4.5" fill="none" stroke-dasharray="8 12"></path></g><g transform="translate(712.6910951736854 1383.358136575304) rotate(0 424.6863581566972 178.72402730277287)"><path d="M820.94 367.03 C829.29 364.21, 837.63 361.4, 849.37 357.45" stroke="#e03131" stroke-width="4.5" fill="none"></path></g><g transform="translate(712.6910951736854 1383.358136575304) rotate(0 424.6863581566972 178.72402730277287)"><path d="M821.44 346.51 C829.64 349.72, 837.84 352.93, 849.37 357.45" stroke="#e03131" stroke-width="4.5" fill="none"></path></g></g><mask></mask><g stroke-linecap="round"><g transform="translate(1512.8807799682302 1745.4577139537055) rotate(0 200.30535365352614 31.811919856386623)" fill-rule="evenodd"><path d="M-1.39 1.72 L-0.27 63.31 L401.16 62.98 L399.53 13.55 L352.28 0.57 L0.19 -0.31" stroke="none" stroke-width="0" fill="#fff" fill-rule="evenodd"></path><path d="M0 0 C1.79 18.5, -1.34 35.7, 0 62.56 M0 0 C0.3 19.84, 0.61 37.91, 0 62.56 M0 62.56 C92.39 61.54, 185.79 62.39, 400.61 63.62 M0 62.56 C99.68 64.8, 199.86 65.48, 400.61 63.62 M400.61 63.62 C399.55 48.13, 399.29 30.83, 399.58 14.22 M400.61 63.62 C400.51 50.73, 400.61 39.01, 399.58 14.22 M399.58 14.22 C386.99 11.48, 372.62 8.04, 350.92 0.39 M399.58 14.22 C386.61 11.04, 373.42 7.25, 350.92 0.39 M350.92 0.39 C238.85 -0.42, 127.04 -0.58, 0 0 M350.92 0.39 C262.37 1.52, 172.61 1.65, 0 0 M0 0 C0 0, 0 0, 0 0 M0 0 C0 0, 0 0, 0 0" stroke="#e03131" stroke-width="1" fill="none"></path></g></g><mask></mask><g transform="translate(1523.6297997442118 1759.4348377981614) rotate(0 127.94252014160156 14.72684237724809)"><text x="0" y="0" font-family="Virgil, Segoe UI Emoji" font-size="23.562947803596906px" fill="#e03131" text-anchor="start" style="white-space: pre;" direction="ltr" dominant-baseline="text-before-edge">Goes to Buerger.Home</text></g><g stroke-linecap="round"><g transform="translate(1864.0047126033453 1745.9132624714662) rotate(0 23.98614048210311 13.29682712929872)" fill-rule="evenodd"><path d="M-0.75 -0.02 L31.82 25.72 L46.81 14.67 L48.72 14.15 L-0.34 0.86" stroke="none" stroke-width="0" fill="#868e96" fill-rule="evenodd"></path><path d="M0 0 C9.43 7.92, 18.9 16.07, 32.11 26.59 M0 0 C10.83 9.03, 22.53 18.4, 32.11 26.59 M32.11 26.59 C36.1 23.14, 40.14 19.01, 47.4 14.82 M32.11 26.59 C36.18 23.16, 40.34 20.24, 47.4 14.82 M47.4 14.82 C47.55 14.5, 47.73 14.13, 47.97 13.7 M47.4 14.82 C47.52 14.56, 47.66 14.36, 47.97 13.7 M47.97 13.7 C30.5 8.1, 13.35 4.32, 0 0 M47.97 13.7 C30.17 8.82, 11.78 3.63, 0 0 M0 0 C0 0, 0 0, 0 0 M0 0 C0 0, 0 0, 0 0" stroke="#e03131" stroke-width="1" fill="none"></path></g></g><mask></mask></svg>