<svg version="1.1" xmlns="http://www.w3.org/2000/svg" viewBox="0 0 1396.3203124999998 831.9140625000002" width="1396.3203124999998" height="831.9140625000002">
  <!-- svg-source:excalidraw -->
  
  <defs>
    <style class="style-fonts">
      @font-face {
        font-family: "Virgil";
        src: url("https://file%2B.vscode-resource.vscode-cdn.net/c%3A/Users/lisa-/.vscode/extensions/pomdtr.excalidraw-editor-3.7.4/public//dist/excalidraw-assets/Virgil.woff2");
      }
      @font-face {
        font-family: "Cascadia";
        src: url("https://file%2B.vscode-resource.vscode-cdn.net/c%3A/Users/lisa-/.vscode/extensions/pomdtr.excalidraw-editor-3.7.4/public//dist/excalidraw-assets/Cascadia.woff2");
      }
      @font-face {
        font-family: "Assistant";
        src: url("https://file%2B.vscode-resource.vscode-cdn.net/c%3A/Users/lisa-/.vscode/extensions/pomdtr.excalidraw-editor-3.7.4/public//dist/excalidraw-assets/Assistant-Regular.woff2");
      }
    </style>
    <clipPath id="i3_hKY3SnkQhTr5FdnZbr">
            <rect transform="translate(0 0) rotate(0 698.1601562499999 415.9570312500001)" width="1396.3203124999998" height="831.9140625000002">
          </rect>
        </clipPath>
  </defs>
  <rect x="0" y="0" width="1396.3203124999998" height="831.9140625000002" fill="#ffffff"></rect><g stroke-linecap="round"><g transform="translate(114.30386725095195 -1554.552365229128) rotate(0 -98.0418640120024 790.8804734057445)"><path d="M0 0 C-32.68 114.83, -173.25 425.34, -196.08 688.97 C-218.92 952.59, -146.85 1432.96, -137 1581.76" stroke="#e03131" stroke-width="4.5" fill="none" stroke-dasharray="8 12"></path></g><g transform="translate(114.30386725095195 -1554.552365229128) rotate(0 -98.0418640120024 790.8804734057445)"><path d="M-150.09 1554.77 C-146.05 1563.09, -142.01 1571.42, -137 1581.76" stroke="#e03131" stroke-width="4.5" fill="none"></path></g><g transform="translate(114.30386725095195 -1554.552365229128) rotate(0 -98.0418640120024 790.8804734057445)"><path d="M-129.67 1552.67 C-131.94 1561.65, -134.2 1570.62, -137 1581.76" stroke="#e03131" stroke-width="4.5" fill="none"></path></g></g><mask></mask><g clip-path="url(#i3_hKY3SnkQhTr5FdnZbr)"><g stroke-linecap="round" transform="translate(55.626815573181375 61.859448259360306) rotate(0 640 359.9999999999999)"><path d="M0 0 C372.62 0, 745.25 0, 1280 0 M0 0 C444.59 0, 889.19 0, 1280 0 M1280 0 C1280 147.33, 1280 294.66, 1280 720 M1280 0 C1280 178.86, 1280 357.71, 1280 720 M1280 720 C785.44 720, 290.88 720, 0 720 M1280 720 C946.24 720, 612.48 720, 0 720 M0 720 C0 565.45, 0 410.89, 0 0 M0 720 C0 443.1, 0 166.21, 0 0" stroke="#ced4da" stroke-width="4" fill="none"></path></g></g><g clip-path="url(#i3_hKY3SnkQhTr5FdnZbr)"><g transform="translate(142.18798714078366 108.87044685220371) rotate(0 192.4365234375 20.700000000000045)"><text x="0" y="0" font-family="Helvetica, Segoe UI Emoji" font-size="36px" fill="#1e1e1e" text-anchor="start" style="white-space: pre;" direction="ltr" dominant-baseline="text-before-edge">Stadtwerke Bad Walden</text></g></g><g clip-path="url(#i3_hKY3SnkQhTr5FdnZbr)"><g stroke-linecap="round"><g transform="translate(140.95009014586867 304.5440949437884) rotate(0 76.32880290703724 0.2000729283287228)"><path d="M0 0 C25.44 0.07, 127.21 0.33, 152.66 0.4 M0 0 C25.44 0.07, 127.21 0.33, 152.66 0.4" stroke="#9c36b5" stroke-width="1" fill="none"></path></g></g><mask></mask></g><g clip-path="url(#i3_hKY3SnkQhTr5FdnZbr)"><g transform="translate(143.19992983991688 285.98747291517293) rotate(0 78.703125 9.200000000000045)"><text x="0" y="0" font-family="Helvetica, Segoe UI Emoji" font-size="16px" fill="#9c36b5" text-anchor="start" style="white-space: pre;" direction="ltr" dominant-baseline="text-before-edge">Passwort vergessen ?</text></g></g><g clip-path="url(#i3_hKY3SnkQhTr5FdnZbr)"><g stroke-linecap="round" transform="translate(141.54207908076387 234.49832383508237) rotate(0 175.28898051730235 22.5)"><path d="M0 0 C124.58 0, 249.17 0, 350.58 0 M0 0 C98.07 0, 196.14 0, 350.58 0 M350.58 0 C350.58 17.57, 350.58 35.14, 350.58 45 M350.58 0 C350.58 13.97, 350.58 27.93, 350.58 45 M350.58 45 C267.83 45, 185.08 45, 0 45 M350.58 45 C242.45 45, 134.32 45, 0 45 M0 45 C0 31.56, 0 18.13, 0 0 M0 45 C0 27.18, 0 9.36, 0 0" stroke="#000000" stroke-width="1" fill="none"></path></g></g><g clip-path="url(#i3_hKY3SnkQhTr5FdnZbr)"><g transform="translate(141.48807402834245 198.74320882398206) rotate(0 76.2548828125 16.100000000000023)"><text x="0" y="0" font-family="Helvetica, Segoe UI Emoji" font-size="28px" fill="#1e1e1e" text-anchor="start" style="white-space: pre;" direction="ltr" dominant-baseline="text-before-edge">Nutzername</text></g></g><g clip-path="url(#i3_hKY3SnkQhTr5FdnZbr)"><g stroke-linecap="round" transform="translate(141.81543653467452 371.85126381268856) rotate(0 175.28898051730235 22.5)"><path d="M0 0 C97.13 0, 194.26 0, 350.58 0 M0 0 C72.65 0, 145.3 0, 350.58 0 M350.58 0 C350.58 14.12, 350.58 28.24, 350.58 45 M350.58 0 C350.58 17.79, 350.58 35.58, 350.58 45 M350.58 45 C270.83 45, 191.08 45, 0 45 M350.58 45 C259.89 45, 169.2 45, 0 45 M0 45 C0 32.01, 0 19.02, 0 0 M0 45 C0 34.64, 0 24.28, 0 0" stroke="#000000" stroke-width="1" fill="none"></path></g></g><g clip-path="url(#i3_hKY3SnkQhTr5FdnZbr)"><g transform="translate(141.7614314822531 336.0961488015887) rotate(0 57.572265625 16.100000000000023)"><text x="0" y="0" font-family="Helvetica, Segoe UI Emoji" font-size="28px" fill="#1e1e1e" text-anchor="start" style="white-space: pre;" direction="ltr" dominant-baseline="text-before-edge">Passwort</text></g></g><g clip-path="url(#i3_hKY3SnkQhTr5FdnZbr)"><g stroke-linecap="round" transform="translate(142.39916201695087 472.50611750589496) rotate(0 70.17697409785035 20.178376299778506)"><path d="M10.09 0 C40.04 0, 70 0, 130.26 0 C136.99 0, 140.35 3.36, 140.35 10.09 C140.35 17.83, 140.35 25.58, 140.35 30.27 C140.35 36.99, 136.99 40.36, 130.26 40.36 C91.49 40.36, 52.71 40.36, 10.09 40.36 C3.36 40.36, 0 36.99, 0 30.27 C0 24.29, 0 18.32, 0 10.09 C0 3.36, 3.36 0, 10.09 0" stroke="none" stroke-width="0" fill="black"></path><path d="M10.09 0 C49.69 0, 89.3 0, 130.26 0 M10.09 0 C38.17 0, 66.24 0, 130.26 0 M130.26 0 C136.99 0, 140.35 3.36, 140.35 10.09 M130.26 0 C136.99 0, 140.35 3.36, 140.35 10.09 M140.35 10.09 C140.35 15.04, 140.35 19.99, 140.35 30.27 M140.35 10.09 C140.35 17.94, 140.35 25.79, 140.35 30.27 M140.35 30.27 C140.35 36.99, 136.99 40.36, 130.26 40.36 M140.35 30.27 C140.35 36.99, 136.99 40.36, 130.26 40.36 M130.26 40.36 C84.15 40.36, 38.03 40.36, 10.09 40.36 M130.26 40.36 C104.26 40.36, 78.26 40.36, 10.09 40.36 M10.09 40.36 C3.36 40.36, 0 36.99, 0 30.27 M10.09 40.36 C3.36 40.36, 0 36.99, 0 30.27 M0 30.27 C0 24.34, 0 18.41, 0 10.09 M0 30.27 C0 23.53, 0 16.79, 0 10.09 M0 10.09 C0 3.36, 3.36 0, 10.09 0 M0 10.09 C0 3.36, 3.36 0, 10.09 0" stroke="white" stroke-width="1" fill="none"></path></g></g><g clip-path="url(#i3_hKY3SnkQhTr5FdnZbr)"><g transform="translate(186.09900632606696 480.20463541266963) rotate(0 24.4677734375 11.500000000000114)"><text x="24.4677734375" y="0" font-family="Helvetica, Segoe UI Emoji" font-size="20px" fill="white" text-anchor="middle" style="white-space: pre;" direction="ltr" dominant-baseline="text-before-edge">Login</text></g></g><g clip-path="url(#i3_hKY3SnkQhTr5FdnZbr)"><g stroke-linecap="round" transform="translate(622.6969291251844 71.6446489904697) rotate(0 350 349.9999999999999)"><path d="M0 0 C244.87 -2.01, 490.57 -2.42, 700 0 M0 0 C187.59 -0.56, 375.08 0.09, 700 0 M700 0 C699.43 177.07, 698.9 354.43, 700 700 M700 0 C697.81 193.21, 697.68 385.55, 700 700 M700 700 C450.3 700.63, 200.47 699.87, 0 700 M700 700 C466.56 702.54, 234.21 702.41, 0 700 M0 700 C-0.62 447.71, -1.95 195.59, 0 0 M0 700 C-0.68 422.91, -0.9 146.54, 0 0" stroke="#000000" stroke-width="1" fill="none"></path></g></g><g clip-path="url(#i3_hKY3SnkQhTr5FdnZbr)"><g stroke-linecap="round" transform="translate(821.4899810588104 130.89790121029273) rotate(0 47.45860607276063 53.00303966651063)"><path d="M42.66 0.03 C50.21 -1.58, 59.58 1.06, 66.9 4.58 C74.23 8.11, 81.96 14.21, 86.6 21.19 C91.23 28.17, 93.95 37.73, 94.72 46.48 C95.5 55.23, 94.45 65.64, 91.25 73.69 C88.06 81.73, 82.12 89.28, 75.56 94.74 C69 100.2, 59.81 105.19, 51.89 106.44 C43.97 107.69, 35.11 105.78, 28.03 102.26 C20.96 98.75, 13.91 92.65, 9.43 85.34 C4.94 78.03, 2 67.16, 1.14 58.41 C0.29 49.65, 1.3 40.72, 4.29 32.82 C7.29 24.92, 11.51 16.41, 19.1 11.01 C26.69 5.61, 43.61 2.04, 49.83 0.42 C56.05 -1.19, 56.46 0.46, 56.41 1.32 M35.84 2.44 C42.74 -0.05, 53.16 -0.57, 61.04 2 C68.93 4.58, 77.46 11.4, 83.15 17.9 C88.84 24.4, 93.38 32.55, 95.18 41.01 C96.99 49.46, 96.79 60.32, 93.99 68.62 C91.19 76.92, 84.3 84.91, 78.38 90.81 C72.47 96.71, 65.87 101.94, 58.52 104.03 C51.16 106.13, 42 105.86, 34.27 103.4 C26.53 100.93, 17.7 95.86, 12.09 89.24 C6.49 82.62, 2.55 72.19, 0.63 63.68 C-1.28 55.17, -2.02 46.56, 0.58 38.19 C3.18 29.82, 10.01 19.64, 16.24 13.47 C22.47 7.3, 34.48 2.76, 37.95 1.14 C41.42 -0.48, 36.85 2.99, 37.07 3.76" stroke="none" stroke-width="0" fill="black"></path><path d="M50.83 -0.17 C58.31 -0.64, 66.58 3.27, 73.29 8.18 C79.99 13.08, 87.53 21.29, 91.05 29.26 C94.57 37.23, 95.01 47.21, 94.41 56.01 C93.82 64.81, 91.84 74.74, 87.49 82.06 C83.14 89.37, 75.56 96.07, 68.3 99.9 C61.04 103.72, 51.82 105.43, 43.95 105.03 C36.07 104.62, 27.41 102.24, 21.04 97.48 C14.67 92.72, 9.27 84.38, 5.71 76.46 C2.16 68.53, -0.84 58.77, -0.3 49.92 C0.24 41.08, 4.39 30.67, 8.94 23.39 C13.48 16.1, 19.13 10.01, 26.96 6.22 C34.8 2.43, 50.43 1.1, 55.96 0.64 C61.48 0.18, 60.19 2.73, 60.13 3.47 M39.58 1.6 C46.81 -0.32, 57.08 1.64, 64.25 4.24 C71.41 6.84, 77.84 10.49, 82.58 17.22 C87.32 23.95, 90.97 35.69, 92.67 44.63 C94.36 53.58, 94.96 62.98, 92.73 70.88 C90.49 78.77, 85.33 86.26, 79.26 92.01 C73.18 97.76, 64.21 103.74, 56.28 105.37 C48.35 107.01, 39.39 104.86, 31.69 101.84 C23.99 98.82, 15.31 93.57, 10.09 87.26 C4.86 80.95, 1.6 72.64, 0.35 63.98 C-0.9 55.33, -0.14 43.92, 2.59 35.35 C5.32 26.77, 10.49 18.38, 16.73 12.52 C22.97 6.66, 36.46 1.86, 40.03 0.18 C43.6 -1.49, 38.19 1.57, 38.15 2.47" stroke="#000000" stroke-width="1" fill="none"></path></g></g><g clip-path="url(#i3_hKY3SnkQhTr5FdnZbr)"><g stroke-linecap="round"><g transform="translate(634.2231477273599 733.740269319019) rotate(0 334.52933706756494 -304.1516092303484)" fill-rule="evenodd"><path d="M-1.72 -1.92 L232.81 -431.25 L342.02 -283.65 L527.48 -606.63 L667.83 -2.73 L1.88 -0.23" stroke="none" stroke-width="0" fill="black" fill-rule="evenodd"></path><path d="M0 0 C84.73 -156.56, 169.56 -314.68, 231.26 -430.22 M0 0 C55.12 -101.1, 108.8 -200.68, 231.26 -430.22 M231.26 -430.22 C257.63 -395.22, 285.16 -356.57, 340.73 -283.87 M231.26 -430.22 C274.68 -371.99, 316.68 -315.55, 340.73 -283.87 M340.73 -283.87 C411.04 -407.39, 482.75 -533.5, 525.89 -608.3 M340.73 -283.87 C388.1 -368.06, 436.83 -453.1, 525.89 -608.3 M525.89 -608.3 C559.16 -461.63, 593.09 -315.55, 669.06 -3.47 M525.89 -608.3 C557.4 -475.87, 588.49 -342.77, 669.06 -3.47 M669.06 -3.47 C489.16 -2.6, 309.21 -1.05, 0 0 M669.06 -3.47 C501.04 -1.83, 332.92 -0.61, 0 0 M0 0 C0 0, 0 0, 0 0 M0 0 C0 0, 0 0, 0 0" stroke="#000000" stroke-width="1" fill="none"></path></g></g><mask></mask></g><g clip-path="url(#i3_hKY3SnkQhTr5FdnZbr)"><g stroke-opacity="0.5" fill-opacity="0.5" stroke-linecap="round" transform="translate(56.4300436061676 62.51927610868097) rotate(0 640 360.0000000000001)"><path d="M0 0 L1280 0 L1280 720 L0 720" stroke="none" stroke-width="0" fill="black"></path><path d="M0 0 C401.64 0, 803.29 0, 1280 0 M0 0 C506.07 0, 1012.13 0, 1280 0 M1280 0 C1280 163.79, 1280 327.58, 1280 720 M1280 0 C1280 186.26, 1280 372.51, 1280 720 M1280 720 C910.54 720, 541.07 720, 0 720 M1280 720 C985.31 720, 690.62 720, 0 720 M0 720 C0 572.78, 0 425.57, 0 0 M0 720 C0 490.47, 0 260.93, 0 0" stroke="#ced4da" stroke-width="4" fill="none"></path></g></g><g clip-path="url(#i3_hKY3SnkQhTr5FdnZbr)"><g stroke-linecap="round" transform="translate(389.9606768611211 257.2170320793962) rotate(0 315.66071365741305 146.75427897689462)"><path d="M0.25 -0.36 L633.12 -0.98 L630.38 294.19 L0.31 292.79" stroke="none" stroke-width="0" fill="white"></path><path d="M0 0 C243.39 0.07, 488.62 0.38, 631.32 0 M0 0 C164.4 -1.67, 328.94 -1.77, 631.32 0 M631.32 0 C632.83 63.27, 630.89 126.86, 631.32 293.51 M631.32 0 C631.91 113.27, 631.21 226, 631.32 293.51 M631.32 293.51 C407.23 291.83, 183.17 291.64, 0 293.51 M631.32 293.51 C412.72 295.28, 194.2 295.99, 0 293.51 M0 293.51 C-1.65 195.93, -0.18 98.22, 0 0 M0 293.51 C1.76 229.09, 1.95 163.45, 0 0" stroke="#000000" stroke-width="1" fill="none"></path></g></g><g clip-path="url(#i3_hKY3SnkQhTr5FdnZbr)"><g transform="translate(407.5778888689674 271.8754574250745) rotate(0 278.1474609375 20.700000000000045)"><text x="0" y="0" font-family="Helvetica, Segoe UI Emoji" font-size="36px" fill="#000000" text-anchor="start" style="white-space: pre;" direction="ltr" dominant-baseline="text-before-edge">Passwort vergessen? Keine Panik!</text></g></g><g clip-path="url(#i3_hKY3SnkQhTr5FdnZbr)"><g stroke-linecap="round"><g transform="translate(976.7665926509289 300.3693022951452) rotate(0 9.771745196834615 -9.749293044569072)"><path d="M0 0 C3.7 -4.77, 8.94 -8.85, 19.54 -19.5 M0 0 C5.5 -5.78, 12.04 -11.22, 19.54 -19.5" stroke="#000000" stroke-width="1" fill="none"></path></g></g><mask></mask></g><g clip-path="url(#i3_hKY3SnkQhTr5FdnZbr)"><g stroke-linecap="round"><g transform="translate(996.3100830446056 300.3693022951452) rotate(0 -9.771745196834615 -9.749293044569072)"><path d="M0 0 C-4.26 -5.55, -9.88 -10.68, -19.54 -19.5 M0 0 C-5.05 -4.92, -10.6 -10.94, -19.54 -19.5" stroke="#000000" stroke-width="1" fill="none"></path></g></g><mask></mask></g><g clip-path="url(#i3_hKY3SnkQhTr5FdnZbr)"><g transform="translate(419.8461283785018 333.20565629736257) rotate(0 282.3681640625 46)"><text x="0" y="0" font-family="Helvetica, Segoe UI Emoji" font-size="20px" fill="#1e1e1e" text-anchor="start" style="white-space: pre;" direction="ltr" dominant-baseline="text-before-edge">Ein Klick genügt,</text><text x="0" y="23" font-family="Helvetica, Segoe UI Emoji" font-size="20px" fill="#1e1e1e" text-anchor="start" style="white-space: pre;" direction="ltr" dominant-baseline="text-before-edge">und wir senden Ihnen einen Link zum Zurücksetzen per E-Mail. </text><text x="0" y="46" font-family="Helvetica, Segoe UI Emoji" font-size="20px" fill="#1e1e1e" text-anchor="start" style="white-space: pre;" direction="ltr" dominant-baseline="text-before-edge"></text><text x="0" y="69" font-family="Helvetica, Segoe UI Emoji" font-size="20px" fill="#1e1e1e" text-anchor="start" style="white-space: pre;" direction="ltr" dominant-baseline="text-before-edge">Einfach, schnell und sicher. Klicken Sie unten, um loszulegen."</text></g></g><g clip-path="url(#i3_hKY3SnkQhTr5FdnZbr)"><g stroke-linecap="round" transform="translate(562.5870936676565 462.6972244859826) rotate(0 124.90916321286039 20.534890713378786)"><path d="M10.27 0 C84.25 0, 158.23 0, 239.55 0 C246.4 0, 249.82 3.42, 249.82 10.27 C249.82 16.35, 249.82 22.43, 249.82 30.8 C249.82 37.65, 246.4 41.07, 239.55 41.07 C179.7 41.07, 119.85 41.07, 10.27 41.07 C3.42 41.07, 0 37.65, 0 30.8 C0 25.67, 0 20.54, 0 10.27 C0 3.42, 3.42 0, 10.27 0" stroke="none" stroke-width="0" fill="black"></path><path d="M10.27 0 C66.54 0, 122.81 0, 239.55 0 M10.27 0 C99.46 0, 188.66 0, 239.55 0 M239.55 0 C246.4 0, 249.82 3.42, 249.82 10.27 M239.55 0 C246.4 0, 249.82 3.42, 249.82 10.27 M249.82 10.27 C249.82 18.15, 249.82 26.03, 249.82 30.8 M249.82 10.27 C249.82 14.71, 249.82 19.15, 249.82 30.8 M249.82 30.8 C249.82 37.65, 246.4 41.07, 239.55 41.07 M249.82 30.8 C249.82 37.65, 246.4 41.07, 239.55 41.07 M239.55 41.07 C172.17 41.07, 104.79 41.07, 10.27 41.07 M239.55 41.07 C162.97 41.07, 86.39 41.07, 10.27 41.07 M10.27 41.07 C3.42 41.07, 0 37.65, 0 30.8 M10.27 41.07 C3.42 41.07, 0 37.65, 0 30.8 M0 30.8 C0 25.68, 0 20.57, 0 10.27 M0 30.8 C0 25.7, 0 20.6, 0 10.27 M0 10.27 C0 3.42, 3.42 0, 10.27 0 M0 10.27 C0 3.42, 3.42 0, 10.27 0" stroke="white" stroke-width="1" fill="none"></path></g></g><g clip-path="url(#i3_hKY3SnkQhTr5FdnZbr)"><g transform="translate(587.6606321856927 472.0631256518536) rotate(0 99.83562469482422 11.168989547507977)"><text x="99.83562469482422" y="0" font-family="Helvetica, Segoe UI Emoji" font-size="19.42432964783989px" fill="white" text-anchor="middle" style="white-space: pre;" direction="ltr" dominant-baseline="text-before-edge">Passwort zurücksetzen</text></g></g><g stroke-linecap="round"><g transform="translate(-148.81921088196032 196.00830568902666) rotate(0 156.34349292611614 232.89050722527497)"><path d="M0 0 C1.45 23.74, -43.43 64.82, 8.69 142.45 C60.8 220.08, 262.02 411.89, 312.69 465.78" stroke="#f08c00" stroke-width="4.5" fill="none" stroke-dasharray="8 12"></path></g></g><mask></mask></svg>