<svg version="1.1" xmlns="http://www.w3.org/2000/svg" viewBox="0 0 1566.7912255316091 1098.3033278574012" width="1566.7912255316091" height="1098.3033278574012">
  <!-- svg-source:excalidraw -->
  
  <defs>
    <style class="style-fonts">
      @font-face {
        font-family: "Virgil";
        src: url("https://file%2B.vscode-resource.vscode-cdn.net/c%3A/Users/lisa-/.vscode/extensions/pomdtr.excalidraw-editor-3.7.4/public//dist/excalidraw-assets/Virgil.woff2");
      }
      @font-face {
        font-family: "Cascadia";
        src: url("https://file%2B.vscode-resource.vscode-cdn.net/c%3A/Users/lisa-/.vscode/extensions/pomdtr.excalidraw-editor-3.7.4/public//dist/excalidraw-assets/Cascadia.woff2");
      }
      @font-face {
        font-family: "Assistant";
        src: url("https://file%2B.vscode-resource.vscode-cdn.net/c%3A/Users/lisa-/.vscode/extensions/pomdtr.excalidraw-editor-3.7.4/public//dist/excalidraw-assets/Assistant-Regular.woff2");
      }
    </style>
    <clipPath id="M7v8D3-gETxcToJv505qa">
            <rect transform="translate(10 30.5) rotate(0 698.1601562499999 415.95703125)" width="1396.3203124999998" height="831.9140625000002">
          </rect>
        </clipPath>
  </defs>
  <rect x="0" y="0" width="1566.7912255316091" height="1098.3033278574012" fill="#ffffff"></rect><g clip-path="url(#M7v8D3-gETxcToJv505qa)"><g stroke-linecap="round" transform="translate(65.62681557318137 92.1365001676586) rotate(0 640 360)"><path d="M0 0 C478.82 0, 957.64 0, 1280 0 M0 0 C285.87 0, 571.74 0, 1280 0 M1280 0 C1280 152.45, 1280 304.9, 1280 720 M1280 0 C1280 194.19, 1280 388.37, 1280 720 M1280 720 C792.14 720, 304.28 720, 0 720 M1280 720 C1000.36 720, 720.71 720, 0 720 M0 720 C0 490.2, 0 260.4, 0 0 M0 720 C0 493.49, 0 266.97, 0 0" stroke="#ced4da" stroke-width="4" fill="none"></path></g></g><g clip-path="url(#M7v8D3-gETxcToJv505qa)"><g stroke-linecap="round"><g transform="translate(342.38608982740703 91.6876279043172) rotate(0 0.67626953125 360.6884765625)"><path d="M-0.75 0.66 C-0.37 120.85, 0.99 600.42, 1.17 720.46 M1.06 -0.05 C1.36 120.34, -0.14 601.17, 0.12 721.51" stroke="#bbb" stroke-width="2" fill="none"></path></g></g><mask></mask></g><g clip-path="url(#M7v8D3-gETxcToJv505qa)"><g transform="translate(370.3262351851227 125.69443297547332) rotate(0 331.6583251953125 110.68798828125)"><text x="0" y="0" font-family="Helvetica, Segoe UI Emoji" font-size="96.25042459239128px" fill="#1e1e1e" text-anchor="start" style="white-space: pre;" direction="ltr" dominant-baseline="text-before-edge">Willkommen </text><text x="0" y="110.68798828124997" font-family="Helvetica, Segoe UI Emoji" font-size="96.25042459239128px" fill="#1e1e1e" text-anchor="start" style="white-space: pre;" direction="ltr" dominant-baseline="text-before-edge">Herr Paul Peter</text></g></g><g clip-path="url(#M7v8D3-gETxcToJv505qa)"><g stroke-linecap="round" transform="translate(392.8127173962858 390.4177719741874) rotate(0 452.22609401884154 191.05643458574332)"><path d="M0 0 C257.05 2.86, 515.41 3.9, 904.45 0 M0 0 C257.63 1.22, 514.84 0.98, 904.45 0 M904.45 0 C904.19 121.74, 903.69 241.34, 904.45 382.11 M904.45 0 C906.65 132.6, 906.38 264.55, 904.45 382.11 M904.45 382.11 C602.47 381.21, 300.37 381.93, 0 382.11 M904.45 382.11 C705.99 382.14, 506.93 381.4, 0 382.11 M0 382.11 C-1.03 287.87, 0.08 190.77, 0 0 M0 382.11 C1.58 297.11, 1.21 212.11, 0 0" stroke="#000000" stroke-width="1" fill="none"></path></g></g><g clip-path="url(#M7v8D3-gETxcToJv505qa)"><g stroke-linecap="round" transform="translate(482.48026988949647 465.8710144017332) rotate(0 44.54548100742835 44.54548100742841)"><path d="M47.61 -0.83 C55.27 -1, 64.48 3.56, 70.97 8.68 C77.47 13.81, 83.59 22.2, 86.57 29.91 C89.55 37.61, 90.73 47.3, 88.85 54.93 C86.96 62.57, 81.23 70.21, 75.28 75.72 C69.33 81.24, 60.87 86.16, 53.14 88.02 C45.4 89.89, 36.31 89.69, 28.87 86.93 C21.43 84.17, 13.35 78, 8.49 71.47 C3.63 64.94, 0.04 55.86, -0.3 47.73 C-0.64 39.61, 2.61 29.79, 6.47 22.74 C10.33 15.69, 15.47 9.24, 22.86 5.43 C30.25 1.61, 45.78 0.44, 50.81 -0.16 C55.84 -0.76, 53.18 0.91, 53.04 1.84 M50.88 -0.9 C58.45 -0.04, 68.47 6.35, 74.34 12.04 C80.2 17.74, 83.86 25.73, 86.07 33.27 C88.28 40.81, 89.81 49.74, 87.58 57.3 C85.36 64.86, 78.86 73.31, 72.72 78.61 C66.58 83.92, 58.53 88.2, 50.72 89.14 C42.91 90.09, 33.28 87.83, 25.87 84.3 C18.46 80.77, 10.51 74.67, 6.26 67.95 C2.01 61.23, 0.05 51.72, 0.37 43.98 C0.69 36.24, 3.98 28.1, 8.19 21.51 C12.41 14.92, 18.62 7.7, 25.65 4.44 C32.67 1.18, 46.16 2.69, 50.36 1.95 C54.55 1.22, 50.63 -0.4, 50.82 0.01" stroke="none" stroke-width="0" fill="black"></path><path d="M64.76 5.1 C71.93 8.06, 79.68 14.54, 83.72 21.5 C87.76 28.47, 89.53 38.91, 88.99 46.91 C88.45 54.9, 85.08 62.79, 80.48 69.46 C75.88 76.12, 68.8 83.76, 61.38 86.92 C53.97 90.09, 43.83 90.03, 35.97 88.46 C28.11 86.9, 19.89 83.02, 14.21 77.54 C8.52 72.05, 3.75 63.47, 1.87 55.55 C-0.01 47.63, 0.42 37.64, 2.92 30.02 C5.42 22.4, 10.78 14.83, 16.89 9.82 C23 4.81, 30.52 0.14, 39.58 -0.05 C48.65 -0.23, 65.2 6.22, 71.28 8.71 C77.36 11.21, 76.67 14.29, 76.07 14.93 M42.7 -1.33 C49.95 -2.51, 59.32 2.09, 66.06 6.19 C72.8 10.29, 79.11 16.07, 83.14 23.26 C87.16 30.44, 90.97 41.37, 90.22 49.31 C89.46 57.25, 83.95 64.76, 78.61 70.91 C73.28 77.06, 65.55 83.49, 58.21 86.18 C50.86 88.88, 42.27 89.14, 34.55 87.08 C26.83 85.02, 17.37 79.51, 11.9 73.82 C6.42 68.12, 2.93 60.56, 1.71 52.89 C0.48 45.23, 1.49 35, 4.53 27.8 C7.57 20.6, 13.56 14.19, 19.93 9.68 C26.3 5.17, 39 2.33, 42.75 0.77 C46.49 -0.8, 42.6 -0.27, 42.41 0.29" stroke="#000000" stroke-width="1" fill="none"></path></g></g><g clip-path="url(#M7v8D3-gETxcToJv505qa)"><g stroke-linecap="round"><g transform="translate(410.5171871093408 744.7105301107031) rotate(0 422.52997505839437 -115.09160397470305)" fill-rule="evenodd"><path d="M1.31 -0.76 L294.39 -165.28 L431.29 -107.55 L665.09 -241.09 L843.82 10.04 L0.09 -0.55" stroke="none" stroke-width="0" fill="black" fill-rule="evenodd"></path><path d="M0 0 C76.63 -47.31, 154.27 -90.23, 293.31 -166.81 M0 0 C105.27 -59.38, 208.71 -118.2, 293.31 -166.81 M293.31 -166.81 C349.26 -141.16, 404.66 -117.32, 431.27 -105.93 M293.31 -166.81 C341.24 -146.4, 388.17 -124.42, 431.27 -105.93 M431.27 -105.93 C498.5 -146.95, 568.37 -185.7, 664.63 -240.88 M431.27 -105.93 C522.16 -157.04, 613.51 -210.51, 664.63 -240.88 M664.63 -240.88 C734.22 -143.22, 804.98 -44.14, 845.06 10.7 M664.63 -240.88 C709.64 -176.81, 754.92 -114.02, 845.06 10.7 M845.06 10.7 C523.17 7.3, 200.21 2.71, 0 0 M845.06 10.7 C613.91 5.97, 382.82 3.08, 0 0 M0 0 C0 0, 0 0, 0 0 M0 0 C0 0, 0 0, 0 0" stroke="#000000" stroke-width="1" fill="none"></path></g></g><mask></mask></g><g clip-path="url(#M7v8D3-gETxcToJv505qa)"><g stroke-linecap="round" transform="translate(342.728263293313 92.44814370343556) rotate(0 503.00695269974335 360.01090604606134)"><path d="M0 0 C397.74 3.64, 796.37 2.88, 1006.01 0 M1006.01 0 C1005.66 212.79, 1007.25 424.96, 1006.01 720.02 M1006.01 720.02 C685.5 723.75, 364.33 723.39, 0 720.02 M0 720.02 C-1.17 517.91, -1.02 315.69, 0 0" stroke="#bbb" stroke-width="2.5" fill="none" stroke-dasharray="1.5 8"></path></g></g><g clip-path="url(#M7v8D3-gETxcToJv505qa)"><g transform="translate(40.86097123290955 435.5213781030998) rotate(270.23675559051935 161.49594116210938 22.5)"><text x="0" y="0" font-family="Virgil, Segoe UI Emoji" font-size="36px" fill="#f08c00" text-anchor="start" style="white-space: pre;" direction="ltr" dominant-baseline="text-before-edge">Sidebar Component</text></g></g><g clip-path="url(#M7v8D3-gETxcToJv505qa)"><g stroke-opacity="0.5" fill-opacity="0.5" stroke-linecap="round" transform="translate(68.42848902488004 94.63747341035014) rotate(0 640 360)"><path d="M0 0 L1280 0 L1280 720 L0 720" stroke="none" stroke-width="0" fill="black"></path><path d="M0 0 C397.46 0, 794.92 0, 1280 0 M0 0 C430.49 0, 860.97 0, 1280 0 M1280 0 C1280 257.9, 1280 515.8, 1280 720 M1280 0 C1280 229.96, 1280 459.93, 1280 720 M1280 720 C788.48 720, 296.95 720, 0 720 M1280 720 C971.14 720, 662.27 720, 0 720 M0 720 C0 479.38, 0 238.76, 0 0 M0 720 C0 512.92, 0 305.83, 0 0" stroke="#ced4da" stroke-width="4" fill="none"></path></g></g><g clip-path="url(#M7v8D3-gETxcToJv505qa)"><g stroke-linecap="round" transform="translate(165.9037658718563 195.79562678809634) rotate(0 540.8154087791804 251.431273963095)"><path d="M-1.34 -0.89 L1081.96 -1.49 L1082.69 501.58 L-1.98 501.49" stroke="none" stroke-width="0" fill="white"></path><path d="M0 0 C233.06 -1.47, 466.9 0.12, 1081.63 0 M0 0 C318.39 -1.75, 636.37 -1.83, 1081.63 0 M1081.63 0 C1080.59 157.06, 1081.4 314.45, 1081.63 502.86 M1081.63 0 C1083.42 163.57, 1083.68 327.58, 1081.63 502.86 M1081.63 502.86 C737.73 500.14, 393.13 501.38, 0 502.86 M1081.63 502.86 C719.06 499.35, 357.12 499.27, 0 502.86 M0 502.86 C1.93 366.33, 1.87 229.02, 0 0 M0 502.86 C-0.44 304.13, -0.7 105.63, 0 0" stroke="#000000" stroke-width="1" fill="none"></path></g></g><g clip-path="url(#M7v8D3-gETxcToJv505qa)"><g transform="translate(193.84958116618793 220.30135481221077) rotate(0 172.13378906249997 20.699999999999818)"><text x="0" y="0" font-family="Helvetica, Segoe UI Emoji" font-size="36px" fill="#000000" text-anchor="start" style="white-space: pre;" direction="ltr" dominant-baseline="text-before-edge">Neukundenaufnahme</text></g></g><g clip-path="url(#M7v8D3-gETxcToJv505qa)"><g transform="translate(193.78337785390448 298.72887090587756) rotate(0 318.10546875 57.5)"><text x="0" y="0" font-family="Helvetica, Segoe UI Emoji" font-size="20px" fill="#1e1e1e" text-anchor="start" style="white-space: pre;" direction="ltr" dominant-baseline="text-before-edge"></text><text x="0" y="23" font-family="Helvetica, Segoe UI Emoji" font-size="20px" fill="#1e1e1e" text-anchor="start" style="white-space: pre;" direction="ltr" dominant-baseline="text-before-edge">Wir haben nun alle nötigen Daten.</text><text x="0" y="46" font-family="Helvetica, Segoe UI Emoji" font-size="20px" fill="#1e1e1e" text-anchor="start" style="white-space: pre;" direction="ltr" dominant-baseline="text-before-edge">Wir hoffen Sie haben eine schöne Zeit bei uns in Bad Walden.</text><text x="0" y="69" font-family="Helvetica, Segoe UI Emoji" font-size="20px" fill="#1e1e1e" text-anchor="start" style="white-space: pre;" direction="ltr" dominant-baseline="text-before-edge"></text><text x="0" y="92" font-family="Helvetica, Segoe UI Emoji" font-size="20px" fill="#1e1e1e" text-anchor="start" style="white-space: pre;" direction="ltr" dominant-baseline="text-before-edge">Bei Fragen kontaktieren Sie uns bitte über stadtwerke@badwalden.com</text></g></g><g clip-path="url(#M7v8D3-gETxcToJv505qa)"><g stroke-linecap="round" transform="translate(1071.3946604979628 623.5698958601233) rotate(0 70.17697409785035 20.178376299778392)"><path d="M10.09 0 C48.08 0, 86.06 0, 130.26 0 C136.99 0, 140.35 3.36, 140.35 10.09 C140.35 15.4, 140.35 20.71, 140.35 30.27 C140.35 36.99, 136.99 40.36, 130.26 40.36 C97.62 40.36, 64.98 40.36, 10.09 40.36 C3.36 40.36, 0 36.99, 0 30.27 C0 23.48, 0 16.69, 0 10.09 C0 3.36, 3.36 0, 10.09 0" stroke="none" stroke-width="0" fill="black"></path><path d="M10.09 0 C58.05 0, 106.01 0, 130.26 0 M10.09 0 C51.47 0, 92.86 0, 130.26 0 M130.26 0 C136.99 0, 140.35 3.36, 140.35 10.09 M130.26 0 C136.99 0, 140.35 3.36, 140.35 10.09 M140.35 10.09 C140.35 16.51, 140.35 22.92, 140.35 30.27 M140.35 10.09 C140.35 16.85, 140.35 23.61, 140.35 30.27 M140.35 30.27 C140.35 36.99, 136.99 40.36, 130.26 40.36 M140.35 30.27 C140.35 36.99, 136.99 40.36, 130.26 40.36 M130.26 40.36 C91.67 40.36, 53.08 40.36, 10.09 40.36 M130.26 40.36 C99.57 40.36, 68.87 40.36, 10.09 40.36 M10.09 40.36 C3.36 40.36, 0 36.99, 0 30.27 M10.09 40.36 C3.36 40.36, 0 36.99, 0 30.27 M0 30.27 C0 24.53, 0 18.8, 0 10.09 M0 30.27 C0 22.67, 0 15.07, 0 10.09 M0 10.09 C0 3.36, 3.36 0, 10.09 0 M0 10.09 C0 3.36, 3.36 0, 10.09 0" stroke="white" stroke-width="1" fill="none"></path></g></g><g clip-path="url(#M7v8D3-gETxcToJv505qa)"><g transform="translate(1114.000754807079 631.2684137669012) rotate(0 25.5615234375 11.5)"><text x="25.5615234375" y="0" font-family="Helvetica, Segoe UI Emoji" font-size="20px" fill="white" text-anchor="middle" style="white-space: pre;" direction="ltr" dominant-baseline="text-before-edge">Fertig</text></g></g><g clip-path="url(#M7v8D3-gETxcToJv505qa)"><g transform="translate(191.96973880081816 280.1126016873259) rotate(0 83.015625 16.09999999999991)"><text x="0" y="0" font-family="Helvetica, Segoe UI Emoji" font-size="28px" fill="#1e1e1e" text-anchor="start" style="white-space: pre;" direction="ltr" dominant-baseline="text-before-edge">Vielen Dank !</text></g></g><g transform="translate(10 10) rotate(0 95.57089233398438 8.75)"><text x="0" y="0" font-family="Assistant, Segoe UI Emoji" font-size="14px" fill="#999999" text-anchor="start" style="white-space: pre;" direction="ltr" dominant-baseline="text-before-edge">Home Page - Signup Popup (End)</text></g><rect transform="translate(10 30.5) rotate(0 698.1601562499999 415.95703125)" width="1396.3203124999998px" height="831.9140625000002px" rx="8" ry="8" fill="none" stroke="#bbb" stroke-width="2"></rect><g stroke-linecap="round"><g transform="translate(1223.8913110014435 658.1514648698922) rotate(0 163.52002576346717 164.4426811158155)"><path d="M0 0 C54.51 35.45, 292.03 157.86, 327.04 212.67 C362.05 267.49, 229.56 309.52, 210.06 328.89" stroke="#e03131" stroke-width="4.5" fill="none" stroke-dasharray="8 12"></path></g><g transform="translate(1223.8913110014435 658.1514648698922) rotate(0 163.52002576346717 164.4426811158155)"><path d="M229.39 305.94 C221.88 314.85, 214.38 323.76, 210.06 328.89" stroke="#e03131" stroke-width="4.5" fill="none"></path></g><g transform="translate(1223.8913110014435 658.1514648698922) rotate(0 163.52002576346717 164.4426811158155)"><path d="M239.62 323.72 C228.14 325.73, 216.66 327.73, 210.06 328.89" stroke="#e03131" stroke-width="4.5" fill="none"></path></g></g><mask></mask><g stroke-linecap="round"><g transform="translate(1027.7994584974654 906.7424810115981) rotate(0 195.85879491336004 90.59101883589528)" fill-rule="evenodd"><path d="M1.68 0.23 L-0.76 176.73 L391.59 181.35 L391.78 42.35 L343.07 2.4 L-1.63 -0.3" stroke="none" stroke-width="0" fill="#fff" fill-rule="evenodd"></path><path d="M0 0 C1.78 39.37, 2.56 82.94, 0 178.15 M0 0 C0.81 45.78, -0.18 90.63, 0 178.15 M0 178.15 C153.64 179.04, 308.94 178.71, 391.72 181.18 M0 178.15 C154.07 180.98, 308.92 182.26, 391.72 181.18 M391.72 181.18 C391.83 147.28, 390.47 113.43, 390.71 40.49 M391.72 181.18 C390.77 143.76, 390.47 106.67, 390.71 40.49 M390.71 40.49 C377.99 29.48, 365.28 21.36, 343.13 1.1 M390.71 40.49 C377.13 28.11, 362.95 18.59, 343.13 1.1 M343.13 1.1 C227.71 0.41, 109.7 -1, 0 0 M343.13 1.1 C245.49 -0.32, 147.54 -0.88, 0 0 M0 0 C0 0, 0 0, 0 0 M0 0 C0 0, 0 0, 0 0" stroke="#e03131" stroke-width="1" fill="none"></path></g></g><mask></mask><g transform="translate(1038.28273041974 926.797269251284) rotate(0 154.50537109375 30.68751017252589)"><text x="0" y="0" font-family="Virgil, Segoe UI Emoji" font-size="24.55000813802061px" fill="#e03131" text-anchor="start" style="white-space: pre;" direction="ltr" dominant-baseline="text-before-edge">Close SignUp PopUp</text><text x="0" y="30.687510172525773" font-family="Virgil, Segoe UI Emoji" font-size="24.55000813802061px" fill="#e03131" text-anchor="start" style="white-space: pre;" direction="ltr" dominant-baseline="text-before-edge">Save Data to Database</text></g><g stroke-linecap="round"><g transform="translate(1369.9276654631462 907.2102512281735) rotate(0 24.868658370078833 22.128890922527717)" fill-rule="evenodd"><path d="M0.56 -0.3 L-0.12 43.98 L48.91 44.83 L49.85 38.96 L0.02 -0.86" stroke="none" stroke-width="0" fill="#e03131" fill-rule="evenodd"></path><path d="M0 0 C-0.34 9.23, -0.45 18.62, 0 44.26 M0 0 C0.36 14.47, 0.18 28.77, 0 44.26 M0 44.26 C19.82 44.5, 36.87 43.35, 48.89 43.84 M0 44.26 C11.25 44.13, 22.72 44.17, 48.89 43.84 M48.89 43.84 C49.08 42.23, 49.51 40.35, 49.74 38.36 M48.89 43.84 C49.09 42.29, 49.53 40.56, 49.74 38.36 M49.74 38.36 C37.82 29.52, 25.71 20.33, 0 0 M49.74 38.36 C39.63 31.02, 28.89 22.8, 0 0 M0 0 C0 0, 0 0, 0 0 M0 0 C0 0, 0 0, 0 0" stroke="#fa5252" stroke-width="1" fill="none"></path></g></g><mask></mask></svg>