<svg version="1.1" xmlns="http://www.w3.org/2000/svg" viewBox="0 0 2873.0275612053124 990.9296754442407" width="2873.0275612053124" height="990.9296754442407">
  <!-- svg-source:excalidraw -->
  
  <defs>
    <style class="style-fonts">
      @font-face {
        font-family: "Virgil";
        src: url("https://file%2B.vscode-resource.vscode-cdn.net/c%3A/Users/lisa-/.vscode/extensions/pomdtr.excalidraw-editor-3.7.4/public//dist/excalidraw-assets/Virgil.woff2");
      }
      @font-face {
        font-family: "Cascadia";
        src: url("https://file%2B.vscode-resource.vscode-cdn.net/c%3A/Users/lisa-/.vscode/extensions/pomdtr.excalidraw-editor-3.7.4/public//dist/excalidraw-assets/Cascadia.woff2");
      }
      @font-face {
        font-family: "Assistant";
        src: url("https://file%2B.vscode-resource.vscode-cdn.net/c%3A/Users/lisa-/.vscode/extensions/pomdtr.excalidraw-editor-3.7.4/public//dist/excalidraw-assets/Assistant-Regular.woff2");
      }
    </style>
    <clipPath id="vQAET0YtNKRJw0YsXxpUn">
            <rect transform="translate(1466.7072487053128 31.17926462808282) rotate(0 698.1601562499998 415.9570312500002)" width="1396.3203124999998" height="831.9140625000002">
          </rect>
        </clipPath><clipPath id="I4f9FKyJTCPlFg9gqx1Or">
            <rect transform="translate(10 30.5) rotate(0 698.1601562499999 415.9570312500002)" width="1396.3203124999998" height="831.9140625000002">
          </rect>
        </clipPath>
  </defs>
  <rect x="0" y="0" width="2873.0275612053124" height="990.9296754442407" fill="#ffffff"></rect><g stroke-linecap="round" transform="translate(213.31011085483055 505.3585051613054) rotate(0 473.1557214259577 27.62105468575578)"><path d="M13.81 0 C258.39 6.28, 503.97 5.88, 932.5 0 C943.02 -0.36, 943 2.5, 946.31 13.81 C948.41 21.1, 943.2 34.29, 946.31 41.43 C945.38 52.13, 943.8 57.5, 932.5 55.24 C746.05 54.81, 560.56 53.09, 13.81 55.24 C4.84 56.12, 1.24 52.67, 0 41.43 C2.64 33.46, 0.49 26.8, 0 13.81 C1.38 5.67, 5.88 -1.96, 13.81 0" stroke="none" stroke-width="0" fill="#fff"></path><path d="M13.81 0 C366.38 0.22, 716.96 1.69, 932.5 0 M13.81 0 C291.83 0.23, 569.47 0.85, 932.5 0 M932.5 0 C941.86 -0.21, 948.17 5.29, 946.31 13.81 M932.5 0 C941.59 1.96, 946.76 6.51, 946.31 13.81 M946.31 13.81 C944.22 21.18, 946.92 25.24, 946.31 41.43 M946.31 13.81 C945.56 21.1, 946.55 28.1, 946.31 41.43 M946.31 41.43 C945.91 51.6, 942.31 55.24, 932.5 55.24 M946.31 41.43 C945.91 48.66, 941.77 55.16, 932.5 55.24 M932.5 55.24 C636.86 56.23, 340.95 55.69, 13.81 55.24 M932.5 55.24 C744.75 55.89, 557.57 55.29, 13.81 55.24 M13.81 55.24 C5.38 55.93, -0.8 52.6, 0 41.43 M13.81 55.24 C5.99 55.21, 1.68 51.73, 0 41.43 M0 41.43 C-0.46 35.92, 0.56 30.57, 0 13.81 M0 41.43 C0.67 32.79, -0.59 25.32, 0 13.81 M0 13.81 C1.47 4.08, 4.25 -0.36, 13.81 0 M0 13.81 C0.92 3.8, 3.61 1.87, 13.81 0" stroke="#1e1e1e" stroke-width="2" fill="none"></path></g><g stroke-linecap="round" transform="translate(211.81833459484483 361.2665991900799) rotate(0 477.0198478434861 27.62105468575578)"><path d="M13.81 0 C206.92 -0.97, 398.59 -0.88, 940.23 0 C946.12 -2.11, 954.48 7.37, 954.04 13.81 C950.79 24.52, 953.35 30.27, 954.04 41.43 C956.13 52.9, 945.92 55.9, 940.23 55.24 C672.13 55.16, 404.68 56.94, 13.81 55.24 C5.84 57.27, -3.17 51.33, 0 41.43 C0.2 30.21, 1 25.89, 0 13.81 C1.28 2.64, 3.86 2.88, 13.81 0" stroke="none" stroke-width="0" fill="#fff"></path><path d="M13.81 0 C267.36 4.07, 522.39 3.94, 940.23 0 M13.81 0 C277.78 3.26, 541.9 2.92, 940.23 0 M940.23 0 C951.3 0.69, 953.94 6.31, 954.04 13.81 M940.23 0 C949.89 1.91, 952.02 2.32, 954.04 13.81 M954.04 13.81 C954.67 22.91, 953.17 30.77, 954.04 41.43 M954.04 13.81 C954.39 19.94, 953.7 27.73, 954.04 41.43 M954.04 41.43 C954.64 50.63, 949.09 53.52, 940.23 55.24 M954.04 41.43 C954.1 50.56, 949.94 53.12, 940.23 55.24 M940.23 55.24 C641.65 55.63, 341.97 56.48, 13.81 55.24 M940.23 55.24 C651.99 57, 363.32 57.52, 13.81 55.24 M13.81 55.24 C3.81 57.21, 1.21 50.61, 0 41.43 M13.81 55.24 C6.28 56.33, -1.72 51.37, 0 41.43 M0 41.43 C0.7 36.85, -0.06 29.15, 0 13.81 M0 41.43 C-0.77 32.86, 0.55 23.71, 0 13.81 M0 13.81 C-0.36 4.24, 5.4 -0.7, 13.81 0 M0 13.81 C-0.99 6.48, 3.83 1.99, 13.81 0" stroke="#1e1e1e" stroke-width="2" fill="none"></path></g><g stroke-linecap="round" transform="translate(212.13434092499324 436.8637493481565) rotate(0 475.4251245300868 27.62105468575578)"><path d="M13.81 0 C301.44 0.97, 586.7 0.28, 937.04 0 C946.69 2.76, 949.81 6.32, 950.85 13.81 C949.44 22.56, 952.46 30.59, 950.85 41.43 C947.33 51.29, 945.85 53.7, 937.04 55.24 C641.5 49.01, 346.27 49.47, 13.81 55.24 C1.44 55.93, 0.03 53.38, 0 41.43 C1.3 35.84, 1.2 26.14, 0 13.81 C-0.74 7.48, 4.77 1.94, 13.81 0" stroke="none" stroke-width="0" fill="#fff"></path><path d="M13.81 0 C208.1 -2.87, 402.24 -3.16, 937.04 0 M13.81 0 C217.02 -2.83, 420.54 -2.65, 937.04 0 M937.04 0 C946.14 1.71, 951.24 6.26, 950.85 13.81 M937.04 0 C944.22 -2.29, 951.76 2.52, 950.85 13.81 M950.85 13.81 C950.36 22.4, 949.84 33.57, 950.85 41.43 M950.85 13.81 C950.78 22.18, 951.28 29.58, 950.85 41.43 M950.85 41.43 C950.5 48.92, 946.3 55.17, 937.04 55.24 M950.85 41.43 C951.36 48.51, 946.76 55.86, 937.04 55.24 M937.04 55.24 C640.15 53.97, 344.89 53.22, 13.81 55.24 M937.04 55.24 C606.99 51.92, 276.46 52.18, 13.81 55.24 M13.81 55.24 C5.81 55.22, 1.46 51.59, 0 41.43 M13.81 55.24 C2.88 55.97, -1.78 50.21, 0 41.43 M0 41.43 C-0.2 32.2, 0.23 24.26, 0 13.81 M0 41.43 C0.9 34.29, -0.02 27.49, 0 13.81 M0 13.81 C0.8 3.91, 3.74 1.63, 13.81 0 M0 13.81 C-0.78 6.59, 2.47 -0.02, 13.81 0" stroke="#1e1e1e" stroke-width="2" fill="none"></path></g><g stroke-linecap="round" transform="translate(1002.8840529397376 370.4542157538317) rotate(0 73.93466188158703 16.942610235379107)"><path d="M8.47 0 C45.54 0, 82.62 0, 139.4 0 C145.05 0, 147.87 2.82, 147.87 8.47 C147.87 15.07, 147.87 21.67, 147.87 25.41 C147.87 31.06, 145.05 33.89, 139.4 33.89 C113.09 33.89, 86.79 33.89, 8.47 33.89 C2.82 33.89, 0 31.06, 0 25.41 C0 21.7, 0 17.99, 0 8.47 C0 2.82, 2.82 0, 8.47 0" stroke="none" stroke-width="0" fill="black"></path><path d="M8.47 0 C60.1 0, 111.73 0, 139.4 0 M8.47 0 C57.65 0, 106.83 0, 139.4 0 M139.4 0 C145.05 0, 147.87 2.82, 147.87 8.47 M139.4 0 C145.05 0, 147.87 2.82, 147.87 8.47 M147.87 8.47 C147.87 13.32, 147.87 18.16, 147.87 25.41 M147.87 8.47 C147.87 12.56, 147.87 16.65, 147.87 25.41 M147.87 25.41 C147.87 31.06, 145.05 33.89, 139.4 33.89 M147.87 25.41 C147.87 31.06, 145.05 33.89, 139.4 33.89 M139.4 33.89 C106.29 33.89, 73.18 33.89, 8.47 33.89 M139.4 33.89 C112.39 33.89, 85.37 33.89, 8.47 33.89 M8.47 33.89 C2.82 33.89, 0 31.06, 0 25.41 M8.47 33.89 C2.82 33.89, 0 31.06, 0 25.41 M0 25.41 C0 19, 0 12.58, 0 8.47 M0 25.41 C0 20.06, 0 14.71, 0 8.47 M0 8.47 C0 2.82, 2.82 0, 8.47 0 M0 8.47 C0 2.82, 2.82 0, 8.47 0" stroke="white" stroke-width="2" fill="none"></path></g><g stroke-linecap="round" transform="translate(996.2715041116126 445.51670049504264) rotate(0 73.93466188158703 16.942610235379107)"><path d="M8.47 0 C46.43 0, 84.39 0, 139.4 0 C145.05 0, 147.87 2.82, 147.87 8.47 C147.87 14.26, 147.87 20.04, 147.87 25.41 C147.87 31.06, 145.05 33.89, 139.4 33.89 C96.92 33.89, 54.45 33.89, 8.47 33.89 C2.82 33.89, 0 31.06, 0 25.41 C0 19.83, 0 14.24, 0 8.47 C0 2.82, 2.82 0, 8.47 0" stroke="none" stroke-width="0" fill="black"></path><path d="M8.47 0 C57.83 0, 107.19 0, 139.4 0 M8.47 0 C46.36 0, 84.24 0, 139.4 0 M139.4 0 C145.05 0, 147.87 2.82, 147.87 8.47 M139.4 0 C145.05 0, 147.87 2.82, 147.87 8.47 M147.87 8.47 C147.87 12.04, 147.87 15.6, 147.87 25.41 M147.87 8.47 C147.87 14.37, 147.87 20.26, 147.87 25.41 M147.87 25.41 C147.87 31.06, 145.05 33.89, 139.4 33.89 M147.87 25.41 C147.87 31.06, 145.05 33.89, 139.4 33.89 M139.4 33.89 C92.46 33.89, 45.52 33.89, 8.47 33.89 M139.4 33.89 C95.61 33.89, 51.83 33.89, 8.47 33.89 M8.47 33.89 C2.82 33.89, 0 31.06, 0 25.41 M8.47 33.89 C2.82 33.89, 0 31.06, 0 25.41 M0 25.41 C0 20.31, 0 15.2, 0 8.47 M0 25.41 C0 20.77, 0 16.13, 0 8.47 M0 8.47 C0 2.82, 2.82 0, 8.47 0 M0 8.47 C0 2.82, 2.82 0, 8.47 0" stroke="white" stroke-width="2" fill="none"></path></g><g stroke-linecap="round" transform="translate(818.6715590432532 371.11659978703483) rotate(0 73.93466188158703 16.942610235379107)"><path d="M8.47 0 C40.09 0, 71.71 0, 139.4 0 C145.05 0, 147.87 2.82, 147.87 8.47 C147.87 14.62, 147.87 20.76, 147.87 25.41 C147.87 31.06, 145.05 33.89, 139.4 33.89 C92.74 33.89, 46.08 33.89, 8.47 33.89 C2.82 33.89, 0 31.06, 0 25.41 C0 21.25, 0 17.1, 0 8.47 C0 2.82, 2.82 0, 8.47 0" stroke="none" stroke-width="0" fill="black"></path><path d="M8.47 0 C53.1 0, 97.74 0, 139.4 0 M8.47 0 C52.27 0, 96.07 0, 139.4 0 M139.4 0 C145.05 0, 147.87 2.82, 147.87 8.47 M139.4 0 C145.05 0, 147.87 2.82, 147.87 8.47 M147.87 8.47 C147.87 12.7, 147.87 16.94, 147.87 25.41 M147.87 8.47 C147.87 13.55, 147.87 18.63, 147.87 25.41 M147.87 25.41 C147.87 31.06, 145.05 33.89, 139.4 33.89 M147.87 25.41 C147.87 31.06, 145.05 33.89, 139.4 33.89 M139.4 33.89 C104.67 33.89, 69.94 33.89, 8.47 33.89 M139.4 33.89 C87.26 33.89, 35.13 33.89, 8.47 33.89 M8.47 33.89 C2.82 33.89, 0 31.06, 0 25.41 M8.47 33.89 C2.82 33.89, 0 31.06, 0 25.41 M0 25.41 C0 19.19, 0 12.97, 0 8.47 M0 25.41 C0 20.64, 0 15.86, 0 8.47 M0 8.47 C0 2.82, 2.82 0, 8.47 0 M0 8.47 C0 2.82, 2.82 0, 8.47 0" stroke="white" stroke-width="2" fill="none"></path></g><g stroke-linecap="round" transform="translate(821.6590773538001 518.179130304613) rotate(0 73.93466188158703 16.942610235379107)"><path d="M8.47 0 C57.8 0, 107.14 0, 139.4 0 C145.05 0, 147.87 2.82, 147.87 8.47 C147.87 13.86, 147.87 19.25, 147.87 25.41 C147.87 31.06, 145.05 33.89, 139.4 33.89 C97.62 33.89, 55.85 33.89, 8.47 33.89 C2.82 33.89, 0 31.06, 0 25.41 C0 18.98, 0 12.54, 0 8.47 C0 2.82, 2.82 0, 8.47 0" stroke="none" stroke-width="0" fill="black"></path><path d="M8.47 0 C45.74 0, 83.01 0, 139.4 0 M8.47 0 C58.93 0, 109.39 0, 139.4 0 M139.4 0 C145.05 0, 147.87 2.82, 147.87 8.47 M139.4 0 C145.05 0, 147.87 2.82, 147.87 8.47 M147.87 8.47 C147.87 14.38, 147.87 20.28, 147.87 25.41 M147.87 8.47 C147.87 12.09, 147.87 15.72, 147.87 25.41 M147.87 25.41 C147.87 31.06, 145.05 33.89, 139.4 33.89 M147.87 25.41 C147.87 31.06, 145.05 33.89, 139.4 33.89 M139.4 33.89 C90.55 33.89, 41.7 33.89, 8.47 33.89 M139.4 33.89 C100.29 33.89, 61.19 33.89, 8.47 33.89 M8.47 33.89 C2.82 33.89, 0 31.06, 0 25.41 M8.47 33.89 C2.82 33.89, 0 31.06, 0 25.41 M0 25.41 C0 21.32, 0 17.23, 0 8.47 M0 25.41 C0 20.92, 0 16.43, 0 8.47 M0 8.47 C0 2.82, 2.82 0, 8.47 0 M0 8.47 C0 2.82, 2.82 0, 8.47 0" stroke="white" stroke-width="2" fill="none"></path></g><g stroke-linecap="round" transform="translate(820.0123370789752 444.83255957203255) rotate(0 73.93466188158703 16.942610235379107)"><path d="M8.47 0 C53.98 0, 99.49 0, 139.4 0 C145.05 0, 147.87 2.82, 147.87 8.47 C147.87 12.83, 147.87 17.19, 147.87 25.41 C147.87 31.06, 145.05 33.89, 139.4 33.89 C90.17 33.89, 40.93 33.89, 8.47 33.89 C2.82 33.89, 0 31.06, 0 25.41 C0 19.42, 0 13.42, 0 8.47 C0 2.82, 2.82 0, 8.47 0" stroke="none" stroke-width="0" fill="#1971c2"></path><path d="M8.47 0 C48.71 0, 88.96 0, 139.4 0 M8.47 0 C58.61 0, 108.75 0, 139.4 0 M139.4 0 C145.05 0, 147.87 2.82, 147.87 8.47 M139.4 0 C145.05 0, 147.87 2.82, 147.87 8.47 M147.87 8.47 C147.87 13.21, 147.87 17.95, 147.87 25.41 M147.87 8.47 C147.87 13.49, 147.87 18.52, 147.87 25.41 M147.87 25.41 C147.87 31.06, 145.05 33.89, 139.4 33.89 M147.87 25.41 C147.87 31.06, 145.05 33.89, 139.4 33.89 M139.4 33.89 C95.04 33.89, 50.69 33.89, 8.47 33.89 M139.4 33.89 C93.92 33.89, 48.44 33.89, 8.47 33.89 M8.47 33.89 C2.82 33.89, 0 31.06, 0 25.41 M8.47 33.89 C2.82 33.89, 0 31.06, 0 25.41 M0 25.41 C0 19.08, 0 12.75, 0 8.47 M0 25.41 C0 18.95, 0 12.49, 0 8.47 M0 8.47 C0 2.82, 2.82 0, 8.47 0 M0 8.47 C0 2.82, 2.82 0, 8.47 0" stroke="white" stroke-width="2" fill="none"></path></g><g stroke-linecap="round" transform="translate(998.7948021281263 516.9844505650153) rotate(0 73.93466188158703 16.942610235379107)"><path d="M8.47 0 C35.06 0, 61.65 0, 139.4 0 C145.05 0, 147.87 2.82, 147.87 8.47 C147.87 13.23, 147.87 17.99, 147.87 25.41 C147.87 31.06, 145.05 33.89, 139.4 33.89 C98 33.89, 56.61 33.89, 8.47 33.89 C2.82 33.89, 0 31.06, 0 25.41 C0 19.29, 0 13.17, 0 8.47 C0 2.82, 2.82 0, 8.47 0" stroke="none" stroke-width="0" fill="black"></path><path d="M8.47 0 C59.93 0, 111.38 0, 139.4 0 M8.47 0 C34.73 0, 60.98 0, 139.4 0 M139.4 0 C145.05 0, 147.87 2.82, 147.87 8.47 M139.4 0 C145.05 0, 147.87 2.82, 147.87 8.47 M147.87 8.47 C147.87 14.06, 147.87 19.65, 147.87 25.41 M147.87 8.47 C147.87 11.99, 147.87 15.5, 147.87 25.41 M147.87 25.41 C147.87 31.06, 145.05 33.89, 139.4 33.89 M147.87 25.41 C147.87 31.06, 145.05 33.89, 139.4 33.89 M139.4 33.89 C105.34 33.89, 71.28 33.89, 8.47 33.89 M139.4 33.89 C95.96 33.89, 52.52 33.89, 8.47 33.89 M8.47 33.89 C2.82 33.89, 0 31.06, 0 25.41 M8.47 33.89 C2.82 33.89, 0 31.06, 0 25.41 M0 25.41 C0 20.63, 0 15.85, 0 8.47 M0 25.41 C0 18.87, 0 12.32, 0 8.47 M0 8.47 C0 2.82, 2.82 0, 8.47 0 M0 8.47 C0 2.82, 2.82 0, 8.47 0" stroke="white" stroke-width="2" fill="none"></path></g><g clip-path="url(#vQAET0YtNKRJw0YsXxpUn)"><g transform="translate(1685.0173595601434 532.1588244751442) rotate(0 296.787109375 11.5)"><text x="0" y="0" font-family="Helvetica, Segoe UI Emoji" font-size="20px" fill="#1e1e1e" text-anchor="start" style="white-space: pre;" direction="ltr" dominant-baseline="text-before-edge">  Tarif3            1.33ct/kWh              36 Monate                  12 Monate</text></g></g><g clip-path="url(#vQAET0YtNKRJw0YsXxpUn)"><g transform="translate(1683.5255833001577 388.0669185039187) rotate(0 294.0087890625 11.5)"><text x="0" y="0" font-family="Helvetica, Segoe UI Emoji" font-size="20px" fill="#1e1e1e" text-anchor="start" style="white-space: pre;" direction="ltr" dominant-baseline="text-before-edge"> Tarif1            3.33ct/kWh              12 Monate                  12 Monate</text></g></g><g clip-path="url(#vQAET0YtNKRJw0YsXxpUn)"><g transform="translate(1683.841589630306 463.6640686619953) rotate(0 296.787109375 11.5)"><text x="0" y="0" font-family="Helvetica, Segoe UI Emoji" font-size="20px" fill="#1e1e1e" text-anchor="start" style="white-space: pre;" direction="ltr" dominant-baseline="text-before-edge">  Tarif2            2.33ct/kWh              24 Monate                  12 Monate</text></g></g><g clip-path="url(#vQAET0YtNKRJw0YsXxpUn)"><g transform="translate(2490.6040885266375 388.87609061729336) rotate(0 52.921875 9.200000000000045)"><text x="52.921875" y="0" font-family="Helvetica, Segoe UI Emoji" font-size="16px" fill="white" text-anchor="middle" style="white-space: pre;" direction="ltr" dominant-baseline="text-before-edge">Mehr anzeigen</text></g></g><g clip-path="url(#vQAET0YtNKRJw0YsXxpUn)"><g transform="translate(2483.9915396985125 463.9385753585043) rotate(0 52.921875 9.200000000000045)"><text x="52.921875" y="0" font-family="Helvetica, Segoe UI Emoji" font-size="16px" fill="white" text-anchor="middle" style="white-space: pre;" direction="ltr" dominant-baseline="text-before-edge">Mehr anzeigen</text></g></g><g clip-path="url(#vQAET0YtNKRJw0YsXxpUn)"><g transform="translate(2320.176750880153 389.5384746504965) rotate(0 39.13671875 9.200000000000045)"><text x="39.13671875" y="0" font-family="Helvetica, Segoe UI Emoji" font-size="16px" fill="white" text-anchor="middle" style="white-space: pre;" direction="ltr" dominant-baseline="text-before-edge">Auswählen</text></g></g><g clip-path="url(#vQAET0YtNKRJw0YsXxpUn)"><g transform="translate(2323.1642691907 536.6010051680746) rotate(0 39.13671875 9.200000000000045)"><text x="39.13671875" y="0" font-family="Helvetica, Segoe UI Emoji" font-size="16px" fill="white" text-anchor="middle" style="white-space: pre;" direction="ltr" dominant-baseline="text-before-edge">Auswählen</text></g></g><g clip-path="url(#vQAET0YtNKRJw0YsXxpUn)"><g transform="translate(2321.517528915875 463.2544344354942) rotate(0 39.13671875 9.200000000000045)"><text x="39.13671875" y="0" font-family="Helvetica, Segoe UI Emoji" font-size="16px" fill="white" text-anchor="middle" style="white-space: pre;" direction="ltr" dominant-baseline="text-before-edge">Auswählen</text></g></g><g clip-path="url(#vQAET0YtNKRJw0YsXxpUn)"><g transform="translate(2486.5148377150263 535.406325428477) rotate(0 52.921875 9.200000000000045)"><text x="52.921875" y="0" font-family="Helvetica, Segoe UI Emoji" font-size="16px" fill="white" text-anchor="middle" style="white-space: pre;" direction="ltr" dominant-baseline="text-before-edge">Mehr anzeigen</text></g></g><g clip-path="url(#vQAET0YtNKRJw0YsXxpUn)"><g stroke-linecap="round" transform="translate(1522.3340642784942 92.81576479574142) rotate(0 640 360)"><path d="M0 0 C468.18 0, 936.36 0, 1280 0 M0 0 C509.35 0, 1018.7 0, 1280 0 M1280 0 C1280 181.88, 1280 363.77, 1280 720 M1280 0 C1280 189.9, 1280 379.81, 1280 720 M1280 720 C962.76 720, 645.53 720, 0 720 M1280 720 C856.19 720, 432.37 720, 0 720 M0 720 C0 470.31, 0 220.63, 0 0 M0 720 C0 462.84, 0 205.68, 0 0" stroke="#ced4da" stroke-width="4" fill="none"></path></g></g><g clip-path="url(#vQAET0YtNKRJw0YsXxpUn)"><g stroke-linecap="round"><g transform="translate(1799.0933385327198 92.36689253239956) rotate(0 0.67626953125 360.6884765625)"><path d="M1.05 0.39 C1.27 120.76, 1.09 602.34, 1.01 722.55 M0.14 -0.45 C0.2 119.59, -0.6 600.46, -0.12 721.05" stroke="#bbb" stroke-width="2" fill="none"></path></g></g><mask></mask></g><g clip-path="url(#vQAET0YtNKRJw0YsXxpUn)"><g transform="translate(1827.0334838904355 126.3736976035566) rotate(0 331.6583251953125 110.68798828125)"><text x="0" y="0" font-family="Helvetica, Segoe UI Emoji" font-size="96.25042459239128px" fill="#1e1e1e" text-anchor="start" style="white-space: pre;" direction="ltr" dominant-baseline="text-before-edge">Willkommen </text><text x="0" y="110.68798828124997" font-family="Helvetica, Segoe UI Emoji" font-size="96.25042459239128px" fill="#1e1e1e" text-anchor="start" style="white-space: pre;" direction="ltr" dominant-baseline="text-before-edge">Herr Paul Peter</text></g></g><g clip-path="url(#vQAET0YtNKRJw0YsXxpUn)"><g stroke-linecap="round" transform="translate(1849.5199661015986 391.09703660227024) rotate(0 452.2260940188415 191.05643458574332)"><path d="M0 0 C245.37 3.12, 490.55 2.36, 904.45 0 M0 0 C323.61 -0.07, 646.28 0.49, 904.45 0 M904.45 0 C904.19 108.43, 904.36 215.21, 904.45 382.11 M904.45 0 C903.29 149.16, 903.32 297.45, 904.45 382.11 M904.45 382.11 C632.06 383.48, 361 383.84, 0 382.11 M904.45 382.11 C697.47 383.99, 490.08 384.24, 0 382.11 M0 382.11 C-0.72 246.83, -0.4 109.26, 0 0 M0 382.11 C-1.31 245.26, -0.99 108.62, 0 0" stroke="#000000" stroke-width="1" fill="none"></path></g></g><g clip-path="url(#vQAET0YtNKRJw0YsXxpUn)"><g stroke-linecap="round" transform="translate(1939.1875185948093 466.55027902981647) rotate(0 44.54548100742835 44.54548100742841)"><path d="M42.28 0.6 C49.91 -0.29, 59.06 2.1, 66.13 6.04 C73.21 9.98, 80.97 17.02, 84.72 24.22 C88.48 31.42, 89.63 41.35, 88.68 49.24 C87.73 57.12, 83.96 65.23, 79.01 71.53 C74.05 77.83, 66.38 84.26, 58.95 87.01 C51.52 89.77, 42.36 89.97, 34.43 88.05 C26.5 86.14, 17.02 81.28, 11.36 75.54 C5.7 69.81, 1.95 61.72, 0.48 53.66 C-0.99 45.61, -0.46 34.83, 2.55 27.24 C5.57 19.64, 11.25 12.77, 18.58 8.09 C25.91 3.41, 41.56 0.45, 46.54 -0.84 C51.52 -2.12, 48.57 -0.57, 48.47 0.39 M64.21 4.87 C71.35 7.59, 77.01 15.36, 81.37 22.13 C85.72 28.9, 90.15 37.62, 90.37 45.51 C90.6 53.4, 87.27 62.7, 82.71 69.47 C78.16 76.25, 70.6 82.76, 63.04 86.15 C55.49 89.54, 45.38 91.25, 37.4 89.81 C29.42 88.37, 21.15 82.89, 15.19 77.52 C9.22 72.15, 3.75 65.09, 1.61 57.59 C-0.53 50.09, -0.24 40.29, 2.34 32.51 C4.92 24.72, 11.22 16.13, 17.09 10.88 C22.97 5.62, 29.63 2, 37.61 0.95 C45.59 -0.1, 60.61 3.84, 64.98 4.58 C69.34 5.31, 64.48 4.84, 63.78 5.36" stroke="none" stroke-width="0" fill="black"></path><path d="M40.01 1.12 C47.29 -0.28, 56.58 0.82, 63.82 4.29 C71.06 7.75, 79.33 14.79, 83.48 21.91 C87.62 29.03, 89.03 38.86, 88.69 46.99 C88.35 55.12, 85.89 64.29, 81.43 70.69 C76.96 77.1, 69.29 82.56, 61.92 85.41 C54.55 88.27, 45.11 89.21, 37.21 87.8 C29.32 86.4, 20.38 82.38, 14.56 76.97 C8.74 71.56, 4.23 63.15, 2.28 55.35 C0.34 47.55, 0.41 37.75, 2.88 30.19 C5.36 22.62, 9.77 14.93, 17.15 9.97 C24.53 5.01, 40.77 1.6, 47.18 0.42 C53.59 -0.76, 55.72 2.13, 55.63 2.9 M57.97 2.07 C65.4 3.85, 73.93 10.02, 78.98 16.15 C84.03 22.27, 87.08 30.84, 88.27 38.83 C89.45 46.82, 89.49 56.75, 86.07 64.08 C82.65 71.42, 74.53 78.43, 67.75 82.83 C60.97 87.23, 53.34 90.63, 45.4 90.48 C37.45 90.34, 26.91 86.46, 20.08 81.96 C13.25 77.45, 7.75 70.64, 4.4 63.43 C1.05 56.22, -1.24 46.72, -0.03 38.71 C1.19 30.7, 6.64 21.6, 11.72 15.38 C16.79 9.15, 23.08 3.65, 30.41 1.36 C37.73 -0.92, 51.3 1.33, 55.68 1.68 C60.06 2.04, 56.68 2.71, 56.68 3.49" stroke="#000000" stroke-width="1" fill="none"></path></g></g><g clip-path="url(#vQAET0YtNKRJw0YsXxpUn)"><g stroke-linecap="round"><g transform="translate(1867.2244358146536 745.3897947387845) rotate(0 422.5299750583944 -115.09160397470305)" fill-rule="evenodd"><path d="M0.52 -0.65 L294.69 -168.09 L429.76 -106.18 L664.3 -238.9 L843.36 10.46 L-1.38 0.96" stroke="none" stroke-width="0" fill="black" fill-rule="evenodd"></path><path d="M0 0 C110.39 -62.71, 219.34 -123.33, 293.31 -166.81 M0 0 C60.74 -35.4, 121.44 -69.09, 293.31 -166.81 M293.31 -166.81 C343.51 -146.09, 390.99 -123.77, 431.27 -105.93 M293.31 -166.81 C348.25 -142.98, 403.43 -119.52, 431.27 -105.93 M431.27 -105.93 C506.71 -151.36, 586.08 -195.51, 664.63 -240.88 M431.27 -105.93 C491.13 -140.61, 550.62 -175.44, 664.63 -240.88 M664.63 -240.88 C732.47 -147.82, 798.6 -57.46, 845.06 10.7 M664.63 -240.88 C717.43 -167.55, 770.72 -94.39, 845.06 10.7 M845.06 10.7 C674.97 5.57, 505.41 3.4, 0 0 M845.06 10.7 C573.55 5.65, 301.88 2.51, 0 0 M0 0 C0 0, 0 0, 0 0 M0 0 C0 0, 0 0, 0 0" stroke="#000000" stroke-width="1" fill="none"></path></g></g><mask></mask></g><g clip-path="url(#vQAET0YtNKRJw0YsXxpUn)"><g stroke-linecap="round" transform="translate(1799.4355119986258 93.12740833151793) rotate(0 503.0069526997434 360.0109060460611)"><path d="M0 0 C281.61 2.63, 562.61 1.45, 1006.01 0 M1006.01 0 C1005.93 249.65, 1005.89 499.03, 1006.01 720.02 M1006.01 720.02 C745.61 717.95, 485.03 718, 0 720.02 M0 720.02 C0.22 467.42, 0.23 216.16, 0 0" stroke="#bbb" stroke-width="2.5" fill="none" stroke-dasharray="1.5 8"></path></g></g><g clip-path="url(#vQAET0YtNKRJw0YsXxpUn)"><g transform="translate(1497.5682199382222 436.2006427311817) rotate(270.23675559051935 161.49594116210938 22.5)"><text x="0" y="0" font-family="Virgil, Segoe UI Emoji" font-size="36px" fill="#f08c00" text-anchor="start" style="white-space: pre;" direction="ltr" dominant-baseline="text-before-edge">Sidebar Component</text></g></g><g clip-path="url(#vQAET0YtNKRJw0YsXxpUn)"><g stroke-opacity="0.5" fill-opacity="0.5" stroke-linecap="round" transform="translate(1525.135737730193 95.31673803843341) rotate(0 640 360)"><path d="M0 0 L1280 0 L1280 720 L0 720" stroke="none" stroke-width="0" fill="black"></path><path d="M0 0 C499.01 0, 998.02 0, 1280 0 M0 0 C444.16 0, 888.33 0, 1280 0 M1280 0 C1280 218.84, 1280 437.68, 1280 720 M1280 0 C1280 183.79, 1280 367.59, 1280 720 M1280 720 C787.58 720, 295.16 720, 0 720 M1280 720 C833.35 720, 386.7 720, 0 720 M0 720 C0 526.96, 0 333.92, 0 0 M0 720 C0 507.89, 0 295.78, 0 0" stroke="#ced4da" stroke-width="4" fill="none"></path></g></g><g clip-path="url(#vQAET0YtNKRJw0YsXxpUn)"><g stroke-linecap="round" transform="translate(1621.0149093437806 196.28423993823526) rotate(0 540.8154087791804 251.431273963095)"><path d="M-0.91 -0.74 L1081.44 -1.77 L1080.54 502.58 L1.09 501.49" stroke="none" stroke-width="0" fill="white"></path><path d="M0 0 C263.11 1.2, 527.18 1.15, 1081.63 0 M0 0 C391.22 -3.6, 782.88 -3.45, 1081.63 0 M1081.63 0 C1082.89 155.89, 1082.29 311.55, 1081.63 502.86 M1081.63 0 C1083.38 190.03, 1083.53 379.44, 1081.63 502.86 M1081.63 502.86 C686.54 505.1, 290.93 505.8, 0 502.86 M1081.63 502.86 C675.34 505.74, 268.52 505.34, 0 502.86 M0 502.86 C-0.16 341.51, -0.41 178.39, 0 0 M0 502.86 C1.74 368.09, 1.73 232.94, 0 0" stroke="#000000" stroke-width="1" fill="none"></path></g></g><g clip-path="url(#vQAET0YtNKRJw0YsXxpUn)"><g transform="translate(1649.0870942244444 219.3202013866803) rotate(0 172.1337890625 20.700000000000045)"><text x="0" y="0" font-family="Helvetica, Segoe UI Emoji" font-size="36px" fill="#000000" text-anchor="start" style="white-space: pre;" direction="ltr" dominant-baseline="text-before-edge">Neukundenaufnahme</text></g></g><g clip-path="url(#vQAET0YtNKRJw0YsXxpUn)"><g stroke-linecap="round" transform="translate(2528.1019092032757 624.249160488208) rotate(0 70.17697409785035 20.178376299778392)"><path d="M10.09 0 C51.18 0, 92.27 0, 130.26 0 C136.99 0, 140.35 3.36, 140.35 10.09 C140.35 17.84, 140.35 25.59, 140.35 30.27 C140.35 36.99, 136.99 40.36, 130.26 40.36 C83.08 40.36, 35.89 40.36, 10.09 40.36 C3.36 40.36, 0 36.99, 0 30.27 C0 25.59, 0 20.91, 0 10.09 C0 3.36, 3.36 0, 10.09 0" stroke="none" stroke-width="0" fill="black"></path><path d="M10.09 0 C52.62 0, 95.16 0, 130.26 0 M10.09 0 C53.37 0, 96.66 0, 130.26 0 M130.26 0 C136.99 0, 140.35 3.36, 140.35 10.09 M130.26 0 C136.99 0, 140.35 3.36, 140.35 10.09 M140.35 10.09 C140.35 17.85, 140.35 25.61, 140.35 30.27 M140.35 10.09 C140.35 17.13, 140.35 24.17, 140.35 30.27 M140.35 30.27 C140.35 36.99, 136.99 40.36, 130.26 40.36 M140.35 30.27 C140.35 36.99, 136.99 40.36, 130.26 40.36 M130.26 40.36 C106.08 40.36, 81.9 40.36, 10.09 40.36 M130.26 40.36 C91.66 40.36, 53.05 40.36, 10.09 40.36 M10.09 40.36 C3.36 40.36, 0 36.99, 0 30.27 M10.09 40.36 C3.36 40.36, 0 36.99, 0 30.27 M0 30.27 C0 25.33, 0 20.39, 0 10.09 M0 30.27 C0 24.87, 0 19.48, 0 10.09 M0 10.09 C0 3.36, 3.36 0, 10.09 0 M0 10.09 C0 3.36, 3.36 0, 10.09 0" stroke="white" stroke-width="1" fill="none"></path></g></g><g clip-path="url(#vQAET0YtNKRJw0YsXxpUn)"><g transform="translate(2565.686464056639 633.4008164090401) rotate(0 28.7109375 11.5)"><text x="28.7109375" y="0" font-family="Helvetica, Segoe UI Emoji" font-size="20px" fill="white" text-anchor="middle" style="white-space: pre;" direction="ltr" dominant-baseline="text-before-edge">Weiter</text></g></g><g clip-path="url(#vQAET0YtNKRJw0YsXxpUn)"><g transform="translate(1650.283618169868 274.55205054562066) rotate(0 204.6474609375 16.09999999999991)"><text x="0" y="0" font-family="Helvetica, Segoe UI Emoji" font-size="28px" fill="#1e1e1e" text-anchor="start" style="white-space: pre;" direction="ltr" dominant-baseline="text-before-edge">Bitte wählen Sie Ihren Stromtarif.</text></g></g><g clip-path="url(#vQAET0YtNKRJw0YsXxpUn)"><g stroke-linecap="round" transform="translate(1670.0173595601434 506.0377697893882) rotate(0 473.1557214259577 27.62105468575578)"><path d="M13.81 0 C352.32 -2.56, 690.41 -2.1, 932.5 0 C940.99 -0.07, 948.86 5.49, 946.31 13.81 C943.89 25.46, 950.07 35.07, 946.31 41.43 C947.68 51.32, 939.47 53.8, 932.5 55.24 C678.26 55.66, 423.61 54.85, 13.81 55.24 C6.29 57.48, 3.51 53.87, 0 41.43 C0.96 32.29, -1.31 25.91, 0 13.81 C0.01 6.94, 5.14 3.2, 13.81 0" stroke="none" stroke-width="0" fill="#fff"></path><path d="M13.81 0 C242.28 -0.07, 469.59 -0.14, 932.5 0 M13.81 0 C318.12 1.95, 622.48 1.36, 932.5 0 M932.5 0 C942.64 1.13, 948.01 3.76, 946.31 13.81 M932.5 0 C943.22 0.45, 947.6 5.92, 946.31 13.81 M946.31 13.81 C947.96 20.15, 947.61 30.05, 946.31 41.43 M946.31 13.81 C946.44 24.84, 945.91 35.77, 946.31 41.43 M946.31 41.43 C947.52 50.53, 939.73 54.61, 932.5 55.24 M946.31 41.43 C944.31 50.5, 941.62 56.56, 932.5 55.24 M932.5 55.24 C661.7 53.5, 390.79 53.14, 13.81 55.24 M932.5 55.24 C670.03 52.95, 407.53 52.64, 13.81 55.24 M13.81 55.24 C5.52 54.13, -1.11 50.31, 0 41.43 M13.81 55.24 C5.46 56.13, 0.5 48.46, 0 41.43 M0 41.43 C-1.19 30.92, -0.16 23.09, 0 13.81 M0 41.43 C-0.45 30.89, 0.71 20.27, 0 13.81 M0 13.81 C-1.05 5.98, 5.44 0.8, 13.81 0 M0 13.81 C-1.49 6.4, 6.57 0.57, 13.81 0" stroke="#1e1e1e" stroke-width="2" fill="none"></path></g></g><g clip-path="url(#vQAET0YtNKRJw0YsXxpUn)"><g transform="translate(1675.0173595601434 522.1588244751442) rotate(0 296.787109375 11.5)"><text x="0" y="0" font-family="Helvetica, Segoe UI Emoji" font-size="20px" fill="#1e1e1e" text-anchor="start" style="white-space: pre;" direction="ltr" dominant-baseline="text-before-edge">  Tarif3            1.33ct/kWh              36 Monate                  12 Monate</text></g></g><g clip-path="url(#vQAET0YtNKRJw0YsXxpUn)"><g stroke-linecap="round" transform="translate(1650.2972334071856 348.88592531560016) rotate(359.9296265924723 515.8420183976855 120.03262627291747)"><path d="M0 0 C319.58 0.21, 638.3 0.22, 1031.68 0 M0 0 C389.59 3.15, 779.15 2.75, 1031.68 0 M1031.68 0 C1033.03 87.39, 1032.89 176.64, 1031.68 240.07 M1031.68 0 C1030.8 90.99, 1030.12 180.37, 1031.68 240.07 M1031.68 240.07 C699.86 239.28, 367.58 238, 0 240.07 M1031.68 240.07 C754.69 240.05, 477.71 239.91, 0 240.07 M0 240.07 C-0.73 178.05, 0.51 118.76, 0 0 M0 240.07 C-0.06 184.35, 0.24 128.52, 0 0" stroke="#000000" stroke-width="1" fill="none"></path></g></g><g clip-path="url(#vQAET0YtNKRJw0YsXxpUn)"><g stroke-linecap="round" transform="translate(2633.1165819001167 364.49808555136224) rotate(359.9296265924723 15.44090099337484 103.3042967389606)"><path d="M0 0 C8.39 0.54, 20.13 1.45, 30.88 0 M0 0 C7.93 -0.6, 14.81 0.02, 30.88 0 M30.88 0 C32.8 74.69, 33.28 145.96, 30.88 206.61 M30.88 0 C31.5 73.9, 31.98 148.1, 30.88 206.61 M30.88 206.61 C22.46 204.82, 13.63 205.05, 0 206.61 M30.88 206.61 C21.74 207, 12.26 206.41, 0 206.61 M0 206.61 C1.37 147.56, 0.41 86.7, 0 0 M0 206.61 C0.24 132.06, -0.65 58.35, 0 0" stroke="#000000" stroke-width="1" fill="none"></path></g></g><g clip-path="url(#vQAET0YtNKRJw0YsXxpUn)"><g stroke-linecap="round" transform="translate(2641.756547387888 369.3934143524166) rotate(359.9296265924723 9.457430284254315 81.77208864368254)"><path d="M0.22 -0.95 L19.17 -0.33 L19.6 162.91 L-0.75 163.42" stroke="none" stroke-width="0" fill="black"></path><path d="M0 0 C6.99 0.7, 11.84 0.41, 18.91 0 M0 0 C7.06 0.13, 13.76 0.31, 18.91 0 M18.91 0 C20.07 44.53, 19.9 90.85, 18.91 163.54 M18.91 0 C18.76 64.33, 18.5 128.6, 18.91 163.54 M18.91 163.54 C11.8 162.63, 5.22 163.42, 0 163.54 M18.91 163.54 C11.94 163.39, 5.35 163.15, 0 163.54 M0 163.54 C-0.57 123.47, 0.7 83.34, 0 0 M0 163.54 C-0.65 117.84, -0.19 72.49, 0 0" stroke="#000000" stroke-width="1" fill="none"></path></g></g><g clip-path="url(#vQAET0YtNKRJw0YsXxpUn)"><g stroke-linecap="round" transform="translate(1668.5255833001577 361.9458638181627) rotate(0 477.0198478434861 27.62105468575578)"><path d="M13.81 0 C314.85 -6.79, 615.73 -4.32, 940.23 0 C950.16 1.37, 954.72 2.37, 954.04 13.81 C954.11 20.27, 954.11 25.72, 954.04 41.43 C952.18 52.33, 951.67 58.76, 940.23 55.24 C578.27 52.49, 217.12 51.58, 13.81 55.24 C3.37 55.25, 2.34 51.17, 0 41.43 C-1.94 33.24, 3.47 16.61, 0 13.81 C0.55 1.02, 6.92 -3.36, 13.81 0" stroke="none" stroke-width="0" fill="#fff"></path><path d="M13.81 0 C320.41 -2.5, 628.59 -2.19, 940.23 0 M13.81 0 C252.69 -0.5, 491.04 -0.53, 940.23 0 M940.23 0 C950.71 1.52, 952.74 5.76, 954.04 13.81 M940.23 0 C950.57 2.13, 953.31 4.41, 954.04 13.81 M954.04 13.81 C954.61 23.91, 953.98 29.61, 954.04 41.43 M954.04 13.81 C953.76 21.8, 953.74 28.85, 954.04 41.43 M954.04 41.43 C953.13 49.9, 949.25 53.47, 940.23 55.24 M954.04 41.43 C952.79 50.31, 950.69 53.66, 940.23 55.24 M940.23 55.24 C655.69 55.94, 371.05 55.13, 13.81 55.24 M940.23 55.24 C677.69 56.3, 415.07 56.55, 13.81 55.24 M13.81 55.24 C5.98 53.97, -1.51 50.39, 0 41.43 M13.81 55.24 C4.22 57.52, -1.95 50.36, 0 41.43 M0 41.43 C1.63 33.99, 1.24 29.5, 0 13.81 M0 41.43 C1.03 32.29, 0.85 22.89, 0 13.81 M0 13.81 C0.71 5.73, 4.31 1.68, 13.81 0 M0 13.81 C0.39 4.15, 4.56 1.63, 13.81 0" stroke="#1e1e1e" stroke-width="2" fill="none"></path></g></g><g clip-path="url(#vQAET0YtNKRJw0YsXxpUn)"><g transform="translate(1673.5255833001577 378.0669185039187) rotate(0 294.0087890625 11.5)"><text x="0" y="0" font-family="Helvetica, Segoe UI Emoji" font-size="20px" fill="#1e1e1e" text-anchor="start" style="white-space: pre;" direction="ltr" dominant-baseline="text-before-edge"> Tarif1            3.33ct/kWh              12 Monate                  12 Monate</text></g></g><g clip-path="url(#vQAET0YtNKRJw0YsXxpUn)"><g stroke-linecap="round" transform="translate(1668.841589630306 437.5430139762393) rotate(0 475.4251245300868 27.62105468575578)"><path d="M13.81 0 C218.15 -5.61, 422.18 -7.05, 937.04 0 C944.81 -0.85, 950.24 4.79, 950.85 13.81 C949.02 23.23, 953.11 32.79, 950.85 41.43 C954.08 49.15, 944.6 53.23, 937.04 55.24 C640.67 52.4, 346.22 52.61, 13.81 55.24 C7.81 53.72, 0.42 48.49, 0 41.43 C0.1 27.6, 1.87 17.57, 0 13.81 C-0.34 4.5, 5.12 -0.19, 13.81 0" stroke="none" stroke-width="0" fill="#fff"></path><path d="M13.81 0 C333.64 -2.6, 654.3 -2.68, 937.04 0 M13.81 0 C343.81 -1.5, 673.04 -1.58, 937.04 0 M937.04 0 C947.23 1.86, 950.21 4.44, 950.85 13.81 M937.04 0 C946.75 0.42, 950.14 5.2, 950.85 13.81 M950.85 13.81 C950.2 22.03, 950.72 33.66, 950.85 41.43 M950.85 13.81 C950.38 23.31, 950.74 32.67, 950.85 41.43 M950.85 41.43 C949.76 50.35, 947.34 53.87, 937.04 55.24 M950.85 41.43 C951.01 51.98, 946.45 54.76, 937.04 55.24 M937.04 55.24 C617.7 53.5, 298.93 53.38, 13.81 55.24 M937.04 55.24 C747.74 53.78, 557.59 53.99, 13.81 55.24 M13.81 55.24 C4.27 57.22, -1.7 50.4, 0 41.43 M13.81 55.24 C3.02 56.35, 1.1 52.67, 0 41.43 M0 41.43 C0.61 33.31, 1.37 29.48, 0 13.81 M0 41.43 C0.17 33.03, -0.33 24.34, 0 13.81 M0 13.81 C0.34 4.21, 4.56 1.42, 13.81 0 M0 13.81 C0.56 6.25, 6.55 0.58, 13.81 0" stroke="#1e1e1e" stroke-width="2" fill="none"></path></g></g><g clip-path="url(#vQAET0YtNKRJw0YsXxpUn)"><g transform="translate(1673.841589630306 453.6640686619953) rotate(0 296.787109375 11.5)"><text x="0" y="0" font-family="Helvetica, Segoe UI Emoji" font-size="20px" fill="#1e1e1e" text-anchor="start" style="white-space: pre;" direction="ltr" dominant-baseline="text-before-edge">  Tarif2            2.33ct/kWh              24 Monate                  12 Monate</text></g></g><g clip-path="url(#vQAET0YtNKRJw0YsXxpUn)"><g stroke-linecap="round" transform="translate(2459.5913016450504 371.1334803819145) rotate(0 73.93466188158709 16.942610235379107)"><path d="M8.47 0 C52.74 0, 97.02 0, 139.4 0 C145.05 0, 147.87 2.82, 147.87 8.47 C147.87 14.35, 147.87 20.22, 147.87 25.41 C147.87 31.06, 145.05 33.89, 139.4 33.89 C100.09 33.89, 60.77 33.89, 8.47 33.89 C2.82 33.89, 0 31.06, 0 25.41 C0 22.02, 0 18.62, 0 8.47 C0 2.82, 2.82 0, 8.47 0" stroke="none" stroke-width="0" fill="black"></path><path d="M8.47 0 C56.35 0, 104.23 0, 139.4 0 M8.47 0 C57.68 0, 106.88 0, 139.4 0 M139.4 0 C145.05 0, 147.87 2.82, 147.87 8.47 M139.4 0 C145.05 0, 147.87 2.82, 147.87 8.47 M147.87 8.47 C147.87 12.08, 147.87 15.68, 147.87 25.41 M147.87 8.47 C147.87 12.92, 147.87 17.38, 147.87 25.41 M147.87 25.41 C147.87 31.06, 145.05 33.89, 139.4 33.89 M147.87 25.41 C147.87 31.06, 145.05 33.89, 139.4 33.89 M139.4 33.89 C95.23 33.89, 51.06 33.89, 8.47 33.89 M139.4 33.89 C108.47 33.89, 77.54 33.89, 8.47 33.89 M8.47 33.89 C2.82 33.89, 0 31.06, 0 25.41 M8.47 33.89 C2.82 33.89, 0 31.06, 0 25.41 M0 25.41 C0 21.43, 0 17.44, 0 8.47 M0 25.41 C0 19.37, 0 13.33, 0 8.47 M0 8.47 C0 2.82, 2.82 0, 8.47 0 M0 8.47 C0 2.82, 2.82 0, 8.47 0" stroke="white" stroke-width="2" fill="none"></path></g></g><g clip-path="url(#vQAET0YtNKRJw0YsXxpUn)"><g transform="translate(2480.6040885266375 378.87609061729336) rotate(0 52.921875 9.200000000000045)"><text x="52.921875" y="0" font-family="Helvetica, Segoe UI Emoji" font-size="16px" fill="white" text-anchor="middle" style="white-space: pre;" direction="ltr" dominant-baseline="text-before-edge">Mehr anzeigen</text></g></g><g clip-path="url(#vQAET0YtNKRJw0YsXxpUn)"><g stroke-linecap="round" transform="translate(2452.9787528169254 446.19596512312546) rotate(0 73.93466188158709 16.942610235379107)"><path d="M8.47 0 C51.01 0, 93.54 0, 139.4 0 C145.05 0, 147.87 2.82, 147.87 8.47 C147.87 14.99, 147.87 21.5, 147.87 25.41 C147.87 31.06, 145.05 33.89, 139.4 33.89 C90.44 33.89, 41.48 33.89, 8.47 33.89 C2.82 33.89, 0 31.06, 0 25.41 C0 20.81, 0 16.21, 0 8.47 C0 2.82, 2.82 0, 8.47 0" stroke="none" stroke-width="0" fill="black"></path><path d="M8.47 0 C43.49 0, 78.5 0, 139.4 0 M8.47 0 C41.21 0, 73.95 0, 139.4 0 M139.4 0 C145.05 0, 147.87 2.82, 147.87 8.47 M139.4 0 C145.05 0, 147.87 2.82, 147.87 8.47 M147.87 8.47 C147.87 13.12, 147.87 17.76, 147.87 25.41 M147.87 8.47 C147.87 13.15, 147.87 17.82, 147.87 25.41 M147.87 25.41 C147.87 31.06, 145.05 33.89, 139.4 33.89 M147.87 25.41 C147.87 31.06, 145.05 33.89, 139.4 33.89 M139.4 33.89 C109 33.89, 78.61 33.89, 8.47 33.89 M139.4 33.89 C102.92 33.89, 66.45 33.89, 8.47 33.89 M8.47 33.89 C2.82 33.89, 0 31.06, 0 25.41 M8.47 33.89 C2.82 33.89, 0 31.06, 0 25.41 M0 25.41 C0 19.29, 0 13.16, 0 8.47 M0 25.41 C0 20.82, 0 16.22, 0 8.47 M0 8.47 C0 2.82, 2.82 0, 8.47 0 M0 8.47 C0 2.82, 2.82 0, 8.47 0" stroke="white" stroke-width="2" fill="none"></path></g></g><g clip-path="url(#vQAET0YtNKRJw0YsXxpUn)"><g transform="translate(2473.9915396985125 453.9385753585043) rotate(0 52.921875 9.200000000000045)"><text x="52.921875" y="0" font-family="Helvetica, Segoe UI Emoji" font-size="16px" fill="white" text-anchor="middle" style="white-space: pre;" direction="ltr" dominant-baseline="text-before-edge">Mehr anzeigen</text></g></g><g clip-path="url(#vQAET0YtNKRJw0YsXxpUn)"><g stroke-linecap="round" transform="translate(2275.378807748566 371.79586441511765) rotate(0 73.93466188158703 16.942610235379107)"><path d="M8.47 0 C59.06 0, 109.64 0, 139.4 0 C145.05 0, 147.87 2.82, 147.87 8.47 C147.87 14.25, 147.87 20.03, 147.87 25.41 C147.87 31.06, 145.05 33.89, 139.4 33.89 C97.21 33.89, 55.01 33.89, 8.47 33.89 C2.82 33.89, 0 31.06, 0 25.41 C0 19.5, 0 13.59, 0 8.47 C0 2.82, 2.82 0, 8.47 0" stroke="none" stroke-width="0" fill="black"></path><path d="M8.47 0 C40.41 0, 72.35 0, 139.4 0 M8.47 0 C50.52 0, 92.57 0, 139.4 0 M139.4 0 C145.05 0, 147.87 2.82, 147.87 8.47 M139.4 0 C145.05 0, 147.87 2.82, 147.87 8.47 M147.87 8.47 C147.87 12.07, 147.87 15.67, 147.87 25.41 M147.87 8.47 C147.87 12.35, 147.87 16.23, 147.87 25.41 M147.87 25.41 C147.87 31.06, 145.05 33.89, 139.4 33.89 M147.87 25.41 C147.87 31.06, 145.05 33.89, 139.4 33.89 M139.4 33.89 C105.47 33.89, 71.55 33.89, 8.47 33.89 M139.4 33.89 C96.61 33.89, 53.83 33.89, 8.47 33.89 M8.47 33.89 C2.82 33.89, 0 31.06, 0 25.41 M8.47 33.89 C2.82 33.89, 0 31.06, 0 25.41 M0 25.41 C0 21.13, 0 16.84, 0 8.47 M0 25.41 C0 19.47, 0 13.52, 0 8.47 M0 8.47 C0 2.82, 2.82 0, 8.47 0 M0 8.47 C0 2.82, 2.82 0, 8.47 0" stroke="white" stroke-width="2" fill="none"></path></g></g><g clip-path="url(#vQAET0YtNKRJw0YsXxpUn)"><g transform="translate(2310.176750880153 379.5384746504965) rotate(0 39.13671875 9.200000000000045)"><text x="39.13671875" y="0" font-family="Helvetica, Segoe UI Emoji" font-size="16px" fill="white" text-anchor="middle" style="white-space: pre;" direction="ltr" dominant-baseline="text-before-edge">Auswählen</text></g></g><g clip-path="url(#vQAET0YtNKRJw0YsXxpUn)"><g stroke-linecap="round" transform="translate(2278.366326059113 518.8583949326958) rotate(0 73.93466188158703 16.942610235379107)"><path d="M8.47 0 C47.29 0, 86.1 0, 139.4 0 C145.05 0, 147.87 2.82, 147.87 8.47 C147.87 14.83, 147.87 21.2, 147.87 25.41 C147.87 31.06, 145.05 33.89, 139.4 33.89 C103.05 33.89, 66.69 33.89, 8.47 33.89 C2.82 33.89, 0 31.06, 0 25.41 C0 18.82, 0 12.23, 0 8.47 C0 2.82, 2.82 0, 8.47 0" stroke="none" stroke-width="0" fill="black"></path><path d="M8.47 0 C49.42 0, 90.37 0, 139.4 0 M8.47 0 C35.6 0, 62.73 0, 139.4 0 M139.4 0 C145.05 0, 147.87 2.82, 147.87 8.47 M139.4 0 C145.05 0, 147.87 2.82, 147.87 8.47 M147.87 8.47 C147.87 14.81, 147.87 21.15, 147.87 25.41 M147.87 8.47 C147.87 13.67, 147.87 18.86, 147.87 25.41 M147.87 25.41 C147.87 31.06, 145.05 33.89, 139.4 33.89 M147.87 25.41 C147.87 31.06, 145.05 33.89, 139.4 33.89 M139.4 33.89 C88.66 33.89, 37.92 33.89, 8.47 33.89 M139.4 33.89 C97.88 33.89, 56.37 33.89, 8.47 33.89 M8.47 33.89 C2.82 33.89, 0 31.06, 0 25.41 M8.47 33.89 C2.82 33.89, 0 31.06, 0 25.41 M0 25.41 C0 19.88, 0 14.34, 0 8.47 M0 25.41 C0 19.84, 0 14.27, 0 8.47 M0 8.47 C0 2.82, 2.82 0, 8.47 0 M0 8.47 C0 2.82, 2.82 0, 8.47 0" stroke="white" stroke-width="2" fill="none"></path></g></g><g clip-path="url(#vQAET0YtNKRJw0YsXxpUn)"><g transform="translate(2313.1642691907 526.6010051680746) rotate(0 39.13671875 9.200000000000045)"><text x="39.13671875" y="0" font-family="Helvetica, Segoe UI Emoji" font-size="16px" fill="white" text-anchor="middle" style="white-space: pre;" direction="ltr" dominant-baseline="text-before-edge">Auswählen</text></g></g><g clip-path="url(#vQAET0YtNKRJw0YsXxpUn)"><g stroke-linecap="round" transform="translate(2276.719585784288 445.51182420011537) rotate(0 73.93466188158703 16.942610235379107)"><path d="M8.47 0 C44.66 0, 80.86 0, 139.4 0 C145.05 0, 147.87 2.82, 147.87 8.47 C147.87 12.85, 147.87 17.24, 147.87 25.41 C147.87 31.06, 145.05 33.89, 139.4 33.89 C105.65 33.89, 71.89 33.89, 8.47 33.89 C2.82 33.89, 0 31.06, 0 25.41 C0 20.38, 0 15.35, 0 8.47 C0 2.82, 2.82 0, 8.47 0" stroke="none" stroke-width="0" fill="#1971c2"></path><path d="M8.47 0 C44.64 0, 80.81 0, 139.4 0 M8.47 0 C59.89 0, 111.32 0, 139.4 0 M139.4 0 C145.05 0, 147.87 2.82, 147.87 8.47 M139.4 0 C145.05 0, 147.87 2.82, 147.87 8.47 M147.87 8.47 C147.87 13.46, 147.87 18.45, 147.87 25.41 M147.87 8.47 C147.87 13.31, 147.87 18.15, 147.87 25.41 M147.87 25.41 C147.87 31.06, 145.05 33.89, 139.4 33.89 M147.87 25.41 C147.87 31.06, 145.05 33.89, 139.4 33.89 M139.4 33.89 C96.72 33.89, 54.04 33.89, 8.47 33.89 M139.4 33.89 C87.14 33.89, 34.89 33.89, 8.47 33.89 M8.47 33.89 C2.82 33.89, 0 31.06, 0 25.41 M8.47 33.89 C2.82 33.89, 0 31.06, 0 25.41 M0 25.41 C0 19.19, 0 12.96, 0 8.47 M0 25.41 C0 20.67, 0 15.92, 0 8.47 M0 8.47 C0 2.82, 2.82 0, 8.47 0 M0 8.47 C0 2.82, 2.82 0, 8.47 0" stroke="white" stroke-width="2" fill="none"></path></g></g><g clip-path="url(#vQAET0YtNKRJw0YsXxpUn)"><g transform="translate(2311.517528915875 453.2544344354942) rotate(0 39.13671875 9.200000000000045)"><text x="39.13671875" y="0" font-family="Helvetica, Segoe UI Emoji" font-size="16px" fill="white" text-anchor="middle" style="white-space: pre;" direction="ltr" dominant-baseline="text-before-edge">Auswählen</text></g></g><g clip-path="url(#vQAET0YtNKRJw0YsXxpUn)"><g stroke-linecap="round" transform="translate(2455.502050833439 517.6637151930981) rotate(0 73.93466188158709 16.942610235379107)"><path d="M8.47 0 C48.42 0, 88.37 0, 139.4 0 C145.05 0, 147.87 2.82, 147.87 8.47 C147.87 12.61, 147.87 16.76, 147.87 25.41 C147.87 31.06, 145.05 33.89, 139.4 33.89 C88.28 33.89, 37.16 33.89, 8.47 33.89 C2.82 33.89, 0 31.06, 0 25.41 C0 20.13, 0 14.85, 0 8.47 C0 2.82, 2.82 0, 8.47 0" stroke="none" stroke-width="0" fill="black"></path><path d="M8.47 0 C39.27 0, 70.07 0, 139.4 0 M8.47 0 C50.17 0, 91.86 0, 139.4 0 M139.4 0 C145.05 0, 147.87 2.82, 147.87 8.47 M139.4 0 C145.05 0, 147.87 2.82, 147.87 8.47 M147.87 8.47 C147.87 13.39, 147.87 18.31, 147.87 25.41 M147.87 8.47 C147.87 14.54, 147.87 20.62, 147.87 25.41 M147.87 25.41 C147.87 31.06, 145.05 33.89, 139.4 33.89 M147.87 25.41 C147.87 31.06, 145.05 33.89, 139.4 33.89 M139.4 33.89 C109.98 33.89, 80.57 33.89, 8.47 33.89 M139.4 33.89 C93.81 33.89, 48.23 33.89, 8.47 33.89 M8.47 33.89 C2.82 33.89, 0 31.06, 0 25.41 M8.47 33.89 C2.82 33.89, 0 31.06, 0 25.41 M0 25.41 C0 20.58, 0 15.75, 0 8.47 M0 25.41 C0 19.12, 0 12.82, 0 8.47 M0 8.47 C0 2.82, 2.82 0, 8.47 0 M0 8.47 C0 2.82, 2.82 0, 8.47 0" stroke="white" stroke-width="2" fill="none"></path></g></g><g clip-path="url(#vQAET0YtNKRJw0YsXxpUn)"><g transform="translate(2476.5148377150263 525.406325428477) rotate(0 52.921875 9.200000000000045)"><text x="52.921875" y="0" font-family="Helvetica, Segoe UI Emoji" font-size="16px" fill="white" text-anchor="middle" style="white-space: pre;" direction="ltr" dominant-baseline="text-before-edge">Mehr anzeigen</text></g></g><g clip-path="url(#vQAET0YtNKRJw0YsXxpUn)"><g transform="translate(1671.1883494111278 318.85896581016004) rotate(0 300.6640625 11.5)"><text x="0" y="0" font-family="Helvetica, Segoe UI Emoji" font-size="20px" fill="#1e1e1e" text-anchor="start" style="white-space: pre;" direction="ltr" dominant-baseline="text-before-edge">Name                  Tarif             Mindestlaufzeit            Kündigungsfrist</text></g></g><g clip-path="url(#vQAET0YtNKRJw0YsXxpUn)"><g transform="translate(1688.9616633129804 596.7687479715009) rotate(0 462.68554687500006 11.5)"><text x="0" y="0" font-family="Helvetica, Segoe UI Emoji" font-size="20px" fill="#1e1e1e" text-anchor="start" style="white-space: pre;" direction="ltr" dominant-baseline="text-before-edge">Ich habe einen externen Stromanbieter und möchte keinen Strom der Stadtwerke Bad Walden beziehen.</text></g></g><g clip-path="url(#vQAET0YtNKRJw0YsXxpUn)"><g stroke-linecap="round" transform="translate(1651.321276841253 595.4370087963025) rotate(0 11.871394654599783 10.625033908420164)"><path d="M0 0 C8.39 -0.24, 15.26 -0.03, 23.74 0 M0 0 C8.83 0.15, 16.7 -0.36, 23.74 0 M23.74 0 C23.15 6.04, 23 11.66, 23.74 21.25 M23.74 0 C23.78 4.79, 23.56 10.51, 23.74 21.25 M23.74 21.25 C15.12 20.75, 5.83 20.32, 0 21.25 M23.74 21.25 C15.6 21.03, 6.95 20.99, 0 21.25 M0 21.25 C0.5 13.19, 0.63 5.84, 0 0 M0 21.25 C0.31 15.24, 0.42 8.75, 0 0" stroke="#000000" stroke-width="1" fill="none"></path></g></g><g transform="translate(1466.7072487053128 10.67926462808282) rotate(0 95.97687530517578 8.75)"><text x="0" y="0" font-family="Assistant, Segoe UI Emoji" font-size="14px" fill="#999999" text-anchor="start" style="white-space: pre;" direction="ltr" dominant-baseline="text-before-edge">Home Page - Signup Popup (2.21)</text></g><rect transform="translate(1466.7072487053128 31.17926462808282) rotate(0 698.1601562499998 415.9570312500002)" width="1396.3203124999998px" height="831.9140625000002px" rx="8" ry="8" fill="none" stroke="#bbb" stroke-width="2"></rect><g clip-path="url(#I4f9FKyJTCPlFg9gqx1Or)"><g stroke-linecap="round" transform="translate(65.62681557318137 92.1365001676586) rotate(0 640 360)"><path d="M0 0 C377.33 0, 754.65 0, 1280 0 M0 0 C267.98 0, 535.96 0, 1280 0 M1280 0 C1280 179.88, 1280 359.75, 1280 720 M1280 0 C1280 215.77, 1280 431.53, 1280 720 M1280 720 C867.23 720, 454.47 720, 0 720 M1280 720 C881.35 720, 482.7 720, 0 720 M0 720 C0 532.71, 0 345.42, 0 0 M0 720 C0 481.11, 0 242.22, 0 0" stroke="#ced4da" stroke-width="4" fill="none"></path></g></g><g clip-path="url(#I4f9FKyJTCPlFg9gqx1Or)"><g stroke-linecap="round"><g transform="translate(342.386089827407 91.68762790431674) rotate(0 0.67626953125 360.6884765625)"><path d="M1 -1.06 C0.85 119.21, 0.28 601.29, 0.16 721.85 M0.06 1 C0.17 120.89, 1.82 600.07, 2.24 719.98" stroke="#bbb" stroke-width="2" fill="none"></path></g></g><mask></mask></g><g clip-path="url(#I4f9FKyJTCPlFg9gqx1Or)"><g transform="translate(370.32623518512264 125.69443297547377) rotate(0 331.6583251953125 110.68798828125)"><text x="0" y="0" font-family="Helvetica, Segoe UI Emoji" font-size="96.25042459239128px" fill="#1e1e1e" text-anchor="start" style="white-space: pre;" direction="ltr" dominant-baseline="text-before-edge">Willkommen </text><text x="0" y="110.68798828124997" font-family="Helvetica, Segoe UI Emoji" font-size="96.25042459239128px" fill="#1e1e1e" text-anchor="start" style="white-space: pre;" direction="ltr" dominant-baseline="text-before-edge">Herr Paul Peter</text></g></g><g clip-path="url(#I4f9FKyJTCPlFg9gqx1Or)"><g stroke-linecap="round" transform="translate(392.81271739628573 390.4177719741874) rotate(0 452.22609401884154 191.05643458574332)"><path d="M0 0 C346.7 2.87, 693.37 3.95, 904.45 0 M0 0 C258.4 3.04, 517.2 3.43, 904.45 0 M904.45 0 C904.35 92.22, 903.78 183.43, 904.45 382.11 M904.45 0 C903.82 115.79, 904.53 231.44, 904.45 382.11 M904.45 382.11 C615.06 378.74, 324.45 379.11, 0 382.11 M904.45 382.11 C567.13 383.36, 229.92 383.76, 0 382.11 M0 382.11 C-2.56 268.36, -2.58 153.63, 0 0 M0 382.11 C-0.77 254.04, -0.64 126.36, 0 0" stroke="#000000" stroke-width="1" fill="none"></path></g></g><g clip-path="url(#I4f9FKyJTCPlFg9gqx1Or)"><g stroke-linecap="round" transform="translate(482.4802698894963 465.87101440173365) rotate(0 44.54548100742835 44.54548100742841)"><path d="M25.33 4.52 C31.93 0.52, 42 -0.64, 49.72 0.16 C57.43 0.96, 65.41 4.12, 71.61 9.3 C77.82 14.49, 84.32 23.49, 86.95 31.29 C89.58 39.09, 89.48 48.6, 87.41 56.08 C85.33 63.57, 80.18 70.87, 74.5 76.21 C68.81 81.55, 61.08 86.46, 53.31 88.13 C45.53 89.81, 35.33 89.46, 27.87 86.26 C20.41 83.06, 13.17 75.65, 8.56 68.94 C3.95 62.22, 0.66 53.81, 0.21 45.98 C-0.25 38.15, 0.68 29.47, 5.83 21.98 C10.98 14.49, 25.67 4.42, 31.11 1.02 C36.56 -2.38, 38.19 0.6, 38.5 1.57 M26.71 3.36 C33.34 -0.66, 42.75 -2.1, 50.61 -0.83 C58.48 0.44, 67.72 5.74, 73.9 10.99 C80.07 16.24, 85.47 22.88, 87.67 30.68 C89.87 38.48, 89.37 49.8, 87.12 57.79 C84.87 65.79, 80.15 73.4, 74.18 78.68 C68.21 83.96, 59.09 88.54, 51.3 89.48 C43.5 90.42, 34.89 87.93, 27.4 84.3 C19.91 80.68, 10.79 74.03, 6.33 67.73 C1.87 61.43, 0.79 54.24, 0.63 46.51 C0.47 38.79, 1.2 28.53, 5.36 21.4 C9.53 14.26, 22.26 6.43, 25.64 3.7 C29.02 0.97, 25.57 4.32, 25.64 5.03" stroke="none" stroke-width="0" fill="black"></path><path d="M60.71 2.26 C67.86 4.44, 75.52 11.38, 80.21 18.14 C84.91 24.9, 88.5 34.76, 88.89 42.83 C89.29 50.89, 86.48 59.61, 82.58 66.54 C78.68 73.47, 72.54 80.7, 65.51 84.4 C58.48 88.1, 48.61 89.52, 40.39 88.72 C32.18 87.93, 22.54 84.52, 16.21 79.64 C9.89 74.76, 5.09 66.96, 2.44 59.42 C-0.21 51.87, -1.62 42.16, 0.31 34.35 C2.24 26.54, 8.03 18.24, 14.01 12.57 C20 6.91, 28.3 1.71, 36.24 0.35 C44.17 -1.01, 57.03 3.63, 61.63 4.4 C66.23 5.18, 63.9 4.29, 63.85 4.99 M23.84 6.27 C30.41 2.18, 41.76 -0.48, 50.02 0.22 C58.29 0.91, 67.51 5.36, 73.44 10.45 C79.38 15.54, 83.43 23.33, 85.63 30.77 C87.82 38.21, 88.27 47.31, 86.6 55.1 C84.92 62.88, 81.03 71.97, 75.57 77.5 C70.1 83.03, 61.8 86.85, 53.82 88.27 C45.84 89.69, 35.15 89.17, 27.69 86.01 C20.24 82.86, 13.83 75.92, 9.07 69.34 C4.32 62.77, -0.53 54.52, -0.84 46.56 C-1.15 38.61, 3.07 28.59, 7.24 21.59 C11.41 14.58, 21.14 7.28, 24.17 4.53 C27.2 1.77, 25.16 4.16, 25.43 5.07" stroke="#000000" stroke-width="1" fill="none"></path></g></g><g clip-path="url(#I4f9FKyJTCPlFg9gqx1Or)"><g stroke-linecap="round"><g transform="translate(410.51718710934074 744.7105301107017) rotate(0 422.5299750583944 -115.09160397470305)" fill-rule="evenodd"><path d="M0.83 1.16 L294.57 -168.76 L431.64 -106.15 L663.77 -240.48 L844.68 8.72 L0.13 0.49" stroke="none" stroke-width="0" fill="black" fill-rule="evenodd"></path><path d="M0 0 C59.4 -31.07, 117.01 -65.53, 293.31 -166.81 M0 0 C62.28 -33.8, 123.73 -69.38, 293.31 -166.81 M293.31 -166.81 C341.15 -147.35, 389.56 -124.51, 431.27 -105.93 M293.31 -166.81 C337.45 -147.31, 381.81 -128.38, 431.27 -105.93 M431.27 -105.93 C477.76 -132.8, 527.11 -162.73, 664.63 -240.88 M431.27 -105.93 C510.74 -150.45, 589.01 -196.07, 664.63 -240.88 M664.63 -240.88 C724.84 -154.18, 789.13 -66.06, 845.06 10.7 M664.63 -240.88 C732.96 -145.16, 800.8 -50.8, 845.06 10.7 M845.06 10.7 C577.97 6.29, 311.52 2.78, 0 0 M845.06 10.7 C628.28 6.44, 410.84 4.1, 0 0 M0 0 C0 0, 0 0, 0 0 M0 0 C0 0, 0 0, 0 0" stroke="#000000" stroke-width="1" fill="none"></path></g></g><mask></mask></g><g clip-path="url(#I4f9FKyJTCPlFg9gqx1Or)"><g stroke-linecap="round" transform="translate(342.7282632933129 92.44814370343511) rotate(0 503.00695269974335 360.0109060460611)"><path d="M0 0 C341.88 -3.16, 682.8 -3.77, 1006.01 0 M1006.01 0 C1004.96 174.67, 1004.41 350.66, 1006.01 720.02 M1006.01 720.02 C673.4 719.34, 342.14 719.49, 0 720.02 M0 720.02 C-0.48 570.76, -1.02 420.41, 0 0" stroke="#bbb" stroke-width="2.5" fill="none" stroke-dasharray="1.5 8"></path></g></g><g clip-path="url(#I4f9FKyJTCPlFg9gqx1Or)"><g transform="translate(40.86097123290938 435.52137810309887) rotate(270.23675559051935 161.49594116210938 22.5)"><text x="0" y="0" font-family="Virgil, Segoe UI Emoji" font-size="36px" fill="#f08c00" text-anchor="start" style="white-space: pre;" direction="ltr" dominant-baseline="text-before-edge">Sidebar Component</text></g></g><g clip-path="url(#I4f9FKyJTCPlFg9gqx1Or)"><g stroke-linecap="round" transform="translate(164.30766063846772 195.60497531015244) rotate(0 540.8154087791804 251.431273963095)"><path d="M-0.36 0.8 L1080.93 -0.86 L1083.26 502.19 L1.73 501.01" stroke="none" stroke-width="0" fill="white"></path><path d="M0 0 C371.64 0.88, 744.32 1.21, 1081.63 0 M0 0 C377.17 0.99, 753.95 0.8, 1081.63 0 M1081.63 0 C1081.86 106.8, 1081.86 215.3, 1081.63 502.86 M1081.63 0 C1081.66 161.53, 1082.09 322.44, 1081.63 502.86 M1081.63 502.86 C695.08 499.08, 307.58 499.6, 0 502.86 M1081.63 502.86 C691.95 505.72, 302.02 505.71, 0 502.86 M0 502.86 C-0.08 361.39, -0.7 220.13, 0 0 M0 502.86 C1.09 318.42, 0.92 133.32, 0 0" stroke="#000000" stroke-width="1" fill="none"></path></g></g><g clip-path="url(#I4f9FKyJTCPlFg9gqx1Or)"><g transform="translate(192.37984551913155 218.6409367585975) rotate(0 172.1337890625 20.700000000000045)"><text x="0" y="0" font-family="Helvetica, Segoe UI Emoji" font-size="36px" fill="#000000" text-anchor="start" style="white-space: pre;" direction="ltr" dominant-baseline="text-before-edge">Neukundenaufnahme</text></g></g><g clip-path="url(#I4f9FKyJTCPlFg9gqx1Or)"><g stroke-linecap="round" transform="translate(1071.3946604979628 623.5698958601251) rotate(0 70.17697409785035 20.178376299778392)"><path d="M10.09 0 C46.95 0, 83.8 0, 130.26 0 C136.99 0, 140.35 3.36, 140.35 10.09 C140.35 16.92, 140.35 23.74, 140.35 30.27 C140.35 36.99, 136.99 40.36, 130.26 40.36 C102.03 40.36, 73.8 40.36, 10.09 40.36 C3.36 40.36, 0 36.99, 0 30.27 C0 26.12, 0 21.98, 0 10.09 C0 3.36, 3.36 0, 10.09 0" stroke="none" stroke-width="0" fill="black"></path><path d="M10.09 0 C42.45 0, 74.81 0, 130.26 0 M10.09 0 C43.72 0, 77.35 0, 130.26 0 M130.26 0 C136.99 0, 140.35 3.36, 140.35 10.09 M130.26 0 C136.99 0, 140.35 3.36, 140.35 10.09 M140.35 10.09 C140.35 14.21, 140.35 18.33, 140.35 30.27 M140.35 10.09 C140.35 16.93, 140.35 23.76, 140.35 30.27 M140.35 30.27 C140.35 36.99, 136.99 40.36, 130.26 40.36 M140.35 30.27 C140.35 36.99, 136.99 40.36, 130.26 40.36 M130.26 40.36 C94.87 40.36, 59.47 40.36, 10.09 40.36 M130.26 40.36 C85.37 40.36, 40.47 40.36, 10.09 40.36 M10.09 40.36 C3.36 40.36, 0 36.99, 0 30.27 M10.09 40.36 C3.36 40.36, 0 36.99, 0 30.27 M0 30.27 C0 23.48, 0 16.69, 0 10.09 M0 30.27 C0 23.25, 0 16.24, 0 10.09 M0 10.09 C0 3.36, 3.36 0, 10.09 0 M0 10.09 C0 3.36, 3.36 0, 10.09 0" stroke="white" stroke-width="1" fill="none"></path></g></g><g clip-path="url(#I4f9FKyJTCPlFg9gqx1Or)"><g transform="translate(1108.9792153513263 632.7215517809573) rotate(0 28.7109375 11.5)"><text x="28.7109375" y="0" font-family="Helvetica, Segoe UI Emoji" font-size="20px" fill="white" text-anchor="middle" style="white-space: pre;" direction="ltr" dominant-baseline="text-before-edge">Weiter</text></g></g><g clip-path="url(#I4f9FKyJTCPlFg9gqx1Or)"><g transform="translate(193.57636946455523 273.87278591753784) rotate(0 204.6474609375 16.09999999999991)"><text x="0" y="0" font-family="Helvetica, Segoe UI Emoji" font-size="28px" fill="#1e1e1e" text-anchor="start" style="white-space: pre;" direction="ltr" dominant-baseline="text-before-edge">Bitte wählen Sie Ihren Stromtarif.</text></g></g><g clip-path="url(#I4f9FKyJTCPlFg9gqx1Or)"><g stroke-linecap="round" transform="translate(213.31011085483055 505.3585051613054) rotate(0 473.1557214259577 27.62105468575578)"><path d="M13.81 0 C341.21 -0.17, 667.74 -1.03, 932.5 0 C938.79 1.38, 947.38 5.88, 946.31 13.81 C946.38 22.53, 945.97 29.58, 946.31 41.43 C948.44 48.3, 939.25 52.04, 932.5 55.24 C618.81 49, 303.64 48.64, 13.81 55.24 C4.55 51.84, -0.75 53.55, 0 41.43 C3.78 31.18, 3.93 19.05, 0 13.81 C-1.6 7.31, 2.6 3.38, 13.81 0" stroke="none" stroke-width="0" fill="#fff"></path><path d="M13.81 0 C242.86 -1.94, 473.22 -1.54, 932.5 0 M13.81 0 C289.13 3.15, 564.52 2.8, 932.5 0 M932.5 0 C942.16 0.54, 946.73 5.01, 946.31 13.81 M932.5 0 C940.62 -2.2, 947.66 4.87, 946.31 13.81 M946.31 13.81 C944.6 21.91, 947.16 27.67, 946.31 41.43 M946.31 13.81 C947.21 25.28, 945.73 36.13, 946.31 41.43 M946.31 41.43 C944.77 50.26, 942.41 55.89, 932.5 55.24 M946.31 41.43 C948.12 50.51, 941.74 55.61, 932.5 55.24 M932.5 55.24 C595.13 53.69, 257.29 52.95, 13.81 55.24 M932.5 55.24 C673.36 54.29, 414.43 54.31, 13.81 55.24 M13.81 55.24 C2.75 55.22, 0.22 52, 0 41.43 M13.81 55.24 C4.22 56.08, -0.23 48.52, 0 41.43 M0 41.43 C-0.61 35.71, -0.78 26.15, 0 13.81 M0 41.43 C0.65 31.3, -0.91 20.09, 0 13.81 M0 13.81 C-0.22 3.75, 5.01 -0.38, 13.81 0 M0 13.81 C-2.28 4.76, 5.17 0.79, 13.81 0" stroke="#1e1e1e" stroke-width="2" fill="none"></path></g></g><g clip-path="url(#I4f9FKyJTCPlFg9gqx1Or)"><g transform="translate(218.31011085483055 521.4795598470614) rotate(0 296.787109375 11.5)"><text x="0" y="0" font-family="Helvetica, Segoe UI Emoji" font-size="20px" fill="#1e1e1e" text-anchor="start" style="white-space: pre;" direction="ltr" dominant-baseline="text-before-edge">  Tarif3            1.33ct/kWh              36 Monate                  12 Monate</text></g></g><g clip-path="url(#I4f9FKyJTCPlFg9gqx1Or)"><g stroke-linecap="round" transform="translate(193.5899847018727 348.20666068751734) rotate(359.9296265924723 515.8420183976855 120.03262627291747)"><path d="M0 0 C359.95 1.07, 719.13 0.69, 1031.68 0 M0 0 C220.73 -0.22, 441.36 0.26, 1031.68 0 M1031.68 0 C1030.5 77.97, 1032.28 153.42, 1031.68 240.07 M1031.68 0 C1033.47 86.15, 1032.81 172.55, 1031.68 240.07 M1031.68 240.07 C660.2 242.48, 288.21 242.46, 0 240.07 M1031.68 240.07 C741.83 241.38, 451.36 241.46, 0 240.07 M0 240.07 C1.28 153.1, 0.58 63.38, 0 0 M0 240.07 C-1.16 173.07, -1.08 105.44, 0 0" stroke="#000000" stroke-width="1" fill="none"></path></g></g><g clip-path="url(#I4f9FKyJTCPlFg9gqx1Or)"><g stroke-linecap="round" transform="translate(1176.4093331948038 363.8188209232794) rotate(359.9296265924723 15.440900993374811 103.3042967389606)"><path d="M0 0 C8.05 -0.15, 14.56 -1.87, 30.88 0 M0 0 C8.42 0.16, 18.97 0.14, 30.88 0 M30.88 0 C31.06 66.42, 29.4 133.45, 30.88 206.61 M30.88 0 C29.47 76.73, 30.03 154.71, 30.88 206.61 M30.88 206.61 C20.16 207.39, 10.89 206.38, 0 206.61 M30.88 206.61 C20.48 206.86, 10.34 207.53, 0 206.61 M0 206.61 C2.38 154.68, 0.76 103.36, 0 0 M0 206.61 C1.36 136.1, 1.41 65.37, 0 0" stroke="#000000" stroke-width="1" fill="none"></path></g></g><g clip-path="url(#I4f9FKyJTCPlFg9gqx1Or)"><g stroke-linecap="round" transform="translate(1185.0492986825752 368.71414972433377) rotate(359.9296265924723 9.457430284254258 81.77208864368254)"><path d="M0.11 0.68 L18.75 0.36 L18.81 162.62 L-0.58 163.67" stroke="none" stroke-width="0" fill="black"></path><path d="M0 0 C5.29 -0.19, 9.77 0, 18.91 0 M0 0 C5.71 0.22, 11.31 0.18, 18.91 0 M18.91 0 C18.25 41.01, 18.71 83.45, 18.91 163.54 M18.91 0 C19.03 34.23, 19.53 67.48, 18.91 163.54 M18.91 163.54 C12.16 162.74, 4.63 163.81, 0 163.54 M18.91 163.54 C12.64 163.61, 6.66 163.3, 0 163.54 M0 163.54 C-0.39 123.85, -0.31 84.91, 0 0 M0 163.54 C0.18 120.61, -0.11 76.8, 0 0" stroke="#000000" stroke-width="1" fill="none"></path></g></g><g clip-path="url(#I4f9FKyJTCPlFg9gqx1Or)"><g stroke-linecap="round" transform="translate(211.81833459484483 361.2665991900799) rotate(0 477.0198478434861 27.62105468575578)"><path d="M13.81 0 C237.85 5.83, 461.29 4.62, 940.23 0 C948.69 2.88, 954.21 6.54, 954.04 13.81 C952 19.46, 951.15 31.52, 954.04 41.43 C957.52 47.21, 950.63 55.4, 940.23 55.24 C694.45 54.84, 452.57 55.8, 13.81 55.24 C1.41 51.71, 3.34 49.93, 0 41.43 C3.16 28.47, 3.83 18.35, 0 13.81 C-1.07 6.18, 3.45 3.12, 13.81 0" stroke="none" stroke-width="0" fill="#fff"></path><path d="M13.81 0 C336.03 -0.68, 658.54 -0.02, 940.23 0 M13.81 0 C312.27 -0.75, 610.59 -1.02, 940.23 0 M940.23 0 C947.52 1.17, 954.27 3.91, 954.04 13.81 M940.23 0 C950.76 1.68, 951.89 5.5, 954.04 13.81 M954.04 13.81 C955.14 23.02, 955.39 33.23, 954.04 41.43 M954.04 13.81 C953.94 20.38, 954.45 27.03, 954.04 41.43 M954.04 41.43 C953.93 50.66, 949.76 56.59, 940.23 55.24 M954.04 41.43 C952.87 49.3, 949.8 56.94, 940.23 55.24 M940.23 55.24 C686.8 54.29, 432.4 55.22, 13.81 55.24 M940.23 55.24 C693.58 51.85, 447.21 51.74, 13.81 55.24 M13.81 55.24 C5.33 55.04, -1.84 49.47, 0 41.43 M13.81 55.24 C4.89 57.01, -0.67 51.73, 0 41.43 M0 41.43 C-0.25 35, 1.43 28.16, 0 13.81 M0 41.43 C-0.48 36.05, -0.24 29.27, 0 13.81 M0 13.81 C0.13 5.09, 5.29 1.13, 13.81 0 M0 13.81 C-2.02 5.04, 4.62 1.75, 13.81 0" stroke="#1e1e1e" stroke-width="2" fill="none"></path></g></g><g clip-path="url(#I4f9FKyJTCPlFg9gqx1Or)"><g transform="translate(216.81833459484483 377.3876538758359) rotate(0 294.0087890625 11.5)"><text x="0" y="0" font-family="Helvetica, Segoe UI Emoji" font-size="20px" fill="#1e1e1e" text-anchor="start" style="white-space: pre;" direction="ltr" dominant-baseline="text-before-edge"> Tarif1            3.33ct/kWh              12 Monate                  12 Monate</text></g></g><g clip-path="url(#I4f9FKyJTCPlFg9gqx1Or)"><g stroke-linecap="round" transform="translate(212.13434092499324 436.8637493481565) rotate(0 475.4251245300868 27.62105468575578)"><path d="M13.81 0 C216.46 -2.76, 417.79 -0.82, 937.04 0 C946.41 1.94, 950.61 6.81, 950.85 13.81 C947.33 25.24, 954 30.21, 950.85 41.43 C952.04 50.8, 944.94 54.5, 937.04 55.24 C662.65 54.51, 384.64 52.44, 13.81 55.24 C7.94 54.53, 3.49 47.35, 0 41.43 C3 33.22, -1.45 28.89, 0 13.81 C-1.16 7.72, 3.62 -0.25, 13.81 0" stroke="none" stroke-width="0" fill="#fff"></path><path d="M13.81 0 C290.5 3.15, 567.33 2.44, 937.04 0 M13.81 0 C311.61 -0.95, 608.86 -0.53, 937.04 0 M937.04 0 C946.48 -0.69, 952 6.07, 950.85 13.81 M937.04 0 C944.09 0.89, 951.64 3.69, 950.85 13.81 M950.85 13.81 C952.48 25.76, 949.52 36.44, 950.85 41.43 M950.85 13.81 C951.12 20.75, 950.74 26.13, 950.85 41.43 M950.85 41.43 C951.17 51.99, 945.23 54.07, 937.04 55.24 M950.85 41.43 C951.21 52.33, 945.65 54.83, 937.04 55.24 M937.04 55.24 C676.45 54.61, 416.27 54.65, 13.81 55.24 M937.04 55.24 C745.85 55.58, 554.26 55.61, 13.81 55.24 M13.81 55.24 C2.76 54.07, 0.25 52.17, 0 41.43 M13.81 55.24 C3.94 56.34, -0.85 48.41, 0 41.43 M0 41.43 C1.23 31.93, -1.88 20.27, 0 13.81 M0 41.43 C-0.07 32.46, 0.18 25.71, 0 13.81 M0 13.81 C0.69 5.73, 2.84 0.38, 13.81 0 M0 13.81 C0.02 6.35, 3.25 0.37, 13.81 0" stroke="#1e1e1e" stroke-width="2" fill="none"></path></g></g><g clip-path="url(#I4f9FKyJTCPlFg9gqx1Or)"><g transform="translate(217.13434092499324 452.9848040339125) rotate(0 296.787109375 11.5)"><text x="0" y="0" font-family="Helvetica, Segoe UI Emoji" font-size="20px" fill="#1e1e1e" text-anchor="start" style="white-space: pre;" direction="ltr" dominant-baseline="text-before-edge">  Tarif2            2.33ct/kWh              24 Monate                  12 Monate</text></g></g><g clip-path="url(#I4f9FKyJTCPlFg9gqx1Or)"><g stroke-linecap="round" transform="translate(1002.8840529397376 370.4542157538317) rotate(0 73.93466188158703 16.942610235379107)"><path d="M8.47 0 C51.64 0, 94.81 0, 139.4 0 C145.05 0, 147.87 2.82, 147.87 8.47 C147.87 12.4, 147.87 16.33, 147.87 25.41 C147.87 31.06, 145.05 33.89, 139.4 33.89 C102.86 33.89, 66.32 33.89, 8.47 33.89 C2.82 33.89, 0 31.06, 0 25.41 C0 21.27, 0 17.13, 0 8.47 C0 2.82, 2.82 0, 8.47 0" stroke="none" stroke-width="0" fill="black"></path><path d="M8.47 0 C36.47 0, 64.47 0, 139.4 0 M8.47 0 C50.47 0, 92.46 0, 139.4 0 M139.4 0 C145.05 0, 147.87 2.82, 147.87 8.47 M139.4 0 C145.05 0, 147.87 2.82, 147.87 8.47 M147.87 8.47 C147.87 13.53, 147.87 18.59, 147.87 25.41 M147.87 8.47 C147.87 14.15, 147.87 19.83, 147.87 25.41 M147.87 25.41 C147.87 31.06, 145.05 33.89, 139.4 33.89 M147.87 25.41 C147.87 31.06, 145.05 33.89, 139.4 33.89 M139.4 33.89 C104.68 33.89, 69.96 33.89, 8.47 33.89 M139.4 33.89 C98.68 33.89, 57.97 33.89, 8.47 33.89 M8.47 33.89 C2.82 33.89, 0 31.06, 0 25.41 M8.47 33.89 C2.82 33.89, 0 31.06, 0 25.41 M0 25.41 C0 19.63, 0 13.85, 0 8.47 M0 25.41 C0 19.99, 0 14.56, 0 8.47 M0 8.47 C0 2.82, 2.82 0, 8.47 0 M0 8.47 C0 2.82, 2.82 0, 8.47 0" stroke="white" stroke-width="2" fill="none"></path></g></g><g clip-path="url(#I4f9FKyJTCPlFg9gqx1Or)"><g transform="translate(1023.8968398213246 378.19682598921054) rotate(0 52.921875 9.200000000000045)"><text x="52.921875" y="0" font-family="Helvetica, Segoe UI Emoji" font-size="16px" fill="white" text-anchor="middle" style="white-space: pre;" direction="ltr" dominant-baseline="text-before-edge">Mehr anzeigen</text></g></g><g clip-path="url(#I4f9FKyJTCPlFg9gqx1Or)"><g stroke-linecap="round" transform="translate(996.2715041116126 445.51670049504264) rotate(0 73.93466188158703 16.942610235379107)"><path d="M8.47 0 C40.61 0, 72.75 0, 139.4 0 C145.05 0, 147.87 2.82, 147.87 8.47 C147.87 14.27, 147.87 20.06, 147.87 25.41 C147.87 31.06, 145.05 33.89, 139.4 33.89 C94.14 33.89, 48.88 33.89, 8.47 33.89 C2.82 33.89, 0 31.06, 0 25.41 C0 20.87, 0 16.33, 0 8.47 C0 2.82, 2.82 0, 8.47 0" stroke="none" stroke-width="0" fill="black"></path><path d="M8.47 0 C47.28 0, 86.09 0, 139.4 0 M8.47 0 C41.58 0, 74.69 0, 139.4 0 M139.4 0 C145.05 0, 147.87 2.82, 147.87 8.47 M139.4 0 C145.05 0, 147.87 2.82, 147.87 8.47 M147.87 8.47 C147.87 14.36, 147.87 20.24, 147.87 25.41 M147.87 8.47 C147.87 14.89, 147.87 21.3, 147.87 25.41 M147.87 25.41 C147.87 31.06, 145.05 33.89, 139.4 33.89 M147.87 25.41 C147.87 31.06, 145.05 33.89, 139.4 33.89 M139.4 33.89 C89.45 33.89, 39.51 33.89, 8.47 33.89 M139.4 33.89 C102.32 33.89, 65.25 33.89, 8.47 33.89 M8.47 33.89 C2.82 33.89, 0 31.06, 0 25.41 M8.47 33.89 C2.82 33.89, 0 31.06, 0 25.41 M0 25.41 C0 19.27, 0 13.12, 0 8.47 M0 25.41 C0 22.01, 0 18.61, 0 8.47 M0 8.47 C0 2.82, 2.82 0, 8.47 0 M0 8.47 C0 2.82, 2.82 0, 8.47 0" stroke="white" stroke-width="2" fill="none"></path></g></g><g clip-path="url(#I4f9FKyJTCPlFg9gqx1Or)"><g transform="translate(1017.2842909931996 453.2593107304215) rotate(0 52.921875 9.200000000000045)"><text x="52.921875" y="0" font-family="Helvetica, Segoe UI Emoji" font-size="16px" fill="white" text-anchor="middle" style="white-space: pre;" direction="ltr" dominant-baseline="text-before-edge">Mehr anzeigen</text></g></g><g clip-path="url(#I4f9FKyJTCPlFg9gqx1Or)"><g stroke-linecap="round" transform="translate(818.6715590432532 371.11659978703483) rotate(0 73.93466188158703 16.942610235379107)"><path d="M8.47 0 C58.21 0, 107.95 0, 139.4 0 C145.05 0, 147.87 2.82, 147.87 8.47 C147.87 11.94, 147.87 15.41, 147.87 25.41 C147.87 31.06, 145.05 33.89, 139.4 33.89 C112.97 33.89, 86.54 33.89, 8.47 33.89 C2.82 33.89, 0 31.06, 0 25.41 C0 19.59, 0 13.76, 0 8.47 C0 2.82, 2.82 0, 8.47 0" stroke="none" stroke-width="0" fill="black"></path><path d="M8.47 0 C35.64 0, 62.81 0, 139.4 0 M8.47 0 C55.41 0, 102.35 0, 139.4 0 M139.4 0 C145.05 0, 147.87 2.82, 147.87 8.47 M139.4 0 C145.05 0, 147.87 2.82, 147.87 8.47 M147.87 8.47 C147.87 14.09, 147.87 19.71, 147.87 25.41 M147.87 8.47 C147.87 13.58, 147.87 18.68, 147.87 25.41 M147.87 25.41 C147.87 31.06, 145.05 33.89, 139.4 33.89 M147.87 25.41 C147.87 31.06, 145.05 33.89, 139.4 33.89 M139.4 33.89 C88.81 33.89, 38.23 33.89, 8.47 33.89 M139.4 33.89 C101.44 33.89, 63.48 33.89, 8.47 33.89 M8.47 33.89 C2.82 33.89, 0 31.06, 0 25.41 M8.47 33.89 C2.82 33.89, 0 31.06, 0 25.41 M0 25.41 C0 20.02, 0 14.63, 0 8.47 M0 25.41 C0 19.92, 0 14.42, 0 8.47 M0 8.47 C0 2.82, 2.82 0, 8.47 0 M0 8.47 C0 2.82, 2.82 0, 8.47 0" stroke="white" stroke-width="2" fill="none"></path></g></g><g clip-path="url(#I4f9FKyJTCPlFg9gqx1Or)"><g transform="translate(853.4695021748403 378.85921002241366) rotate(0 39.13671875 9.200000000000045)"><text x="39.13671875" y="0" font-family="Helvetica, Segoe UI Emoji" font-size="16px" fill="white" text-anchor="middle" style="white-space: pre;" direction="ltr" dominant-baseline="text-before-edge">Auswählen</text></g></g><g clip-path="url(#I4f9FKyJTCPlFg9gqx1Or)"><g stroke-linecap="round" transform="translate(821.6590773538001 518.179130304613) rotate(0 73.93466188158703 16.942610235379107)"><path d="M8.47 0 C54.81 0, 101.14 0, 139.4 0 C145.05 0, 147.87 2.82, 147.87 8.47 C147.87 13.63, 147.87 18.79, 147.87 25.41 C147.87 31.06, 145.05 33.89, 139.4 33.89 C102.69 33.89, 65.99 33.89, 8.47 33.89 C2.82 33.89, 0 31.06, 0 25.41 C0 18.86, 0 12.31, 0 8.47 C0 2.82, 2.82 0, 8.47 0" stroke="none" stroke-width="0" fill="black"></path><path d="M8.47 0 C51.29 0, 94.12 0, 139.4 0 M8.47 0 C43.2 0, 77.93 0, 139.4 0 M139.4 0 C145.05 0, 147.87 2.82, 147.87 8.47 M139.4 0 C145.05 0, 147.87 2.82, 147.87 8.47 M147.87 8.47 C147.87 13.24, 147.87 18, 147.87 25.41 M147.87 8.47 C147.87 14.7, 147.87 20.92, 147.87 25.41 M147.87 25.41 C147.87 31.06, 145.05 33.89, 139.4 33.89 M147.87 25.41 C147.87 31.06, 145.05 33.89, 139.4 33.89 M139.4 33.89 C100.24 33.89, 61.08 33.89, 8.47 33.89 M139.4 33.89 C107.78 33.89, 76.15 33.89, 8.47 33.89 M8.47 33.89 C2.82 33.89, 0 31.06, 0 25.41 M8.47 33.89 C2.82 33.89, 0 31.06, 0 25.41 M0 25.41 C0 21.06, 0 16.7, 0 8.47 M0 25.41 C0 19.38, 0 13.34, 0 8.47 M0 8.47 C0 2.82, 2.82 0, 8.47 0 M0 8.47 C0 2.82, 2.82 0, 8.47 0" stroke="white" stroke-width="2" fill="none"></path></g></g><g clip-path="url(#I4f9FKyJTCPlFg9gqx1Or)"><g transform="translate(856.4570204853871 525.9217405399918) rotate(0 39.13671875 9.200000000000045)"><text x="39.13671875" y="0" font-family="Helvetica, Segoe UI Emoji" font-size="16px" fill="white" text-anchor="middle" style="white-space: pre;" direction="ltr" dominant-baseline="text-before-edge">Auswählen</text></g></g><g clip-path="url(#I4f9FKyJTCPlFg9gqx1Or)"><g stroke-linecap="round" transform="translate(820.0123370789752 444.83255957203255) rotate(0 73.93466188158703 16.942610235379107)"><path d="M8.47 0 C55.79 0, 103.11 0, 139.4 0 C145.05 0, 147.87 2.82, 147.87 8.47 C147.87 13.2, 147.87 17.94, 147.87 25.41 C147.87 31.06, 145.05 33.89, 139.4 33.89 C112.06 33.89, 84.73 33.89, 8.47 33.89 C2.82 33.89, 0 31.06, 0 25.41 C0 20.45, 0 15.48, 0 8.47 C0 2.82, 2.82 0, 8.47 0" stroke="none" stroke-width="0" fill="#1971c2"></path><path d="M8.47 0 C50.43 0, 92.39 0, 139.4 0 M8.47 0 C57.32 0, 106.17 0, 139.4 0 M139.4 0 C145.05 0, 147.87 2.82, 147.87 8.47 M139.4 0 C145.05 0, 147.87 2.82, 147.87 8.47 M147.87 8.47 C147.87 14.1, 147.87 19.73, 147.87 25.41 M147.87 8.47 C147.87 12.56, 147.87 16.66, 147.87 25.41 M147.87 25.41 C147.87 31.06, 145.05 33.89, 139.4 33.89 M147.87 25.41 C147.87 31.06, 145.05 33.89, 139.4 33.89 M139.4 33.89 C91.21 33.89, 43.03 33.89, 8.47 33.89 M139.4 33.89 C90.07 33.89, 40.73 33.89, 8.47 33.89 M8.47 33.89 C2.82 33.89, 0 31.06, 0 25.41 M8.47 33.89 C2.82 33.89, 0 31.06, 0 25.41 M0 25.41 C0 20.65, 0 15.89, 0 8.47 M0 25.41 C0 20.01, 0 14.6, 0 8.47 M0 8.47 C0 2.82, 2.82 0, 8.47 0 M0 8.47 C0 2.82, 2.82 0, 8.47 0" stroke="white" stroke-width="2" fill="none"></path></g></g><g clip-path="url(#I4f9FKyJTCPlFg9gqx1Or)"><g transform="translate(854.8102802105623 452.5751698074114) rotate(0 39.13671875 9.200000000000045)"><text x="39.13671875" y="0" font-family="Helvetica, Segoe UI Emoji" font-size="16px" fill="white" text-anchor="middle" style="white-space: pre;" direction="ltr" dominant-baseline="text-before-edge">Auswählen</text></g></g><g clip-path="url(#I4f9FKyJTCPlFg9gqx1Or)"><g stroke-linecap="round" transform="translate(998.7948021281263 516.9844505650153) rotate(0 73.93466188158703 16.942610235379107)"><path d="M8.47 0 C39.23 0, 69.99 0, 139.4 0 C145.05 0, 147.87 2.82, 147.87 8.47 C147.87 11.95, 147.87 15.43, 147.87 25.41 C147.87 31.06, 145.05 33.89, 139.4 33.89 C90.27 33.89, 41.15 33.89, 8.47 33.89 C2.82 33.89, 0 31.06, 0 25.41 C0 19.89, 0 14.37, 0 8.47 C0 2.82, 2.82 0, 8.47 0" stroke="none" stroke-width="0" fill="black"></path><path d="M8.47 0 C35.21 0, 61.95 0, 139.4 0 M8.47 0 C52.83 0, 97.18 0, 139.4 0 M139.4 0 C145.05 0, 147.87 2.82, 147.87 8.47 M139.4 0 C145.05 0, 147.87 2.82, 147.87 8.47 M147.87 8.47 C147.87 13.46, 147.87 18.45, 147.87 25.41 M147.87 8.47 C147.87 14.8, 147.87 21.13, 147.87 25.41 M147.87 25.41 C147.87 31.06, 145.05 33.89, 139.4 33.89 M147.87 25.41 C147.87 31.06, 145.05 33.89, 139.4 33.89 M139.4 33.89 C95.35 33.89, 51.31 33.89, 8.47 33.89 M139.4 33.89 C93.89 33.89, 48.38 33.89, 8.47 33.89 M8.47 33.89 C2.82 33.89, 0 31.06, 0 25.41 M8.47 33.89 C2.82 33.89, 0 31.06, 0 25.41 M0 25.41 C0 20.22, 0 15.02, 0 8.47 M0 25.41 C0 19.04, 0 12.67, 0 8.47 M0 8.47 C0 2.82, 2.82 0, 8.47 0 M0 8.47 C0 2.82, 2.82 0, 8.47 0" stroke="white" stroke-width="2" fill="none"></path></g></g><g clip-path="url(#I4f9FKyJTCPlFg9gqx1Or)"><g transform="translate(1019.8075890097134 524.7270608003942) rotate(0 52.921875 9.200000000000045)"><text x="52.921875" y="0" font-family="Helvetica, Segoe UI Emoji" font-size="16px" fill="white" text-anchor="middle" style="white-space: pre;" direction="ltr" dominant-baseline="text-before-edge">Mehr anzeigen</text></g></g><g clip-path="url(#I4f9FKyJTCPlFg9gqx1Or)"><g transform="translate(214.48110070581492 318.1797011820772) rotate(0 300.6640625 11.5)"><text x="0" y="0" font-family="Helvetica, Segoe UI Emoji" font-size="20px" fill="#1e1e1e" text-anchor="start" style="white-space: pre;" direction="ltr" dominant-baseline="text-before-edge">Name                  Tarif             Mindestlaufzeit            Kündigungsfrist</text></g></g><g clip-path="url(#I4f9FKyJTCPlFg9gqx1Or)"><g transform="translate(232.2544146076675 596.0894833434181) rotate(0 462.685546875 11.5)"><text x="0" y="0" font-family="Helvetica, Segoe UI Emoji" font-size="20px" fill="#1e1e1e" text-anchor="start" style="white-space: pre;" direction="ltr" dominant-baseline="text-before-edge">Ich habe einen externen Stromanbieter und möchte keinen Strom der Stadtwerke Bad Walden beziehen.</text></g></g><g clip-path="url(#I4f9FKyJTCPlFg9gqx1Or)"><g stroke-linecap="round" transform="translate(194.6140281359401 594.7577441682197) rotate(0 11.871394654599726 10.625033908420164)"><path d="M0 0 C8.88 0.46, 16.59 1.09, 23.74 0 M0 0 C8.79 -0.46, 17.27 -0.47, 23.74 0 M23.74 0 C24.57 5.92, 23.79 12.11, 23.74 21.25 M23.74 0 C23.77 8.17, 23.56 15.52, 23.74 21.25 M23.74 21.25 C16.62 22.02, 10.02 22.07, 0 21.25 M23.74 21.25 C19.16 21.18, 14.08 21.21, 0 21.25 M0 21.25 C0.83 16.54, 0.54 12.04, 0 0 M0 21.25 C0.11 17.23, 0.22 12.13, 0 0" stroke="#000000" stroke-width="1" fill="none"></path></g></g><g clip-path="url(#I4f9FKyJTCPlFg9gqx1Or)"><g stroke-opacity="0.5" fill-opacity="0.5" stroke-linecap="round" transform="translate(68.42848902488004 94.6374734103506) rotate(0 640 360)"><path d="M0 0 L1280 0 L1280 720 L0 720" stroke="none" stroke-width="0" fill="black"></path><path d="M0 0 C480.99 0, 961.99 0, 1280 0 M0 0 C365.41 0, 730.83 0, 1280 0 M1280 0 C1280 203.37, 1280 406.73, 1280 720 M1280 0 C1280 235.5, 1280 470.99, 1280 720 M1280 720 C940.47 720, 600.93 720, 0 720 M1280 720 C770.31 720, 260.62 720, 0 720 M0 720 C0 559.6, 0 399.2, 0 0 M0 720 C0 492.45, 0 264.91, 0 0" stroke="#ced4da" stroke-width="4" fill="none"></path></g></g><g clip-path="url(#I4f9FKyJTCPlFg9gqx1Or)"><g stroke-opacity="0.9" fill-opacity="0.9" transform="translate(268.531463190282 306.32587276832646) rotate(0 463.59375 23)"><text x="0" y="0" font-family="Helvetica, Segoe UI Emoji" font-size="20px" fill="#1e1e1e" text-anchor="start" style="white-space: pre;" direction="ltr" dominant-baseline="text-before-edge">Indem ich auf 'Bestätigen' klicke, stimme ich den Bedigungen des ausgewählten Tarifs zu. Wenn kein</text><text x="0" y="23" font-family="Helvetica, Segoe UI Emoji" font-size="20px" fill="#1e1e1e" text-anchor="start" style="white-space: pre;" direction="ltr" dominant-baseline="text-before-edge">Tarif ausgewählt ist, verstehe ich, dass ich die damit verbundenen Dienstleistungen nicht erhalten werde.</text></g></g><g clip-path="url(#I4f9FKyJTCPlFg9gqx1Or)"><g stroke-linecap="round" transform="translate(249.95402971763997 236.11990730333264) rotate(0 476.8773711354844 221.70574839838469)"><path d="M0.58 1.54 L953.23 -0.85 L953.43 444.1 L0.61 442.95" stroke="none" stroke-width="0" fill="white"></path><path d="M0 0 C321.17 1.88, 640.3 2.39, 953.75 0 M0 0 C307.42 -2.21, 614.67 -2.44, 953.75 0 M953.75 0 C954.92 158.19, 954.74 316.14, 953.75 443.41 M953.75 0 C953.37 90.27, 953.22 180.2, 953.75 443.41 M953.75 443.41 C618.23 439.82, 281.8 438.96, 0 443.41 M953.75 443.41 C647.35 439.65, 341.04 440.25, 0 443.41 M0 443.41 C1.33 320.45, 1.71 198.03, 0 0 M0 443.41 C0.25 298.75, 0.65 154.01, 0 0" stroke="#000000" stroke-width="1" fill="none"></path></g></g><g clip-path="url(#I4f9FKyJTCPlFg9gqx1Or)"><g transform="translate(274.7073734844894 256.4324364191557) rotate(0 203.78369140625 18.25273729679384)"><text x="0" y="0" font-family="Helvetica, Segoe UI Emoji" font-size="31.743890950945723px" fill="#000000" text-anchor="start" style="white-space: pre;" direction="ltr" dominant-baseline="text-before-edge">Bestätigung der Tarifauswahl</text></g></g><g clip-path="url(#I4f9FKyJTCPlFg9gqx1Or)"><g stroke-opacity="0.9" fill-opacity="0.9" transform="translate(772.1593982555147 426.7887931929977) rotate(0 211.796875 57.5)"><text x="0" y="0" font-family="Helvetica, Segoe UI Emoji" font-size="20px" fill="#1e1e1e" text-anchor="start" style="white-space: pre;" direction="ltr" dominant-baseline="text-before-edge">Ich habe die Tarifdetails gelesen und</text><text x="0" y="23" font-family="Helvetica, Segoe UI Emoji" font-size="20px" fill="#1e1e1e" text-anchor="start" style="white-space: pre;" direction="ltr" dominant-baseline="text-before-edge">verstanden und möchte diesen Tarif auswählen.</text><text x="0" y="46" font-family="Helvetica, Segoe UI Emoji" font-size="20px" fill="#1e1e1e" text-anchor="start" style="white-space: pre;" direction="ltr" dominant-baseline="text-before-edge">Sobald ich auf 'Bestätigen' klicke, kann ich den</text><text x="0" y="69" font-family="Helvetica, Segoe UI Emoji" font-size="20px" fill="#1e1e1e" text-anchor="start" style="white-space: pre;" direction="ltr" dominant-baseline="text-before-edge">Tarif nicht mehr ändern und bin an die</text><text x="0" y="92" font-family="Helvetica, Segoe UI Emoji" font-size="20px" fill="#1e1e1e" text-anchor="start" style="white-space: pre;" direction="ltr" dominant-baseline="text-before-edge">Mindestlaufzeit und Kündigungsfrist gebunden.</text></g></g><g clip-path="url(#I4f9FKyJTCPlFg9gqx1Or)"><g stroke-opacity="0.9" fill-opacity="0.9" transform="translate(266.67805567435767 293.5555064452501) rotate(0 386.6796875 34.5)"><text x="0" y="0" font-family="Helvetica, Segoe UI Emoji" font-size="20px" fill="#1e1e1e" text-anchor="start" style="white-space: pre;" direction="ltr" dominant-baseline="text-before-edge">Indem ich auf 'Bestätigen' klicke, stimme ich den Bedingungen des ausgewählten</text><text x="0" y="23" font-family="Helvetica, Segoe UI Emoji" font-size="20px" fill="#1e1e1e" text-anchor="start" style="white-space: pre;" direction="ltr" dominant-baseline="text-before-edge">Tarifs zu. Wenn kein Tarif ausgewählt ist, verstehe ich, dass ich die damit verbundenen </text><text x="0" y="46" font-family="Helvetica, Segoe UI Emoji" font-size="20px" fill="#1e1e1e" text-anchor="start" style="white-space: pre;" direction="ltr" dominant-baseline="text-before-edge">Diesntleistungen nicht erhalten werde.</text></g></g><g clip-path="url(#I4f9FKyJTCPlFg9gqx1Or)"><g transform="translate(267.28026731823616 374.52783810487745) rotate(0 155.0732421875 149.5)"><text x="0" y="0" font-family="Helvetica, Segoe UI Emoji" font-size="20px" fill="#1e1e1e" text-anchor="start" style="white-space: pre;" direction="ltr" dominant-baseline="text-before-edge">Name                  Tarif1</text><text x="0" y="23" font-family="Helvetica, Segoe UI Emoji" font-size="20px" fill="#1e1e1e" text-anchor="start" style="white-space: pre;" direction="ltr" dominant-baseline="text-before-edge"></text><text x="0" y="46" font-family="Helvetica, Segoe UI Emoji" font-size="20px" fill="#1e1e1e" text-anchor="start" style="white-space: pre;" direction="ltr" dominant-baseline="text-before-edge">Beschreibung      Tarif1 Description</text><text x="0" y="69" font-family="Helvetica, Segoe UI Emoji" font-size="20px" fill="#1e1e1e" text-anchor="start" style="white-space: pre;" direction="ltr" dominant-baseline="text-before-edge"></text><text x="0" y="92" font-family="Helvetica, Segoe UI Emoji" font-size="20px" fill="#1e1e1e" text-anchor="start" style="white-space: pre;" direction="ltr" dominant-baseline="text-before-edge">Preis                    3.33</text><text x="0" y="115" font-family="Helvetica, Segoe UI Emoji" font-size="20px" fill="#1e1e1e" text-anchor="start" style="white-space: pre;" direction="ltr" dominant-baseline="text-before-edge"></text><text x="0" y="138" font-family="Helvetica, Segoe UI Emoji" font-size="20px" fill="#1e1e1e" text-anchor="start" style="white-space: pre;" direction="ltr" dominant-baseline="text-before-edge">Einheit                  ct/kWh</text><text x="0" y="161" font-family="Helvetica, Segoe UI Emoji" font-size="20px" fill="#1e1e1e" text-anchor="start" style="white-space: pre;" direction="ltr" dominant-baseline="text-before-edge"></text><text x="0" y="184" font-family="Helvetica, Segoe UI Emoji" font-size="20px" fill="#1e1e1e" text-anchor="start" style="white-space: pre;" direction="ltr" dominant-baseline="text-before-edge">Mindestlaufzeit     12</text><text x="0" y="207" font-family="Helvetica, Segoe UI Emoji" font-size="20px" fill="#1e1e1e" text-anchor="start" style="white-space: pre;" direction="ltr" dominant-baseline="text-before-edge">(Monate)</text><text x="0" y="230" font-family="Helvetica, Segoe UI Emoji" font-size="20px" fill="#1e1e1e" text-anchor="start" style="white-space: pre;" direction="ltr" dominant-baseline="text-before-edge"></text><text x="0" y="253" font-family="Helvetica, Segoe UI Emoji" font-size="20px" fill="#1e1e1e" text-anchor="start" style="white-space: pre;" direction="ltr" dominant-baseline="text-before-edge">Kündigungsfrist     12</text><text x="0" y="276" font-family="Helvetica, Segoe UI Emoji" font-size="20px" fill="#1e1e1e" text-anchor="start" style="white-space: pre;" direction="ltr" dominant-baseline="text-before-edge">(Monate)</text></g></g><g clip-path="url(#I4f9FKyJTCPlFg9gqx1Or)"><g stroke-linecap="round" transform="translate(736.4270351097788 430.5169378060741) rotate(0 11.871394654599783 10.625033908420164)"><path d="M0 0 C9.7 0.19, 17.93 -0.93, 23.74 0 M0 0 C9.26 0.23, 18.49 -0.37, 23.74 0 M23.74 0 C22.93 5.98, 23.65 11.83, 23.74 21.25 M23.74 0 C24.12 5.73, 24 12.44, 23.74 21.25 M23.74 21.25 C14.15 21.32, 4.45 20.61, 0 21.25 M23.74 21.25 C15.17 21.62, 6.1 21.01, 0 21.25 M0 21.25 C0.25 14.03, 0.59 7.22, 0 0 M0 21.25 C0.3 15.04, -0.16 8.28, 0 0" stroke="#000000" stroke-width="1" fill="none"></path></g></g><g clip-path="url(#I4f9FKyJTCPlFg9gqx1Or)"><g stroke-linecap="round" transform="translate(779.974483930433 618.0577060696119) rotate(0 70.17697409785035 20.178376299778392)"><path d="M10.09 0 C55.76 0, 101.43 0, 130.26 0 C136.99 0, 140.35 3.36, 140.35 10.09 C140.35 16.29, 140.35 22.5, 140.35 30.27 C140.35 36.99, 136.99 40.36, 130.26 40.36 C82.93 40.36, 35.6 40.36, 10.09 40.36 C3.36 40.36, 0 36.99, 0 30.27 C0 22.46, 0 14.66, 0 10.09 C0 3.36, 3.36 0, 10.09 0" stroke="none" stroke-width="0" fill="black"></path><path d="M10.09 0 C42.21 0, 74.34 0, 130.26 0 M10.09 0 C44.55 0, 79.02 0, 130.26 0 M130.26 0 C136.99 0, 140.35 3.36, 140.35 10.09 M130.26 0 C136.99 0, 140.35 3.36, 140.35 10.09 M140.35 10.09 C140.35 14.78, 140.35 19.46, 140.35 30.27 M140.35 10.09 C140.35 15.72, 140.35 21.36, 140.35 30.27 M140.35 30.27 C140.35 36.99, 136.99 40.36, 130.26 40.36 M140.35 30.27 C140.35 36.99, 136.99 40.36, 130.26 40.36 M130.26 40.36 C104.47 40.36, 78.67 40.36, 10.09 40.36 M130.26 40.36 C101.44 40.36, 72.61 40.36, 10.09 40.36 M10.09 40.36 C3.36 40.36, 0 36.99, 0 30.27 M10.09 40.36 C3.36 40.36, 0 36.99, 0 30.27 M0 30.27 C0 24.35, 0 18.44, 0 10.09 M0 30.27 C0 24.13, 0 18, 0 10.09 M0 10.09 C0 3.36, 3.36 0, 10.09 0 M0 10.09 C0 3.36, 3.36 0, 10.09 0" stroke="white" stroke-width="1" fill="none"></path></g></g><g clip-path="url(#I4f9FKyJTCPlFg9gqx1Or)"><g transform="translate(797.9008356587965 627.209361990444) rotate(0 48.369140625 11.5)"><text x="48.369140625" y="0" font-family="Helvetica, Segoe UI Emoji" font-size="20px" fill="white" text-anchor="middle" style="white-space: pre;" direction="ltr" dominant-baseline="text-before-edge">Abbrechen</text></g></g><g clip-path="url(#I4f9FKyJTCPlFg9gqx1Or)"><g stroke-linecap="round" transform="translate(1031.865700238745 617.6233325539833) rotate(0 70.17697409785035 20.178376299778392)"><path d="M10.09 0 C57.48 0, 104.87 0, 130.26 0 C136.99 0, 140.35 3.36, 140.35 10.09 C140.35 14.23, 140.35 18.38, 140.35 30.27 C140.35 36.99, 136.99 40.36, 130.26 40.36 C85.66 40.36, 41.05 40.36, 10.09 40.36 C3.36 40.36, 0 36.99, 0 30.27 C0 22.24, 0 14.21, 0 10.09 C0 3.36, 3.36 0, 10.09 0" stroke="none" stroke-width="0" fill="black"></path><path d="M10.09 0 C38.5 0, 66.91 0, 130.26 0 M10.09 0 C44.07 0, 78.05 0, 130.26 0 M130.26 0 C136.99 0, 140.35 3.36, 140.35 10.09 M130.26 0 C136.99 0, 140.35 3.36, 140.35 10.09 M140.35 10.09 C140.35 16.21, 140.35 22.33, 140.35 30.27 M140.35 10.09 C140.35 14.58, 140.35 19.07, 140.35 30.27 M140.35 30.27 C140.35 36.99, 136.99 40.36, 130.26 40.36 M140.35 30.27 C140.35 36.99, 136.99 40.36, 130.26 40.36 M130.26 40.36 C86.5 40.36, 42.74 40.36, 10.09 40.36 M130.26 40.36 C90.26 40.36, 50.25 40.36, 10.09 40.36 M10.09 40.36 C3.36 40.36, 0 36.99, 0 30.27 M10.09 40.36 C3.36 40.36, 0 36.99, 0 30.27 M0 30.27 C0 26.15, 0 22.03, 0 10.09 M0 30.27 C0 23.56, 0 16.85, 0 10.09 M0 10.09 C0 3.36, 3.36 0, 10.09 0 M0 10.09 C0 3.36, 3.36 0, 10.09 0" stroke="white" stroke-width="1" fill="none"></path></g></g><g clip-path="url(#I4f9FKyJTCPlFg9gqx1Or)"><g transform="translate(1050.9053332171084 626.7749884748155) rotate(0 47.255859375 11.5)"><text x="47.255859375" y="0" font-family="Helvetica, Segoe UI Emoji" font-size="20px" fill="white" text-anchor="middle" style="white-space: pre;" direction="ltr" dominant-baseline="text-before-edge">Bestätigen</text></g></g><g clip-path="url(#I4f9FKyJTCPlFg9gqx1Or)"><g stroke-linecap="round" transform="translate(742.3719035247215 433.48593092590727) rotate(0 6.750013563368157 6.4583333333332575)"><path d="M3.23 0 C5.92 -0.78, 8.08 -0.87, 10.27 0 C12.5 -2.32, 13.7 -1.26, 13.5 3.23 C12.96 5.11, 13.56 8.93, 13.5 9.69 C14.09 9.52, 13.3 10.67, 10.27 12.92 C8.74 12.39, 6.68 12.26, 3.23 12.92 C0.03 14.19, 0.83 10.64, 0 9.69 C0.38 6.54, -0.61 4.8, 0 3.23 C1.53 -0.7, -1.26 1.24, 3.23 0" stroke="none" stroke-width="0" fill="black"></path><path d="M3.23 0 C4.88 -0.23, 6.93 -0.02, 10.27 0 M3.23 0 C5.85 -0.13, 8.72 -0.06, 10.27 0 M10.27 0 C11.57 -0.98, 13.01 1.53, 13.5 3.23 M10.27 0 C12.74 0.32, 14.56 0.11, 13.5 3.23 M13.5 3.23 C13.56 5.57, 13.78 7.75, 13.5 9.69 M13.5 3.23 C13.54 5.16, 13.67 7.31, 13.5 9.69 M13.5 9.69 C14.19 11.88, 11.74 13.25, 10.27 12.92 M13.5 9.69 C14.57 11.93, 13.15 13.53, 10.27 12.92 M10.27 12.92 C7.53 13.02, 5.82 12.62, 3.23 12.92 M10.27 12.92 C8.48 12.9, 6.43 13.07, 3.23 12.92 M3.23 12.92 C0.68 13.19, 0.88 12.39, 0 9.69 M3.23 12.92 C0.27 12.74, 0.85 12.3, 0 9.69 M0 9.69 C0.29 7.86, -0.09 5.91, 0 3.23 M0 9.69 C-0.14 7.9, 0.14 5.83, 0 3.23 M0 3.23 C0.12 1.16, 0.17 0.19, 3.23 0 M0 3.23 C0 2.03, 0.56 0.74, 3.23 0" stroke="#1e1e1e" stroke-width="2" fill="none"></path></g></g><g transform="translate(10 10) rotate(0 96.26387023925781 8.75)"><text x="0" y="0" font-family="Assistant, Segoe UI Emoji" font-size="14px" fill="#999999" text-anchor="start" style="white-space: pre;" direction="ltr" dominant-baseline="text-before-edge">Home Page - Signup Popup (2.23)</text></g><rect transform="translate(10 30.5) rotate(0 698.1601562499999 415.9570312500002)" width="1396.3203124999998px" height="831.9140625000002px" rx="8" ry="8" fill="none" stroke="#bbb" stroke-width="2"></rect><g stroke-linecap="round"><g transform="translate(2571.7825233463186 684.3231616716321) rotate(0 -627.6982837958997 123.05791095061727)"><path d="M0 0 C-25.84 37.91, 26.01 186.46, -155.02 227.48 C-336.06 268.5, -902.81 251.54, -1086.2 246.12 C-1269.6 240.69, -1227.2 203.47, -1255.4 194.94" stroke="#e03131" stroke-width="4.5" fill="none" stroke-dasharray="8 12"></path></g><g transform="translate(2571.7825233463186 684.3231616716321) rotate(0 -627.6982837958997 123.05791095061727)"><path d="M-1227.97 207.1 C-1235.74 203.66, -1243.51 200.21, -1255.4 194.94" stroke="#e03131" stroke-width="4.5" fill="none"></path></g><g transform="translate(2571.7825233463186 684.3231616716321) rotate(0 -627.6982837958997 123.05791095061727)"><path d="M-1242.21 221.88 C-1245.94 214.25, -1249.68 206.62, -1255.4 194.94" stroke="#e03131" stroke-width="4.5" fill="none"></path></g></g><mask></mask><g stroke-linecap="round"><g transform="translate(487.24433265681375 799.5643025774798) rotate(0 195.8587949133601 90.59101883589528)" fill-rule="evenodd"><path d="M-0.27 1.32 L-1.61 177.91 L391.44 180.78 L389.12 40.92 L342.34 2.58 L-0.37 -1.21" stroke="none" stroke-width="0" fill="#fff" fill-rule="evenodd"></path><path d="M0 0 C-0.7 48.1, -1.47 96.96, 0 178.15 M0 0 C-1.13 66.6, -1.55 135.72, 0 178.15 M0 178.15 C94 180.22, 187.78 181.94, 391.72 181.18 M0 178.15 C141.02 179.86, 283.57 180.11, 391.72 181.18 M391.72 181.18 C390.01 146.12, 393.33 112.88, 390.71 40.49 M391.72 181.18 C390.39 133.64, 390.96 84.81, 390.71 40.49 M390.71 40.49 C374.51 24.48, 359.78 12.5, 343.13 1.1 M390.71 40.49 C375.7 27.77, 358.99 14.4, 343.13 1.1 M343.13 1.1 C243.95 0.17, 146.63 0.52, 0 0 M343.13 1.1 C214.28 1.76, 85.88 1.37, 0 0 M0 0 C0 0, 0 0, 0 0 M0 0 C0 0, 0 0, 0 0" stroke="#1e1e1e" stroke-width="1" fill="none"></path></g></g><mask></mask><g transform="translate(497.8525231988798 814.605457618446) rotate(0 171.32000732421875 75.47162877316646)"><text x="0" y="0" font-family="Virgil, Segoe UI Emoji" font-size="24.150921207413287px" fill="#1e1e1e" text-anchor="start" style="white-space: pre;" direction="ltr" dominant-baseline="text-before-edge">Tabs that you can always</text><text x="0" y="30.18865150926662" font-family="Virgil, Segoe UI Emoji" font-size="24.150921207413287px" fill="#1e1e1e" text-anchor="start" style="white-space: pre;" direction="ltr" dominant-baseline="text-before-edge">switch between while choosing</text><text x="0" y="60.37730301853324" font-family="Virgil, Segoe UI Emoji" font-size="24.150921207413287px" fill="#1e1e1e" text-anchor="start" style="white-space: pre;" direction="ltr" dominant-baseline="text-before-edge">the tariff</text><text x="0" y="90.56595452779986" font-family="Virgil, Segoe UI Emoji" font-size="24.150921207413287px" fill="#1e1e1e" text-anchor="start" style="white-space: pre;" direction="ltr" dominant-baseline="text-before-edge">BUT you can only have one</text><text x="0" y="120.75460603706648" font-family="Virgil, Segoe UI Emoji" font-size="24.150921207413287px" fill="#1e1e1e" text-anchor="start" style="white-space: pre;" direction="ltr" dominant-baseline="text-before-edge">Heiztarif</text></g><g stroke-linecap="round"><g transform="translate(829.3725396224946 800.0320727940552) rotate(0 24.868658370078833 22.128890922527944)" fill-rule="evenodd"><path d="M-0.01 0.29 L-0.5 44.47 L49.65 44.63 L50.37 38.61 L0.16 -0.52" stroke="none" stroke-width="0" fill="#868e96" fill-rule="evenodd"></path><path d="M0 0 C0.81 12.67, 0.96 27.26, 0 44.26 M0 0 C-0.32 9.97, -0.46 19.07, 0 44.26 M0 44.26 C12.67 44.57, 23.97 43.07, 48.89 43.84 M0 44.26 C17.05 44.18, 34.21 43.71, 48.89 43.84 M48.89 43.84 C49.21 42.47, 49.15 40.78, 49.74 38.36 M48.89 43.84 C49.24 41.84, 49.33 40.11, 49.74 38.36 M49.74 38.36 C39.59 29.84, 28.38 23.23, 0 0 M49.74 38.36 C30.73 24.04, 11.87 9.03, 0 0 M0 0 C0 0, 0 0, 0 0 M0 0 C0 0, 0 0, 0 0" stroke="#1e1e1e" stroke-width="1" fill="none"></path></g></g><mask></mask><g stroke-linecap="round"><g stroke-opacity="0.9" fill-opacity="0.9" transform="translate(924.5914233693045 626.4794289787915) rotate(0 259.4586710362292 -44.275934584859215)"><path d="M-1.11 -0.21 C85.47 -14.99, 431.89 -74.64, 518.73 -89.32" stroke="#e03131" stroke-width="2.5" fill="none" stroke-dasharray="8 10"></path></g><g stroke-opacity="0.9" fill-opacity="0.9" transform="translate(924.5914233693045 626.4794289787915) rotate(0 259.4586710362292 -44.275934584859215)"><path d="M492.67 -74.45 C498.55 -78.03, 503.78 -79.51, 518.73 -89.32" stroke="#e03131" stroke-width="2.5" fill="none"></path></g><g stroke-opacity="0.9" fill-opacity="0.9" transform="translate(924.5914233693045 626.4794289787915) rotate(0 259.4586710362292 -44.275934584859215)"><path d="M489.21 -94.68 C495.8 -93.46, 501.84 -90.16, 518.73 -89.32" stroke="#e03131" stroke-width="2.5" fill="none"></path></g></g><mask></mask></svg>