<svg version="1.1" xmlns="http://www.w3.org/2000/svg" viewBox="0 0 3461.6010969317017 1774.0622857932885" width="3461.6010969317017" height="1774.0622857932885">
  <!-- svg-source:excalidraw -->
  
  <defs>
    <style class="style-fonts">
      @font-face {
        font-family: "Virgil";
        src: url("https://file%2B.vscode-resource.vscode-cdn.net/c%3A/Users/lisa-/.vscode/extensions/pomdtr.excalidraw-editor-3.7.4/public//dist/excalidraw-assets/Virgil.woff2");
      }
      @font-face {
        font-family: "Cascadia";
        src: url("https://file%2B.vscode-resource.vscode-cdn.net/c%3A/Users/lisa-/.vscode/extensions/pomdtr.excalidraw-editor-3.7.4/public//dist/excalidraw-assets/Cascadia.woff2");
      }
      @font-face {
        font-family: "Assistant";
        src: url("https://file%2B.vscode-resource.vscode-cdn.net/c%3A/Users/lisa-/.vscode/extensions/pomdtr.excalidraw-editor-3.7.4/public//dist/excalidraw-assets/Assistant-Regular.woff2");
      }
    </style>
    <clipPath id="6wbGiM85X-jkdMqGMg8S5">
            <rect transform="translate(552.5972557619356 30.5) rotate(0 698.1601562499999 415.95703125)" width="1396.3203124999998" height="831.9140625000002">
          </rect>
        </clipPath><clipPath id="vQAET0YtNKRJw0YsXxpUn">
            <rect transform="translate(558.660208890446 930.9243577803868) rotate(0 698.1601562499998 415.9570312500002)" width="1396.3203124999998" height="831.9140625000002">
          </rect>
        </clipPath><clipPath id="Ykx0XtgFmpyj1DO0HxsRw">
            <rect transform="translate(2055.280784431702 932.1482232932881) rotate(0 698.1601562499998 415.9570312500002)" width="1396.3203124999998" height="831.9140625000002">
          </rect>
        </clipPath>
  </defs>
  <rect x="0" y="0" width="3461.6010969317017" height="1774.0622857932885" fill="#ffffff"></rect><g clip-path="url(#6wbGiM85X-jkdMqGMg8S5)"><g stroke-linecap="round" transform="translate(608.224071335117 92.1365001676586) rotate(0 640 360)"><path d="M0 0 C270.01 0, 540.02 0, 1280 0 M0 0 C397.3 0, 794.59 0, 1280 0 M1280 0 C1280 223.62, 1280 447.23, 1280 720 M1280 0 C1280 174.27, 1280 348.54, 1280 720 M1280 720 C769.32 720, 258.65 720, 0 720 M1280 720 C904.87 720, 529.73 720, 0 720 M0 720 C0 465.77, 0 211.54, 0 0 M0 720 C0 480.39, 0 240.79, 0 0" stroke="#ced4da" stroke-width="4" fill="none"></path></g></g><g clip-path="url(#6wbGiM85X-jkdMqGMg8S5)"><g stroke-linecap="round"><g transform="translate(884.9833455893425 91.68762790431674) rotate(0 0.67626953125 360.6884765625)"><path d="M-0.4 0.89 C-0.28 120.99, 1.14 601.28, 1.38 721.5 M1.6 0.31 C1.5 120.54, 0.69 603.1, 0.45 723.1" stroke="#bbb" stroke-width="2" fill="none"></path></g></g><mask></mask></g><g clip-path="url(#6wbGiM85X-jkdMqGMg8S5)"><g transform="translate(912.9234909470582 125.69443297547377) rotate(0 331.6583251953125 110.68798828125)"><text x="0" y="0" font-family="Helvetica, Segoe UI Emoji" font-size="96.25042459239128px" fill="#1e1e1e" text-anchor="start" style="white-space: pre;" direction="ltr" dominant-baseline="text-before-edge">Willkommen </text><text x="0" y="110.68798828124997" font-family="Helvetica, Segoe UI Emoji" font-size="96.25042459239128px" fill="#1e1e1e" text-anchor="start" style="white-space: pre;" direction="ltr" dominant-baseline="text-before-edge">Herr Paul Peter</text></g></g><g clip-path="url(#6wbGiM85X-jkdMqGMg8S5)"><g stroke-linecap="round" transform="translate(935.4099731582213 390.4177719741874) rotate(0 452.22609401884154 191.05643458574332)"><path d="M0 0 C274.32 0.99, 547.03 1.2, 904.45 0 M0 0 C221.12 0.73, 442.25 0.05, 904.45 0 M904.45 0 C902.33 95.38, 902.51 191.17, 904.45 382.11 M904.45 0 C906.98 130.27, 907.23 259.49, 904.45 382.11 M904.45 382.11 C602.03 382.73, 300.74 383.61, 0 382.11 M904.45 382.11 C647.36 381.61, 391.07 382, 0 382.11 M0 382.11 C-1.34 296.91, -1.11 211.53, 0 0 M0 382.11 C-0.99 265.01, -1.34 147.08, 0 0" stroke="#000000" stroke-width="1" fill="none"></path></g></g><g clip-path="url(#6wbGiM85X-jkdMqGMg8S5)"><g stroke-linecap="round" transform="translate(1025.077525651432 465.87101440173365) rotate(0 44.54548100742835 44.54548100742841)"><path d="M39.34 0.8 C46.71 -0.81, 56.84 0.34, 64.05 3.84 C71.25 7.35, 78.54 14.75, 82.56 21.81 C86.58 28.86, 88.39 38.2, 88.18 46.17 C87.97 54.13, 85.76 63.11, 81.31 69.59 C76.86 76.06, 68.71 81.83, 61.49 85.01 C54.27 88.19, 45.69 89.77, 37.99 88.65 C30.28 87.54, 21.3 83.71, 15.27 78.3 C9.24 72.88, 4.16 64.14, 1.83 56.18 C-0.5 48.22, -1.15 38.22, 1.29 30.54 C3.73 22.86, 9.7 15.21, 16.47 10.1 C23.25 4.98, 37.25 1.29, 41.93 -0.15 C46.62 -1.59, 44.38 0.61, 44.6 1.47 M27.16 1.87 C34.06 -1.4, 45.38 -1.06, 53.34 0.85 C61.29 2.76, 69.25 7.92, 74.89 13.34 C80.54 18.77, 85.16 25.66, 87.19 33.39 C89.23 41.12, 89.61 52.11, 87.11 59.73 C84.62 67.34, 78.81 74.24, 72.22 79.07 C65.64 83.89, 55.93 88.11, 47.58 88.69 C39.23 89.26, 29.33 86.28, 22.12 82.53 C14.91 78.77, 7.91 73.19, 4.31 66.15 C0.71 59.11, -0.13 48.13, 0.53 40.3 C1.18 32.48, 3.6 25.4, 8.25 19.2 C12.89 13, 25.2 5.49, 28.4 3.1 C31.6 0.71, 27.14 4.29, 27.47 4.87" stroke="none" stroke-width="0" fill="black"></path><path d="M55.58 1.02 C63.37 2.17, 72.82 7.64, 78.17 13.51 C83.51 19.39, 86.5 28.26, 87.65 36.27 C88.8 44.29, 88.15 54.22, 85.07 61.61 C82 68.99, 75.78 76.15, 69.18 80.58 C62.58 85, 53.34 87.62, 45.49 88.15 C37.65 88.69, 28.91 87.67, 22.1 83.78 C15.3 79.89, 8.13 72.03, 4.65 64.82 C1.18 57.62, 0.34 48.53, 1.24 40.53 C2.15 32.54, 5.23 23.18, 10.11 16.84 C14.99 10.49, 22.54 4.92, 30.53 2.46 C38.51 -0.01, 52.87 1.61, 58.01 2.03 C63.15 2.45, 61.53 4.15, 61.35 4.98 M44.62 0.42 C52.16 -0.19, 59.62 2.9, 66.31 6.84 C73 10.78, 81.01 17.02, 84.78 24.06 C88.55 31.09, 89.88 40.94, 88.94 49.06 C87.99 57.19, 84.04 66.36, 79.12 72.78 C74.19 79.2, 66.82 84.93, 59.41 87.58 C52 90.24, 42.51 90.85, 34.65 88.72 C26.79 86.59, 17.92 80.76, 12.25 74.79 C6.58 68.83, 1.84 60.81, 0.63 52.91 C-0.59 45.02, 2.07 34.8, 4.96 27.44 C7.86 20.09, 11.78 13.21, 18.01 8.8 C24.23 4.4, 37.9 2.08, 42.32 1.01 C46.74 -0.06, 44.11 1.78, 44.52 2.37" stroke="#000000" stroke-width="1" fill="none"></path></g></g><g clip-path="url(#6wbGiM85X-jkdMqGMg8S5)"><g stroke-linecap="round"><g transform="translate(953.1144428712763 744.7105301107017) rotate(0 422.52997505839437 -115.09160397470282)" fill-rule="evenodd"><path d="M1.39 0.54 L293.24 -168.38 L430.12 -105.14 L664.25 -241.5 L844.64 9.17 L1.15 1.66" stroke="none" stroke-width="0" fill="black" fill-rule="evenodd"></path><path d="M0 0 C94.89 -54.85, 190.45 -109.52, 293.31 -166.81 M0 0 C115.92 -64.52, 231.57 -130.2, 293.31 -166.81 M293.31 -166.81 C326.51 -149.13, 358.43 -135.77, 431.27 -105.93 M293.31 -166.81 C349.04 -142.91, 403.77 -119.12, 431.27 -105.93 M431.27 -105.93 C495.73 -144.42, 561.03 -183.74, 664.63 -240.88 M431.27 -105.93 C483.25 -137.15, 537.6 -168.8, 664.63 -240.88 M664.63 -240.88 C719.82 -162.37, 776.02 -84.48, 845.06 10.7 M664.63 -240.88 C732.1 -147.26, 799.78 -54.16, 845.06 10.7 M845.06 10.7 C665.93 7.2, 486.55 5.02, 0 0 M845.06 10.7 C587.17 5.76, 329.41 2.23, 0 0 M0 0 C0 0, 0 0, 0 0 M0 0 C0 0, 0 0, 0 0" stroke="#000000" stroke-width="1" fill="none"></path></g></g><mask></mask></g><g clip-path="url(#6wbGiM85X-jkdMqGMg8S5)"><g stroke-linecap="round" transform="translate(885.3255190552485 92.44814370343511) rotate(0 503.00695269974335 360.0109060460611)"><path d="M0 0 C352.56 -0.74, 706.03 -1.04, 1006.01 0 M1006.01 0 C1004.54 160.93, 1004.12 322.52, 1006.01 720.02 M1006.01 720.02 C796.17 724.36, 587.12 724.7, 0 720.02 M0 720.02 C-0.8 491.43, -1.14 263.96, 0 0" stroke="#bbb" stroke-width="2.5" fill="none" stroke-dasharray="1.5 8"></path></g></g><g clip-path="url(#6wbGiM85X-jkdMqGMg8S5)"><g transform="translate(583.4582269948451 435.52137810309887) rotate(270.23675559051935 161.49594116210938 22.5)"><text x="0" y="0" font-family="Virgil, Segoe UI Emoji" font-size="36px" fill="#f08c00" text-anchor="start" style="white-space: pre;" direction="ltr" dominant-baseline="text-before-edge">Sidebar Component</text></g></g><g clip-path="url(#6wbGiM85X-jkdMqGMg8S5)"><g stroke-opacity="0.5" fill-opacity="0.5" stroke-linecap="round" transform="translate(611.0257447868156 94.6374734103506) rotate(0 640 360)"><path d="M0 0 L1280 0 L1280 720 L0 720" stroke="none" stroke-width="0" fill="black"></path><path d="M0 0 C333.24 0, 666.49 0, 1280 0 M0 0 C298.27 0, 596.54 0, 1280 0 M1280 0 C1280 248.35, 1280 496.7, 1280 720 M1280 0 C1280 180.69, 1280 361.39, 1280 720 M1280 720 C961.99 720, 643.97 720, 0 720 M1280 720 C959.62 720, 639.24 720, 0 720 M0 720 C0 440.27, 0 160.55, 0 0 M0 720 C0 497.02, 0 274.04, 0 0" stroke="#ced4da" stroke-width="4" fill="none"></path></g></g><g clip-path="url(#6wbGiM85X-jkdMqGMg8S5)"><g stroke-linecap="round" transform="translate(708.9503709458579 195.50953852037992) rotate(0 540.8154087791804 251.431273963095)"><path d="M0.92 -1.2 L1081.14 1.8 L1081.19 503.31 L0.93 503.19" stroke="none" stroke-width="0" fill="white"></path><path d="M0 0 C240.9 2.02, 482.18 1.59, 1081.63 0 M0 0 C268.56 -1.71, 536.5 -1.31, 1081.63 0 M1081.63 0 C1081.92 194.96, 1081.58 389.41, 1081.63 502.86 M1081.63 0 C1083.65 172.21, 1083.23 344.18, 1081.63 502.86 M1081.63 502.86 C652.76 499.7, 222.98 499.61, 0 502.86 M1081.63 502.86 C790.52 503.38, 499.23 503.47, 0 502.86 M0 502.86 C0.29 337.6, 0 170.04, 0 0 M0 502.86 C1.5 319.87, 1.54 136.12, 0 0" stroke="#000000" stroke-width="1" fill="none"></path></g></g><g clip-path="url(#6wbGiM85X-jkdMqGMg8S5)"><g transform="translate(737.0225558265217 218.54549996882497) rotate(0 172.1337890625 20.700000000000045)"><text x="0" y="0" font-family="Helvetica, Segoe UI Emoji" font-size="36px" fill="#000000" text-anchor="start" style="white-space: pre;" direction="ltr" dominant-baseline="text-before-edge">Neukundenaufnahme</text></g></g><g clip-path="url(#6wbGiM85X-jkdMqGMg8S5)"><g stroke-linecap="round" transform="translate(1623.0422092286485 634.9449162051774) rotate(0 70.17697409785035 20.178376299778392)"><path d="M10.09 0 C34.55 0, 59.01 0, 130.26 0 C136.99 0, 140.35 3.36, 140.35 10.09 C140.35 14.93, 140.35 19.77, 140.35 30.27 C140.35 36.99, 136.99 40.36, 130.26 40.36 C95.91 40.36, 61.56 40.36, 10.09 40.36 C3.36 40.36, 0 36.99, 0 30.27 C0 22.32, 0 14.37, 0 10.09 C0 3.36, 3.36 0, 10.09 0" stroke="none" stroke-width="0" fill="#ced4da"></path><path d="M10.09 0 C44.94 0, 79.8 0, 130.26 0 M10.09 0 C46.1 0, 82.1 0, 130.26 0 M130.26 0 C136.99 0, 140.35 3.36, 140.35 10.09 M130.26 0 C136.99 0, 140.35 3.36, 140.35 10.09 M140.35 10.09 C140.35 15.1, 140.35 20.12, 140.35 30.27 M140.35 10.09 C140.35 15.14, 140.35 20.19, 140.35 30.27 M140.35 30.27 C140.35 36.99, 136.99 40.36, 130.26 40.36 M140.35 30.27 C140.35 36.99, 136.99 40.36, 130.26 40.36 M130.26 40.36 C104.72 40.36, 79.17 40.36, 10.09 40.36 M130.26 40.36 C93.61 40.36, 56.95 40.36, 10.09 40.36 M10.09 40.36 C3.36 40.36, 0 36.99, 0 30.27 M10.09 40.36 C3.36 40.36, 0 36.99, 0 30.27 M0 30.27 C0 23.82, 0 17.38, 0 10.09 M0 30.27 C0 23.67, 0 17.07, 0 10.09 M0 10.09 C0 3.36, 3.36 0, 10.09 0 M0 10.09 C0 3.36, 3.36 0, 10.09 0" stroke="white" stroke-width="1" fill="none"></path></g></g><g clip-path="url(#6wbGiM85X-jkdMqGMg8S5)"><g transform="translate(1660.626764082012 644.0965721260095) rotate(0 28.7109375 11.5)"><text x="28.7109375" y="0" font-family="Helvetica, Segoe UI Emoji" font-size="20px" fill="white" text-anchor="middle" style="white-space: pre;" direction="ltr" dominant-baseline="text-before-edge">Weiter</text></g></g><g clip-path="url(#6wbGiM85X-jkdMqGMg8S5)"><g transform="translate(736.1736252264909 275.7928298628501) rotate(0 203.8681640625 16.100000000000023)"><text x="0" y="0" font-family="Helvetica, Segoe UI Emoji" font-size="28px" fill="#1e1e1e" text-anchor="start" style="white-space: pre;" direction="ltr" dominant-baseline="text-before-edge">Bitte wählen Sie ihren Stromtarif.</text></g></g><g clip-path="url(#6wbGiM85X-jkdMqGMg8S5)"><g transform="translate(774.4579135414026 595.3303298411765) rotate(0 462.68554687499994 11.5)"><text x="0" y="0" font-family="Helvetica, Segoe UI Emoji" font-size="20px" fill="#1e1e1e" text-anchor="start" style="white-space: pre;" direction="ltr" dominant-baseline="text-before-edge">Ich habe einen externen Stromanbieter und möchte keinen Strom der Stadtwerke Bad Walden beziehen.</text></g></g><g clip-path="url(#6wbGiM85X-jkdMqGMg8S5)"><g stroke-linecap="round" transform="translate(755.9073666167662 505.35850516130563) rotate(0 473.1557214259577 27.62105468575578)"><path d="M13.81 0 C381.05 5.14, 749.16 5.17, 932.5 0 C943.87 3.5, 947.62 7.97, 946.31 13.81 C942.91 20.08, 949.63 31.18, 946.31 41.43 C945.71 51.65, 940.15 56.66, 932.5 55.24 C598.06 50.65, 261.35 50.12, 13.81 55.24 C1.81 57.36, 1.39 49.06, 0 41.43 C-0.45 33.22, -0.11 23.28, 0 13.81 C-0.83 4.74, 6.08 -0.08, 13.81 0" stroke="none" stroke-width="0" fill="#fff"></path><path d="M13.81 0 C275.54 -2.68, 538.69 -3.35, 932.5 0 M13.81 0 C252.08 -0.26, 490.33 0.3, 932.5 0 M932.5 0 C943.46 -0.18, 944.9 4.22, 946.31 13.81 M932.5 0 C940.87 1.02, 946.83 4.97, 946.31 13.81 M946.31 13.81 C947.93 18.83, 948.06 29.02, 946.31 41.43 M946.31 13.81 C946.94 21.85, 947.08 27.13, 946.31 41.43 M946.31 41.43 C945.93 51.23, 941.64 55.7, 932.5 55.24 M946.31 41.43 C945.18 49.28, 943.09 53.56, 932.5 55.24 M932.5 55.24 C605.98 52.39, 279.93 52.72, 13.81 55.24 M932.5 55.24 C671.98 58.91, 411.33 58.83, 13.81 55.24 M13.81 55.24 C3.16 56.64, 0.22 52.58, 0 41.43 M13.81 55.24 C4.39 53.37, -2.18 49.51, 0 41.43 M0 41.43 C0.78 33.82, 1.14 25.58, 0 13.81 M0 41.43 C0.36 35.15, -0.71 28.85, 0 13.81 M0 13.81 C-0.51 3.58, 4.73 -0.08, 13.81 0 M0 13.81 C-1.91 2.65, 4.67 -0.97, 13.81 0" stroke="#1e1e1e" stroke-width="2" fill="none"></path></g></g><g clip-path="url(#6wbGiM85X-jkdMqGMg8S5)"><g transform="translate(760.9073666167662 521.4795598470614) rotate(0 287.5634765625 11.5)"><text x="0" y="0" font-family="Helvetica, Segoe UI Emoji" font-size="20px" fill="#1e1e1e" text-anchor="start" style="white-space: pre;" direction="ltr" dominant-baseline="text-before-edge">  Tarif3                 1.33€              36 Monate                  12 Monate</text></g></g><g clip-path="url(#6wbGiM85X-jkdMqGMg8S5)"><g stroke-linecap="round" transform="translate(736.1872404638083 348.20666068751734) rotate(359.9296265924723 515.8420183976855 120.03262627291747)"><path d="M0 0 C370.4 0.56, 741.44 1.35, 1031.68 0 M0 0 C223.91 -2.4, 446.84 -2.44, 1031.68 0 M1031.68 0 C1032.84 62.3, 1032.73 128.09, 1031.68 240.07 M1031.68 0 C1030.9 90.72, 1030.42 181.71, 1031.68 240.07 M1031.68 240.07 C668.49 242.64, 306.79 242.76, 0 240.07 M1031.68 240.07 C698.67 237.33, 365.39 237.99, 0 240.07 M0 240.07 C0.67 188.75, 0.21 135.45, 0 0 M0 240.07 C-0.32 145.03, -0.87 50.36, 0 0" stroke="#000000" stroke-width="1" fill="none"></path></g></g><g clip-path="url(#6wbGiM85X-jkdMqGMg8S5)"><g stroke-linecap="round" transform="translate(1719.0065889567395 363.8188209232794) rotate(359.9296265924723 15.44090099337484 103.3042967389606)"><path d="M0 0 C8.44 0.96, 15.3 1.6, 30.88 0 M0 0 C10.32 -0.16, 21.7 0.47, 30.88 0 M30.88 0 C31.34 68.21, 32.59 131.85, 30.88 206.61 M30.88 0 C33.04 79.26, 33.14 160.39, 30.88 206.61 M30.88 206.61 C20.17 206.48, 8.74 205.57, 0 206.61 M30.88 206.61 C24 207.3, 15.19 206.14, 0 206.61 M0 206.61 C-0.5 140.46, 1.51 74.42, 0 0 M0 206.61 C-0.53 138.74, 0.2 70.48, 0 0" stroke="#000000" stroke-width="1" fill="none"></path></g></g><g clip-path="url(#6wbGiM85X-jkdMqGMg8S5)"><g stroke-linecap="round" transform="translate(1727.646554444511 368.71414972433354) rotate(359.9296265924723 9.457430284254201 81.77208864368265)"><path d="M-0.95 -0.49 L19.1 0.65 L18.51 164.02 L0.59 164.2" stroke="none" stroke-width="0" fill="black"></path><path d="M0 0 C3.74 0.63, 9.6 0.79, 18.91 0 M0 0 C5.33 0.23, 11.11 0.09, 18.91 0 M18.91 0 C19.79 38.41, 19.85 79.41, 18.91 163.54 M18.91 0 C19.5 42.29, 19.57 83.2, 18.91 163.54 M18.91 163.54 C13.82 163.08, 7.72 164.11, 0 163.54 M18.91 163.54 C14.24 163.52, 10.43 163.68, 0 163.54 M0 163.54 C1.1 104.58, 0.45 45.28, 0 0 M0 163.54 C0.64 112.79, 0.54 60.66, 0 0" stroke="#000000" stroke-width="1" fill="none"></path></g></g><g clip-path="url(#6wbGiM85X-jkdMqGMg8S5)"><g stroke-linecap="round" transform="translate(754.4155903567805 361.2665991900799) rotate(0 477.0198478434861 27.62105468575578)"><path d="M13.81 0 C377.43 2.42, 742.19 5.11, 940.23 0 C949.82 -0.6, 955.06 3.05, 954.04 13.81 C952.26 24.77, 952.52 30.07, 954.04 41.43 C950.87 47.85, 951.55 56.63, 940.23 55.24 C704.25 58.39, 466.04 58.53, 13.81 55.24 C5.26 54.41, 0.14 52.11, 0 41.43 C-3.74 36.44, -2.68 26.35, 0 13.81 C-0.55 5.31, 3.66 1.88, 13.81 0" stroke="none" stroke-width="0" fill="#fff"></path><path d="M13.81 0 C327.83 -1.92, 640.86 -3.19, 940.23 0 M13.81 0 C273.95 -1.58, 533.68 -1.61, 940.23 0 M940.23 0 C951.21 1.59, 952.44 6.32, 954.04 13.81 M940.23 0 C951.69 -1.02, 954.96 3.31, 954.04 13.81 M954.04 13.81 C952.72 23.14, 954.9 33.15, 954.04 41.43 M954.04 13.81 C954.51 22, 954.46 32.57, 954.04 41.43 M954.04 41.43 C952.4 50.16, 949.85 55.47, 940.23 55.24 M954.04 41.43 C955.45 50.26, 949.53 57.46, 940.23 55.24 M940.23 55.24 C650.09 54.45, 360.29 55.11, 13.81 55.24 M940.23 55.24 C572.05 52.03, 204.71 52.48, 13.81 55.24 M13.81 55.24 C3.8 56.2, 1.18 51.96, 0 41.43 M13.81 55.24 C6.62 53.59, -0.19 49.43, 0 41.43 M0 41.43 C0.05 31.7, -1.03 23.12, 0 13.81 M0 41.43 C0.26 32.84, 1.23 24.26, 0 13.81 M0 13.81 C-1.58 4.39, 4.46 0.79, 13.81 0 M0 13.81 C-0.1 5.99, 6.84 0.83, 13.81 0" stroke="#1e1e1e" stroke-width="2" fill="none"></path></g></g><g clip-path="url(#6wbGiM85X-jkdMqGMg8S5)"><g transform="translate(759.4155903567805 377.38765387583567) rotate(0 287.5634765625 11.5)"><text x="0" y="0" font-family="Helvetica, Segoe UI Emoji" font-size="20px" fill="#1e1e1e" text-anchor="start" style="white-space: pre;" direction="ltr" dominant-baseline="text-before-edge">  Tarif1                 3.33€              12 Monate                  12 Monate</text></g></g><g clip-path="url(#6wbGiM85X-jkdMqGMg8S5)"><g stroke-linecap="round" transform="translate(754.7315966869289 436.86374934815626) rotate(0 475.4251245300868 27.62105468575578)"><path d="M13.81 0 C210.78 -6.88, 407.85 -7.26, 937.04 0 C947.66 2.33, 948.02 2.5, 950.85 13.81 C947.43 20.52, 952.71 34.2, 950.85 41.43 C949.27 52.1, 947.99 58.64, 937.04 55.24 C665.72 55.15, 393.93 56.08, 13.81 55.24 C4.52 58.37, -2.7 47.34, 0 41.43 C-0.24 31.37, -0.63 21.78, 0 13.81 C2.92 3.95, 7.19 -1.92, 13.81 0" stroke="none" stroke-width="0" fill="#fff"></path><path d="M13.81 0 C371.48 2.32, 729.81 2.79, 937.04 0 M13.81 0 C306 -0.03, 597.16 0, 937.04 0 M937.04 0 C948.21 -0.89, 951.65 3.48, 950.85 13.81 M937.04 0 C947.43 2.26, 952.37 2.78, 950.85 13.81 M950.85 13.81 C951.39 20.59, 949.75 30.55, 950.85 41.43 M950.85 13.81 C950.18 19.83, 951.21 26.45, 950.85 41.43 M950.85 41.43 C952.08 50.31, 946.33 57.17, 937.04 55.24 M950.85 41.43 C951.16 51.36, 946.11 55.55, 937.04 55.24 M937.04 55.24 C727.35 55.57, 515.45 54.89, 13.81 55.24 M937.04 55.24 C705.11 57.83, 473.74 57.91, 13.81 55.24 M13.81 55.24 C6.36 53.81, -0.16 49.58, 0 41.43 M13.81 55.24 C5.38 55.3, -1.68 50.7, 0 41.43 M0 41.43 C0.06 32.19, -1.56 26.32, 0 13.81 M0 41.43 C-1.07 34.2, -0.35 27.58, 0 13.81 M0 13.81 C-0.09 5.8, 6.55 0.73, 13.81 0 M0 13.81 C2.15 4.77, 3.34 -1.62, 13.81 0" stroke="#1e1e1e" stroke-width="2" fill="none"></path></g></g><g clip-path="url(#6wbGiM85X-jkdMqGMg8S5)"><g transform="translate(759.7315966869289 452.98480403391204) rotate(0 287.5634765625 11.5)"><text x="0" y="0" font-family="Helvetica, Segoe UI Emoji" font-size="20px" fill="#1e1e1e" text-anchor="start" style="white-space: pre;" direction="ltr" dominant-baseline="text-before-edge">  Tarif2                 2.33€              24 Monate                  12 Monate</text></g></g><g clip-path="url(#6wbGiM85X-jkdMqGMg8S5)"><g stroke-linecap="round" transform="translate(1545.4813087016732 370.45421575383193) rotate(0 73.93466188158709 16.942610235378993)"><path d="M8.47 0 C45.58 0, 82.68 0, 139.4 0 C145.05 0, 147.87 2.82, 147.87 8.47 C147.87 12.24, 147.87 16.01, 147.87 25.41 C147.87 31.06, 145.05 33.89, 139.4 33.89 C103.14 33.89, 66.87 33.89, 8.47 33.89 C2.82 33.89, 0 31.06, 0 25.41 C0 20, 0 14.58, 0 8.47 C0 2.82, 2.82 0, 8.47 0" stroke="none" stroke-width="0" fill="black"></path><path d="M8.47 0 C43 0, 77.52 0, 139.4 0 M8.47 0 C58.15 0, 107.83 0, 139.4 0 M139.4 0 C145.05 0, 147.87 2.82, 147.87 8.47 M139.4 0 C145.05 0, 147.87 2.82, 147.87 8.47 M147.87 8.47 C147.87 12.72, 147.87 16.97, 147.87 25.41 M147.87 8.47 C147.87 13.15, 147.87 17.82, 147.87 25.41 M147.87 25.41 C147.87 31.06, 145.05 33.89, 139.4 33.89 M147.87 25.41 C147.87 31.06, 145.05 33.89, 139.4 33.89 M139.4 33.89 C101.32 33.89, 63.24 33.89, 8.47 33.89 M139.4 33.89 C93.87 33.89, 48.33 33.89, 8.47 33.89 M8.47 33.89 C2.82 33.89, 0 31.06, 0 25.41 M8.47 33.89 C2.82 33.89, 0 31.06, 0 25.41 M0 25.41 C0 21.74, 0 18.06, 0 8.47 M0 25.41 C0 20.51, 0 15.6, 0 8.47 M0 8.47 C0 2.82, 2.82 0, 8.47 0 M0 8.47 C0 2.82, 2.82 0, 8.47 0" stroke="white" stroke-width="2" fill="none"></path></g></g><g clip-path="url(#6wbGiM85X-jkdMqGMg8S5)"><g transform="translate(1580.2792518332603 378.196825989211) rotate(0 39.13671875 9.200000000000045)"><text x="39.13671875" y="0" font-family="Helvetica, Segoe UI Emoji" font-size="16px" fill="white" text-anchor="middle" style="white-space: pre;" direction="ltr" dominant-baseline="text-before-edge">Auswählen</text></g></g><g clip-path="url(#6wbGiM85X-jkdMqGMg8S5)"><g stroke-linecap="round" transform="translate(1544.8219646670827 444.5699558122667) rotate(0 73.93466188158709 16.942610235378993)"><path d="M8.47 0 C56.23 0, 103.98 0, 139.4 0 C145.05 0, 147.87 2.82, 147.87 8.47 C147.87 14.24, 147.87 20.01, 147.87 25.41 C147.87 31.06, 145.05 33.89, 139.4 33.89 C88.74 33.89, 38.08 33.89, 8.47 33.89 C2.82 33.89, 0 31.06, 0 25.41 C0 20.64, 0 15.87, 0 8.47 C0 2.82, 2.82 0, 8.47 0" stroke="none" stroke-width="0" fill="black"></path><path d="M8.47 0 C39.86 0, 71.26 0, 139.4 0 M8.47 0 C41.93 0, 75.4 0, 139.4 0 M139.4 0 C145.05 0, 147.87 2.82, 147.87 8.47 M139.4 0 C145.05 0, 147.87 2.82, 147.87 8.47 M147.87 8.47 C147.87 14.49, 147.87 20.51, 147.87 25.41 M147.87 8.47 C147.87 13.28, 147.87 18.08, 147.87 25.41 M147.87 25.41 C147.87 31.06, 145.05 33.89, 139.4 33.89 M147.87 25.41 C147.87 31.06, 145.05 33.89, 139.4 33.89 M139.4 33.89 C97.68 33.89, 55.97 33.89, 8.47 33.89 M139.4 33.89 C109.51 33.89, 79.62 33.89, 8.47 33.89 M8.47 33.89 C2.82 33.89, 0 31.06, 0 25.41 M8.47 33.89 C2.82 33.89, 0 31.06, 0 25.41 M0 25.41 C0 18.64, 0 11.86, 0 8.47 M0 25.41 C0 19.31, 0 13.21, 0 8.47 M0 8.47 C0 2.82, 2.82 0, 8.47 0 M0 8.47 C0 2.82, 2.82 0, 8.47 0" stroke="white" stroke-width="2" fill="none"></path></g></g><g clip-path="url(#6wbGiM85X-jkdMqGMg8S5)"><g transform="translate(1579.6199077986698 452.31256604764576) rotate(0 39.13671875 9.200000000000045)"><text x="39.13671875" y="0" font-family="Helvetica, Segoe UI Emoji" font-size="16px" fill="white" text-anchor="middle" style="white-space: pre;" direction="ltr" dominant-baseline="text-before-edge">Auswählen</text></g></g><g clip-path="url(#6wbGiM85X-jkdMqGMg8S5)"><g stroke-linecap="round" transform="translate(1541.392057890062 516.9844505650155) rotate(0 73.93466188158709 16.942610235378993)"><path d="M8.47 0 C41.05 0, 73.63 0, 139.4 0 C145.05 0, 147.87 2.82, 147.87 8.47 C147.87 14.11, 147.87 19.76, 147.87 25.41 C147.87 31.06, 145.05 33.89, 139.4 33.89 C108.29 33.89, 77.17 33.89, 8.47 33.89 C2.82 33.89, 0 31.06, 0 25.41 C0 19.67, 0 13.93, 0 8.47 C0 2.82, 2.82 0, 8.47 0" stroke="none" stroke-width="0" fill="black"></path><path d="M8.47 0 C37.28 0, 66.08 0, 139.4 0 M8.47 0 C60.6 0, 112.73 0, 139.4 0 M139.4 0 C145.05 0, 147.87 2.82, 147.87 8.47 M139.4 0 C145.05 0, 147.87 2.82, 147.87 8.47 M147.87 8.47 C147.87 13.9, 147.87 19.33, 147.87 25.41 M147.87 8.47 C147.87 14.09, 147.87 19.7, 147.87 25.41 M147.87 25.41 C147.87 31.06, 145.05 33.89, 139.4 33.89 M147.87 25.41 C147.87 31.06, 145.05 33.89, 139.4 33.89 M139.4 33.89 C92.36 33.89, 45.33 33.89, 8.47 33.89 M139.4 33.89 C99.79 33.89, 60.19 33.89, 8.47 33.89 M8.47 33.89 C2.82 33.89, 0 31.06, 0 25.41 M8.47 33.89 C2.82 33.89, 0 31.06, 0 25.41 M0 25.41 C0 20.45, 0 15.49, 0 8.47 M0 25.41 C0 20.21, 0 15, 0 8.47 M0 8.47 C0 2.82, 2.82 0, 8.47 0 M0 8.47 C0 2.82, 2.82 0, 8.47 0" stroke="white" stroke-width="2" fill="none"></path></g></g><g clip-path="url(#6wbGiM85X-jkdMqGMg8S5)"><g transform="translate(1576.190001021649 524.7270608003946) rotate(0 39.13671875 9.200000000000045)"><text x="39.13671875" y="0" font-family="Helvetica, Segoe UI Emoji" font-size="16px" fill="white" text-anchor="middle" style="white-space: pre;" direction="ltr" dominant-baseline="text-before-edge">Auswählen</text></g></g><g clip-path="url(#6wbGiM85X-jkdMqGMg8S5)"><g transform="translate(757.0783564677506 318.1797011820772) rotate(0 300.654296875 11.5)"><text x="0" y="0" font-family="Helvetica, Segoe UI Emoji" font-size="20px" fill="#1e1e1e" text-anchor="start" style="white-space: pre;" direction="ltr" dominant-baseline="text-before-edge">Name                  Tarif                 Laufzeit                       Preisgarantie</text></g></g><g clip-path="url(#6wbGiM85X-jkdMqGMg8S5)"><g stroke-linecap="round" transform="translate(737.5007475380617 596.9637506666422) rotate(0 11.871394654599783 10.625033908420164)"><path d="M0 0 C5.62 -0.92, 11.68 0.57, 23.74 0 M0 0 C7.03 0.1, 13.35 -0.46, 23.74 0 M23.74 0 C23.46 4.75, 24.39 11.1, 23.74 21.25 M23.74 0 C23.73 5.11, 23.89 9.35, 23.74 21.25 M23.74 21.25 C19.36 21.69, 13.02 20.5, 0 21.25 M23.74 21.25 C19.42 21.53, 14.22 21.71, 0 21.25 M0 21.25 C0.75 12.41, -0.33 4.2, 0 0 M0 21.25 C0.28 14.45, 0.43 8.83, 0 0" stroke="#000000" stroke-width="1" fill="none"></path></g></g><g transform="translate(552.5972557619356 10) rotate(0 92.53288269042969 8.75)"><text x="0" y="0" font-family="Assistant, Segoe UI Emoji" font-size="14px" fill="#999999" text-anchor="start" style="white-space: pre;" direction="ltr" dominant-baseline="text-before-edge">Home Page - Signup Popup (2.1)</text></g><rect transform="translate(552.5972557619356 30.5) rotate(0 698.1601562499999 415.95703125)" width="1396.3203124999998px" height="831.9140625000002px" rx="8" ry="8" fill="none" stroke="#bbb" stroke-width="2"></rect><g clip-path="url(#vQAET0YtNKRJw0YsXxpUn)"><g stroke-linecap="round" transform="translate(614.2870244636274 992.5608579480454) rotate(0 640 360)"><path d="M0 0 C468.18 0, 936.36 0, 1280 0 M0 0 C509.35 0, 1018.7 0, 1280 0 M1280 0 C1280 181.88, 1280 363.77, 1280 720 M1280 0 C1280 189.9, 1280 379.81, 1280 720 M1280 720 C962.76 720, 645.53 720, 0 720 M1280 720 C856.19 720, 432.37 720, 0 720 M0 720 C0 470.31, 0 220.63, 0 0 M0 720 C0 462.84, 0 205.68, 0 0" stroke="#ced4da" stroke-width="4" fill="none"></path></g></g><g clip-path="url(#vQAET0YtNKRJw0YsXxpUn)"><g stroke-linecap="round"><g transform="translate(891.046298717853 992.1119856847035) rotate(0 0.67626953125 360.6884765625)"><path d="M1.05 0.39 C1.27 120.76, 1.09 602.34, 1.01 722.55 M0.14 -0.45 C0.2 119.59, -0.6 600.46, -0.12 721.05" stroke="#bbb" stroke-width="2" fill="none"></path></g></g><mask></mask></g><g clip-path="url(#vQAET0YtNKRJw0YsXxpUn)"><g transform="translate(918.9864440755687 1026.1187907558606) rotate(0 331.6583251953125 110.68798828125)"><text x="0" y="0" font-family="Helvetica, Segoe UI Emoji" font-size="96.25042459239128px" fill="#1e1e1e" text-anchor="start" style="white-space: pre;" direction="ltr" dominant-baseline="text-before-edge">Willkommen </text><text x="0" y="110.68798828124997" font-family="Helvetica, Segoe UI Emoji" font-size="96.25042459239128px" fill="#1e1e1e" text-anchor="start" style="white-space: pre;" direction="ltr" dominant-baseline="text-before-edge">Herr Paul Peter</text></g></g><g clip-path="url(#vQAET0YtNKRJw0YsXxpUn)"><g stroke-linecap="round" transform="translate(941.4729262867318 1290.8421297545742) rotate(0 452.2260940188415 191.05643458574332)"><path d="M0 0 C245.37 3.12, 490.55 2.36, 904.45 0 M0 0 C323.61 -0.07, 646.28 0.49, 904.45 0 M904.45 0 C904.19 108.43, 904.36 215.21, 904.45 382.11 M904.45 0 C903.29 149.16, 903.32 297.45, 904.45 382.11 M904.45 382.11 C632.06 383.48, 361 383.84, 0 382.11 M904.45 382.11 C697.47 383.99, 490.08 384.24, 0 382.11 M0 382.11 C-0.72 246.83, -0.4 109.26, 0 0 M0 382.11 C-1.31 245.26, -0.99 108.62, 0 0" stroke="#000000" stroke-width="1" fill="none"></path></g></g><g clip-path="url(#vQAET0YtNKRJw0YsXxpUn)"><g stroke-linecap="round" transform="translate(1031.1404787799424 1366.2953721821204) rotate(0 44.54548100742835 44.54548100742841)"><path d="M42.28 0.6 C49.91 -0.29, 59.06 2.1, 66.13 6.04 C73.21 9.98, 80.97 17.02, 84.72 24.22 C88.48 31.42, 89.63 41.35, 88.68 49.24 C87.73 57.12, 83.96 65.23, 79.01 71.53 C74.05 77.83, 66.38 84.26, 58.95 87.01 C51.52 89.77, 42.36 89.97, 34.43 88.05 C26.5 86.14, 17.02 81.28, 11.36 75.54 C5.7 69.81, 1.95 61.72, 0.48 53.66 C-0.99 45.61, -0.46 34.83, 2.55 27.24 C5.57 19.64, 11.25 12.77, 18.58 8.09 C25.91 3.41, 41.56 0.45, 46.54 -0.84 C51.52 -2.12, 48.57 -0.57, 48.47 0.39 M64.21 4.87 C71.35 7.59, 77.01 15.36, 81.37 22.13 C85.72 28.9, 90.15 37.62, 90.37 45.51 C90.6 53.4, 87.27 62.7, 82.71 69.47 C78.16 76.25, 70.6 82.76, 63.04 86.15 C55.49 89.54, 45.38 91.25, 37.4 89.81 C29.42 88.37, 21.15 82.89, 15.19 77.52 C9.22 72.15, 3.75 65.09, 1.61 57.59 C-0.53 50.09, -0.24 40.29, 2.34 32.51 C4.92 24.72, 11.22 16.13, 17.09 10.88 C22.97 5.62, 29.63 2, 37.61 0.95 C45.59 -0.1, 60.61 3.84, 64.98 4.58 C69.34 5.31, 64.48 4.84, 63.78 5.36" stroke="none" stroke-width="0" fill="black"></path><path d="M40.01 1.12 C47.29 -0.28, 56.58 0.82, 63.82 4.29 C71.06 7.75, 79.33 14.79, 83.48 21.91 C87.62 29.03, 89.03 38.86, 88.69 46.99 C88.35 55.12, 85.89 64.29, 81.43 70.69 C76.96 77.1, 69.29 82.56, 61.92 85.41 C54.55 88.27, 45.11 89.21, 37.21 87.8 C29.32 86.4, 20.38 82.38, 14.56 76.97 C8.74 71.56, 4.23 63.15, 2.28 55.35 C0.34 47.55, 0.41 37.75, 2.88 30.19 C5.36 22.62, 9.77 14.93, 17.15 9.97 C24.53 5.01, 40.77 1.6, 47.18 0.42 C53.59 -0.76, 55.72 2.13, 55.63 2.9 M57.97 2.07 C65.4 3.85, 73.93 10.02, 78.98 16.15 C84.03 22.27, 87.08 30.84, 88.27 38.83 C89.45 46.82, 89.49 56.75, 86.07 64.08 C82.65 71.42, 74.53 78.43, 67.75 82.83 C60.97 87.23, 53.34 90.63, 45.4 90.48 C37.45 90.34, 26.91 86.46, 20.08 81.96 C13.25 77.45, 7.75 70.64, 4.4 63.43 C1.05 56.22, -1.24 46.72, -0.03 38.71 C1.19 30.7, 6.64 21.6, 11.72 15.38 C16.79 9.15, 23.08 3.65, 30.41 1.36 C37.73 -0.92, 51.3 1.33, 55.68 1.68 C60.06 2.04, 56.68 2.71, 56.68 3.49" stroke="#000000" stroke-width="1" fill="none"></path></g></g><g clip-path="url(#vQAET0YtNKRJw0YsXxpUn)"><g stroke-linecap="round"><g transform="translate(959.1773959997868 1645.1348878910885) rotate(0 422.5299750583944 -115.09160397470305)" fill-rule="evenodd"><path d="M0.52 -0.65 L294.69 -168.09 L429.76 -106.18 L664.3 -238.9 L843.36 10.46 L-1.38 0.96" stroke="none" stroke-width="0" fill="black" fill-rule="evenodd"></path><path d="M0 0 C110.39 -62.71, 219.34 -123.33, 293.31 -166.81 M0 0 C60.74 -35.4, 121.44 -69.09, 293.31 -166.81 M293.31 -166.81 C343.51 -146.09, 390.99 -123.77, 431.27 -105.93 M293.31 -166.81 C348.25 -142.98, 403.43 -119.52, 431.27 -105.93 M431.27 -105.93 C506.71 -151.36, 586.08 -195.51, 664.63 -240.88 M431.27 -105.93 C491.13 -140.61, 550.62 -175.44, 664.63 -240.88 M664.63 -240.88 C732.47 -147.82, 798.6 -57.46, 845.06 10.7 M664.63 -240.88 C717.43 -167.55, 770.72 -94.39, 845.06 10.7 M845.06 10.7 C674.97 5.57, 505.41 3.4, 0 0 M845.06 10.7 C573.55 5.65, 301.88 2.51, 0 0 M0 0 C0 0, 0 0, 0 0 M0 0 C0 0, 0 0, 0 0" stroke="#000000" stroke-width="1" fill="none"></path></g></g><mask></mask></g><g clip-path="url(#vQAET0YtNKRJw0YsXxpUn)"><g stroke-linecap="round" transform="translate(891.388472183759 992.8725014838219) rotate(0 503.0069526997434 360.0109060460611)"><path d="M0 0 C281.61 2.63, 562.61 1.45, 1006.01 0 M1006.01 0 C1005.93 249.65, 1005.89 499.03, 1006.01 720.02 M1006.01 720.02 C745.61 717.95, 485.03 718, 0 720.02 M0 720.02 C0.22 467.42, 0.23 216.16, 0 0" stroke="#bbb" stroke-width="2.5" fill="none" stroke-dasharray="1.5 8"></path></g></g><g clip-path="url(#vQAET0YtNKRJw0YsXxpUn)"><g transform="translate(589.5211801233556 1335.9457358834857) rotate(270.23675559051935 161.49594116210938 22.5)"><text x="0" y="0" font-family="Virgil, Segoe UI Emoji" font-size="36px" fill="#f08c00" text-anchor="start" style="white-space: pre;" direction="ltr" dominant-baseline="text-before-edge">Sidebar Component</text></g></g><g clip-path="url(#vQAET0YtNKRJw0YsXxpUn)"><g stroke-opacity="0.5" fill-opacity="0.5" stroke-linecap="round" transform="translate(617.0886979153261 995.0618311907374) rotate(0 640 360)"><path d="M0 0 L1280 0 L1280 720 L0 720" stroke="none" stroke-width="0" fill="black"></path><path d="M0 0 C499.01 0, 998.02 0, 1280 0 M0 0 C444.16 0, 888.33 0, 1280 0 M1280 0 C1280 218.84, 1280 437.68, 1280 720 M1280 0 C1280 183.79, 1280 367.59, 1280 720 M1280 720 C787.58 720, 295.16 720, 0 720 M1280 720 C833.35 720, 386.7 720, 0 720 M0 720 C0 526.96, 0 333.92, 0 0 M0 720 C0 507.89, 0 295.78, 0 0" stroke="#ced4da" stroke-width="4" fill="none"></path></g></g><g clip-path="url(#vQAET0YtNKRJw0YsXxpUn)"><g stroke-linecap="round" transform="translate(712.9678695289138 1096.0293330905392) rotate(0 540.8154087791804 251.431273963095)"><path d="M-0.91 -0.74 L1081.44 -1.77 L1080.54 502.58 L1.09 501.49" stroke="none" stroke-width="0" fill="white"></path><path d="M0 0 C263.11 1.2, 527.18 1.15, 1081.63 0 M0 0 C391.22 -3.6, 782.88 -3.45, 1081.63 0 M1081.63 0 C1082.89 155.89, 1082.29 311.55, 1081.63 502.86 M1081.63 0 C1083.38 190.03, 1083.53 379.44, 1081.63 502.86 M1081.63 502.86 C686.54 505.1, 290.93 505.8, 0 502.86 M1081.63 502.86 C675.34 505.74, 268.52 505.34, 0 502.86 M0 502.86 C-0.16 341.51, -0.41 178.39, 0 0 M0 502.86 C1.74 368.09, 1.73 232.94, 0 0" stroke="#000000" stroke-width="1" fill="none"></path></g></g><g clip-path="url(#vQAET0YtNKRJw0YsXxpUn)"><g transform="translate(741.0400544095777 1119.0652945389843) rotate(0 172.1337890625 20.700000000000045)"><text x="0" y="0" font-family="Helvetica, Segoe UI Emoji" font-size="36px" fill="#000000" text-anchor="start" style="white-space: pre;" direction="ltr" dominant-baseline="text-before-edge">Neukundenaufnahme</text></g></g><g clip-path="url(#vQAET0YtNKRJw0YsXxpUn)"><g stroke-linecap="round" transform="translate(1620.0548693884089 1523.994253640512) rotate(0 70.17697409785035 20.178376299778392)"><path d="M10.09 0 C51.18 0, 92.27 0, 130.26 0 C136.99 0, 140.35 3.36, 140.35 10.09 C140.35 17.84, 140.35 25.59, 140.35 30.27 C140.35 36.99, 136.99 40.36, 130.26 40.36 C83.08 40.36, 35.89 40.36, 10.09 40.36 C3.36 40.36, 0 36.99, 0 30.27 C0 25.59, 0 20.91, 0 10.09 C0 3.36, 3.36 0, 10.09 0" stroke="none" stroke-width="0" fill="black"></path><path d="M10.09 0 C52.62 0, 95.16 0, 130.26 0 M10.09 0 C53.37 0, 96.66 0, 130.26 0 M130.26 0 C136.99 0, 140.35 3.36, 140.35 10.09 M130.26 0 C136.99 0, 140.35 3.36, 140.35 10.09 M140.35 10.09 C140.35 17.85, 140.35 25.61, 140.35 30.27 M140.35 10.09 C140.35 17.13, 140.35 24.17, 140.35 30.27 M140.35 30.27 C140.35 36.99, 136.99 40.36, 130.26 40.36 M140.35 30.27 C140.35 36.99, 136.99 40.36, 130.26 40.36 M130.26 40.36 C106.08 40.36, 81.9 40.36, 10.09 40.36 M130.26 40.36 C91.66 40.36, 53.05 40.36, 10.09 40.36 M10.09 40.36 C3.36 40.36, 0 36.99, 0 30.27 M10.09 40.36 C3.36 40.36, 0 36.99, 0 30.27 M0 30.27 C0 25.33, 0 20.39, 0 10.09 M0 30.27 C0 24.87, 0 19.48, 0 10.09 M0 10.09 C0 3.36, 3.36 0, 10.09 0 M0 10.09 C0 3.36, 3.36 0, 10.09 0" stroke="white" stroke-width="1" fill="none"></path></g></g><g clip-path="url(#vQAET0YtNKRJw0YsXxpUn)"><g transform="translate(1657.6394242417723 1533.145909561344) rotate(0 28.7109375 11.5)"><text x="28.7109375" y="0" font-family="Helvetica, Segoe UI Emoji" font-size="20px" fill="white" text-anchor="middle" style="white-space: pre;" direction="ltr" dominant-baseline="text-before-edge">Weiter</text></g></g><g clip-path="url(#vQAET0YtNKRJw0YsXxpUn)"><g transform="translate(742.2365783550014 1174.2971436979246) rotate(0 204.6474609375 16.09999999999991)"><text x="0" y="0" font-family="Helvetica, Segoe UI Emoji" font-size="28px" fill="#1e1e1e" text-anchor="start" style="white-space: pre;" direction="ltr" dominant-baseline="text-before-edge">Bitte wählen Sie Ihren Stromtarif.</text></g></g><g clip-path="url(#vQAET0YtNKRJw0YsXxpUn)"><g stroke-linecap="round" transform="translate(761.9703197452767 1405.7828629416922) rotate(0 473.1557214259577 27.62105468575578)"><path d="M13.81 0 C352.32 -2.56, 690.41 -2.1, 932.5 0 C940.99 -0.07, 948.86 5.49, 946.31 13.81 C943.89 25.46, 950.07 35.07, 946.31 41.43 C947.68 51.32, 939.47 53.8, 932.5 55.24 C678.26 55.66, 423.61 54.85, 13.81 55.24 C6.29 57.48, 3.51 53.87, 0 41.43 C0.96 32.29, -1.31 25.91, 0 13.81 C0.01 6.94, 5.14 3.2, 13.81 0" stroke="none" stroke-width="0" fill="#fff"></path><path d="M13.81 0 C242.28 -0.07, 469.59 -0.14, 932.5 0 M13.81 0 C318.12 1.95, 622.48 1.36, 932.5 0 M932.5 0 C942.64 1.13, 948.01 3.76, 946.31 13.81 M932.5 0 C943.22 0.45, 947.6 5.92, 946.31 13.81 M946.31 13.81 C947.96 20.15, 947.61 30.05, 946.31 41.43 M946.31 13.81 C946.44 24.84, 945.91 35.77, 946.31 41.43 M946.31 41.43 C947.52 50.53, 939.73 54.61, 932.5 55.24 M946.31 41.43 C944.31 50.5, 941.62 56.56, 932.5 55.24 M932.5 55.24 C661.7 53.5, 390.79 53.14, 13.81 55.24 M932.5 55.24 C670.03 52.95, 407.53 52.64, 13.81 55.24 M13.81 55.24 C5.52 54.13, -1.11 50.31, 0 41.43 M13.81 55.24 C5.46 56.13, 0.5 48.46, 0 41.43 M0 41.43 C-1.19 30.92, -0.16 23.09, 0 13.81 M0 41.43 C-0.45 30.89, 0.71 20.27, 0 13.81 M0 13.81 C-1.05 5.98, 5.44 0.8, 13.81 0 M0 13.81 C-1.49 6.4, 6.57 0.57, 13.81 0" stroke="#1e1e1e" stroke-width="2" fill="none"></path></g></g><g clip-path="url(#vQAET0YtNKRJw0YsXxpUn)"><g transform="translate(766.9703197452767 1421.9039176274482) rotate(0 287.5634765625 11.5)"><text x="0" y="0" font-family="Helvetica, Segoe UI Emoji" font-size="20px" fill="#1e1e1e" text-anchor="start" style="white-space: pre;" direction="ltr" dominant-baseline="text-before-edge">  Tarif3                 1.33€              36 Monate                  12 Monate</text></g></g><g clip-path="url(#vQAET0YtNKRJw0YsXxpUn)"><g stroke-linecap="round" transform="translate(742.2501935923187 1248.6310184679041) rotate(359.9296265924723 515.8420183976855 120.03262627291747)"><path d="M0 0 C319.58 0.21, 638.3 0.22, 1031.68 0 M0 0 C389.59 3.15, 779.15 2.75, 1031.68 0 M1031.68 0 C1033.03 87.39, 1032.89 176.64, 1031.68 240.07 M1031.68 0 C1030.8 90.99, 1030.12 180.37, 1031.68 240.07 M1031.68 240.07 C699.86 239.28, 367.58 238, 0 240.07 M1031.68 240.07 C754.69 240.05, 477.71 239.91, 0 240.07 M0 240.07 C-0.73 178.05, 0.51 118.76, 0 0 M0 240.07 C-0.06 184.35, 0.24 128.52, 0 0" stroke="#000000" stroke-width="1" fill="none"></path></g></g><g clip-path="url(#vQAET0YtNKRJw0YsXxpUn)"><g stroke-linecap="round" transform="translate(1725.0695420852499 1264.2431787036662) rotate(359.9296265924723 15.44090099337484 103.3042967389606)"><path d="M0 0 C8.39 0.54, 20.13 1.45, 30.88 0 M0 0 C7.93 -0.6, 14.81 0.02, 30.88 0 M30.88 0 C32.8 74.69, 33.28 145.96, 30.88 206.61 M30.88 0 C31.5 73.9, 31.98 148.1, 30.88 206.61 M30.88 206.61 C22.46 204.82, 13.63 205.05, 0 206.61 M30.88 206.61 C21.74 207, 12.26 206.41, 0 206.61 M0 206.61 C1.37 147.56, 0.41 86.7, 0 0 M0 206.61 C0.24 132.06, -0.65 58.35, 0 0" stroke="#000000" stroke-width="1" fill="none"></path></g></g><g clip-path="url(#vQAET0YtNKRJw0YsXxpUn)"><g stroke-linecap="round" transform="translate(1733.7095075730213 1269.1385075047206) rotate(359.9296265924723 9.457430284254315 81.77208864368254)"><path d="M0.22 -0.95 L19.17 -0.33 L19.6 162.91 L-0.75 163.42" stroke="none" stroke-width="0" fill="black"></path><path d="M0 0 C6.99 0.7, 11.84 0.41, 18.91 0 M0 0 C7.06 0.13, 13.76 0.31, 18.91 0 M18.91 0 C20.07 44.53, 19.9 90.85, 18.91 163.54 M18.91 0 C18.76 64.33, 18.5 128.6, 18.91 163.54 M18.91 163.54 C11.8 162.63, 5.22 163.42, 0 163.54 M18.91 163.54 C11.94 163.39, 5.35 163.15, 0 163.54 M0 163.54 C-0.57 123.47, 0.7 83.34, 0 0 M0 163.54 C-0.65 117.84, -0.19 72.49, 0 0" stroke="#000000" stroke-width="1" fill="none"></path></g></g><g clip-path="url(#vQAET0YtNKRJw0YsXxpUn)"><g stroke-linecap="round" transform="translate(760.478543485291 1261.6909569704667) rotate(0 477.0198478434861 27.62105468575578)"><path d="M13.81 0 C314.85 -6.79, 615.73 -4.32, 940.23 0 C950.16 1.37, 954.72 2.37, 954.04 13.81 C954.11 20.27, 954.11 25.72, 954.04 41.43 C952.18 52.33, 951.67 58.76, 940.23 55.24 C578.27 52.49, 217.12 51.58, 13.81 55.24 C3.37 55.25, 2.34 51.17, 0 41.43 C-1.94 33.24, 3.47 16.61, 0 13.81 C0.55 1.02, 6.92 -3.36, 13.81 0" stroke="none" stroke-width="0" fill="#fff"></path><path d="M13.81 0 C320.41 -2.5, 628.59 -2.19, 940.23 0 M13.81 0 C252.69 -0.5, 491.04 -0.53, 940.23 0 M940.23 0 C950.71 1.52, 952.74 5.76, 954.04 13.81 M940.23 0 C950.57 2.13, 953.31 4.41, 954.04 13.81 M954.04 13.81 C954.61 23.91, 953.98 29.61, 954.04 41.43 M954.04 13.81 C953.76 21.8, 953.74 28.85, 954.04 41.43 M954.04 41.43 C953.13 49.9, 949.25 53.47, 940.23 55.24 M954.04 41.43 C952.79 50.31, 950.69 53.66, 940.23 55.24 M940.23 55.24 C655.69 55.94, 371.05 55.13, 13.81 55.24 M940.23 55.24 C677.69 56.3, 415.07 56.55, 13.81 55.24 M13.81 55.24 C5.98 53.97, -1.51 50.39, 0 41.43 M13.81 55.24 C4.22 57.52, -1.95 50.36, 0 41.43 M0 41.43 C1.63 33.99, 1.24 29.5, 0 13.81 M0 41.43 C1.03 32.29, 0.85 22.89, 0 13.81 M0 13.81 C0.71 5.73, 4.31 1.68, 13.81 0 M0 13.81 C0.39 4.15, 4.56 1.63, 13.81 0" stroke="#1e1e1e" stroke-width="2" fill="none"></path></g></g><g clip-path="url(#vQAET0YtNKRJw0YsXxpUn)"><g transform="translate(765.478543485291 1277.8120116562227) rotate(0 287.5634765625 11.5)"><text x="0" y="0" font-family="Helvetica, Segoe UI Emoji" font-size="20px" fill="#1e1e1e" text-anchor="start" style="white-space: pre;" direction="ltr" dominant-baseline="text-before-edge">  Tarif1                 3.33€              12 Monate                  12 Monate</text></g></g><g clip-path="url(#vQAET0YtNKRJw0YsXxpUn)"><g stroke-linecap="round" transform="translate(760.7945498154394 1337.2881071285433) rotate(0 475.4251245300868 27.62105468575578)"><path d="M13.81 0 C218.15 -5.61, 422.18 -7.05, 937.04 0 C944.81 -0.85, 950.24 4.79, 950.85 13.81 C949.02 23.23, 953.11 32.79, 950.85 41.43 C954.08 49.15, 944.6 53.23, 937.04 55.24 C640.67 52.4, 346.22 52.61, 13.81 55.24 C7.81 53.72, 0.42 48.49, 0 41.43 C0.1 27.6, 1.87 17.57, 0 13.81 C-0.34 4.5, 5.12 -0.19, 13.81 0" stroke="none" stroke-width="0" fill="#fff"></path><path d="M13.81 0 C333.64 -2.6, 654.3 -2.68, 937.04 0 M13.81 0 C343.81 -1.5, 673.04 -1.58, 937.04 0 M937.04 0 C947.23 1.86, 950.21 4.44, 950.85 13.81 M937.04 0 C946.75 0.42, 950.14 5.2, 950.85 13.81 M950.85 13.81 C950.2 22.03, 950.72 33.66, 950.85 41.43 M950.85 13.81 C950.38 23.31, 950.74 32.67, 950.85 41.43 M950.85 41.43 C949.76 50.35, 947.34 53.87, 937.04 55.24 M950.85 41.43 C951.01 51.98, 946.45 54.76, 937.04 55.24 M937.04 55.24 C617.7 53.5, 298.93 53.38, 13.81 55.24 M937.04 55.24 C747.74 53.78, 557.59 53.99, 13.81 55.24 M13.81 55.24 C4.27 57.22, -1.7 50.4, 0 41.43 M13.81 55.24 C3.02 56.35, 1.1 52.67, 0 41.43 M0 41.43 C0.61 33.31, 1.37 29.48, 0 13.81 M0 41.43 C0.17 33.03, -0.33 24.34, 0 13.81 M0 13.81 C0.34 4.21, 4.56 1.42, 13.81 0 M0 13.81 C0.56 6.25, 6.55 0.58, 13.81 0" stroke="#1e1e1e" stroke-width="2" fill="none"></path></g></g><g clip-path="url(#vQAET0YtNKRJw0YsXxpUn)"><g transform="translate(765.7945498154394 1353.4091618142993) rotate(0 287.5634765625 11.5)"><text x="0" y="0" font-family="Helvetica, Segoe UI Emoji" font-size="20px" fill="#1e1e1e" text-anchor="start" style="white-space: pre;" direction="ltr" dominant-baseline="text-before-edge">  Tarif2                 2.33€              24 Monate                  12 Monate</text></g></g><g clip-path="url(#vQAET0YtNKRJw0YsXxpUn)"><g stroke-linecap="round" transform="translate(1551.5442618301836 1270.8785735342185) rotate(0 73.93466188158709 16.942610235379107)"><path d="M8.47 0 C52.74 0, 97.02 0, 139.4 0 C145.05 0, 147.87 2.82, 147.87 8.47 C147.87 14.35, 147.87 20.22, 147.87 25.41 C147.87 31.06, 145.05 33.89, 139.4 33.89 C100.09 33.89, 60.77 33.89, 8.47 33.89 C2.82 33.89, 0 31.06, 0 25.41 C0 22.02, 0 18.62, 0 8.47 C0 2.82, 2.82 0, 8.47 0" stroke="none" stroke-width="0" fill="black"></path><path d="M8.47 0 C56.35 0, 104.23 0, 139.4 0 M8.47 0 C57.68 0, 106.88 0, 139.4 0 M139.4 0 C145.05 0, 147.87 2.82, 147.87 8.47 M139.4 0 C145.05 0, 147.87 2.82, 147.87 8.47 M147.87 8.47 C147.87 12.08, 147.87 15.68, 147.87 25.41 M147.87 8.47 C147.87 12.92, 147.87 17.38, 147.87 25.41 M147.87 25.41 C147.87 31.06, 145.05 33.89, 139.4 33.89 M147.87 25.41 C147.87 31.06, 145.05 33.89, 139.4 33.89 M139.4 33.89 C95.23 33.89, 51.06 33.89, 8.47 33.89 M139.4 33.89 C108.47 33.89, 77.54 33.89, 8.47 33.89 M8.47 33.89 C2.82 33.89, 0 31.06, 0 25.41 M8.47 33.89 C2.82 33.89, 0 31.06, 0 25.41 M0 25.41 C0 21.43, 0 17.44, 0 8.47 M0 25.41 C0 19.37, 0 13.33, 0 8.47 M0 8.47 C0 2.82, 2.82 0, 8.47 0 M0 8.47 C0 2.82, 2.82 0, 8.47 0" stroke="white" stroke-width="2" fill="none"></path></g></g><g clip-path="url(#vQAET0YtNKRJw0YsXxpUn)"><g transform="translate(1586.3422049617707 1278.6211837695973) rotate(0 39.13671875 9.200000000000045)"><text x="39.13671875" y="0" font-family="Helvetica, Segoe UI Emoji" font-size="16px" fill="white" text-anchor="middle" style="white-space: pre;" direction="ltr" dominant-baseline="text-before-edge">Auswählen</text></g></g><g clip-path="url(#vQAET0YtNKRJw0YsXxpUn)"><g stroke-linecap="round" transform="translate(1550.884917795593 1344.9943135926537) rotate(0 73.93466188158709 16.942610235379107)"><path d="M8.47 0 C44.66 0, 80.86 0, 139.4 0 C145.05 0, 147.87 2.82, 147.87 8.47 C147.87 12.85, 147.87 17.24, 147.87 25.41 C147.87 31.06, 145.05 33.89, 139.4 33.89 C105.65 33.89, 71.89 33.89, 8.47 33.89 C2.82 33.89, 0 31.06, 0 25.41 C0 20.38, 0 15.35, 0 8.47 C0 2.82, 2.82 0, 8.47 0" stroke="none" stroke-width="0" fill="#1971c2"></path><path d="M8.47 0 C44.64 0, 80.81 0, 139.4 0 M8.47 0 C59.89 0, 111.32 0, 139.4 0 M139.4 0 C145.05 0, 147.87 2.82, 147.87 8.47 M139.4 0 C145.05 0, 147.87 2.82, 147.87 8.47 M147.87 8.47 C147.87 13.46, 147.87 18.45, 147.87 25.41 M147.87 8.47 C147.87 13.31, 147.87 18.15, 147.87 25.41 M147.87 25.41 C147.87 31.06, 145.05 33.89, 139.4 33.89 M147.87 25.41 C147.87 31.06, 145.05 33.89, 139.4 33.89 M139.4 33.89 C96.72 33.89, 54.04 33.89, 8.47 33.89 M139.4 33.89 C87.14 33.89, 34.89 33.89, 8.47 33.89 M8.47 33.89 C2.82 33.89, 0 31.06, 0 25.41 M8.47 33.89 C2.82 33.89, 0 31.06, 0 25.41 M0 25.41 C0 19.19, 0 12.96, 0 8.47 M0 25.41 C0 20.67, 0 15.92, 0 8.47 M0 8.47 C0 2.82, 2.82 0, 8.47 0 M0 8.47 C0 2.82, 2.82 0, 8.47 0" stroke="white" stroke-width="2" fill="none"></path></g></g><g clip-path="url(#vQAET0YtNKRJw0YsXxpUn)"><g transform="translate(1585.6828609271802 1352.7369238280326) rotate(0 39.13671875 9.200000000000045)"><text x="39.13671875" y="0" font-family="Helvetica, Segoe UI Emoji" font-size="16px" fill="white" text-anchor="middle" style="white-space: pre;" direction="ltr" dominant-baseline="text-before-edge">Auswählen</text></g></g><g clip-path="url(#vQAET0YtNKRJw0YsXxpUn)"><g stroke-linecap="round" transform="translate(1547.4550110185723 1417.4088083454021) rotate(0 73.93466188158709 16.942610235379107)"><path d="M8.47 0 C48.42 0, 88.37 0, 139.4 0 C145.05 0, 147.87 2.82, 147.87 8.47 C147.87 12.61, 147.87 16.76, 147.87 25.41 C147.87 31.06, 145.05 33.89, 139.4 33.89 C88.28 33.89, 37.16 33.89, 8.47 33.89 C2.82 33.89, 0 31.06, 0 25.41 C0 20.13, 0 14.85, 0 8.47 C0 2.82, 2.82 0, 8.47 0" stroke="none" stroke-width="0" fill="black"></path><path d="M8.47 0 C39.27 0, 70.07 0, 139.4 0 M8.47 0 C50.17 0, 91.86 0, 139.4 0 M139.4 0 C145.05 0, 147.87 2.82, 147.87 8.47 M139.4 0 C145.05 0, 147.87 2.82, 147.87 8.47 M147.87 8.47 C147.87 13.39, 147.87 18.31, 147.87 25.41 M147.87 8.47 C147.87 14.54, 147.87 20.62, 147.87 25.41 M147.87 25.41 C147.87 31.06, 145.05 33.89, 139.4 33.89 M147.87 25.41 C147.87 31.06, 145.05 33.89, 139.4 33.89 M139.4 33.89 C109.98 33.89, 80.57 33.89, 8.47 33.89 M139.4 33.89 C93.81 33.89, 48.23 33.89, 8.47 33.89 M8.47 33.89 C2.82 33.89, 0 31.06, 0 25.41 M8.47 33.89 C2.82 33.89, 0 31.06, 0 25.41 M0 25.41 C0 20.58, 0 15.75, 0 8.47 M0 25.41 C0 19.12, 0 12.82, 0 8.47 M0 8.47 C0 2.82, 2.82 0, 8.47 0 M0 8.47 C0 2.82, 2.82 0, 8.47 0" stroke="white" stroke-width="2" fill="none"></path></g></g><g clip-path="url(#vQAET0YtNKRJw0YsXxpUn)"><g transform="translate(1582.2529541501594 1425.151418580781) rotate(0 39.13671875 9.200000000000045)"><text x="39.13671875" y="0" font-family="Helvetica, Segoe UI Emoji" font-size="16px" fill="white" text-anchor="middle" style="white-space: pre;" direction="ltr" dominant-baseline="text-before-edge">Auswählen</text></g></g><g clip-path="url(#vQAET0YtNKRJw0YsXxpUn)"><g transform="translate(763.1413095962611 1218.604058962464) rotate(0 300.654296875 11.5)"><text x="0" y="0" font-family="Helvetica, Segoe UI Emoji" font-size="20px" fill="#1e1e1e" text-anchor="start" style="white-space: pre;" direction="ltr" dominant-baseline="text-before-edge">Name                  Tarif                 Laufzeit                       Preisgarantie</text></g></g><g clip-path="url(#vQAET0YtNKRJw0YsXxpUn)"><g transform="translate(780.9146234981135 1496.513841123805) rotate(0 462.68554687500006 11.5)"><text x="0" y="0" font-family="Helvetica, Segoe UI Emoji" font-size="20px" fill="#1e1e1e" text-anchor="start" style="white-space: pre;" direction="ltr" dominant-baseline="text-before-edge">Ich habe einen externen Stromanbieter und möchte keinen Strom der Stadtwerke Bad Walden beziehen.</text></g></g><g clip-path="url(#vQAET0YtNKRJw0YsXxpUn)"><g stroke-linecap="round" transform="translate(743.2742370263862 1495.1821019486065) rotate(0 11.871394654599783 10.625033908420164)"><path d="M0 0 C8.39 -0.24, 15.26 -0.03, 23.74 0 M0 0 C8.83 0.15, 16.7 -0.36, 23.74 0 M23.74 0 C23.15 6.04, 23 11.66, 23.74 21.25 M23.74 0 C23.78 4.79, 23.56 10.51, 23.74 21.25 M23.74 21.25 C15.12 20.75, 5.83 20.32, 0 21.25 M23.74 21.25 C15.6 21.03, 6.95 20.99, 0 21.25 M0 21.25 C0.5 13.19, 0.63 5.84, 0 0 M0 21.25 C0.31 15.24, 0.42 8.75, 0 0" stroke="#000000" stroke-width="1" fill="none"></path></g></g><g transform="translate(558.660208890446 910.4243577803868) rotate(0 95.97687530517578 8.75)"><text x="0" y="0" font-family="Assistant, Segoe UI Emoji" font-size="14px" fill="#999999" text-anchor="start" style="white-space: pre;" direction="ltr" dominant-baseline="text-before-edge">Home Page - Signup Popup (2.21)</text></g><rect transform="translate(558.660208890446 930.9243577803868) rotate(0 698.1601562499998 415.9570312500002)" width="1396.3203124999998px" height="831.9140625000002px" rx="8" ry="8" fill="none" stroke="#bbb" stroke-width="2"></rect><g stroke-linecap="round"><g transform="translate(1710.626137586953 459.83890789580164) rotate(0 159.43990023266156 241.86288549435176)"><path d="M0 0 C53.15 30.01, 277.29 99.45, 318.88 180.07 C360.47 260.69, 261.08 433.12, 249.52 483.73" stroke="#e03131" stroke-width="4.5" fill="none" stroke-dasharray="8 12"></path></g><g transform="translate(1710.626137586953 459.83890789580164) rotate(0 159.43990023266156 241.86288549435176)"><path d="M250.06 453.73 C249.88 463.99, 249.69 474.25, 249.52 483.73" stroke="#e03131" stroke-width="4.5" fill="none"></path></g><g transform="translate(1710.626137586953 459.83890789580164) rotate(0 159.43990023266156 241.86288549435176)"><path d="M269.22 461.09 C262.48 468.84, 255.74 476.58, 249.52 483.73" stroke="#e03131" stroke-width="4.5" fill="none"></path></g></g><mask></mask><g stroke-linecap="round"><g transform="translate(10.152054335500338 291.4202873329525) rotate(0 195.85879491336007 90.59101883589528)" fill-rule="evenodd"><path d="M1.73 0.53 L1.75 176.24 L392.56 180.67 L391.51 38.76 L344.17 -0.11 L-0.23 -1.07" stroke="none" stroke-width="0" fill="#fff" fill-rule="evenodd"></path><path d="M0 0 C-0.55 67.53, 0.63 136.44, 0 178.15 M0 0 C-0.49 57.3, 0.77 115.28, 0 178.15 M0 178.15 C104.35 180.65, 210.37 182.32, 391.72 181.18 M0 178.15 C123.4 180.05, 247.75 180.16, 391.72 181.18 M391.72 181.18 C389.95 143.88, 391.35 108.26, 390.71 40.49 M391.72 181.18 C393.54 147.83, 391.74 114.38, 390.71 40.49 M390.71 40.49 C375.03 29.45, 364.44 18.19, 343.13 1.1 M390.71 40.49 C377.09 29.46, 363.26 17.29, 343.13 1.1 M343.13 1.1 C270.92 0.25, 195.55 0.92, 0 0 M343.13 1.1 C206.46 -0.47, 69.06 -1.58, 0 0 M0 0 C0 0, 0 0, 0 0 M0 0 C0 0, 0 0, 0 0" stroke="#1e1e1e" stroke-width="1" fill="none"></path></g></g><mask></mask><g transform="translate(20.635326257774864 306.2864240633719) rotate(0 163.72483825683594 30.188651509266606)"><text x="0" y="0" font-family="Virgil, Segoe UI Emoji" font-size="24.150921207413287px" fill="#1e1e1e" text-anchor="start" style="white-space: pre;" direction="ltr" dominant-baseline="text-before-edge">Fetched From DB of active</text><text x="0" y="30.18865150926662" font-family="Virgil, Segoe UI Emoji" font-size="24.150921207413287px" fill="#1e1e1e" text-anchor="start" style="white-space: pre;" direction="ltr" dominant-baseline="text-before-edge">Contracts</text></g><g stroke-linecap="round"><g transform="translate(352.2802613011812 291.88805754952796) rotate(0 24.86865837007886 22.12889092252783)" fill-rule="evenodd"><path d="M0.88 0.33 L0.8 44.87 L48.64 43.55 L49.77 38.44 L-0.35 0.65" stroke="none" stroke-width="0" fill="#868e96" fill-rule="evenodd"></path><path d="M0 0 C0.17 13.33, 0.02 26.2, 0 44.26 M0 0 C0.02 12.34, -0.24 24.16, 0 44.26 M0 44.26 C13.93 43.19, 27.31 42.97, 48.89 43.84 M0 44.26 C18.24 44.72, 37.02 44.05, 48.89 43.84 M48.89 43.84 C48.92 42.21, 49.51 41.29, 49.74 38.36 M48.89 43.84 C49.14 42.23, 49.36 40.47, 49.74 38.36 M49.74 38.36 C33.4 26.09, 17.93 13.8, 0 0 M49.74 38.36 C33.59 26.05, 18.42 14.49, 0 0 M0 0 C0 0, 0 0, 0 0 M0 0 C0 0, 0 0, 0 0" stroke="#1e1e1e" stroke-width="1" fill="none"></path></g></g><mask></mask><g stroke-linecap="round"><g transform="translate(414.1050927786723 415.75770237361394) rotate(0 167.5955527819953 -8.724777506568671)"><path d="M0 0 C55.87 -2.91, 279.33 -14.54, 335.19 -17.45" stroke="#f08c00" stroke-width="4.5" fill="none" stroke-dasharray="8 12"></path></g></g><mask></mask><g stroke-linecap="round"><g transform="translate(2005.1825664071216 43.27037067958554) rotate(0 190.51077799449297 88.11738827135468)" fill-rule="evenodd"><path d="M0.32 0.18 L1.01 173.62 L381.55 175.92 L379.5 39.05 L335.14 0.48 L1.99 1.57" stroke="none" stroke-width="0" fill="#fff" fill-rule="evenodd"></path><path d="M0 0 C1.26 64.43, 2.17 126.03, 0 173.28 M0 0 C0.79 38.05, 1.27 77.03, 0 173.28 M0 173.28 C117.33 176.18, 237.09 176.52, 381.02 176.23 M0 173.28 C142.99 175.97, 287.29 177.08, 381.02 176.23 M381.02 176.23 C380.39 125.46, 381.62 74.75, 380.04 39.38 M381.02 176.23 C379.31 122.99, 378.69 72.31, 380.04 39.38 M380.04 39.38 C363.54 24.03, 348.09 10.87, 333.76 1.07 M380.04 39.38 C367.01 27.9, 352.29 16.98, 333.76 1.07 M333.76 1.07 C219.36 0.45, 102.5 0.06, 0 0 M333.76 1.07 C227.57 1.39, 122.89 1.11, 0 0 M0 0 C0 0, 0 0, 0 0 M0 0 C0 0, 0 0, 0 0" stroke="#e03131" stroke-width="1" fill="none"></path></g></g><mask></mask><g transform="translate(2014.8547537167265 59.20740761476782) rotate(0 155.9549560546875 34.6875)"><text x="0" y="0" font-family="Virgil, Segoe UI Emoji" font-size="27.749999999999986px" fill="#e03131" text-anchor="start" style="white-space: pre;" direction="ltr" dominant-baseline="text-before-edge">If every field is filled </text><text x="0" y="34.68749999999999" font-family="Virgil, Segoe UI Emoji" font-size="27.749999999999986px" fill="#e03131" text-anchor="start" style="white-space: pre;" direction="ltr" dominant-baseline="text-before-edge">out valid.</text></g><g stroke-linecap="round"><g transform="translate(2337.9688010601294 43.72536820942241) rotate(0 24.189607905321623 21.524651102193047)" fill-rule="evenodd"><path d="M0.02 -0.55 L-0.49 43.23 L47.92 42.52 L47.73 36.94 L0.82 -0.17" stroke="none" stroke-width="0" fill="#e03131" fill-rule="evenodd"></path><path d="M0 0 C-0.62 15.78, 1.06 29.85, 0 43.05 M0 0 C0.08 11.66, -0.23 23.74, 0 43.05 M0 43.05 C18.37 42.11, 34.75 42.04, 47.56 42.64 M0 43.05 C18.61 42.44, 36.92 42.29, 47.56 42.64 M47.56 42.64 C47.99 41.37, 47.84 39.64, 48.38 37.31 M47.56 42.64 C47.84 41.61, 47.93 40.45, 48.38 37.31 M48.38 37.31 C37.21 29.29, 25.71 21.2, 0 0 M48.38 37.31 C33.45 26.09, 18.04 14.51, 0 0 M0 0 C0 0, 0 0, 0 0 M0 0 C0 0, 0 0, 0 0" stroke="#fa5252" stroke-width="1" fill="none"></path></g></g><mask></mask><g clip-path="url(#Ykx0XtgFmpyj1DO0HxsRw)"><g stroke-linecap="round" transform="translate(2110.9076000048835 993.7847234609467) rotate(0 640 360)"><path d="M0 0 C294.92 0, 589.84 0, 1280 0 M0 0 C328.71 0, 657.42 0, 1280 0 M1280 0 C1280 188.81, 1280 377.62, 1280 720 M1280 0 C1280 233.55, 1280 467.11, 1280 720 M1280 720 C865.2 720, 450.4 720, 0 720 M1280 720 C840.78 720, 401.55 720, 0 720 M0 720 C0 570.14, 0 420.28, 0 0 M0 720 C0 445.3, 0 170.59, 0 0" stroke="#ced4da" stroke-width="4" fill="none"></path></g></g><g clip-path="url(#Ykx0XtgFmpyj1DO0HxsRw)"><g stroke-linecap="round"><g transform="translate(2387.666874259109 993.3358511976048) rotate(0 0.67626953125 360.6884765625)"><path d="M0.11 1.09 C0.07 121.3, 0.23 600.87, 0.55 720.86 M-1.3 0.61 C-1.01 121.02, 2.35 601.88, 2.85 722.12" stroke="#bbb" stroke-width="2" fill="none"></path></g></g><mask></mask></g><g clip-path="url(#Ykx0XtgFmpyj1DO0HxsRw)"><g transform="translate(2415.607019616825 1027.3426562687619) rotate(0 331.6583251953125 110.68798828125)"><text x="0" y="0" font-family="Helvetica, Segoe UI Emoji" font-size="96.25042459239128px" fill="#1e1e1e" text-anchor="start" style="white-space: pre;" direction="ltr" dominant-baseline="text-before-edge">Willkommen </text><text x="0" y="110.68798828124997" font-family="Helvetica, Segoe UI Emoji" font-size="96.25042459239128px" fill="#1e1e1e" text-anchor="start" style="white-space: pre;" direction="ltr" dominant-baseline="text-before-edge">Herr Paul Peter</text></g></g><g clip-path="url(#Ykx0XtgFmpyj1DO0HxsRw)"><g stroke-linecap="round" transform="translate(2438.093501827988 1292.0659952674755) rotate(0 452.2260940188414 191.05643458574332)"><path d="M0 0 C210.94 -2.72, 422.31 -2.35, 904.45 0 M0 0 C219.76 -3.21, 439.72 -3.35, 904.45 0 M904.45 0 C905.65 138.65, 904.22 278.35, 904.45 382.11 M904.45 0 C904.9 150.85, 905.49 301.48, 904.45 382.11 M904.45 382.11 C690.19 380.55, 476.31 380.05, 0 382.11 M904.45 382.11 C551.46 385.27, 197.48 385.41, 0 382.11 M0 382.11 C-2.33 298.51, -1.17 216.94, 0 0 M0 382.11 C1.66 287.07, 1.72 191.49, 0 0" stroke="#000000" stroke-width="1" fill="none"></path></g></g><g clip-path="url(#Ykx0XtgFmpyj1DO0HxsRw)"><g stroke-linecap="round" transform="translate(2527.7610543211986 1367.5192376950217) rotate(0 44.54548100742841 44.54548100742841)"><path d="M57.66 2.87 C64.97 4.83, 73.88 10.96, 78.9 17.01 C83.93 23.07, 86.75 31.51, 87.8 39.19 C88.84 46.87, 88.4 55.93, 85.17 63.11 C81.93 70.3, 75.43 77.96, 68.37 82.3 C61.3 86.64, 51 89.12, 42.77 89.15 C34.54 89.18, 25.39 86.88, 18.97 82.46 C12.56 78.04, 7.24 70.28, 4.27 62.63 C1.3 54.97, -0.07 44.6, 1.15 36.52 C2.37 28.43, 6.17 19.94, 11.57 14.12 C16.97 8.29, 24.41 3.08, 33.55 1.58 C42.7 0.08, 59.86 3.57, 66.42 5.12 C72.98 6.67, 73.26 10.27, 72.91 10.9 M42.5 -0.37 C50.34 -1.33, 60.23 1.42, 66.98 5.35 C73.73 9.27, 79.59 16.21, 83.02 23.18 C86.44 30.15, 88.24 39.35, 87.55 47.16 C86.86 54.97, 83.54 63.63, 78.87 70.04 C74.19 76.44, 66.61 82.37, 59.51 85.6 C52.42 88.82, 44.28 90.81, 36.3 89.39 C28.33 87.97, 17.72 82.82, 11.67 77.1 C5.63 71.38, 1.33 62.93, 0.06 55.08 C-1.22 47.23, 1.21 37.85, 4.05 30 C6.89 22.16, 10.93 12.83, 17.1 7.99 C23.27 3.15, 37.22 2.21, 41.07 0.95 C44.93 -0.31, 40.19 -0.14, 40.22 0.42" stroke="none" stroke-width="0" fill="black"></path><path d="M41.45 -0.44 C49.15 -1.81, 58.56 0.39, 65.52 4.31 C72.49 8.24, 79.28 15.9, 83.24 23.1 C87.2 30.3, 89.61 39.64, 89.27 47.5 C88.94 55.35, 86.08 63.78, 81.24 70.23 C76.41 76.68, 67.64 83.16, 60.24 86.2 C52.84 89.25, 44.71 90.11, 36.86 88.49 C29.01 86.86, 19.12 81.93, 13.14 76.46 C7.15 70.99, 2.87 63.54, 0.94 55.65 C-0.98 47.77, -1.17 36.92, 1.61 29.14 C4.39 21.36, 10.51 13.82, 17.61 8.97 C24.71 4.11, 39.07 1.44, 44.18 0.01 C49.29 -1.43, 48.11 -0.21, 48.25 0.38 M62.9 4.56 C69.62 7.65, 76.82 15.96, 81.43 22.74 C86.04 29.51, 90.72 37.23, 90.56 45.19 C90.4 53.16, 85.11 63.93, 80.47 70.53 C75.83 77.13, 70.16 81.92, 62.73 84.81 C55.3 87.69, 43.94 88.95, 35.88 87.83 C27.83 86.71, 20.13 83.41, 14.42 78.11 C8.7 72.8, 3.48 64.02, 1.61 56 C-0.27 47.97, 0.72 37.42, 3.16 29.95 C5.61 22.49, 10.21 16.1, 16.3 11.22 C22.39 6.34, 31.52 1.77, 39.69 0.66 C47.86 -0.46, 61.47 3.52, 65.3 4.53 C69.13 5.53, 62.98 5.87, 62.69 6.68" stroke="#000000" stroke-width="1" fill="none"></path></g></g><g clip-path="url(#Ykx0XtgFmpyj1DO0HxsRw)"><g stroke-linecap="round"><g transform="translate(2455.797971541043 1646.3587534039898) rotate(0 422.5299750583945 -115.09160397470305)" fill-rule="evenodd"><path d="M0.77 1.12 L291.69 -166.61 L430.09 -104.53 L664.67 -240.34 L844.12 10.72 L-0.92 0.71" stroke="none" stroke-width="0" fill="black" fill-rule="evenodd"></path><path d="M0 0 C68.5 -39.48, 139.65 -79.13, 293.31 -166.81 M0 0 C100.2 -56.13, 199.13 -112.2, 293.31 -166.81 M293.31 -166.81 C331.67 -150.37, 365.6 -134.94, 431.27 -105.93 M293.31 -166.81 C330.95 -148.45, 368.92 -132.15, 431.27 -105.93 M431.27 -105.93 C502.14 -146.77, 572.25 -184.59, 664.63 -240.88 M431.27 -105.93 C492.91 -140.81, 555.74 -177.26, 664.63 -240.88 M664.63 -240.88 C708.69 -181.64, 752.58 -119.63, 845.06 10.7 M664.63 -240.88 C728.06 -153.82, 790.37 -65.3, 845.06 10.7 M845.06 10.7 C576.98 9.28, 309.64 7.18, 0 0 M845.06 10.7 C541.79 8.46, 237.84 4.11, 0 0 M0 0 C0 0, 0 0, 0 0 M0 0 C0 0, 0 0, 0 0" stroke="#000000" stroke-width="1" fill="none"></path></g></g><mask></mask></g><g clip-path="url(#Ykx0XtgFmpyj1DO0HxsRw)"><g stroke-linecap="round" transform="translate(2388.009047725015 994.0963669967232) rotate(0 503.00695269974335 360.0109060460611)"><path d="M0 0 C284.36 1.02, 567.54 0.93, 1006.01 0 M1006.01 0 C1008.35 217.24, 1007.59 433.09, 1006.01 720.02 M1006.01 720.02 C681.28 720.85, 357.15 721.64, 0 720.02 M0 720.02 C1.47 569.7, 1.82 419.77, 0 0" stroke="#bbb" stroke-width="2.5" fill="none" stroke-dasharray="1.5 8"></path></g></g><g clip-path="url(#Ykx0XtgFmpyj1DO0HxsRw)"><g transform="translate(2086.1417556646115 1337.169601396387) rotate(270.23675559051935 161.49594116210938 22.5)"><text x="0" y="0" font-family="Virgil, Segoe UI Emoji" font-size="36px" fill="#f08c00" text-anchor="start" style="white-space: pre;" direction="ltr" dominant-baseline="text-before-edge">Sidebar Component</text></g></g><g clip-path="url(#Ykx0XtgFmpyj1DO0HxsRw)"><g stroke-opacity="0.5" fill-opacity="0.5" stroke-linecap="round" transform="translate(2113.709273456582 996.2856967036387) rotate(0 640 360)"><path d="M0 0 L1280 0 L1280 720 L0 720" stroke="none" stroke-width="0" fill="black"></path><path d="M0 0 C304.09 0, 608.18 0, 1280 0 M0 0 C452.98 0, 905.96 0, 1280 0 M1280 0 C1280 203.47, 1280 406.93, 1280 720 M1280 0 C1280 220.88, 1280 441.75, 1280 720 M1280 720 C791.66 720, 303.32 720, 0 720 M1280 720 C946.21 720, 612.43 720, 0 720 M0 720 C0 505.67, 0 291.35, 0 0 M0 720 C0 449.48, 0 178.95, 0 0" stroke="#ced4da" stroke-width="4" fill="none"></path></g></g><g clip-path="url(#Ykx0XtgFmpyj1DO0HxsRw)"><g stroke-linecap="round" transform="translate(2211.6338996156246 1097.157761813668) rotate(0 540.8154087791804 251.431273963095)"><path d="M1.91 0.72 L1082.85 1.97 L1080.41 502.29 L1.62 503.1" stroke="none" stroke-width="0" fill="white"></path><path d="M0 0 C245.02 -2.27, 490.07 -3.03, 1081.63 0 M0 0 C252.75 -4.32, 505.24 -4.22, 1081.63 0 M1081.63 0 C1080.14 191.51, 1079.85 383.72, 1081.63 502.86 M1081.63 0 C1080.01 182.07, 1080.7 363.27, 1081.63 502.86 M1081.63 502.86 C848.95 500.06, 614.65 498.81, 0 502.86 M1081.63 502.86 C694.18 500.51, 307.31 500.87, 0 502.86 M0 502.86 C-0.58 347.48, 0.48 192.27, 0 0 M0 502.86 C-1.81 340.13, -1.16 176.93, 0 0" stroke="#000000" stroke-width="1" fill="none"></path></g></g><g clip-path="url(#Ykx0XtgFmpyj1DO0HxsRw)"><g transform="translate(2239.7060844962884 1120.193723262113) rotate(0 172.1337890625 20.700000000000045)"><text x="0" y="0" font-family="Helvetica, Segoe UI Emoji" font-size="36px" fill="#000000" text-anchor="start" style="white-space: pre;" direction="ltr" dominant-baseline="text-before-edge">Neukundenaufnahme</text></g></g><g clip-path="url(#Ykx0XtgFmpyj1DO0HxsRw)"><g transform="translate(2238.8571538962574 1177.4410531561384) rotate(0 204.6474609375 16.09999999999991)"><text x="0" y="0" font-family="Helvetica, Segoe UI Emoji" font-size="28px" fill="#1e1e1e" text-anchor="start" style="white-space: pre;" direction="ltr" dominant-baseline="text-before-edge">Bitte wählen Sie Ihren Stromtarif.</text></g></g><g clip-path="url(#Ykx0XtgFmpyj1DO0HxsRw)"><g transform="translate(2277.1414422111693 1496.9785531344646) rotate(0 462.685546875 11.5)"><text x="0" y="0" font-family="Helvetica, Segoe UI Emoji" font-size="20px" fill="#1e1e1e" text-anchor="start" style="white-space: pre;" direction="ltr" dominant-baseline="text-before-edge">Ich habe einen externen Stromanbieter und möchte keinen Strom der Stadtwerke Bad Walden beziehen.</text></g></g><g clip-path="url(#Ykx0XtgFmpyj1DO0HxsRw)"><g stroke-linecap="round" transform="translate(2258.590895286533 1407.0067284545935) rotate(0 473.1557214259576 27.62105468575578)"><path d="M13.81 0 C209.92 3.54, 408.69 1.02, 932.5 0 C944.39 -2.27, 949.07 7.5, 946.31 13.81 C945.12 26.16, 942.94 33.07, 946.31 41.43 C945.2 50, 944.09 51.8, 932.5 55.24 C646.75 50.38, 362.06 50.39, 13.81 55.24 C4.31 57.56, -1.92 52.68, 0 41.43 C3.17 32.11, -2.98 30.19, 0 13.81 C-0.03 3.41, 1.74 1.08, 13.81 0" stroke="none" stroke-width="0" fill="#fff"></path><path d="M13.81 0 C272.7 -3.5, 533.39 -3.34, 932.5 0 M13.81 0 C295.39 -1.89, 577.1 -1.89, 932.5 0 M932.5 0 C943.34 -0.74, 944.63 4.61, 946.31 13.81 M932.5 0 C939.8 1.88, 948.59 3.7, 946.31 13.81 M946.31 13.81 C945.46 19.04, 945.65 27.16, 946.31 41.43 M946.31 13.81 C947 22.85, 946.32 33.79, 946.31 41.43 M946.31 41.43 C946.66 51.12, 943.22 55.21, 932.5 55.24 M946.31 41.43 C944.65 52.68, 943.77 56.6, 932.5 55.24 M932.5 55.24 C569.77 57, 205.23 58.14, 13.81 55.24 M932.5 55.24 C646.15 51.91, 359.43 51.91, 13.81 55.24 M13.81 55.24 C4.21 53.46, 0.14 49.14, 0 41.43 M13.81 55.24 C6.73 56.64, 0.89 51.93, 0 41.43 M0 41.43 C1.38 35.42, 0.52 28.39, 0 13.81 M0 41.43 C-0.51 32.98, -0.29 23.92, 0 13.81 M0 13.81 C1.4 3.96, 5.95 -0.19, 13.81 0 M0 13.81 C-1.02 4.46, 2.42 -1, 13.81 0" stroke="#1e1e1e" stroke-width="2" fill="none"></path></g></g><g clip-path="url(#Ykx0XtgFmpyj1DO0HxsRw)"><g transform="translate(2263.590895286533 1423.1277831403495) rotate(0 285.68359375 11.5)"><text x="0" y="0" font-family="Helvetica, Segoe UI Emoji" font-size="20px" fill="#1e1e1e" text-anchor="start" style="white-space: pre;" direction="ltr" dominant-baseline="text-before-edge">  Tarif3                 1.33€              36 Monate                  12 Monate</text></g></g><g clip-path="url(#Ykx0XtgFmpyj1DO0HxsRw)"><g stroke-linecap="round" transform="translate(2238.870769133575 1249.8548839808054) rotate(359.9296265924723 515.8420183976855 120.03262627291747)"><path d="M0 0 C244.52 1.78, 489.42 1.28, 1031.68 0 M0 0 C403.35 -3.91, 805.71 -3.76, 1031.68 0 M1031.68 0 C1032.66 51.13, 1034.28 105.08, 1031.68 240.07 M1031.68 0 C1030.2 60.29, 1030.29 119.84, 1031.68 240.07 M1031.68 240.07 C654.36 240.15, 276.03 240.61, 0 240.07 M1031.68 240.07 C724.41 243.96, 416.81 243.87, 0 240.07 M0 240.07 C-2.45 154.73, -1.78 68.29, 0 0 M0 240.07 C-0.83 191.48, -0.37 141.34, 0 0" stroke="#000000" stroke-width="1" fill="none"></path></g></g><g clip-path="url(#Ykx0XtgFmpyj1DO0HxsRw)"><g stroke-linecap="round" transform="translate(3221.690117626506 1265.4670442165675) rotate(359.9296265924723 15.440900993374726 103.3042967389606)"><path d="M0 0 C9.16 -1.25, 17.68 -1.84, 30.88 0 M0 0 C11.24 0.12, 23.33 0.93, 30.88 0 M30.88 0 C31.19 83.4, 29.26 163.58, 30.88 206.61 M30.88 0 C30.92 53.58, 31.43 106.53, 30.88 206.61 M30.88 206.61 C22.15 208.17, 12.4 205.22, 0 206.61 M30.88 206.61 C19.84 207.15, 7.49 207.78, 0 206.61 M0 206.61 C0.74 158.93, -1.18 108.01, 0 0 M0 206.61 C1.19 133.96, 1.42 62.22, 0 0" stroke="#000000" stroke-width="1" fill="none"></path></g></g><g clip-path="url(#Ykx0XtgFmpyj1DO0HxsRw)"><g stroke-linecap="round" transform="translate(3230.3300831142774 1270.3623730176218) rotate(359.9296265924723 9.457430284254315 81.77208864368254)"><path d="M0.39 0.56 L18.11 0.1 L18.32 164.25 L0.02 163.82" stroke="none" stroke-width="0" fill="black"></path><path d="M0 0 C6.54 -0.81, 12.23 0.83, 18.91 0 M0 0 C4.58 0.39, 10.42 -0.19, 18.91 0 M18.91 0 C18.88 38.92, 18.98 79.28, 18.91 163.54 M18.91 0 C19.32 56.63, 18.98 114.22, 18.91 163.54 M18.91 163.54 C12.9 162.93, 7.75 164.46, 0 163.54 M18.91 163.54 C12.41 164.04, 5.04 163.44, 0 163.54 M0 163.54 C-1.06 101.32, 0.38 38.15, 0 0 M0 163.54 C0.19 106.08, 0.62 49.67, 0 0" stroke="#000000" stroke-width="1" fill="none"></path></g></g><g clip-path="url(#Ykx0XtgFmpyj1DO0HxsRw)"><g stroke-linecap="round" transform="translate(2257.099119026547 1262.914822483368) rotate(0 477.0198478434861 27.62105468575578)"><path d="M13.81 0 C365.58 3.3, 719.76 2.42, 940.23 0 C948.05 -1.11, 953.4 6.99, 954.04 13.81 C952.12 17.76, 950.97 24.39, 954.04 41.43 C950.95 50.34, 951.76 53.32, 940.23 55.24 C610.31 51, 277.69 48.54, 13.81 55.24 C4.97 55.21, -1.19 47.78, 0 41.43 C0.74 34.04, 1.38 20.75, 0 13.81 C-1 6.83, 1.88 -1.69, 13.81 0" stroke="none" stroke-width="0" fill="#fff"></path><path d="M13.81 0 C234.59 4.06, 453.62 2.73, 940.23 0 M13.81 0 C292.42 -3.18, 570.01 -2.79, 940.23 0 M940.23 0 C950.52 -1.01, 952.57 3.78, 954.04 13.81 M940.23 0 C949.38 1.1, 954.25 4.75, 954.04 13.81 M954.04 13.81 C955.4 24.27, 954.37 35.55, 954.04 41.43 M954.04 13.81 C954.73 22.64, 954.8 30.64, 954.04 41.43 M954.04 41.43 C955.26 52.61, 948.22 54.67, 940.23 55.24 M954.04 41.43 C955.9 50.91, 951.65 53.04, 940.23 55.24 M940.23 55.24 C653.06 52.34, 364.4 52.55, 13.81 55.24 M940.23 55.24 C731.79 57.71, 522.72 57.53, 13.81 55.24 M13.81 55.24 C3.42 56.65, 0.04 51.18, 0 41.43 M13.81 55.24 C3.52 55.27, -1.05 51.45, 0 41.43 M0 41.43 C-1.71 36.31, -0.6 29.75, 0 13.81 M0 41.43 C-0.82 32.97, -0.73 24.54, 0 13.81 M0 13.81 C-0.69 3.65, 6.35 1.78, 13.81 0 M0 13.81 C-2.01 6.32, 3.16 1.76, 13.81 0" stroke="#1e1e1e" stroke-width="2" fill="none"></path></g></g><g clip-path="url(#Ykx0XtgFmpyj1DO0HxsRw)"><g transform="translate(2262.099119026547 1279.035877169124) rotate(0 285.68359375 11.5)"><text x="0" y="0" font-family="Helvetica, Segoe UI Emoji" font-size="20px" fill="#1e1e1e" text-anchor="start" style="white-space: pre;" direction="ltr" dominant-baseline="text-before-edge">  Tarif1                 3.33€              12 Monate                  12 Monate</text></g></g><g clip-path="url(#Ykx0XtgFmpyj1DO0HxsRw)"><g stroke-linecap="round" transform="translate(2257.4151253566956 1338.5119726414446) rotate(0 475.4251245300868 27.62105468575578)"><path d="M13.81 0 C266.63 5.28, 520.31 6.68, 937.04 0 C942.8 0.37, 949.66 2.63, 950.85 13.81 C947.33 20.5, 952.74 25.86, 950.85 41.43 C952.9 47.4, 943.36 56.87, 937.04 55.24 C589.12 48.99, 240.43 47.86, 13.81 55.24 C5.68 57.68, 0.26 51.72, 0 41.43 C-1.24 34.05, -2.96 20.53, 0 13.81 C1.98 5.49, 4.72 3.2, 13.81 0" stroke="none" stroke-width="0" fill="#fff"></path><path d="M13.81 0 C366.04 2.45, 718.91 3.9, 937.04 0 M13.81 0 C254.78 -2.34, 495.02 -2.3, 937.04 0 M937.04 0 C946.2 0.96, 951.03 4.73, 950.85 13.81 M937.04 0 C947.77 -1.32, 950.82 6.35, 950.85 13.81 M950.85 13.81 C950.88 21.13, 952.69 33.12, 950.85 41.43 M950.85 13.81 C951.73 24.72, 950.51 33.36, 950.85 41.43 M950.85 41.43 C952.47 50.87, 948.17 53.32, 937.04 55.24 M950.85 41.43 C951.09 51.74, 944.54 56.37, 937.04 55.24 M937.04 55.24 C677.6 56.24, 419.84 55.81, 13.81 55.24 M937.04 55.24 C608.02 55.89, 279.48 55.72, 13.81 55.24 M13.81 55.24 C3.67 55.26, -0.92 51.35, 0 41.43 M13.81 55.24 C3.13 54.92, -0.96 48.62, 0 41.43 M0 41.43 C-0.1 30.33, -0.04 19.11, 0 13.81 M0 41.43 C-0.11 33.87, 1.11 28.15, 0 13.81 M0 13.81 C-1.75 6.09, 3.34 1.53, 13.81 0 M0 13.81 C1.85 6.3, 3.34 -1.29, 13.81 0" stroke="#1e1e1e" stroke-width="2" fill="none"></path></g></g><g clip-path="url(#Ykx0XtgFmpyj1DO0HxsRw)"><g transform="translate(2262.4151253566956 1354.6330273272006) rotate(0 285.68359375 11.5)"><text x="0" y="0" font-family="Helvetica, Segoe UI Emoji" font-size="20px" fill="#1e1e1e" text-anchor="start" style="white-space: pre;" direction="ltr" dominant-baseline="text-before-edge">  Tarif2                 2.33€              24 Monate                  12 Monate</text></g></g><g clip-path="url(#Ykx0XtgFmpyj1DO0HxsRw)"><g stroke-linecap="round" transform="translate(3048.16483737144 1272.1024390471198) rotate(0 73.93466188158709 16.942610235379107)"><path d="M8.47 0 C43.72 0, 78.97 0, 139.4 0 C145.05 0, 147.87 2.82, 147.87 8.47 C147.87 13.41, 147.87 18.36, 147.87 25.41 C147.87 31.06, 145.05 33.89, 139.4 33.89 C100.24 33.89, 61.08 33.89, 8.47 33.89 C2.82 33.89, 0 31.06, 0 25.41 C0 19.28, 0 13.15, 0 8.47 C0 2.82, 2.82 0, 8.47 0" stroke="none" stroke-width="0" fill="black"></path><path d="M8.47 0 C36.88 0, 65.29 0, 139.4 0 M8.47 0 C41.14 0, 73.8 0, 139.4 0 M139.4 0 C145.05 0, 147.87 2.82, 147.87 8.47 M139.4 0 C145.05 0, 147.87 2.82, 147.87 8.47 M147.87 8.47 C147.87 12.33, 147.87 16.19, 147.87 25.41 M147.87 8.47 C147.87 15.23, 147.87 21.98, 147.87 25.41 M147.87 25.41 C147.87 31.06, 145.05 33.89, 139.4 33.89 M147.87 25.41 C147.87 31.06, 145.05 33.89, 139.4 33.89 M139.4 33.89 C87.99 33.89, 36.59 33.89, 8.47 33.89 M139.4 33.89 C90.9 33.89, 42.41 33.89, 8.47 33.89 M8.47 33.89 C2.82 33.89, 0 31.06, 0 25.41 M8.47 33.89 C2.82 33.89, 0 31.06, 0 25.41 M0 25.41 C0 21.09, 0 16.76, 0 8.47 M0 25.41 C0 21.14, 0 16.86, 0 8.47 M0 8.47 C0 2.82, 2.82 0, 8.47 0 M0 8.47 C0 2.82, 2.82 0, 8.47 0" stroke="white" stroke-width="2" fill="none"></path></g></g><g clip-path="url(#Ykx0XtgFmpyj1DO0HxsRw)"><g transform="translate(3082.9627805030273 1279.8450492824986) rotate(0 39.13671875 9.200000000000045)"><text x="39.13671875" y="0" font-family="Helvetica, Segoe UI Emoji" font-size="16px" fill="white" text-anchor="middle" style="white-space: pre;" direction="ltr" dominant-baseline="text-before-edge">Auswählen</text></g></g><g clip-path="url(#Ykx0XtgFmpyj1DO0HxsRw)"><g stroke-linecap="round" transform="translate(3047.5054933368497 1346.218179105555) rotate(0 73.93466188158709 16.942610235379107)"><path d="M8.47 0 C49.1 0, 89.73 0, 139.4 0 C145.05 0, 147.87 2.82, 147.87 8.47 C147.87 12.03, 147.87 15.59, 147.87 25.41 C147.87 31.06, 145.05 33.89, 139.4 33.89 C91.26 33.89, 43.12 33.89, 8.47 33.89 C2.82 33.89, 0 31.06, 0 25.41 C0 19.91, 0 14.42, 0 8.47 C0 2.82, 2.82 0, 8.47 0" stroke="none" stroke-width="0" fill="black"></path><path d="M8.47 0 C40.21 0, 71.96 0, 139.4 0 M8.47 0 C54.04 0, 99.6 0, 139.4 0 M139.4 0 C145.05 0, 147.87 2.82, 147.87 8.47 M139.4 0 C145.05 0, 147.87 2.82, 147.87 8.47 M147.87 8.47 C147.87 15.18, 147.87 21.88, 147.87 25.41 M147.87 8.47 C147.87 13.75, 147.87 19.03, 147.87 25.41 M147.87 25.41 C147.87 31.06, 145.05 33.89, 139.4 33.89 M147.87 25.41 C147.87 31.06, 145.05 33.89, 139.4 33.89 M139.4 33.89 C110.71 33.89, 82.02 33.89, 8.47 33.89 M139.4 33.89 C99.97 33.89, 60.55 33.89, 8.47 33.89 M8.47 33.89 C2.82 33.89, 0 31.06, 0 25.41 M8.47 33.89 C2.82 33.89, 0 31.06, 0 25.41 M0 25.41 C0 21.78, 0 18.16, 0 8.47 M0 25.41 C0 19.07, 0 12.73, 0 8.47 M0 8.47 C0 2.82, 2.82 0, 8.47 0 M0 8.47 C0 2.82, 2.82 0, 8.47 0" stroke="white" stroke-width="2" fill="none"></path></g></g><g clip-path="url(#Ykx0XtgFmpyj1DO0HxsRw)"><g transform="translate(3082.3034364684368 1353.9607893409338) rotate(0 39.13671875 9.200000000000045)"><text x="39.13671875" y="0" font-family="Helvetica, Segoe UI Emoji" font-size="16px" fill="white" text-anchor="middle" style="white-space: pre;" direction="ltr" dominant-baseline="text-before-edge">Auswählen</text></g></g><g clip-path="url(#Ykx0XtgFmpyj1DO0HxsRw)"><g stroke-linecap="round" transform="translate(3044.0755865598285 1418.6326738583034) rotate(0 73.93466188158709 16.942610235379107)"><path d="M8.47 0 C36.41 0, 64.34 0, 139.4 0 C145.05 0, 147.87 2.82, 147.87 8.47 C147.87 11.9, 147.87 15.33, 147.87 25.41 C147.87 31.06, 145.05 33.89, 139.4 33.89 C93.88 33.89, 48.36 33.89, 8.47 33.89 C2.82 33.89, 0 31.06, 0 25.41 C0 21.29, 0 17.17, 0 8.47 C0 2.82, 2.82 0, 8.47 0" stroke="none" stroke-width="0" fill="black"></path><path d="M8.47 0 C38.16 0, 67.84 0, 139.4 0 M8.47 0 C40.24 0, 72.01 0, 139.4 0 M139.4 0 C145.05 0, 147.87 2.82, 147.87 8.47 M139.4 0 C145.05 0, 147.87 2.82, 147.87 8.47 M147.87 8.47 C147.87 12.52, 147.87 16.57, 147.87 25.41 M147.87 8.47 C147.87 14.36, 147.87 20.26, 147.87 25.41 M147.87 25.41 C147.87 31.06, 145.05 33.89, 139.4 33.89 M147.87 25.41 C147.87 31.06, 145.05 33.89, 139.4 33.89 M139.4 33.89 C99.84 33.89, 60.29 33.89, 8.47 33.89 M139.4 33.89 C101.94 33.89, 64.48 33.89, 8.47 33.89 M8.47 33.89 C2.82 33.89, 0 31.06, 0 25.41 M8.47 33.89 C2.82 33.89, 0 31.06, 0 25.41 M0 25.41 C0 18.85, 0 12.28, 0 8.47 M0 25.41 C0 19.08, 0 12.75, 0 8.47 M0 8.47 C0 2.82, 2.82 0, 8.47 0 M0 8.47 C0 2.82, 2.82 0, 8.47 0" stroke="white" stroke-width="2" fill="none"></path></g></g><g clip-path="url(#Ykx0XtgFmpyj1DO0HxsRw)"><g transform="translate(3078.8735296914156 1426.3752840936822) rotate(0 39.13671875 9.200000000000045)"><text x="39.13671875" y="0" font-family="Helvetica, Segoe UI Emoji" font-size="16px" fill="white" text-anchor="middle" style="white-space: pre;" direction="ltr" dominant-baseline="text-before-edge">Auswählen</text></g></g><g clip-path="url(#Ykx0XtgFmpyj1DO0HxsRw)"><g transform="translate(2259.7618851375173 1219.8279244753653) rotate(0 300.654296875 11.5)"><text x="0" y="0" font-family="Helvetica, Segoe UI Emoji" font-size="20px" fill="#1e1e1e" text-anchor="start" style="white-space: pre;" direction="ltr" dominant-baseline="text-before-edge">Name                  Tarif                 Laufzeit                       Preisgarantie</text></g></g><g clip-path="url(#Ykx0XtgFmpyj1DO0HxsRw)"><g stroke-linecap="round" transform="translate(2239.771678551578 1495.1432315893248) rotate(0 11.871394654599726 10.625033908420164)"><path d="M0 0 C9.45 0.17, 17.64 0.76, 23.74 0 M0 0 C7.53 0.19, 14.64 0.07, 23.74 0 M23.74 0 C23.56 8.48, 23.96 16.31, 23.74 21.25 M23.74 0 C23.38 4.58, 23.66 8.23, 23.74 21.25 M23.74 21.25 C17.06 21.75, 9.73 20.55, 0 21.25 M23.74 21.25 C16.4 21.47, 8.79 21.34, 0 21.25 M0 21.25 C-0.18 15.43, -0.91 11.14, 0 0 M0 21.25 C-0.29 15.53, -0.55 9.65, 0 0" stroke="#000000" stroke-width="1" fill="none"></path></g></g><g clip-path="url(#Ykx0XtgFmpyj1DO0HxsRw)"><g stroke-linecap="round" transform="translate(2246.418330547154 1498.9681907751124) rotate(0 6.750013563368157 6.4583333333332575)"><path d="M3.23 0 C5.7 0.32, 7.45 0.65, 10.27 0 C11.53 -0.84, 13.89 1.76, 13.5 3.23 C13.41 5.91, 13.81 7.65, 13.5 9.69 C13.85 12.63, 12.27 14.24, 10.27 12.92 C8.3 12.21, 6.36 13.18, 3.23 12.92 C3.07 10.62, -0.49 10.31, 0 9.69 C0.13 7.78, 0.02 7.25, 0 3.23 C2.53 1.62, -0.64 2.16, 3.23 0" stroke="none" stroke-width="0" fill="black"></path><path d="M3.23 0 C6 -0.2, 8.63 0.31, 10.27 0 M3.23 0 C5.74 -0.11, 7.96 -0.02, 10.27 0 M10.27 0 C11.46 0.9, 13.28 1.19, 13.5 3.23 M10.27 0 C12.35 0.49, 12.56 2.03, 13.5 3.23 M13.5 3.23 C13.64 5.35, 13.18 6.97, 13.5 9.69 M13.5 3.23 C13.35 5.45, 13.34 7.84, 13.5 9.69 M13.5 9.69 C14.41 11.3, 12.6 12.76, 10.27 12.92 M13.5 9.69 C14.07 12.39, 12.82 12.52, 10.27 12.92 M10.27 12.92 C7.52 12.91, 4.37 12.91, 3.23 12.92 M10.27 12.92 C7.78 12.85, 5.42 12.87, 3.23 12.92 M3.23 12.92 C1.72 12.67, 0.06 11.31, 0 9.69 M3.23 12.92 C1.54 13.35, -0.44 11.79, 0 9.69 M0 9.69 C0.02 8.35, -0.26 6.74, 0 3.23 M0 9.69 C-0.15 7.36, 0.04 5.21, 0 3.23 M0 3.23 C-0.91 0.67, 0.98 -0.82, 3.23 0 M0 3.23 C-0.04 1.1, 1.47 -0.47, 3.23 0" stroke="#1e1e1e" stroke-width="2" fill="none"></path></g></g><g transform="translate(2055.280784431702 911.6482232932881) rotate(0 96.26387023925781 8.75)"><text x="0" y="0" font-family="Assistant, Segoe UI Emoji" font-size="14px" fill="#999999" text-anchor="start" style="white-space: pre;" direction="ltr" dominant-baseline="text-before-edge">Home Page - Signup Popup (2.22)</text></g><rect transform="translate(2055.280784431702 932.1482232932881) rotate(0 698.1601562499998 415.9570312500002)" width="1396.3203124999998px" height="831.9140625000002px" rx="8" ry="8" fill="none" stroke="#bbb" stroke-width="2"></rect><g stroke-linecap="round"><g transform="translate(756.9284972628726 634.3507624001722) rotate(0 649.0357987761032 147.3753646406733)"><path d="M0 0 C153.95 41.48, 707.33 199.75, 923.68 248.87 C1140.03 298, 1235.67 287.1, 1298.07 294.75" stroke="#e03131" stroke-width="4.5" fill="none" stroke-dasharray="8 12"></path></g><g transform="translate(756.9284972628726 634.3507624001722) rotate(0 649.0357987761032 147.3753646406733)"><path d="M1269.32 303.33 C1276.24 301.26, 1283.15 299.2, 1298.07 294.75" stroke="#e03131" stroke-width="4.5" fill="none"></path></g><g transform="translate(756.9284972628726 634.3507624001722) rotate(0 649.0357987761032 147.3753646406733)"><path d="M1270.54 282.84 C1277.16 285.7, 1283.78 288.57, 1298.07 294.75" stroke="#e03131" stroke-width="4.5" fill="none"></path></g></g><mask></mask><g stroke-linecap="round" transform="translate(3122.613738719269 1540.285225818378) rotate(0 70.17697409785023 20.178376299778392)"><path d="M10.09 0 C44.98 0, 79.88 0, 130.26 0 C136.99 0, 140.35 3.36, 140.35 10.09 C140.35 16.67, 140.35 23.26, 140.35 30.27 C140.35 36.99, 136.99 40.36, 130.26 40.36 C89.23 40.36, 48.2 40.36, 10.09 40.36 C3.36 40.36, 0 36.99, 0 30.27 C0 25.48, 0 20.7, 0 10.09 C0 3.36, 3.36 0, 10.09 0" stroke="none" stroke-width="0" fill="black"></path><path d="M10.09 0 C48.31 0, 86.54 0, 130.26 0 M10.09 0 C42.47 0, 74.86 0, 130.26 0 M130.26 0 C136.99 0, 140.35 3.36, 140.35 10.09 M130.26 0 C136.99 0, 140.35 3.36, 140.35 10.09 M140.35 10.09 C140.35 15.7, 140.35 21.31, 140.35 30.27 M140.35 10.09 C140.35 15.95, 140.35 21.81, 140.35 30.27 M140.35 30.27 C140.35 36.99, 136.99 40.36, 130.26 40.36 M140.35 30.27 C140.35 36.99, 136.99 40.36, 130.26 40.36 M130.26 40.36 C92.13 40.36, 53.99 40.36, 10.09 40.36 M130.26 40.36 C84.27 40.36, 38.28 40.36, 10.09 40.36 M10.09 40.36 C3.36 40.36, 0 36.99, 0 30.27 M10.09 40.36 C3.36 40.36, 0 36.99, 0 30.27 M0 30.27 C0 24.1, 0 17.92, 0 10.09 M0 30.27 C0 25.5, 0 20.73, 0 10.09 M0 10.09 C0 3.36, 3.36 0, 10.09 0 M0 10.09 C0 3.36, 3.36 0, 10.09 0" stroke="white" stroke-width="1" fill="none"></path></g><g transform="translate(3160.1982935726323 1549.43688173921) rotate(0 28.7109375 11.5)"><text x="28.7109375" y="0" font-family="Helvetica, Segoe UI Emoji" font-size="20px" fill="white" text-anchor="middle" style="white-space: pre;" direction="ltr" dominant-baseline="text-before-edge">Weiter</text></g></svg>