<svg version="1.1" xmlns="http://www.w3.org/2000/svg" viewBox="0 0 3706.824286909651 2063.4199149765404" width="3706.824286909651" height="2063.4199149765404">
  <!-- svg-source:excalidraw -->
  
  <defs>
    <style class="style-fonts">
      @font-face {
        font-family: "Virgil";
        src: url("https://file%2B.vscode-resource.vscode-cdn.net/c%3A/Users/lisa-/.vscode/extensions/pomdtr.excalidraw-editor-3.7.4/public//dist/excalidraw-assets/Virgil.woff2");
      }
      @font-face {
        font-family: "Cascadia";
        src: url("https://file%2B.vscode-resource.vscode-cdn.net/c%3A/Users/lisa-/.vscode/extensions/pomdtr.excalidraw-editor-3.7.4/public//dist/excalidraw-assets/Cascadia.woff2");
      }
      @font-face {
        font-family: "Assistant";
        src: url("https://file%2B.vscode-resource.vscode-cdn.net/c%3A/Users/lisa-/.vscode/extensions/pomdtr.excalidraw-editor-3.7.4/public//dist/excalidraw-assets/Assistant-Regular.woff2");
      }
    </style>
    <clipPath id="eec-HhGhZEaCw3ayrq7cW">
            <rect transform="translate(476.4582655533282 316.02313060818256) rotate(0 698.1601562499999 415.9570312500001)" width="1396.3203124999998" height="831.9140625000002">
          </rect>
        </clipPath><clipPath id="AsUZH6Y8tNKCLzc3s1uVK">
            <rect transform="translate(2214.8332208383813 30.5) rotate(0 698.1601562499999 415.9570312500001)" width="1396.3203124999998" height="831.9140625000002">
          </rect>
        </clipPath><clipPath id="-jIZuS7vf3lMOruR92ifv">
            <rect transform="translate(487.6132824201976 1218.6248835462097) rotate(0 698.16015625 415.95703125000006)" width="1396.3203124999998" height="831.9140625000002">
          </rect>
        </clipPath><clipPath id="m-e6FfCLtXKYcn2QO6Axw">
            <rect transform="translate(2300.503974409651 1221.5058524765402) rotate(0 698.1601562499999 415.9570312500001)" width="1396.3203124999998" height="831.9140625000002">
          </rect>
        </clipPath>
  </defs>
  <rect x="0" y="0" width="3706.824286909651" height="2063.4199149765404" fill="#ffffff"></rect><g stroke-linecap="round"><g transform="translate(1680.5712524828148 944.9690343554882) rotate(0 177.26300672049842 159.39541176225777)"><path d="M0 0 C59.09 33.76, 314.93 149.45, 354.53 202.58 C394.12 255.71, 257.05 299.42, 237.55 318.79" stroke="#e03131" stroke-width="4.5" fill="none" stroke-dasharray="8 12"></path></g><g transform="translate(1680.5712524828148 944.9690343554882) rotate(0 177.26300672049842 159.39541176225777)"><path d="M256.95 295.9 C250.99 302.93, 245.03 309.96, 237.55 318.79" stroke="#e03131" stroke-width="4.5" fill="none"></path></g><g transform="translate(1680.5712524828148 944.9690343554882) rotate(0 177.26300672049842 159.39541176225777)"><path d="M267.12 313.73 C258.04 315.28, 248.95 316.84, 237.55 318.79" stroke="#e03131" stroke-width="4.5" fill="none"></path></g></g><mask></mask><g clip-path="url(#eec-HhGhZEaCw3ayrq7cW)"><g stroke-linecap="round" transform="translate(532.0850811265095 377.6596307758412) rotate(0 640 360)"><path d="M0 0 C469.35 0, 938.71 0, 1280 0 M0 0 C329.99 0, 659.99 0, 1280 0 M1280 0 C1280 234.99, 1280 469.98, 1280 720 M1280 0 C1280 198.71, 1280 397.43, 1280 720 M1280 720 C907.62 720, 535.24 720, 0 720 M1280 720 C825.01 720, 370.02 720, 0 720 M0 720 C0 544.91, 0 369.83, 0 0 M0 720 C0 528.55, 0 337.09, 0 0" stroke="#ced4da" stroke-width="4" fill="none"></path></g></g><g clip-path="url(#eec-HhGhZEaCw3ayrq7cW)"><g stroke-linecap="round"><g transform="translate(808.8443553807351 377.2107585124991) rotate(0 0.67626953125 360.6884765625)"><path d="M-0.12 1.02 C0.09 121.04, 0.89 600.87, 1.02 720.87 M-1.64 0.5 C-1.6 120.62, -0.3 601.87, -0.1 722.14" stroke="#bbb" stroke-width="2" fill="none"></path></g></g><mask></mask></g><g clip-path="url(#eec-HhGhZEaCw3ayrq7cW)"><g transform="translate(836.7845007384508 411.2175635836563) rotate(0 331.6583251953125 110.68798828124997)"><text x="0" y="0" font-family="Helvetica, Segoe UI Emoji" font-size="96.25042459239128px" fill="#1e1e1e" text-anchor="start" style="white-space: pre;" direction="ltr" dominant-baseline="text-before-edge">Willkommen </text><text x="0" y="110.68798828124997" font-family="Helvetica, Segoe UI Emoji" font-size="96.25042459239128px" fill="#1e1e1e" text-anchor="start" style="white-space: pre;" direction="ltr" dominant-baseline="text-before-edge">Herr Paul Peter</text></g></g><g clip-path="url(#eec-HhGhZEaCw3ayrq7cW)"><g stroke-linecap="round" transform="translate(859.2709829496139 675.9409025823696) rotate(0 452.22609401884154 191.05643458574332)"><path d="M0 0 C294.64 2.08, 590.89 1.33, 904.45 0 M0 0 C249.72 2.08, 499.43 1.91, 904.45 0 M904.45 0 C905.28 110.34, 905.35 223.19, 904.45 382.11 M904.45 0 C903.03 136.06, 903.05 271.25, 904.45 382.11 M904.45 382.11 C684.77 379.27, 465.34 378.74, 0 382.11 M904.45 382.11 C664.12 379.02, 423.56 378.31, 0 382.11 M0 382.11 C0.23 240.6, 1.03 99.08, 0 0 M0 382.11 C-0.44 304.66, -0.47 226.45, 0 0" stroke="#000000" stroke-width="1" fill="none"></path></g></g><g clip-path="url(#eec-HhGhZEaCw3ayrq7cW)"><g stroke-linecap="round" transform="translate(948.9385354428246 751.3941450099161) rotate(0 44.54548100742838 44.54548100742837)"><path d="M54.74 0.19 C62.29 1.36, 71.36 7.39, 76.86 13.3 C82.35 19.21, 86.13 27.77, 87.73 35.66 C89.32 43.56, 89.32 53.33, 86.4 60.67 C83.49 68.01, 76.63 74.93, 70.23 79.69 C63.83 84.45, 55.73 88.59, 48 89.24 C40.27 89.89, 30.82 87.42, 23.84 83.61 C16.87 79.79, 10.05 73.56, 6.18 66.36 C2.31 59.16, 0.06 48.67, 0.65 40.42 C1.25 32.16, 4.91 23.08, 9.73 16.85 C14.54 10.62, 20.6 5.18, 29.53 3.06 C38.45 0.95, 56.21 3.15, 63.27 4.16 C70.32 5.17, 72.04 8.49, 71.84 9.13 M57.89 0.53 C65.21 2.51, 73.33 10.43, 78.4 16.68 C83.47 22.93, 87.36 30.22, 88.3 38.02 C89.23 45.82, 87.59 56.11, 84.02 63.48 C80.46 70.85, 73.62 77.78, 66.9 82.24 C60.18 86.7, 51.54 90.25, 43.71 90.26 C35.89 90.26, 26.51 86.73, 19.94 82.27 C13.37 77.82, 7.42 70.72, 4.29 63.53 C1.17 56.34, 0.23 47.35, 1.2 39.13 C2.18 30.9, 4.97 20.3, 10.14 14.16 C15.3 8.02, 24.37 4.39, 32.19 2.26 C40.01 0.13, 52.95 1.32, 57.07 1.37 C61.2 1.42, 57.35 1.77, 56.96 2.58" stroke="none" stroke-width="0" fill="black"></path><path d="M44.32 0.24 C52.03 -0.32, 62.36 3.4, 69.14 7.73 C75.93 12.07, 81.71 19.08, 85.01 26.24 C88.32 33.41, 90.13 42.9, 88.96 50.74 C87.79 58.58, 83.34 67.04, 77.99 73.27 C72.64 79.49, 64.46 85.87, 56.84 88.09 C49.21 90.32, 40.01 89.07, 32.24 86.61 C24.47 84.15, 15.44 79.35, 10.2 73.32 C4.95 67.29, 1.91 58.47, 0.8 50.45 C-0.32 42.43, 0.05 32.59, 3.49 25.18 C6.93 17.77, 12.74 9.83, 21.42 5.97 C30.1 2.1, 48.2 2, 55.56 1.97 C62.92 1.93, 65.87 5.27, 65.58 5.78 M24.62 3.52 C31.2 -0.82, 41.89 -1.23, 49.93 -0.35 C57.97 0.54, 66.74 3.71, 72.86 8.82 C78.98 13.92, 84.16 22.81, 86.64 30.3 C89.12 37.78, 89.64 45.74, 87.74 53.7 C85.85 61.67, 81.22 72.11, 75.25 78.08 C69.28 84.06, 59.99 88.14, 51.93 89.53 C43.86 90.92, 34.16 89.57, 26.87 86.41 C19.59 83.26, 12.94 77.29, 8.22 70.61 C3.5 63.92, -1.05 54.15, -1.44 46.31 C-1.83 38.46, 1.35 30.28, 5.87 23.52 C10.39 16.76, 22.6 8.49, 25.65 5.74 C28.71 3, 24.19 6.46, 24.22 7.04" stroke="#000000" stroke-width="1" fill="none"></path></g></g><g clip-path="url(#eec-HhGhZEaCw3ayrq7cW)"><g stroke-linecap="round"><g transform="translate(876.9754526626689 1030.233660718884) rotate(0 422.5299750583945 -115.09160397470286)" fill-rule="evenodd"><path d="M1.44 1.04 L291.97 -165.47 L429.72 -105.37 L665.34 -241.21 L844.98 12.09 L-1.59 1.04" stroke="none" stroke-width="0" fill="black" fill-rule="evenodd"></path><path d="M0 0 C114.78 -65.31, 230.18 -131.43, 293.31 -166.81 M0 0 C94.52 -53.49, 189.38 -107.83, 293.31 -166.81 M293.31 -166.81 C326.31 -154.91, 356.12 -139.99, 431.27 -105.93 M293.31 -166.81 C339.4 -144.58, 385.76 -124.33, 431.27 -105.93 M431.27 -105.93 C515.17 -156.27, 599.67 -204.13, 664.63 -240.88 M431.27 -105.93 C520.95 -156.24, 610.18 -208.06, 664.63 -240.88 M664.63 -240.88 C717.28 -165.84, 773.59 -91.83, 845.06 10.7 M664.63 -240.88 C732.27 -145.18, 800.42 -49.43, 845.06 10.7 M845.06 10.7 C600.23 10.61, 355.27 7.47, 0 0 M845.06 10.7 C572.48 9.38, 299.33 5.79, 0 0 M0 0 C0 0, 0 0, 0 0 M0 0 C0 0, 0 0, 0 0" stroke="#000000" stroke-width="1" fill="none"></path></g></g><mask></mask></g><g clip-path="url(#eec-HhGhZEaCw3ayrq7cW)"><g stroke-linecap="round" transform="translate(809.1865288466411 377.9712743116175) rotate(0 503.00695269974335 360.01090604606117)"><path d="M0 0 C346.01 -0.58, 691.49 -1.04, 1006.01 0 M1006.01 0 C1004.12 242.56, 1005.25 485.48, 1006.01 720.02 M1006.01 720.02 C763.47 719.32, 519.77 718.95, 0 720.02 M0 720.02 C3.21 455.25, 2.69 188.65, 0 0" stroke="#bbb" stroke-width="2.5" fill="none" stroke-dasharray="1.5 8"></path></g></g><g clip-path="url(#eec-HhGhZEaCw3ayrq7cW)"><g transform="translate(507.31923678623775 721.0445087112814) rotate(270.23675559051935 161.49594116210938 22.5)"><text x="0" y="0" font-family="Virgil, Segoe UI Emoji" font-size="36px" fill="#f08c00" text-anchor="start" style="white-space: pre;" direction="ltr" dominant-baseline="text-before-edge">Sidebar Component</text></g></g><g clip-path="url(#eec-HhGhZEaCw3ayrq7cW)"><g stroke-opacity="0.5" fill-opacity="0.5" stroke-linecap="round" transform="translate(534.8867545782082 380.1606040185329) rotate(0 640 360)"><path d="M0 0 L1280 0 L1280 720 L0 720" stroke="none" stroke-width="0" fill="black"></path><path d="M0 0 C431.74 0, 863.47 0, 1280 0 M0 0 C424.81 0, 849.62 0, 1280 0 M1280 0 C1280 164.56, 1280 329.11, 1280 720 M1280 0 C1280 165.6, 1280 331.21, 1280 720 M1280 720 C859.51 720, 439.03 720, 0 720 M1280 720 C861.21 720, 442.43 720, 0 720 M0 720 C0 560.75, 0 401.5, 0 0 M0 720 C0 523.33, 0 326.65, 0 0" stroke="#ced4da" stroke-width="4" fill="none"></path></g></g><g clip-path="url(#eec-HhGhZEaCw3ayrq7cW)"><g stroke-linecap="round" transform="translate(634.2027183406483 481.78814497983024) rotate(0 540.8154087791804 251.43127396309507)"><path d="M0.57 0.14 L1081.17 -1.86 L1080.72 504.65 L1.07 501.08" stroke="none" stroke-width="0" fill="white"></path><path d="M0 0 C350.24 -2.55, 699.04 -2.12, 1081.63 0 M0 0 C238.85 1.18, 477.16 1.43, 1081.63 0 M1081.63 0 C1079.8 121.51, 1079.57 243.36, 1081.63 502.86 M1081.63 0 C1080.4 107.39, 1080.4 213.95, 1081.63 502.86 M1081.63 502.86 C650.77 506.73, 218.22 506.81, 0 502.86 M1081.63 502.86 C655.98 499.35, 230.32 500, 0 502.86 M0 502.86 C1.28 308.14, 2.22 113.35, 0 0 M0 502.86 C0.4 321.92, 0.45 141.27, 0 0" stroke="#000000" stroke-width="1" fill="none"></path></g></g><g clip-path="url(#eec-HhGhZEaCw3ayrq7cW)"><g transform="translate(639.2027183406483 618.2194189429254) rotate(0 357.3779296875 115)"><text x="0" y="0" font-family="Helvetica, Segoe UI Emoji" font-size="20px" fill="#1e1e1e" text-anchor="start" style="white-space: pre;" direction="ltr" dominant-baseline="text-before-edge"></text><text x="0" y="23" font-family="Helvetica, Segoe UI Emoji" font-size="20px" fill="#1e1e1e" text-anchor="start" style="white-space: pre;" direction="ltr" dominant-baseline="text-before-edge"></text><text x="0" y="46" font-family="Helvetica, Segoe UI Emoji" font-size="20px" fill="#1e1e1e" text-anchor="start" style="white-space: pre;" direction="ltr" dominant-baseline="text-before-edge"></text><text x="0" y="69" font-family="Helvetica, Segoe UI Emoji" font-size="20px" fill="#1e1e1e" text-anchor="start" style="white-space: pre;" direction="ltr" dominant-baseline="text-before-edge"></text><text x="0" y="92" font-family="Helvetica, Segoe UI Emoji" font-size="20px" fill="#1e1e1e" text-anchor="start" style="white-space: pre;" direction="ltr" dominant-baseline="text-before-edge"></text><text x="0" y="115" font-family="Helvetica, Segoe UI Emoji" font-size="20px" fill="#1e1e1e" text-anchor="start" style="white-space: pre;" direction="ltr" dominant-baseline="text-before-edge"></text><text x="0" y="138" font-family="Helvetica, Segoe UI Emoji" font-size="20px" fill="#1e1e1e" text-anchor="start" style="white-space: pre;" direction="ltr" dominant-baseline="text-before-edge"></text><text x="0" y="161" font-family="Helvetica, Segoe UI Emoji" font-size="20px" fill="#1e1e1e" text-anchor="start" style="white-space: pre;" direction="ltr" dominant-baseline="text-before-edge"></text><text x="0" y="184" font-family="Helvetica, Segoe UI Emoji" font-size="20px" fill="#1e1e1e" text-anchor="start" style="white-space: pre;" direction="ltr" dominant-baseline="text-before-edge"></text><text x="0" y="207" font-family="Helvetica, Segoe UI Emoji" font-size="20px" fill="#1e1e1e" text-anchor="start" style="white-space: pre;" direction="ltr" dominant-baseline="text-before-edge">  Grundversorgung    Infotext...           2ct/m3            0 Monate                0 Monate</text></g></g><g clip-path="url(#eec-HhGhZEaCw3ayrq7cW)"><g transform="translate(659.6478125398287 504.58378999613194) rotate(0 172.1337890625 20.69999999999999)"><text x="0" y="0" font-family="Helvetica, Segoe UI Emoji" font-size="36px" fill="#000000" text-anchor="start" style="white-space: pre;" direction="ltr" dominant-baseline="text-before-edge">Neukundenaufnahme</text></g></g><g clip-path="url(#eec-HhGhZEaCw3ayrq7cW)"><g transform="translate(654.6990312965431 643.501749987324) rotate(0 414.287109375 46)"><text x="0" y="0" font-family="Helvetica, Segoe UI Emoji" font-size="20px" fill="#1e1e1e" text-anchor="start" style="white-space: pre;" direction="ltr" dominant-baseline="text-before-edge">Da Ihr Haushalt sich zum ersten Mal anmeldet brauchen wir noch einige Daten von Ihnen.</text><text x="0" y="23" font-family="Helvetica, Segoe UI Emoji" font-size="20px" fill="#1e1e1e" text-anchor="start" style="white-space: pre;" direction="ltr" dominant-baseline="text-before-edge">Wir f체hren Sie nun durch einen Prozess um alles f체r Ihre Zukunft in Bad Walden aufzusetzen.</text><text x="0" y="46" font-family="Helvetica, Segoe UI Emoji" font-size="20px" fill="#1e1e1e" text-anchor="start" style="white-space: pre;" direction="ltr" dominant-baseline="text-before-edge"></text><text x="0" y="69" font-family="Helvetica, Segoe UI Emoji" font-size="20px" fill="#1e1e1e" text-anchor="start" style="white-space: pre;" direction="ltr" dominant-baseline="text-before-edge">Ihr Wasser Tarif ist bereits aufgesetzt, bitte w채hlen Sie nun Ihren Strom und Heiz Tarif.</text></g></g><g clip-path="url(#eec-HhGhZEaCw3ayrq7cW)"><g stroke-linecap="round" transform="translate(1537.852926051291 909.0930264683075) rotate(0 70.17697409785035 20.17837629977845)"><path d="M10.09 0 C53.33 0, 96.57 0, 130.26 0 C136.99 0, 140.35 3.36, 140.35 10.09 C140.35 17.63, 140.35 25.16, 140.35 30.27 C140.35 36.99, 136.99 40.36, 130.26 40.36 C94.14 40.36, 58.02 40.36, 10.09 40.36 C3.36 40.36, 0 36.99, 0 30.27 C0 24.77, 0 19.28, 0 10.09 C0 3.36, 3.36 0, 10.09 0" stroke="none" stroke-width="0" fill="black"></path><path d="M10.09 0 C47.59 0, 85.09 0, 130.26 0 M10.09 0 C51.75 0, 93.41 0, 130.26 0 M130.26 0 C136.99 0, 140.35 3.36, 140.35 10.09 M130.26 0 C136.99 0, 140.35 3.36, 140.35 10.09 M140.35 10.09 C140.35 14.37, 140.35 18.65, 140.35 30.27 M140.35 10.09 C140.35 16.26, 140.35 22.43, 140.35 30.27 M140.35 30.27 C140.35 36.99, 136.99 40.36, 130.26 40.36 M140.35 30.27 C140.35 36.99, 136.99 40.36, 130.26 40.36 M130.26 40.36 C104.91 40.36, 79.55 40.36, 10.09 40.36 M130.26 40.36 C99.44 40.36, 68.62 40.36, 10.09 40.36 M10.09 40.36 C3.36 40.36, 0 36.99, 0 30.27 M10.09 40.36 C3.36 40.36, 0 36.99, 0 30.27 M0 30.27 C0 23.86, 0 17.46, 0 10.09 M0 30.27 C0 23.84, 0 17.41, 0 10.09 M0 10.09 C0 3.36, 3.36 0, 10.09 0 M0 10.09 C0 3.36, 3.36 0, 10.09 0" stroke="white" stroke-width="1" fill="none"></path></g></g><g clip-path="url(#eec-HhGhZEaCw3ayrq7cW)"><g transform="translate(1577.309606297907 916.7915443750821) rotate(0 28.7109375 11.5)"><text x="28.7109375" y="0" font-family="Helvetica, Segoe UI Emoji" font-size="20px" fill="white" text-anchor="middle" style="white-space: pre;" direction="ltr" dominant-baseline="text-before-edge">Weiter</text></g></g><g clip-path="url(#eec-HhGhZEaCw3ayrq7cW)"><g transform="translate(658.4280043541464 565.6357322955084) rotate(0 234.50000000000003 32.19999999999999)"><text x="0" y="0" font-family="Helvetica, Segoe UI Emoji" font-size="28px" fill="#1e1e1e" text-anchor="start" style="white-space: pre;" direction="ltr" dominant-baseline="text-before-edge">Herzlich Willkommen bei den</text><text x="0" y="32.199999999999996" font-family="Helvetica, Segoe UI Emoji" font-size="28px" fill="#1e1e1e" text-anchor="start" style="white-space: pre;" direction="ltr" dominant-baseline="text-before-edge">Bad Walden Stadtwerken, Paul Peter!</text></g></g><g clip-path="url(#eec-HhGhZEaCw3ayrq7cW)"><g stroke-linecap="round" transform="translate(641.4668231708042 797.1322108916067) rotate(0 517.2540890925304 46.119751859217445)"><path d="M23.06 0 C409.68 3.33, 797.58 2.95, 1011.45 0 M23.06 0 C248.72 3.76, 474.87 3.41, 1011.45 0 M1011.45 0 C1028.58 1.47, 1034.49 9.65, 1034.51 23.06 M1011.45 0 C1024.75 0.6, 1035.65 6.96, 1034.51 23.06 M1034.51 23.06 C1035.5 37.04, 1035.46 49.36, 1034.51 69.18 M1034.51 23.06 C1033.6 36.34, 1033.46 51.16, 1034.51 69.18 M1034.51 69.18 C1036.45 83.34, 1028.09 92.16, 1011.45 92.24 M1034.51 69.18 C1033.22 85.69, 1025.05 90.58, 1011.45 92.24 M1011.45 92.24 C773.07 95.87, 534.55 95.21, 23.06 92.24 M1011.45 92.24 C684.96 89.76, 358.71 90.08, 23.06 92.24 M23.06 92.24 C6.23 91.36, -0.12 83.89, 0 69.18 M23.06 92.24 C8.73 93.82, 0.7 83.38, 0 69.18 M0 69.18 C1.1 55.28, -0.4 41.7, 0 23.06 M0 69.18 C0.01 58.89, 0.56 48.64, 0 23.06 M0 23.06 C0.02 7.02, 6.59 -1.84, 23.06 0 M0 23.06 C-2.23 9.61, 9.94 1.85, 23.06 0" stroke="#1e1e1e" stroke-width="2" fill="none"></path></g></g><g clip-path="url(#eec-HhGhZEaCw3ayrq7cW)"><g transform="translate(648.8298048976285 767.9407777339296) rotate(0 371.2646484375 11.5)"><text x="0" y="0" font-family="Helvetica, Segoe UI Emoji" font-size="20px" fill="#1e1e1e" text-anchor="start" style="white-space: pre;" direction="ltr" dominant-baseline="text-before-edge"> Name                  Beschreibung       Preis          Mindestlaufzeit        K체ndigungsfrist </text></g></g><g clip-path="url(#eec-HhGhZEaCw3ayrq7cW)"><g stroke-linecap="round" transform="translate(1522.5567141384815 544.968322490369) rotate(0 8.59558311106332 8.595583111063263)"><path d="M6.92 0.51 C8.62 0.19, 11.69 0.37, 13.27 1.32 C14.84 2.27, 15.77 4.45, 16.37 6.21 C16.97 7.98, 17.43 10.29, 16.87 11.89 C16.3 13.49, 14.63 14.92, 12.98 15.82 C11.33 16.71, 8.91 17.65, 6.98 17.26 C5.05 16.88, 2.53 14.92, 1.4 13.5 C0.27 12.07, 0.14 10.53, 0.21 8.72 C0.29 6.91, 0.61 4.11, 1.82 2.64 C3.03 1.17, 6.46 0.29, 7.46 -0.09 C8.47 -0.46, 7.84 0.2, 7.87 0.41 M9.59 -0.36 C11.37 -0.35, 12.95 1.17, 14.28 2.48 C15.6 3.79, 17.36 5.77, 17.55 7.5 C17.74 9.23, 16.65 11.22, 15.4 12.85 C14.16 14.49, 11.71 16.74, 10.09 17.3 C8.46 17.86, 7.25 16.96, 5.65 16.23 C4.04 15.5, 1.44 14.67, 0.47 12.92 C-0.5 11.16, -0.77 7.5, -0.16 5.68 C0.46 3.86, 2.6 2.95, 4.15 2.01 C5.69 1.07, 8.17 0.34, 9.11 0.05 C10.05 -0.24, 9.81 0.02, 9.78 0.25" stroke="#000000" stroke-width="1" fill="none"></path></g></g><g clip-path="url(#eec-HhGhZEaCw3ayrq7cW)"><g transform="translate(1548.4291420896445 539.537019584415) rotate(0 36.123046875 11.5)"><text x="0" y="0" font-family="Helvetica, Segoe UI Emoji" font-size="20px" fill="#000000" text-anchor="start" style="white-space: pre;" direction="ltr" dominant-baseline="text-before-edge">German</text></g></g><g clip-path="url(#eec-HhGhZEaCw3ayrq7cW)"><g stroke-linecap="round" transform="translate(1527.3849017429397 549.526472865084) rotate(0 4.1052092531505195 4.1052092531505195)"><path d="M3.74 0.24 C4.51 0.16, 5.66 0.49, 6.34 0.93 C7.02 1.37, 7.58 2, 7.83 2.87 C8.07 3.73, 8.13 5.3, 7.83 6.14 C7.53 6.98, 6.83 7.57, 6.05 7.91 C5.27 8.25, 4.1 8.44, 3.16 8.19 C2.23 7.93, 0.94 7.1, 0.42 6.37 C-0.11 5.64, -0.14 4.72, 0 3.81 C0.13 2.91, 0.54 1.61, 1.23 0.94 C1.93 0.26, 3.77 -0.11, 4.18 -0.23 C4.59 -0.36, 3.79 0.09, 3.71 0.19 M4.37 -0.21 C5.18 -0.1, 6.89 0.4, 7.45 1.15 C8.01 1.9, 7.69 3.46, 7.74 4.3 C7.79 5.15, 8.15 5.54, 7.74 6.21 C7.33 6.87, 6.31 8.07, 5.3 8.29 C4.28 8.51, 2.43 7.94, 1.66 7.54 C0.88 7.13, 0.87 6.7, 0.66 5.85 C0.45 5, 0.09 3.35, 0.38 2.43 C0.68 1.51, 1.8 0.68, 2.45 0.35 C3.1 0.01, 3.91 0.4, 4.28 0.44 C4.66 0.48, 4.66 0.51, 4.73 0.58" stroke="none" stroke-width="0" fill="black"></path><path d="M4.42 0.29 C5.26 0.37, 6.66 0.89, 7.32 1.47 C7.98 2.04, 8.36 2.85, 8.37 3.74 C8.38 4.62, 8.01 6.1, 7.39 6.78 C6.77 7.45, 5.49 7.6, 4.64 7.8 C3.8 7.99, 3.09 8.33, 2.33 7.94 C1.58 7.55, 0.48 6.33, 0.1 5.46 C-0.28 4.6, -0.22 3.54, 0.07 2.76 C0.35 1.98, 1.03 1.2, 1.8 0.78 C2.57 0.35, 4.15 0.35, 4.66 0.21 C5.17 0.06, 4.86 -0.16, 4.87 -0.1 M4.01 -0.21 C4.86 -0.4, 5.71 -0.29, 6.3 0.3 C6.9 0.89, 7.25 2.41, 7.58 3.31 C7.9 4.22, 8.6 4.91, 8.28 5.74 C7.95 6.56, 6.53 7.97, 5.61 8.28 C4.69 8.59, 3.5 7.86, 2.74 7.6 C1.98 7.35, 1.55 7.4, 1.07 6.76 C0.59 6.12, -0.21 4.68, -0.13 3.76 C-0.06 2.84, 0.9 1.8, 1.51 1.23 C2.13 0.67, 3.14 0.62, 3.55 0.37 C3.96 0.11, 4.03 -0.24, 3.99 -0.3" stroke="#000000" stroke-width="1" fill="none"></path></g></g><g clip-path="url(#eec-HhGhZEaCw3ayrq7cW)"><g transform="translate(1450.1317869222587 506.655985500484) rotate(0 120.6494140625 11.5)"><text x="0" y="0" font-family="Helvetica, Segoe UI Emoji" font-size="20px" fill="#1e1e1e" text-anchor="start" style="white-space: pre;" direction="ltr" dominant-baseline="text-before-edge">Please choose a language:</text></g></g><g clip-path="url(#eec-HhGhZEaCw3ayrq7cW)"><g stroke-linecap="round" transform="translate(1524.4570833618614 575.310317377475) rotate(0 8.738839454520416 8.738839454520388)"><path d="M8.27 0.41 C9.92 0.31, 12 0.98, 13.48 2.06 C14.96 3.13, 16.65 5.14, 17.15 6.87 C17.65 8.59, 17.21 10.72, 16.47 12.4 C15.74 14.09, 14.41 16.13, 12.72 16.97 C11.04 17.8, 8.18 17.89, 6.38 17.41 C4.58 16.93, 3.03 15.75, 1.92 14.08 C0.81 12.41, -0.42 9.39, -0.28 7.39 C-0.14 5.4, 1.23 3.42, 2.76 2.12 C4.3 0.82, 7.99 -0.09, 8.93 -0.42 C9.87 -0.76, 8.53 -0.06, 8.4 0.1 M9.49 0.37 C11.27 0.39, 13.45 0.96, 14.75 2.09 C16.05 3.21, 17.18 5.18, 17.3 7.11 C17.42 9.04, 16.54 12.05, 15.47 13.66 C14.4 15.26, 12.61 16.13, 10.88 16.75 C9.16 17.36, 6.77 18.1, 5.11 17.35 C3.46 16.59, 1.87 14.08, 0.95 12.24 C0.03 10.4, -0.83 7.98, -0.4 6.31 C0.03 4.64, 1.99 3.37, 3.51 2.24 C5.04 1.12, 7.67 -0.06, 8.75 -0.43 C9.83 -0.81, 9.94 -0.25, 9.99 -0.01" stroke="#000000" stroke-width="1" fill="none"></path></g></g><g clip-path="url(#eec-HhGhZEaCw3ayrq7cW)"><g transform="translate(1550.7362685352446 572.4092305271704) rotate(0 31.043136596679688 10.889277866908458)"><text x="0" y="0" font-family="Helvetica, Segoe UI Emoji" font-size="18.937874551145143px" fill="#000000" text-anchor="start" style="white-space: pre;" direction="ltr" dominant-baseline="text-before-edge">English</text></g></g><g clip-path="url(#eec-HhGhZEaCw3ayrq7cW)"><g stroke-linecap="round" transform="translate(1488.066381970776 826.5921117753182) rotate(0 73.93466188158709 16.94261023537905)"><path d="M8.47 0 C54.75 0, 101.02 0, 139.4 0 C145.05 0, 147.87 2.82, 147.87 8.47 C147.87 13.21, 147.87 17.94, 147.87 25.41 C147.87 31.06, 145.05 33.89, 139.4 33.89 C94.66 33.89, 49.92 33.89, 8.47 33.89 C2.82 33.89, 0 31.06, 0 25.41 C0 19.68, 0 13.95, 0 8.47 C0 2.82, 2.82 0, 8.47 0" stroke="none" stroke-width="0" fill="black"></path><path d="M8.47 0 C53.19 0, 97.91 0, 139.4 0 M8.47 0 C39.49 0, 70.52 0, 139.4 0 M139.4 0 C145.05 0, 147.87 2.82, 147.87 8.47 M139.4 0 C145.05 0, 147.87 2.82, 147.87 8.47 M147.87 8.47 C147.87 14.33, 147.87 20.18, 147.87 25.41 M147.87 8.47 C147.87 13.91, 147.87 19.35, 147.87 25.41 M147.87 25.41 C147.87 31.06, 145.05 33.89, 139.4 33.89 M147.87 25.41 C147.87 31.06, 145.05 33.89, 139.4 33.89 M139.4 33.89 C103.77 33.89, 68.14 33.89, 8.47 33.89 M139.4 33.89 C108.55 33.89, 77.7 33.89, 8.47 33.89 M8.47 33.89 C2.82 33.89, 0 31.06, 0 25.41 M8.47 33.89 C2.82 33.89, 0 31.06, 0 25.41 M0 25.41 C0 20.78, 0 16.15, 0 8.47 M0 25.41 C0 19.97, 0 14.53, 0 8.47 M0 8.47 C0 2.82, 2.82 0, 8.47 0 M0 8.47 C0 2.82, 2.82 0, 8.47 0" stroke="white" stroke-width="2" fill="none"></path></g></g><g clip-path="url(#eec-HhGhZEaCw3ayrq7cW)"><g transform="translate(1509.0791688523632 834.3347220106973) rotate(0 52.921875 9.2)"><text x="52.921875" y="0" font-family="Helvetica, Segoe UI Emoji" font-size="16px" fill="white" text-anchor="middle" style="white-space: pre;" direction="ltr" dominant-baseline="text-before-edge">Mehr anzeigen</text></g></g><g transform="translate(476.4582655533282 295.52313060818256) rotate(0 100.79986572265625 8.75)"><text x="0" y="0" font-family="Assistant, Segoe UI Emoji" font-size="14px" fill="#999999" text-anchor="start" style="white-space: pre;" direction="ltr" dominant-baseline="text-before-edge">Home Page - Signup Popup (Initial)</text></g><rect transform="translate(476.4582655533282 316.02313060818256) rotate(0 698.1601562499999 415.9570312500001)" width="1396.3203124999998px" height="831.9140625000002px" rx="8" ry="8" fill="none" stroke="#bbb" stroke-width="2"></rect><g clip-path="url(#AsUZH6Y8tNKCLzc3s1uVK)"><g stroke-linecap="round" transform="translate(2270.4600364115627 92.1365001676586) rotate(0 640.0000000000001 360)"><path d="M0 0 C424.02 0, 848.04 0, 1280 0 M0 0 C390.16 0, 780.32 0, 1280 0 M1280 0 C1280 177.48, 1280 354.95, 1280 720 M1280 0 C1280 242.88, 1280 485.76, 1280 720 M1280 720 C978.03 720, 676.06 720, 0 720 M1280 720 C1001.01 720, 722.03 720, 0 720 M0 720 C0 528.1, 0 336.2, 0 0 M0 720 C0 448.42, 0 176.84, 0 0" stroke="#ced4da" stroke-width="4" fill="none"></path></g></g><g clip-path="url(#AsUZH6Y8tNKCLzc3s1uVK)"><g stroke-linecap="round"><g transform="translate(2547.2193106657883 91.68762790431651) rotate(0 0.67626953125 360.6884765625)"><path d="M0.4 0.4 C0.7 120.7, 2.05 601.96, 2.22 722.18 M-0.85 -0.44 C-0.68 119.5, 1.47 600.48, 1.73 720.48" stroke="#bbb" stroke-width="2" fill="none"></path></g></g><mask></mask></g><g clip-path="url(#AsUZH6Y8tNKCLzc3s1uVK)"><g transform="translate(2575.1594560235044 125.69443297547377) rotate(0 331.6583251953125 110.68798828125)"><text x="0" y="0" font-family="Helvetica, Segoe UI Emoji" font-size="96.25042459239128px" fill="#1e1e1e" text-anchor="start" style="white-space: pre;" direction="ltr" dominant-baseline="text-before-edge">Willkommen </text><text x="0" y="110.68798828124997" font-family="Helvetica, Segoe UI Emoji" font-size="96.25042459239128px" fill="#1e1e1e" text-anchor="start" style="white-space: pre;" direction="ltr" dominant-baseline="text-before-edge">Herr Paul Peter</text></g></g><g clip-path="url(#AsUZH6Y8tNKCLzc3s1uVK)"><g stroke-linecap="round" transform="translate(2597.6459382346675 390.4177719741871) rotate(0 452.22609401884165 191.05643458574332)"><path d="M0 0 C301.98 -2.58, 603.12 -3.26, 904.45 0 M0 0 C228.35 1.21, 456.27 1.14, 904.45 0 M904.45 0 C901.72 124.04, 903.8 247.37, 904.45 382.11 M904.45 0 C904.21 131.11, 903.56 262.42, 904.45 382.11 M904.45 382.11 C701.23 378.96, 497.08 379.34, 0 382.11 M904.45 382.11 C543.16 379.95, 182.28 380.03, 0 382.11 M0 382.11 C-1.67 247.21, -1.73 109.48, 0 0 M0 382.11 C-1.7 232.87, -1.7 83.78, 0 0" stroke="#000000" stroke-width="1" fill="none"></path></g></g><g clip-path="url(#AsUZH6Y8tNKCLzc3s1uVK)"><g stroke-linecap="round" transform="translate(2687.313490727878 465.87101440173353) rotate(0 44.54548100742841 44.54548100742838)"><path d="M52.28 0.06 C59.95 0.79, 68.94 6.71, 74.67 12.06 C80.4 17.42, 84.66 24.43, 86.64 32.19 C88.62 39.95, 88.7 50.82, 86.54 58.63 C84.37 66.43, 79.9 73.85, 73.63 79.01 C67.36 84.18, 56.93 88.6, 48.91 89.6 C40.9 90.61, 32.47 88.64, 25.54 85.02 C18.6 81.41, 11.56 74.73, 7.32 67.93 C3.08 61.14, 0.2 52.22, 0.09 44.26 C-0.02 36.3, 2.34 27, 6.67 20.16 C11 13.32, 18.46 6.43, 26.07 3.24 C33.68 0.06, 47.72 1.19, 52.33 1.03 C56.94 0.87, 53.65 1.5, 53.73 2.28 M59.63 1.69 C66.8 4.24, 74.24 13.07, 79.28 19.85 C84.32 26.62, 89.3 34.53, 89.87 42.33 C90.44 50.12, 86.9 59.64, 82.72 66.6 C78.55 73.55, 71.99 80.19, 64.83 84.05 C57.66 87.9, 47.92 90.25, 39.73 89.71 C31.53 89.18, 21.85 86.02, 15.66 80.81 C9.47 75.6, 4.89 66, 2.58 58.45 C0.27 50.91, 0.06 43.29, 1.79 35.52 C3.51 27.74, 7.41 17.51, 12.92 11.82 C18.43 6.13, 26.94 2.6, 34.85 1.38 C42.76 0.15, 56.28 4.1, 60.38 4.46 C64.48 4.83, 59.37 3.3, 59.45 3.58" stroke="none" stroke-width="0" fill="black"></path><path d="M50.53 0.12 C58.37 0.64, 68.34 5.34, 74.45 10.59 C80.57 15.85, 85.05 23.97, 87.22 31.66 C89.38 39.35, 89.69 49.07, 87.41 56.72 C85.14 64.37, 79.64 72.1, 73.55 77.57 C67.46 83.04, 58.83 88.25, 50.88 89.55 C42.93 90.85, 33.23 88.83, 25.85 85.35 C18.48 81.87, 10.86 75.64, 6.63 68.67 C2.41 61.7, 0.48 51.77, 0.48 43.53 C0.49 35.28, 2.48 25.87, 6.67 19.2 C10.86 12.52, 17.25 6.28, 25.64 3.48 C34.03 0.68, 50.84 2.15, 57.01 2.38 C63.18 2.6, 62.81 4, 62.65 4.81 M56.56 2.24 C64.16 4.02, 72.55 9.99, 77.99 16.18 C83.43 22.38, 88.19 31.41, 89.2 39.41 C90.21 47.41, 87.66 57.29, 84.05 64.18 C80.45 71.07, 73.91 76.43, 67.55 80.76 C61.2 85.1, 53.85 90, 45.92 90.2 C37.99 90.4, 27.1 86.51, 19.96 81.99 C12.82 77.46, 6.6 70.25, 3.1 63.05 C-0.4 55.86, -2.38 46.74, -1.04 38.82 C0.31 30.9, 5.67 21.92, 11.17 15.56 C16.67 9.19, 24.2 2.97, 31.98 0.63 C39.75 -1.72, 53.81 1.2, 57.82 1.48 C61.83 1.76, 56.34 1.6, 56.02 2.32" stroke="#000000" stroke-width="1" fill="none"></path></g></g><g clip-path="url(#AsUZH6Y8tNKCLzc3s1uVK)"><g stroke-linecap="round"><g transform="translate(2615.3504079477225 744.7105301107016) rotate(0 422.5299750583945 -115.09160397470286)" fill-rule="evenodd"><path d="M1.54 0.27 L293.47 -165.42 L429.39 -104.89 L662.88 -241.65 L843.43 11.08 L-1 0.61" stroke="none" stroke-width="0" fill="black" fill-rule="evenodd"></path><path d="M0 0 C108.86 -63.28, 217.02 -125.29, 293.31 -166.81 M0 0 C75.83 -42.9, 152.56 -86.4, 293.31 -166.81 M293.31 -166.81 C337.58 -148, 379.83 -129.77, 431.27 -105.93 M293.31 -166.81 C339.38 -146.4, 385.63 -125.38, 431.27 -105.93 M431.27 -105.93 C484.17 -136.16, 540.26 -165.9, 664.63 -240.88 M431.27 -105.93 C488.82 -138.35, 545.96 -170.88, 664.63 -240.88 M664.63 -240.88 C731.3 -146.91, 802.6 -48.51, 845.06 10.7 M664.63 -240.88 C712.33 -174.16, 760.41 -106.68, 845.06 10.7 M845.06 10.7 C583.08 4.54, 319.88 1.21, 0 0 M845.06 10.7 C586.39 5.54, 328.48 2.13, 0 0 M0 0 C0 0, 0 0, 0 0 M0 0 C0 0, 0 0, 0 0" stroke="#000000" stroke-width="1" fill="none"></path></g></g><mask></mask></g><g clip-path="url(#AsUZH6Y8tNKCLzc3s1uVK)"><g stroke-linecap="round" transform="translate(2547.561484131694 92.44814370343488) rotate(0 503.00695269974324 360.01090604606117)"><path d="M0 0 C368.67 -1.6, 738.05 -1.53, 1006.01 0 M1006.01 0 C1003.91 248.51, 1003.88 496.75, 1006.01 720.02 M1006.01 720.02 C793.65 723.84, 580.85 723.77, 0 720.02 M0 720.02 C1.09 468.68, 1.53 217.99, 0 0" stroke="#bbb" stroke-width="2.5" fill="none" stroke-dasharray="1.5 8"></path></g></g><g clip-path="url(#AsUZH6Y8tNKCLzc3s1uVK)"><g transform="translate(2245.6941920712907 435.52137810309887) rotate(270.23675559051935 161.49594116210938 22.5)"><text x="0" y="0" font-family="Virgil, Segoe UI Emoji" font-size="36px" fill="#f08c00" text-anchor="start" style="white-space: pre;" direction="ltr" dominant-baseline="text-before-edge">Sidebar Component</text></g></g><g clip-path="url(#AsUZH6Y8tNKCLzc3s1uVK)"><g stroke-opacity="0.5" fill-opacity="0.5" stroke-linecap="round" transform="translate(2273.2617098632613 94.63747341035037) rotate(0 640.0000000000001 360)"><path d="M0 0 L1280 0 L1280 720 L0 720" stroke="none" stroke-width="0" fill="black"></path><path d="M0 0 C422.73 0, 845.47 0, 1280 0 M0 0 C361.4 0, 722.8 0, 1280 0 M1280 0 C1280 277.92, 1280 555.84, 1280 720 M1280 0 C1280 172.3, 1280 344.61, 1280 720 M1280 720 C946.27 720, 612.54 720, 0 720 M1280 720 C857.77 720, 435.54 720, 0 720 M0 720 C0 556.91, 0 393.83, 0 0 M0 720 C0 505.3, 0 290.6, 0 0" stroke="#ced4da" stroke-width="4" fill="none"></path></g></g><g clip-path="url(#AsUZH6Y8tNKCLzc3s1uVK)"><g stroke-linecap="round" transform="translate(3260.931669423535 259.44519188218646) rotate(0 8.595583111063206 8.595583111063263)"><path d="M9.78 -0.27 C11.5 -0.29, 13.34 0.83, 14.51 2.19 C15.68 3.54, 16.69 5.9, 16.8 7.85 C16.91 9.8, 16.27 12.4, 15.18 13.88 C14.08 15.36, 11.98 16.27, 10.22 16.75 C8.46 17.24, 6.15 17.63, 4.61 16.8 C3.08 15.97, 1.75 13.57, 1.01 11.77 C0.27 9.97, -0.33 7.74, 0.17 6.01 C0.66 4.28, 2.29 2.33, 3.98 1.38 C5.67 0.42, 9.15 0.53, 10.29 0.31 C11.44 0.08, 10.86 -0.01, 10.86 0.04 M6.57 0.16 C8.07 -0.4, 10.64 0.08, 12.19 1 C13.73 1.93, 15.04 3.97, 15.83 5.69 C16.62 7.41, 17.37 9.75, 16.92 11.35 C16.47 12.96, 14.66 14.37, 13.14 15.31 C11.61 16.24, 9.64 17.14, 7.75 16.95 C5.86 16.76, 3.08 15.53, 1.8 14.16 C0.51 12.79, 0.11 10.66, 0.05 8.72 C-0.02 6.78, 0.22 3.97, 1.39 2.55 C2.56 1.12, 6.17 0.47, 7.08 0.16 C7.99 -0.15, 6.93 0.5, 6.85 0.67" stroke="#000000" stroke-width="1" fill="none"></path></g></g><g clip-path="url(#AsUZH6Y8tNKCLzc3s1uVK)"><g transform="translate(3286.8040973746974 254.01388897623247) rotate(0 36.123046875 11.5)"><text x="0" y="0" font-family="Helvetica, Segoe UI Emoji" font-size="20px" fill="#000000" text-anchor="start" style="white-space: pre;" direction="ltr" dominant-baseline="text-before-edge">German</text></g></g><g clip-path="url(#AsUZH6Y8tNKCLzc3s1uVK)"><g stroke-linecap="round" transform="translate(3265.7598570279933 264.0033422569014) rotate(0 4.105209253150406 4.1052092531505195)"><path d="M4.18 0.3 C5 0.34, 6.46 0.77, 7.17 1.36 C7.88 1.95, 8.4 2.94, 8.45 3.84 C8.5 4.73, 8.08 5.99, 7.47 6.73 C6.86 7.46, 5.72 8.1, 4.81 8.26 C3.91 8.41, 2.82 8.08, 2.04 7.68 C1.25 7.28, 0.44 6.63, 0.09 5.86 C-0.25 5.1, -0.33 3.93, -0.01 3.1 C0.3 2.27, 1.16 1.43, 1.96 0.89 C2.77 0.36, 4.4 0.07, 4.81 -0.11 C5.23 -0.29, 4.56 -0.23, 4.46 -0.19 M4.51 -0.01 C5.29 0.05, 6.49 0.62, 7.07 1.33 C7.65 2.03, 8.01 3.27, 7.98 4.21 C7.95 5.16, 7.37 6.41, 6.88 7.01 C6.38 7.62, 5.76 7.67, 5.01 7.87 C4.26 8.07, 3.21 8.6, 2.38 8.2 C1.55 7.8, 0.46 6.34, 0.03 5.48 C-0.4 4.62, -0.48 3.77, -0.2 3.04 C0.08 2.31, 0.96 1.59, 1.7 1.07 C2.44 0.55, 3.67 0.12, 4.24 -0.1 C4.81 -0.32, 4.99 -0.29, 5.13 -0.27" stroke="none" stroke-width="0" fill="black"></path><path d="M4.15 -0.31 C4.92 -0.3, 6.05 0.32, 6.68 1 C7.31 1.67, 7.86 2.89, 7.95 3.77 C8.05 4.64, 7.72 5.47, 7.26 6.24 C6.79 7.01, 5.92 8.13, 5.16 8.37 C4.39 8.61, 3.47 8.11, 2.66 7.68 C1.85 7.26, 0.72 6.59, 0.31 5.83 C-0.1 5.06, -0.04 3.92, 0.21 3.11 C0.47 2.29, 1.1 1.49, 1.85 0.93 C2.59 0.38, 4.22 -0.04, 4.71 -0.21 C5.19 -0.39, 4.86 -0.3, 4.76 -0.14 M4.3 0.02 C5.08 0.11, 5.95 0.85, 6.62 1.5 C7.28 2.16, 8.18 3.17, 8.31 3.95 C8.44 4.73, 7.89 5.51, 7.39 6.18 C6.88 6.86, 6.18 7.76, 5.28 8 C4.37 8.25, 2.79 8.05, 1.97 7.65 C1.15 7.25, 0.7 6.48, 0.35 5.6 C0 4.73, -0.4 3.24, -0.12 2.41 C0.16 1.58, 1.25 1, 2.04 0.64 C2.82 0.28, 4.22 0.31, 4.6 0.24 C4.98 0.17, 4.29 0.26, 4.33 0.22" stroke="#000000" stroke-width="1" fill="none"></path></g></g><g clip-path="url(#AsUZH6Y8tNKCLzc3s1uVK)"><g transform="translate(3188.5067422073116 221.13285489230145) rotate(0 120.6494140625 11.5)"><text x="0" y="0" font-family="Helvetica, Segoe UI Emoji" font-size="20px" fill="#1e1e1e" text-anchor="start" style="white-space: pre;" direction="ltr" dominant-baseline="text-before-edge">Please choose a language:</text></g></g><g clip-path="url(#AsUZH6Y8tNKCLzc3s1uVK)"><g stroke-linecap="round" transform="translate(3262.832038646915 289.7871867692925) rotate(0 8.738839454520303 8.738839454520416)"><path d="M6.97 -0.08 C8.7 -0.37, 11.27 0.47, 12.87 1.43 C14.47 2.39, 15.94 3.85, 16.58 5.67 C17.23 7.49, 17.28 10.61, 16.73 12.34 C16.18 14.08, 14.92 15.29, 13.28 16.09 C11.65 16.89, 8.78 17.47, 6.92 17.15 C5.06 16.84, 3.22 15.59, 2.11 14.19 C1.01 12.8, 0.21 10.72, 0.28 8.8 C0.35 6.88, 1.21 4.21, 2.54 2.69 C3.86 1.16, 7.32 0.02, 8.22 -0.32 C9.12 -0.66, 7.91 0.46, 7.93 0.63 M7.92 0.29 C9.8 0.18, 12.88 1.03, 14.45 2.08 C16.02 3.12, 16.96 4.75, 17.34 6.56 C17.72 8.36, 17.71 11.19, 16.72 12.89 C15.73 14.59, 13.21 16.1, 11.4 16.76 C9.59 17.41, 7.64 17.55, 5.86 16.82 C4.09 16.1, 1.68 14.03, 0.76 12.43 C-0.15 10.84, -0.01 8.94, 0.37 7.27 C0.75 5.6, 1.73 3.6, 3.05 2.41 C4.36 1.23, 7.25 0.65, 8.26 0.16 C9.26 -0.32, 9.09 -0.57, 9.06 -0.51" stroke="#000000" stroke-width="1" fill="none"></path></g></g><g clip-path="url(#AsUZH6Y8tNKCLzc3s1uVK)"><g transform="translate(3289.1112238202977 286.88609991898784) rotate(0 31.043136596679688 10.889277866908458)"><text x="0" y="0" font-family="Helvetica, Segoe UI Emoji" font-size="18.937874551145143px" fill="#000000" text-anchor="start" style="white-space: pre;" direction="ltr" dominant-baseline="text-before-edge">English</text></g></g><g clip-path="url(#AsUZH6Y8tNKCLzc3s1uVK)"><g stroke-linecap="round" transform="translate(2511.0420146451333 256.9328190043211) rotate(0 420.54044540027417 195.5140667657487)"><path d="M-1.59 1.39 L839.88 -0.66 L839.66 392.87 L0.33 390.41" stroke="none" stroke-width="0" fill="white"></path><path d="M0 0 C274.07 0.31, 548.43 -0.36, 841.08 0 M0 0 C299.42 -1.74, 598.71 -1.91, 841.08 0 M841.08 0 C842.37 121.16, 842.07 243.26, 841.08 391.03 M841.08 0 C842.06 87.52, 842.67 175.65, 841.08 391.03 M841.08 391.03 C523.8 392.03, 208.42 392.43, 0 391.03 M841.08 391.03 C626.43 393.14, 411.66 393.79, 0 391.03 M0 391.03 C0.82 252.94, 2.18 115.15, 0 0 M0 391.03 C0.61 294.43, -0.04 198.29, 0 0" stroke="#000000" stroke-width="1" fill="none"></path></g></g><g clip-path="url(#AsUZH6Y8tNKCLzc3s1uVK)"><g transform="translate(2532.8710693307657 270.2420953839596) rotate(0 86.0361328125 20.69999999999999)"><text x="0" y="0" font-family="Helvetica, Segoe UI Emoji" font-size="36px" fill="#000000" text-anchor="start" style="white-space: pre;" direction="ltr" dominant-baseline="text-before-edge">Tarifdetails</text></g></g><g clip-path="url(#AsUZH6Y8tNKCLzc3s1uVK)"><g stroke-linecap="round" transform="translate(3182.586221209549 586.1281005811562) rotate(0 70.17697409785046 20.17837629977845)"><path d="M10.09 0 C53.28 0, 96.46 0, 130.26 0 C136.99 0, 140.35 3.36, 140.35 10.09 C140.35 14.9, 140.35 19.71, 140.35 30.27 C140.35 36.99, 136.99 40.36, 130.26 40.36 C91.78 40.36, 53.3 40.36, 10.09 40.36 C3.36 40.36, 0 36.99, 0 30.27 C0 24.75, 0 19.22, 0 10.09 C0 3.36, 3.36 0, 10.09 0" stroke="none" stroke-width="0" fill="black"></path><path d="M10.09 0 C49.87 0, 89.64 0, 130.26 0 M10.09 0 C44.8 0, 79.51 0, 130.26 0 M130.26 0 C136.99 0, 140.35 3.36, 140.35 10.09 M130.26 0 C136.99 0, 140.35 3.36, 140.35 10.09 M140.35 10.09 C140.35 17.86, 140.35 25.64, 140.35 30.27 M140.35 10.09 C140.35 16.75, 140.35 23.42, 140.35 30.27 M140.35 30.27 C140.35 36.99, 136.99 40.36, 130.26 40.36 M140.35 30.27 C140.35 36.99, 136.99 40.36, 130.26 40.36 M130.26 40.36 C103.06 40.36, 75.86 40.36, 10.09 40.36 M130.26 40.36 C86.63 40.36, 42.99 40.36, 10.09 40.36 M10.09 40.36 C3.36 40.36, 0 36.99, 0 30.27 M10.09 40.36 C3.36 40.36, 0 36.99, 0 30.27 M0 30.27 C0 22.57, 0 14.86, 0 10.09 M0 30.27 C0 23.83, 0 17.38, 0 10.09 M0 10.09 C0 3.36, 3.36 0, 10.09 0 M0 10.09 C0 3.36, 3.36 0, 10.09 0" stroke="white" stroke-width="1" fill="none"></path></g></g><g clip-path="url(#AsUZH6Y8tNKCLzc3s1uVK)"><g transform="translate(3237.975518643665 593.8266184879304) rotate(0 12.7783203125 11.5)"><text x="12.7783203125" y="0" font-family="Helvetica, Segoe UI Emoji" font-size="20px" fill="white" text-anchor="middle" style="white-space: pre;" direction="ltr" dominant-baseline="text-before-edge">Ok</text></g></g><g transform="translate(2214.8332208383813 10) rotate(0 92.53288269042969 8.75)"><text x="0" y="0" font-family="Assistant, Segoe UI Emoji" font-size="14px" fill="#999999" text-anchor="start" style="white-space: pre;" direction="ltr" dominant-baseline="text-before-edge">Home Page - Signup Popup (0.1)</text></g><rect transform="translate(2214.8332208383813 30.5) rotate(0 698.1601562499999 415.9570312500001)" width="1396.3203124999998px" height="831.9140625000002px" rx="8" ry="8" fill="none" stroke="#bbb" stroke-width="2"></rect><g stroke-linecap="round" transform="translate(1553.6004505977935 266.02502187632774) rotate(0 1.533087890306433 0.4017341779527328)"><path d="M0 0 C0.97 0, 1.93 0, 3.07 0 M0 0 C0.83 0, 1.66 0, 3.07 0 M3.07 0 C3.07 0.29, 3.07 0.57, 3.07 0.8 M3.07 0 C3.07 0.2, 3.07 0.4, 3.07 0.8 M3.07 0.8 C2.23 0.8, 1.4 0.8, 0 0.8 M3.07 0.8 C2.27 0.8, 1.48 0.8, 0 0.8 M0 0.8 C0 0.62, 0 0.44, 0 0 M0 0.8 C0 0.56, 0 0.31, 0 0" stroke="#f08c00" stroke-width="1" fill="none"></path></g><g clip-path="url(#-jIZuS7vf3lMOruR92ifv)"><g stroke-linecap="round" transform="translate(543.240097993379 1280.2613837138683) rotate(0 640 360.00000000000006)"><path d="M0 0 C371.76 0, 743.52 0, 1280 0 M0 0 C396.57 0, 793.14 0, 1280 0 M1280 0 C1280 286.34, 1280 572.68, 1280 720 M1280 0 C1280 242.6, 1280 485.2, 1280 720 M1280 720 C983.32 720, 686.65 720, 0 720 M1280 720 C867.86 720, 455.73 720, 0 720 M0 720 C0 454.31, 0 188.61, 0 0 M0 720 C0 547.79, 0 375.58, 0 0" stroke="#ced4da" stroke-width="4" fill="none"></path></g></g><g clip-path="url(#-jIZuS7vf3lMOruR92ifv)"><g stroke-linecap="round"><g transform="translate(819.9993722476046 1279.8125114505265) rotate(0 0.67626953125 360.68847656249994)"><path d="M0.4 -0.11 C0.74 120.32, 1.85 601.07, 1.94 721.49 M-0.86 -1.21 C-0.61 119.53, 1.17 602.79, 1.3 723.09" stroke="#bbb" stroke-width="2" fill="none"></path></g></g><mask></mask></g><g clip-path="url(#-jIZuS7vf3lMOruR92ifv)"><g transform="translate(847.9395176053202 1313.8193165216835) rotate(0 331.6583251953125 110.68798828124994)"><text x="0" y="0" font-family="Helvetica, Segoe UI Emoji" font-size="96.25042459239128px" fill="#1e1e1e" text-anchor="start" style="white-space: pre;" direction="ltr" dominant-baseline="text-before-edge">Willkommen </text><text x="0" y="110.68798828124997" font-family="Helvetica, Segoe UI Emoji" font-size="96.25042459239128px" fill="#1e1e1e" text-anchor="start" style="white-space: pre;" direction="ltr" dominant-baseline="text-before-edge">Herr Paul Peter</text></g></g><g clip-path="url(#-jIZuS7vf3lMOruR92ifv)"><g stroke-linecap="round" transform="translate(870.4259998164833 1578.542655520397) rotate(0 452.2260940188416 191.05643458574332)"><path d="M0 0 C316.08 1.67, 631.45 1.61, 904.45 0 M0 0 C333.71 1.23, 667.74 0.9, 904.45 0 M904.45 0 C906.08 107.45, 906.1 217.48, 904.45 382.11 M904.45 0 C902.66 147.29, 903.04 295.52, 904.45 382.11 M904.45 382.11 C646.21 383.9, 386.75 383.98, 0 382.11 M904.45 382.11 C606 385.1, 307.96 385.13, 0 382.11 M0 382.11 C2.38 300.04, 2.38 216.56, 0 0 M0 382.11 C-0.93 292.56, -0.51 203.92, 0 0" stroke="#000000" stroke-width="1" fill="none"></path></g></g><g clip-path="url(#-jIZuS7vf3lMOruR92ifv)"><g stroke-linecap="round" transform="translate(960.093552309694 1653.9958979479434) rotate(0 44.54548100742835 44.54548100742835)"><path d="M28.81 2.6 C35.76 -0.85, 46.08 -1.39, 53.97 0.3 C61.87 2, 70.35 6.71, 76.19 12.76 C82.02 18.81, 87.3 28.68, 88.97 36.61 C90.64 44.54, 89.37 53.12, 86.21 60.36 C83.05 67.59, 76.53 75.25, 70 80.02 C63.47 84.79, 55.09 88.42, 47.04 89 C39 89.58, 28.83 87.54, 21.71 83.48 C14.59 79.42, 8.06 71.64, 4.32 64.64 C0.58 57.64, -1.67 49.19, -0.74 41.48 C0.19 33.76, 4.32 25.15, 9.89 18.34 C15.45 11.53, 28 3.32, 32.63 0.63 C37.26 -2.06, 37.46 1.33, 37.68 2.21 M65.79 6.49 C72.45 9.11, 78.54 14.35, 82.47 21.39 C86.41 28.43, 89.96 40.3, 89.41 48.72 C88.85 57.15, 84.01 65.8, 79.13 71.93 C74.26 78.06, 67.66 82.61, 60.15 85.49 C52.64 88.37, 41.81 90.84, 34.08 89.22 C26.35 87.59, 19.15 81.34, 13.77 75.75 C8.4 70.16, 3.72 63.26, 1.81 55.69 C-0.09 48.12, -0.51 38.22, 2.35 30.34 C5.21 22.47, 12.37 13.24, 18.95 8.45 C25.52 3.66, 33.9 2.15, 41.77 1.6 C49.65 1.04, 62.52 4.5, 66.19 5.13 C69.86 5.76, 64.48 4.74, 63.81 5.37" stroke="none" stroke-width="0" fill="black"></path><path d="M52.44 0.14 C60.03 0.69, 69.81 6.12, 75.66 11.7 C81.51 17.28, 85.62 25.75, 87.53 33.62 C89.43 41.49, 89.53 51.44, 87.1 58.94 C84.67 66.44, 79.18 73.53, 72.95 78.61 C66.72 83.7, 57.67 88.64, 49.72 89.46 C41.76 90.29, 32.38 87.38, 25.23 83.58 C18.09 79.78, 11.12 73.43, 6.83 66.66 C2.54 59.88, -0.8 50.91, -0.51 42.93 C-0.21 34.95, 3.85 25.32, 8.6 18.78 C13.34 12.24, 18.94 6.14, 27.96 3.69 C36.99 1.24, 55.77 3.05, 62.76 4.07 C69.75 5.09, 70.25 9.08, 69.91 9.8 M63.69 3.7 C70.76 6.25, 76.75 12.62, 80.84 19.65 C84.93 26.69, 87.87 37.53, 88.23 45.91 C88.59 54.3, 87.17 63.61, 83.01 69.98 C78.85 76.35, 70.71 80.99, 63.29 84.11 C55.86 87.23, 46.61 89.91, 38.46 88.71 C30.31 87.5, 20.48 82.2, 14.39 76.87 C8.3 71.54, 4.04 63.99, 1.92 56.72 C-0.2 49.45, -0.79 41.01, 1.68 33.26 C4.16 25.5, 10.41 15.68, 16.76 10.18 C23.11 4.68, 32.18 1.43, 39.77 0.28 C47.37 -0.87, 58.45 2.48, 62.33 3.27 C66.21 4.05, 63.46 4.1, 63.06 4.98" stroke="#000000" stroke-width="1" fill="none"></path></g></g><g clip-path="url(#-jIZuS7vf3lMOruR92ifv)"><g stroke-linecap="round"><g transform="translate(888.1304695295383 1932.8354136569112) rotate(0 422.5299750583944 -115.09160397470282)" fill-rule="evenodd"><path d="M0.25 -1.7 L291.84 -168.61 L432.66 -104.64 L666.55 -242.73 L843.57 10.43 L1.58 -1.45" stroke="none" stroke-width="0" fill="black" fill-rule="evenodd"></path><path d="M0 0 C101.19 -56.98, 201.1 -116.68, 293.31 -166.81 M0 0 C104.92 -58.73, 209.64 -118, 293.31 -166.81 M293.31 -166.81 C326.05 -155.5, 356.4 -141.41, 431.27 -105.93 M293.31 -166.81 C327.16 -152.33, 361.55 -137.04, 431.27 -105.93 M431.27 -105.93 C512.05 -152.04, 592.86 -199.86, 664.63 -240.88 M431.27 -105.93 C492.65 -142.04, 555.26 -177, 664.63 -240.88 M664.63 -240.88 C732.02 -147.6, 799.92 -55.6, 845.06 10.7 M664.63 -240.88 C703.73 -185.63, 743.42 -132.21, 845.06 10.7 M845.06 10.7 C509.74 4.72, 175.33 -0.4, 0 0 M845.06 10.7 C568.8 7.25, 293.43 3.67, 0 0 M0 0 C0 0, 0 0, 0 0 M0 0 C0 0, 0 0, 0 0" stroke="#000000" stroke-width="1" fill="none"></path></g></g><mask></mask></g><g clip-path="url(#-jIZuS7vf3lMOruR92ifv)"><g stroke-linecap="round" transform="translate(820.3415457135105 1280.5730272496448) rotate(0 503.0069526997433 360.01090604606117)"><path d="M0 0 C338.69 -4.43, 678.28 -4.27, 1006.01 0 M1006.01 0 C1005.6 198.76, 1004.92 397, 1006.01 720.02 M1006.01 720.02 C644.33 716.96, 281.03 717.47, 0 720.02 M0 720.02 C0.72 469.29, 0.74 217.35, 0 0" stroke="#bbb" stroke-width="2.5" fill="none" stroke-dasharray="1.5 8"></path></g></g><g clip-path="url(#-jIZuS7vf3lMOruR92ifv)"><g transform="translate(518.4742536531071 1623.6462616493086) rotate(270.23675559051935 161.49594116210938 22.5)"><text x="0" y="0" font-family="Virgil, Segoe UI Emoji" font-size="36px" fill="#f08c00" text-anchor="start" style="white-space: pre;" direction="ltr" dominant-baseline="text-before-edge">Sidebar Component</text></g></g><g clip-path="url(#-jIZuS7vf3lMOruR92ifv)"><g stroke-opacity="0.5" fill-opacity="0.5" stroke-linecap="round" transform="translate(546.0417714450776 1282.7623569565603) rotate(0 640 359.99999999999994)"><path d="M0 0 L1280 0 L1280 720 L0 720" stroke="none" stroke-width="0" fill="black"></path><path d="M0 0 C304.6 0, 609.2 0, 1280 0 M0 0 C468.8 0, 937.6 0, 1280 0 M1280 0 C1280 187.92, 1280 375.85, 1280 720 M1280 0 C1280 257.14, 1280 514.28, 1280 720 M1280 720 C938.71 720, 597.42 720, 0 720 M1280 720 C789.78 720, 299.56 720, 0 720 M0 720 C0 546.8, 0 373.6, 0 0 M0 720 C0 533.76, 0 347.52, 0 0" stroke="#ced4da" stroke-width="4" fill="none"></path></g></g><g clip-path="url(#-jIZuS7vf3lMOruR92ifv)"><g stroke-linecap="round" transform="translate(644.1955326172065 1383.6344220665897) rotate(0 540.8154087791804 251.43127396309507)"><path d="M-1.13 0.14 L1080.26 -0.98 L1083.48 501.43 L-0.01 501.63" stroke="none" stroke-width="0" fill="white"></path><path d="M0 0 C278.98 0.77, 557.9 0.08, 1081.63 0 M0 0 C397.1 -3.44, 794.59 -3.95, 1081.63 0 M1081.63 0 C1082.79 163.2, 1083.07 326.1, 1081.63 502.86 M1081.63 0 C1082.97 132.89, 1082.56 264.95, 1081.63 502.86 M1081.63 502.86 C718.39 498.81, 356.78 499.84, 0 502.86 M1081.63 502.86 C667.4 499.99, 252.72 499.63, 0 502.86 M0 502.86 C1.08 347.56, 0.01 191.65, 0 0 M0 502.86 C1.19 357.27, 0.75 211.75, 0 0" stroke="#000000" stroke-width="1" fill="none"></path></g></g><g clip-path="url(#-jIZuS7vf3lMOruR92ifv)"><g transform="translate(672.2677174978703 1406.6703835150345) rotate(0 172.1337890625 20.69999999999999)"><text x="0" y="0" font-family="Helvetica, Segoe UI Emoji" font-size="36px" fill="#000000" text-anchor="start" style="white-space: pre;" direction="ltr" dominant-baseline="text-before-edge">Neukundenaufnahme</text></g></g><g clip-path="url(#-jIZuS7vf3lMOruR92ifv)"><g transform="translate(676.7666531320948 1463.1767495706076) rotate(0 270.8466796875 16.100000000000023)"><text x="0" y="0" font-family="Helvetica, Segoe UI Emoji" font-size="28px" fill="#1e1e1e" text-anchor="start" style="white-space: pre;" direction="ltr" dominant-baseline="text-before-edge">Bitte geben Sie Ihre Rechnungsadresse an.</text></g></g><g clip-path="url(#-jIZuS7vf3lMOruR92ifv)"><g stroke-linecap="round" transform="translate(678.6776835370135 1544.583692259753) rotate(0 159.31062701714578 22.499899793262557)"><path d="M0 0 C74.4 -1.41, 149.68 -2.06, 318.62 0 M0 0 C85.72 0.81, 170.05 0.99, 318.62 0 M318.62 0 C319.55 8.75, 319.79 18.61, 318.62 45 M318.62 0 C318.62 9.66, 317.52 20.98, 318.62 45 M318.62 45 C253.76 44.67, 189.37 44.79, 0 45 M318.62 45 C222.57 43.16, 126.5 43.03, 0 45 M0 45 C0.87 35.13, 1.77 25.98, 0 0 M0 45 C1.19 31.31, 0.77 16.16, 0 0" stroke="#000000" stroke-width="1" fill="none"></path></g></g><g clip-path="url(#-jIZuS7vf3lMOruR92ifv)"><g transform="translate(683.8307965258122 1514.2194843165191) rotate(0 34.39219665527344 11.249949896631279)"><text x="0" y="0" font-family="Virgil, Segoe UI Emoji" font-size="18.030851443404707px" fill="#1e1e1e" text-anchor="start" style="white-space: pre;" direction="ltr" dominant-baseline="text-before-edge">Vorname</text></g></g><g clip-path="url(#-jIZuS7vf3lMOruR92ifv)"><g stroke-linecap="round" transform="translate(1027.1221682204268 1543.8180443715694) rotate(0 159.31062701714575 22.499899793262557)"><path d="M0 0 C107.22 -0.71, 211.56 -2.07, 318.62 0 M0 0 C91.67 -0.8, 184.59 -0.75, 318.62 0 M318.62 0 C317.09 9.85, 320.11 21.72, 318.62 45 M318.62 0 C319.08 10.65, 319.22 20.52, 318.62 45 M318.62 45 C194.98 42.41, 71.93 44.51, 0 45 M318.62 45 C226.56 44.96, 135.15 45.84, 0 45 M0 45 C-0.19 34.7, -0.34 21.34, 0 0 M0 45 C-0.98 29.74, 0.02 14.52, 0 0" stroke="#000000" stroke-width="1" fill="none"></path></g></g><g clip-path="url(#-jIZuS7vf3lMOruR92ifv)"><g transform="translate(1032.2752812092253 1513.4538364283355) rotate(0 41.65827941894531 11.249949896631279)"><text x="0" y="0" font-family="Virgil, Segoe UI Emoji" font-size="18.030851443404707px" fill="#1e1e1e" text-anchor="start" style="white-space: pre;" direction="ltr" dominant-baseline="text-before-edge">Nachname</text></g></g><g clip-path="url(#-jIZuS7vf3lMOruR92ifv)"><g stroke-linecap="round" transform="translate(679.3720766676925 1637.8679940175655) rotate(0 159.31062701714578 22.499899793262557)"><path d="M0 0 C84.45 0.88, 168.51 1.33, 318.62 0 M0 0 C120.75 -0.92, 241.48 -0.6, 318.62 0 M318.62 0 C318.5 14.61, 317.43 32.79, 318.62 45 M318.62 0 C317.87 10.53, 319.7 19.28, 318.62 45 M318.62 45 C198.93 42.42, 76.78 42.63, 0 45 M318.62 45 C200 44.4, 81.08 45.03, 0 45 M0 45 C-1.32 31.12, 1.27 14.17, 0 0 M0 45 C0.65 32.65, -0.22 19.28, 0 0" stroke="#000000" stroke-width="1" fill="none"></path></g></g><g clip-path="url(#-jIZuS7vf3lMOruR92ifv)"><g transform="translate(684.525189656491 1607.5037860743316) rotate(0 31.05664825439453 11.249949896631279)"><text x="0" y="0" font-family="Virgil, Segoe UI Emoji" font-size="18.030851443404707px" fill="#1e1e1e" text-anchor="start" style="white-space: pre;" direction="ltr" dominant-baseline="text-before-edge">Strae</text></g></g><g clip-path="url(#-jIZuS7vf3lMOruR92ifv)"><g stroke-linecap="round" transform="translate(1024.822160082406 1636.8430102936072) rotate(0 159.31062701714575 22.499899793262557)"><path d="M0 0 C71.15 -0.35, 142.06 0.86, 318.62 0 M0 0 C95.48 -1.22, 192.42 -0.5, 318.62 0 M318.62 0 C320.28 17.97, 318.19 36.13, 318.62 45 M318.62 0 C319.26 12.52, 318.61 22.94, 318.62 45 M318.62 45 C234.94 46.57, 153.17 45.65, 0 45 M318.62 45 C254.75 46.82, 190.93 46.65, 0 45 M0 45 C1.65 25.4, -1.35 10.2, 0 0 M0 45 C0.16 31.45, 0.6 18.15, 0 0" stroke="#000000" stroke-width="1" fill="none"></path></g></g><g clip-path="url(#-jIZuS7vf3lMOruR92ifv)"><g transform="translate(1029.9752730712046 1606.4788023503734) rotate(0 50.54705810546875 11.249949896631279)"><text x="0" y="0" font-family="Virgil, Segoe UI Emoji" font-size="18.030851443404707px" fill="#1e1e1e" text-anchor="start" style="white-space: pre;" direction="ltr" dominant-baseline="text-before-edge">Hausnummer</text></g></g><g clip-path="url(#-jIZuS7vf3lMOruR92ifv)"><g stroke-linecap="round" transform="translate(1025.2970390293458 1739.7805815012894) rotate(0 159.3106270171458 22.499899793262557)"><path d="M0 0 C100.15 -2.75, 198.92 -1.64, 318.62 0 M0 0 C119.87 -1.84, 241.53 -1.91, 318.62 0 M318.62 0 C319.65 18.14, 318.37 33.76, 318.62 45 M318.62 0 C319.81 14.7, 319.66 30.35, 318.62 45 M318.62 45 C241.95 46.06, 166.14 47.35, 0 45 M318.62 45 C225.64 44.88, 132.54 46.1, 0 45 M0 45 C-1.69 29.82, 1.88 18.05, 0 0 M0 45 C0.76 29.55, -0.1 14.03, 0 0" stroke="#000000" stroke-width="1" fill="none"></path></g></g><g clip-path="url(#-jIZuS7vf3lMOruR92ifv)"><g transform="translate(1030.4501520181445 1709.4163735580555) rotate(0 53.305641174316406 11.249949896631279)"><text x="0" y="0" font-family="Virgil, Segoe UI Emoji" font-size="18.030851443404707px" fill="#1e1e1e" text-anchor="start" style="white-space: pre;" direction="ltr" dominant-baseline="text-before-edge">Postleitzahl</text></g></g><g clip-path="url(#-jIZuS7vf3lMOruR92ifv)"><g stroke-linecap="round" transform="translate(682.1595904006026 1742.4493309926631) rotate(0 159.31062701714578 22.499899793262557)"><path d="M0 0 C96.54 -0.21, 193.55 -0.83, 318.62 0 M0 0 C68.95 0.44, 138.19 -0.31, 318.62 0 M318.62 0 C318.05 15.74, 316.52 30.67, 318.62 45 M318.62 0 C317.59 14.73, 318.89 28.78, 318.62 45 M318.62 45 C192.33 43.89, 65.22 45.18, 0 45 M318.62 45 C243.15 44.29, 167.41 43.83, 0 45 M0 45 C-1.9 29.3, 0.74 10.56, 0 0 M0 45 C1.12 35.49, 0.76 25.34, 0 0" stroke="#000000" stroke-width="1" fill="none"></path></g></g><g clip-path="url(#-jIZuS7vf3lMOruR92ifv)"><g transform="translate(687.3127033894011 1712.0851230494293) rotate(0 26.810585021972656 11.249949896631279)"><text x="0" y="0" font-family="Virgil, Segoe UI Emoji" font-size="18.030851443404707px" fill="#1e1e1e" text-anchor="start" style="white-space: pre;" direction="ltr" dominant-baseline="text-before-edge">Stadt</text></g></g><g clip-path="url(#-jIZuS7vf3lMOruR92ifv)"><g stroke-linecap="round" transform="translate(1550.4583637626035 1804.6964063576277) rotate(0 70.17697409785035 20.17837629977845)"><path d="M10.09 0 C48.62 0, 87.15 0, 130.26 0 C136.99 0, 140.35 3.36, 140.35 10.09 C140.35 17.38, 140.35 24.66, 140.35 30.27 C140.35 36.99, 136.99 40.36, 130.26 40.36 C106.11 40.36, 81.96 40.36, 10.09 40.36 C3.36 40.36, 0 36.99, 0 30.27 C0 25.96, 0 21.66, 0 10.09 C0 3.36, 3.36 0, 10.09 0" stroke="none" stroke-width="0" fill="black"></path><path d="M10.09 0 C53.91 0, 97.73 0, 130.26 0 M10.09 0 C51.39 0, 92.69 0, 130.26 0 M130.26 0 C136.99 0, 140.35 3.36, 140.35 10.09 M130.26 0 C136.99 0, 140.35 3.36, 140.35 10.09 M140.35 10.09 C140.35 16.23, 140.35 22.37, 140.35 30.27 M140.35 10.09 C140.35 16.41, 140.35 22.73, 140.35 30.27 M140.35 30.27 C140.35 36.99, 136.99 40.36, 130.26 40.36 M140.35 30.27 C140.35 36.99, 136.99 40.36, 130.26 40.36 M130.26 40.36 C103.31 40.36, 76.35 40.36, 10.09 40.36 M130.26 40.36 C97.78 40.36, 65.29 40.36, 10.09 40.36 M10.09 40.36 C3.36 40.36, 0 36.99, 0 30.27 M10.09 40.36 C3.36 40.36, 0 36.99, 0 30.27 M0 30.27 C0 23.15, 0 16.02, 0 10.09 M0 30.27 C0 22.22, 0 14.16, 0 10.09 M0 10.09 C0 3.36, 3.36 0, 10.09 0 M0 10.09 C0 3.36, 3.36 0, 10.09 0" stroke="white" stroke-width="1" fill="none"></path></g></g><g clip-path="url(#-jIZuS7vf3lMOruR92ifv)"><g transform="translate(1588.042918615967 1813.8480622784598) rotate(0 28.7109375 11.5)"><text x="28.7109375" y="0" font-family="Helvetica, Segoe UI Emoji" font-size="20px" fill="white" text-anchor="middle" style="white-space: pre;" direction="ltr" dominant-baseline="text-before-edge">Weiter</text></g></g><g transform="translate(487.6132824201976 1198.1248835462097) rotate(0 87.3948974609375 8.75)"><text x="0" y="0" font-family="Assistant, Segoe UI Emoji" font-size="14px" fill="#999999" text-anchor="start" style="white-space: pre;" direction="ltr" dominant-baseline="text-before-edge">Home Page - Signup Popup (1)</text></g><rect transform="translate(487.6132824201976 1218.6248835462097) rotate(0 698.16015625 415.95703125000006)" width="1396.3203124999998px" height="831.9140625000002px" rx="8" ry="8" fill="none" stroke="#bbb" stroke-width="2"></rect><g stroke-linecap="round"><g transform="translate(10.626357246472367 1524.6454107143572) rotate(0 195.85879491336007 90.59101883589528)" fill-rule="evenodd"><path d="M0.37 0.01 L-0.91 176.54 L391.17 180.25 L392.45 39.83 L344.9 -0.31 L1.65 -0.47" stroke="none" stroke-width="0" fill="#fff" fill-rule="evenodd"></path><path d="M0 0 C0.76 39.76, 1.34 77.33, 0 178.15 M0 0 C-1.23 58.12, -0.33 117.09, 0 178.15 M0 178.15 C130.77 179.89, 258.99 180.42, 391.72 181.18 M0 178.15 C146.38 177.61, 292.62 178.43, 391.72 181.18 M391.72 181.18 C392.86 147.88, 392.33 112.36, 390.71 40.49 M391.72 181.18 C391.42 136.66, 390.53 92.56, 390.71 40.49 M390.71 40.49 C371.92 27.79, 354.77 11.12, 343.13 1.1 M390.71 40.49 C372.23 24.64, 352.21 9.27, 343.13 1.1 M343.13 1.1 C257.2 0.45, 172.09 -0.9, 0 0 M343.13 1.1 C209.98 -0.43, 76.04 -1.35, 0 0 M0 0 C0 0, 0 0, 0 0 M0 0 C0 0, 0 0, 0 0" stroke="#1e1e1e" stroke-width="1" fill="none"></path></g></g><mask></mask><g transform="translate(21.109629168746892 1539.5115474447766) rotate(0 93.27933502197266 15.094325754633303)"><text x="0" y="0" font-family="Virgil, Segoe UI Emoji" font-size="24.150921207413287px" fill="#1e1e1e" text-anchor="start" style="white-space: pre;" direction="ltr" dominant-baseline="text-before-edge">Invoice address</text></g><g stroke-linecap="round"><g transform="translate(352.75456421215324 1525.1131809309327) rotate(0 24.868658370078855 22.12889092252783)" fill-rule="evenodd"><path d="M-0.57 0.92 L-0.91 43.57 L48.2 43.22 L49.71 38.31 L-0.1 -0.26" stroke="none" stroke-width="0" fill="#868e96" fill-rule="evenodd"></path><path d="M0 0 C0.39 17.28, -0.34 33.88, 0 44.26 M0 0 C0.14 11.99, -0.27 24.77, 0 44.26 M0 44.26 C13.74 44.7, 26.68 44.37, 48.89 43.84 M0 44.26 C13.09 44.03, 27.08 44.36, 48.89 43.84 M48.89 43.84 C49.26 41.77, 49.29 39.67, 49.74 38.36 M48.89 43.84 C49.24 42.42, 49.39 40.67, 49.74 38.36 M49.74 38.36 C30.99 23.73, 10.05 8.54, 0 0 M49.74 38.36 C35.26 27.83, 21 16.02, 0 0 M0 0 C0 0, 0 0, 0 0 M0 0 C0 0, 0 0, 0 0" stroke="#1e1e1e" stroke-width="1" fill="none"></path></g></g><mask></mask><g stroke-linecap="round"><g transform="translate(411.0441230303031 1619.024789308605) rotate(0 131.38855826128736 -27.006992785931402)"><path d="M0 0 C43.8 -9, 218.98 -45.01, 262.78 -54.01" stroke="#f08c00" stroke-width="4.5" fill="none" stroke-dasharray="8 12"></path></g></g><mask></mask><g clip-path="url(#m-e6FfCLtXKYcn2QO6Axw)"><g stroke-linecap="round" transform="translate(2356.1307899828325 1283.1423526441988) rotate(0 639.9999999999999 360)"><path d="M0 0 C440.59 0, 881.18 0, 1280 0 M0 0 C284.93 0, 569.87 0, 1280 0 M1280 0 C1280 157.91, 1280 315.82, 1280 720 M1280 0 C1280 146.45, 1280 292.89, 1280 720 M1280 720 C906.07 720, 532.14 720, 0 720 M1280 720 C776.06 720, 272.11 720, 0 720 M0 720 C0 451.52, 0 183.04, 0 0 M0 720 C0 435.42, 0 150.84, 0 0" stroke="#ced4da" stroke-width="4" fill="none"></path></g></g><g clip-path="url(#m-e6FfCLtXKYcn2QO6Axw)"><g stroke-linecap="round"><g transform="translate(2632.890064237058 1282.6934803808567) rotate(0 0.67626953125 360.6884765625)"><path d="M-1.11 0.48 C-0.62 120.56, 1.87 600.44, 2.42 720.45 M0.51 -0.31 C0.98 119.9, 1.8 601.21, 2.03 721.5" stroke="#bbb" stroke-width="2" fill="none"></path></g></g><mask></mask></g><g clip-path="url(#m-e6FfCLtXKYcn2QO6Axw)"><g transform="translate(2660.830209594774 1316.700285452014) rotate(0 331.6583251953125 110.68798828125)"><text x="0" y="0" font-family="Helvetica, Segoe UI Emoji" font-size="96.25042459239128px" fill="#1e1e1e" text-anchor="start" style="white-space: pre;" direction="ltr" dominant-baseline="text-before-edge">Willkommen </text><text x="0" y="110.68798828124997" font-family="Helvetica, Segoe UI Emoji" font-size="96.25042459239128px" fill="#1e1e1e" text-anchor="start" style="white-space: pre;" direction="ltr" dominant-baseline="text-before-edge">Herr Paul Peter</text></g></g><g clip-path="url(#m-e6FfCLtXKYcn2QO6Axw)"><g stroke-linecap="round" transform="translate(2683.316691805937 1581.4236244507274) rotate(0 452.22609401884165 191.05643458574332)"><path d="M0 0 C350.95 -2.57, 703.57 -2.05, 904.45 0 M0 0 C301.08 -1.34, 602.24 -1.25, 904.45 0 M904.45 0 C902.17 83.15, 902.42 164.35, 904.45 382.11 M904.45 0 C904.72 141.13, 904.49 283.41, 904.45 382.11 M904.45 382.11 C675.51 383.29, 444.89 383.29, 0 382.11 M904.45 382.11 C599.76 380.43, 295.34 380.14, 0 382.11 M0 382.11 C-2.41 285.4, -1.89 189.95, 0 0 M0 382.11 C1.33 231.24, 1.2 78.79, 0 0" stroke="#000000" stroke-width="1" fill="none"></path></g></g><g clip-path="url(#m-e6FfCLtXKYcn2QO6Axw)"><g stroke-linecap="round" transform="translate(2772.9842442991476 1656.8768668782739) rotate(0 44.54548100742841 44.54548100742835)"><path d="M40.95 0.92 C48.71 -0.25, 59.11 2.21, 66.29 5.81 C73.46 9.4, 80.17 15.67, 84.01 22.5 C87.85 29.32, 89.97 38.8, 89.33 46.76 C88.68 54.72, 84.84 63.57, 80.15 70.26 C75.47 76.95, 68.61 83.93, 61.22 86.92 C53.84 89.91, 43.81 89.93, 35.85 88.21 C27.89 86.48, 19.15 82.18, 13.47 76.58 C7.78 70.97, 3.66 62.42, 1.73 54.57 C-0.2 46.73, -0.85 37.24, 1.87 29.51 C4.6 21.79, 11.21 13.09, 18.06 8.22 C24.92 3.34, 38.68 1.47, 42.99 0.25 C47.31 -0.96, 43.93 0.15, 43.96 0.93 M59.88 1.68 C67.3 3.42, 73.81 9.58, 78.43 16.2 C83.05 22.81, 86.72 33.36, 87.59 41.39 C88.45 49.41, 87.1 57.23, 83.63 64.36 C80.16 71.5, 73.7 79.96, 66.78 84.2 C59.87 88.44, 50.31 90.4, 42.13 89.8 C33.95 89.2, 24.17 85.47, 17.72 80.6 C11.28 75.74, 6.48 68.15, 3.46 60.63 C0.44 53.11, -1.74 43.46, -0.39 35.51 C0.95 27.55, 5.74 18.67, 11.52 12.89 C17.31 7.11, 26.52 2.67, 34.32 0.85 C42.12 -0.97, 54.15 1.72, 58.34 1.98 C62.53 2.24, 59.59 1.75, 59.44 2.41" stroke="none" stroke-width="0" fill="black"></path><path d="M56.52 1.44 C64.01 2.96, 72.28 8.82, 77.67 14.65 C83.05 20.47, 87.69 28.61, 88.83 36.38 C89.97 44.14, 87.74 53.61, 84.5 61.24 C81.26 68.87, 75.86 77.56, 69.39 82.15 C62.92 86.75, 53.58 88.75, 45.68 88.81 C37.78 88.86, 28.84 86.49, 22.01 82.47 C15.17 78.45, 8.37 71.85, 4.66 64.69 C0.94 57.54, -1.34 47.72, -0.29 39.55 C0.76 31.38, 5.56 21.82, 10.94 15.67 C16.32 9.52, 23.15 4.73, 31.98 2.63 C40.82 0.54, 57.83 2.3, 63.94 3.11 C70.05 3.92, 69.01 6.55, 68.63 7.51 M31.36 2.24 C38.51 -0.53, 48.67 1.08, 56.3 3.21 C63.93 5.34, 71.77 9.12, 77.14 15 C82.51 20.88, 86.96 30.23, 88.52 38.47 C90.08 46.71, 89.93 57.28, 86.49 64.41 C83.04 71.54, 74.82 76.92, 67.86 81.26 C60.91 85.61, 52.7 90.55, 44.78 90.49 C36.86 90.43, 27.13 85.44, 20.35 80.9 C13.58 76.36, 7.69 70.25, 4.15 63.25 C0.61 56.25, -2.16 46.64, -0.9 38.92 C0.35 31.19, 6.2 23.1, 11.68 16.89 C17.16 10.69, 28.3 4.2, 31.95 1.68 C35.6 -0.85, 33.47 1.22, 33.58 1.75" stroke="#000000" stroke-width="1" fill="none"></path></g></g><g clip-path="url(#m-e6FfCLtXKYcn2QO6Axw)"><g stroke-linecap="round"><g transform="translate(2701.021161518992 1935.7163825872415) rotate(0 422.5299750583945 -115.09160397470282)" fill-rule="evenodd"><path d="M0.69 1.31 L293.89 -168.49 L431.83 -105.07 L662.96 -240.72 L845.51 9.16 L0.07 0.23" stroke="none" stroke-width="0" fill="black" fill-rule="evenodd"></path><path d="M0 0 C84.19 -50.21, 168.82 -97.35, 293.31 -166.81 M0 0 C90.85 -53.32, 182.25 -104.72, 293.31 -166.81 M293.31 -166.81 C345.59 -144.18, 395.39 -120.12, 431.27 -105.93 M293.31 -166.81 C326.02 -152.3, 359.97 -137.9, 431.27 -105.93 M431.27 -105.93 C479.98 -130.55, 526.1 -160.05, 664.63 -240.88 M431.27 -105.93 C524.43 -159.54, 617.4 -214.31, 664.63 -240.88 M664.63 -240.88 C719.29 -169.19, 770.08 -94.56, 845.06 10.7 M664.63 -240.88 C735.44 -140.84, 805.74 -41.62, 845.06 10.7 M845.06 10.7 C543.05 7.73, 240.74 2.84, 0 0 M845.06 10.7 C661.1 5.71, 477.31 3.55, 0 0 M0 0 C0 0, 0 0, 0 0 M0 0 C0 0, 0 0, 0 0" stroke="#000000" stroke-width="1" fill="none"></path></g></g><mask></mask></g><g clip-path="url(#m-e6FfCLtXKYcn2QO6Axw)"><g stroke-linecap="round" transform="translate(2633.232237702964 1283.453996179975) rotate(0 503.00695269974335 360.0109060460612)"><path d="M0 0 C355.08 3.17, 709.65 3.26, 1006.01 0 M1006.01 0 C1002.86 240.56, 1004.12 481.33, 1006.01 720.02 M1006.01 720.02 C731.97 720.3, 457.1 720, 0 720.02 M0 720.02 C1.76 454.07, 0.56 186.44, 0 0" stroke="#bbb" stroke-width="2.5" fill="none" stroke-dasharray="1.5 8"></path></g></g><g clip-path="url(#m-e6FfCLtXKYcn2QO6Axw)"><g transform="translate(2331.364945642561 1626.527230579639) rotate(270.23675559051935 161.49594116210938 22.5)"><text x="0" y="0" font-family="Virgil, Segoe UI Emoji" font-size="36px" fill="#f08c00" text-anchor="start" style="white-space: pre;" direction="ltr" dominant-baseline="text-before-edge">Sidebar Component</text></g></g><g clip-path="url(#m-e6FfCLtXKYcn2QO6Axw)"><g stroke-opacity="0.5" fill-opacity="0.5" stroke-linecap="round" transform="translate(2358.932463434531 1285.6433258868906) rotate(0 639.9999999999999 360)"><path d="M0 0 L1280 0 L1280 720 L0 720" stroke="none" stroke-width="0" fill="black"></path><path d="M0 0 C371.35 0, 742.7 0, 1280 0 M0 0 C375.69 0, 751.38 0, 1280 0 M1280 0 C1280 269.61, 1280 539.22, 1280 720 M1280 0 C1280 273.35, 1280 546.71, 1280 720 M1280 720 C963.77 720, 647.54 720, 0 720 M1280 720 C922 720, 563.99 720, 0 720 M0 720 C0 497.12, 0 274.24, 0 0 M0 720 C0 474.17, 0 228.35, 0 0" stroke="#ced4da" stroke-width="4" fill="none"></path></g></g><g clip-path="url(#m-e6FfCLtXKYcn2QO6Axw)"><g stroke-linecap="round" transform="translate(2456.536399574108 1386.690409307467) rotate(0 540.8154087791804 251.43127396309507)"><path d="M-1.94 -1.44 L1081.32 -1.09 L1082.09 502.58 L1.58 504.13" stroke="none" stroke-width="0" fill="white"></path><path d="M0 0 C325.42 2.93, 652.33 4.2, 1081.63 0 M0 0 C339.85 -2.96, 680.05 -3.29, 1081.63 0 M1081.63 0 C1083.79 169.51, 1083.68 337.4, 1081.63 502.86 M1081.63 0 C1079.98 125.41, 1079.47 251.67, 1081.63 502.86 M1081.63 502.86 C797.7 500.28, 512.08 500.77, 0 502.86 M1081.63 502.86 C731.42 506.84, 381.7 507.4, 0 502.86 M0 502.86 C1.62 357.45, 1.89 213.93, 0 0 M0 502.86 C0.32 303.07, -0.21 103.45, 0 0" stroke="#000000" stroke-width="1" fill="none"></path></g></g><g clip-path="url(#m-e6FfCLtXKYcn2QO6Axw)"><g transform="translate(2484.6085844547715 1409.7263707559118) rotate(0 172.1337890625 20.69999999999999)"><text x="0" y="0" font-family="Helvetica, Segoe UI Emoji" font-size="36px" fill="#000000" text-anchor="start" style="white-space: pre;" direction="ltr" dominant-baseline="text-before-edge">Neukundenaufnahme</text></g></g><g clip-path="url(#m-e6FfCLtXKYcn2QO6Axw)"><g transform="translate(2489.6573451215486 1466.057718500938) rotate(0 389.1357421875001 16.100000000000023)"><text x="0" y="0" font-family="Helvetica, Segoe UI Emoji" font-size="28px" fill="#1e1e1e" text-anchor="start" style="white-space: pre;" direction="ltr" dominant-baseline="text-before-edge">Bitte geben Sie an, an wen die Rechnung addressiert sein soll.</text></g></g><g clip-path="url(#m-e6FfCLtXKYcn2QO6Axw)"><g stroke-linecap="round" transform="translate(2491.568375526467 1547.4646611900835) rotate(0 159.31062701714575 22.499899793262557)"><path d="M0 0 C118.28 0.5, 234.88 1.66, 318.62 0 M0 0 C75.77 -0.91, 152.57 -1.01, 318.62 0 M318.62 0 C319.13 10.64, 317.25 17.3, 318.62 45 M318.62 0 C317.98 18.91, 317.78 35.72, 318.62 45 M318.62 45 C226.65 46.28, 131.31 47.2, 0 45 M318.62 45 C193.3 43.32, 67.28 43.55, 0 45 M0 45 C-0.64 30.81, -1.68 12.06, 0 0 M0 45 C0.28 34.66, 0.66 25.27, 0 0" stroke="#000000" stroke-width="1" fill="none"></path></g></g><g clip-path="url(#m-e6FfCLtXKYcn2QO6Axw)"><g transform="translate(2496.7214885152657 1517.1004532468496) rotate(0 34.39219665527355 11.249949896631279)"><text x="0" y="0" font-family="Virgil, Segoe UI Emoji" font-size="18.030851443404707px" fill="#1e1e1e" text-anchor="start" style="white-space: pre;" direction="ltr" dominant-baseline="text-before-edge">Vorname</text></g></g><g clip-path="url(#m-e6FfCLtXKYcn2QO6Axw)"><g stroke-linecap="round" transform="translate(2840.0128602098803 1546.6990133018999) rotate(0 159.31062701714586 22.499899793262557)"><path d="M0 0 C92.22 -1.16, 187.15 -2.31, 318.62 0 M0 0 C124.77 -2.13, 250.21 -1.52, 318.62 0 M318.62 0 C320.34 16.04, 318.91 32.62, 318.62 45 M318.62 0 C318.25 18.02, 319.24 36.54, 318.62 45 M318.62 45 C242.19 45.04, 162.04 45.3, 0 45 M318.62 45 C220.92 46.61, 122.43 45.86, 0 45 M0 45 C-1.37 25.31, -1.16 9.19, 0 0 M0 45 C0.69 34.6, 0.39 23.42, 0 0" stroke="#000000" stroke-width="1" fill="none"></path></g></g><g clip-path="url(#m-e6FfCLtXKYcn2QO6Axw)"><g transform="translate(2845.1659731986792 1516.334805358666) rotate(0 41.65827941894531 11.249949896631279)"><text x="0" y="0" font-family="Virgil, Segoe UI Emoji" font-size="18.030851443404707px" fill="#1e1e1e" text-anchor="start" style="white-space: pre;" direction="ltr" dominant-baseline="text-before-edge">Nachname</text></g></g><g clip-path="url(#m-e6FfCLtXKYcn2QO6Axw)"><g stroke-linecap="round" transform="translate(2492.262768657146 1642.3490504316198) rotate(0 159.31062701714586 22.499899793262557)"><path d="M0 0 C108.45 1.79, 215.38 -0.32, 318.62 0 M0 0 C80.12 -1.22, 158.84 -0.12, 318.62 0 M318.62 0 C320.65 10.49, 318.34 23.55, 318.62 45 M318.62 0 C318.48 14.09, 319.13 30.06, 318.62 45 M318.62 45 C227.05 43.87, 135.84 45.94, 0 45 M318.62 45 C192.85 44.33, 65.48 44.19, 0 45 M0 45 C-0.77 36.33, 0.04 28.32, 0 0 M0 45 C-0.68 28.98, -0.91 12.07, 0 0" stroke="#000000" stroke-width="1" fill="none"></path></g></g><g clip-path="url(#m-e6FfCLtXKYcn2QO6Axw)"><g transform="translate(2497.415881645945 1611.984842488386) rotate(0 31.05664825439453 11.249949896631279)"><text x="0" y="0" font-family="Virgil, Segoe UI Emoji" font-size="18.030851443404707px" fill="#1e1e1e" text-anchor="start" style="white-space: pre;" direction="ltr" dominant-baseline="text-before-edge">Strae</text></g></g><g clip-path="url(#m-e6FfCLtXKYcn2QO6Axw)"><g stroke-linecap="round" transform="translate(2840.9128744514164 1642.9241033287553) rotate(0 159.31062701714586 22.499899793262557)"><path d="M0 0 C113.04 -0.52, 226.97 1.24, 318.62 0 M0 0 C75.78 -1.84, 151.43 -2.01, 318.62 0 M318.62 0 C319.18 13.73, 317.18 24.38, 318.62 45 M318.62 0 C317.85 9.36, 318.68 19.72, 318.62 45 M318.62 45 C235.93 46.42, 152.43 45.58, 0 45 M318.62 45 C223.81 45.1, 130.6 44.56, 0 45 M0 45 C1.48 34.57, 0.93 23.45, 0 0 M0 45 C-0.35 29.38, -0.11 14.85, 0 0" stroke="#000000" stroke-width="1" fill="none"></path></g></g><g clip-path="url(#m-e6FfCLtXKYcn2QO6Axw)"><g transform="translate(2846.0659874402154 1612.5598953855215) rotate(0 50.54705810546875 11.249949896631279)"><text x="0" y="0" font-family="Virgil, Segoe UI Emoji" font-size="18.030851443404707px" fill="#1e1e1e" text-anchor="start" style="white-space: pre;" direction="ltr" dominant-baseline="text-before-edge">Hausnummer</text></g></g><g clip-path="url(#m-e6FfCLtXKYcn2QO6Axw)"><g stroke-linecap="round" transform="translate(2844.5876740526537 1741.0616155357866) rotate(0 159.31062701714586 22.499899793262557)"><path d="M0 0 C112.05 0.79, 226.03 3.17, 318.62 0 M0 0 C77 -2.03, 154.18 -1.55, 318.62 0 M318.62 0 C319 12.3, 320.46 19.79, 318.62 45 M318.62 0 C318.54 10.6, 318.72 22.84, 318.62 45 M318.62 45 C252.95 46.32, 184.42 47.61, 0 45 M318.62 45 C242.25 42.65, 167.13 42.77, 0 45 M0 45 C1.33 31.45, 1.06 15.03, 0 0 M0 45 C-0.45 30.87, 1.04 15.52, 0 0" stroke="#000000" stroke-width="1" fill="none"></path></g></g><g clip-path="url(#m-e6FfCLtXKYcn2QO6Axw)"><g transform="translate(2849.7407870414527 1710.6974075925527) rotate(0 53.305641174316406 11.249949896631279)"><text x="0" y="0" font-family="Virgil, Segoe UI Emoji" font-size="18.030851443404707px" fill="#1e1e1e" text-anchor="start" style="white-space: pre;" direction="ltr" dominant-baseline="text-before-edge">Postleitzahl</text></g></g><g clip-path="url(#m-e6FfCLtXKYcn2QO6Axw)"><g stroke-linecap="round" transform="translate(2495.050282390056 1745.3302999229936) rotate(0 159.31062701714586 22.499899793262557)"><path d="M0 0 C63.94 -2.37, 130.9 -2.15, 318.62 0 M0 0 C103.76 -2.27, 208.42 -1.97, 318.62 0 M318.62 0 C318.11 17.84, 320.92 35.05, 318.62 45 M318.62 0 C317.75 10.42, 319.22 20.98, 318.62 45 M318.62 45 C221.25 46.56, 124.48 45.75, 0 45 M318.62 45 C246.17 43.68, 173.96 44.22, 0 45 M0 45 C0.44 27.92, -0.66 12.07, 0 0 M0 45 C-0.25 27.87, 0.01 10.95, 0 0" stroke="#000000" stroke-width="1" fill="none"></path></g></g><g clip-path="url(#m-e6FfCLtXKYcn2QO6Axw)"><g transform="translate(2500.203395378855 1714.9660919797598) rotate(0 26.810585021972656 11.249949896631279)"><text x="0" y="0" font-family="Virgil, Segoe UI Emoji" font-size="18.030851443404707px" fill="#1e1e1e" text-anchor="start" style="white-space: pre;" direction="ltr" dominant-baseline="text-before-edge">Stadt</text></g></g><g clip-path="url(#m-e6FfCLtXKYcn2QO6Axw)"><g transform="translate(2499.6954994510334 1555.7046083766045) rotate(0 19.949989318847656 12.5)"><text x="0" y="0" font-family="Virgil, Segoe UI Emoji" font-size="20px" fill="#1e1e1e" text-anchor="start" style="white-space: pre;" direction="ltr" dominant-baseline="text-before-edge">Max</text></g></g><g clip-path="url(#m-e6FfCLtXKYcn2QO6Axw)"><g transform="translate(2851.6954943647697 1555.7046083766045) rotate(0 56.52995300292969 12.5)"><text x="0" y="0" font-family="Virgil, Segoe UI Emoji" font-size="20px" fill="#1e1e1e" text-anchor="start" style="white-space: pre;" direction="ltr" dominant-baseline="text-before-edge">Mustermann</text></g></g><g clip-path="url(#m-e6FfCLtXKYcn2QO6Axw)"><g transform="translate(2502.8954963992755 1651.7045676865002) rotate(0 67.98993682861328 12.5)"><text x="0" y="0" font-family="Virgil, Segoe UI Emoji" font-size="20px" fill="#1e1e1e" text-anchor="start" style="white-space: pre;" direction="ltr" dominant-baseline="text-before-edge">Musterstrae</text></g></g><g clip-path="url(#m-e6FfCLtXKYcn2QO6Axw)"><g transform="translate(2505.54549029576 1755.8796266871514) rotate(0 63.279937744140625 12.5)"><text x="0" y="0" font-family="Virgil, Segoe UI Emoji" font-size="20px" fill="#1e1e1e" text-anchor="start" style="white-space: pre;" direction="ltr" dominant-baseline="text-before-edge">Musterstadt</text></g></g><g clip-path="url(#m-e6FfCLtXKYcn2QO6Axw)"><g transform="translate(2859.3651555687884 1753.6099205968594) rotate(0 55.349952697753906 12.5)"><text x="0" y="0" font-family="Virgil, Segoe UI Emoji" font-size="20px" fill="#1e1e1e" text-anchor="start" style="white-space: pre;" direction="ltr" dominant-baseline="text-before-edge">nicht valide</text></g></g><g clip-path="url(#m-e6FfCLtXKYcn2QO6Axw)"><g stroke-linecap="round" transform="translate(3359.2267518749923 1818.4553600878935) rotate(0 70.17697409785023 20.17837629977845)"><path d="M10.09 0 C53.01 0, 95.93 0, 130.26 0 C136.99 0, 140.35 3.36, 140.35 10.09 C140.35 14.59, 140.35 19.08, 140.35 30.27 C140.35 36.99, 136.99 40.36, 130.26 40.36 C91.76 40.36, 53.26 40.36, 10.09 40.36 C3.36 40.36, 0 36.99, 0 30.27 C0 26.09, 0 21.91, 0 10.09 C0 3.36, 3.36 0, 10.09 0" stroke="none" stroke-width="0" fill="black"></path><path d="M10.09 0 C47.51 0, 84.92 0, 130.26 0 M10.09 0 C42.31 0, 74.53 0, 130.26 0 M130.26 0 C136.99 0, 140.35 3.36, 140.35 10.09 M130.26 0 C136.99 0, 140.35 3.36, 140.35 10.09 M140.35 10.09 C140.35 17.79, 140.35 25.48, 140.35 30.27 M140.35 10.09 C140.35 17.44, 140.35 24.79, 140.35 30.27 M140.35 30.27 C140.35 36.99, 136.99 40.36, 130.26 40.36 M140.35 30.27 C140.35 36.99, 136.99 40.36, 130.26 40.36 M130.26 40.36 C94.32 40.36, 58.38 40.36, 10.09 40.36 M130.26 40.36 C85.32 40.36, 40.38 40.36, 10.09 40.36 M10.09 40.36 C3.36 40.36, 0 36.99, 0 30.27 M10.09 40.36 C3.36 40.36, 0 36.99, 0 30.27 M0 30.27 C0 23.59, 0 16.92, 0 10.09 M0 30.27 C0 23.27, 0 16.27, 0 10.09 M0 10.09 C0 3.36, 3.36 0, 10.09 0 M0 10.09 C0 3.36, 3.36 0, 10.09 0" stroke="white" stroke-width="1" fill="none"></path></g></g><g clip-path="url(#m-e6FfCLtXKYcn2QO6Axw)"><g transform="translate(3398.6834321216083 1826.1538779946682) rotate(0 28.7109375 11.5)"><text x="28.7109375" y="0" font-family="Helvetica, Segoe UI Emoji" font-size="20px" fill="white" text-anchor="middle" style="white-space: pre;" direction="ltr" dominant-baseline="text-before-edge">Weiter</text></g></g><g clip-path="url(#m-e6FfCLtXKYcn2QO6Axw)"><g transform="translate(2852.2087555240296 1657.086251671893) rotate(0 10.359992980957031 12.5)"><text x="0" y="0" font-family="Virgil, Segoe UI Emoji" font-size="20px" fill="#1e1e1e" text-anchor="start" style="white-space: pre;" direction="ltr" dominant-baseline="text-before-edge">18</text></g></g><g transform="translate(2300.503974409651 1201.0058524765402) rotate(0 92.24588775634766 8.75)"><text x="0" y="0" font-family="Assistant, Segoe UI Emoji" font-size="14px" fill="#999999" text-anchor="start" style="white-space: pre;" direction="ltr" dominant-baseline="text-before-edge">Home Page - Signup Popup (1.1)</text></g><rect transform="translate(2300.503974409651 1221.5058524765402) rotate(0 698.1601562499999 415.9570312500001)" width="1396.3203124999998px" height="831.9140625000002px" rx="8" ry="8" fill="none" stroke="#bbb" stroke-width="2"></rect><g stroke-linecap="round"><g transform="translate(1892.9965447721443 1489.7253924175711) rotate(0 197.7882427254848 -55.94330888557138)"><path d="M0 0 C34.09 3.87, 138.64 45.72, 204.57 23.21 C270.5 0.69, 363.74 -108.71, 395.58 -135.09" stroke="#e03131" stroke-width="4.5" fill="none" stroke-dasharray="8 12"></path></g><g transform="translate(1892.9965447721443 1489.7253924175711) rotate(0 197.7882427254848 -55.94330888557138)"><path d="M382.49 -108.1 C387.12 -117.64, 391.74 -127.18, 395.58 -135.09" stroke="#e03131" stroke-width="4.5" fill="none"></path></g><g transform="translate(1892.9965447721443 1489.7253924175711) rotate(0 197.7882427254848 -55.94330888557138)"><path d="M368.2 -122.82 C377.87 -127.16, 387.55 -131.49, 395.58 -135.09" stroke="#e03131" stroke-width="4.5" fill="none"></path></g></g><mask></mask><g stroke-linecap="round"><g transform="translate(2829.8606675363408 893.2029893911492) rotate(0 195.85879491336004 90.59101883589531)" fill-rule="evenodd"><path d="M1.77 -0.22 L-0.42 178.9 L392.73 179.95 L392.45 40.52 L341.93 0.47 L-1.83 1.58" stroke="none" stroke-width="0" fill="#fff" fill-rule="evenodd"></path><path d="M0 0 C-2.88 68.85, 0.31 136.99, 0 178.15 M0 0 C1.01 53.34, 0.69 108.73, 0 178.15 M0 178.15 C154.04 178.27, 305.2 178.97, 391.72 181.18 M0 178.15 C107.44 178.78, 214.53 180.61, 391.72 181.18 M391.72 181.18 C392.32 147.56, 393.27 117.27, 390.71 40.49 M391.72 181.18 C393.03 136.35, 391.09 90.15, 390.71 40.49 M390.71 40.49 C376.7 26.25, 360.23 16.36, 343.13 1.1 M390.71 40.49 C377.03 28.65, 363.11 17.45, 343.13 1.1 M343.13 1.1 C243.31 -0.15, 144.58 0.02, 0 0 M343.13 1.1 C262.92 2.34, 184.01 2.54, 0 0 M0 0 C0 0, 0 0, 0 0 M0 0 C0 0, 0 0, 0 0" stroke="#1e1e1e" stroke-width="1" fill="none"></path></g></g><mask></mask><g transform="translate(2840.3439394586158 908.0691261215686) rotate(0 156.61856079101562 38.933631367665065)"><text x="0" y="0" font-family="Virgil, Segoe UI Emoji" font-size="31.14690509413204px" fill="#1e1e1e" text-anchor="start" style="white-space: pre;" direction="ltr" dominant-baseline="text-before-edge">checked in server if </text><text x="0" y="38.933631367665065" font-family="Virgil, Segoe UI Emoji" font-size="31.14690509413204px" fill="#1e1e1e" text-anchor="start" style="white-space: pre;" direction="ltr" dominant-baseline="text-before-edge">valid</text></g><g stroke-linecap="round"><g transform="translate(3171.9888745020216 893.6707596077247) rotate(0 24.868658370078947 22.128890922527837)" fill-rule="evenodd"><path d="M-0.23 0.15 L-0.59 45.11 L48.68 43.55 L50.73 38.53 L-0.12 -0.61" stroke="none" stroke-width="0" fill="#868e96" fill-rule="evenodd"></path><path d="M0 0 C0.2 16.63, 0.13 32.31, 0 44.26 M0 0 C0.41 10.51, 0.38 22.21, 0 44.26 M0 44.26 C18.17 43.67, 36.71 43.76, 48.89 43.84 M0 44.26 C10.01 43.79, 20.48 43.96, 48.89 43.84 M48.89 43.84 C49.14 42.31, 49.16 41.34, 49.74 38.36 M48.89 43.84 C49.22 42.01, 49.37 40.06, 49.74 38.36 M49.74 38.36 C38.97 30.43, 28.2 22.17, 0 0 M49.74 38.36 C36.04 27.96, 22.45 17.47, 0 0 M0 0 C0 0, 0 0, 0 0 M0 0 C0 0, 0 0, 0 0" stroke="#1e1e1e" stroke-width="1" fill="none"></path></g></g><mask></mask><g stroke-linecap="round"><g transform="translate(3033.4737401592 1077.2703849005607) rotate(0 4.395510057385991 69.99525423171258)"><path d="M0 0 C1.47 23.33, 7.33 116.66, 8.79 139.99" stroke="#f08c00" stroke-width="4.5" fill="none" stroke-dasharray="8 12"></path></g></g><mask></mask><g transform="translate(2520.1794260421393 333.5905108452864) rotate(0 154.5068359375 149.5)"><text x="0" y="0" font-family="Helvetica, Segoe UI Emoji" font-size="20px" fill="#1e1e1e" text-anchor="start" style="white-space: pre;" direction="ltr" dominant-baseline="text-before-edge">Name                  Grundversorgung</text><text x="0" y="23" font-family="Helvetica, Segoe UI Emoji" font-size="20px" fill="#1e1e1e" text-anchor="start" style="white-space: pre;" direction="ltr" dominant-baseline="text-before-edge"></text><text x="0" y="46" font-family="Helvetica, Segoe UI Emoji" font-size="20px" fill="#1e1e1e" text-anchor="start" style="white-space: pre;" direction="ltr" dominant-baseline="text-before-edge">Beschreibung      Infotext</text><text x="0" y="69" font-family="Helvetica, Segoe UI Emoji" font-size="20px" fill="#1e1e1e" text-anchor="start" style="white-space: pre;" direction="ltr" dominant-baseline="text-before-edge"></text><text x="0" y="92" font-family="Helvetica, Segoe UI Emoji" font-size="20px" fill="#1e1e1e" text-anchor="start" style="white-space: pre;" direction="ltr" dominant-baseline="text-before-edge">Preis                    2</text><text x="0" y="115" font-family="Helvetica, Segoe UI Emoji" font-size="20px" fill="#1e1e1e" text-anchor="start" style="white-space: pre;" direction="ltr" dominant-baseline="text-before-edge"></text><text x="0" y="138" font-family="Helvetica, Segoe UI Emoji" font-size="20px" fill="#1e1e1e" text-anchor="start" style="white-space: pre;" direction="ltr" dominant-baseline="text-before-edge">Einheit                  ct/m3</text><text x="0" y="161" font-family="Helvetica, Segoe UI Emoji" font-size="20px" fill="#1e1e1e" text-anchor="start" style="white-space: pre;" direction="ltr" dominant-baseline="text-before-edge"></text><text x="0" y="184" font-family="Helvetica, Segoe UI Emoji" font-size="20px" fill="#1e1e1e" text-anchor="start" style="white-space: pre;" direction="ltr" dominant-baseline="text-before-edge">Mindestlaufzeit     0</text><text x="0" y="207" font-family="Helvetica, Segoe UI Emoji" font-size="20px" fill="#1e1e1e" text-anchor="start" style="white-space: pre;" direction="ltr" dominant-baseline="text-before-edge">(Monate)</text><text x="0" y="230" font-family="Helvetica, Segoe UI Emoji" font-size="20px" fill="#1e1e1e" text-anchor="start" style="white-space: pre;" direction="ltr" dominant-baseline="text-before-edge"></text><text x="0" y="253" font-family="Helvetica, Segoe UI Emoji" font-size="20px" fill="#1e1e1e" text-anchor="start" style="white-space: pre;" direction="ltr" dominant-baseline="text-before-edge">K체ndigungsfrist     0</text><text x="0" y="276" font-family="Helvetica, Segoe UI Emoji" font-size="20px" fill="#1e1e1e" text-anchor="start" style="white-space: pre;" direction="ltr" dominant-baseline="text-before-edge">(Monate)</text></g><g stroke-linecap="round"><g transform="translate(1644.4560235412318 832.8680991958068) rotate(0 274.77710931105776 -157.17682495641992)"><path d="M0.49 0.29 C92.16 -52.34, 457.59 -262.93, 549.2 -315.46" stroke="#e03131" stroke-width="2.5" fill="none" stroke-dasharray="8 10"></path></g><g transform="translate(1644.4560235412318 832.8680991958068) rotate(0 274.77710931105776 -157.17682495641992)"><path d="M529.87 -292.51 C534.81 -298.55, 537.01 -302.39, 549.2 -315.46" stroke="#e03131" stroke-width="2.5" fill="none"></path></g><g transform="translate(1644.4560235412318 832.8680991958068) rotate(0 274.77710931105776 -157.17682495641992)"><path d="M519.64 -310.3 C527.02 -312.23, 531.61 -311.9, 549.2 -315.46" stroke="#e03131" stroke-width="2.5" fill="none"></path></g></g><mask></mask><g stroke-linecap="round"><g transform="translate(3174.7260881167413 603.4469246239307) rotate(0 -638.0924283203918 89.22696196418713)"><path d="M0.94 0.49 C-212.1 30.15, -1064.35 149.28, -1277.01 179.02" stroke="#e03131" stroke-width="2.5" fill="none" stroke-dasharray="8 10"></path></g><g transform="translate(3174.7260881167413 603.4469246239307) rotate(0 -638.0924283203918 89.22696196418713)"><path d="M-1250.51 164.96 C-1260.18 169.42, -1270.64 178.38, -1277.01 179.02" stroke="#e03131" stroke-width="2.5" fill="none"></path></g><g transform="translate(3174.7260881167413 603.4469246239307) rotate(0 -638.0924283203918 89.22696196418713)"><path d="M-1247.67 185.28 C-1258.65 181.64, -1270.24 182.47, -1277.01 179.02" stroke="#e03131" stroke-width="2.5" fill="none"></path></g></g><mask></mask></svg>