<svg version="1.1" xmlns="http://www.w3.org/2000/svg" viewBox="0 0 1540.6745210667439 1961.5398373839637" width="1540.6745210667439" height="1961.5398373839637">
  <!-- svg-source:excalidraw -->
  
  <defs>
    <style class="style-fonts">
      @font-face {
        font-family: "Virgil";
        src: url("https://file%2B.vscode-resource.vscode-cdn.net/c%3A/Users/lisa-/.vscode/extensions/pomdtr.excalidraw-editor-3.7.4/public//dist/excalidraw-assets/Virgil.woff2");
      }
      @font-face {
        font-family: "Cascadia";
        src: url("https://file%2B.vscode-resource.vscode-cdn.net/c%3A/Users/lisa-/.vscode/extensions/pomdtr.excalidraw-editor-3.7.4/public//dist/excalidraw-assets/Cascadia.woff2");
      }
      @font-face {
        font-family: "Assistant";
        src: url("https://file%2B.vscode-resource.vscode-cdn.net/c%3A/Users/lisa-/.vscode/extensions/pomdtr.excalidraw-editor-3.7.4/public//dist/excalidraw-assets/Assistant-Regular.woff2");
      }
    </style>
    <clipPath id="EP7EpgmgbJ_nFYASuNyA0">
            <rect transform="translate(134.3542085667441 1119.6257748839635) rotate(0 698.1601562499999 415.95703125000017)" width="1396.3203124999998" height="831.9140625000002">
          </rect>
        </clipPath>
  </defs>
  <rect x="0" y="0" width="1540.6745210667439" height="1961.5398373839637" fill="#ffffff"></rect><g clip-path="url(#EP7EpgmgbJ_nFYASuNyA0)"><g stroke-linecap="round" transform="translate(189.98102413992547 1181.262275051622) rotate(0 640 360)"><path d="M0 0 C491.07 0, 982.14 0, 1280 0 M0 0 C319.25 0, 638.5 0, 1280 0 M1280 0 C1280 196.46, 1280 392.92, 1280 720 M1280 0 C1280 275.85, 1280 551.7, 1280 720 M1280 720 C980.66 720, 681.32 720, 0 720 M1280 720 C895.74 720, 511.48 720, 0 720 M0 720 C0 562.01, 0 404.01, 0 0 M0 720 C0 517.94, 0 315.89, 0 0" stroke="#ced4da" stroke-width="4" fill="none"></path></g></g><g clip-path="url(#EP7EpgmgbJ_nFYASuNyA0)"><g stroke-linecap="round"><g transform="translate(466.74029839415107 1180.81340278828) rotate(0 0.67626953125 360.6884765625)"><path d="M-0.83 -0.46 C-0.52 119.62, 0.73 600.52, 1.15 720.77 M0.94 -1.75 C1.13 118.46, 0.07 601.33, 0.1 721.99" stroke="#bbb" stroke-width="2" fill="none"></path></g></g><mask></mask></g><g clip-path="url(#EP7EpgmgbJ_nFYASuNyA0)"><g transform="translate(225.945432092155 1852.7374045309352) rotate(0 29.653038024902344 11.152405278842025)"><text x="0" y="0" font-family="Helvetica, Segoe UI Emoji" font-size="19.39548744146448px" fill="#1e1e1e" text-anchor="start" style="white-space: pre;" direction="ltr" dominant-baseline="text-before-edge">Logout</text></g></g><g clip-path="url(#EP7EpgmgbJ_nFYASuNyA0)"><g transform="translate(494.68044375186673 1214.820207859437) rotate(0 331.6583251953125 110.68798828125)"><text x="0" y="0" font-family="Helvetica, Segoe UI Emoji" font-size="96.25042459239128px" fill="#1e1e1e" text-anchor="start" style="white-space: pre;" direction="ltr" dominant-baseline="text-before-edge">Willkommen </text><text x="0" y="110.68798828124997" font-family="Helvetica, Segoe UI Emoji" font-size="96.25042459239128px" fill="#1e1e1e" text-anchor="start" style="white-space: pre;" direction="ltr" dominant-baseline="text-before-edge">Herr Paul Peter</text></g></g><g clip-path="url(#EP7EpgmgbJ_nFYASuNyA0)"><g transform="translate(227.6447468783199 1210.3191714619734) rotate(0 80.01953125 103.5)"><text x="0" y="0" font-family="Helvetica, Segoe UI Emoji" font-size="20px" fill="#1e1e1e" text-anchor="start" style="white-space: pre;" direction="ltr" dominant-baseline="text-before-edge">Home</text><text x="0" y="23" font-family="Helvetica, Segoe UI Emoji" font-size="20px" fill="#1e1e1e" text-anchor="start" style="white-space: pre;" direction="ltr" dominant-baseline="text-before-edge"></text><text x="0" y="46" font-family="Helvetica, Segoe UI Emoji" font-size="20px" fill="#1e1e1e" text-anchor="start" style="white-space: pre;" direction="ltr" dominant-baseline="text-before-edge"></text><text x="0" y="69" font-family="Helvetica, Segoe UI Emoji" font-size="20px" fill="#1e1e1e" text-anchor="start" style="white-space: pre;" direction="ltr" dominant-baseline="text-before-edge">- Stadtwerke</text><text x="0" y="92" font-family="Helvetica, Segoe UI Emoji" font-size="20px" fill="#1e1e1e" text-anchor="start" style="white-space: pre;" direction="ltr" dominant-baseline="text-before-edge">    - Wasser</text><text x="0" y="115" font-family="Helvetica, Segoe UI Emoji" font-size="20px" fill="#1e1e1e" text-anchor="start" style="white-space: pre;" direction="ltr" dominant-baseline="text-before-edge">    - Strom</text><text x="0" y="138" font-family="Helvetica, Segoe UI Emoji" font-size="20px" fill="#1e1e1e" text-anchor="start" style="white-space: pre;" direction="ltr" dominant-baseline="text-before-edge">    - Wärmepumpe</text><text x="0" y="161" font-family="Helvetica, Segoe UI Emoji" font-size="20px" fill="#1e1e1e" text-anchor="start" style="white-space: pre;" direction="ltr" dominant-baseline="text-before-edge">    - Gas</text><text x="0" y="184" font-family="Helvetica, Segoe UI Emoji" font-size="20px" fill="#1e1e1e" text-anchor="start" style="white-space: pre;" direction="ltr" dominant-baseline="text-before-edge">    - Rechnungen</text></g></g><g clip-path="url(#EP7EpgmgbJ_nFYASuNyA0)"><g transform="translate(261.77299541249977 1770.292606330757) rotate(0 35.15625 12)"><text x="0" y="0" font-family="Cascadia, Segoe UI Emoji" font-size="20px" fill="#e03131" text-anchor="start" style="white-space: pre;" direction="ltr" dominant-baseline="text-before-edge">280 px</text></g></g><g clip-path="url(#EP7EpgmgbJ_nFYASuNyA0)"><g stroke-linecap="round"><g transform="translate(196.49126947062996 1795.457145058863) rotate(0 134.84397669856492 0.5122918446767244)"><path d="M0 0 C44.95 0.17, 224.74 0.85, 269.69 1.02 M0 0 C44.95 0.17, 224.74 0.85, 269.69 1.02" stroke="#e03131" stroke-width="4" fill="none"></path></g><g transform="translate(196.49126947062996 1795.457145058863) rotate(0 134.84397669856492 0.5122918446767244)"><path d="M0.06 -15 C0.04 -10.99, 0.03 -6.97, 0 0 M0.06 -15 C0.03 -9.06, 0.01 -3.13, 0 0" stroke="#e03131" stroke-width="4" fill="none"></path></g><g transform="translate(196.49126947062996 1795.457145058863) rotate(0 134.84397669856492 0.5122918446767244)"><path d="M-0.06 15 C-0.04 10.99, -0.03 6.97, 0 0 M-0.06 15 C-0.03 9.06, -0.01 3.13, 0 0" stroke="#e03131" stroke-width="4" fill="none"></path></g><g transform="translate(196.49126947062996 1795.457145058863) rotate(0 134.84397669856492 0.5122918446767244)"><path d="M269.63 16.02 C269.65 12.01, 269.66 8, 269.69 1.02 M269.63 16.02 C269.65 10.09, 269.68 4.15, 269.69 1.02" stroke="#e03131" stroke-width="4" fill="none"></path></g><g transform="translate(196.49126947062996 1795.457145058863) rotate(0 134.84397669856492 0.5122918446767244)"><path d="M269.74 -13.98 C269.73 -9.96, 269.71 -5.95, 269.69 1.02 M269.74 -13.98 C269.72 -8.04, 269.7 -2.1, 269.69 1.02" stroke="#e03131" stroke-width="4" fill="none"></path></g></g><mask></mask></g><g clip-path="url(#EP7EpgmgbJ_nFYASuNyA0)"><g stroke-linecap="round" transform="translate(517.1669259630298 1479.5435468581504) rotate(0 452.22609401884154 191.05643458574332)"><path d="M0 0 C246.51 -0.84, 494.34 -1.81, 904.45 0 M0 0 C346.48 -2.53, 692.74 -3.12, 904.45 0 M904.45 0 C904.04 88.88, 904.43 177.67, 904.45 382.11 M904.45 0 C904.9 115.05, 905.77 228.98, 904.45 382.11 M904.45 382.11 C705.94 380.07, 506.87 379.72, 0 382.11 M904.45 382.11 C650.78 384.06, 396.81 384.27, 0 382.11 M0 382.11 C-0.86 247.03, -0.12 109.54, 0 0 M0 382.11 C-2.44 250.95, -1.77 120.33, 0 0" stroke="#000000" stroke-width="1" fill="none"></path></g></g><g clip-path="url(#EP7EpgmgbJ_nFYASuNyA0)"><g stroke-linecap="round" transform="translate(606.8344784562405 1554.9967892856969) rotate(0 44.54548100742838 44.54548100742835)"><path d="M58.1 2.54 C65.59 4.14, 73.79 9.48, 78.83 15.51 C83.86 21.55, 87.2 30.58, 88.32 38.75 C89.45 46.93, 88.98 57.3, 85.55 64.56 C82.13 71.83, 74.88 78.31, 67.77 82.35 C60.66 86.4, 50.93 89.12, 42.92 88.83 C34.9 88.54, 26.19 84.99, 19.68 80.61 C13.17 76.24, 7.19 69.71, 3.86 62.58 C0.53 55.46, -1.5 45.7, -0.3 37.87 C0.91 30.04, 5.54 21.73, 11.09 15.6 C16.65 9.47, 24.62 3.23, 33.03 1.11 C41.44 -1.01, 56.04 1.97, 61.56 2.88 C67.07 3.8, 66.46 5.79, 66.12 6.59 M37.23 -0.62 C44.96 -2.17, 56.42 1.2, 63.9 4.91 C71.37 8.62, 78.02 15.2, 82.06 21.64 C86.1 28.07, 87.99 35.69, 88.14 43.52 C88.28 51.35, 87.38 61.76, 82.93 68.63 C78.47 75.5, 68.8 81.27, 61.43 84.74 C54.06 88.2, 46.28 90.57, 38.71 89.44 C31.14 88.31, 22.15 83.17, 16.01 77.96 C9.88 72.75, 4.24 65.71, 1.89 58.17 C-0.46 50.64, -0.09 40.49, 1.94 32.73 C3.97 24.96, 7.96 16.76, 14.04 11.58 C20.13 6.4, 34.29 3.31, 38.45 1.63 C42.61 -0.04, 38.92 0.82, 39.01 1.52" stroke="none" stroke-width="0" fill="black"></path><path d="M40.1 0.23 C47.61 -1.47, 57.95 0.36, 64.93 3.78 C71.92 7.19, 78.03 13.6, 82.01 20.74 C85.99 27.88, 88.9 38.54, 88.82 46.61 C88.75 54.67, 85.94 62.82, 81.55 69.15 C77.17 75.49, 69.91 81.34, 62.51 84.63 C55.1 87.92, 45.07 90.21, 37.11 88.88 C29.16 87.55, 20.6 82.03, 14.76 76.66 C8.92 71.29, 4.3 64.41, 2.07 56.66 C-0.16 48.9, -0.81 38, 1.38 30.13 C3.58 22.26, 6.88 14.2, 15.25 9.41 C23.62 4.63, 43.76 2.08, 51.59 1.41 C59.43 0.74, 62.39 4.74, 62.25 5.41 M55.41 2.75 C63 4.01, 72.34 9.1, 77.85 14.76 C83.37 20.42, 87.07 28.74, 88.52 36.71 C89.97 44.69, 89.86 55.12, 86.55 62.61 C83.23 70.11, 75.08 77.44, 68.62 81.67 C62.15 85.91, 55.63 87.91, 47.76 88.01 C39.89 88.12, 28.36 86.18, 21.38 82.3 C14.4 78.41, 9.3 71.76, 5.88 64.72 C2.47 57.67, 0.28 48, 0.87 40.04 C1.46 32.09, 4.36 23.27, 9.43 16.97 C14.5 10.68, 23.55 4.66, 31.27 2.28 C38.99 -0.1, 52.02 2.7, 55.77 2.68 C59.53 2.66, 54.17 1.51, 53.78 2.16" stroke="#000000" stroke-width="1" fill="none"></path></g></g><g clip-path="url(#EP7EpgmgbJ_nFYASuNyA0)"><g stroke-linecap="round"><g transform="translate(534.8713956760848 1833.836304994665) rotate(0 422.5299750583944 -115.09160397470282)" fill-rule="evenodd"><path d="M0.87 -1.8 L294.59 -167.69 L433.2 -105.75 L663.77 -241.95 L843.63 11.85 L0.62 -1.63" stroke="none" stroke-width="0" fill="black" fill-rule="evenodd"></path><path d="M0 0 C116.54 -65.35, 232.99 -132.15, 293.31 -166.81 M0 0 C114.2 -63.73, 229.12 -128.2, 293.31 -166.81 M293.31 -166.81 C329.46 -148.94, 365.75 -135.58, 431.27 -105.93 M293.31 -166.81 C342.05 -145.06, 391.27 -122.44, 431.27 -105.93 M431.27 -105.93 C521.5 -157.82, 612.27 -209.83, 664.63 -240.88 M431.27 -105.93 C511.23 -153.28, 590.42 -199.51, 664.63 -240.88 M664.63 -240.88 C730.17 -149.67, 792.06 -63.08, 845.06 10.7 M664.63 -240.88 C712.58 -176.3, 758.46 -111.62, 845.06 10.7 M845.06 10.7 C538.16 6.93, 229.81 3.3, 0 0 M845.06 10.7 C540.47 8, 235.36 4.26, 0 0 M0 0 C0 0, 0 0, 0 0 M0 0 C0 0, 0 0, 0 0" stroke="#000000" stroke-width="1" fill="none"></path></g></g><mask></mask></g><g clip-path="url(#EP7EpgmgbJ_nFYASuNyA0)"><g transform="translate(1154.9514105606295 1757.761662088424) rotate(0 35.15625 12)"><text x="0" y="0" font-family="Cascadia, Segoe UI Emoji" font-size="20px" fill="#e03131" text-anchor="start" style="white-space: pre;" direction="ltr" dominant-baseline="text-before-edge">1000px</text></g></g><g clip-path="url(#EP7EpgmgbJ_nFYASuNyA0)"><g stroke-linecap="round" transform="translate(467.082471860057 1181.5739185873983) rotate(0 503.00695269974335 360.0109060460611)"><path d="M0 0 C335.3 -0.25, 668.71 -0.2, 1006.01 0 M1006.01 0 C1008.43 197.96, 1008.05 395.17, 1006.01 720.02 M1006.01 720.02 C663.14 717.24, 318.78 716.09, 0 720.02 M0 720.02 C2.83 573.49, 2.48 428.09, 0 0" stroke="#bbb" stroke-width="2.5" fill="none" stroke-dasharray="1.5 8"></path></g></g><g clip-path="url(#EP7EpgmgbJ_nFYASuNyA0)"><g stroke-linecap="round"><g transform="translate(228.80690769906414 1240.5593658111334) rotate(0 33.58539589118027 0.37108822958737164)"><path d="M-0.87 -0.72 C10.21 -0.82, 54.85 0.16, 66.38 0.44 M0.88 1.52 C12.35 2.11, 57.46 1.68, 68.67 1.81" stroke="#1e1e1e" stroke-width="2" fill="none"></path></g></g><mask></mask></g><g clip-path="url(#EP7EpgmgbJ_nFYASuNyA0)"><g stroke-linecap="round"><g transform="translate(467.57235928886166 1795.5529486183334) rotate(0 500.3111115356339 0.004717799467471195)"><path d="M0 0 C166.77 0, 833.85 0.01, 1000.62 0.01 M0 0 C166.77 0, 833.85 0.01, 1000.62 0.01" stroke="#e03131" stroke-width="4" fill="none"></path></g><g transform="translate(467.57235928886166 1795.5529486183334) rotate(0 500.3111115356339 0.004717799467471195)"><path d="M0 -15 C0 -11.58, 0 -8.17, 0 0 M0 -15 C0 -9.8, 0 -4.59, 0 0" stroke="#e03131" stroke-width="4" fill="none"></path></g><g transform="translate(467.57235928886166 1795.5529486183334) rotate(0 500.3111115356339 0.004717799467471195)"><path d="M0 15 C0 11.58, 0 8.17, 0 0 M0 15 C0 9.8, 0 4.59, 0 0" stroke="#e03131" stroke-width="4" fill="none"></path></g><g transform="translate(467.57235928886166 1795.5529486183334) rotate(0 500.3111115356339 0.004717799467471195)"><path d="M1000.62 15.01 C1000.62 11.59, 1000.62 8.18, 1000.62 0.01 M1000.62 15.01 C1000.62 9.8, 1000.62 4.6, 1000.62 0.01" stroke="#e03131" stroke-width="4" fill="none"></path></g><g transform="translate(467.57235928886166 1795.5529486183334) rotate(0 500.3111115356339 0.004717799467471195)"><path d="M1000.62 -14.99 C1000.62 -11.58, 1000.62 -8.16, 1000.62 0.01 M1000.62 -14.99 C1000.62 -9.79, 1000.62 -4.58, 1000.62 0.01" stroke="#e03131" stroke-width="4" fill="none"></path></g></g><mask></mask></g><g clip-path="url(#EP7EpgmgbJ_nFYASuNyA0)"><g stroke-linecap="round"><g transform="translate(1189.2396468753368 1182.4621901290197) rotate(0 0.013203008768641666 358.97120753586853)"><path d="M0 0 C0 119.66, 0.02 598.29, 0.03 717.94 M0 0 C0 119.66, 0.02 598.29, 0.03 717.94" stroke="#e03131" stroke-width="4" fill="none"></path></g><g transform="translate(1189.2396468753368 1182.4621901290197) rotate(0 0.013203008768641666 358.97120753586853)"><path d="M15 0 C11.49 0, 7.98 0, 0 0 M15 0 C10.5 0, 5.99 0, 0 0" stroke="#e03131" stroke-width="4" fill="none"></path></g><g transform="translate(1189.2396468753368 1182.4621901290197) rotate(0 0.013203008768641666 358.97120753586853)"><path d="M-15 0 C-11.49 0, -7.98 0, 0 0 M-15 0 C-10.5 0, -5.99 0, 0 0" stroke="#e03131" stroke-width="4" fill="none"></path></g><g transform="translate(1189.2396468753368 1182.4621901290197) rotate(0 0.013203008768641666 358.97120753586853)"><path d="M-14.97 717.94 C-11.47 717.94, -7.96 717.94, 0.03 717.94 M-14.97 717.94 C-10.47 717.94, -5.97 717.94, 0.03 717.94" stroke="#e03131" stroke-width="4" fill="none"></path></g><g transform="translate(1189.2396468753368 1182.4621901290197) rotate(0 0.013203008768641666 358.97120753586853)"><path d="M15.03 717.94 C11.52 717.94, 8.01 717.94, 0.03 717.94 M15.03 717.94 C10.52 717.94, 6.02 717.94, 0.03 717.94" stroke="#e03131" stroke-width="4" fill="none"></path></g></g><mask></mask></g><g clip-path="url(#EP7EpgmgbJ_nFYASuNyA0)"><g transform="translate(1253.232005435847 1695.3489280842282) rotate(0 29.296875 12)"><text x="0" y="0" font-family="Cascadia, Segoe UI Emoji" font-size="20px" fill="#e03131" text-anchor="start" style="white-space: pre;" direction="ltr" dominant-baseline="text-before-edge">720px</text></g></g><g clip-path="url(#EP7EpgmgbJ_nFYASuNyA0)"><g transform="translate(198.1661060705237 1481.6323319794014) rotate(0 48.91015625 9.199999999999989)"><text x="0" y="0" font-family="Helvetica, Segoe UI Emoji" font-size="16px" fill="#bbb" text-anchor="start" style="white-space: pre;" direction="ltr" dominant-baseline="text-before-edge">Admin Center</text></g></g><g clip-path="url(#EP7EpgmgbJ_nFYASuNyA0)"><g stroke-linecap="round"><g transform="translate(192.15308878796804 1504.384289264749) rotate(0 141.61061985371225 -0.523091875087232)"><path d="M0 0 C60.3 -2.36, 120.8 -0.37, 283.22 -1.05" stroke="#bbb" stroke-width="4.5" fill="none" stroke-dasharray="1.5 10"></path></g></g><mask></mask></g><g clip-path="url(#EP7EpgmgbJ_nFYASuNyA0)"><g transform="translate(222.00864728614124 1516.649135060965) rotate(0 91.1328125 114.99999999999994)"><text x="0" y="0" font-family="Helvetica, Segoe UI Emoji" font-size="20px" fill="#1e1e1e" text-anchor="start" style="white-space: pre;" direction="ltr" dominant-baseline="text-before-edge">General</text><text x="0" y="23" font-family="Helvetica, Segoe UI Emoji" font-size="20px" fill="#1e1e1e" text-anchor="start" style="white-space: pre;" direction="ltr" dominant-baseline="text-before-edge"></text><text x="0" y="46" font-family="Helvetica, Segoe UI Emoji" font-size="20px" fill="#1e1e1e" text-anchor="start" style="white-space: pre;" direction="ltr" dominant-baseline="text-before-edge"></text><text x="0" y="69" font-family="Helvetica, Segoe UI Emoji" font-size="20px" fill="#1e1e1e" text-anchor="start" style="white-space: pre;" direction="ltr" dominant-baseline="text-before-edge">- Stadtwerke</text><text x="0" y="92" font-family="Helvetica, Segoe UI Emoji" font-size="20px" fill="#1e1e1e" text-anchor="start" style="white-space: pre;" direction="ltr" dominant-baseline="text-before-edge">    - Tarife</text><text x="0" y="115" font-family="Helvetica, Segoe UI Emoji" font-size="20px" fill="#1e1e1e" text-anchor="start" style="white-space: pre;" direction="ltr" dominant-baseline="text-before-edge">        - Wasser</text><text x="0" y="138" font-family="Helvetica, Segoe UI Emoji" font-size="20px" fill="#1e1e1e" text-anchor="start" style="white-space: pre;" direction="ltr" dominant-baseline="text-before-edge">        - Strom</text><text x="0" y="161" font-family="Helvetica, Segoe UI Emoji" font-size="20px" fill="#1e1e1e" text-anchor="start" style="white-space: pre;" direction="ltr" dominant-baseline="text-before-edge">        - Wärmepumpe</text><text x="0" y="184" font-family="Helvetica, Segoe UI Emoji" font-size="20px" fill="#1e1e1e" text-anchor="start" style="white-space: pre;" direction="ltr" dominant-baseline="text-before-edge">        - Gas</text><text x="0" y="207" font-family="Helvetica, Segoe UI Emoji" font-size="20px" fill="#1e1e1e" text-anchor="start" style="white-space: pre;" direction="ltr" dominant-baseline="text-before-edge">    - Kunden</text></g></g><g clip-path="url(#EP7EpgmgbJ_nFYASuNyA0)"><g stroke-linecap="round"><g transform="translate(192.91669991076105 1750.145742908606) rotate(0 141.61061985371225 -0.5230918750871751)"><path d="M0 0 C60.66 -2.82, 122.12 -2.96, 283.22 -1.05" stroke="#bbb" stroke-width="4.5" fill="none" stroke-dasharray="1.5 10"></path></g></g><mask></mask></g><g transform="translate(134.3542085667441 1099.1257748839635) rotate(0 32.92095947265625 8.75)"><text x="0" y="0" font-family="Assistant, Segoe UI Emoji" font-size="14px" fill="#999999" text-anchor="start" style="white-space: pre;" direction="ltr" dominant-baseline="text-before-edge">Home Page</text></g><rect transform="translate(134.3542085667441 1119.6257748839635) rotate(0 698.1601562499999 415.95703125000017)" width="1396.3203124999998px" height="831.9140625000002px" rx="8" ry="8" fill="none" stroke="#bbb" stroke-width="2"></rect><g stroke-linecap="round"><g transform="translate(11.978728397368286 734.365267164083) rotate(0 195.85879491336004 90.59101883589531)" fill-rule="evenodd"><path d="M1.31 -0.17 L-1.98 177.62 L392.58 182.28 L391.71 40.28 L343.3 2.72 L0.12 1.17" stroke="none" stroke-width="0" fill="#fff" fill-rule="evenodd"></path><path d="M0 0 C-1.83 40.78, -3.34 78.99, 0 178.15 M0 0 C1.18 50.4, 0.83 100.92, 0 178.15 M0 178.15 C139.31 179.57, 279.14 178.9, 391.72 181.18 M0 178.15 C133.98 180.51, 268.83 181.83, 391.72 181.18 M391.72 181.18 C391.61 134.29, 390.87 85.36, 390.71 40.49 M391.72 181.18 C392.03 127.02, 391.41 72.02, 390.71 40.49 M390.71 40.49 C373.72 27.15, 356.35 10.79, 343.13 1.1 M390.71 40.49 C379.33 30.82, 366.35 20.12, 343.13 1.1 M343.13 1.1 C249 -0.6, 153.06 -0.63, 0 0 M343.13 1.1 C254.92 0.67, 166.82 1.12, 0 0 M0 0 C0 0, 0 0, 0 0 M0 0 C0 0, 0 0, 0 0" stroke="#000000" stroke-width="1" fill="none"></path></g></g><mask></mask><g transform="translate(22.853757014422627 749.6476798198269) rotate(0 135.07089233398438 45.28297726389994)"><text x="0" y="0" font-family="Virgil, Segoe UI Emoji" font-size="24.150921207413287px" fill="#000000" text-anchor="start" style="white-space: pre;" direction="ltr" dominant-baseline="text-before-edge">Scrollable Container</text><text x="0" y="30.18865150926662" font-family="Virgil, Segoe UI Emoji" font-size="24.150921207413287px" fill="#000000" text-anchor="start" style="white-space: pre;" direction="ltr" dominant-baseline="text-before-edge">with expandable Points</text><text x="0" y="60.37730301853324" font-family="Virgil, Segoe UI Emoji" font-size="24.150921207413287px" fill="#000000" text-anchor="start" style="white-space: pre;" direction="ltr" dominant-baseline="text-before-edge">- = expandable Point</text></g><g stroke-linecap="round"><g transform="translate(354.10693536304916 734.8330373806593) rotate(0 24.868658370078833 22.128890922527837)" fill-rule="evenodd"><path d="M-0.61 0.06 L-0.75 43.56 L49.37 44.39 L49.71 39.06 L-0.64 -0.78" stroke="none" stroke-width="0" fill="#868e96" fill-rule="evenodd"></path><path d="M0 0 C-0.37 17.47, 0.31 34.38, 0 44.26 M0 0 C0.28 15.32, 0.06 30.25, 0 44.26 M0 44.26 C17.63 45.32, 33.72 43.81, 48.89 43.84 M0 44.26 C12.77 44.17, 25 44.11, 48.89 43.84 M48.89 43.84 C49.45 41.58, 49.5 39.68, 49.74 38.36 M48.89 43.84 C49.31 41.83, 49.53 39.89, 49.74 38.36 M49.74 38.36 C32.16 24.56, 16.38 12.4, 0 0 M49.74 38.36 C34.85 26.81, 19.75 15.49, 0 0 M0 0 C0 0, 0 0, 0 0 M0 0 C0 0, 0 0, 0 0" stroke="#000000" stroke-width="1" fill="none"></path></g></g><mask></mask><g stroke-linecap="round"><g transform="translate(143.81154149786107 917.6069601996794) rotate(0 -4.050677413741596 216.8220203546548)"><path d="M0.55 0.59 C-8.56 63.75, -61.87 306.35, -54.21 378.71 C-46.54 451.07, 29.65 425.52, 46.56 434.77" stroke="#f08c00" stroke-width="4.5" fill="none" stroke-dasharray="1.5 10"></path></g></g><mask></mask><g transform="translate(105.88845653421686 10) rotate(0 245.48895263671875 134.29949190355447)"><text x="0" y="0" font-family="Virgil, Segoe UI Emoji" font-size="214.87918704568716px" fill="#2f9e44" text-anchor="start" style="white-space: pre;" direction="ltr" dominant-baseline="text-before-edge">Home</text></g><g stroke-linecap="round"><g transform="translate(477.5829918909685 737.8078428704271) rotate(0 195.85879491336007 90.59101883589531)" fill-rule="evenodd"><path d="M0.12 1.17 L-1.92 179.21 L391.85 182.78 L391.42 40.76 L343.17 2.42 L-0.51 -0.67" stroke="none" stroke-width="0" fill="#fff" fill-rule="evenodd"></path><path d="M0 0 C2.6 61.04, 1.66 120.1, 0 178.15 M0 0 C-0.06 56.84, 1.89 112.13, 0 178.15 M0 178.15 C102.12 177.77, 204.19 177.82, 391.72 181.18 M0 178.15 C123.94 179.71, 247.03 180.13, 391.72 181.18 M391.72 181.18 C391.36 148.65, 389.93 113.71, 390.71 40.49 M391.72 181.18 C390.17 137.64, 390.04 95.89, 390.71 40.49 M390.71 40.49 C372.19 25.63, 356.33 10.12, 343.13 1.1 M390.71 40.49 C375.79 26.88, 360.73 14.68, 343.13 1.1 M343.13 1.1 C255.73 -0.4, 165.73 -1.13, 0 0 M343.13 1.1 C249.27 0.47, 156.72 1, 0 0 M0 0 C0 0, 0 0, 0 0 M0 0 C0 0, 0 0, 0 0" stroke="#000000" stroke-width="1" fill="none"></path></g></g><mask></mask><g transform="translate(488.4580205080192 753.0902555261707) rotate(0 177.81634521484375 30.18865150926662)"><text x="0" y="0" font-family="Virgil, Segoe UI Emoji" font-size="24.150921207413287px" fill="#000000" text-anchor="start" style="white-space: pre;" direction="ltr" dominant-baseline="text-before-edge">Image of City </text><text x="0" y="30.18865150926662" font-family="Virgil, Segoe UI Emoji" font-size="24.150921207413287px" fill="#000000" text-anchor="start" style="white-space: pre;" direction="ltr" dominant-baseline="text-before-edge">(maybe rotates between 5-10)</text></g><g stroke-linecap="round"><g transform="translate(819.7111988566494 738.2756130870032) rotate(0 24.86865837007886 22.128890922527837)" fill-rule="evenodd"><path d="M0.66 -0.08 L-0.99 44 L49.33 44.39 L50.24 38.25 L0.08 0.81" stroke="none" stroke-width="0" fill="#868e96" fill-rule="evenodd"></path><path d="M0 0 C0.27 16.24, 0.89 30.45, 0 44.26 M0 0 C0.02 14.95, 0.58 30.35, 0 44.26 M0 44.26 C16.9 44.81, 33.44 44.28, 48.89 43.84 M0 44.26 C18.73 44.4, 37.65 44.12, 48.89 43.84 M48.89 43.84 C49.22 41.98, 49.5 39.7, 49.74 38.36 M48.89 43.84 C49.21 42.43, 49.31 40.94, 49.74 38.36 M49.74 38.36 C36.27 28.02, 21.45 17.67, 0 0 M49.74 38.36 C36.59 28.29, 23.71 19.01, 0 0 M0 0 C0 0, 0 0, 0 0 M0 0 C0 0, 0 0, 0 0" stroke="#000000" stroke-width="1" fill="none"></path></g></g><mask></mask><g stroke-linecap="round"><g transform="translate(827.6511853501261 925.5333724324864) rotate(0 262.11162501735635 278.81910876570873)"><path d="M0 0 C31.64 28.5, 102.5 78.06, 189.87 171 C277.24 263.94, 468.5 493.2, 524.22 557.64" stroke="#f08c00" stroke-width="4.5" fill="none" stroke-dasharray="1.5 10"></path></g></g><mask></mask></svg>