<svg version="1.1" xmlns="http://www.w3.org/2000/svg" viewBox="0 0 2016.4112172284367 2125.952553400013" width="2016.4112172284367" height="2125.952553400013">
  <!-- svg-source:excalidraw -->
  
  <defs>
    <style class="style-fonts">
      @font-face {
        font-family: "Virgil";
        src: url("https://file%2B.vscode-resource.vscode-cdn.net/c%3A/Users/lisa-/.vscode/extensions/pomdtr.excalidraw-editor-3.7.4/public//dist/excalidraw-assets/Virgil.woff2");
      }
      @font-face {
        font-family: "Cascadia";
        src: url("https://file%2B.vscode-resource.vscode-cdn.net/c%3A/Users/lisa-/.vscode/extensions/pomdtr.excalidraw-editor-3.7.4/public//dist/excalidraw-assets/Cascadia.woff2");
      }
      @font-face {
        font-family: "Assistant";
        src: url("https://file%2B.vscode-resource.vscode-cdn.net/c%3A/Users/lisa-/.vscode/extensions/pomdtr.excalidraw-editor-3.7.4/public//dist/excalidraw-assets/Assistant-Regular.woff2");
      }
    </style>
    <clipPath id="Y3m7wBva3TaB-29Bb2cLA">
            <rect transform="translate(610.0909047284371 1284.038490900013) rotate(0 698.1601562499999 415.9570312500001)" width="1396.3203124999998" height="831.9140625000002">
          </rect>
        </clipPath>
  </defs>
  <rect x="0" y="0" width="2016.4112172284367" height="2125.952553400013" fill="#ffffff"></rect><g clip-path="url(#Y3m7wBva3TaB-29Bb2cLA)"><g stroke-linecap="round" transform="translate(665.7177203016184 1345.6749910676715) rotate(0 640 360)"><path d="M0 0 C391.85 0, 783.7 0, 1280 0 M0 0 C387.69 0, 775.38 0, 1280 0 M1280 0 C1280 248.67, 1280 497.34, 1280 720 M1280 0 C1280 156.61, 1280 313.22, 1280 720 M1280 720 C941.44 720, 602.88 720, 0 720 M1280 720 C891.19 720, 502.37 720, 0 720 M0 720 C0 525.81, 0 331.63, 0 0 M0 720 C0 461.88, 0 203.76, 0 0" stroke="#ced4da" stroke-width="4" fill="none"></path></g></g><g clip-path="url(#Y3m7wBva3TaB-29Bb2cLA)"><g stroke-linecap="round"><g transform="translate(942.476994555844 1345.2261188043294) rotate(0 0.67626953125 360.6884765625)"><path d="M0.26 1 C0.55 121.33, 0.58 601.52, 0.85 721.41 M-1.06 0.48 C-0.9 121.06, -0.78 602.86, -0.36 722.97" stroke="#bbb" stroke-width="2" fill="none"></path></g></g><mask></mask></g><g clip-path="url(#Y3m7wBva3TaB-29Bb2cLA)"><g transform="translate(701.682128253848 2017.150120546985) rotate(0 29.653038024902344 11.152405278842082)"><text x="0" y="0" font-family="Helvetica, Segoe UI Emoji" font-size="19.39548744146448px" fill="#1e1e1e" text-anchor="start" style="white-space: pre;" direction="ltr" dominant-baseline="text-before-edge">Logout</text></g></g><g clip-path="url(#Y3m7wBva3TaB-29Bb2cLA)"><g transform="translate(970.4171399135597 1379.2329238754867) rotate(0 331.6583251953125 110.68798828124997)"><text x="0" y="0" font-family="Helvetica, Segoe UI Emoji" font-size="96.25042459239128px" fill="#1e1e1e" text-anchor="start" style="white-space: pre;" direction="ltr" dominant-baseline="text-before-edge">Willkommen </text><text x="0" y="110.68798828124997" font-family="Helvetica, Segoe UI Emoji" font-size="96.25042459239128px" fill="#1e1e1e" text-anchor="start" style="white-space: pre;" direction="ltr" dominant-baseline="text-before-edge">Herr Paul Peter</text></g></g><g clip-path="url(#Y3m7wBva3TaB-29Bb2cLA)"><g transform="translate(703.3814430400129 1374.731887478023) rotate(0 80.01953125 103.5)"><text x="0" y="0" font-family="Helvetica, Segoe UI Emoji" font-size="20px" fill="#1e1e1e" text-anchor="start" style="white-space: pre;" direction="ltr" dominant-baseline="text-before-edge">Home</text><text x="0" y="23" font-family="Helvetica, Segoe UI Emoji" font-size="20px" fill="#1e1e1e" text-anchor="start" style="white-space: pre;" direction="ltr" dominant-baseline="text-before-edge"></text><text x="0" y="46" font-family="Helvetica, Segoe UI Emoji" font-size="20px" fill="#1e1e1e" text-anchor="start" style="white-space: pre;" direction="ltr" dominant-baseline="text-before-edge"></text><text x="0" y="69" font-family="Helvetica, Segoe UI Emoji" font-size="20px" fill="#1e1e1e" text-anchor="start" style="white-space: pre;" direction="ltr" dominant-baseline="text-before-edge">- Stadtwerke</text><text x="0" y="92" font-family="Helvetica, Segoe UI Emoji" font-size="20px" fill="#1e1e1e" text-anchor="start" style="white-space: pre;" direction="ltr" dominant-baseline="text-before-edge">    - Wasser</text><text x="0" y="115" font-family="Helvetica, Segoe UI Emoji" font-size="20px" fill="#1e1e1e" text-anchor="start" style="white-space: pre;" direction="ltr" dominant-baseline="text-before-edge">    - Strom</text><text x="0" y="138" font-family="Helvetica, Segoe UI Emoji" font-size="20px" fill="#1e1e1e" text-anchor="start" style="white-space: pre;" direction="ltr" dominant-baseline="text-before-edge">    - Wärmepumpe</text><text x="0" y="161" font-family="Helvetica, Segoe UI Emoji" font-size="20px" fill="#1e1e1e" text-anchor="start" style="white-space: pre;" direction="ltr" dominant-baseline="text-before-edge">    - Gas</text><text x="0" y="184" font-family="Helvetica, Segoe UI Emoji" font-size="20px" fill="#1e1e1e" text-anchor="start" style="white-space: pre;" direction="ltr" dominant-baseline="text-before-edge">    - Rechnungen</text></g></g><g clip-path="url(#Y3m7wBva3TaB-29Bb2cLA)"><g transform="translate(737.5096915741927 1934.7053223468065) rotate(0 35.15625 12)"><text x="0" y="0" font-family="Cascadia, Segoe UI Emoji" font-size="20px" fill="#e03131" text-anchor="start" style="white-space: pre;" direction="ltr" dominant-baseline="text-before-edge">280 px</text></g></g><g clip-path="url(#Y3m7wBva3TaB-29Bb2cLA)"><g stroke-linecap="round"><g transform="translate(672.2279656323229 1959.8698610749125) rotate(0 134.84397669856492 0.5122918446767244)"><path d="M0 0 C44.95 0.17, 224.74 0.85, 269.69 1.02 M0 0 C44.95 0.17, 224.74 0.85, 269.69 1.02" stroke="#e03131" stroke-width="4" fill="none"></path></g><g transform="translate(672.2279656323229 1959.8698610749125) rotate(0 134.84397669856492 0.5122918446767244)"><path d="M0.06 -15 C0.04 -10.21, 0.02 -5.41, 0 0 M0.06 -15 C0.04 -10.16, 0.02 -5.32, 0 0" stroke="#e03131" stroke-width="4" fill="none"></path></g><g transform="translate(672.2279656323229 1959.8698610749125) rotate(0 134.84397669856492 0.5122918446767244)"><path d="M-0.06 15 C-0.04 10.21, -0.02 5.41, 0 0 M-0.06 15 C-0.04 10.16, -0.02 5.32, 0 0" stroke="#e03131" stroke-width="4" fill="none"></path></g><g transform="translate(672.2279656323229 1959.8698610749125) rotate(0 134.84397669856492 0.5122918446767244)"><path d="M269.63 16.02 C269.65 11.23, 269.67 6.44, 269.69 1.02 M269.63 16.02 C269.65 11.18, 269.67 6.34, 269.69 1.02" stroke="#e03131" stroke-width="4" fill="none"></path></g><g transform="translate(672.2279656323229 1959.8698610749125) rotate(0 134.84397669856492 0.5122918446767244)"><path d="M269.74 -13.98 C269.73 -9.18, 269.71 -4.39, 269.69 1.02 M269.74 -13.98 C269.73 -9.13, 269.71 -4.29, 269.69 1.02" stroke="#e03131" stroke-width="4" fill="none"></path></g></g><mask></mask></g><g clip-path="url(#Y3m7wBva3TaB-29Bb2cLA)"><g stroke-linecap="round" transform="translate(992.9036221247228 1643.9562628742) rotate(0 452.22609401884154 191.05643458574332)"><path d="M0 0 C313.03 2.61, 624.93 1.89, 904.45 0 M0 0 C196.75 2.16, 393.22 2.08, 904.45 0 M904.45 0 C906.26 100.33, 906.87 201.34, 904.45 382.11 M904.45 0 C903.69 115.81, 903.91 231.57, 904.45 382.11 M904.45 382.11 C659.84 383.33, 415.91 383.08, 0 382.11 M904.45 382.11 C580.38 380.73, 255.98 380.71, 0 382.11 M0 382.11 C1.35 276.57, 1.38 171.49, 0 0 M0 382.11 C1.49 293.07, 2.16 204.98, 0 0" stroke="#000000" stroke-width="1" fill="none"></path></g></g><g clip-path="url(#Y3m7wBva3TaB-29Bb2cLA)"><g stroke-linecap="round" transform="translate(1082.5711746179336 1719.4095053017463) rotate(0 44.54548100742835 44.54548100742835)"><path d="M64.07 3.93 C71.17 6.6, 78.76 13.37, 82.91 20.35 C87.07 27.32, 89.13 37.71, 88.99 45.77 C88.85 53.82, 86.49 62.03, 82.06 68.68 C77.62 75.32, 69.76 82.35, 62.36 85.64 C54.96 88.93, 45.71 89.81, 37.66 88.41 C29.62 87.02, 20.14 82.67, 14.09 77.28 C8.05 71.89, 3.51 63.83, 1.4 56.1 C-0.71 48.37, -1.1 38.51, 1.45 30.91 C4 23.32, 10.44 15.73, 16.71 10.52 C22.97 5.31, 29.87 -0.13, 39.03 -0.35 C48.19 -0.57, 65 6.17, 71.68 9.19 C78.37 12.21, 79.34 17.17, 79.16 17.75 M53.73 0.12 C61.34 0.95, 70.51 6.91, 76.4 12.52 C82.3 18.12, 87.59 25.92, 89.09 33.73 C90.59 41.53, 88.26 51.84, 85.42 59.33 C82.59 66.83, 78.45 73.72, 72.06 78.7 C65.67 83.68, 55.17 88.25, 47.09 89.2 C39.01 90.14, 30.46 88.15, 23.58 84.38 C16.7 80.6, 9.77 73.71, 5.83 66.55 C1.88 59.39, -0.54 49.34, -0.09 41.41 C0.37 33.48, 3.77 25.33, 8.54 18.95 C13.3 12.57, 20.89 6.09, 28.51 3.13 C36.12 0.17, 50.22 1.19, 54.23 1.21 C58.23 1.23, 52.74 2.71, 52.52 3.28" stroke="none" stroke-width="0" fill="black"></path><path d="M43.56 0.05 C51.41 -0.83, 61.86 2.03, 68.8 6.23 C75.75 10.43, 81.75 18.04, 85.23 25.28 C88.72 32.51, 90.88 41.7, 89.7 49.62 C88.51 57.53, 83.46 66.61, 78.12 72.76 C72.77 78.9, 65.26 84.13, 57.65 86.49 C50.05 88.85, 40.18 88.91, 32.47 86.93 C24.75 84.95, 16.77 80.39, 11.37 74.62 C5.97 68.84, 1.5 60.35, 0.08 52.27 C-1.33 44.19, -0.48 33.61, 2.89 26.15 C6.26 18.69, 12.25 11.62, 20.31 7.49 C28.36 3.36, 44.84 1.95, 51.23 1.36 C57.63 0.77, 58.56 3.38, 58.67 3.95 M36.12 0.77 C43.32 -1.37, 53.45 -0.34, 60.65 2.81 C67.85 5.96, 74.73 12.9, 79.31 19.66 C83.89 26.43, 87.7 35.72, 88.14 43.4 C88.57 51.08, 86 59.13, 81.94 65.75 C77.87 72.36, 70.85 79.36, 63.74 83.12 C56.63 86.88, 46.94 88.68, 39.25 88.3 C31.56 87.92, 23.99 85.6, 17.61 80.82 C11.24 76.05, 3.96 67.47, 1 59.65 C-1.96 51.82, -2.39 41.67, -0.15 33.88 C2.09 26.08, 8.19 18.46, 14.45 12.89 C20.72 7.32, 33.63 2.4, 37.43 0.47 C41.23 -1.46, 37.28 0.66, 37.25 1.33" stroke="#000000" stroke-width="1" fill="none"></path></g></g><g clip-path="url(#Y3m7wBva3TaB-29Bb2cLA)"><g stroke-linecap="round"><g transform="translate(1010.6080918377778 1998.2490210107144) rotate(0 422.5299750583945 -115.09160397470288)" fill-rule="evenodd"><path d="M-0.34 -1.21 L292.79 -165.46 L431.66 -106 L663.26 -242.77 L843.51 10.65 L-0.44 1.6" stroke="none" stroke-width="0" fill="black" fill-rule="evenodd"></path><path d="M0 0 C112.54 -64.15, 226.83 -129.45, 293.31 -166.81 M0 0 C104.78 -59.38, 208.81 -119.65, 293.31 -166.81 M293.31 -166.81 C326.36 -152.34, 359.57 -135.73, 431.27 -105.93 M293.31 -166.81 C328.95 -149.66, 364.8 -135.13, 431.27 -105.93 M431.27 -105.93 C519.92 -157.29, 605.25 -206.42, 664.63 -240.88 M431.27 -105.93 C501.58 -146.87, 571.58 -186.96, 664.63 -240.88 M664.63 -240.88 C708.21 -180.69, 751.52 -120.19, 845.06 10.7 M664.63 -240.88 C711.56 -176.22, 758.57 -111.06, 845.06 10.7 M845.06 10.7 C552.07 10.66, 259.28 6.58, 0 0 M845.06 10.7 C631.07 10.43, 416.24 7.53, 0 0 M0 0 C0 0, 0 0, 0 0 M0 0 C0 0, 0 0, 0 0" stroke="#000000" stroke-width="1" fill="none"></path></g></g><mask></mask></g><g clip-path="url(#Y3m7wBva3TaB-29Bb2cLA)"><g transform="translate(1630.6881067223226 1922.1743781044736) rotate(0 35.15625 12)"><text x="0" y="0" font-family="Cascadia, Segoe UI Emoji" font-size="20px" fill="#e03131" text-anchor="start" style="white-space: pre;" direction="ltr" dominant-baseline="text-before-edge">1000px</text></g></g><g clip-path="url(#Y3m7wBva3TaB-29Bb2cLA)"><g stroke-linecap="round" transform="translate(942.81916802175 1345.9866346034478) rotate(0 503.00695269974335 360.0109060460612)"><path d="M0 0 C346.58 -0.67, 692.55 -0.47, 1006.01 0 M1006.01 0 C1003.16 287.83, 1003.12 575.48, 1006.01 720.02 M1006.01 720.02 C752.31 723.03, 498.54 722.04, 0 720.02 M0 720.02 C0.07 487.35, -0.18 256.5, 0 0" stroke="#bbb" stroke-width="2.5" fill="none" stroke-dasharray="1.5 8"></path></g></g><g clip-path="url(#Y3m7wBva3TaB-29Bb2cLA)"><g stroke-linecap="round"><g transform="translate(704.5436038607571 1404.972081827183) rotate(0 33.58539589118027 0.3710882295873432)"><path d="M-0.72 0.43 C10.4 0.64, 55.59 1.96, 66.74 1.94 M1.1 -0.39 C12.02 -0.54, 54.33 0.15, 65.57 0.44" stroke="#1e1e1e" stroke-width="2" fill="none"></path></g></g><mask></mask></g><g clip-path="url(#Y3m7wBva3TaB-29Bb2cLA)"><g stroke-linecap="round"><g transform="translate(943.3090554505546 1959.965664634383) rotate(0 500.3111115356339 0.004717799467471195)"><path d="M0 0 C166.77 0, 833.85 0.01, 1000.62 0.01 M0 0 C166.77 0, 833.85 0.01, 1000.62 0.01" stroke="#e03131" stroke-width="4" fill="none"></path></g><g transform="translate(943.3090554505546 1959.965664634383) rotate(0 500.3111115356339 0.004717799467471195)"><path d="M0 -15 C0 -11.4, 0 -7.8, 0 0 M0 -15 C0 -10.31, 0 -5.62, 0 0" stroke="#e03131" stroke-width="4" fill="none"></path></g><g transform="translate(943.3090554505546 1959.965664634383) rotate(0 500.3111115356339 0.004717799467471195)"><path d="M0 15 C0 11.4, 0 7.8, 0 0 M0 15 C0 10.31, 0 5.62, 0 0" stroke="#e03131" stroke-width="4" fill="none"></path></g><g transform="translate(943.3090554505546 1959.965664634383) rotate(0 500.3111115356339 0.004717799467471195)"><path d="M1000.62 15.01 C1000.62 11.41, 1000.62 7.81, 1000.62 0.01 M1000.62 15.01 C1000.62 10.32, 1000.62 5.63, 1000.62 0.01" stroke="#e03131" stroke-width="4" fill="none"></path></g><g transform="translate(943.3090554505546 1959.965664634383) rotate(0 500.3111115356339 0.004717799467471195)"><path d="M1000.62 -14.99 C1000.62 -11.39, 1000.62 -7.79, 1000.62 0.01 M1000.62 -14.99 C1000.62 -10.3, 1000.62 -5.61, 1000.62 0.01" stroke="#e03131" stroke-width="4" fill="none"></path></g></g><mask></mask></g><g clip-path="url(#Y3m7wBva3TaB-29Bb2cLA)"><g stroke-linecap="round"><g transform="translate(1662.1864667349464 1346.83985162033) rotate(0 0.013203008768641666 358.97120753586853)"><path d="M0 0 C0 119.66, 0.02 598.29, 0.03 717.94 M0 0 C0 119.66, 0.02 598.29, 0.03 717.94" stroke="#e03131" stroke-width="4" fill="none"></path></g><g transform="translate(1662.1864667349464 1346.83985162033) rotate(0 0.013203008768641666 358.97120753586853)"><path d="M15 0 C11.03 0, 7.07 0, 0 0 M15 0 C10.44 0, 5.89 0, 0 0" stroke="#e03131" stroke-width="4" fill="none"></path></g><g transform="translate(1662.1864667349464 1346.83985162033) rotate(0 0.013203008768641666 358.97120753586853)"><path d="M-15 0 C-11.03 0, -7.07 0, 0 0 M-15 0 C-10.44 0, -5.89 0, 0 0" stroke="#e03131" stroke-width="4" fill="none"></path></g><g transform="translate(1662.1864667349464 1346.83985162033) rotate(0 0.013203008768641666 358.97120753586853)"><path d="M-14.97 717.94 C-11.01 717.94, -7.04 717.94, 0.03 717.94 M-14.97 717.94 C-10.42 717.94, -5.86 717.94, 0.03 717.94" stroke="#e03131" stroke-width="4" fill="none"></path></g><g transform="translate(1662.1864667349464 1346.83985162033) rotate(0 0.013203008768641666 358.97120753586853)"><path d="M15.03 717.94 C11.06 717.94, 7.09 717.94, 0.03 717.94 M15.03 717.94 C10.47 717.94, 5.91 717.94, 0.03 717.94" stroke="#e03131" stroke-width="4" fill="none"></path></g></g><mask></mask></g><g clip-path="url(#Y3m7wBva3TaB-29Bb2cLA)"><g transform="translate(1728.96870159754 1859.7616441002779) rotate(0 29.296875 12)"><text x="0" y="0" font-family="Cascadia, Segoe UI Emoji" font-size="20px" fill="#e03131" text-anchor="start" style="white-space: pre;" direction="ltr" dominant-baseline="text-before-edge">720px</text></g></g><g clip-path="url(#Y3m7wBva3TaB-29Bb2cLA)"><g transform="translate(673.9028022322167 1646.0450479954511) rotate(0 48.91015625 9.199999999999989)"><text x="0" y="0" font-family="Helvetica, Segoe UI Emoji" font-size="16px" fill="#bbb" text-anchor="start" style="white-space: pre;" direction="ltr" dominant-baseline="text-before-edge">Admin Center</text></g></g><g clip-path="url(#Y3m7wBva3TaB-29Bb2cLA)"><g stroke-linecap="round"><g transform="translate(667.889784949661 1668.7970052807987) rotate(0 141.61061985371225 -0.523091875087232)"><path d="M0 0 C66.4 1.65, 131.56 1.98, 283.22 -1.05" stroke="#bbb" stroke-width="4.5" fill="none" stroke-dasharray="1.5 10"></path></g></g><mask></mask></g><g clip-path="url(#Y3m7wBva3TaB-29Bb2cLA)"><g transform="translate(697.7453434478342 1681.0618510770144) rotate(0 91.1328125 115)"><text x="0" y="0" font-family="Helvetica, Segoe UI Emoji" font-size="20px" fill="#1e1e1e" text-anchor="start" style="white-space: pre;" direction="ltr" dominant-baseline="text-before-edge">General</text><text x="0" y="23" font-family="Helvetica, Segoe UI Emoji" font-size="20px" fill="#1e1e1e" text-anchor="start" style="white-space: pre;" direction="ltr" dominant-baseline="text-before-edge"></text><text x="0" y="46" font-family="Helvetica, Segoe UI Emoji" font-size="20px" fill="#1e1e1e" text-anchor="start" style="white-space: pre;" direction="ltr" dominant-baseline="text-before-edge"></text><text x="0" y="69" font-family="Helvetica, Segoe UI Emoji" font-size="20px" fill="#1e1e1e" text-anchor="start" style="white-space: pre;" direction="ltr" dominant-baseline="text-before-edge">- Stadtwerke</text><text x="0" y="92" font-family="Helvetica, Segoe UI Emoji" font-size="20px" fill="#1e1e1e" text-anchor="start" style="white-space: pre;" direction="ltr" dominant-baseline="text-before-edge">    - Tarife</text><text x="0" y="115" font-family="Helvetica, Segoe UI Emoji" font-size="20px" fill="#1e1e1e" text-anchor="start" style="white-space: pre;" direction="ltr" dominant-baseline="text-before-edge">        - Wasser</text><text x="0" y="138" font-family="Helvetica, Segoe UI Emoji" font-size="20px" fill="#1e1e1e" text-anchor="start" style="white-space: pre;" direction="ltr" dominant-baseline="text-before-edge">        - Strom</text><text x="0" y="161" font-family="Helvetica, Segoe UI Emoji" font-size="20px" fill="#1e1e1e" text-anchor="start" style="white-space: pre;" direction="ltr" dominant-baseline="text-before-edge">        - Wärmepumpe</text><text x="0" y="184" font-family="Helvetica, Segoe UI Emoji" font-size="20px" fill="#1e1e1e" text-anchor="start" style="white-space: pre;" direction="ltr" dominant-baseline="text-before-edge">        - Gas</text><text x="0" y="207" font-family="Helvetica, Segoe UI Emoji" font-size="20px" fill="#1e1e1e" text-anchor="start" style="white-space: pre;" direction="ltr" dominant-baseline="text-before-edge">    - Kunden</text></g></g><g clip-path="url(#Y3m7wBva3TaB-29Bb2cLA)"><g stroke-linecap="round"><g transform="translate(668.653396072454 1914.5584589246555) rotate(0 141.61061985371225 -0.523091875087232)"><path d="M0 0 C99.4 -2.86, 202.04 -2.5, 283.22 -1.05" stroke="#bbb" stroke-width="4.5" fill="none" stroke-dasharray="1.5 10"></path></g></g><mask></mask></g><g transform="translate(610.0909047284371 1263.538490900013) rotate(0 97.19482421875 8.75)"><text x="0" y="0" font-family="Assistant, Segoe UI Emoji" font-size="14px" fill="#999999" text-anchor="start" style="white-space: pre;" direction="ltr" dominant-baseline="text-before-edge">Example - Basic Frame (1280x720)</text></g><rect transform="translate(610.0909047284371 1284.038490900013) rotate(0 698.1601562499999 415.9570312500001)" width="1396.3203124999998px" height="831.9140625000002px" rx="8" ry="8" fill="none" stroke="#bbb" stroke-width="2"></rect><g stroke-linecap="round"><g transform="translate(487.71542455906126 898.7779831801327) rotate(0 195.85879491336007 90.59101883589531)" fill-rule="evenodd"><path d="M0.96 -1.91 L-1.01 178.45 L392.08 182.08 L391.13 41.21 L342.88 0.99 L-0.36 1.33" stroke="none" stroke-width="0" fill="#fff" fill-rule="evenodd"></path><path d="M0 0 C-1.3 49.49, -1.29 96.91, 0 178.15 M0 0 C0 63.89, -0.39 127.7, 0 178.15 M0 178.15 C108.24 180.52, 215.72 181.11, 391.72 181.18 M0 178.15 C90.59 180.12, 182.28 181.53, 391.72 181.18 M391.72 181.18 C390.76 153.69, 391.58 126.19, 390.71 40.49 M391.72 181.18 C390.69 141.76, 391.12 103.91, 390.71 40.49 M390.71 40.49 C372.38 24.01, 354.23 7.91, 343.13 1.1 M390.71 40.49 C376.06 29.37, 363.12 18.13, 343.13 1.1 M343.13 1.1 C243.2 -0.26, 142.92 -0.7, 0 0 M343.13 1.1 C216.57 0, 90.41 0.21, 0 0 M0 0 C0 0, 0 0, 0 0 M0 0 C0 0, 0 0, 0 0" stroke="#000000" stroke-width="1" fill="none"></path></g></g><mask></mask><g transform="translate(498.5904531761156 914.0603958358763) rotate(0 135.07089233398438 45.28297726389994)"><text x="0" y="0" font-family="Virgil, Segoe UI Emoji" font-size="24.150921207413287px" fill="#000000" text-anchor="start" style="white-space: pre;" direction="ltr" dominant-baseline="text-before-edge">Scrollable Container</text><text x="0" y="30.18865150926662" font-family="Virgil, Segoe UI Emoji" font-size="24.150921207413287px" fill="#000000" text-anchor="start" style="white-space: pre;" direction="ltr" dominant-baseline="text-before-edge">with expandable Points</text><text x="0" y="60.37730301853324" font-family="Virgil, Segoe UI Emoji" font-size="24.150921207413287px" fill="#000000" text-anchor="start" style="white-space: pre;" direction="ltr" dominant-baseline="text-before-edge">- = expandable Point</text></g><g stroke-linecap="round"><g transform="translate(829.8436315247421 899.2457533967088) rotate(0 24.86865837007886 22.12889092252783)" fill-rule="evenodd"><path d="M0.21 0.34 L-0.11 43.67 L49.19 43.54 L50.43 37.54 L-0.6 -0.44" stroke="none" stroke-width="0" fill="#868e96" fill-rule="evenodd"></path><path d="M0 0 C0.4 16.22, -0.57 33.38, 0 44.26 M0 0 C-0.12 13.26, -0.48 27.1, 0 44.26 M0 44.26 C11.05 43.5, 22.8 43.5, 48.89 43.84 M0 44.26 C12.24 44.1, 24.99 43.76, 48.89 43.84 M48.89 43.84 C49.11 42.12, 49.4 40.1, 49.74 38.36 M48.89 43.84 C49.21 42.54, 49.24 41.09, 49.74 38.36 M49.74 38.36 C36.95 28.78, 24.94 18.02, 0 0 M49.74 38.36 C34.26 26.25, 18.73 14.61, 0 0 M0 0 C0 0, 0 0, 0 0 M0 0 C0 0, 0 0, 0 0" stroke="#000000" stroke-width="1" fill="none"></path></g></g><mask></mask><g stroke-linecap="round"><g transform="translate(619.548237659554 1082.0196762157289) rotate(0 -4.050677413741596 216.8220203546548)"><path d="M-0.3 -0.46 C-9.4 62.46, -61.93 305.9, -54.11 378.25 C-46.29 450.59, 29.88 424.42, 46.6 433.6" stroke="#f08c00" stroke-width="4.5" fill="none" stroke-dasharray="1.5 10"></path></g></g><mask></mask><g stroke-linecap="round"><g transform="translate(953.3196880526615 902.2205588864766) rotate(0 195.85879491336004 90.59101883589531)" fill-rule="evenodd"><path d="M-0.25 -0.11 L-0.36 179.47 L391.25 181.55 L391.15 40.78 L341.55 2.98 L-0.06 -0.99" stroke="none" stroke-width="0" fill="#fff" fill-rule="evenodd"></path><path d="M0 0 C-0.64 49.14, -0.75 97.57, 0 178.15 M0 0 C-2.36 49.88, -2.57 97.7, 0 178.15 M0 178.15 C83.68 180.93, 169.23 180.02, 391.72 181.18 M0 178.15 C129.96 179.71, 259.94 180.38, 391.72 181.18 M391.72 181.18 C390.76 131.17, 392.59 79.24, 390.71 40.49 M391.72 181.18 C391.47 129.52, 390.72 76.9, 390.71 40.49 M390.71 40.49 C374.72 27.39, 359.17 13.52, 343.13 1.1 M390.71 40.49 C379.42 30.48, 368.08 22.44, 343.13 1.1 M343.13 1.1 C232.24 -1.84, 123.81 -1.45, 0 0 M343.13 1.1 C212.85 1.86, 82.21 0.84, 0 0 M0 0 C0 0, 0 0, 0 0 M0 0 C0 0, 0 0, 0 0" stroke="#000000" stroke-width="1" fill="none"></path></g></g><mask></mask><g transform="translate(964.1947166697122 917.5029715422203) rotate(0 177.81634521484375 30.18865150926662)"><text x="0" y="0" font-family="Virgil, Segoe UI Emoji" font-size="24.150921207413287px" fill="#000000" text-anchor="start" style="white-space: pre;" direction="ltr" dominant-baseline="text-before-edge">Image of City </text><text x="0" y="30.18865150926662" font-family="Virgil, Segoe UI Emoji" font-size="24.150921207413287px" fill="#000000" text-anchor="start" style="white-space: pre;" direction="ltr" dominant-baseline="text-before-edge">(maybe rotates between 5-10)</text></g><g stroke-linecap="round"><g transform="translate(1295.4478950183425 902.6883291030528) rotate(0 24.868658370078833 22.12889092252783)" fill-rule="evenodd"><path d="M-0.6 -0.44 L0.48 43.3 L48.39 43.99 L49.92 38.81 L0.21 0.36" stroke="none" stroke-width="0" fill="#868e96" fill-rule="evenodd"></path><path d="M0 0 C-0.25 12.52, 0.67 26.4, 0 44.26 M0 0 C-0.61 16.03, -0.56 32.53, 0 44.26 M0 44.26 C16.77 43.43, 32.77 44.68, 48.89 43.84 M0 44.26 C16.75 44.05, 32.93 43.8, 48.89 43.84 M48.89 43.84 C49.4 41.56, 49.61 39.4, 49.74 38.36 M48.89 43.84 C49.26 42.02, 49.4 40.09, 49.74 38.36 M49.74 38.36 C33 25.6, 17.42 13.42, 0 0 M49.74 38.36 C37.97 29.32, 25.61 19.67, 0 0 M0 0 C0 0, 0 0, 0 0 M0 0 C0 0, 0 0, 0 0" stroke="#000000" stroke-width="1" fill="none"></path></g></g><mask></mask><g stroke-linecap="round"><g transform="translate(1303.3878815118192 1089.946088448536) rotate(0 262.11162501735635 278.81910876570873)"><path d="M0 0 C36.19 37.29, 129.79 130.83, 217.16 223.77 C304.53 316.71, 473.05 501.99, 524.22 557.64" stroke="#f08c00" stroke-width="4.5" fill="none" stroke-dasharray="1.5 10"></path></g></g><mask></mask><g stroke-linecap="round"><g transform="translate(403.6785335031009 1690.2641134037265) rotate(0 133.9455585695071 7.3561614172959935)"><path d="M0.61 -0.94 C17.25 4.07, 54.21 33.46, 98.83 30.97 C143.44 28.48, 240.1 -8.07, 268.28 -15.89" stroke="#f08c00" stroke-width="4.5" fill="none" stroke-dasharray="1.5 10"></path></g></g><mask></mask><g stroke-linecap="round"><g transform="translate(10.632901600910941 1590.141451923568) rotate(0 195.85879491336007 90.59101883589531)" fill-rule="evenodd"><path d="M-0.98 -0.57 L-1.82 179.3 L392.96 179.45 L388.75 41.22 L341.6 0.5 L-1.94 1.45" stroke="none" stroke-width="0" fill="#fff" fill-rule="evenodd"></path><path d="M0 0 C-1.43 57.75, 0.02 113.14, 0 178.15 M0 0 C1.17 60.37, 1.17 122.61, 0 178.15 M0 178.15 C80.45 180.68, 162.86 180.56, 391.72 181.18 M0 178.15 C109.87 180.61, 219.99 182.33, 391.72 181.18 M391.72 181.18 C390.82 137.49, 390.99 97.79, 390.71 40.49 M391.72 181.18 C390.9 135.53, 390.7 88.83, 390.71 40.49 M390.71 40.49 C380.18 30.12, 366.1 21.42, 343.13 1.1 M390.71 40.49 C371.58 26.21, 352.14 9.52, 343.13 1.1 M343.13 1.1 C258.33 0.62, 175.93 -0.03, 0 0 M343.13 1.1 C273.35 0.58, 204.25 0.27, 0 0 M0 0 C0 0, 0 0, 0 0 M0 0 C0 0, 0 0, 0 0" stroke="#000000" stroke-width="1" fill="none"></path></g></g><mask></mask><g transform="translate(21.50793021796528 1605.4238645793116) rotate(0 85.84114074707031 15.094325754633303)"><text x="0" y="0" font-family="Virgil, Segoe UI Emoji" font-size="24.150921207413287px" fill="#000000" text-anchor="start" style="white-space: pre;" direction="ltr" dominant-baseline="text-before-edge">Static sidebar</text></g><g stroke-linecap="round"><g transform="translate(352.7611085665917 1590.609222140144) rotate(0 24.868658370078847 22.12889092252783)" fill-rule="evenodd"><path d="M-0.71 -0.82 L0.11 45.23 L48.45 43.92 L48.82 38.42 L-0.77 -0.71" stroke="none" stroke-width="0" fill="#868e96" fill-rule="evenodd"></path><path d="M0 0 C0.43 15.58, 0.02 29.63, 0 44.26 M0 0 C-0.48 9.78, -0.44 19.95, 0 44.26 M0 44.26 C14.46 43.98, 28.47 44.1, 48.89 43.84 M0 44.26 C12.09 43.55, 24.22 43.4, 48.89 43.84 M48.89 43.84 C49.17 42.86, 49.38 41.62, 49.74 38.36 M48.89 43.84 C49.09 42.03, 49.52 40.31, 49.74 38.36 M49.74 38.36 C37.14 28.97, 23.54 17.5, 0 0 M49.74 38.36 C30.83 24.01, 11.99 8.9, 0 0 M0 0 C0 0, 0 0, 0 0 M0 0 C0 0, 0 0, 0 0" stroke="#000000" stroke-width="1" fill="none"></path></g></g><mask></mask><g transform="translate(601.398757947892 10) rotate(0 380.9866943359375 151.28620632866222)"><text x="0" y="0" font-family="Virgil, Segoe UI Emoji" font-size="242.05793012585957px" fill="#2f9e44" text-anchor="start" style="white-space: pre;" direction="ltr" dominant-baseline="text-before-edge">Bürger</text></g><g transform="translate(603.3864647870587 397.4850968302802) rotate(0 182.37728881835938 99.77145076060054)"><text x="0" y="0" font-family="Virgil, Segoe UI Emoji" font-size="159.63432121696093px" fill="#2f9e44" text-anchor="start" style="white-space: pre;" direction="ltr" dominant-baseline="text-before-edge">Home</text></g><g transform="translate(605.8051829799144 610.2292326363969) rotate(0 281.98638916015625 99.77145076060057)"><text x="0" y="0" font-family="Virgil, Segoe UI Emoji" font-size="159.63432121696093px" fill="#2f9e44" text-anchor="start" style="white-space: pre;" direction="ltr" dominant-baseline="text-before-edge">German</text></g></svg>