<svg version="1.1" xmlns="http://www.w3.org/2000/svg" viewBox="0 0 1396.3203124999998 831.9140625000003" width="1396.3203124999998" height="831.9140625000003">
  <!-- svg-source:excalidraw -->
  
  <defs>
    <style class="style-fonts">
      @font-face {
        font-family: "Virgil";
        src: url("https://file%2B.vscode-resource.vscode-cdn.net/c%3A/Users/lisa-/.vscode/extensions/pomdtr.excalidraw-editor-3.7.4/public//dist/excalidraw-assets/Virgil.woff2");
      }
      @font-face {
        font-family: "Cascadia";
        src: url("https://file%2B.vscode-resource.vscode-cdn.net/c%3A/Users/lisa-/.vscode/extensions/pomdtr.excalidraw-editor-3.7.4/public//dist/excalidraw-assets/Cascadia.woff2");
      }
      @font-face {
        font-family: "Assistant";
        src: url("https://file%2B.vscode-resource.vscode-cdn.net/c%3A/Users/lisa-/.vscode/extensions/pomdtr.excalidraw-editor-3.7.4/public//dist/excalidraw-assets/Assistant-Regular.woff2");
      }
    </style>
    <clipPath id="7FrdkWy7DqGK-PKzlUeES">
            <rect transform="translate(0 0) rotate(0 698.1601562499999 415.95703125000017)" width="1396.3203124999998" height="831.9140625000002">
          </rect>
        </clipPath>
  </defs>
  <rect x="0" y="0" width="1396.3203124999998" height="831.9140625000003" fill="#ffffff"></rect><g clip-path="url(#7FrdkWy7DqGK-PKzlUeES)"><g stroke-linecap="round" transform="translate(55.626815573181375 61.636500167658596) rotate(0 640 359.99999999999994)"><path d="M0 0 C295.68 0, 591.37 0, 1280 0 M0 0 C510.6 0, 1021.2 0, 1280 0 M1280 0 C1280 241.64, 1280 483.29, 1280 720 M1280 0 C1280 212.89, 1280 425.78, 1280 720 M1280 720 C938.29 720, 596.59 720, 0 720 M1280 720 C922.92 720, 565.84 720, 0 720 M0 720 C0 548.21, 0 376.41, 0 0 M0 720 C0 516.38, 0 312.76, 0 0" stroke="#ced4da" stroke-width="4" fill="none"></path></g></g><g clip-path="url(#7FrdkWy7DqGK-PKzlUeES)"><g stroke-linecap="round"><g transform="translate(332.38608982741425 61.187627904316514) rotate(0 0.67626953125 360.68847656250006)"><path d="M0.2 -1.15 C0.61 119.25, 2.05 602.22, 2.32 722.56 M-1.15 0.86 C-0.81 120.94, 1.48 600.87, 1.88 721.06" stroke="#bbb" stroke-width="2" fill="none"></path></g></g><mask></mask></g><g clip-path="url(#7FrdkWy7DqGK-PKzlUeES)"><g transform="translate(93.29053831157944 90.69339657801004) rotate(0 80.01953125 103.5)"><text x="0" y="0" font-family="Helvetica, Segoe UI Emoji" font-size="20px" fill="#1e1e1e" text-anchor="start" style="white-space: pre;" direction="ltr" dominant-baseline="text-before-edge">Home</text><text x="0" y="23" font-family="Helvetica, Segoe UI Emoji" font-size="20px" fill="#1e1e1e" text-anchor="start" style="white-space: pre;" direction="ltr" dominant-baseline="text-before-edge"></text><text x="0" y="46" font-family="Helvetica, Segoe UI Emoji" font-size="20px" fill="#1e1e1e" text-anchor="start" style="white-space: pre;" direction="ltr" dominant-baseline="text-before-edge"></text><text x="0" y="69" font-family="Helvetica, Segoe UI Emoji" font-size="20px" fill="#1e1e1e" text-anchor="start" style="white-space: pre;" direction="ltr" dominant-baseline="text-before-edge">- Stadtwerke</text><text x="0" y="92" font-family="Helvetica, Segoe UI Emoji" font-size="20px" fill="#1e1e1e" text-anchor="start" style="white-space: pre;" direction="ltr" dominant-baseline="text-before-edge">    - Wasser</text><text x="0" y="115" font-family="Helvetica, Segoe UI Emoji" font-size="20px" fill="#1e1e1e" text-anchor="start" style="white-space: pre;" direction="ltr" dominant-baseline="text-before-edge">    - Strom</text><text x="0" y="138" font-family="Helvetica, Segoe UI Emoji" font-size="20px" fill="#1e1e1e" text-anchor="start" style="white-space: pre;" direction="ltr" dominant-baseline="text-before-edge">    - Wärmepumpe</text><text x="0" y="161" font-family="Helvetica, Segoe UI Emoji" font-size="20px" fill="#1e1e1e" text-anchor="start" style="white-space: pre;" direction="ltr" dominant-baseline="text-before-edge">    - Gas</text><text x="0" y="184" font-family="Helvetica, Segoe UI Emoji" font-size="20px" fill="#1e1e1e" text-anchor="start" style="white-space: pre;" direction="ltr" dominant-baseline="text-before-edge">    - Rechnungen</text></g></g><g clip-path="url(#7FrdkWy7DqGK-PKzlUeES)"><g stroke-linecap="round" transform="translate(332.7282632933202 61.94814370343488) rotate(0 503.00695269974335 360.01090604606117)"><path d="M0 0 C382.5 -1.11, 766.04 -1.48, 1006.01 0 M1006.01 0 C1006.71 261.54, 1006.83 522.05, 1006.01 720.02 M1006.01 720.02 C605.04 723.77, 205.65 723.2, 0 720.02 M0 720.02 C0.5 569.53, 1.5 419.61, 0 0" stroke="#bbb" stroke-width="2.5" fill="none" stroke-dasharray="1.5 8"></path></g></g><g clip-path="url(#7FrdkWy7DqGK-PKzlUeES)"><g stroke-linecap="round"><g transform="translate(111.56768410743462 303.27826996485567) rotate(0 66.94360694336683 0.3402588764806751)"><path d="M0.58 0.68 C22.82 1, 111.62 1.4, 133.91 1.43 M-0.58 0 C21.47 0.01, 110.58 -0.68, 132.97 -0.29" stroke="#1e1e1e" stroke-width="2" fill="none"></path></g></g><mask></mask></g><g clip-path="url(#7FrdkWy7DqGK-PKzlUeES)"><g transform="translate(63.81189750377962 362.0065570954381) rotate(0 48.91015625 9.200000000000045)"><text x="0" y="0" font-family="Helvetica, Segoe UI Emoji" font-size="16px" fill="#bbb" text-anchor="start" style="white-space: pre;" direction="ltr" dominant-baseline="text-before-edge">Admin Center</text></g></g><g clip-path="url(#7FrdkWy7DqGK-PKzlUeES)"><g stroke-linecap="round"><g transform="translate(57.79888022122759 384.75851438078564) rotate(0 141.61061985371225 -0.5230918750872888)"><path d="M0 0 C85.66 -1.71, 171.34 -1.79, 283.22 -1.05" stroke="#bbb" stroke-width="4.5" fill="none" stroke-dasharray="1.5 10"></path></g></g><mask></mask></g><g clip-path="url(#7FrdkWy7DqGK-PKzlUeES)"><g transform="translate(87.65443871940079 397.02336017700156) rotate(0 91.1328125 115)"><text x="0" y="0" font-family="Helvetica, Segoe UI Emoji" font-size="20px" fill="#1e1e1e" text-anchor="start" style="white-space: pre;" direction="ltr" dominant-baseline="text-before-edge">General</text><text x="0" y="23" font-family="Helvetica, Segoe UI Emoji" font-size="20px" fill="#1e1e1e" text-anchor="start" style="white-space: pre;" direction="ltr" dominant-baseline="text-before-edge"></text><text x="0" y="46" font-family="Helvetica, Segoe UI Emoji" font-size="20px" fill="#1e1e1e" text-anchor="start" style="white-space: pre;" direction="ltr" dominant-baseline="text-before-edge"></text><text x="0" y="69" font-family="Helvetica, Segoe UI Emoji" font-size="20px" fill="#1e1e1e" text-anchor="start" style="white-space: pre;" direction="ltr" dominant-baseline="text-before-edge">- Stadtwerke</text><text x="0" y="92" font-family="Helvetica, Segoe UI Emoji" font-size="20px" fill="#1e1e1e" text-anchor="start" style="white-space: pre;" direction="ltr" dominant-baseline="text-before-edge">    - Tarife</text><text x="0" y="115" font-family="Helvetica, Segoe UI Emoji" font-size="20px" fill="#1e1e1e" text-anchor="start" style="white-space: pre;" direction="ltr" dominant-baseline="text-before-edge">        - Wasser</text><text x="0" y="138" font-family="Helvetica, Segoe UI Emoji" font-size="20px" fill="#1e1e1e" text-anchor="start" style="white-space: pre;" direction="ltr" dominant-baseline="text-before-edge">        - Strom</text><text x="0" y="161" font-family="Helvetica, Segoe UI Emoji" font-size="20px" fill="#1e1e1e" text-anchor="start" style="white-space: pre;" direction="ltr" dominant-baseline="text-before-edge">        - Wärmepumpe</text><text x="0" y="184" font-family="Helvetica, Segoe UI Emoji" font-size="20px" fill="#1e1e1e" text-anchor="start" style="white-space: pre;" direction="ltr" dominant-baseline="text-before-edge">        - Gas</text><text x="0" y="207" font-family="Helvetica, Segoe UI Emoji" font-size="20px" fill="#1e1e1e" text-anchor="start" style="white-space: pre;" direction="ltr" dominant-baseline="text-before-edge">    - Kunden</text></g></g><g clip-path="url(#7FrdkWy7DqGK-PKzlUeES)"><g stroke-linecap="round"><g transform="translate(60.97803999986718 644.6307264536987) rotate(0 141.61061985371225 -0.5230918750872888)"><path d="M0 0 C72.49 1.78, 146.73 1.29, 283.22 -1.05" stroke="#bbb" stroke-width="4.5" fill="none" stroke-dasharray="1.5 10"></path></g></g><mask></mask></g><g clip-path="url(#7FrdkWy7DqGK-PKzlUeES)"><g transform="translate(363.08096208766074 95.1087778440791) rotate(0 138.1025390625 20.69999999999999)"><text x="0" y="0" font-family="Helvetica, Segoe UI Emoji" font-size="36px" fill="#1e1e1e" text-anchor="start" style="white-space: pre;" direction="ltr" dominant-baseline="text-before-edge">Ihre Rechnungen</text></g></g><g clip-path="url(#7FrdkWy7DqGK-PKzlUeES)"><g stroke-linecap="round" transform="translate(358.59352547658636 201.15249410847684) rotate(0 96.05219219412538 25.69999999999999)"><path d="M12.85 0 C62.45 3.98, 107.94 0.8, 179.25 0 C189.81 -3.2, 188.54 2.89, 192.1 12.85 C195.1 23.62, 195.1 32.25, 192.1 38.55 C191.04 46.19, 189.35 50.2, 179.25 51.4 C126.84 47.98, 70.1 48.16, 12.85 51.4 C6.95 49.09, 0.25 45.88, 0 38.55 C-2.98 28.58, -1.01 22.96, 0 12.85 C-3.17 3.94, 1.69 1.65, 12.85 0" stroke="none" stroke-width="0" fill="#fff"></path><path d="M12.85 0 C77.6 -0.5, 146.32 -1.91, 179.25 0 M12.85 0 C46.98 -0.24, 82.94 0.05, 179.25 0 M179.25 0 C189.37 -0.42, 193.99 2.35, 192.1 12.85 M179.25 0 C186.77 0.35, 192.73 4.02, 192.1 12.85 M192.1 12.85 C191.47 20.68, 191.55 24.01, 192.1 38.55 M192.1 12.85 C192.11 20.28, 191.47 26.44, 192.1 38.55 M192.1 38.55 C193.5 48.45, 189.36 51.45, 179.25 51.4 M192.1 38.55 C193.44 47.39, 190.06 51.9, 179.25 51.4 M179.25 51.4 C116.03 50.72, 53.04 51.96, 12.85 51.4 M179.25 51.4 C139.5 50.2, 100.81 51.84, 12.85 51.4 M12.85 51.4 C4.61 51.86, -1.14 48.5, 0 38.55 M12.85 51.4 C5.83 50.75, 0.77 47.43, 0 38.55 M0 38.55 C-0.13 33.19, -1.22 28.45, 0 12.85 M0 38.55 C0.17 30.47, -0.1 24.23, 0 12.85 M0 12.85 C-1 5.82, 4.67 -0.62, 12.85 0 M0 12.85 C0.38 5.01, 6.47 -2.15, 12.85 0" stroke="#1e1e1e" stroke-width="2" fill="none"></path></g></g><g clip-path="url(#7FrdkWy7DqGK-PKzlUeES)"><g transform="translate(443.52267079571175 215.3524941084769) rotate(0 11.123046875 11.5)"><text x="11.123046875" y="0" font-family="Helvetica, Segoe UI Emoji" font-size="20px" fill="#1e1e1e" text-anchor="middle" style="white-space: pre;" direction="ltr" dominant-baseline="text-before-edge">02</text></g></g><g clip-path="url(#7FrdkWy7DqGK-PKzlUeES)"><g transform="translate(368.30813984081396 166.34029274471902) rotate(0 27.79296875 11.5)"><text x="0" y="0" font-family="Helvetica, Segoe UI Emoji" font-size="20px" fill="#1e1e1e" text-anchor="start" style="white-space: pre;" direction="ltr" dominant-baseline="text-before-edge">Monat</text></g></g><g clip-path="url(#7FrdkWy7DqGK-PKzlUeES)"><g stroke-linecap="round" transform="translate(884.2344316559575 193.2153765745835) rotate(0 31.174261943637248 26.362124849960423)"><path d="M13.18 0 C22.28 0, 31.39 0, 49.17 0 C57.95 0, 62.35 4.39, 62.35 13.18 C62.35 22.04, 62.35 30.9, 62.35 39.54 C62.35 48.33, 57.95 52.72, 49.17 52.72 C38.7 52.72, 28.24 52.72, 13.18 52.72 C4.39 52.72, 0 48.33, 0 39.54 C0 33.38, 0 27.21, 0 13.18 C0 4.39, 4.39 0, 13.18 0" stroke="none" stroke-width="0" fill="black"></path><path d="M13.18 0 C23.05 0, 32.92 0, 49.17 0 M13.18 0 C23.47 0, 33.75 0, 49.17 0 M49.17 0 C57.95 0, 62.35 4.39, 62.35 13.18 M49.17 0 C57.95 0, 62.35 4.39, 62.35 13.18 M62.35 13.18 C62.35 19.64, 62.35 26.1, 62.35 39.54 M62.35 13.18 C62.35 18.58, 62.35 23.98, 62.35 39.54 M62.35 39.54 C62.35 48.33, 57.95 52.72, 49.17 52.72 M62.35 39.54 C62.35 48.33, 57.95 52.72, 49.17 52.72 M49.17 52.72 C37 52.72, 24.83 52.72, 13.18 52.72 M49.17 52.72 C35.24 52.72, 21.32 52.72, 13.18 52.72 M13.18 52.72 C4.39 52.72, 0 48.33, 0 39.54 M13.18 52.72 C4.39 52.72, 0 48.33, 0 39.54 M0 39.54 C0 29.8, 0 20.06, 0 13.18 M0 39.54 C0 30.08, 0 20.63, 0 13.18 M0 13.18 C0 4.39, 4.39 0, 13.18 0 M0 13.18 C0 4.39, 4.39 0, 13.18 0" stroke="white" stroke-width="2" fill="none"></path></g></g><g clip-path="url(#7FrdkWy7DqGK-PKzlUeES)"><g stroke-linecap="round" transform="translate(358.25790821716873 299.9179673756598) rotate(359.9296265924723 447.17201077588584 231.47772940869055)"><path d="M0 0 C238.41 2.59, 477.39 2.66, 894.34 0 M0 0 C249.31 3.52, 499.1 3.41, 894.34 0 M894.34 0 C892.92 111.25, 892.96 220.42, 894.34 462.96 M894.34 0 C895.09 131, 894.8 261.41, 894.34 462.96 M894.34 462.96 C563.73 466.17, 233.16 466.48, 0 462.96 M894.34 462.96 C606.69 459.71, 319.03 459.58, 0 462.96 M0 462.96 C1.16 305.75, 0.69 149.52, 0 0 M0 462.96 C-0.61 284.13, -0.03 104.53, 0 0" stroke="#000000" stroke-width="1" fill="none"></path></g></g><g clip-path="url(#7FrdkWy7DqGK-PKzlUeES)"><g stroke-linecap="round" transform="translate(1205.8250913094416 337.1623094685341) rotate(359.9296265924723 14.283668658023089 180.5827433268886)"><path d="M0 0 C6.66 1.36, 13.46 1.69, 28.57 0 M0 0 C6.08 -0.16, 11 -0.6, 28.57 0 M28.57 0 C27.75 104.22, 27.79 210.3, 28.57 361.17 M28.57 0 C27.91 97.3, 28.81 196.23, 28.57 361.17 M28.57 361.17 C18.04 363.28, 7.47 362.82, 0 361.17 M28.57 361.17 C22.21 360.27, 16.71 360.38, 0 361.17 M0 361.17 C-0.38 231.29, 1.69 102.73, 0 0 M0 361.17 C1.72 244.29, 1.51 127.85, 0 0" stroke="#000000" stroke-width="1" fill="none"></path></g></g><g clip-path="url(#7FrdkWy7DqGK-PKzlUeES)"><g stroke-linecap="round" transform="translate(1210.8685330075605 342.47029958241785) rotate(359.9296265924723 9.294593663256478 80.36414904418757)"><path d="M0.78 -0.01 L18.78 -0.55 L19.28 160.63 L0.77 159.96" stroke="none" stroke-width="0" fill="black"></path><path d="M0 0 C6.66 0.8, 12.8 -0.5, 18.59 0 M0 0 C5.57 -0.25, 11.67 -0.1, 18.59 0 M18.59 0 C18.25 62.24, 18.13 123.66, 18.59 160.73 M18.59 0 C18.35 51.15, 18.39 101.65, 18.59 160.73 M18.59 160.73 C12.13 161.51, 4.48 160.71, 0 160.73 M18.59 160.73 C14.01 160.35, 9.35 160.54, 0 160.73 M0 160.73 C1.49 124.71, 0.85 87.8, 0 0 M0 160.73 C-0.37 101.44, -0.92 42.22, 0 0" stroke="#000000" stroke-width="1" fill="none"></path></g></g><g clip-path="url(#7FrdkWy7DqGK-PKzlUeES)"><g stroke-linecap="round" transform="translate(569.4835372299967 199.57369895744944) rotate(0 96.05219219412538 25.69999999999999)"><path d="M12.85 0 C78.81 -3.72, 141.25 -1.12, 179.25 0 C186.62 1.13, 192.13 0.79, 192.1 12.85 C191.71 25.18, 189.73 32.43, 192.1 38.55 C190.87 45.57, 190.49 51.53, 179.25 51.4 C139.16 47.67, 103.49 48.25, 12.85 51.4 C5.93 51.34, 2.25 46.13, 0 38.55 C2.29 33.39, -0.75 18.87, 0 12.85 C-2.19 7.67, 1.52 1.21, 12.85 0" stroke="none" stroke-width="0" fill="#fff"></path><path d="M12.85 0 C73.75 -2.48, 138.81 -1.02, 179.25 0 M12.85 0 C60.8 0.69, 109.78 0.73, 179.25 0 M179.25 0 C186.72 -0.34, 192.84 3.7, 192.1 12.85 M179.25 0 C187.63 0.37, 190.42 2.1, 192.1 12.85 M192.1 12.85 C192.33 23.51, 192.51 33.8, 192.1 38.55 M192.1 12.85 C192.18 20.67, 192.06 28.61, 192.1 38.55 M192.1 38.55 C192.87 45.8, 188.98 50.88, 179.25 51.4 M192.1 38.55 C190.38 45.35, 186.8 53.4, 179.25 51.4 M179.25 51.4 C128.03 51.8, 73.47 51.12, 12.85 51.4 M179.25 51.4 C127.82 52.1, 75.01 51.56, 12.85 51.4 M12.85 51.4 C5.67 51.2, 1.55 45.58, 0 38.55 M12.85 51.4 C5.13 49.95, 0.24 48.47, 0 38.55 M0 38.55 C-0.82 32.46, 0.43 27.61, 0 12.85 M0 38.55 C-0.79 33.85, 0.45 28, 0 12.85 M0 12.85 C-0.94 5.39, 2.5 -1.98, 12.85 0 M0 12.85 C-0.89 5.48, 3.34 -0.92, 12.85 0" stroke="#1e1e1e" stroke-width="2" fill="none"></path></g></g><g clip-path="url(#7FrdkWy7DqGK-PKzlUeES)"><g transform="translate(643.2896356741221 213.77369895744948) rotate(0 22.24609375 11.5)"><text x="22.24609375" y="0" font-family="Helvetica, Segoe UI Emoji" font-size="20px" fill="#1e1e1e" text-anchor="middle" style="white-space: pre;" direction="ltr" dominant-baseline="text-before-edge">2024</text></g></g><g clip-path="url(#7FrdkWy7DqGK-PKzlUeES)"><g transform="translate(577.9174093864385 169.8842905470616) rotate(0 19.453125 11.5)"><text x="0" y="0" font-family="Helvetica, Segoe UI Emoji" font-size="20px" fill="#1e1e1e" text-anchor="start" style="white-space: pre;" direction="ltr" dominant-baseline="text-before-edge">Jahr</text></g></g><g clip-path="url(#7FrdkWy7DqGK-PKzlUeES)"><g stroke-linecap="round" transform="translate(373.029317322118 322.40542674962023) rotate(0 400.2191450215007 27.62105468575578)"><path d="M13.81 0 C278.56 -3.14, 544.39 -1.95, 786.63 0 C796.97 -0.33, 803.11 2.29, 800.44 13.81 C802.94 22.42, 797.63 27.41, 800.44 41.43 C799.77 48.26, 792.66 54.9, 786.63 55.24 C611.38 54.76, 434.67 55.19, 13.81 55.24 C6.84 57.55, 3.16 49.9, 0 41.43 C-2.46 36.69, 1.18 30.77, 0 13.81 C2.44 5.11, 2.27 -2.27, 13.81 0" stroke="none" stroke-width="0" fill="#fff"></path><path d="M13.81 0 C266.38 1.82, 519.64 2.58, 786.63 0 M13.81 0 C229.87 0.42, 445.59 0.6, 786.63 0 M786.63 0 C794.37 -1.9, 801.83 5.94, 800.44 13.81 M786.63 0 C797.6 0.06, 801.78 4.87, 800.44 13.81 M800.44 13.81 C798.78 24.55, 799.61 35.28, 800.44 41.43 M800.44 13.81 C801.12 19.72, 799.79 25.38, 800.44 41.43 M800.44 41.43 C799.55 52.38, 796.16 55.7, 786.63 55.24 M800.44 41.43 C799.13 52.23, 797.38 54.6, 786.63 55.24 M786.63 55.24 C529.32 53.51, 271.31 53.03, 13.81 55.24 M786.63 55.24 C597.83 54.63, 408.56 54.68, 13.81 55.24 M13.81 55.24 C4.81 56.42, -1 52.17, 0 41.43 M13.81 55.24 C5.05 54.53, 0.38 51.36, 0 41.43 M0 41.43 C-1.54 28.86, 1.47 20.44, 0 13.81 M0 41.43 C-0.76 31.98, -0.26 25.03, 0 13.81 M0 13.81 C-0.82 3.81, 6.38 0.95, 13.81 0 M0 13.81 C2.03 5.43, 3.92 -0.59, 13.81 0" stroke="#1e1e1e" stroke-width="2" fill="none"></path></g></g><g clip-path="url(#7FrdkWy7DqGK-PKzlUeES)"><g transform="translate(378.029317322118 338.526481435376) rotate(0 286.8115234375 11.5)"><text x="0" y="0" font-family="Helvetica, Segoe UI Emoji" font-size="20px" fill="#1e1e1e" text-anchor="start" style="white-space: pre;" direction="ltr" dominant-baseline="text-before-edge">  Strom             April 2024           Rechnungsnummer: 123020321</text></g></g><g clip-path="url(#7FrdkWy7DqGK-PKzlUeES)"><g stroke-linecap="round" transform="translate(377.5117391715794 403.7300946552608) rotate(0 400.2191450215007 27.62105468575578)"><path d="M13.81 0 C171.19 0.67, 328.72 -0.12, 786.63 0 C796.09 -1.24, 798.89 7.27, 800.44 13.81 C799.41 19.82, 796.9 30.24, 800.44 41.43 C797.84 52.29, 795.78 57.49, 786.63 55.24 C576.77 56.3, 366.38 55.09, 13.81 55.24 C1.56 53.05, 3.38 47.88, 0 41.43 C2.32 32.73, -2.46 20.73, 0 13.81 C-0.54 2.47, 3.74 -1.24, 13.81 0" stroke="none" stroke-width="0" fill="#fff"></path><path d="M13.81 0 C238.15 -3.07, 462.68 -2.33, 786.63 0 M13.81 0 C223.01 -0.88, 433.07 -0.23, 786.63 0 M786.63 0 C797.37 0.05, 801.6 4.84, 800.44 13.81 M786.63 0 C798.07 0.5, 802.15 2.63, 800.44 13.81 M800.44 13.81 C798.78 22.53, 799 30.89, 800.44 41.43 M800.44 13.81 C799.79 22.25, 800.39 29.17, 800.44 41.43 M800.44 41.43 C799.3 52.03, 797.18 54.68, 786.63 55.24 M800.44 41.43 C801.21 50.96, 794.08 56.22, 786.63 55.24 M786.63 55.24 C493.75 56.39, 201.67 56.45, 13.81 55.24 M786.63 55.24 C614.31 53.53, 441.7 53.6, 13.81 55.24 M13.81 55.24 C4.99 54.62, 0.33 51.27, 0 41.43 M13.81 55.24 C6.79 53.09, -0.34 48.57, 0 41.43 M0 41.43 C-0.04 34.51, 0.94 27.68, 0 13.81 M0 41.43 C-0.31 35.48, 0.99 30.8, 0 13.81 M0 13.81 C1.77 5.32, 4.01 -0.51, 13.81 0 M0 13.81 C0.98 3.83, 5.33 0.02, 13.81 0" stroke="#1e1e1e" stroke-width="2" fill="none"></path></g></g><g clip-path="url(#7FrdkWy7DqGK-PKzlUeES)"><g transform="translate(382.5117391715794 419.8511493410166) rotate(0 278.4814453125 11.5)"><text x="0" y="0" font-family="Helvetica, Segoe UI Emoji" font-size="20px" fill="#1e1e1e" text-anchor="start" style="white-space: pre;" direction="ltr" dominant-baseline="text-before-edge">  Gas             April 2024           Rechnungsnummer: 123020322</text></g></g><g clip-path="url(#7FrdkWy7DqGK-PKzlUeES)"><g stroke-linecap="round" transform="translate(379.60596295699725 477.54159012514526) rotate(0 400.2191450215007 27.62105468575578)"><path d="M13.81 0 C238.61 3.07, 462.6 4.64, 786.63 0 C795.97 -2.64, 797.07 3.94, 800.44 13.81 C797.41 21.92, 799.94 28.98, 800.44 41.43 C799.46 51.49, 795.93 57.48, 786.63 55.24 C504.1 53.22, 225.37 52.99, 13.81 55.24 C5.81 56.12, 1.24 53.08, 0 41.43 C-0.21 30.62, -0.54 22.83, 0 13.81 C3.13 7.57, 6.05 -2.88, 13.81 0" stroke="none" stroke-width="0" fill="#fff"></path><path d="M13.81 0 C202.95 -1.21, 392.67 -1.72, 786.63 0 M13.81 0 C172.46 -2.05, 330.72 -2.02, 786.63 0 M786.63 0 C797.78 0.43, 801.93 2.89, 800.44 13.81 M786.63 0 C795.56 -1.02, 799.89 2.84, 800.44 13.81 M800.44 13.81 C799.74 21.65, 798.72 31.6, 800.44 41.43 M800.44 13.81 C799.92 25.19, 801.16 34.91, 800.44 41.43 M800.44 41.43 C801.11 50.91, 794.31 56.1, 786.63 55.24 M800.44 41.43 C802.24 50.62, 796.28 53.97, 786.63 55.24 M786.63 55.24 C500.49 57.93, 215.07 57.71, 13.81 55.24 M786.63 55.24 C509.43 57.49, 232.15 57.74, 13.81 55.24 M13.81 55.24 C6.5 53.37, -0.3 48.84, 0 41.43 M13.81 55.24 C2.69 56.63, 0.95 50.79, 0 41.43 M0 41.43 C-2.13 33.67, 0.89 26.63, 0 13.81 M0 41.43 C0.64 34.6, -0.54 26.8, 0 13.81 M0 13.81 C0.85 3.94, 5.23 0.01, 13.81 0 M0 13.81 C-2.23 6.35, 4.27 0.72, 13.81 0" stroke="#1e1e1e" stroke-width="2" fill="none"></path></g></g><g clip-path="url(#7FrdkWy7DqGK-PKzlUeES)"><g transform="translate(384.60596295699725 493.66264481090104) rotate(0 282.919921875 11.5)"><text x="0" y="0" font-family="Helvetica, Segoe UI Emoji" font-size="20px" fill="#1e1e1e" text-anchor="start" style="white-space: pre;" direction="ltr" dominant-baseline="text-before-edge">  Strom             Mai 2024           Rechnungsnummer: 123020323</text></g></g><g clip-path="url(#7FrdkWy7DqGK-PKzlUeES)"><g stroke-linecap="round" transform="translate(901.5655475495732 205.3337288205429) rotate(0 10.891531178306366 10.891531178306366)"><path d="M21.78 10.89 C21.78 11.52, 21.73 12.16, 21.62 12.78 C21.51 13.4, 21.34 14.02, 21.13 14.62 C20.91 15.21, 20.64 15.79, 20.32 16.34 C20.01 16.88, 19.64 17.41, 19.23 17.89 C18.83 18.38, 18.38 18.83, 17.89 19.23 C17.41 19.64, 16.88 20.01, 16.34 20.32 C15.79 20.64, 15.21 20.91, 14.62 21.13 C14.02 21.34, 13.4 21.51, 12.78 21.62 C12.16 21.73, 11.52 21.78, 10.89 21.78 C10.26 21.78, 9.62 21.73, 9 21.62 C8.38 21.51, 7.76 21.34, 7.17 21.13 C6.57 20.91, 5.99 20.64, 5.45 20.32 C4.9 20.01, 4.37 19.64, 3.89 19.23 C3.41 18.83, 2.95 18.38, 2.55 17.89 C2.14 17.41, 1.77 16.88, 1.46 16.34 C1.14 15.79, 0.87 15.21, 0.66 14.62 C0.44 14.02, 0.27 13.4, 0.17 12.78 C0.06 12.16, 0 11.52, 0 10.89 C0 10.26, 0.06 9.62, 0.17 9 C0.27 8.38, 0.44 7.76, 0.66 7.17 C0.87 6.57, 1.14 5.99, 1.46 5.45 C1.77 4.9, 2.14 4.37, 2.55 3.89 C2.95 3.41, 3.41 2.95, 3.89 2.55 C4.37 2.14, 4.9 1.77, 5.45 1.46 C5.99 1.14, 6.57 0.87, 7.17 0.66 C7.76 0.44, 8.38 0.27, 9 0.17 C9.62 0.06, 10.26 0, 10.89 0 C11.52 0, 12.16 0.06, 12.78 0.17 C13.4 0.27, 14.02 0.44, 14.62 0.66 C15.21 0.87, 15.79 1.14, 16.34 1.46 C16.88 1.77, 17.41 2.14, 17.89 2.55 C18.38 2.95, 18.83 3.41, 19.23 3.89 C19.64 4.37, 20.01 4.9, 20.32 5.45 C20.64 5.99, 20.91 6.57, 21.13 7.17 C21.34 7.76, 21.51 8.38, 21.62 9 C21.73 9.62, 21.76 10.58, 21.78 10.89 C21.81 11.21, 21.81 10.58, 21.78 10.89" stroke="white" stroke-width="2" fill="none"></path></g></g><g clip-path="url(#7FrdkWy7DqGK-PKzlUeES)"><g stroke-linecap="round"><g transform="translate(919.1353325799755 222.76277060576047) rotate(0 5.960971357542803 5.76940441427854)"><path d="M0 0 C2.71 2.62, 5.41 5.24, 11.92 11.54 M0 0 C3.72 3.6, 7.43 7.2, 11.92 11.54" stroke="white" stroke-width="2" fill="none"></path></g></g><mask></mask></g><g clip-path="url(#7FrdkWy7DqGK-PKzlUeES)"><g stroke-linecap="round" transform="translate(1012.7938922377907 487.9896210543128) rotate(0 73.93466188158709 16.942610235379107)"><path d="M8.47 0 C38.14 0, 67.82 0, 139.4 0 C145.05 0, 147.87 2.82, 147.87 8.47 C147.87 13.96, 147.87 19.44, 147.87 25.41 C147.87 31.06, 145.05 33.89, 139.4 33.89 C96.93 33.89, 54.47 33.89, 8.47 33.89 C2.82 33.89, 0 31.06, 0 25.41 C0 18.94, 0 12.46, 0 8.47 C0 2.82, 2.82 0, 8.47 0" stroke="none" stroke-width="0" fill="black"></path><path d="M8.47 0 C56.87 0, 105.28 0, 139.4 0 M8.47 0 C50.58 0, 92.68 0, 139.4 0 M139.4 0 C145.05 0, 147.87 2.82, 147.87 8.47 M139.4 0 C145.05 0, 147.87 2.82, 147.87 8.47 M147.87 8.47 C147.87 13.83, 147.87 19.18, 147.87 25.41 M147.87 8.47 C147.87 13.79, 147.87 19.11, 147.87 25.41 M147.87 25.41 C147.87 31.06, 145.05 33.89, 139.4 33.89 M147.87 25.41 C147.87 31.06, 145.05 33.89, 139.4 33.89 M139.4 33.89 C106.7 33.89, 74 33.89, 8.47 33.89 M139.4 33.89 C112.36 33.89, 85.32 33.89, 8.47 33.89 M8.47 33.89 C2.82 33.89, 0 31.06, 0 25.41 M8.47 33.89 C2.82 33.89, 0 31.06, 0 25.41 M0 25.41 C0 18.83, 0 12.25, 0 8.47 M0 25.41 C0 20.9, 0 16.38, 0 8.47 M0 8.47 C0 2.82, 2.82 0, 8.47 0 M0 8.47 C0 2.82, 2.82 0, 8.47 0" stroke="white" stroke-width="2" fill="none"></path></g></g><g clip-path="url(#7FrdkWy7DqGK-PKzlUeES)"><g transform="translate(1036.0293353693778 495.73223128969187) rotate(0 50.69921875 9.200000000000045)"><text x="50.69921875" y="0" font-family="Helvetica, Segoe UI Emoji" font-size="16px" fill="white" text-anchor="middle" style="white-space: pre;" direction="ltr" dominant-baseline="text-before-edge">Herunterladen</text></g></g><g clip-path="url(#7FrdkWy7DqGK-PKzlUeES)"><g stroke-linecap="round" transform="translate(781.0190841252843 192.253326170464) rotate(0 6.223614017363445 6.223614017363445)"><path d="M7.16 -0.01 C8.42 0.19, 9.83 1.37, 10.66 2.47 C11.48 3.57, 12.09 5.35, 12.12 6.59 C12.14 7.83, 11.69 8.98, 10.81 9.91 C9.93 10.83, 8.07 11.85, 6.85 12.14 C5.62 12.44, 4.55 12.35, 3.48 11.66 C2.42 10.97, 0.92 9.21, 0.47 8 C0.01 6.78, 0.32 5.53, 0.75 4.36 C1.18 3.19, 1.86 1.72, 3.04 0.96 C4.21 0.2, 6.94 -0.17, 7.81 -0.19 C8.68 -0.22, 8.31 0.62, 8.27 0.8 M5.95 -0.52 C7.15 -0.84, 8.76 -0.4, 9.8 0.48 C10.85 1.36, 11.92 3.31, 12.22 4.75 C12.52 6.19, 12.1 8.01, 11.61 9.14 C11.12 10.26, 10.38 10.92, 9.28 11.49 C8.19 12.06, 6.26 12.9, 5.05 12.55 C3.84 12.19, 2.89 10.55, 2.03 9.35 C1.17 8.14, 0.07 6.46, -0.11 5.32 C-0.28 4.18, 0.02 3.37, 0.98 2.51 C1.94 1.64, 5 0.43, 5.68 0.11 C6.35 -0.21, 5.18 0.63, 5.03 0.6" stroke="#000000" stroke-width="1" fill="none"></path></g></g><g clip-path="url(#7FrdkWy7DqGK-PKzlUeES)"><g transform="translate(799.7519616019563 188.3192882130354) rotate(0 27.80797576904297 10.475205517453503)"><text x="0" y="0" font-family="Virgil, Segoe UI Emoji" font-size="16px" fill="#000000" text-anchor="start" style="white-space: pre;" direction="ltr" dominant-baseline="text-before-edge">Wasser</text></g></g><g clip-path="url(#7FrdkWy7DqGK-PKzlUeES)"><g stroke-linecap="round" transform="translate(784.5149232865515 195.55364543895132) rotate(0 2.972368194454816 2.972368194454816)"><path d="M3.32 0.17 C3.89 0.26, 4.65 0.71, 5.09 1.11 C5.52 1.5, 5.87 1.96, 5.95 2.57 C6.02 3.18, 5.93 4.22, 5.55 4.77 C5.17 5.32, 4.3 5.75, 3.67 5.85 C3.05 5.95, 2.38 5.69, 1.8 5.37 C1.23 5.05, 0.53 4.47, 0.23 3.95 C-0.07 3.43, -0.19 2.9, 0.01 2.28 C0.21 1.65, 0.9 0.58, 1.43 0.19 C1.96 -0.19, 2.87 0.05, 3.19 -0.01 C3.51 -0.08, 3.32 -0.19, 3.36 -0.17 M3.06 0.13 C3.67 0.14, 4.53 0.66, 5.06 1.16 C5.6 1.66, 6.21 2.61, 6.25 3.12 C6.29 3.63, 5.79 3.7, 5.32 4.23 C4.86 4.76, 4.13 6.03, 3.47 6.3 C2.81 6.57, 1.87 6.16, 1.36 5.85 C0.85 5.54, 0.57 5.02, 0.41 4.43 C0.26 3.84, 0.35 3, 0.43 2.31 C0.52 1.61, 0.47 0.67, 0.92 0.24 C1.37 -0.19, 2.77 -0.23, 3.12 -0.29 C3.48 -0.35, 2.99 -0.27, 3.07 -0.1" stroke="none" stroke-width="0" fill="black"></path><path d="M2.63 0.2 C3.27 0.07, 4.21 0.04, 4.7 0.37 C5.2 0.7, 5.42 1.52, 5.62 2.19 C5.82 2.87, 6.13 3.85, 5.89 4.41 C5.65 4.97, 4.78 5.26, 4.18 5.53 C3.58 5.8, 2.93 6.17, 2.3 6.03 C1.66 5.88, 0.74 5.29, 0.37 4.67 C0 4.05, -0.05 2.93, 0.07 2.32 C0.2 1.71, 0.64 1.41, 1.11 1.04 C1.59 0.66, 2.62 0.19, 2.9 0.06 C3.17 -0.06, 2.77 0.21, 2.76 0.29 M2.64 0.32 C3.17 0.32, 3.78 0.58, 4.32 0.85 C4.87 1.12, 5.66 1.36, 5.91 1.93 C6.15 2.5, 5.98 3.74, 5.8 4.27 C5.62 4.81, 5.41 4.95, 4.81 5.15 C4.22 5.34, 3.02 5.43, 2.25 5.42 C1.48 5.41, 0.53 5.5, 0.19 5.08 C-0.15 4.65, 0.15 3.51, 0.21 2.87 C0.27 2.23, 0.23 1.79, 0.55 1.24 C0.87 0.68, 1.84 -0.32, 2.15 -0.47 C2.46 -0.62, 2.36 0.25, 2.41 0.34" stroke="#000000" stroke-width="1" fill="none"></path></g></g><g clip-path="url(#7FrdkWy7DqGK-PKzlUeES)"><g stroke-linecap="round" transform="translate(781.1191217614214 215.84661790461962) rotate(0 6.223614017363445 6.223614017363445)"><path d="M6.68 -0.35 C7.94 -0.39, 9.24 0.61, 10.27 1.64 C11.3 2.66, 12.67 4.49, 12.86 5.81 C13.05 7.13, 12.2 8.42, 11.41 9.55 C10.62 10.68, 9.47 12.17, 8.13 12.58 C6.8 12.99, 4.66 12.7, 3.41 12.01 C2.16 11.32, 1.13 9.6, 0.63 8.43 C0.14 7.25, 0.1 6.16, 0.44 4.96 C0.78 3.75, 1.65 1.95, 2.69 1.19 C3.73 0.43, 5.95 0.49, 6.67 0.39 C7.39 0.29, 7.05 0.49, 7.02 0.57 M4.87 0.65 C6.12 0.26, 8.35 0.03, 9.57 0.65 C10.8 1.28, 11.7 3.25, 12.23 4.43 C12.76 5.61, 13.26 6.66, 12.75 7.75 C12.23 8.84, 10.52 10.15, 9.13 10.99 C7.74 11.83, 5.65 12.92, 4.41 12.79 C3.17 12.65, 2.49 11.23, 1.7 10.19 C0.9 9.15, -0.21 8, -0.35 6.53 C-0.49 5.07, -0.03 2.41, 0.86 1.4 C1.74 0.39, 4.27 0.72, 4.96 0.47 C5.64 0.22, 4.78 -0.2, 4.96 -0.1" stroke="#000000" stroke-width="1" fill="none"></path></g></g><g clip-path="url(#7FrdkWy7DqGK-PKzlUeES)"><g transform="translate(799.8345937713057 212.070231921983) rotate(0 22.319984436035156 10)"><text x="0" y="0" font-family="Virgil, Segoe UI Emoji" font-size="16px" fill="#000000" text-anchor="start" style="white-space: pre;" direction="ltr" dominant-baseline="text-before-edge">Strom</text></g></g><g clip-path="url(#7FrdkWy7DqGK-PKzlUeES)"><g stroke-linecap="round" transform="translate(780.8942280820047 237.5309655811053) rotate(0 6.223614017363445 6.223614017363445)"><path d="M5.5 0.19 C6.81 -0.13, 8.23 -0.18, 9.38 0.51 C10.53 1.21, 11.96 3.03, 12.39 4.36 C12.82 5.68, 12.44 7.31, 11.96 8.44 C11.47 9.58, 10.56 10.47, 9.47 11.19 C8.39 11.91, 6.76 12.89, 5.43 12.76 C4.11 12.62, 2.45 11.4, 1.5 10.38 C0.55 9.36, -0.25 7.94, -0.28 6.65 C-0.3 5.37, 0.49 3.74, 1.36 2.67 C2.22 1.6, 4.27 0.66, 4.92 0.25 C5.57 -0.16, 5.12 0.18, 5.25 0.21 M7.53 0.35 C8.89 0.44, 10.97 0.72, 11.77 1.6 C12.57 2.49, 12.58 4.13, 12.33 5.66 C12.09 7.18, 11.1 9.63, 10.3 10.76 C9.49 11.89, 8.78 12.22, 7.51 12.42 C6.24 12.62, 3.97 12.79, 2.67 11.97 C1.36 11.16, 0.1 8.77, -0.33 7.51 C-0.75 6.24, -0.41 5.56, 0.12 4.39 C0.66 3.21, 1.57 1.13, 2.9 0.48 C4.22 -0.17, 7.22 0.47, 8.07 0.47 C8.93 0.48, 8.22 0.5, 8.05 0.51" stroke="#000000" stroke-width="1" fill="none"></path></g></g><g clip-path="url(#7FrdkWy7DqGK-PKzlUeES)"><g transform="translate(799.609700091889 233.75457959846824) rotate(0 15.991989135742188 10)"><text x="0" y="0" font-family="Virgil, Segoe UI Emoji" font-size="16px" fill="#000000" text-anchor="start" style="white-space: pre;" direction="ltr" dominant-baseline="text-before-edge">Gas</text></g></g><g clip-path="url(#7FrdkWy7DqGK-PKzlUeES)"><g stroke-linecap="round" transform="translate(1013.9065018182009 413.1837849181328) rotate(0 73.93466188158709 16.942610235379107)"><path d="M8.47 0 C39.78 0, 71.08 0, 139.4 0 C145.05 0, 147.87 2.82, 147.87 8.47 C147.87 12.55, 147.87 16.62, 147.87 25.41 C147.87 31.06, 145.05 33.89, 139.4 33.89 C89.02 33.89, 38.65 33.89, 8.47 33.89 C2.82 33.89, 0 31.06, 0 25.41 C0 19.47, 0 13.52, 0 8.47 C0 2.82, 2.82 0, 8.47 0" stroke="none" stroke-width="0" fill="black"></path><path d="M8.47 0 C37.94 0, 67.41 0, 139.4 0 M8.47 0 C56.83 0, 105.18 0, 139.4 0 M139.4 0 C145.05 0, 147.87 2.82, 147.87 8.47 M139.4 0 C145.05 0, 147.87 2.82, 147.87 8.47 M147.87 8.47 C147.87 14.18, 147.87 19.88, 147.87 25.41 M147.87 8.47 C147.87 13.03, 147.87 17.59, 147.87 25.41 M147.87 25.41 C147.87 31.06, 145.05 33.89, 139.4 33.89 M147.87 25.41 C147.87 31.06, 145.05 33.89, 139.4 33.89 M139.4 33.89 C105.18 33.89, 70.96 33.89, 8.47 33.89 M139.4 33.89 C95.41 33.89, 51.41 33.89, 8.47 33.89 M8.47 33.89 C2.82 33.89, 0 31.06, 0 25.41 M8.47 33.89 C2.82 33.89, 0 31.06, 0 25.41 M0 25.41 C0 20.91, 0 16.41, 0 8.47 M0 25.41 C0 21.45, 0 17.49, 0 8.47 M0 8.47 C0 2.82, 2.82 0, 8.47 0 M0 8.47 C0 2.82, 2.82 0, 8.47 0" stroke="white" stroke-width="2" fill="none"></path></g></g><g clip-path="url(#7FrdkWy7DqGK-PKzlUeES)"><g transform="translate(1037.141944949788 420.92639515351186) rotate(0 50.69921875 9.200000000000045)"><text x="50.69921875" y="0" font-family="Helvetica, Segoe UI Emoji" font-size="16px" fill="white" text-anchor="middle" style="white-space: pre;" direction="ltr" dominant-baseline="text-before-edge">Herunterladen</text></g></g><g clip-path="url(#7FrdkWy7DqGK-PKzlUeES)"><g stroke-linecap="round" transform="translate(1012.2905478708308 332.1722717602379) rotate(0 73.93466188158709 16.94261023537905)"><path d="M8.47 0 C50.93 0, 93.4 0, 139.4 0 C145.05 0, 147.87 2.82, 147.87 8.47 C147.87 14.95, 147.87 21.42, 147.87 25.41 C147.87 31.06, 145.05 33.89, 139.4 33.89 C87.12 33.89, 34.84 33.89, 8.47 33.89 C2.82 33.89, 0 31.06, 0 25.41 C0 18.8, 0 12.19, 0 8.47 C0 2.82, 2.82 0, 8.47 0" stroke="none" stroke-width="0" fill="black"></path><path d="M8.47 0 C49.86 0, 91.26 0, 139.4 0 M8.47 0 C49.56 0, 90.65 0, 139.4 0 M139.4 0 C145.05 0, 147.87 2.82, 147.87 8.47 M139.4 0 C145.05 0, 147.87 2.82, 147.87 8.47 M147.87 8.47 C147.87 12.7, 147.87 16.93, 147.87 25.41 M147.87 8.47 C147.87 11.97, 147.87 15.47, 147.87 25.41 M147.87 25.41 C147.87 31.06, 145.05 33.89, 139.4 33.89 M147.87 25.41 C147.87 31.06, 145.05 33.89, 139.4 33.89 M139.4 33.89 C88.52 33.89, 37.64 33.89, 8.47 33.89 M139.4 33.89 C104.5 33.89, 69.59 33.89, 8.47 33.89 M8.47 33.89 C2.82 33.89, 0 31.06, 0 25.41 M8.47 33.89 C2.82 33.89, 0 31.06, 0 25.41 M0 25.41 C0 21.57, 0 17.73, 0 8.47 M0 25.41 C0 19.55, 0 13.7, 0 8.47 M0 8.47 C0 2.82, 2.82 0, 8.47 0 M0 8.47 C0 2.82, 2.82 0, 8.47 0" stroke="white" stroke-width="2" fill="none"></path></g></g><g clip-path="url(#7FrdkWy7DqGK-PKzlUeES)"><g transform="translate(1035.5259910024179 339.91488199561695) rotate(0 50.69921875 9.199999999999989)"><text x="50.69921875" y="0" font-family="Helvetica, Segoe UI Emoji" font-size="16px" fill="white" text-anchor="middle" style="white-space: pre;" direction="ltr" dominant-baseline="text-before-edge">Herunterladen</text></g></g><g clip-path="url(#7FrdkWy7DqGK-PKzlUeES)"><g transform="translate(91.59122352541453 733.1116296469719) rotate(0 29.653038024902344 11.152405278842025)"><text x="0" y="0" font-family="Helvetica, Segoe UI Emoji" font-size="19.39548744146448px" fill="#1e1e1e" text-anchor="start" style="white-space: pre;" direction="ltr" dominant-baseline="text-before-edge">Logout</text></g></g><g stroke-linecap="round"><g transform="translate(826.811766039551 -85.96524018417347) rotate(0 -0.783779780000259 134.09584009444006)"><path d="M0.93 -0.92 C0.6 43.67, -0.73 222.47, -1.13 267.44" stroke="#f08c00" stroke-width="4.5" fill="none" stroke-dasharray="1.5 10"></path></g></g><mask></mask></svg>