<svg version="1.1" xmlns="http://www.w3.org/2000/svg" viewBox="0 0 1416.3203124999998 1956.9493275874086" width="1416.3203124999998" height="1956.9493275874086">
  <!-- svg-source:excalidraw -->
  
  <defs>
    <style class="style-fonts">
      @font-face {
        font-family: "Virgil";
        src: url("https://file%2B.vscode-resource.vscode-cdn.net/c%3A/Users/lisa-/.vscode/extensions/pomdtr.excalidraw-editor-3.7.4/public//dist/excalidraw-assets/Virgil.woff2");
      }
      @font-face {
        font-family: "Cascadia";
        src: url("https://file%2B.vscode-resource.vscode-cdn.net/c%3A/Users/lisa-/.vscode/extensions/pomdtr.excalidraw-editor-3.7.4/public//dist/excalidraw-assets/Cascadia.woff2");
      }
      @font-face {
        font-family: "Assistant";
        src: url("https://file%2B.vscode-resource.vscode-cdn.net/c%3A/Users/lisa-/.vscode/extensions/pomdtr.excalidraw-editor-3.7.4/public//dist/excalidraw-assets/Assistant-Regular.woff2");
      }
    </style>
    <clipPath id="mak8p7aQeuouqvx8VXBBu">
            <rect transform="translate(10 1115.0352650874083) rotate(0 698.1601562499999 415.95703125000006)" width="1396.3203124999998" height="831.9140625000002">
          </rect>
        </clipPath>
  </defs>
  <rect x="0" y="0" width="1416.3203124999998" height="1956.9493275874086" fill="#ffffff"></rect><g clip-path="url(#mak8p7aQeuouqvx8VXBBu)"><g stroke-linecap="round" transform="translate(65.62681557318137 1176.6717652550672) rotate(0 640 360)"><path d="M0 0 C454.01 0, 908.01 0, 1280 0 M0 0 C290.35 0, 580.7 0, 1280 0 M1280 0 C1280 181.39, 1280 362.78, 1280 720 M1280 0 C1280 283.39, 1280 566.78, 1280 720 M1280 720 C834.76 720, 389.52 720, 0 720 M1280 720 C773.71 720, 267.43 720, 0 720 M0 720 C0 446.39, 0 172.79, 0 0 M0 720 C0 539.89, 0 359.78, 0 0" stroke="#ced4da" stroke-width="4" fill="none"></path></g></g><g clip-path="url(#mak8p7aQeuouqvx8VXBBu)"><g stroke-linecap="round"><g transform="translate(342.3860898274106 1176.222892991725) rotate(0 0.67626953125 360.6884765625)"><path d="M-0.82 0.84 C-0.65 120.79, 0.55 600.49, 1.09 720.5 M0.95 0.24 C0.93 120.24, -0.2 601.28, 0 721.58" stroke="#bbb" stroke-width="2" fill="none"></path></g></g><mask></mask></g><g clip-path="url(#mak8p7aQeuouqvx8VXBBu)"><g transform="translate(101.59122352541453 1848.1468947343803) rotate(0 29.653038024902344 11.152405278842025)"><text x="0" y="0" font-family="Helvetica, Segoe UI Emoji" font-size="19.39548744146448px" fill="#1e1e1e" text-anchor="start" style="white-space: pre;" direction="ltr" dominant-baseline="text-before-edge">Logout</text></g></g><g clip-path="url(#mak8p7aQeuouqvx8VXBBu)"><g transform="translate(103.29053831157944 1205.7286616654185) rotate(0 80.01953125 103.5)"><text x="0" y="0" font-family="Helvetica, Segoe UI Emoji" font-size="20px" fill="#1e1e1e" text-anchor="start" style="white-space: pre;" direction="ltr" dominant-baseline="text-before-edge">Home</text><text x="0" y="23" font-family="Helvetica, Segoe UI Emoji" font-size="20px" fill="#1e1e1e" text-anchor="start" style="white-space: pre;" direction="ltr" dominant-baseline="text-before-edge"></text><text x="0" y="46" font-family="Helvetica, Segoe UI Emoji" font-size="20px" fill="#1e1e1e" text-anchor="start" style="white-space: pre;" direction="ltr" dominant-baseline="text-before-edge"></text><text x="0" y="69" font-family="Helvetica, Segoe UI Emoji" font-size="20px" fill="#1e1e1e" text-anchor="start" style="white-space: pre;" direction="ltr" dominant-baseline="text-before-edge">- Stadtwerke</text><text x="0" y="92" font-family="Helvetica, Segoe UI Emoji" font-size="20px" fill="#1e1e1e" text-anchor="start" style="white-space: pre;" direction="ltr" dominant-baseline="text-before-edge">    - Wasser</text><text x="0" y="115" font-family="Helvetica, Segoe UI Emoji" font-size="20px" fill="#1e1e1e" text-anchor="start" style="white-space: pre;" direction="ltr" dominant-baseline="text-before-edge">    - Strom</text><text x="0" y="138" font-family="Helvetica, Segoe UI Emoji" font-size="20px" fill="#1e1e1e" text-anchor="start" style="white-space: pre;" direction="ltr" dominant-baseline="text-before-edge">    - Wärmepumpe</text><text x="0" y="161" font-family="Helvetica, Segoe UI Emoji" font-size="20px" fill="#1e1e1e" text-anchor="start" style="white-space: pre;" direction="ltr" dominant-baseline="text-before-edge">    - Gas</text><text x="0" y="184" font-family="Helvetica, Segoe UI Emoji" font-size="20px" fill="#1e1e1e" text-anchor="start" style="white-space: pre;" direction="ltr" dominant-baseline="text-before-edge">    - Rechnungen</text></g></g><g clip-path="url(#mak8p7aQeuouqvx8VXBBu)"><g stroke-linecap="round" transform="translate(342.72826329331656 1176.9834087908434) rotate(0 503.00695269974335 360.0109060460612)"><path d="M0 0 C388.99 3.15, 777.38 3.46, 1006.01 0 M1006.01 0 C1004.58 182.05, 1004.8 365.8, 1006.01 720.02 M1006.01 720.02 C753.09 720.79, 500.1 721.83, 0 720.02 M0 720.02 C-1.23 485.34, -1.37 252.19, 0 0" stroke="#bbb" stroke-width="2.5" fill="none" stroke-dasharray="1.5 8"></path></g></g><g clip-path="url(#mak8p7aQeuouqvx8VXBBu)"><g stroke-linecap="round"><g transform="translate(112.65360189418061 1298.7915517284277) rotate(0 53.47876484697463 -0.2632457827994017)"><path d="M-1.04 -0.23 C16.88 -0.47, 88.49 -1.1, 106.38 -1.08 M0.61 -1.39 C18.42 -1.51, 87.7 0.3, 105.13 0.16" stroke="#1e1e1e" stroke-width="2" fill="none"></path></g></g><mask></mask></g><g clip-path="url(#mak8p7aQeuouqvx8VXBBu)"><g transform="translate(73.81189750377962 1477.0418221828468) rotate(0 48.91015625 9.199999999999989)"><text x="0" y="0" font-family="Helvetica, Segoe UI Emoji" font-size="16px" fill="#bbb" text-anchor="start" style="white-space: pre;" direction="ltr" dominant-baseline="text-before-edge">Admin Center</text></g></g><g clip-path="url(#mak8p7aQeuouqvx8VXBBu)"><g stroke-linecap="round"><g transform="translate(67.79888022122395 1499.793779468194) rotate(0 141.61061985371225 -0.523091875087232)"><path d="M0 0 C71.88 1.27, 141.81 1.43, 283.22 -1.05" stroke="#bbb" stroke-width="4.5" fill="none" stroke-dasharray="1.5 10"></path></g></g><mask></mask></g><g clip-path="url(#mak8p7aQeuouqvx8VXBBu)"><g transform="translate(97.65443871939715 1512.0586252644098) rotate(0 91.1328125 115.00000000000006)"><text x="0" y="0" font-family="Helvetica, Segoe UI Emoji" font-size="20px" fill="#1e1e1e" text-anchor="start" style="white-space: pre;" direction="ltr" dominant-baseline="text-before-edge">General</text><text x="0" y="23" font-family="Helvetica, Segoe UI Emoji" font-size="20px" fill="#1e1e1e" text-anchor="start" style="white-space: pre;" direction="ltr" dominant-baseline="text-before-edge"></text><text x="0" y="46" font-family="Helvetica, Segoe UI Emoji" font-size="20px" fill="#1e1e1e" text-anchor="start" style="white-space: pre;" direction="ltr" dominant-baseline="text-before-edge"></text><text x="0" y="69" font-family="Helvetica, Segoe UI Emoji" font-size="20px" fill="#1e1e1e" text-anchor="start" style="white-space: pre;" direction="ltr" dominant-baseline="text-before-edge">- Stadtwerke</text><text x="0" y="92" font-family="Helvetica, Segoe UI Emoji" font-size="20px" fill="#1e1e1e" text-anchor="start" style="white-space: pre;" direction="ltr" dominant-baseline="text-before-edge">    - Verträge</text><text x="0" y="115" font-family="Helvetica, Segoe UI Emoji" font-size="20px" fill="#1e1e1e" text-anchor="start" style="white-space: pre;" direction="ltr" dominant-baseline="text-before-edge">        - Wasser</text><text x="0" y="138" font-family="Helvetica, Segoe UI Emoji" font-size="20px" fill="#1e1e1e" text-anchor="start" style="white-space: pre;" direction="ltr" dominant-baseline="text-before-edge">        - Strom</text><text x="0" y="161" font-family="Helvetica, Segoe UI Emoji" font-size="20px" fill="#1e1e1e" text-anchor="start" style="white-space: pre;" direction="ltr" dominant-baseline="text-before-edge">        - Wärmepumpe</text><text x="0" y="184" font-family="Helvetica, Segoe UI Emoji" font-size="20px" fill="#1e1e1e" text-anchor="start" style="white-space: pre;" direction="ltr" dominant-baseline="text-before-edge">        - Gas</text><text x="0" y="207" font-family="Helvetica, Segoe UI Emoji" font-size="20px" fill="#1e1e1e" text-anchor="start" style="white-space: pre;" direction="ltr" dominant-baseline="text-before-edge">    - Kunden</text></g></g><g clip-path="url(#mak8p7aQeuouqvx8VXBBu)"><g stroke-linecap="round"><g transform="translate(71.88494527812327 1756.1759105650508) rotate(0 141.61061985371225 -0.5230918750872888)"><path d="M0 0 C92.46 -2.14, 183.47 -1.19, 283.22 -1.05" stroke="#bbb" stroke-width="4.5" fill="none" stroke-dasharray="1.5 10"></path></g></g><mask></mask></g><g clip-path="url(#mak8p7aQeuouqvx8VXBBu)"><g transform="translate(660.8283239082848 1216.5358171174614) rotate(0 43.5859375 16.100000000000023)"><text x="0" y="0" font-family="Helvetica, Segoe UI Emoji" font-size="28px" fill="#1e1e1e" text-anchor="start" style="white-space: pre;" direction="ltr" dominant-baseline="text-before-edge">Kosten</text></g></g><g clip-path="url(#mak8p7aQeuouqvx8VXBBu)"><g transform="translate(658.7994261925414 1252.4957021852988) rotate(0 33.5205078125 11.5)"><text x="0" y="0" font-family="Helvetica, Segoe UI Emoji" font-size="20px" fill="#1e1e1e" text-anchor="start" style="white-space: pre;" direction="ltr" dominant-baseline="text-before-edge">Wasser</text></g></g><g clip-path="url(#mak8p7aQeuouqvx8VXBBu)"><g transform="translate(673.58408513012 1279.904938223383) rotate(0 24.45703125 9.199999999999989)"><text x="0" y="0" font-family="Helvetica, Segoe UI Emoji" font-size="16px" fill="#1e1e1e" text-anchor="start" style="white-space: pre;" direction="ltr" dominant-baseline="text-before-edge">Monat:</text></g></g><g clip-path="url(#mak8p7aQeuouqvx8VXBBu)"><g transform="translate(659.5160458364589 1306.8647818164018) rotate(0 19.12109375 9.199999999999989)"><text x="0" y="0" font-family="Helvetica, Segoe UI Emoji" font-size="16px" fill="#1e1e1e" text-anchor="start" style="white-space: pre;" direction="ltr" dominant-baseline="text-before-edge">Total:</text></g></g><g clip-path="url(#mak8p7aQeuouqvx8VXBBu)"><g stroke-linecap="round" transform="translate(659.391753857095 1282.7710307504922) rotate(0 6.305883224605168 5.852693015770285)"><path d="M12.61 5.85 C12.61 6.19, 12.58 6.54, 12.52 6.87 C12.45 7.2, 12.36 7.54, 12.23 7.85 C12.11 8.17, 11.95 8.49, 11.77 8.78 C11.58 9.07, 11.37 9.36, 11.14 9.61 C10.9 9.87, 10.64 10.12, 10.36 10.34 C10.08 10.55, 9.77 10.75, 9.46 10.92 C9.14 11.09, 8.81 11.24, 8.46 11.35 C8.12 11.47, 7.76 11.56, 7.4 11.62 C7.04 11.68, 6.67 11.71, 6.31 11.71 C5.94 11.71, 5.57 11.68, 5.21 11.62 C4.85 11.56, 4.49 11.47, 4.15 11.35 C3.81 11.24, 3.47 11.09, 3.15 10.92 C2.84 10.75, 2.53 10.55, 2.25 10.34 C1.97 10.12, 1.71 9.87, 1.48 9.61 C1.24 9.36, 1.03 9.07, 0.84 8.78 C0.66 8.49, 0.51 8.17, 0.38 7.85 C0.26 7.54, 0.16 7.2, 0.1 6.87 C0.03 6.54, 0 6.19, 0 5.85 C0 5.51, 0.03 5.17, 0.1 4.84 C0.16 4.5, 0.26 4.17, 0.38 3.85 C0.51 3.53, 0.66 3.22, 0.84 2.93 C1.03 2.63, 1.24 2.35, 1.48 2.09 C1.71 1.83, 1.97 1.59, 2.25 1.37 C2.53 1.15, 2.84 0.95, 3.15 0.78 C3.47 0.61, 3.81 0.47, 4.15 0.35 C4.49 0.24, 4.85 0.15, 5.21 0.09 C5.57 0.03, 5.94 0, 6.31 0 C6.67 0, 7.04 0.03, 7.4 0.09 C7.76 0.15, 8.12 0.24, 8.46 0.35 C8.81 0.47, 9.14 0.61, 9.46 0.78 C9.77 0.95, 10.08 1.15, 10.36 1.37 C10.64 1.59, 10.9 1.83, 11.14 2.09 C11.37 2.35, 11.58 2.63, 11.77 2.93 C11.95 3.22, 12.11 3.53, 12.23 3.85 C12.36 4.17, 12.45 4.5, 12.52 4.84 C12.58 5.17, 12.6 5.68, 12.61 5.85 C12.63 6.02, 12.63 5.68, 12.61 5.85" stroke="#1e1e1e" stroke-width="1" fill="none"></path></g></g><g clip-path="url(#mak8p7aQeuouqvx8VXBBu)"><g stroke-linecap="round"><g transform="translate(658.200988979519 1279.8564702295816) rotate(0 7.56774421715636 8.67828834467798)"><path d="M0 0 C2.52 2.89, 12.61 14.46, 15.14 17.36 M0 0 C2.52 2.89, 12.61 14.46, 15.14 17.36" stroke="#1e1e1e" stroke-width="1" fill="none"></path></g></g><mask></mask></g><g clip-path="url(#mak8p7aQeuouqvx8VXBBu)"><g transform="translate(737.3428502658026 1279.1735290666875) rotate(0 17.796875 9.199999999999989)"><text x="0" y="0" font-family="Helvetica, Segoe UI Emoji" font-size="16px" fill="#1e1e1e" text-anchor="start" style="white-space: pre;" direction="ltr" dominant-baseline="text-before-edge">123€</text></g></g><g clip-path="url(#mak8p7aQeuouqvx8VXBBu)"><g stroke-linecap="round" transform="translate(389.6239195479793 1540.6603425953751) rotate(0 227.23437702796855 166.79113173786993)"><path d="M32 0 C130.14 0, 228.29 0, 422.47 0 M32 0 C161.89 0, 291.78 0, 422.47 0 M422.47 0 C443.8 0, 454.47 10.67, 454.47 32 M422.47 0 C443.8 0, 454.47 10.67, 454.47 32 M454.47 32 C454.47 138.37, 454.47 244.75, 454.47 301.58 M454.47 32 C454.47 120.65, 454.47 209.3, 454.47 301.58 M454.47 301.58 C454.47 322.92, 443.8 333.58, 422.47 333.58 M454.47 301.58 C454.47 322.92, 443.8 333.58, 422.47 333.58 M422.47 333.58 C337.27 333.58, 252.07 333.58, 32 333.58 M422.47 333.58 C332.89 333.58, 243.3 333.58, 32 333.58 M32 333.58 C10.67 333.58, 0 322.92, 0 301.58 M32 333.58 C10.67 333.58, 0 322.92, 0 301.58 M0 301.58 C0 208.95, 0 116.32, 0 32 M0 301.58 C0 233.97, 0 166.36, 0 32 M0 32 C0 10.67, 10.67 0, 32 0 M0 32 C0 10.67, 10.67 0, 32 0" stroke="#1e1e1e" stroke-width="2" fill="none"></path></g></g><g clip-path="url(#mak8p7aQeuouqvx8VXBBu)"><g stroke-linecap="round"><g transform="translate(402.2667551317809 1852.6084301835044) rotate(0 -0.4078771048855572 -142.6799545687404)"><path d="M0.7 -0.27 C0.57 -17.2, -0.45 -54.32, -0.55 -101.69 C-0.65 -149.06, 0.03 -253.91, 0.1 -284.49 M-0.4 -1.46 C-0.14 -18.76, 1.81 -56.12, 1.85 -103.61 C1.89 -151.09, 0.06 -256.31, -0.16 -286.37" stroke="#1e1e1e" stroke-width="2" fill="none"></path></g><g transform="translate(402.2667551317809 1852.6084301835044) rotate(0 -0.4078771048855572 -142.6799545687404)"><path d="M10.45 -258.31 C6.66 -268.13, 4.4 -274.44, -0.16 -286.37 M10.45 -258.31 C7.12 -268.17, 2.27 -279.71, -0.16 -286.37" stroke="#1e1e1e" stroke-width="2" fill="none"></path></g><g transform="translate(402.2667551317809 1852.6084301835044) rotate(0 -0.4078771048855572 -142.6799545687404)"><path d="M-10.07 -258.06 C-7.36 -268.08, -3.12 -274.47, -0.16 -286.37 M-10.07 -258.06 C-5.75 -268.05, -2.96 -279.67, -0.16 -286.37" stroke="#1e1e1e" stroke-width="2" fill="none"></path></g></g><mask></mask></g><g clip-path="url(#mak8p7aQeuouqvx8VXBBu)"><g transform="translate(408.4377813365245 1858.0129938406528) rotate(0 201.03018188476562 7.225933554662106)"><text x="0" y="0" font-family="Helvetica, Segoe UI Emoji" font-size="12.566840964629847px" fill="#1e1e1e" text-anchor="start" style="white-space: pre;" direction="ltr" dominant-baseline="text-before-edge">Jan    Feb    Mar    Apr    Mai    Jun    Jul    Aug    Sep    Okt    Nov    Dec</text></g></g><g clip-path="url(#mak8p7aQeuouqvx8VXBBu)"><g stroke-linecap="round" transform="translate(409.13591387275665 1598.999402991293) rotate(0 12.49310768614518 125.866749655631)"><path d="M6.25 0 C10.29 0.7, 12.7 0.91, 18.74 0 M6.25 0 C11.1 0.51, 15.79 -0.51, 18.74 0 M18.74 0 C22.11 -1.62, 26.88 2.52, 24.99 6.25 M18.74 0 C24.14 1.43, 25.57 4.12, 24.99 6.25 M24.99 6.25 C24.99 67.43, 25.71 127.36, 24.99 245.49 M24.99 6.25 C22.83 72.61, 22.59 138.02, 24.99 245.49 M24.99 245.49 C24.84 249.29, 21.27 252.99, 18.74 251.73 M24.99 245.49 C26.73 248.17, 24.57 252.71, 18.74 251.73 M18.74 251.73 C13.4 250.72, 9.99 252.81, 6.25 251.73 M18.74 251.73 C14.41 252.38, 10.06 251.76, 6.25 251.73 M6.25 251.73 C4.05 249.95, 0.87 247.88, 0 245.49 M6.25 251.73 C3.65 253.05, -1.77 250.97, 0 245.49 M0 245.49 C0.66 156.66, 2.13 67.38, 0 6.25 M0 245.49 C0.92 152.48, 0.73 58.49, 0 6.25 M0 6.25 C0.13 2.41, 0.35 1.58, 6.25 0 M0 6.25 C-0.89 1.19, 1.42 -1.93, 6.25 0" stroke="#1e1e1e" stroke-width="2" fill="none"></path></g></g><g clip-path="url(#mak8p7aQeuouqvx8VXBBu)"><g stroke-linecap="round"><g transform="translate(401.66289577393763 1854.8742787712467) rotate(0 213.60981354913235 -0.15334392608133385)"><path d="M0.77 0.18 C71.98 0.1, 357.14 0.57, 428.19 0.39 M-0.28 -0.76 C70.77 -1.27, 356.66 -1.52, 427.75 -1.37" stroke="#1e1e1e" stroke-width="2" fill="none"></path></g><g transform="translate(401.66289577393763 1854.8742787712467) rotate(0 213.60981354913235 -0.15334392608133385)"><path d="M399.56 8.88 C410.5 6.42, 422.06 0.71, 427.75 -1.37 M399.56 8.88 C407.53 5.19, 413.21 2.74, 427.75 -1.37" stroke="#1e1e1e" stroke-width="2" fill="none"></path></g><g transform="translate(401.66289577393763 1854.8742787712467) rotate(0 213.60981354913235 -0.15334392608133385)"><path d="M399.56 -11.64 C410.66 -6.3, 422.21 -4.22, 427.75 -1.37 M399.56 -11.64 C407.66 -10.2, 413.33 -7.52, 427.75 -1.37" stroke="#1e1e1e" stroke-width="2" fill="none"></path></g></g><mask></mask></g><g clip-path="url(#mak8p7aQeuouqvx8VXBBu)"><g stroke-linecap="round" transform="translate(440.7901765095685 1683.042385265394) rotate(0 12.493107686145152 83.87479348842055)"><path d="M6.25 0 C11.52 -0.22, 14.73 0.67, 18.74 0 M6.25 0 C10.65 -0.39, 16.14 0.25, 18.74 0 M18.74 0 C23.98 1.24, 25.49 3.85, 24.99 6.25 M18.74 0 C21.86 0.66, 26.64 1.29, 24.99 6.25 M24.99 6.25 C24.6 53.49, 26.21 102.48, 24.99 161.5 M24.99 6.25 C23.38 67.79, 22.64 130.32, 24.99 161.5 M24.99 161.5 C26.5 164.38, 24.36 168.6, 18.74 167.75 M24.99 161.5 C26.11 164.04, 22.97 165.94, 18.74 167.75 M18.74 167.75 C16.81 168.23, 13.7 168.28, 6.25 167.75 M18.74 167.75 C14.4 167.19, 9.09 167.2, 6.25 167.75 M6.25 167.75 C3.44 168.89, -1.54 166.81, 0 161.5 M6.25 167.75 C3.66 166.62, -0.04 165.23, 0 161.5 M0 161.5 C0.75 119.62, -2.05 79.58, 0 6.25 M0 161.5 C0.39 106.06, -0.54 51.07, 0 6.25 M0 6.25 C-0.77 1.3, 1.51 -1.68, 6.25 0 M0 6.25 C1.09 0.95, -0.14 -2.28, 6.25 0" stroke="#1e1e1e" stroke-width="2" fill="none"></path></g></g><g clip-path="url(#mak8p7aQeuouqvx8VXBBu)"><g stroke-linecap="round" transform="translate(474.59771992017886 1646.571781063649) rotate(0 12.493107686145152 101.60758097675853)"><path d="M6.25 0 C10.38 0.78, 16.67 1.23, 18.74 0 M6.25 0 C9.43 0.24, 11.78 0.49, 18.74 0 M18.74 0 C23.41 1.77, 24.08 2.66, 24.99 6.25 M18.74 0 C24.56 -0.8, 25.32 2.29, 24.99 6.25 M24.99 6.25 C25.58 53.32, 26.44 101.25, 24.99 196.97 M24.99 6.25 C24.03 79.34, 25.61 150.54, 24.99 196.97 M24.99 196.97 C26.44 201.98, 23.88 201.8, 18.74 203.22 M24.99 196.97 C25.06 199.32, 21.03 203.14, 18.74 203.22 M18.74 203.22 C14.34 203.67, 10.32 204.06, 6.25 203.22 M18.74 203.22 C15.29 202.55, 11.71 203.46, 6.25 203.22 M6.25 203.22 C0.55 204.36, 1.38 200.15, 0 196.97 M6.25 203.22 C2.04 202.77, -0.83 202.72, 0 196.97 M0 196.97 C-2.71 158.62, -0.57 119.79, 0 6.25 M0 196.97 C-0.99 140.64, -0.52 82.34, 0 6.25 M0 6.25 C-0.58 0.4, 3.03 -0.98, 6.25 0 M0 6.25 C-2.22 -0.19, 1.74 -2.15, 6.25 0" stroke="#1e1e1e" stroke-width="2" fill="none"></path></g></g><g clip-path="url(#mak8p7aQeuouqvx8VXBBu)"><g stroke-linecap="round" transform="translate(511.1016168317856 1720.7520654811785) rotate(0 12.493107686145152 65.34863265261652)"><path d="M6.25 0 C10.78 1.15, 12.35 -0.57, 18.74 0 M6.25 0 C9.32 0.36, 11.88 0.52, 18.74 0 M18.74 0 C22 0.58, 26.42 1.39, 24.99 6.25 M18.74 0 C23.24 0.2, 23.93 1.48, 24.99 6.25 M24.99 6.25 C27.58 30.44, 27.23 58.43, 24.99 124.45 M24.99 6.25 C24.78 38.93, 24.74 73.33, 24.99 124.45 M24.99 124.45 C25.96 127.2, 22.97 129.12, 18.74 130.7 M24.99 124.45 C23.11 128.54, 24.87 132.16, 18.74 130.7 M18.74 130.7 C15.83 131.55, 10.48 131.97, 6.25 130.7 M18.74 130.7 C16.53 130.94, 12.99 130.94, 6.25 130.7 M6.25 130.7 C3.46 129.71, -0.03 128.23, 0 124.45 M6.25 130.7 C1.25 132.28, -2.27 130.7, 0 124.45 M0 124.45 C1.74 93.95, 0.57 64.42, 0 6.25 M0 124.45 C0.64 86.68, 0.74 48.84, 0 6.25 M0 6.25 C0.95 1.1, 0.15 -1.98, 6.25 0 M0 6.25 C-0.34 -0.07, 2.04 1.97, 6.25 0" stroke="#1e1e1e" stroke-width="2" fill="none"></path></g></g><g clip-path="url(#mak8p7aQeuouqvx8VXBBu)"><g stroke-linecap="round" transform="translate(542.755879468601 1588.7652450377645) rotate(0 12.493107686145152 131.37157784416354)"><path d="M6.25 0 C9.61 -0.62, 14.27 1.06, 18.74 0 M6.25 0 C10.43 0.47, 14.01 0.1, 18.74 0 M18.74 0 C24.34 -0.69, 25.28 2.26, 24.99 6.25 M18.74 0 C21.85 -0.6, 23.18 3.33, 24.99 6.25 M24.99 6.25 C28.28 63.59, 26.68 119.84, 24.99 256.5 M24.99 6.25 C27.13 97.38, 26.93 187.25, 24.99 256.5 M24.99 256.5 C25.05 259.09, 21.27 262.68, 18.74 262.74 M24.99 256.5 C26.96 262.13, 23.59 263.52, 18.74 262.74 M18.74 262.74 C14.55 264.05, 9.29 263.37, 6.25 262.74 M18.74 262.74 C15.62 263.17, 13.88 262.51, 6.25 262.74 M6.25 262.74 C2.05 262.36, -0.72 262.04, 0 256.5 M6.25 262.74 C-0.19 264.83, -1.05 259.54, 0 256.5 M0 256.5 C-1.2 181.13, -0.92 104.12, 0 6.25 M0 256.5 C0.56 161.03, 1.18 66.52, 0 6.25 M0 6.25 C-1.93 0.1, 1.79 -1.87, 6.25 0 M0 6.25 C-0.04 4.06, 2.8 0.27, 6.25 0" stroke="#1e1e1e" stroke-width="2" fill="none"></path></g></g><g clip-path="url(#mak8p7aQeuouqvx8VXBBu)"><g stroke-linecap="round" transform="translate(576.4306547725046 1661.8806314574865) rotate(0 12.493107686145152 94.24498596841408)"><path d="M6.25 0 C10.2 1.23, 16.46 0.72, 18.74 0 M6.25 0 C10.49 0.07, 15.74 -0.33, 18.74 0 M18.74 0 C23.19 0.18, 24.07 1.56, 24.99 6.25 M18.74 0 C21.1 1.25, 23.37 4.33, 24.99 6.25 M24.99 6.25 C26.03 40.06, 27.65 78.67, 24.99 182.24 M24.99 6.25 C26.75 47.01, 26.29 88.39, 24.99 182.24 M24.99 182.24 C23.35 186.34, 24.62 189.76, 18.74 188.49 M24.99 182.24 C25.67 187.18, 23.68 190.72, 18.74 188.49 M18.74 188.49 C13.07 189.16, 8.52 189.46, 6.25 188.49 M18.74 188.49 C14.71 188.25, 9.81 188.44, 6.25 188.49 M6.25 188.49 C1.36 189.87, -1.98 188.22, 0 182.24 M6.25 188.49 C1.04 187.36, 0.04 187.75, 0 182.24 M0 182.24 C0.33 131.41, 1.58 83.26, 0 6.25 M0 182.24 C0.98 135.81, -0.46 89.38, 0 6.25 M0 6.25 C-0.3 0.21, 2.05 1.72, 6.25 0 M0 6.25 C0.72 2.35, 3.97 -0.34, 6.25 0" stroke="#1e1e1e" stroke-width="2" fill="none"></path></g></g><g clip-path="url(#mak8p7aQeuouqvx8VXBBu)"><g stroke-linecap="round" transform="translate(612.267127931007 1719.3030398451224) rotate(0 12.493107686145152 65.34863265261652)"><path d="M6.25 0 C9.78 0.55, 13.53 0.2, 18.74 0 M6.25 0 C11.55 -0.25, 16.04 0.02, 18.74 0 M18.74 0 C21.99 -0.52, 23.41 3.17, 24.99 6.25 M18.74 0 C21.29 2.24, 22.72 3.92, 24.99 6.25 M24.99 6.25 C26.03 42.37, 23.49 76.91, 24.99 124.45 M24.99 6.25 C25.59 45.94, 24.74 87.18, 24.99 124.45 M24.99 124.45 C26.7 129.89, 23.5 131.37, 18.74 130.7 M24.99 124.45 C25.76 130.85, 24.4 130.66, 18.74 130.7 M18.74 130.7 C12.66 131.6, 9.5 129.79, 6.25 130.7 M18.74 130.7 C14.27 130.52, 9.59 131.07, 6.25 130.7 M6.25 130.7 C0.11 132.51, -0.91 127.64, 0 124.45 M6.25 130.7 C2.12 132.04, -0.48 128.6, 0 124.45 M0 124.45 C1.38 87.42, -0.97 51.36, 0 6.25 M0 124.45 C-1.53 97.92, -0.71 72.44, 0 6.25 M0 6.25 C-0.03 3.8, 2.71 0.23, 6.25 0 M0 6.25 C1.89 1.74, 1.65 -2.03, 6.25 0" stroke="#1e1e1e" stroke-width="2" fill="none"></path></g></g><g clip-path="url(#mak8p7aQeuouqvx8VXBBu)"><g stroke-linecap="round" transform="translate(643.9213905678225 1682.3097881131946) rotate(0 12.493107686145152 83.87479348842055)"><path d="M6.25 0 C11.95 0.25, 17.21 -0.63, 18.74 0 M6.25 0 C10.45 0.1, 14.18 -0.12, 18.74 0 M18.74 0 C21.33 1.09, 23.58 4.03, 24.99 6.25 M18.74 0 C20.64 1.84, 24.82 1.67, 24.99 6.25 M24.99 6.25 C24.67 41.57, 26.81 74.97, 24.99 161.5 M24.99 6.25 C24.22 41.83, 25.89 78.12, 24.99 161.5 M24.99 161.5 C25.58 166.34, 23.58 169.69, 18.74 167.75 M24.99 161.5 C26.48 165.63, 25.17 165.7, 18.74 167.75 M18.74 167.75 C15.16 166.88, 10.87 168.69, 6.25 167.75 M18.74 167.75 C15.38 168.16, 11.86 168.29, 6.25 167.75 M6.25 167.75 C1.17 166.77, 0.03 166.83, 0 161.5 M6.25 167.75 C1.6 167.74, 0.15 166.04, 0 161.5 M0 161.5 C-2 127.79, -2.9 96.19, 0 6.25 M0 161.5 C1.35 121.63, 1.48 84.48, 0 6.25 M0 6.25 C0.63 2.31, 3.72 -0.3, 6.25 0 M0 6.25 C-0.44 0.05, 0.2 -0.55, 6.25 0" stroke="#1e1e1e" stroke-width="2" fill="none"></path></g></g><g clip-path="url(#mak8p7aQeuouqvx8VXBBu)"><g stroke-linecap="round" transform="translate(677.4633977650155 1805.9374042213124) rotate(0 12.493107686145152 21.689227290554527)"><path d="M6.25 0 C11.77 -0.6, 15.45 0.87, 18.74 0 M6.25 0 C9.28 -0.17, 12.39 0.33, 18.74 0 M18.74 0 C21.5 1.95, 23.02 3.68, 24.99 6.25 M18.74 0 C22.74 -0.41, 23.1 3.53, 24.99 6.25 M24.99 6.25 C25.64 18.83, 23.38 29.53, 24.99 37.13 M24.99 6.25 C25.59 13.72, 25.03 20.25, 24.99 37.13 M24.99 37.13 C25.66 43.24, 24.2 43.34, 18.74 43.38 M24.99 37.13 C27.25 39.24, 23.91 41.35, 18.74 43.38 M18.74 43.38 C14.86 44.14, 8.93 43.26, 6.25 43.38 M18.74 43.38 C14.61 44.03, 11.44 43.16, 6.25 43.38 M6.25 43.38 C2.11 44.54, -0.42 41.29, 0 37.13 M6.25 43.38 C2.24 43.75, -1.99 43.11, 0 37.13 M0 37.13 C-1.56 30.01, -0.86 19.06, 0 6.25 M0 37.13 C0.03 31.78, 0.36 24.83, 0 6.25 M0 6.25 C1.64 1.78, 1.7 -1.76, 6.25 0 M0 6.25 C-1.88 1.53, 1.31 -1.94, 6.25 0" stroke="#1e1e1e" stroke-width="2" fill="none"></path></g></g><g clip-path="url(#mak8p7aQeuouqvx8VXBBu)"><g stroke-linecap="round" transform="translate(714.6346165898121 1719.8232358224682) rotate(0 12.493107686145152 65.34863265261652)"><path d="M6.25 0 C10.67 0.95, 13.94 0.24, 18.74 0 M6.25 0 C9.61 0.37, 13.53 0.64, 18.74 0 M18.74 0 C20.93 1.6, 24.84 1.72, 24.99 6.25 M18.74 0 C21.02 1.44, 26.73 0.6, 24.99 6.25 M24.99 6.25 C24.08 50.35, 23.91 92.69, 24.99 124.45 M24.99 6.25 C26.29 41.66, 26.34 77.38, 24.99 124.45 M24.99 124.45 C26.28 128.58, 24.87 128.91, 18.74 130.7 M24.99 124.45 C25.99 126.58, 24.47 132.01, 18.74 130.7 M18.74 130.7 C15.34 130.76, 12.92 130.33, 6.25 130.7 M18.74 130.7 C13.85 130.51, 9.53 131.17, 6.25 130.7 M6.25 130.7 C1.66 130.69, 0.13 128.94, 0 124.45 M6.25 130.7 C0.09 132.51, -0.89 127.72, 0 124.45 M0 124.45 C0.01 90.46, -0.99 60.04, 0 6.25 M0 124.45 C0.33 100.16, 0.84 75.48, 0 6.25 M0 6.25 C-0.38 0.32, 0.44 -0.48, 6.25 0 M0 6.25 C-0.78 0.14, 2.25 2.26, 6.25 0" stroke="#1e1e1e" stroke-width="2" fill="none"></path></g></g><g clip-path="url(#mak8p7aQeuouqvx8VXBBu)"><g stroke-linecap="round" transform="translate(746.4216473333327 1610.545796540038) rotate(0 12.493107686145152 119.95150902930811)"><path d="M6.25 0 C9 0.09, 12.72 -0.66, 18.74 0 M6.25 0 C9.23 0.54, 12.48 0.43, 18.74 0 M18.74 0 C22.76 -0.36, 23.35 3.34, 24.99 6.25 M18.74 0 C24.65 -1.48, 26.66 3.06, 24.99 6.25 M24.99 6.25 C22.27 84.14, 23.56 166.28, 24.99 233.66 M24.99 6.25 C25.85 89.78, 26.12 171.65, 24.99 233.66 M24.99 233.66 C26.95 236.04, 23.78 238.14, 18.74 239.9 M24.99 233.66 C26.55 239.13, 21.14 241.22, 18.74 239.9 M18.74 239.9 C13.89 239.45, 10.39 238.67, 6.25 239.9 M18.74 239.9 C13.87 240.21, 8.84 239.84, 6.25 239.9 M6.25 239.9 C2.22 240.23, -1.73 239.4, 0 233.66 M6.25 239.9 C1.19 239.01, -0.66 235.89, 0 233.66 M0 233.66 C-0.73 154.37, -0.64 75.57, 0 6.25 M0 233.66 C0.09 145.79, -0.77 57.42, 0 6.25 M0 6.25 C-1.64 1.6, 1.41 -1.69, 6.25 0 M0 6.25 C0.17 4.34, 3.39 -0.13, 6.25 0" stroke="#1e1e1e" stroke-width="2" fill="none"></path></g></g><g clip-path="url(#mak8p7aQeuouqvx8VXBBu)"><g stroke-linecap="round" transform="translate(780.2291907439449 1665.683174328729) rotate(0 12.493107686145152 91.88030552242799)"><path d="M6.25 0 C11 -0.59, 15.21 -1, 18.74 0 M6.25 0 C10.06 0.38, 15.06 -0.23, 18.74 0 M18.74 0 C21.27 1.26, 26.5 0.79, 24.99 6.25 M18.74 0 C24.57 0.98, 26.11 0.46, 24.99 6.25 M24.99 6.25 C23.57 59.86, 24.91 110.65, 24.99 177.51 M24.99 6.25 C26.21 63.36, 26.55 119.62, 24.99 177.51 M24.99 177.51 C25.86 179.91, 24.27 184.9, 18.74 183.76 M24.99 177.51 C23.22 182.99, 24.49 182.63, 18.74 183.76 M18.74 183.76 C15.87 182.48, 12.42 183.15, 6.25 183.76 M18.74 183.76 C15.47 183.83, 12.51 183.93, 6.25 183.76 M6.25 183.76 C0.35 185.34, -0.77 180.9, 0 177.51 M6.25 183.76 C1.42 181.83, 1.09 180.55, 0 177.51 M0 177.51 C-0.17 142.66, 3.41 108.5, 0 6.25 M0 177.51 C-1.59 123.27, -2.22 70.56, 0 6.25 M0 6.25 C-0.68 0.4, 2.23 1.96, 6.25 0 M0 6.25 C1.3 1.95, 1.81 1.23, 6.25 0" stroke="#1e1e1e" stroke-width="2" fill="none"></path></g></g><g clip-path="url(#mak8p7aQeuouqvx8VXBBu)"><g stroke-linecap="round" transform="translate(867.9365095470002 1540.3929949286987) rotate(0 227.23437702796855 166.79113173786993)"><path d="M32 0 C154.78 0, 277.56 0, 422.47 0 M32 0 C187.23 0, 342.47 0, 422.47 0 M422.47 0 C443.8 0, 454.47 10.67, 454.47 32 M422.47 0 C443.8 0, 454.47 10.67, 454.47 32 M454.47 32 C454.47 90.86, 454.47 149.72, 454.47 301.58 M454.47 32 C454.47 139.02, 454.47 246.03, 454.47 301.58 M454.47 301.58 C454.47 322.92, 443.8 333.58, 422.47 333.58 M454.47 301.58 C454.47 322.92, 443.8 333.58, 422.47 333.58 M422.47 333.58 C319.42 333.58, 216.36 333.58, 32 333.58 M422.47 333.58 C282.61 333.58, 142.76 333.58, 32 333.58 M32 333.58 C10.67 333.58, 0 322.92, 0 301.58 M32 333.58 C10.67 333.58, 0 322.92, 0 301.58 M0 301.58 C0 224.71, 0 147.84, 0 32 M0 301.58 C0 224.72, 0 147.87, 0 32 M0 32 C0 10.67, 10.67 0, 32 0 M0 32 C0 10.67, 10.67 0, 32 0" stroke="#1e1e1e" stroke-width="2" fill="none"></path></g></g><g clip-path="url(#mak8p7aQeuouqvx8VXBBu)"><g stroke-linecap="round"><g transform="translate(880.5793451308 1852.3410825168278) rotate(0 -0.40787710488552875 -142.6799545687404)"><path d="M-0.94 0.65 C-0.99 -16.11, -0.62 -53.4, -0.8 -100.91 C-0.99 -148.42, -2.02 -253.62, -2.04 -284.4 M0.76 -0.05 C1.15 -17.09, 1.55 -54.72, 1.46 -102.42 C1.38 -150.12, 0.6 -255.88, 0.24 -286.24" stroke="#1e1e1e" stroke-width="2" fill="none"></path></g><g transform="translate(880.5793451308 1852.3410825168278) rotate(0 -0.40787710488552875 -142.6799545687404)"><path d="M10.76 -258.15 C9.24 -266.78, 7.43 -274.48, 0.24 -286.24 M10.76 -258.15 C5.96 -268.21, 3.54 -280.16, 0.24 -286.24" stroke="#1e1e1e" stroke-width="2" fill="none"></path></g><g transform="translate(880.5793451308 1852.3410825168278) rotate(0 -0.40787710488552875 -142.6799545687404)"><path d="M-9.76 -257.95 C-6.06 -266.47, -2.65 -274.23, 0.24 -286.24 M-9.76 -257.95 C-6.76 -268.06, -1.39 -280.07, 0.24 -286.24" stroke="#1e1e1e" stroke-width="2" fill="none"></path></g></g><mask></mask></g><g clip-path="url(#mak8p7aQeuouqvx8VXBBu)"><g transform="translate(886.7503713355454 1857.7456461739764) rotate(0 201.03018188476562 7.225933554662106)"><text x="0" y="0" font-family="Helvetica, Segoe UI Emoji" font-size="12.566840964629847px" fill="#1e1e1e" text-anchor="start" style="white-space: pre;" direction="ltr" dominant-baseline="text-before-edge">Jan    Feb    Mar    Apr    Mai    Jun    Jul    Aug    Sep    Okt    Nov    Dec</text></g></g><g clip-path="url(#mak8p7aQeuouqvx8VXBBu)"><g stroke-linecap="round" transform="translate(887.4485038717776 1598.7320553246163) rotate(0 12.493107686145152 125.866749655631)"><path d="M6.25 0 C10.11 0.03, 11.76 -0.9, 18.74 0 M6.25 0 C11.23 0.35, 15.62 -0.36, 18.74 0 M18.74 0 C22.97 -1.57, 23.35 2.02, 24.99 6.25 M18.74 0 C24.87 1.46, 25.67 2.85, 24.99 6.25 M24.99 6.25 C26.89 87.74, 25.43 166.67, 24.99 245.49 M24.99 6.25 C25.71 57.36, 26.92 107.1, 24.99 245.49 M24.99 245.49 C24.95 249.27, 22.18 253.11, 18.74 251.73 M24.99 245.49 C22.71 251.74, 21.86 250.61, 18.74 251.73 M18.74 251.73 C14.97 251.79, 11.41 250.63, 6.25 251.73 M18.74 251.73 C13.83 251.16, 9.57 251.38, 6.25 251.73 M6.25 251.73 C0.15 249.75, -0.3 247.78, 0 245.49 M6.25 251.73 C2.04 253.71, 0.72 249.92, 0 245.49 M0 245.49 C-1.17 152.73, -0.1 62.14, 0 6.25 M0 245.49 C0.33 193.83, -0.24 142.71, 0 6.25 M0 6.25 C1.2 1.69, 2.82 0.15, 6.25 0 M0 6.25 C-1.84 1.41, 3.62 -0.32, 6.25 0" stroke="#1e1e1e" stroke-width="2" fill="none"></path></g></g><g clip-path="url(#mak8p7aQeuouqvx8VXBBu)"><g stroke-linecap="round"><g transform="translate(879.9754857729586 1854.60693110457) rotate(0 213.60981354913235 -0.15334392608133385)"><path d="M-0.09 -0.22 C71.15 -0.3, 354.87 0.59, 426.24 0.45 M-1.59 -1.38 C70.11 -1.88, 356.86 -1.48, 428.43 -1.28" stroke="#1e1e1e" stroke-width="2" fill="none"></path></g><g transform="translate(879.9754857729586 1854.60693110457) rotate(0 213.60981354913235 -0.15334392608133385)"><path d="M400.22 8.93 C405.47 5.26, 412.76 6.35, 428.43 -1.28 M400.22 8.93 C407.28 5.7, 413.47 3.21, 428.43 -1.28" stroke="#1e1e1e" stroke-width="2" fill="none"></path></g><g transform="translate(879.9754857729586 1854.60693110457) rotate(0 213.60981354913235 -0.15334392608133385)"><path d="M400.26 -11.59 C405.66 -11.13, 412.95 -5.9, 428.43 -1.28 M400.26 -11.59 C407.46 -9.99, 413.64 -7.64, 428.43 -1.28" stroke="#1e1e1e" stroke-width="2" fill="none"></path></g></g><mask></mask></g><g clip-path="url(#mak8p7aQeuouqvx8VXBBu)"><g stroke-linecap="round" transform="translate(919.1027665085876 1682.7750375987175) rotate(0 12.493107686145152 83.87479348842055)"><path d="M6.25 0 C10.69 1.05, 12.76 1.01, 18.74 0 M6.25 0 C10.54 -0.4, 14.29 0.07, 18.74 0 M18.74 0 C24.62 1.27, 25.58 2.75, 24.99 6.25 M18.74 0 C23.68 2.23, 26.48 2.04, 24.99 6.25 M24.99 6.25 C21.83 69.47, 24.74 128.43, 24.99 161.5 M24.99 6.25 C26.04 61.51, 25.69 117.85, 24.99 161.5 M24.99 161.5 C23.01 167.48, 21.99 166.77, 18.74 167.75 M24.99 161.5 C25.02 167.01, 22.42 167.74, 18.74 167.75 M18.74 167.75 C15.89 167.16, 10.59 167.28, 6.25 167.75 M18.74 167.75 C15.44 167.07, 13.25 167.1, 6.25 167.75 M6.25 167.75 C2.05 169.47, 0.63 165.9, 0 161.5 M6.25 167.75 C3.97 167.41, -0.44 163.64, 0 161.5 M0 161.5 C-1.31 127.8, 2.34 94.93, 0 6.25 M0 161.5 C0.78 115.64, 0.55 70.24, 0 6.25 M0 6.25 C-1.6 1.5, 3.42 -0.28, 6.25 0 M0 6.25 C-1.84 0.31, 0.45 1.84, 6.25 0" stroke="#1e1e1e" stroke-width="2" fill="none"></path></g></g><g clip-path="url(#mak8p7aQeuouqvx8VXBBu)"><g stroke-linecap="round" transform="translate(952.9103099192016 1646.3044333969726) rotate(0 12.493107686145208 101.60758097675853)"><path d="M6.25 0 C8.17 0.81, 12.23 0.51, 18.74 0 M6.25 0 C8.6 0.08, 12.51 0.5, 18.74 0 M18.74 0 C23.5 0.67, 25.66 4.02, 24.99 6.25 M18.74 0 C24.4 -0.04, 27.25 0.03, 24.99 6.25 M24.99 6.25 C24.44 70.25, 24.44 138.69, 24.99 196.97 M24.99 6.25 C24.59 54.77, 23.97 102.82, 24.99 196.97 M24.99 196.97 C24.08 200.15, 22.94 204.38, 18.74 203.22 M24.99 196.97 C24.5 201.12, 23.06 203.59, 18.74 203.22 M18.74 203.22 C15.59 202.81, 12.36 203.76, 6.25 203.22 M18.74 203.22 C15.51 202.51, 12.46 203.63, 6.25 203.22 M6.25 203.22 C2.71 203.45, 1.64 200.83, 0 196.97 M6.25 203.22 C1.65 201.19, -1.88 200.58, 0 196.97 M0 196.97 C3.57 147.33, 1.49 95.18, 0 6.25 M0 196.97 C-0.77 129.59, -1.94 61.76, 0 6.25 M0 6.25 C1.34 1.8, 0.48 -1.54, 6.25 0 M0 6.25 C-1.63 3.92, 3.9 1.35, 6.25 0" stroke="#1e1e1e" stroke-width="2" fill="none"></path></g></g><g clip-path="url(#mak8p7aQeuouqvx8VXBBu)"><g stroke-linecap="round" transform="translate(989.4142068308083 1720.484717814502) rotate(0 12.493107686145208 65.34863265261652)"><path d="M6.25 0 C11.47 0.52, 14.76 -0.05, 18.74 0 M6.25 0 C9.55 0.4, 11.96 0.21, 18.74 0 M18.74 0 C23.58 1.94, 26.28 2.05, 24.99 6.25 M18.74 0 C25.17 -2.05, 25.99 0.05, 24.99 6.25 M24.99 6.25 C26.81 51.13, 24.68 93.24, 24.99 124.45 M24.99 6.25 C23.57 40.34, 24.1 72.14, 24.99 124.45 M24.99 124.45 C25.02 129.78, 22.48 130.69, 18.74 130.7 M24.99 124.45 C25.14 128.99, 20.91 132.51, 18.74 130.7 M18.74 130.7 C14.43 131.25, 11.6 129.45, 6.25 130.7 M18.74 130.7 C16.22 131.12, 13.91 130.65, 6.25 130.7 M6.25 130.7 C3.72 130.4, -0.38 126.85, 0 124.45 M6.25 130.7 C0.2 130.14, -0.78 126.68, 0 124.45 M0 124.45 C-1.28 87.89, -0.09 52.99, 0 6.25 M0 124.45 C-1.24 91, 0.23 58, 0 6.25 M0 6.25 C-1.6 0.54, 0.66 1.6, 6.25 0 M0 6.25 C1.81 3.43, 2.35 0.93, 6.25 0" stroke="#1e1e1e" stroke-width="2" fill="none"></path></g></g><g clip-path="url(#mak8p7aQeuouqvx8VXBBu)"><g stroke-linecap="round" transform="translate(1021.068469467622 1588.4978973710881) rotate(0 12.493107686145208 131.37157784416354)"><path d="M6.25 0 C10.02 -0.02, 14.57 -1.08, 18.74 0 M6.25 0 C10.14 0.13, 13.87 0.53, 18.74 0 M18.74 0 C24.2 -0.04, 26.95 0.3, 24.99 6.25 M18.74 0 C23.91 -2.03, 26.55 3.4, 24.99 6.25 M24.99 6.25 C25.35 62.08, 25.84 117.37, 24.99 256.5 M24.99 6.25 C22.6 98.16, 22.98 191.35, 24.99 256.5 M24.99 256.5 C24.57 260.65, 23.04 263.07, 18.74 262.74 M24.99 256.5 C22.99 262.47, 22.01 261.85, 18.74 262.74 M18.74 262.74 C14.74 261.59, 10.73 262.62, 6.25 262.74 M18.74 262.74 C16.36 262.92, 14.09 262.76, 6.25 262.74 M6.25 262.74 C1.7 260.98, -1.64 260.18, 0 256.5 M6.25 262.74 C1.31 260.8, 0.17 262.92, 0 256.5 M0 256.5 C1 168.2, -0.2 78.56, 0 6.25 M0 256.5 C2.18 179.48, 0.98 102.06, 0 6.25 M0 6.25 C-1.42 3.68, 3.66 1.17, 6.25 0 M0 6.25 C0.27 3.01, 1.03 1.39, 6.25 0" stroke="#1e1e1e" stroke-width="2" fill="none"></path></g></g><g clip-path="url(#mak8p7aQeuouqvx8VXBBu)"><g stroke-linecap="round" transform="translate(1054.7432447715273 1661.61328379081) rotate(0 12.493107686145208 94.24498596841408)"><path d="M6.25 0 C9.62 -1.02, 14.92 1.07, 18.74 0 M6.25 0 C11 0.56, 15.74 -0.05, 18.74 0 M18.74 0 C24.87 -1.79, 25.86 0.32, 24.99 6.25 M18.74 0 C24.47 1.31, 23.22 3.4, 24.99 6.25 M24.99 6.25 C23.74 70.43, 25.5 134.08, 24.99 182.24 M24.99 6.25 C24.2 75.61, 23.98 143.8, 24.99 182.24 M24.99 182.24 C25.12 186.73, 21.17 190.07, 18.74 188.49 M24.99 182.24 C24.1 185.51, 22.24 186.56, 18.74 188.49 M18.74 188.49 C13.16 188.18, 8.89 188.35, 6.25 188.49 M18.74 188.49 C14.43 188.41, 8.98 187.95, 6.25 188.49 M6.25 188.49 C0.44 188.01, -0.68 184.72, 0 182.24 M6.25 188.49 C2.25 190.75, 1.3 186.27, 0 182.24 M0 182.24 C-1.33 132.23, -0.8 79.14, 0 6.25 M0 182.24 C-1.98 133.83, -1.89 87.76, 0 6.25 M0 6.25 C1.58 3.25, 2.32 0.81, 6.25 0 M0 6.25 C-1.05 3.48, 3.03 1.91, 6.25 0" stroke="#1e1e1e" stroke-width="2" fill="none"></path></g></g><g clip-path="url(#mak8p7aQeuouqvx8VXBBu)"><g stroke-linecap="round" transform="translate(1090.5797179300298 1719.035692178446) rotate(0 12.493107686145208 65.34863265261652)"><path d="M6.25 0 C9.99 1.17, 14.61 0.47, 18.74 0 M6.25 0 C10.82 -0.13, 15.2 -0.68, 18.74 0 M18.74 0 C23.78 -1.77, 26.35 3.22, 24.99 6.25 M18.74 0 C21.14 1.32, 26.57 0.95, 24.99 6.25 M24.99 6.25 C26.14 39.53, 26.58 75.86, 24.99 124.45 M24.99 6.25 C24.8 35.92, 25.07 65.77, 24.99 124.45 M24.99 124.45 C23.25 130.19, 22.13 129.92, 18.74 130.7 M24.99 124.45 C24.32 126.68, 24 129.57, 18.74 130.7 M18.74 130.7 C15.03 130.66, 14.73 131.07, 6.25 130.7 M18.74 130.7 C14.73 130.13, 10.44 130.53, 6.25 130.7 M6.25 130.7 C1.41 129.01, 0.15 130.58, 0 124.45 M6.25 130.7 C3.39 130.56, -0.27 129.85, 0 124.45 M0 124.45 C0.38 80.33, -0.36 40.74, 0 6.25 M0 124.45 C0.24 91.43, 1.74 57.39, 0 6.25 M0 6.25 C0.24 2.89, 1.17 1.21, 6.25 0 M0 6.25 C0.95 3.99, 3.02 1.73, 6.25 0" stroke="#1e1e1e" stroke-width="2" fill="none"></path></g></g><g clip-path="url(#mak8p7aQeuouqvx8VXBBu)"><g stroke-linecap="round" transform="translate(1122.2339805668435 1682.042440446518) rotate(0 12.493107686145208 83.87479348842055)"><path d="M6.25 0 C9.77 0.26, 12.12 0.31, 18.74 0 M6.25 0 C11.82 -0.56, 16.44 -0.55, 18.74 0 M18.74 0 C24.27 1.14, 23.45 3.23, 24.99 6.25 M18.74 0 C24.49 -1.13, 24.95 1.64, 24.99 6.25 M24.99 6.25 C27.87 46.31, 25.08 88.23, 24.99 161.5 M24.99 6.25 C24.73 62.02, 23.79 118.25, 24.99 161.5 M24.99 161.5 C24.21 164.89, 22.33 166.07, 18.74 167.75 M24.99 161.5 C26.08 164.54, 20.68 165.47, 18.74 167.75 M18.74 167.75 C16.25 168.14, 11.76 168.77, 6.25 167.75 M18.74 167.75 C14.67 167.49, 11.41 167.11, 6.25 167.75 M6.25 167.75 C2.23 169.71, 1.13 165.55, 0 161.5 M6.25 167.75 C1.81 168.98, 1.37 165.22, 0 161.5 M0 161.5 C-0.7 110.51, -0.39 55.23, 0 6.25 M0 161.5 C1.89 127.45, 1.22 92.64, 0 6.25 M0 6.25 C-0.91 3.3, 2.91 1.66, 6.25 0 M0 6.25 C0.94 3.81, 3.94 1.93, 6.25 0" stroke="#1e1e1e" stroke-width="2" fill="none"></path></g></g><g clip-path="url(#mak8p7aQeuouqvx8VXBBu)"><g stroke-linecap="round" transform="translate(1155.7759877640365 1805.670056554636) rotate(0 12.493107686145208 21.689227290554527)"><path d="M6.25 0 C11.48 0.38, 17.09 0.77, 18.74 0 M6.25 0 C10.25 -0.44, 14.12 0.47, 18.74 0 M18.74 0 C21.37 1.14, 26.36 1.1, 24.99 6.25 M18.74 0 C22.87 -0.44, 24.16 3.67, 24.99 6.25 M24.99 6.25 C24.29 12.49, 26.43 18.26, 24.99 37.13 M24.99 6.25 C24.14 16.28, 24.62 24.36, 24.99 37.13 M24.99 37.13 C24.41 39.62, 23.85 42.39, 18.74 43.38 M24.99 37.13 C22.76 39.02, 22.56 41.23, 18.74 43.38 M18.74 43.38 C15.16 44.44, 11.1 43.18, 6.25 43.38 M18.74 43.38 C15.88 42.82, 13.49 43.96, 6.25 43.38 M6.25 43.38 C3.22 43.26, -0.23 42.37, 0 37.13 M6.25 43.38 C3.46 42.93, 0.85 41.46, 0 37.13 M0 37.13 C-0.19 28.73, -1.45 22.12, 0 6.25 M0 37.13 C-0.13 25.81, -0.7 14.28, 0 6.25 M0 6.25 C0.82 3.74, 2.9 1.5, 6.25 0 M0 6.25 C1.85 4.02, 1.41 -2.06, 6.25 0" stroke="#1e1e1e" stroke-width="2" fill="none"></path></g></g><g clip-path="url(#mak8p7aQeuouqvx8VXBBu)"><g stroke-linecap="round" transform="translate(1192.947206588835 1719.5558881557918) rotate(0 12.493107686145208 65.34863265261652)"><path d="M6.25 0 C11.58 0.77, 14.46 1.19, 18.74 0 M6.25 0 C9.3 0.47, 11.03 0.47, 18.74 0 M18.74 0 C24.28 -0.98, 24.95 1.7, 24.99 6.25 M18.74 0 C22.07 1.58, 22.71 4.17, 24.99 6.25 M24.99 6.25 C25.57 35.91, 24.4 66.55, 24.99 124.45 M24.99 6.25 C23.58 43.24, 23.67 80.18, 24.99 124.45 M24.99 124.45 C25.94 127.63, 20.97 128.72, 18.74 130.7 M24.99 124.45 C24.64 126.46, 22.86 132.67, 18.74 130.7 M18.74 130.7 C14.41 130.56, 9.36 129.78, 6.25 130.7 M18.74 130.7 C15.34 131.2, 12.2 130.56, 6.25 130.7 M6.25 130.7 C1.85 131.77, 1.2 128.23, 0 124.45 M6.25 130.7 C2.94 130.87, -1.84 127.94, 0 124.45 M0 124.45 C-1.37 79.65, 1.76 39.26, 0 6.25 M0 124.45 C-0.6 82.67, 0.27 40.5, 0 6.25 M0 6.25 C0.82 3.58, 3.69 1.68, 6.25 0 M0 6.25 C-0.67 0.02, 0.5 -0.38, 6.25 0" stroke="#1e1e1e" stroke-width="2" fill="none"></path></g></g><g clip-path="url(#mak8p7aQeuouqvx8VXBBu)"><g stroke-linecap="round" transform="translate(1224.7342373323536 1610.2784488733614) rotate(0 12.493107686145208 119.95150902930811)"><path d="M6.25 0 C10.39 1.15, 13.47 0.46, 18.74 0 M6.25 0 C8.41 0.29, 11.96 -0.38, 18.74 0 M18.74 0 C22.87 -0.38, 24.26 3.46, 24.99 6.25 M18.74 0 C20.63 2.09, 23.94 0.96, 24.99 6.25 M24.99 6.25 C26.11 74.95, 26.39 141.95, 24.99 233.66 M24.99 6.25 C23.99 91.66, 24.64 178.1, 24.99 233.66 M24.99 233.66 C23.05 235.84, 22.61 238.03, 18.74 239.9 M24.99 233.66 C24.95 239.8, 23.63 240.17, 18.74 239.9 M18.74 239.9 C12.87 238.86, 8.89 239.46, 6.25 239.9 M18.74 239.9 C16.4 239.99, 13.28 240.36, 6.25 239.9 M6.25 239.9 C3.28 239.51, 0.74 237.97, 0 233.66 M6.25 239.9 C0.24 239.23, 1.54 237.5, 0 233.66 M0 233.66 C2.86 185.01, 2.5 133.87, 0 6.25 M0 233.66 C1.24 156.92, 1.24 79.42, 0 6.25 M0 6.25 C1.61 3.76, 1.5 -1.79, 6.25 0 M0 6.25 C-1.59 1.71, 0.1 0.86, 6.25 0" stroke="#1e1e1e" stroke-width="2" fill="none"></path></g></g><g clip-path="url(#mak8p7aQeuouqvx8VXBBu)"><g stroke-linecap="round" transform="translate(1258.541780742964 1665.4158266620525) rotate(0 12.493107686145208 91.88030552242799)"><path d="M6.25 0 C9.69 0.42, 14.26 0.73, 18.74 0 M6.25 0 C11.14 -0.38, 15.16 -0.19, 18.74 0 M18.74 0 C22.18 1.38, 23.01 3.9, 24.99 6.25 M18.74 0 C21.86 -1.13, 25.02 3.42, 24.99 6.25 M24.99 6.25 C25.3 52.3, 26.55 101.04, 24.99 177.51 M24.99 6.25 C24.97 50.46, 23.53 94.67, 24.99 177.51 M24.99 177.51 C24.69 179.81, 22.87 185.48, 18.74 183.76 M24.99 177.51 C25.71 181.94, 24.79 183.42, 18.74 183.76 M18.74 183.76 C14.93 183.24, 10.66 183.75, 6.25 183.76 M18.74 183.76 C13.69 184.09, 9.17 183.63, 6.25 183.76 M6.25 183.76 C2.82 183.91, -1.6 181.09, 0 177.51 M6.25 183.76 C3.62 183.44, -1.84 179.91, 0 177.51 M0 177.51 C-0.2 138.51, -0.56 98.13, 0 6.25 M0 177.51 C-0.3 116.5, 0.1 54.82, 0 6.25 M0 6.25 C-0.58 0.29, 0.7 -0.33, 6.25 0 M0 6.25 C-1.98 2.94, 0.5 -0.37, 6.25 0" stroke="#1e1e1e" stroke-width="2" fill="none"></path></g></g><g clip-path="url(#mak8p7aQeuouqvx8VXBBu)"><g stroke-linecap="round" transform="translate(871.1227906034601 1185.801525121915) rotate(0 227.23437702796855 166.79113173786988)"><path d="M32 0 C187.57 0, 343.15 0, 422.47 0 M32 0 C171.47 0, 310.94 0, 422.47 0 M422.47 0 C443.8 0, 454.47 10.67, 454.47 32 M422.47 0 C443.8 0, 454.47 10.67, 454.47 32 M454.47 32 C454.47 114.69, 454.47 197.38, 454.47 301.58 M454.47 32 C454.47 90.25, 454.47 148.5, 454.47 301.58 M454.47 301.58 C454.47 322.92, 443.8 333.58, 422.47 333.58 M454.47 301.58 C454.47 322.92, 443.8 333.58, 422.47 333.58 M422.47 333.58 C337.33 333.58, 252.19 333.58, 32 333.58 M422.47 333.58 C307.61 333.58, 192.75 333.58, 32 333.58 M32 333.58 C10.67 333.58, 0 322.92, 0 301.58 M32 333.58 C10.67 333.58, 0 322.92, 0 301.58 M0 301.58 C0 199.45, 0 97.32, 0 32 M0 301.58 C0 198.36, 0 95.15, 0 32 M0 32 C0 10.67, 10.67 0, 32 0 M0 32 C0 10.67, 10.67 0, 32 0" stroke="#1e1e1e" stroke-width="2" fill="none"></path></g></g><g clip-path="url(#mak8p7aQeuouqvx8VXBBu)"><g stroke-linecap="round"><g transform="translate(884.9247857393602 1493.771256786) rotate(0 -0.978032966135288 -136.64243170968678)"><path d="M0.82 0.69 C0.34 -15.37, -2.02 -51.66, -2.34 -97.42 C-2.67 -143.18, -1.19 -244.53, -1.13 -273.88 M-0.21 0 C-0.36 -16.31, 0.1 -53.7, -0.11 -99.18 C-0.32 -144.66, -1.19 -243.98, -1.46 -272.87" stroke="#1e1e1e" stroke-width="2" fill="none"></path></g><g transform="translate(884.9247857393602 1493.771256786) rotate(0 -0.978032966135288 -136.64243170968678)"><path d="M9.05 -244.77 C6.83 -255.89, 3.22 -262.63, -1.46 -272.87 M9.05 -244.77 C6.06 -251.15, 2.79 -257.98, -1.46 -272.87" stroke="#1e1e1e" stroke-width="2" fill="none"></path></g><g transform="translate(884.9247857393602 1493.771256786) rotate(0 -0.978032966135288 -136.64243170968678)"><path d="M-11.47 -244.59 C-6.64 -255.91, -3.2 -262.71, -1.46 -272.87 M-11.47 -244.59 C-9.32 -250.97, -7.43 -257.84, -1.46 -272.87" stroke="#1e1e1e" stroke-width="2" fill="none"></path></g></g><mask></mask></g><g clip-path="url(#mak8p7aQeuouqvx8VXBBu)"><g transform="translate(889.9366523920053 1503.1541763671926) rotate(0 201.03018188476562 7.225933554662163)"><text x="0" y="0" font-family="Helvetica, Segoe UI Emoji" font-size="12.566840964629847px" fill="#1e1e1e" text-anchor="start" style="white-space: pre;" direction="ltr" dominant-baseline="text-before-edge">Jan    Feb    Mar    Apr    Mai    Jun    Jul    Aug    Sep    Okt    Nov    Dec</text></g></g><g clip-path="url(#mak8p7aQeuouqvx8VXBBu)"><g stroke-linecap="round" transform="translate(896.9443838783209 1241.1199844343037) rotate(0 12.493107686145152 125.866749655631)"><path d="M6.25 0 C8.42 -0.11, 11.58 -0.54, 18.74 0 M6.25 0 C10.57 -0.42, 15.47 0.25, 18.74 0 M18.74 0 C22.48 -0.01, 25.12 2.41, 24.99 6.25 M18.74 0 C20.91 1.81, 24.1 1.19, 24.99 6.25 M24.99 6.25 C22.49 69.51, 21.66 135.76, 24.99 245.49 M24.99 6.25 C25.21 55.75, 25.64 104.93, 24.99 245.49 M24.99 245.49 C24.61 247.89, 21.27 251.25, 18.74 251.73 M24.99 245.49 C24.21 247.71, 23.07 253.99, 18.74 251.73 M18.74 251.73 C14.95 252.47, 9.58 252.18, 6.25 251.73 M18.74 251.73 C15.32 251.61, 10.56 251.22, 6.25 251.73 M6.25 251.73 C0.66 253.33, 1.58 250.82, 0 245.49 M6.25 251.73 C2.35 252.67, -1.05 251.05, 0 245.49 M0 245.49 C-0.4 165.22, -0.25 81.77, 0 6.25 M0 245.49 C0.66 195.47, 0.8 144.69, 0 6.25 M0 6.25 C-0.45 1.87, 1.22 -1.01, 6.25 0 M0 6.25 C0.14 1.22, 2.57 0.17, 6.25 0" stroke="#1e1e1e" stroke-width="2" fill="none"></path></g></g><g clip-path="url(#mak8p7aQeuouqvx8VXBBu)"><g stroke-linecap="round"><g transform="translate(898.4261161640443 1496.9766638221881) rotate(0 205.97763888181942 1.366054811717845)"><path d="M-0.02 -0.23 C68.43 0.46, 343.06 2.88, 411.52 3.56 M-1.49 -1.4 C66.69 -0.99, 341.26 1.3, 410.35 1.87" stroke="#1e1e1e" stroke-width="2" fill="none"></path></g><g transform="translate(898.4261161640443 1496.9766638221881) rotate(0 205.97763888181942 1.366054811717845)"><path d="M382.07 11.9 C392.16 7.48, 404.35 2.53, 410.35 1.87 M382.07 11.9 C393.18 8.7, 404.01 4.19, 410.35 1.87" stroke="#1e1e1e" stroke-width="2" fill="none"></path></g><g transform="translate(898.4261161640443 1496.9766638221881) rotate(0 205.97763888181942 1.366054811717845)"><path d="M382.24 -8.62 C392.17 -5.47, 404.3 -2.85, 410.35 1.87 M382.24 -8.62 C393.19 -3.8, 403.95 -0.29, 410.35 1.87" stroke="#1e1e1e" stroke-width="2" fill="none"></path></g></g><mask></mask></g><g clip-path="url(#mak8p7aQeuouqvx8VXBBu)"><g stroke-linecap="round" transform="translate(922.2890475650474 1328.1835677919337) rotate(0 12.493107686145152 83.87479348842055)"><path d="M6.25 0 C10.83 -1.19, 14.84 -0.52, 18.74 0 M6.25 0 C9.25 -0.08, 12.56 0.03, 18.74 0 M18.74 0 C21.17 1.58, 24.21 1.3, 24.99 6.25 M18.74 0 C22.24 -1.93, 26.08 0.95, 24.99 6.25 M24.99 6.25 C21.58 37.78, 25.17 70.01, 24.99 161.5 M24.99 6.25 C26.07 53.74, 25.44 102.75, 24.99 161.5 M24.99 161.5 C24.31 163.98, 23.05 169.71, 18.74 167.75 M24.99 161.5 C26.29 165.53, 22.64 168.98, 18.74 167.75 M18.74 167.75 C14.34 166.8, 9.38 168.63, 6.25 167.75 M18.74 167.75 C14.72 168.15, 12.08 168.02, 6.25 167.75 M6.25 167.75 C2.32 168.56, -0.91 166.88, 0 161.5 M6.25 167.75 C3.03 169.66, 0.94 167.39, 0 161.5 M0 161.5 C-3.1 101.04, -1.63 41.61, 0 6.25 M0 161.5 C0.84 109.02, 0.64 56.24, 0 6.25 M0 6.25 C0.12 1.33, 2.51 0.14, 6.25 0 M0 6.25 C-0.42 2.43, 3.83 -1.22, 6.25 0" stroke="#1e1e1e" stroke-width="2" fill="none"></path></g></g><g clip-path="url(#mak8p7aQeuouqvx8VXBBu)"><g stroke-linecap="round" transform="translate(956.0965909756615 1291.7129635901888) rotate(0 12.493107686145208 101.60758097675847)"><path d="M6.25 0 C10.68 -0.44, 12.23 0.14, 18.74 0 M6.25 0 C10.76 0.1, 14.66 0.49, 18.74 0 M18.74 0 C22.13 -0.78, 24.41 0.4, 24.99 6.25 M18.74 0 C24 -1.13, 22.76 -0.19, 24.99 6.25 M24.99 6.25 C24.92 61.26, 23.43 116.66, 24.99 196.97 M24.99 6.25 C23.8 60.38, 24.29 114.15, 24.99 196.97 M24.99 196.97 C25.13 203.1, 24.04 203.1, 18.74 203.22 M24.99 196.97 C24.72 202.37, 24.28 202.77, 18.74 203.22 M18.74 203.22 C14.16 203.95, 10.14 202.11, 6.25 203.22 M18.74 203.22 C16.45 203.68, 13.24 203.57, 6.25 203.22 M6.25 203.22 C1.17 204.43, 0.82 202.79, 0 196.97 M6.25 203.22 C3.02 204.94, 1.85 203.07, 0 196.97 M0 196.97 C1.38 143.59, 2.46 92.26, 0 6.25 M0 196.97 C0 142.32, 0.49 88.32, 0 6.25 M0 6.25 C0.42 2.23, 1.72 0.3, 6.25 0 M0 6.25 C1.74 0.87, 2.65 1.56, 6.25 0" stroke="#1e1e1e" stroke-width="2" fill="none"></path></g></g><g clip-path="url(#mak8p7aQeuouqvx8VXBBu)"><g stroke-linecap="round" transform="translate(992.6004878872682 1365.893248007718) rotate(0 12.493107686145208 65.34863265261652)"><path d="M6.25 0 C8.15 0.08, 12 -0.21, 18.74 0 M6.25 0 C9.45 0.47, 13.49 -0.26, 18.74 0 M18.74 0 C22.33 -1.68, 25.94 1.1, 24.99 6.25 M18.74 0 C20.68 -2.28, 24.64 -0.07, 24.99 6.25 M24.99 6.25 C26.23 43.14, 25.7 76.38, 24.99 124.45 M24.99 6.25 C23.68 30.44, 24.09 57.31, 24.99 124.45 M24.99 124.45 C26.12 128.5, 22.67 131.77, 18.74 130.7 M24.99 124.45 C26.36 128.17, 23.76 130.87, 18.74 130.7 M18.74 130.7 C15.82 129.78, 12.28 129.9, 6.25 130.7 M18.74 130.7 C14.07 131.02, 8.96 131.15, 6.25 130.7 M6.25 130.7 C2.91 132.35, 0.82 130.12, 0 124.45 M6.25 130.7 C3.94 132.63, -0.67 126.55, 0 124.45 M0 124.45 C0.94 95.76, -0.13 69.37, 0 6.25 M0 124.45 C0.57 89.86, 0.72 56.09, 0 6.25 M0 6.25 C-0.36 2.38, 3.6 -1.06, 6.25 0 M0 6.25 C0.57 3.64, 2.28 0.49, 6.25 0" stroke="#1e1e1e" stroke-width="2" fill="none"></path></g></g><g clip-path="url(#mak8p7aQeuouqvx8VXBBu)"><g stroke-linecap="round" transform="translate(1024.2547505240818 1233.9064275643043) rotate(0 12.493107686145208 131.37157784416354)"><path d="M6.25 0 C10.15 -0.26, 12.6 0.08, 18.74 0 M6.25 0 C9.96 -0.34, 13.97 -0.62, 18.74 0 M18.74 0 C23.85 -0.98, 23.05 0.1, 24.99 6.25 M18.74 0 C22.56 -2.15, 24.95 4.06, 24.99 6.25 M24.99 6.25 C24.98 88.87, 23.78 170.78, 24.99 256.5 M24.99 6.25 C24.36 76.11, 24.76 144.33, 24.99 256.5 M24.99 256.5 C24.75 261.73, 24.1 262.35, 18.74 262.74 M24.99 256.5 C25.84 260.83, 21.07 262.07, 18.74 262.74 M18.74 262.74 C13.19 261.76, 10.57 263.63, 6.25 262.74 M18.74 262.74 C13.97 263.17, 10.04 263.31, 6.25 262.74 M6.25 262.74 C2.9 264.25, 1.61 262.34, 0 256.5 M6.25 262.74 C1.41 260.68, -1.59 260.28, 0 256.5 M0 256.5 C-1.03 202.58, -0.94 148.68, 0 6.25 M0 256.5 C0.05 194.16, -0.27 131.83, 0 6.25 M0 6.25 C1.52 1.02, 2.58 1.36, 6.25 0 M0 6.25 C0.2 2.57, 1.89 -2.2, 6.25 0" stroke="#1e1e1e" stroke-width="2" fill="none"></path></g></g><g clip-path="url(#mak8p7aQeuouqvx8VXBBu)"><g stroke-linecap="round" transform="translate(1057.9295258279872 1307.0218139840263) rotate(0 12.493107686145208 94.24498596841408)"><path d="M6.25 0 C10.01 0.11, 13.99 -1.06, 18.74 0 M6.25 0 C10.8 -0.48, 16.01 -0.26, 18.74 0 M18.74 0 C20.97 -1.98, 24.69 0.21, 24.99 6.25 M18.74 0 C22.86 1.97, 25.71 2.35, 24.99 6.25 M24.99 6.25 C22.96 71.84, 24.24 140.04, 24.99 182.24 M24.99 6.25 C25.68 44.16, 25 82.72, 24.99 182.24 M24.99 182.24 C26.18 186.02, 23.65 188.64, 18.74 188.49 M24.99 182.24 C23.15 185.73, 24.45 188.17, 18.74 188.49 M18.74 188.49 C16.99 189.39, 13.98 188.55, 6.25 188.49 M18.74 188.49 C14.74 189.08, 10.49 189.03, 6.25 188.49 M6.25 188.49 C3.69 190.17, -0.58 184.62, 0 182.24 M6.25 188.49 C0.5 188.11, -1.98 187.27, 0 182.24 M0 182.24 C0.07 140.7, -0.73 101.01, 0 6.25 M0 182.24 C-0.56 136.18, 0.38 89.29, 0 6.25 M0 6.25 C0.49 3.44, 2.26 0.42, 6.25 0 M0 6.25 C-0.19 -0.12, 3.14 -1.28, 6.25 0" stroke="#1e1e1e" stroke-width="2" fill="none"></path></g></g><g clip-path="url(#mak8p7aQeuouqvx8VXBBu)"><g stroke-linecap="round" transform="translate(1093.7659989864896 1364.4442223716621) rotate(0 12.493107686145208 65.34863265261652)"><path d="M6.25 0 C9.94 -1.09, 14.2 -0.49, 18.74 0 M6.25 0 C9.8 -0.2, 12.16 -0.51, 18.74 0 M18.74 0 C22.61 -1.87, 24.95 3.8, 24.99 6.25 M18.74 0 C23.63 0.27, 26.87 1.74, 24.99 6.25 M24.99 6.25 C23.46 38.79, 22.26 72.83, 24.99 124.45 M24.99 6.25 C25.54 53.84, 26.25 100.17, 24.99 124.45 M24.99 124.45 C25.73 128.76, 21.31 130.11, 18.74 130.7 M24.99 124.45 C26.53 128.3, 21.06 128.93, 18.74 130.7 M18.74 130.7 C16.61 130.94, 13.52 130.22, 6.25 130.7 M18.74 130.7 C14.49 131.27, 10.23 131.33, 6.25 130.7 M6.25 130.7 C1.5 128.9, -1.38 128.29, 0 124.45 M6.25 130.7 C0.1 131.56, -1.58 128.24, 0 124.45 M0 124.45 C-0.89 91.77, -0.62 59.28, 0 6.25 M0 124.45 C0.97 87.61, 0.46 52.51, 0 6.25 M0 6.25 C0.18 2.51, 1.92 -1.91, 6.25 0 M0 6.25 C1.06 0.8, 3.87 -0.68, 6.25 0" stroke="#1e1e1e" stroke-width="2" fill="none"></path></g></g><g clip-path="url(#mak8p7aQeuouqvx8VXBBu)"><g stroke-linecap="round" transform="translate(1125.4202616233033 1327.4509706397341) rotate(0 12.493107686145208 83.87479348842055)"><path d="M6.25 0 C11.06 -0.38, 13.42 -0.25, 18.74 0 M6.25 0 C8.34 -0.56, 11.55 -0.52, 18.74 0 M18.74 0 C22.87 1.72, 25.61 2.31, 24.99 6.25 M18.74 0 C24.79 -0.34, 24.55 0.05, 24.99 6.25 M24.99 6.25 C22.93 40.25, 26.58 75.09, 24.99 161.5 M24.99 6.25 C25.4 51.72, 25.18 97.66, 24.99 161.5 M24.99 161.5 C23.39 165.08, 24.24 167.47, 18.74 167.75 M24.99 161.5 C23.14 163.9, 21.27 169.59, 18.74 167.75 M18.74 167.75 C14.51 167.19, 10.03 168.28, 6.25 167.75 M18.74 167.75 C14.46 168.37, 8.99 167.28, 6.25 167.75 M6.25 167.75 C0.7 167.42, -1.72 166.41, 0 161.5 M6.25 167.75 C0.5 167.38, -0.52 165.42, 0 161.5 M0 161.5 C0.04 122.08, 0.93 81.44, 0 6.25 M0 161.5 C-0.93 113.26, -1.09 63.88, 0 6.25 M0 6.25 C-0.16 0.17, 3.01 -1.12, 6.25 0 M0 6.25 C1.79 1.41, 0.97 2.14, 6.25 0" stroke="#1e1e1e" stroke-width="2" fill="none"></path></g></g><g clip-path="url(#mak8p7aQeuouqvx8VXBBu)"><g stroke-linecap="round" transform="translate(1158.9622688204963 1451.078586747852) rotate(0 12.493107686145208 21.689227290554584)"><path d="M6.25 0 C8.43 -0.31, 10.53 0.64, 18.74 0 M6.25 0 C9.29 -0.46, 12.5 0.66, 18.74 0 M18.74 0 C23.53 0.23, 26.63 1.78, 24.99 6.25 M18.74 0 C22.47 -2.03, 23.1 1.53, 24.99 6.25 M24.99 6.25 C26.69 15.6, 24.61 22.46, 24.99 37.13 M24.99 6.25 C25.54 17.24, 24.37 27.8, 24.99 37.13 M24.99 37.13 C26.33 41.02, 21.3 41.84, 18.74 43.38 M24.99 37.13 C23.36 43.13, 24.72 44.73, 18.74 43.38 M18.74 43.38 C15.6 43.84, 11.98 43.83, 6.25 43.38 M18.74 43.38 C13.87 42.92, 8.94 43.38, 6.25 43.38 M6.25 43.38 C0.36 44.13, -1.38 40.97, 0 37.13 M6.25 43.38 C1.56 43.14, -1 40.13, 0 37.13 M0 37.13 C0.26 27.32, 0.42 19.75, 0 6.25 M0 37.13 C0.01 29.71, -0.16 20.91, 0 6.25 M0 6.25 C0.92 0.97, 3.64 -0.59, 6.25 0 M0 6.25 C-1.12 4.22, 2.43 -0.58, 6.25 0" stroke="#1e1e1e" stroke-width="2" fill="none"></path></g></g><g clip-path="url(#mak8p7aQeuouqvx8VXBBu)"><g stroke-linecap="round" transform="translate(1196.1334876452947 1364.964418349008) rotate(0 12.493107686145208 65.34863265261652)"><path d="M6.25 0 C8.46 0.63, 12.16 -1.17, 18.74 0 M6.25 0 C8.75 0.65, 11.47 0.19, 18.74 0 M18.74 0 C24.54 -0.3, 24.61 0.32, 24.99 6.25 M18.74 0 C21.02 -0.55, 24.21 0.14, 24.99 6.25 M24.99 6.25 C26.03 42.34, 27.22 80.1, 24.99 124.45 M24.99 6.25 C24.63 39.11, 26.09 72.42, 24.99 124.45 M24.99 124.45 C23.38 127.08, 21.49 132.29, 18.74 130.7 M24.99 124.45 C26.8 129.96, 23.18 131.63, 18.74 130.7 M18.74 130.7 C16.6 131.26, 13.32 131.76, 6.25 130.7 M18.74 130.7 C13.51 130.48, 8.61 130.82, 6.25 130.7 M6.25 130.7 C0.7 130.37, -0.45 128.4, 0 124.45 M6.25 130.7 C1.09 129.53, 0.14 127.75, 0 124.45 M0 124.45 C0.22 87.99, -1.14 49, 0 6.25 M0 124.45 C-0.19 80.01, 0.36 36.91, 0 6.25 M0 6.25 C1.56 1.49, 1.11 1.86, 6.25 0 M0 6.25 C0.35 1.5, 2.67 -2.12, 6.25 0" stroke="#1e1e1e" stroke-width="2" fill="none"></path></g></g><g clip-path="url(#mak8p7aQeuouqvx8VXBBu)"><g stroke-linecap="round" transform="translate(1227.9205183888134 1255.6869790665776) rotate(0 12.493107686145208 119.95150902930806)"><path d="M6.25 0 C9.02 -1.27, 11.79 -0.24, 18.74 0 M6.25 0 C9.02 -0.04, 11.92 -0.2, 18.74 0 M18.74 0 C22.52 -1.76, 23.35 1.6, 24.99 6.25 M18.74 0 C22.13 -1.94, 25.16 4.34, 24.99 6.25 M24.99 6.25 C25.79 88.39, 24.54 169.13, 24.99 233.66 M24.99 6.25 C24.01 76.01, 22.75 145.36, 24.99 233.66 M24.99 233.66 C23.57 239.42, 24.48 241.08, 18.74 239.9 M24.99 233.66 C25.26 238.75, 21.85 241.3, 18.74 239.9 M18.74 239.9 C15.42 240.96, 11.27 239.59, 6.25 239.9 M18.74 239.9 C15.57 240.12, 13.05 239.78, 6.25 239.9 M6.25 239.9 C1.63 239.69, -0.87 236.81, 0 233.66 M6.25 239.9 C2.22 239.04, 0.49 237.99, 0 233.66 M0 233.66 C-1.2 169.99, 0.87 105.63, 0 6.25 M0 233.66 C0.55 160.14, 0.82 87.32, 0 6.25 M0 6.25 C-0.97 3.94, 2.39 -0.51, 6.25 0 M0 6.25 C0.59 -0.04, 3.77 2.02, 6.25 0" stroke="#1e1e1e" stroke-width="2" fill="none"></path></g></g><g clip-path="url(#mak8p7aQeuouqvx8VXBBu)"><g stroke-linecap="round" transform="translate(1261.7280617994238 1310.8243568552687) rotate(0 12.493107686145208 91.88030552242805)"><path d="M6.25 0 C9.35 -0.06, 13.76 0.1, 18.74 0 M6.25 0 C11.58 -0.11, 15.77 -0.57, 18.74 0 M18.74 0 C21.27 -0.48, 24.31 0.4, 24.99 6.25 M18.74 0 C23.07 2.26, 26.29 1.95, 24.99 6.25 M24.99 6.25 C25.52 56.38, 26.05 103.42, 24.99 177.51 M24.99 6.25 C25.33 51.84, 25.42 99.76, 24.99 177.51 M24.99 177.51 C26.56 182.85, 23.14 184.57, 18.74 183.76 M24.99 177.51 C23.93 183.07, 23.85 185.67, 18.74 183.76 M18.74 183.76 C15.53 183.5, 9.1 183, 6.25 183.76 M18.74 183.76 C14.77 183.71, 11.51 183.74, 6.25 183.76 M6.25 183.76 C1.22 182.75, 0.12 180.93, 0 177.51 M6.25 183.76 C2.57 183.93, -0.42 182.03, 0 177.51 M0 177.51 C2.26 113.33, 1.33 48.63, 0 6.25 M0 177.51 C-0.01 142.2, -1.28 108.41, 0 6.25 M0 6.25 C0.3 1.58, 2.6 -1.85, 6.25 0 M0 6.25 C1.69 4.1, -0.05 2.07, 6.25 0" stroke="#1e1e1e" stroke-width="2" fill="none"></path></g></g><g clip-path="url(#mak8p7aQeuouqvx8VXBBu)"><g transform="translate(396.8524502657856 1275.5567675535221) rotate(0 23.753158569335938 13.647864789329333)"><text x="0" y="0" font-family="Helvetica, Segoe UI Emoji" font-size="23.73541702492054px" fill="#1e1e1e" text-anchor="start" style="white-space: pre;" direction="ltr" dominant-baseline="text-before-edge">Von:</text></g></g><g clip-path="url(#mak8p7aQeuouqvx8VXBBu)"><g transform="translate(400.1579705518725 1217.932761155026) rotate(0 46.81111145019531 13.647864789329333)"><text x="0" y="0" font-family="Helvetica, Segoe UI Emoji" font-size="23.73541702492054px" fill="#1e1e1e" text-anchor="start" style="white-space: pre;" direction="ltr" dominant-baseline="text-before-edge">Zeitraum</text></g></g><g clip-path="url(#mak8p7aQeuouqvx8VXBBu)"><g stroke-linecap="round" transform="translate(382.7420647402723 1200.0787077428076) rotate(0 120.43765057915044 152.77594194892782)"><path d="M32 0 C84.76 0, 137.51 0, 208.88 0 M32 0 C69.47 0, 106.93 0, 208.88 0 M208.88 0 C230.21 0, 240.88 10.67, 240.88 32 M208.88 0 C230.21 0, 240.88 10.67, 240.88 32 M240.88 32 C240.88 85.16, 240.88 138.32, 240.88 273.55 M240.88 32 C240.88 123.75, 240.88 215.5, 240.88 273.55 M240.88 273.55 C240.88 294.89, 230.21 305.55, 208.88 305.55 M240.88 273.55 C240.88 294.89, 230.21 305.55, 208.88 305.55 M208.88 305.55 C168 305.55, 127.13 305.55, 32 305.55 M208.88 305.55 C157.68 305.55, 106.48 305.55, 32 305.55 M32 305.55 C10.67 305.55, 0 294.89, 0 273.55 M32 305.55 C10.67 305.55, 0 294.89, 0 273.55 M0 273.55 C0 203.07, 0 132.58, 0 32 M0 273.55 C0 178.6, 0 83.65, 0 32 M0 32 C0 10.67, 10.67 0, 32 0 M0 32 C0 10.67, 10.67 0, 32 0" stroke="#1e1e1e" stroke-width="2" fill="none"></path></g></g><g clip-path="url(#mak8p7aQeuouqvx8VXBBu)"><g transform="translate(400.03638819652224 1386.645045857589) rotate(0 19.778839111328125 13.647864789329333)"><text x="0" y="0" font-family="Helvetica, Segoe UI Emoji" font-size="23.73541702492054px" fill="#1e1e1e" text-anchor="start" style="white-space: pre;" direction="ltr" dominant-baseline="text-before-edge">Bis:</text></g></g><g clip-path="url(#mak8p7aQeuouqvx8VXBBu)"><g stroke-linecap="round" transform="translate(392.8594003313792 1421.5605408228423) rotate(0 107.85543575043596 16.527448587050685)"><path d="M8.26 0 C76.65 0, 145.05 0, 207.45 0 C212.96 0, 215.71 2.75, 215.71 8.26 C215.71 14.85, 215.71 21.43, 215.71 24.79 C215.71 30.3, 212.96 33.05, 207.45 33.05 C146.34 33.05, 85.23 33.05, 8.26 33.05 C2.75 33.05, 0 30.3, 0 24.79 C0 20.71, 0 16.62, 0 8.26 C0 2.75, 2.75 0, 8.26 0" stroke="none" stroke-width="0" fill="#343a40"></path><path d="M8.26 0 C84.35 0, 160.45 0, 207.45 0 M8.26 0 C51.23 0, 94.2 0, 207.45 0 M207.45 0 C212.96 0, 215.71 2.75, 215.71 8.26 M207.45 0 C212.96 0, 215.71 2.75, 215.71 8.26 M215.71 8.26 C215.71 11.9, 215.71 15.53, 215.71 24.79 M215.71 8.26 C215.71 13.89, 215.71 19.52, 215.71 24.79 M215.71 24.79 C215.71 30.3, 212.96 33.05, 207.45 33.05 M215.71 24.79 C215.71 30.3, 212.96 33.05, 207.45 33.05 M207.45 33.05 C161.41 33.05, 115.38 33.05, 8.26 33.05 M207.45 33.05 C155.15 33.05, 102.85 33.05, 8.26 33.05 M8.26 33.05 C2.75 33.05, 0 30.3, 0 24.79 M8.26 33.05 C2.75 33.05, 0 30.3, 0 24.79 M0 24.79 C0 18.55, 0 12.3, 0 8.26 M0 24.79 C0 21.36, 0 17.93, 0 8.26 M0 8.26 C0 2.75, 2.75 0, 8.26 0 M0 8.26 C0 2.75, 2.75 0, 8.26 0" stroke="#ffffff" stroke-width="2" fill="none"></path></g></g><g clip-path="url(#mak8p7aQeuouqvx8VXBBu)"><g transform="translate(453.21851344997924 1427.1696975784296) rotate(0 47.49632263183594 10.91829183146342)"><text x="47.49632263183594" y="0" font-family="Helvetica, Segoe UI Emoji" font-size="18.988333619936434px" fill="#ffffff" text-anchor="middle" style="white-space: pre;" direction="ltr" dominant-baseline="text-before-edge">12.12.2022</text></g></g><g clip-path="url(#mak8p7aQeuouqvx8VXBBu)"><g stroke-linecap="round" transform="translate(392.16410123671994 1311.190358305063) rotate(0 109.43624731147031 15.918291831463478)"><path d="M7.96 0 C86.93 0, 165.9 0, 210.91 0 C216.22 0, 218.87 2.65, 218.87 7.96 C218.87 12.88, 218.87 17.79, 218.87 23.88 C218.87 29.18, 216.22 31.84, 210.91 31.84 C158.29 31.84, 105.66 31.84, 7.96 31.84 C2.65 31.84, 0 29.18, 0 23.88 C0 18.14, 0 12.4, 0 7.96 C0 2.65, 2.65 0, 7.96 0" stroke="none" stroke-width="0" fill="#343a40"></path><path d="M7.96 0 C52.21 0, 96.47 0, 210.91 0 M7.96 0 C67.66 0, 127.36 0, 210.91 0 M210.91 0 C216.22 0, 218.87 2.65, 218.87 7.96 M210.91 0 C216.22 0, 218.87 2.65, 218.87 7.96 M218.87 7.96 C218.87 13.99, 218.87 20.02, 218.87 23.88 M218.87 7.96 C218.87 14.05, 218.87 20.15, 218.87 23.88 M218.87 23.88 C218.87 29.18, 216.22 31.84, 210.91 31.84 M218.87 23.88 C218.87 29.18, 216.22 31.84, 210.91 31.84 M210.91 31.84 C158.82 31.84, 106.73 31.84, 7.96 31.84 M210.91 31.84 C146.96 31.84, 83.02 31.84, 7.96 31.84 M7.96 31.84 C2.65 31.84, 0 29.18, 0 23.88 M7.96 31.84 C2.65 31.84, 0 29.18, 0 23.88 M0 23.88 C0 18.86, 0 13.84, 0 7.96 M0 23.88 C0 17.67, 0 11.46, 0 7.96 M0 7.96 C0 2.65, 2.65 0, 7.96 0 M0 7.96 C0 2.65, 2.65 0, 7.96 0" stroke="#ffffff" stroke-width="2" fill="none"></path></g></g><g clip-path="url(#mak8p7aQeuouqvx8VXBBu)"><g transform="translate(454.1040259163543 1316.190358305063) rotate(0 47.49632263183594 10.918291831463478)"><text x="47.49632263183594" y="0" font-family="Helvetica, Segoe UI Emoji" font-size="18.988333619936434px" fill="#ffffff" text-anchor="middle" style="white-space: pre;" direction="ltr" dominant-baseline="text-before-edge">12.12.2022</text></g></g><g clip-path="url(#mak8p7aQeuouqvx8VXBBu)"><g stroke-linecap="round" transform="translate(643.3253887170104 1198.839810003767) rotate(0 102.24125850969892 152.77594194892782)"><path d="M32 0 C75.18 0, 118.35 0, 172.48 0 M32 0 C71.41 0, 110.81 0, 172.48 0 M172.48 0 C193.82 0, 204.48 10.67, 204.48 32 M172.48 0 C193.82 0, 204.48 10.67, 204.48 32 M204.48 32 C204.48 93.42, 204.48 154.85, 204.48 273.55 M204.48 32 C204.48 124.77, 204.48 217.53, 204.48 273.55 M204.48 273.55 C204.48 294.89, 193.82 305.55, 172.48 305.55 M204.48 273.55 C204.48 294.89, 193.82 305.55, 172.48 305.55 M172.48 305.55 C127.35 305.55, 82.23 305.55, 32 305.55 M172.48 305.55 C120.8 305.55, 69.11 305.55, 32 305.55 M32 305.55 C10.67 305.55, 0 294.89, 0 273.55 M32 305.55 C10.67 305.55, 0 294.89, 0 273.55 M0 273.55 C0 183.35, 0 93.15, 0 32 M0 273.55 C0 199.92, 0 126.29, 0 32 M0 32 C0 10.67, 10.67 0, 32 0 M0 32 C0 10.67, 10.67 0, 32 0" stroke="#1e1e1e" stroke-width="2" fill="none"></path></g></g><g clip-path="url(#mak8p7aQeuouqvx8VXBBu)"><g transform="translate(658.9033903201343 1331.4178246400254) rotate(0 26.669921875 11.5)"><text x="0" y="0" font-family="Helvetica, Segoe UI Emoji" font-size="20px" fill="#1e1e1e" text-anchor="start" style="white-space: pre;" direction="ltr" dominant-baseline="text-before-edge">Strom</text></g></g><g clip-path="url(#mak8p7aQeuouqvx8VXBBu)"><g transform="translate(673.6880492577111 1358.876485784778) rotate(0 24.45703125 9.199999999999989)"><text x="0" y="0" font-family="Helvetica, Segoe UI Emoji" font-size="16px" fill="#1e1e1e" text-anchor="start" style="white-space: pre;" direction="ltr" dominant-baseline="text-before-edge">Monat:</text></g></g><g clip-path="url(#mak8p7aQeuouqvx8VXBBu)"><g transform="translate(659.6200099640519 1385.8363293777968) rotate(0 19.12109375 9.199999999999989)"><text x="0" y="0" font-family="Helvetica, Segoe UI Emoji" font-size="16px" fill="#1e1e1e" text-anchor="start" style="white-space: pre;" direction="ltr" dominant-baseline="text-before-edge">Total:</text></g></g><g clip-path="url(#mak8p7aQeuouqvx8VXBBu)"><g stroke-linecap="round" transform="translate(659.4957179846897 1361.742578311887) rotate(0 6.305883224605168 5.852693015770285)"><path d="M12.61 5.85 C12.61 6.19, 12.58 6.54, 12.52 6.87 C12.45 7.2, 12.36 7.54, 12.23 7.85 C12.11 8.17, 11.95 8.49, 11.77 8.78 C11.58 9.07, 11.37 9.36, 11.14 9.61 C10.9 9.87, 10.64 10.12, 10.36 10.34 C10.08 10.55, 9.77 10.75, 9.46 10.92 C9.14 11.09, 8.81 11.24, 8.46 11.35 C8.12 11.47, 7.76 11.56, 7.4 11.62 C7.04 11.68, 6.67 11.71, 6.31 11.71 C5.94 11.71, 5.57 11.68, 5.21 11.62 C4.85 11.56, 4.49 11.47, 4.15 11.35 C3.81 11.24, 3.47 11.09, 3.15 10.92 C2.84 10.75, 2.53 10.55, 2.25 10.34 C1.97 10.12, 1.71 9.87, 1.48 9.61 C1.24 9.36, 1.03 9.07, 0.84 8.78 C0.66 8.49, 0.51 8.17, 0.38 7.85 C0.26 7.54, 0.16 7.2, 0.1 6.87 C0.03 6.54, 0 6.19, 0 5.85 C0 5.51, 0.03 5.17, 0.1 4.84 C0.16 4.5, 0.26 4.17, 0.38 3.85 C0.51 3.53, 0.66 3.22, 0.84 2.93 C1.03 2.63, 1.24 2.35, 1.48 2.09 C1.71 1.83, 1.97 1.59, 2.25 1.37 C2.53 1.15, 2.84 0.95, 3.15 0.78 C3.47 0.61, 3.81 0.47, 4.15 0.35 C4.49 0.24, 4.85 0.15, 5.21 0.09 C5.57 0.03, 5.94 0, 6.31 0 C6.67 0, 7.04 0.03, 7.4 0.09 C7.76 0.15, 8.12 0.24, 8.46 0.35 C8.81 0.47, 9.14 0.61, 9.46 0.78 C9.77 0.95, 10.08 1.15, 10.36 1.37 C10.64 1.59, 10.9 1.83, 11.14 2.09 C11.37 2.35, 11.58 2.63, 11.77 2.93 C11.95 3.22, 12.11 3.53, 12.23 3.85 C12.36 4.17, 12.45 4.5, 12.52 4.84 C12.58 5.17, 12.6 5.68, 12.61 5.85 C12.63 6.02, 12.63 5.68, 12.61 5.85" stroke="#1e1e1e" stroke-width="1" fill="none"></path></g></g><g clip-path="url(#mak8p7aQeuouqvx8VXBBu)"><g stroke-linecap="round"><g transform="translate(658.3049531071119 1358.8280177909764) rotate(0 7.56774421715636 8.67828834467798)"><path d="M0 0 C2.52 2.89, 12.61 14.46, 15.14 17.36 M0 0 C2.52 2.89, 12.61 14.46, 15.14 17.36" stroke="#1e1e1e" stroke-width="1" fill="none"></path></g></g><mask></mask></g><g clip-path="url(#mak8p7aQeuouqvx8VXBBu)"><g transform="translate(657.5620689637854 1412.3350885046757) rotate(0 18.33984375 11.5)"><text x="0" y="0" font-family="Helvetica, Segoe UI Emoji" font-size="20px" fill="#1e1e1e" text-anchor="start" style="white-space: pre;" direction="ltr" dominant-baseline="text-before-edge">Gas</text></g></g><g clip-path="url(#mak8p7aQeuouqvx8VXBBu)"><g transform="translate(672.3467279013657 1439.793749649428) rotate(0 24.45703125 9.199999999999989)"><text x="0" y="0" font-family="Helvetica, Segoe UI Emoji" font-size="16px" fill="#1e1e1e" text-anchor="start" style="white-space: pre;" direction="ltr" dominant-baseline="text-before-edge">Monat:</text></g></g><g clip-path="url(#mak8p7aQeuouqvx8VXBBu)"><g transform="translate(658.2786886077029 1466.7535932424469) rotate(0 19.12109375 9.199999999999989)"><text x="0" y="0" font-family="Helvetica, Segoe UI Emoji" font-size="16px" fill="#1e1e1e" text-anchor="start" style="white-space: pre;" direction="ltr" dominant-baseline="text-before-edge">Total:</text></g></g><g clip-path="url(#mak8p7aQeuouqvx8VXBBu)"><g stroke-linecap="round" transform="translate(658.154396628337 1442.659842176537) rotate(0 6.305883224605168 5.852693015770285)"><path d="M12.61 5.85 C12.61 6.19, 12.58 6.54, 12.52 6.87 C12.45 7.2, 12.36 7.54, 12.23 7.85 C12.11 8.17, 11.95 8.49, 11.77 8.78 C11.58 9.07, 11.37 9.36, 11.14 9.61 C10.9 9.87, 10.64 10.12, 10.36 10.34 C10.08 10.55, 9.77 10.75, 9.46 10.92 C9.14 11.09, 8.81 11.24, 8.46 11.35 C8.12 11.47, 7.76 11.56, 7.4 11.62 C7.04 11.68, 6.67 11.71, 6.31 11.71 C5.94 11.71, 5.57 11.68, 5.21 11.62 C4.85 11.56, 4.49 11.47, 4.15 11.35 C3.81 11.24, 3.47 11.09, 3.15 10.92 C2.84 10.75, 2.53 10.55, 2.25 10.34 C1.97 10.12, 1.71 9.87, 1.48 9.61 C1.24 9.36, 1.03 9.07, 0.84 8.78 C0.66 8.49, 0.51 8.17, 0.38 7.85 C0.26 7.54, 0.16 7.2, 0.1 6.87 C0.03 6.54, 0 6.19, 0 5.85 C0 5.51, 0.03 5.17, 0.1 4.84 C0.16 4.5, 0.26 4.17, 0.38 3.85 C0.51 3.53, 0.66 3.22, 0.84 2.93 C1.03 2.63, 1.24 2.35, 1.48 2.09 C1.71 1.83, 1.97 1.59, 2.25 1.37 C2.53 1.15, 2.84 0.95, 3.15 0.78 C3.47 0.61, 3.81 0.47, 4.15 0.35 C4.49 0.24, 4.85 0.15, 5.21 0.09 C5.57 0.03, 5.94 0, 6.31 0 C6.67 0, 7.04 0.03, 7.4 0.09 C7.76 0.15, 8.12 0.24, 8.46 0.35 C8.81 0.47, 9.14 0.61, 9.46 0.78 C9.77 0.95, 10.08 1.15, 10.36 1.37 C10.64 1.59, 10.9 1.83, 11.14 2.09 C11.37 2.35, 11.58 2.63, 11.77 2.93 C11.95 3.22, 12.11 3.53, 12.23 3.85 C12.36 4.17, 12.45 4.5, 12.52 4.84 C12.58 5.17, 12.6 5.68, 12.61 5.85 C12.63 6.02, 12.63 5.68, 12.61 5.85" stroke="#1e1e1e" stroke-width="1" fill="none"></path></g></g><g clip-path="url(#mak8p7aQeuouqvx8VXBBu)"><g stroke-linecap="round"><g transform="translate(656.9636317507629 1439.7452816556267) rotate(0 7.56774421715636 8.67828834467798)"><path d="M0 0 C2.52 2.89, 12.61 14.46, 15.14 17.36 M0 0 C2.52 2.89, 12.61 14.46, 15.14 17.36" stroke="#1e1e1e" stroke-width="1" fill="none"></path></g></g><mask></mask></g><g clip-path="url(#mak8p7aQeuouqvx8VXBBu)"><g transform="translate(737.793437371558 1299.6934563731525) rotate(0 17.796875 9.199999999999989)"><text x="0" y="0" font-family="Helvetica, Segoe UI Emoji" font-size="16px" fill="#1e1e1e" text-anchor="start" style="white-space: pre;" direction="ltr" dominant-baseline="text-before-edge">123€</text></g></g><g clip-path="url(#mak8p7aQeuouqvx8VXBBu)"><g transform="translate(735.9884771399393 1355.6415947791802) rotate(0 17.796875 9.199999999999989)"><text x="0" y="0" font-family="Helvetica, Segoe UI Emoji" font-size="16px" fill="#1e1e1e" text-anchor="start" style="white-space: pre;" direction="ltr" dominant-baseline="text-before-edge">123€</text></g></g><g clip-path="url(#mak8p7aQeuouqvx8VXBBu)"><g transform="translate(737.4050519578941 1377.2879837523296) rotate(0 17.796875 9.199999999999989)"><text x="0" y="0" font-family="Helvetica, Segoe UI Emoji" font-size="16px" fill="#1e1e1e" text-anchor="start" style="white-space: pre;" direction="ltr" dominant-baseline="text-before-edge">123€</text></g></g><g clip-path="url(#mak8p7aQeuouqvx8VXBBu)"><g transform="translate(734.9068143815803 1440.9634908838434) rotate(0 17.796875 9.199999999999989)"><text x="0" y="0" font-family="Helvetica, Segoe UI Emoji" font-size="16px" fill="#1e1e1e" text-anchor="start" style="white-space: pre;" direction="ltr" dominant-baseline="text-before-edge">123€</text></g></g><g clip-path="url(#mak8p7aQeuouqvx8VXBBu)"><g transform="translate(736.3233891995387 1462.6098798569928) rotate(0 17.796875 9.199999999999989)"><text x="0" y="0" font-family="Helvetica, Segoe UI Emoji" font-size="16px" fill="#1e1e1e" text-anchor="start" style="white-space: pre;" direction="ltr" dominant-baseline="text-before-edge">123€</text></g></g><g transform="translate(10 1094.5352650874083) rotate(0 32.9139404296875 8.75)"><text x="0" y="0" font-family="Assistant, Segoe UI Emoji" font-size="14px" fill="#999999" text-anchor="start" style="white-space: pre;" direction="ltr" dominant-baseline="text-before-edge">Stadtwerke</text></g><rect transform="translate(10 1115.0352650874083) rotate(0 698.1601562499999 415.95703125000006)" width="1396.3203124999998px" height="831.9140625000002px" rx="8" ry="8" fill="none" stroke="#bbb" stroke-width="2"></rect><g transform="translate(49.888146414159564 10) rotate(0 600.9913940429688 134.29949190355447)"><text x="0" y="0" font-family="Virgil, Segoe UI Emoji" font-size="214.87918704568716px" fill="#2f9e44" text-anchor="start" style="white-space: pre;" direction="ltr" dominant-baseline="text-before-edge">Stadtwerke</text></g></svg>