<svg version="1.1" xmlns="http://www.w3.org/2000/svg" viewBox="0 0 1318.8540222786437 1908.2868172346537" width="1318.8540222786437" height="1908.2868172346537">
  <!-- svg-source:excalidraw -->
  
  <defs>
    <style class="style-fonts">
      @font-face {
        font-family: "Virgil";
        src: url("https://file%2B.vscode-resource.vscode-cdn.net/c%3A/Users/lisa-/.vscode/extensions/pomdtr.excalidraw-editor-3.7.4/public//dist/excalidraw-assets/Virgil.woff2");
      }
      @font-face {
        font-family: "Cascadia";
        src: url("https://file%2B.vscode-resource.vscode-cdn.net/c%3A/Users/lisa-/.vscode/extensions/pomdtr.excalidraw-editor-3.7.4/public//dist/excalidraw-assets/Cascadia.woff2");
      }
      @font-face {
        font-family: "Assistant";
        src: url("https://file%2B.vscode-resource.vscode-cdn.net/c%3A/Users/lisa-/.vscode/extensions/pomdtr.excalidraw-editor-3.7.4/public//dist/excalidraw-assets/Assistant-Regular.woff2");
      }
    </style>
    
  </defs>
  <rect x="0" y="0" width="1318.8540222786437" height="1908.2868172346537" fill="#ffffff"></rect><g stroke-linecap="round" transform="translate(25.73866915902181 1176.6717652550672) rotate(0 640 360)"><path d="M0 0 C491.4 0, 982.79 0, 1280 0 M0 0 C457.28 0, 914.55 0, 1280 0 M1280 0 C1280 182.2, 1280 364.39, 1280 720 M1280 0 C1280 164.06, 1280 328.11, 1280 720 M1280 720 C801.35 720, 322.69 720, 0 720 M1280 720 C923.76 720, 567.51 720, 0 720 M0 720 C0 482.61, 0 245.22, 0 0 M0 720 C0 460.35, 0 200.7, 0 0" stroke="#ced4da" stroke-width="4" fill="none"></path></g><g stroke-linecap="round"><g transform="translate(302.49794341325105 1176.222892991725) rotate(0 0.67626953125 360.6884765625)"><path d="M-0.98 0.17 C-0.66 120.46, 1.21 601.97, 1.6 722.06 M0.71 -0.78 C0.91 119.13, 0.8 599.89, 0.78 720.3" stroke="#bbb" stroke-width="2" fill="none"></path></g></g><mask></mask><g transform="translate(61.70307711125497 1848.1468947343806) rotate(0 29.653038024902344 11.152405278842082)"><text x="0" y="0" font-family="Helvetica, Segoe UI Emoji" font-size="19.39548744146448px" fill="#1e1e1e" text-anchor="start" style="white-space: pre;" direction="ltr" dominant-baseline="text-before-edge">Logout</text></g><g transform="translate(63.402391897419875 1205.7286616654187) rotate(0 80.01953125 103.5)"><text x="0" y="0" font-family="Helvetica, Segoe UI Emoji" font-size="20px" fill="#1e1e1e" text-anchor="start" style="white-space: pre;" direction="ltr" dominant-baseline="text-before-edge">Home</text><text x="0" y="23" font-family="Helvetica, Segoe UI Emoji" font-size="20px" fill="#1e1e1e" text-anchor="start" style="white-space: pre;" direction="ltr" dominant-baseline="text-before-edge"></text><text x="0" y="46" font-family="Helvetica, Segoe UI Emoji" font-size="20px" fill="#1e1e1e" text-anchor="start" style="white-space: pre;" direction="ltr" dominant-baseline="text-before-edge"></text><text x="0" y="69" font-family="Helvetica, Segoe UI Emoji" font-size="20px" fill="#1e1e1e" text-anchor="start" style="white-space: pre;" direction="ltr" dominant-baseline="text-before-edge">- Stadtwerke</text><text x="0" y="92" font-family="Helvetica, Segoe UI Emoji" font-size="20px" fill="#1e1e1e" text-anchor="start" style="white-space: pre;" direction="ltr" dominant-baseline="text-before-edge">    - Wasser</text><text x="0" y="115" font-family="Helvetica, Segoe UI Emoji" font-size="20px" fill="#1e1e1e" text-anchor="start" style="white-space: pre;" direction="ltr" dominant-baseline="text-before-edge">    - Strom</text><text x="0" y="138" font-family="Helvetica, Segoe UI Emoji" font-size="20px" fill="#1e1e1e" text-anchor="start" style="white-space: pre;" direction="ltr" dominant-baseline="text-before-edge">    - Wärmepumpe</text><text x="0" y="161" font-family="Helvetica, Segoe UI Emoji" font-size="20px" fill="#1e1e1e" text-anchor="start" style="white-space: pre;" direction="ltr" dominant-baseline="text-before-edge">    - Gas</text><text x="0" y="184" font-family="Helvetica, Segoe UI Emoji" font-size="20px" fill="#1e1e1e" text-anchor="start" style="white-space: pre;" direction="ltr" dominant-baseline="text-before-edge">    - Rechnungen</text></g><g stroke-linecap="round" transform="translate(302.840116879157 1176.9834087908434) rotate(0 503.00695269974335 360.01090604606117)"><path d="M0 0 C300.7 3.41, 600.75 3.61, 1006.01 0 M1006.01 0 C1003.74 227.75, 1004.86 454.17, 1006.01 720.02 M1006.01 720.02 C743.95 720.73, 480.91 721.86, 0 720.02 M0 720.02 C2.34 558.69, 2.37 395.66, 0 0" stroke="#bbb" stroke-width="2.5" fill="none" stroke-dasharray="1.5 8"></path></g><g stroke-linecap="round"><g transform="translate(72.76545548002105 1298.7915517284277) rotate(0 53.47876484697463 -0.2632457827993733)"><path d="M-0.87 0.04 C17.06 -0.1, 88.53 -0.09, 106.39 -0.34 M0.87 -0.99 C18.7 -0.95, 87.76 1.24, 105.15 1.3" stroke="#1e1e1e" stroke-width="2" fill="none"></path></g></g><mask></mask><g transform="translate(33.923751089620055 1477.0418221828468) rotate(0 48.91015625 9.200000000000003)"><text x="0" y="0" font-family="Helvetica, Segoe UI Emoji" font-size="16px" fill="#bbb" text-anchor="start" style="white-space: pre;" direction="ltr" dominant-baseline="text-before-edge">Admin Center</text></g><g stroke-linecap="round"><g transform="translate(27.91073380706439 1499.7937794681943) rotate(0 141.61061985371225 -0.523091875087232)"><path d="M0 0 C70.48 -0.64, 144.05 1.23, 283.22 -1.05" stroke="#bbb" stroke-width="4.5" fill="none" stroke-dasharray="1.5 10"></path></g></g><mask></mask><g transform="translate(57.766292305237585 1512.05862526441) rotate(0 91.1328125 115)"><text x="0" y="0" font-family="Helvetica, Segoe UI Emoji" font-size="20px" fill="#1e1e1e" text-anchor="start" style="white-space: pre;" direction="ltr" dominant-baseline="text-before-edge">General</text><text x="0" y="23" font-family="Helvetica, Segoe UI Emoji" font-size="20px" fill="#1e1e1e" text-anchor="start" style="white-space: pre;" direction="ltr" dominant-baseline="text-before-edge"></text><text x="0" y="46" font-family="Helvetica, Segoe UI Emoji" font-size="20px" fill="#1e1e1e" text-anchor="start" style="white-space: pre;" direction="ltr" dominant-baseline="text-before-edge"></text><text x="0" y="69" font-family="Helvetica, Segoe UI Emoji" font-size="20px" fill="#1e1e1e" text-anchor="start" style="white-space: pre;" direction="ltr" dominant-baseline="text-before-edge">- Stadtwerke</text><text x="0" y="92" font-family="Helvetica, Segoe UI Emoji" font-size="20px" fill="#1e1e1e" text-anchor="start" style="white-space: pre;" direction="ltr" dominant-baseline="text-before-edge">    - Tarife</text><text x="0" y="115" font-family="Helvetica, Segoe UI Emoji" font-size="20px" fill="#1e1e1e" text-anchor="start" style="white-space: pre;" direction="ltr" dominant-baseline="text-before-edge">        - Wasser</text><text x="0" y="138" font-family="Helvetica, Segoe UI Emoji" font-size="20px" fill="#1e1e1e" text-anchor="start" style="white-space: pre;" direction="ltr" dominant-baseline="text-before-edge">        - Strom</text><text x="0" y="161" font-family="Helvetica, Segoe UI Emoji" font-size="20px" fill="#1e1e1e" text-anchor="start" style="white-space: pre;" direction="ltr" dominant-baseline="text-before-edge">        - Wärmepumpe</text><text x="0" y="184" font-family="Helvetica, Segoe UI Emoji" font-size="20px" fill="#1e1e1e" text-anchor="start" style="white-space: pre;" direction="ltr" dominant-baseline="text-before-edge">        - Gas</text><text x="0" y="207" font-family="Helvetica, Segoe UI Emoji" font-size="20px" fill="#1e1e1e" text-anchor="start" style="white-space: pre;" direction="ltr" dominant-baseline="text-before-edge">    - Kunden</text></g><g stroke-linecap="round"><g transform="translate(31.996798863963704 1756.1759105650508) rotate(0 141.61061985371225 -0.523091875087232)"><path d="M0 0 C56.03 -1.72, 113.36 -0.86, 283.22 -1.05" stroke="#bbb" stroke-width="4.5" fill="none" stroke-dasharray="1.5 10"></path></g></g><mask></mask><g transform="translate(620.9401774941252 1216.5358171174614) rotate(0 43.5859375 16.099999999999994)"><text x="0" y="0" font-family="Helvetica, Segoe UI Emoji" font-size="28px" fill="#1e1e1e" text-anchor="start" style="white-space: pre;" direction="ltr" dominant-baseline="text-before-edge">Kosten</text></g><g transform="translate(618.9112797783819 1252.4957021852988) rotate(0 33.5205078125 11.5)"><text x="0" y="0" font-family="Helvetica, Segoe UI Emoji" font-size="20px" fill="#1e1e1e" text-anchor="start" style="white-space: pre;" direction="ltr" dominant-baseline="text-before-edge">Wasser</text></g><g transform="translate(633.6959387159604 1279.9049382233832) rotate(0 24.45703125 9.200000000000003)"><text x="0" y="0" font-family="Helvetica, Segoe UI Emoji" font-size="16px" fill="#1e1e1e" text-anchor="start" style="white-space: pre;" direction="ltr" dominant-baseline="text-before-edge">Monat:</text></g><g transform="translate(619.6278994222994 1306.864781816402) rotate(0 19.12109375 9.2)"><text x="0" y="0" font-family="Helvetica, Segoe UI Emoji" font-size="16px" fill="#1e1e1e" text-anchor="start" style="white-space: pre;" direction="ltr" dominant-baseline="text-before-edge">Total:</text></g><g stroke-linecap="round" transform="translate(619.5036074429354 1282.7710307504924) rotate(0 6.305883224605168 5.852693015770299)"><path d="M12.61 5.85 C12.61 6.19, 12.58 6.54, 12.52 6.87 C12.45 7.2, 12.36 7.54, 12.23 7.85 C12.11 8.17, 11.95 8.49, 11.77 8.78 C11.58 9.07, 11.37 9.36, 11.14 9.61 C10.9 9.87, 10.64 10.12, 10.36 10.34 C10.08 10.55, 9.77 10.75, 9.46 10.92 C9.14 11.09, 8.81 11.24, 8.46 11.35 C8.12 11.47, 7.76 11.56, 7.4 11.62 C7.04 11.68, 6.67 11.71, 6.31 11.71 C5.94 11.71, 5.57 11.68, 5.21 11.62 C4.85 11.56, 4.49 11.47, 4.15 11.35 C3.81 11.24, 3.47 11.09, 3.15 10.92 C2.84 10.75, 2.53 10.55, 2.25 10.34 C1.97 10.12, 1.71 9.87, 1.48 9.61 C1.24 9.36, 1.03 9.07, 0.84 8.78 C0.66 8.49, 0.51 8.17, 0.38 7.85 C0.26 7.54, 0.16 7.2, 0.1 6.87 C0.03 6.54, 0 6.19, 0 5.85 C0 5.51, 0.03 5.17, 0.1 4.84 C0.16 4.5, 0.26 4.17, 0.38 3.85 C0.51 3.53, 0.66 3.22, 0.84 2.93 C1.03 2.63, 1.24 2.35, 1.48 2.09 C1.71 1.83, 1.97 1.59, 2.25 1.37 C2.53 1.15, 2.84 0.95, 3.15 0.78 C3.47 0.61, 3.81 0.47, 4.15 0.35 C4.49 0.24, 4.85 0.15, 5.21 0.09 C5.57 0.03, 5.94 0, 6.31 0 C6.67 0, 7.04 0.03, 7.4 0.09 C7.76 0.15, 8.12 0.24, 8.46 0.35 C8.81 0.47, 9.14 0.61, 9.46 0.78 C9.77 0.95, 10.08 1.15, 10.36 1.37 C10.64 1.59, 10.9 1.83, 11.14 2.09 C11.37 2.35, 11.58 2.63, 11.77 2.93 C11.95 3.22, 12.11 3.53, 12.23 3.85 C12.36 4.17, 12.45 4.5, 12.52 4.84 C12.58 5.17, 12.6 5.68, 12.61 5.85 C12.63 6.02, 12.63 5.68, 12.61 5.85" stroke="#1e1e1e" stroke-width="1" fill="none"></path></g><g stroke-linecap="round"><g transform="translate(618.3128425653595 1279.8564702295819) rotate(0 7.56774421715636 8.67828834467798)"><path d="M0 0 C2.52 2.89, 12.61 14.46, 15.14 17.36 M0 0 C2.52 2.89, 12.61 14.46, 15.14 17.36" stroke="#1e1e1e" stroke-width="1" fill="none"></path></g></g><mask></mask><g transform="translate(697.454703851643 1279.1735290666875) rotate(0 17.796875 9.200000000000003)"><text x="0" y="0" font-family="Helvetica, Segoe UI Emoji" font-size="16px" fill="#1e1e1e" text-anchor="start" style="white-space: pre;" direction="ltr" dominant-baseline="text-before-edge">123€</text></g><g transform="translate(10 10) rotate(0 600.9913940429688 134.29949190355444)"><text x="0" y="0" font-family="Virgil, Segoe UI Emoji" font-size="214.87918704568716px" fill="#2f9e44" text-anchor="start" style="white-space: pre;" direction="ltr" dominant-baseline="text-before-edge">Stadtwerke</text></g><g stroke-linecap="round" transform="translate(349.73577313381975 1540.6603425953751) rotate(0 227.23437702796855 166.7911317378699)"><path d="M32 0 C171.76 0, 311.53 0, 422.47 0 M32 0 C154.62 0, 277.23 0, 422.47 0 M422.47 0 C443.8 0, 454.47 10.67, 454.47 32 M422.47 0 C443.8 0, 454.47 10.67, 454.47 32 M454.47 32 C454.47 93.19, 454.47 154.38, 454.47 301.58 M454.47 32 C454.47 88.55, 454.47 145.1, 454.47 301.58 M454.47 301.58 C454.47 322.92, 443.8 333.58, 422.47 333.58 M454.47 301.58 C454.47 322.92, 443.8 333.58, 422.47 333.58 M422.47 333.58 C288.77 333.58, 155.08 333.58, 32 333.58 M422.47 333.58 C279.47 333.58, 136.47 333.58, 32 333.58 M32 333.58 C10.67 333.58, 0 322.92, 0 301.58 M32 333.58 C10.67 333.58, 0 322.92, 0 301.58 M0 301.58 C0 199.69, 0 97.8, 0 32 M0 301.58 C0 233.14, 0 164.69, 0 32 M0 32 C0 10.67, 10.67 0, 32 0 M0 32 C0 10.67, 10.67 0, 32 0" stroke="#1e1e1e" stroke-width="2" fill="none"></path></g><g stroke-linecap="round"><g transform="translate(362.3786087176213 1852.6084301835044) rotate(0 -0.4078771048855572 -142.67995456874044)"><path d="M-1.03 -1.04 C-1.15 -17.99, 0.26 -54.44, 0.4 -101.91 C0.54 -149.39, -0.04 -255.28, -0.19 -285.88 M0.63 1.03 C0.28 -15.69, -0.16 -52.64, -0.36 -100.29 C-0.57 -147.93, -0.66 -254.14, -0.61 -284.84" stroke="#1e1e1e" stroke-width="2" fill="none"></path></g><g transform="translate(362.3786087176213 1852.6084301835044) rotate(0 -0.4078771048855572 -142.67995456874044)"><path d="M9.64 -256.65 C3.91 -267.26, 1.88 -277.86, -0.61 -284.84 M9.64 -256.65 C7.29 -263.28, 3.59 -270.5, -0.61 -284.84" stroke="#1e1e1e" stroke-width="2" fill="none"></path></g><g transform="translate(362.3786087176213 1852.6084301835044) rotate(0 -0.4078771048855572 -142.67995456874044)"><path d="M-10.88 -256.65 C-8.52 -267.08, -2.46 -277.68, -0.61 -284.84 M-10.88 -256.65 C-7.97 -263.26, -6.4 -270.48, -0.61 -284.84" stroke="#1e1e1e" stroke-width="2" fill="none"></path></g></g><mask></mask><g transform="translate(368.54963492236493 1858.012993840653) rotate(0 201.03018188476562 7.225933554662163)"><text x="0" y="0" font-family="Helvetica, Segoe UI Emoji" font-size="12.566840964629847px" fill="#1e1e1e" text-anchor="start" style="white-space: pre;" direction="ltr" dominant-baseline="text-before-edge">Jan    Feb    Mar    Apr    Mai    Jun    Jul    Aug    Sep    Okt    Nov    Dec</text></g><g stroke-linecap="round" transform="translate(369.2477674585971 1598.999402991293) rotate(0 12.493107686145166 125.86674965563097)"><path d="M6.25 0 C9.82 0.29, 14.33 0.38, 18.74 0 M6.25 0 C10.45 -0.47, 15.61 -0.53, 18.74 0 M18.74 0 C21.58 1.7, 23.53 0.34, 24.99 6.25 M18.74 0 C24.21 1.97, 23.71 3.97, 24.99 6.25 M24.99 6.25 C22.11 84, 23.39 166.22, 24.99 245.49 M24.99 6.25 C24.19 56.6, 25.06 104.94, 24.99 245.49 M24.99 245.49 C26.84 250.34, 23.75 250.35, 18.74 251.73 M24.99 245.49 C25.69 250.56, 20.94 249.85, 18.74 251.73 M18.74 251.73 C15.45 252.48, 10.06 252.47, 6.25 251.73 M18.74 251.73 C14.77 251.8, 11.66 251.79, 6.25 251.73 M6.25 251.73 C1.21 252.64, 1.56 248.47, 0 245.49 M6.25 251.73 C3.76 252.21, -0.43 247.99, 0 245.49 M0 245.49 C2.06 163.7, 1.68 81.64, 0 6.25 M0 245.49 C-1.1 151.89, 0.43 57.42, 0 6.25 M0 6.25 C0.8 0.14, 1.87 -0.67, 6.25 0 M0 6.25 C2.2 2.73, 2.73 -1.9, 6.25 0" stroke="#1e1e1e" stroke-width="2" fill="none"></path></g><g stroke-linecap="round"><g transform="translate(361.77474935977807 1854.8742787712467) rotate(0 213.60981354913235 -0.15334392608133385)"><path d="M0.35 -0.15 C71.51 0.01, 356.65 0.32, 427.65 0.42 M-0.93 -1.27 C70.06 -1.41, 355.31 -1.28, 426.93 -1.32" stroke="#1e1e1e" stroke-width="2" fill="none"></path></g><g transform="translate(361.77474935977807 1854.8742787712467) rotate(0 213.60981354913235 -0.15334392608133385)"><path d="M398.74 8.94 C408.55 5.94, 420.02 0.16, 426.93 -1.32 M398.74 8.94 C409.54 4.68, 418.5 2.55, 426.93 -1.32" stroke="#1e1e1e" stroke-width="2" fill="none"></path></g><g transform="translate(361.77474935977807 1854.8742787712467) rotate(0 213.60981354913235 -0.15334392608133385)"><path d="M398.74 -11.58 C408.46 -7.3, 419.93 -5.79, 426.93 -1.32 M398.74 -11.58 C409.44 -8.43, 418.4 -3.14, 426.93 -1.32" stroke="#1e1e1e" stroke-width="2" fill="none"></path></g></g><mask></mask><g stroke-linecap="round" transform="translate(400.9020300954089 1683.042385265394) rotate(0 12.49310768614518 83.87479348842055)"><path d="M6.25 0 C11.11 -0.93, 15.23 -0.65, 18.74 0 M6.25 0 C8.8 0.62, 11.73 -0.45, 18.74 0 M18.74 0 C24.04 1.72, 23.88 3.73, 24.99 6.25 M18.74 0 C23.63 -2.08, 22.75 0.59, 24.99 6.25 M24.99 6.25 C23.33 38.08, 25.85 70.06, 24.99 161.5 M24.99 6.25 C26.93 64.31, 26.42 121, 24.99 161.5 M24.99 161.5 C25.6 166.45, 21.19 166.12, 18.74 167.75 M24.99 161.5 C25.28 167.19, 21.24 168.89, 18.74 167.75 M18.74 167.75 C14.1 166.71, 9.37 167.27, 6.25 167.75 M18.74 167.75 C14.55 168.05, 11.4 167.4, 6.25 167.75 M6.25 167.75 C3.54 168.16, -0.37 164.22, 0 161.5 M6.25 167.75 C3.13 166.69, 0.75 167.24, 0 161.5 M0 161.5 C1.17 106.8, -1.06 49.63, 0 6.25 M0 161.5 C-1.13 102.96, -1.64 46.02, 0 6.25 M0 6.25 C1.91 2.65, 2.65 -1.66, 6.25 0 M0 6.25 C-2.29 0.29, 4.17 -1.88, 6.25 0" stroke="#1e1e1e" stroke-width="2" fill="none"></path></g><g stroke-linecap="round" transform="translate(434.7095735060193 1646.5717810636493) rotate(0 12.49310768614518 101.60758097675847)"><path d="M6.25 0 C11.21 -0.52, 13.86 0.8, 18.74 0 M6.25 0 C8.63 -0.65, 12.27 0.43, 18.74 0 M18.74 0 C21.79 1.64, 25.61 0.28, 24.99 6.25 M18.74 0 C20.67 -1.49, 22.87 2.36, 24.99 6.25 M24.99 6.25 C23.91 78.74, 24.67 154.1, 24.99 196.97 M24.99 6.25 C27.18 44.18, 27.06 83.89, 24.99 196.97 M24.99 196.97 C23.28 199.5, 23.16 204.54, 18.74 203.22 M24.99 196.97 C23.32 202.27, 24.44 201.62, 18.74 203.22 M18.74 203.22 C13.96 202.54, 9.75 203.72, 6.25 203.22 M18.74 203.22 C15.32 202.9, 11.39 203.4, 6.25 203.22 M6.25 203.22 C1.71 201.77, 0.91 200.21, 0 196.97 M6.25 203.22 C2.83 204.79, 1.26 202.18, 0 196.97 M0 196.97 C-2.14 120.21, -0.37 48.79, 0 6.25 M0 196.97 C-0.87 132.45, 0.19 68.88, 0 6.25 M0 6.25 C0.56 0.43, 0.09 -1.56, 6.25 0 M0 6.25 C2.08 0.2, 1.23 -0.11, 6.25 0" stroke="#1e1e1e" stroke-width="2" fill="none"></path></g><g stroke-linecap="round" transform="translate(471.213470417626 1720.7520654811785) rotate(0 12.49310768614518 65.34863265261652)"><path d="M6.25 0 C8.33 0.77, 11.06 -0.76, 18.74 0 M6.25 0 C11.41 0.65, 15.52 0.62, 18.74 0 M18.74 0 C23.53 -1.8, 23.04 0.79, 24.99 6.25 M18.74 0 C20.79 0.28, 26.92 -0.03, 24.99 6.25 M24.99 6.25 C26.82 40.23, 23.44 73.46, 24.99 124.45 M24.99 6.25 C25.79 46.16, 24.63 84.48, 24.99 124.45 M24.99 124.45 C25.24 129.94, 21.45 131.69, 18.74 130.7 M24.99 124.45 C26.52 127.02, 24.43 130.59, 18.74 130.7 M18.74 130.7 C16.28 131.25, 13.64 130.1, 6.25 130.7 M18.74 130.7 C14.88 130.75, 9.99 130.17, 6.25 130.7 M6.25 130.7 C3 129.78, 0.65 129.98, 0 124.45 M6.25 130.7 C3.34 131.75, 2.15 130.77, 0 124.45 M0 124.45 C1.63 88.63, 0.94 49.65, 0 6.25 M0 124.45 C1.08 100.77, 0.41 75.7, 0 6.25 M0 6.25 C-1.99 0.53, 3.89 -1.64, 6.25 0 M0 6.25 C-0.85 1.97, 4.18 -0.32, 6.25 0" stroke="#1e1e1e" stroke-width="2" fill="none"></path></g><g stroke-linecap="round" transform="translate(502.8677330544415 1588.7652450377645) rotate(0 12.49310768614518 131.37157784416357)"><path d="M6.25 0 C8.47 -0.9, 13.58 -0.98, 18.74 0 M6.25 0 C8.56 0.41, 11.76 -0.67, 18.74 0 M18.74 0 C20.96 -1.29, 23.15 2.32, 24.99 6.25 M18.74 0 C24.84 -2.12, 24.44 2.86, 24.99 6.25 M24.99 6.25 C24.86 73.01, 27.01 137.43, 24.99 256.5 M24.99 6.25 C24.91 63.37, 25.72 122.38, 24.99 256.5 M24.99 256.5 C23.54 261.65, 24.24 261.35, 18.74 262.74 M24.99 256.5 C26.51 260.56, 20.84 262.36, 18.74 262.74 M18.74 262.74 C15.71 262.26, 12.94 263.78, 6.25 262.74 M18.74 262.74 C15.61 262.32, 13.01 262.48, 6.25 262.74 M6.25 262.74 C2.73 264.11, 1.1 261.57, 0 256.5 M6.25 262.74 C4.24 264.9, 0.46 260.25, 0 256.5 M0 256.5 C-0.85 203.08, -3.04 148.18, 0 6.25 M0 256.5 C-1.72 189.08, -2.76 122.37, 0 6.25 M0 6.25 C1.81 0.45, 1.34 -0.09, 6.25 0 M0 6.25 C2.1 1.76, 1.61 2.17, 6.25 0" stroke="#1e1e1e" stroke-width="2" fill="none"></path></g><g stroke-linecap="round" transform="translate(536.542508358345 1661.8806314574867) rotate(0 12.49310768614518 94.24498596841406)"><path d="M6.25 0 C11.76 -0.83, 14.07 0.79, 18.74 0 M6.25 0 C11.26 -0.67, 15.28 -0.51, 18.74 0 M18.74 0 C21.07 0.24, 26.67 0.24, 24.99 6.25 M18.74 0 C22.36 0.78, 24.08 3.73, 24.99 6.25 M24.99 6.25 C23.96 71.39, 21.89 135.45, 24.99 182.24 M24.99 6.25 C23.61 66.63, 22.76 126.19, 24.99 182.24 M24.99 182.24 C26.32 185.02, 24.23 188.4, 18.74 188.49 M24.99 182.24 C22.92 186.03, 21.87 188.79, 18.74 188.49 M18.74 188.49 C14.95 189.41, 9.28 189.35, 6.25 188.49 M18.74 188.49 C15.02 188.11, 10.93 188.83, 6.25 188.49 M6.25 188.49 C3.18 189.4, 1.87 188.28, 0 182.24 M6.25 188.49 C2.54 188.08, -1.93 188.04, 0 182.24 M0 182.24 C-2.59 111.83, -1.31 43.75, 0 6.25 M0 182.24 C-1.49 123.7, 0.41 65.9, 0 6.25 M0 6.25 C-0.74 1.99, 3.91 -0.28, 6.25 0 M0 6.25 C-0.48 4.25, 4.01 0.53, 6.25 0" stroke="#1e1e1e" stroke-width="2" fill="none"></path></g><g stroke-linecap="round" transform="translate(572.3789815168475 1719.3030398451224) rotate(0 12.49310768614518 65.34863265261652)"><path d="M6.25 0 C8.08 0.8, 13.17 -0.6, 18.74 0 M6.25 0 C10.41 -0.29, 15.22 0.19, 18.74 0 M18.74 0 C24.59 -1.84, 24.52 2.76, 24.99 6.25 M18.74 0 C22 1.65, 26.49 -0.16, 24.99 6.25 M24.99 6.25 C24.01 53.31, 26.18 97.43, 24.99 124.45 M24.99 6.25 C24.41 32.54, 25.8 57.15, 24.99 124.45 M24.99 124.45 C26.31 128.53, 21.11 130.37, 18.74 130.7 M24.99 124.45 C23.95 128.92, 24.03 130.98, 18.74 130.7 M18.74 130.7 C14.8 131.71, 12.59 130.56, 6.25 130.7 M18.74 130.7 C16.1 131.07, 13.39 130.92, 6.25 130.7 M6.25 130.7 C3.96 132.57, 0.4 128.26, 0 124.45 M6.25 130.7 C0.15 132.33, 2.27 129.46, 0 124.45 M0 124.45 C0.48 86.15, 1.71 44.59, 0 6.25 M0 124.45 C2.08 97.96, 0.8 73.06, 0 6.25 M0 6.25 C1.82 1.8, 1.67 1.89, 6.25 0 M0 6.25 C1.93 2.61, 0.59 0.05, 6.25 0" stroke="#1e1e1e" stroke-width="2" fill="none"></path></g><g stroke-linecap="round" transform="translate(604.033244153663 1682.3097881131946) rotate(0 12.49310768614518 83.87479348842055)"><path d="M6.25 0 C10.15 -0.77, 12.94 0.32, 18.74 0 M6.25 0 C8.29 0.16, 12.01 -0.49, 18.74 0 M18.74 0 C22.43 0.68, 24.2 3.52, 24.99 6.25 M18.74 0 C24.41 -2.24, 27.12 2.87, 24.99 6.25 M24.99 6.25 C24.7 57.7, 22.28 112.82, 24.99 161.5 M24.99 6.25 C24.53 62.41, 24.52 119.92, 24.99 161.5 M24.99 161.5 C23.19 165.34, 22 168.01, 18.74 167.75 M24.99 161.5 C26.11 165.95, 21.9 168.79, 18.74 167.75 M18.74 167.75 C14.28 167.61, 8.39 168.41, 6.25 167.75 M18.74 167.75 C15.91 168.12, 12.98 168.42, 6.25 167.75 M6.25 167.75 C2.48 167.4, -1.68 167.08, 0 161.5 M6.25 167.75 C4.36 168.59, 0.92 163.43, 0 161.5 M0 161.5 C1.08 117.12, -1.14 69.61, 0 6.25 M0 161.5 C-1.78 126.97, -0.49 92.38, 0 6.25 M0 6.25 C-0.41 3.97, 3.76 0.46, 6.25 0 M0 6.25 C-1.49 2.13, 1.18 -1.91, 6.25 0" stroke="#1e1e1e" stroke-width="2" fill="none"></path></g><g stroke-linecap="round" transform="translate(637.575251350856 1805.9374042213124) rotate(0 12.493107686145152 21.689227290554555)"><path d="M6.25 0 C11.73 0.46, 14.04 -1.15, 18.74 0 M6.25 0 C9.71 -0.59, 11.98 0.2, 18.74 0 M18.74 0 C22.12 1.44, 26.29 0.13, 24.99 6.25 M18.74 0 C25.04 0.79, 25.96 0.49, 24.99 6.25 M24.99 6.25 C23.47 16.71, 26.43 25.22, 24.99 37.13 M24.99 6.25 C25.86 17, 24.3 27.67, 24.99 37.13 M24.99 37.13 C24.08 41.56, 23.88 43.63, 18.74 43.38 M24.99 37.13 C23.98 42.34, 24.7 42.02, 18.74 43.38 M18.74 43.38 C13.18 43.93, 8.84 43.76, 6.25 43.38 M18.74 43.38 C14.72 44.02, 9.66 43.32, 6.25 43.38 M6.25 43.38 C0.4 44.8, 1.98 42.03, 0 37.13 M6.25 43.38 C3.01 41.14, -0.24 40.53, 0 37.13 M0 37.13 C-1.74 22.93, -1.64 14.51, 0 6.25 M0 37.13 C1.03 30.25, -0.09 24.6, 0 6.25 M0 6.25 C1.67 2.54, 0.79 0.04, 6.25 0 M0 6.25 C-0.9 0.17, 2.21 -1.45, 6.25 0" stroke="#1e1e1e" stroke-width="2" fill="none"></path></g><g stroke-linecap="round" transform="translate(674.7464701756526 1719.8232358224682) rotate(0 12.493107686145152 65.34863265261652)"><path d="M6.25 0 C8.17 -1.26, 11.55 -1.19, 18.74 0 M6.25 0 C10 0.33, 13.8 0.56, 18.74 0 M18.74 0 C24.21 -1.95, 26.84 2.77, 24.99 6.25 M18.74 0 C23.88 -1.59, 25.69 2.99, 24.99 6.25 M24.99 6.25 C25.34 30.15, 25.01 58.29, 24.99 124.45 M24.99 6.25 C24.87 33.32, 25.32 60.86, 24.99 124.45 M24.99 124.45 C25.97 128.86, 22.03 131.6, 18.74 130.7 M24.99 124.45 C26.78 127.25, 24.58 131.17, 18.74 130.7 M18.74 130.7 C14.65 131.16, 12.56 131.44, 6.25 130.7 M18.74 130.7 C14.55 130.7, 9.58 131.26, 6.25 130.7 M6.25 130.7 C4.06 131.43, 0.8 126.67, 0 124.45 M6.25 130.7 C1.84 129.93, 2.2 129.26, 0 124.45 M0 124.45 C-0.58 87.46, -0.66 46.11, 0 6.25 M0 124.45 C-1.28 90.49, -0.24 54.86, 0 6.25 M0 6.25 C-1.29 2.12, 1.3 -1.66, 6.25 0 M0 6.25 C0.13 0.63, 1.04 0.97, 6.25 0" stroke="#1e1e1e" stroke-width="2" fill="none"></path></g><g stroke-linecap="round" transform="translate(706.5335009191731 1610.545796540038) rotate(0 12.493107686145152 119.95150902930806)"><path d="M6.25 0 C9.58 -1.03, 14.68 1.17, 18.74 0 M6.25 0 C8.6 0.41, 11.85 -0.65, 18.74 0 M18.74 0 C24.76 0.69, 25.83 0.7, 24.99 6.25 M18.74 0 C23.61 0.9, 23.02 0.2, 24.99 6.25 M24.99 6.25 C27.12 78.49, 25.08 149.57, 24.99 233.66 M24.99 6.25 C22.86 73.56, 23.66 140.76, 24.99 233.66 M24.99 233.66 C24.11 238.73, 24.46 238.72, 18.74 239.9 M24.99 233.66 C26.66 238.3, 22.48 238.24, 18.74 239.9 M18.74 239.9 C15.27 240.63, 10.67 241.11, 6.25 239.9 M18.74 239.9 C13.3 240.32, 9.52 240.11, 6.25 239.9 M6.25 239.9 C2.89 237.96, -0.21 237.16, 0 233.66 M6.25 239.9 C4.28 240.55, 0.65 235.92, 0 233.66 M0 233.66 C0.12 187.41, 1.43 143.98, 0 6.25 M0 233.66 C1.12 168.78, -0.15 103.54, 0 6.25 M0 6.25 C-0.78 0.42, 2.2 -1.26, 6.25 0 M0 6.25 C-1.04 3.05, 3.34 1.23, 6.25 0" stroke="#1e1e1e" stroke-width="2" fill="none"></path></g><g stroke-linecap="round" transform="translate(740.3410443297853 1665.683174328729) rotate(0 12.493107686145152 91.88030552242805)"><path d="M6.25 0 C8.93 1.17, 10.16 -0.18, 18.74 0 M6.25 0 C10.83 -0.7, 15.17 0.13, 18.74 0 M18.74 0 C23.75 -1.38, 25.6 2.87, 24.99 6.25 M18.74 0 C20.94 -1.88, 25.28 3.61, 24.99 6.25 M24.99 6.25 C24.44 46.53, 25.74 82.37, 24.99 177.51 M24.99 6.25 C24.7 54.91, 23.78 103.78, 24.99 177.51 M24.99 177.51 C26.55 180.49, 24.36 184.17, 18.74 183.76 M24.99 177.51 C24.56 180.02, 23.95 182.7, 18.74 183.76 M18.74 183.76 C15.15 185, 11.6 184.08, 6.25 183.76 M18.74 183.76 C15.83 184.08, 11.94 183.24, 6.25 183.76 M6.25 183.76 C1.87 183.09, 1.91 182.24, 0 177.51 M6.25 183.76 C2.73 181.86, -2.29 179.89, 0 177.51 M0 177.51 C1.31 112.45, 1.12 43.32, 0 6.25 M0 177.51 C-2.08 109.98, -1.82 41.58, 0 6.25 M0 6.25 C0.11 0.82, 1.18 0.84, 6.25 0 M0 6.25 C1.25 3.31, 0.6 -0.95, 6.25 0" stroke="#1e1e1e" stroke-width="2" fill="none"></path></g><g stroke-linecap="round" transform="translate(828.0483631328407 1540.3929949286987) rotate(0 227.23437702796855 166.7911317378699)"><path d="M32 0 C113.24 0, 194.47 0, 422.47 0 M32 0 C177.17 0, 322.33 0, 422.47 0 M422.47 0 C443.8 0, 454.47 10.67, 454.47 32 M422.47 0 C443.8 0, 454.47 10.67, 454.47 32 M454.47 32 C454.47 130.91, 454.47 229.81, 454.47 301.58 M454.47 32 C454.47 116.43, 454.47 200.86, 454.47 301.58 M454.47 301.58 C454.47 322.92, 443.8 333.58, 422.47 333.58 M454.47 301.58 C454.47 322.92, 443.8 333.58, 422.47 333.58 M422.47 333.58 C283.9 333.58, 145.34 333.58, 32 333.58 M422.47 333.58 C277.67 333.58, 132.87 333.58, 32 333.58 M32 333.58 C10.67 333.58, 0 322.92, 0 301.58 M32 333.58 C10.67 333.58, 0 322.92, 0 301.58 M0 301.58 C0 230.7, 0 159.81, 0 32 M0 301.58 C0 214.5, 0 127.42, 0 32 M0 32 C0 10.67, 10.67 0, 32 0 M0 32 C0 10.67, 10.67 0, 32 0" stroke="#1e1e1e" stroke-width="2" fill="none"></path></g><g stroke-linecap="round"><g transform="translate(840.6911987166404 1852.341082516828) rotate(0 -0.40787710488552875 -142.67995456874044)"><path d="M-0.28 0.41 C-0.52 -16.28, -0.47 -53.4, -0.43 -101.22 C-0.4 -149.04, -0.19 -255.91, -0.07 -286.53 M1.77 -0.42 C1.24 -17.34, -1.26 -55.33, -1.63 -102.89 C-1.99 -150.46, -0.27 -255.7, -0.43 -285.83" stroke="#1e1e1e" stroke-width="2" fill="none"></path></g><g transform="translate(840.6911987166404 1852.341082516828) rotate(0 -0.40787710488552875 -142.67995456874044)"><path d="M9.67 -257.58 C6.73 -269.24, 3.61 -278, -0.43 -285.83 M9.67 -257.58 C7.79 -263.95, 5.62 -268.59, -0.43 -285.83" stroke="#1e1e1e" stroke-width="2" fill="none"></path></g><g transform="translate(840.6911987166404 1852.341082516828) rotate(0 -0.40787710488552875 -142.67995456874044)"><path d="M-10.85 -257.7 C-5.91 -269.27, -1.15 -277.98, -0.43 -285.83 M-10.85 -257.7 C-8.58 -264.12, -6.58 -268.73, -0.43 -285.83" stroke="#1e1e1e" stroke-width="2" fill="none"></path></g></g><mask></mask><g transform="translate(846.8622249213859 1857.7456461739764) rotate(0 201.03018188476562 7.225933554662163)"><text x="0" y="0" font-family="Helvetica, Segoe UI Emoji" font-size="12.566840964629847px" fill="#1e1e1e" text-anchor="start" style="white-space: pre;" direction="ltr" dominant-baseline="text-before-edge">Jan    Feb    Mar    Apr    Mai    Jun    Jul    Aug    Sep    Okt    Nov    Dec</text></g><g stroke-linecap="round" transform="translate(847.560357457618 1598.7320553246166) rotate(0 12.493107686145152 125.86674965563097)"><path d="M6.25 0 C8.29 1.08, 13.19 0.45, 18.74 0 M6.25 0 C8.6 -0.56, 12.1 0.36, 18.74 0 M18.74 0 C21.45 0.99, 26.32 0.69, 24.99 6.25 M18.74 0 C24.43 -0.1, 22.92 1.7, 24.99 6.25 M24.99 6.25 C25.46 66.5, 26.01 129.51, 24.99 245.49 M24.99 6.25 C26.29 63.26, 26.82 121.09, 24.99 245.49 M24.99 245.49 C25.64 251.02, 24 252.65, 18.74 251.73 M24.99 245.49 C27.14 251.81, 23.36 251.33, 18.74 251.73 M18.74 251.73 C16.5 252.36, 12.13 251.73, 6.25 251.73 M18.74 251.73 C15.58 251.25, 11.45 251.28, 6.25 251.73 M6.25 251.73 C3.89 250.1, -0.74 249.56, 0 245.49 M6.25 251.73 C4.18 251.41, -0.48 251.82, 0 245.49 M0 245.49 C-0.43 153.04, -1.84 61.99, 0 6.25 M0 245.49 C1.36 189.26, 0.37 131.8, 0 6.25 M0 6.25 C-1.31 0.92, 0.37 -1.76, 6.25 0 M0 6.25 C-0.28 0.45, 0.68 -1.51, 6.25 0" stroke="#1e1e1e" stroke-width="2" fill="none"></path></g><g stroke-linecap="round"><g transform="translate(840.087339358799 1854.6069311045703) rotate(0 213.60981354913235 -0.15334392608133385)"><path d="M1.12 0.41 C72.27 0.42, 356.65 -1.09, 427.73 -1.14 M0.24 -0.42 C71.22 -0.18, 355.92 0.22, 427.05 -0.03" stroke="#1e1e1e" stroke-width="2" fill="none"></path></g><g transform="translate(840.087339358799 1854.6069311045703) rotate(0 213.60981354913235 -0.15334392608133385)"><path d="M398.86 10.25 C409.95 7.08, 418.18 3.09, 427.05 -0.03 M398.86 10.25 C408.64 7.65, 417.35 4, 427.05 -0.03" stroke="#1e1e1e" stroke-width="2" fill="none"></path></g><g transform="translate(840.087339358799 1854.6069311045703) rotate(0 213.60981354913235 -0.15334392608133385)"><path d="M398.85 -10.27 C409.74 -5.95, 417.97 -2.44, 427.05 -0.03 M398.85 -10.27 C408.46 -5.91, 417.17 -2.6, 427.05 -0.03" stroke="#1e1e1e" stroke-width="2" fill="none"></path></g></g><mask></mask><g stroke-linecap="round" transform="translate(879.214620094428 1682.7750375987175) rotate(0 12.493107686145152 83.87479348842055)"><path d="M6.25 0 C10.29 0.33, 16.56 -1.12, 18.74 0 M6.25 0 C8.52 0.23, 12.12 -0.52, 18.74 0 M18.74 0 C24.23 -0.09, 23.19 1.75, 24.99 6.25 M18.74 0 C21.87 0.3, 26.11 2.37, 24.99 6.25 M24.99 6.25 C24.51 47.52, 26.1 85.5, 24.99 161.5 M24.99 6.25 C26.02 42.29, 26.24 77.42, 24.99 161.5 M24.99 161.5 C26.86 167.54, 23.3 167.4, 18.74 167.75 M24.99 161.5 C23.06 167.3, 25.18 168.59, 18.74 167.75 M18.74 167.75 C14.07 168.93, 10.59 168.09, 6.25 167.75 M18.74 167.75 C16.59 167.14, 13.08 167.62, 6.25 167.75 M6.25 167.75 C3.91 167.47, -0.41 167.56, 0 161.5 M6.25 167.75 C4.01 168.28, -1.49 165.72, 0 161.5 M0 161.5 C0.03 120.09, 2.13 81.57, 0 6.25 M0 161.5 C0.34 106.06, 0.14 50.9, 0 6.25 M0 6.25 C-0.25 0.66, 0.86 -1.32, 6.25 0 M0 6.25 C-1.27 1.55, 2.04 -1.3, 6.25 0" stroke="#1e1e1e" stroke-width="2" fill="none"></path></g><g stroke-linecap="round" transform="translate(913.022163505042 1646.3044333969729) rotate(0 12.493107686145152 101.60758097675847)"><path d="M6.25 0 C11.02 -1.11, 13.78 0.12, 18.74 0 M6.25 0 C11.24 -0.5, 15.81 -0.09, 18.74 0 M18.74 0 C21.11 -0.33, 24.08 2.35, 24.99 6.25 M18.74 0 C24.03 0.29, 23.98 3.13, 24.99 6.25 M24.99 6.25 C24.27 77.96, 22.41 151.33, 24.99 196.97 M24.99 6.25 C26.16 55.13, 26.54 104.03, 24.99 196.97 M24.99 196.97 C25.38 200.78, 21.23 204.63, 18.74 203.22 M24.99 196.97 C27.26 201.97, 23.83 200.98, 18.74 203.22 M18.74 203.22 C15.47 203.69, 10.47 202.09, 6.25 203.22 M18.74 203.22 C15.73 203.08, 13.76 203.03, 6.25 203.22 M6.25 203.22 C1.67 205.1, 1.67 201.59, 0 196.97 M6.25 203.22 C0.59 203.26, -0.9 199.22, 0 196.97 M0 196.97 C2.05 139.75, 2.27 79.07, 0 6.25 M0 196.97 C0.39 146.78, 1.13 97.65, 0 6.25 M0 6.25 C-1.22 0.77, 0.98 -0.46, 6.25 0 M0 6.25 C-0.05 0.78, 2.7 -0.37, 6.25 0" stroke="#1e1e1e" stroke-width="2" fill="none"></path></g><g stroke-linecap="round" transform="translate(949.5260604166488 1720.4847178145021) rotate(0 12.493107686145152 65.34863265261652)"><path d="M6.25 0 C9.36 0.26, 15.33 -0.8, 18.74 0 M6.25 0 C11.03 0.06, 14.42 -0.02, 18.74 0 M18.74 0 C22 0.26, 25.97 2.33, 24.99 6.25 M18.74 0 C21.9 1.04, 26.78 0.72, 24.99 6.25 M24.99 6.25 C23.79 51.25, 24.31 95.07, 24.99 124.45 M24.99 6.25 C26.57 50.72, 25.83 93.15, 24.99 124.45 M24.99 124.45 C23.31 130.03, 24.88 131.43, 18.74 130.7 M24.99 124.45 C25.91 126.38, 22.66 129.93, 18.74 130.7 M18.74 130.7 C12.76 129.49, 7.88 131.86, 6.25 130.7 M18.74 130.7 C16.58 130.6, 13.16 131.28, 6.25 130.7 M6.25 130.7 C3.76 131.16, -1.29 128.66, 0 124.45 M6.25 130.7 C1.18 128.79, 0.13 127.16, 0 124.45 M0 124.45 C0.57 93.07, -1.33 62.94, 0 6.25 M0 124.45 C0.89 95.14, 0.4 66.6, 0 6.25 M0 6.25 C-1.1 1.62, 2.04 -1.13, 6.25 0 M0 6.25 C0.61 1.71, 0.21 0.98, 6.25 0" stroke="#1e1e1e" stroke-width="2" fill="none"></path></g><g stroke-linecap="round" transform="translate(981.1803230534624 1588.4978973710881) rotate(0 12.493107686145152 131.37157784416357)"><path d="M6.25 0 C9.75 -0.92, 12.22 0.82, 18.74 0 M6.25 0 C8.57 -0.1, 11.72 0.09, 18.74 0 M18.74 0 C23.88 0.25, 24.11 2.99, 24.99 6.25 M18.74 0 C24.7 -1.36, 26.66 2.56, 24.99 6.25 M24.99 6.25 C22.76 77.2, 24.63 147.98, 24.99 256.5 M24.99 6.25 C27.06 92.59, 26.21 179.79, 24.99 256.5 M24.99 256.5 C26.96 261.39, 23.71 260.8, 18.74 262.74 M24.99 256.5 C24.75 259.9, 25.1 263.39, 18.74 262.74 M18.74 262.74 C13.67 263.75, 9.52 262.16, 6.25 262.74 M18.74 262.74 C14.92 263.32, 11.88 262.87, 6.25 262.74 M6.25 262.74 C0.79 262.78, -0.78 259, 0 256.5 M6.25 262.74 C2.21 261.29, -1.04 261.63, 0 256.5 M0 256.5 C-1.77 166.71, -2.04 77.67, 0 6.25 M0 256.5 C-0.25 202.93, -0.2 150.25, 0 6.25 M0 6.25 C-0.04 0.95, 2.62 -0.32, 6.25 0 M0 6.25 C-1.87 3.07, 3.04 1.94, 6.25 0" stroke="#1e1e1e" stroke-width="2" fill="none"></path></g><g stroke-linecap="round" transform="translate(1014.8550983573678 1661.61328379081) rotate(0 12.493107686145152 94.24498596841406)"><path d="M6.25 0 C10.77 0.93, 13.19 0.92, 18.74 0 M6.25 0 C9.66 0.1, 13.94 0.1, 18.74 0 M18.74 0 C22.03 0.91, 26.55 0.9, 24.99 6.25 M18.74 0 C24.58 0.48, 24.56 0.42, 24.99 6.25 M24.99 6.25 C25.54 68.18, 25.09 129.8, 24.99 182.24 M24.99 6.25 C24.5 76.24, 26.32 145.19, 24.99 182.24 M24.99 182.24 C25.79 184.46, 22.69 187.82, 18.74 188.49 M24.99 182.24 C27.18 187.06, 23.55 186.59, 18.74 188.49 M18.74 188.49 C15.21 188.14, 13.67 189.74, 6.25 188.49 M18.74 188.49 C15.69 188.75, 11.19 188.62, 6.25 188.49 M6.25 188.49 C1.3 186.83, 0.11 185.15, 0 182.24 M6.25 188.49 C1.04 189.46, 1.25 187.63, 0 182.24 M0 182.24 C-0.43 139.04, -1.03 99.01, 0 6.25 M0 182.24 C0.53 141.71, 1.06 101.06, 0 6.25 M0 6.25 C0.53 1.76, 0.45 0.86, 6.25 0 M0 6.25 C0.96 4.02, 3.62 0.52, 6.25 0" stroke="#1e1e1e" stroke-width="2" fill="none"></path></g><g stroke-linecap="round" transform="translate(1050.6915715158702 1719.035692178446) rotate(0 12.493107686145152 65.34863265261652)"><path d="M6.25 0 C8.22 0.74, 11.87 -1.2, 18.74 0 M6.25 0 C10.09 0.06, 13.06 0.27, 18.74 0 M18.74 0 C24.46 -1.18, 26.45 2.5, 24.99 6.25 M18.74 0 C22.48 -1.66, 26.04 1.02, 24.99 6.25 M24.99 6.25 C26.71 47.43, 27.67 85.26, 24.99 124.45 M24.99 6.25 C24.98 39.98, 24.4 72.01, 24.99 124.45 M24.99 124.45 C24.78 127.95, 24.81 131.26, 18.74 130.7 M24.99 124.45 C25.64 126.71, 20.62 128.91, 18.74 130.7 M18.74 130.7 C13.8 131.79, 8.81 130.39, 6.25 130.7 M18.74 130.7 C13.41 130.74, 8.64 130.21, 6.25 130.7 M6.25 130.7 C2.2 129.43, -0.91 129.46, 0 124.45 M6.25 130.7 C3.34 131.92, -1.48 127.66, 0 124.45 M0 124.45 C-1.08 96.49, -0.73 67.8, 0 6.25 M0 124.45 C0.63 96.2, 0.92 68.92, 0 6.25 M0 6.25 C-1.63 2.94, 2.92 1.69, 6.25 0 M0 6.25 C1.54 2.6, 4.12 -1.19, 6.25 0" stroke="#1e1e1e" stroke-width="2" fill="none"></path></g><g stroke-linecap="round" transform="translate(1082.345834152684 1682.0424404465182) rotate(0 12.493107686145152 83.87479348842055)"><path d="M6.25 0 C10.77 -1.2, 15.21 -0.65, 18.74 0 M6.25 0 C9.89 0.27, 14.56 -0.39, 18.74 0 M18.74 0 C24.36 0.41, 24.61 0.64, 24.99 6.25 M18.74 0 C23.95 -1.06, 25.73 3.65, 24.99 6.25 M24.99 6.25 C27.57 61.74, 25.34 114.76, 24.99 161.5 M24.99 6.25 C26.92 62.85, 26.42 121.06, 24.99 161.5 M24.99 161.5 C26.9 166.23, 23.47 166.09, 18.74 167.75 M24.99 161.5 C22.7 163.88, 24.99 165.87, 18.74 167.75 M18.74 167.75 C15.28 167.6, 13.35 168.91, 6.25 167.75 M18.74 167.75 C14.46 167.23, 10.7 167.36, 6.25 167.75 M6.25 167.75 C1.18 168.59, 1.09 166.73, 0 161.5 M6.25 167.75 C0.6 166.8, -1.51 164.33, 0 161.5 M0 161.5 C-0.05 127.03, 0.05 93.9, 0 6.25 M0 161.5 C0.3 118.35, -0.78 75.94, 0 6.25 M0 6.25 C0.84 3.77, 3.42 0.45, 6.25 0 M0 6.25 C2.04 0.89, 3.19 1.33, 6.25 0" stroke="#1e1e1e" stroke-width="2" fill="none"></path></g><g stroke-linecap="round" transform="translate(1115.887841349877 1805.670056554636) rotate(0 12.493107686145152 21.689227290554555)"><path d="M6.25 0 C10.62 -0.45, 15.56 0.72, 18.74 0 M6.25 0 C10.64 -0.43, 14.51 0.07, 18.74 0 M18.74 0 C22.53 -1.45, 25.9 1.16, 24.99 6.25 M18.74 0 C23.65 1.57, 26.25 3.13, 24.99 6.25 M24.99 6.25 C24.92 16.73, 26.69 32.54, 24.99 37.13 M24.99 6.25 C25.01 16.31, 26.07 27.32, 24.99 37.13 M24.99 37.13 C25.55 39.64, 20.92 41.82, 18.74 43.38 M24.99 37.13 C27.07 39.42, 22.05 43.27, 18.74 43.38 M18.74 43.38 C15.03 44.4, 9.25 42.54, 6.25 43.38 M18.74 43.38 C15 42.88, 10.91 43.54, 6.25 43.38 M6.25 43.38 C3.17 44.45, -1.29 40.47, 0 37.13 M6.25 43.38 C0.58 42.04, -1.97 39.27, 0 37.13 M0 37.13 C-1.1 27.15, -0.24 19.32, 0 6.25 M0 37.13 C-0.9 30.05, 0.34 22.95, 0 6.25 M0 6.25 C1.34 2.53, 3.85 -1.04, 6.25 0 M0 6.25 C1.11 3.41, 3.33 1.87, 6.25 0" stroke="#1e1e1e" stroke-width="2" fill="none"></path></g><g stroke-linecap="round" transform="translate(1153.0590601746753 1719.5558881557918) rotate(0 12.493107686145208 65.34863265261652)"><path d="M6.25 0 C9.04 0.67, 11.66 -0.49, 18.74 0 M6.25 0 C11.02 0.2, 14.76 -0.38, 18.74 0 M18.74 0 C23.82 -0.92, 25.64 3.45, 24.99 6.25 M18.74 0 C24.17 1.05, 27.14 4.24, 24.99 6.25 M24.99 6.25 C26.19 46.03, 25.51 82.66, 24.99 124.45 M24.99 6.25 C25.82 30.49, 25.14 53.34, 24.99 124.45 M24.99 124.45 C23 127.06, 24.72 129.06, 18.74 130.7 M24.99 124.45 C24.13 128.51, 25 130.38, 18.74 130.7 M18.74 130.7 C15.54 129.99, 11.79 130.31, 6.25 130.7 M18.74 130.7 C15.74 130.88, 13.66 130.95, 6.25 130.7 M6.25 130.7 C0.8 129.87, -1.31 127.45, 0 124.45 M6.25 130.7 C0.11 128.67, -0.28 126.98, 0 124.45 M0 124.45 C0.32 96.17, -0.36 68.51, 0 6.25 M0 124.45 C1.38 91.73, 1.63 57.54, 0 6.25 M0 6.25 C1.77 1.04, 3.04 1.16, 6.25 0 M0 6.25 C1.25 3.95, 2.23 0.24, 6.25 0" stroke="#1e1e1e" stroke-width="2" fill="none"></path></g><g stroke-linecap="round" transform="translate(1184.846090918194 1610.2784488733616) rotate(0 12.493107686145208 119.95150902930806)"><path d="M6.25 0 C9.59 -0.61, 13.18 0.91, 18.74 0 M6.25 0 C9.14 -0.48, 12.55 -0.31, 18.74 0 M18.74 0 C23.55 1.37, 26.08 2.99, 24.99 6.25 M18.74 0 C25.06 2.15, 25.44 1.68, 24.99 6.25 M24.99 6.25 C26.99 56.07, 24.7 104.34, 24.99 233.66 M24.99 6.25 C27.08 66.19, 25.99 126.89, 24.99 233.66 M24.99 233.66 C26.8 236.19, 22.16 239.81, 18.74 239.9 M24.99 233.66 C27.08 237.5, 22.43 242.07, 18.74 239.9 M18.74 239.9 C13.97 239.33, 8.12 239.89, 6.25 239.9 M18.74 239.9 C16.12 240.29, 12.42 239.7, 6.25 239.9 M6.25 239.9 C0.77 238.74, -1.72 236.06, 0 233.66 M6.25 239.9 C1.8 238.27, -1.41 236.31, 0 233.66 M0 233.66 C-0.52 178.4, 0.17 120.84, 0 6.25 M0 233.66 C-0.24 155.9, -0.06 77.32, 0 6.25 M0 6.25 C0.96 3.24, 3.17 1.63, 6.25 0 M0 6.25 C0.15 2.32, 0.14 -1.7, 6.25 0" stroke="#1e1e1e" stroke-width="2" fill="none"></path></g><g stroke-linecap="round" transform="translate(1218.6536343288044 1665.4158266620525) rotate(0 12.493107686145208 91.88030552242805)"><path d="M6.25 0 C11.17 1.03, 14.23 0.97, 18.74 0 M6.25 0 C10.54 -0.2, 14.46 0.52, 18.74 0 M18.74 0 C24 0.91, 26.86 3.96, 24.99 6.25 M18.74 0 C23.36 -0.41, 23.06 3.71, 24.99 6.25 M24.99 6.25 C23.67 74.35, 24.95 144.79, 24.99 177.51 M24.99 6.25 C24.48 61.68, 26.38 117.85, 24.99 177.51 M24.99 177.51 C24.25 181.58, 24.73 183.48, 18.74 183.76 M24.99 177.51 C24.51 183.85, 24.83 184.29, 18.74 183.76 M18.74 183.76 C14.76 183.78, 12.07 183.15, 6.25 183.76 M18.74 183.76 C14.06 183.57, 9.78 183.46, 6.25 183.76 M6.25 183.76 C0.37 182, -0.25 180.26, 0 177.51 M6.25 183.76 C0.68 182.25, -1.27 181.15, 0 177.51 M0 177.51 C0.65 124.85, 1.83 76.28, 0 6.25 M0 177.51 C-0.26 111.17, -0.66 46.45, 0 6.25 M0 6.25 C1.09 3.71, 2.21 0.21, 6.25 0 M0 6.25 C-1.95 0.39, 0.37 -1.66, 6.25 0" stroke="#1e1e1e" stroke-width="2" fill="none"></path></g><g stroke-linecap="round" transform="translate(831.2346441893005 1185.801525121915) rotate(0 227.23437702796855 166.7911317378699)"><path d="M32 0 C132.13 0, 232.25 0, 422.47 0 M32 0 C120.92 0, 209.85 0, 422.47 0 M422.47 0 C443.8 0, 454.47 10.67, 454.47 32 M422.47 0 C443.8 0, 454.47 10.67, 454.47 32 M454.47 32 C454.47 123.72, 454.47 215.43, 454.47 301.58 M454.47 32 C454.47 90.55, 454.47 149.09, 454.47 301.58 M454.47 301.58 C454.47 322.92, 443.8 333.58, 422.47 333.58 M454.47 301.58 C454.47 322.92, 443.8 333.58, 422.47 333.58 M422.47 333.58 C320.59 333.58, 218.7 333.58, 32 333.58 M422.47 333.58 C284.5 333.58, 146.53 333.58, 32 333.58 M32 333.58 C10.67 333.58, 0 322.92, 0 301.58 M32 333.58 C10.67 333.58, 0 322.92, 0 301.58 M0 301.58 C0 213.52, 0 125.46, 0 32 M0 301.58 C0 214.67, 0 127.75, 0 32 M0 32 C0 10.67, 10.67 0, 32 0 M0 32 C0 10.67, 10.67 0, 32 0" stroke="#1e1e1e" stroke-width="2" fill="none"></path></g><g stroke-linecap="round"><g transform="translate(845.0366393252007 1493.7712567860003) rotate(0 -0.978032966135288 -136.64243170968678)"><path d="M0.88 0.25 C0.45 -16.13, -1.26 -53.29, -1.64 -98.97 C-2.02 -144.65, -1.42 -244.92, -1.41 -273.84 M-0.12 -0.67 C-0.81 -16.85, -2.41 -52.53, -2.71 -97.89 C-3 -143.25, -2.15 -243.36, -1.89 -272.81" stroke="#1e1e1e" stroke-width="2" fill="none"></path></g><g transform="translate(845.0366393252007 1493.7712567860003) rotate(0 -0.978032966135288 -136.64243170968678)"><path d="M8.14 -244.54 C4.93 -255.52, -0.72 -264.92, -1.89 -272.81 M8.14 -244.54 C6.05 -251.19, 3.89 -257.89, -1.89 -272.81" stroke="#1e1e1e" stroke-width="2" fill="none"></path></g><g transform="translate(845.0366393252007 1493.7712567860003) rotate(0 -0.978032966135288 -136.64243170968678)"><path d="M-12.38 -244.71 C-7.83 -255.78, -5.73 -265.11, -1.89 -272.81 M-12.38 -244.71 C-9.26 -251.46, -6.21 -258.11, -1.89 -272.81" stroke="#1e1e1e" stroke-width="2" fill="none"></path></g></g><mask></mask><g transform="translate(850.0485059778457 1503.1541763671926) rotate(0 201.03018188476562 7.225933554662163)"><text x="0" y="0" font-family="Helvetica, Segoe UI Emoji" font-size="12.566840964629847px" fill="#1e1e1e" text-anchor="start" style="white-space: pre;" direction="ltr" dominant-baseline="text-before-edge">Jan    Feb    Mar    Apr    Mai    Jun    Jul    Aug    Sep    Okt    Nov    Dec</text></g><g stroke-linecap="round" transform="translate(857.0562374641613 1241.119984434304) rotate(0 12.493107686145152 125.86674965563097)"><path d="M6.25 0 C9.19 0.35, 14.13 0.63, 18.74 0 M6.25 0 C10.69 -0.23, 14.36 0.33, 18.74 0 M18.74 0 C24.88 0.73, 25.79 0.14, 24.99 6.25 M18.74 0 C22.66 -0.77, 27.18 2.73, 24.99 6.25 M24.99 6.25 C22.03 86.28, 21.97 162.68, 24.99 245.49 M24.99 6.25 C26.63 77.69, 27.5 147.74, 24.99 245.49 M24.99 245.49 C23.69 249.69, 22.12 250.07, 18.74 251.73 M24.99 245.49 C25.12 248.2, 21.86 252.7, 18.74 251.73 M18.74 251.73 C13.79 250.83, 9.16 250.58, 6.25 251.73 M18.74 251.73 C15.71 251.23, 13.1 251.5, 6.25 251.73 M6.25 251.73 C2.04 250.6, 0.53 249.33, 0 245.49 M6.25 251.73 C0.21 252.72, 0.96 251.59, 0 245.49 M0 245.49 C-1.31 158.52, 0.52 70.86, 0 6.25 M0 245.49 C-0.84 153.62, -0.75 62.39, 0 6.25 M0 6.25 C0.74 1.29, 0.64 -1.13, 6.25 0 M0 6.25 C1.7 2.04, 1.49 -0.53, 6.25 0" stroke="#1e1e1e" stroke-width="2" fill="none"></path></g><g stroke-linecap="round"><g transform="translate(858.5379697498847 1496.9766638221881) rotate(0 205.97763888181942 1.366054811717845)"><path d="M0.39 0.82 C69.07 1.46, 343.83 2.77, 412.61 3.28 M-0.86 0.2 C67.67 0.53, 343.05 1.13, 412.01 1.44" stroke="#1e1e1e" stroke-width="2" fill="none"></path></g><g transform="translate(858.5379697498847 1496.9766638221881) rotate(0 205.97763888181942 1.366054811717845)"><path d="M383.79 11.61 C394.96 9.1, 404.26 6.36, 412.01 1.44 M383.79 11.61 C394.04 8.37, 406.98 4.02, 412.01 1.44" stroke="#1e1e1e" stroke-width="2" fill="none"></path></g><g transform="translate(858.5379697498847 1496.9766638221881) rotate(0 205.97763888181942 1.366054811717845)"><path d="M383.85 -8.91 C394.91 -4.32, 404.19 0.03, 412.01 1.44 M383.85 -8.91 C394.12 -4.07, 407.03 -0.34, 412.01 1.44" stroke="#1e1e1e" stroke-width="2" fill="none"></path></g></g><mask></mask><g stroke-linecap="round" transform="translate(882.4009011508879 1328.1835677919337) rotate(0 12.493107686145152 83.87479348842054)"><path d="M6.25 0 C10.97 1.1, 15.73 0.18, 18.74 0 M6.25 0 C10.39 0.14, 13.55 -0.7, 18.74 0 M18.74 0 C22.69 -0.67, 26.9 2.65, 24.99 6.25 M18.74 0 C23.55 -1.9, 22.7 0.29, 24.99 6.25 M24.99 6.25 C23.62 68.71, 23.44 127.11, 24.99 161.5 M24.99 6.25 C25.64 67.5, 25.89 127.89, 24.99 161.5 M24.99 161.5 C25.1 164.41, 22 168.59, 18.74 167.75 M24.99 161.5 C26.24 166.89, 21.43 166.8, 18.74 167.75 M18.74 167.75 C14.71 167.49, 11.99 166.88, 6.25 167.75 M18.74 167.75 C15.8 167.37, 13.05 167.62, 6.25 167.75 M6.25 167.75 C0.45 168.6, 0.84 167.35, 0 161.5 M6.25 167.75 C3.62 168.26, 2.04 164.47, 0 161.5 M0 161.5 C0.73 107.6, -0.69 51.74, 0 6.25 M0 161.5 C1.53 125.98, 0.43 90.68, 0 6.25 M0 6.25 C1.48 2.05, 1.57 -0.46, 6.25 0 M0 6.25 C1.6 4.14, 1.3 0.76, 6.25 0" stroke="#1e1e1e" stroke-width="2" fill="none"></path></g><g stroke-linecap="round" transform="translate(916.2084445615019 1291.712963590189) rotate(0 12.493107686145152 101.60758097675848)"><path d="M6.25 0 C11.85 0.13, 14.89 -1.17, 18.74 0 M6.25 0 C11.13 -0.65, 15.45 -0.25, 18.74 0 M18.74 0 C24.81 0.56, 25.55 0.43, 24.99 6.25 M18.74 0 C20.62 -1.79, 27.07 0.2, 24.99 6.25 M24.99 6.25 C24.62 55.98, 26.79 108.22, 24.99 196.97 M24.99 6.25 C23.36 67.03, 23.81 128.83, 24.99 196.97 M24.99 196.97 C24.08 201.98, 23.99 204.28, 18.74 203.22 M24.99 196.97 C23.51 200.18, 21.4 201.88, 18.74 203.22 M18.74 203.22 C15.18 202.44, 12.57 202.51, 6.25 203.22 M18.74 203.22 C15.45 203.04, 11.31 203.41, 6.25 203.22 M6.25 203.22 C2.92 204.9, 1.34 201.58, 0 196.97 M6.25 203.22 C4.12 202.02, 1.11 202.46, 0 196.97 M0 196.97 C-1.34 127.7, -3.03 60.32, 0 6.25 M0 196.97 C-1.43 152.93, 0.03 110.01, 0 6.25 M0 6.25 C-0.51 1.62, 3.48 1.79, 6.25 0 M0 6.25 C-0.78 2.84, 1.08 0.44, 6.25 0" stroke="#1e1e1e" stroke-width="2" fill="none"></path></g><g stroke-linecap="round" transform="translate(952.7123414731086 1365.8932480077183) rotate(0 12.493107686145152 65.34863265261652)"><path d="M6.25 0 C10.94 -1.07, 16.97 1.21, 18.74 0 M6.25 0 C10.39 -0.09, 15.25 0.3, 18.74 0 M18.74 0 C23.47 -1.66, 23 0.53, 24.99 6.25 M18.74 0 C24.99 -1.88, 24.13 1.97, 24.99 6.25 M24.99 6.25 C26.71 54.16, 25.28 97.43, 24.99 124.45 M24.99 6.25 C24.58 41.32, 24.07 78.08, 24.99 124.45 M24.99 124.45 C26.08 129.68, 21.62 129.87, 18.74 130.7 M24.99 124.45 C23.48 127.28, 20.93 128.67, 18.74 130.7 M18.74 130.7 C14.32 129.93, 11.26 130.6, 6.25 130.7 M18.74 130.7 C15.19 130.94, 12.92 131.2, 6.25 130.7 M6.25 130.7 C3.42 131.15, 1.77 127.58, 0 124.45 M6.25 130.7 C3.19 132.03, 1.25 130.49, 0 124.45 M0 124.45 C-1.6 86.73, -1.57 52.73, 0 6.25 M0 124.45 C1.6 93.63, 0.6 62.61, 0 6.25 M0 6.25 C1.39 3.87, 1.41 0.66, 6.25 0 M0 6.25 C-1 2.53, 3.06 -2.23, 6.25 0" stroke="#1e1e1e" stroke-width="2" fill="none"></path></g><g stroke-linecap="round" transform="translate(984.3666041099223 1233.9064275643043) rotate(0 12.493107686145152 131.37157784416357)"><path d="M6.25 0 C11.13 1.34, 14.69 0.61, 18.74 0 M6.25 0 C9.38 0.22, 11.49 -0.48, 18.74 0 M18.74 0 C20.92 -1.56, 26.8 0.45, 24.99 6.25 M18.74 0 C22.05 -0.11, 27.08 1.76, 24.99 6.25 M24.99 6.25 C27.29 75.07, 26.95 145.38, 24.99 256.5 M24.99 6.25 C24.73 60.9, 25.55 115.31, 24.99 256.5 M24.99 256.5 C23.7 259.83, 21.59 261.58, 18.74 262.74 M24.99 256.5 C23.01 258.63, 22.62 261.11, 18.74 262.74 M18.74 262.74 C15.47 262.65, 12.06 263.01, 6.25 262.74 M18.74 262.74 C15.45 263.32, 12.06 262.94, 6.25 262.74 M6.25 262.74 C3.85 261.71, 0.96 261.82, 0 256.5 M6.25 262.74 C3.33 264.62, 0.15 260.9, 0 256.5 M0 256.5 C0.33 203.2, 0.86 147.51, 0 6.25 M0 256.5 C-1.72 195.35, -0.94 135.3, 0 6.25 M0 6.25 C-0.68 2.74, 1.21 0.39, 6.25 0 M0 6.25 C0.98 -0.15, 3.38 0.23, 6.25 0" stroke="#1e1e1e" stroke-width="2" fill="none"></path></g><g stroke-linecap="round" transform="translate(1018.0413794138276 1307.0218139840263) rotate(0 12.493107686145152 94.24498596841406)"><path d="M6.25 0 C9.4 0.38, 10.43 -0.25, 18.74 0 M6.25 0 C9.75 -0.55, 12.29 -0.52, 18.74 0 M18.74 0 C24.72 -1.64, 24.25 1.99, 24.99 6.25 M18.74 0 C25 -0.32, 24.51 4.25, 24.99 6.25 M24.99 6.25 C25.43 72.99, 23.73 141.42, 24.99 182.24 M24.99 6.25 C24.73 48.47, 23.55 89.21, 24.99 182.24 M24.99 182.24 C23.68 185.25, 21.19 186.73, 18.74 188.49 M24.99 182.24 C24.7 184.78, 21.5 186.98, 18.74 188.49 M18.74 188.49 C14.97 188.82, 12.42 187.47, 6.25 188.49 M18.74 188.49 C14.87 188.74, 10.73 188.27, 6.25 188.49 M6.25 188.49 C3.04 189.65, 1.09 188.04, 0 182.24 M6.25 188.49 C2.23 188.73, -1.95 184.71, 0 182.24 M0 182.24 C0.48 141.1, 0.14 104.32, 0 6.25 M0 182.24 C1.15 130.62, 0.11 77.55, 0 6.25 M0 6.25 C-0.87 2.47, 2.94 -1.94, 6.25 0 M0 6.25 C1.3 2.31, 3.98 1.48, 6.25 0" stroke="#1e1e1e" stroke-width="2" fill="none"></path></g><g stroke-linecap="round" transform="translate(1053.87785257233 1364.4442223716621) rotate(0 12.493107686145152 65.34863265261652)"><path d="M6.25 0 C10.01 -0.18, 15.8 1.14, 18.74 0 M6.25 0 C9.73 -0.38, 15.01 -0.41, 18.74 0 M18.74 0 C22.16 -0.09, 26.81 1.8, 24.99 6.25 M18.74 0 C22.43 2.17, 26.91 2.61, 24.99 6.25 M24.99 6.25 C23.35 34.17, 23.75 60.96, 24.99 124.45 M24.99 6.25 C24.99 46.28, 24.98 86.57, 24.99 124.45 M24.99 124.45 C23.27 126.85, 22.66 129.28, 18.74 130.7 M24.99 124.45 C23.58 127.1, 21.64 130.17, 18.74 130.7 M18.74 130.7 C14.82 129.71, 11.83 131.25, 6.25 130.7 M18.74 130.7 C14.49 130.4, 9.44 131.09, 6.25 130.7 M6.25 130.7 C3.17 132.33, 0.13 128.82, 0 124.45 M6.25 130.7 C0.14 129, -1.71 126.96, 0 124.45 M0 124.45 C-0.66 86.08, 0.43 44.23, 0 6.25 M0 124.45 C-1.16 92.06, -1.26 59.2, 0 6.25 M0 6.25 C0.85 0.14, 3.21 0.2, 6.25 0 M0 6.25 C1.9 3.57, 1.62 0.43, 6.25 0" stroke="#1e1e1e" stroke-width="2" fill="none"></path></g><g stroke-linecap="round" transform="translate(1085.5321152091437 1327.4509706397344) rotate(0 12.493107686145152 83.87479348842054)"><path d="M6.25 0 C10.08 1.21, 15.1 0.37, 18.74 0 M6.25 0 C9.53 -0.41, 11.44 0.07, 18.74 0 M18.74 0 C24.73 -0.28, 24.57 3.97, 24.99 6.25 M18.74 0 C24.83 0.53, 23.5 2.13, 24.99 6.25 M24.99 6.25 C22.44 45.85, 24.54 88.36, 24.99 161.5 M24.99 6.25 C23.33 60.53, 23.13 115.08, 24.99 161.5 M24.99 161.5 C24.74 164.25, 21.68 166.43, 18.74 167.75 M24.99 161.5 C23.72 165.14, 22.86 166.44, 18.74 167.75 M18.74 167.75 C15.19 168.17, 11.63 168.48, 6.25 167.75 M18.74 167.75 C15.01 168.05, 11.02 168.19, 6.25 167.75 M6.25 167.75 C2.21 167.96, -1.69 164.19, 0 161.5 M6.25 167.75 C0.37 166.09, 0.85 164.76, 0 161.5 M0 161.5 C0.84 125.64, 0.41 92.2, 0 6.25 M0 161.5 C0.09 101.25, 0.95 39.64, 0 6.25 M0 6.25 C1.13 2.28, 3.73 1.29, 6.25 0 M0 6.25 C-0.46 2.52, 2.17 -0.45, 6.25 0" stroke="#1e1e1e" stroke-width="2" fill="none"></path></g><g stroke-linecap="round" transform="translate(1119.0741224063368 1451.0785867478521) rotate(0 12.493107686145152 21.689227290554562)"><path d="M6.25 0 C10.22 0.23, 12.45 -1.36, 18.74 0 M6.25 0 C8.79 0.07, 12.37 0.02, 18.74 0 M18.74 0 C22.49 1.89, 26.66 2.54, 24.99 6.25 M18.74 0 C21.42 0.05, 24.09 0.17, 24.99 6.25 M24.99 6.25 C25.64 16.78, 25.86 23.85, 24.99 37.13 M24.99 6.25 C23.93 13.35, 24.66 21.51, 24.99 37.13 M24.99 37.13 C23.76 39.98, 21.8 42.92, 18.74 43.38 M24.99 37.13 C24.94 39.99, 23.52 43.01, 18.74 43.38 M18.74 43.38 C17.06 44.27, 13.56 44.54, 6.25 43.38 M18.74 43.38 C15.98 43.96, 12.58 43.52, 6.25 43.38 M6.25 43.38 C0.39 41.9, -1.49 39.86, 0 37.13 M6.25 43.38 C2.94 42.47, -1.66 40, 0 37.13 M0 37.13 C-0.46 26.97, 1.79 13.35, 0 6.25 M0 37.13 C0.56 25.88, 0.7 16.67, 0 6.25 M0 6.25 C1.65 3.37, 1.68 0.38, 6.25 0 M0 6.25 C0.09 1.63, 0.4 0.92, 6.25 0" stroke="#1e1e1e" stroke-width="2" fill="none"></path></g><g stroke-linecap="round" transform="translate(1156.2453412311352 1364.964418349008) rotate(0 12.493107686145208 65.34863265261652)"><path d="M6.25 0 C10.15 -1.28, 15.16 1.1, 18.74 0 M6.25 0 C9.54 -0.08, 11.57 0.6, 18.74 0 M18.74 0 C24.58 0.46, 23.69 2.12, 24.99 6.25 M18.74 0 C22.01 -1.91, 25.12 0.63, 24.99 6.25 M24.99 6.25 C26.55 35.06, 24.66 65.14, 24.99 124.45 M24.99 6.25 C23.85 34.13, 23.36 62.78, 24.99 124.45 M24.99 124.45 C23.89 128.15, 22.86 129.56, 18.74 130.7 M24.99 124.45 C25.6 128.25, 21.03 131.68, 18.74 130.7 M18.74 130.7 C14.75 131.89, 9.55 131.38, 6.25 130.7 M18.74 130.7 C14.31 130.86, 9.27 130.34, 6.25 130.7 M6.25 130.7 C0.59 129.26, 0.74 127.83, 0 124.45 M6.25 130.7 C0.42 129.4, 1.7 128.58, 0 124.45 M0 124.45 C2.06 91.34, 0.93 58.72, 0 6.25 M0 124.45 C0.06 86.81, 0.32 49.61, 0 6.25 M0 6.25 C-0.4 2.46, 2.16 -0.39, 6.25 0 M0 6.25 C-1.68 3, 3.53 -0.01, 6.25 0" stroke="#1e1e1e" stroke-width="2" fill="none"></path></g><g stroke-linecap="round" transform="translate(1188.0323719746539 1255.6869790665778) rotate(0 12.493107686145208 119.95150902930807)"><path d="M6.25 0 C9.37 1.26, 13.43 -0.34, 18.74 0 M6.25 0 C9.81 0.61, 14.15 0.16, 18.74 0 M18.74 0 C21.61 0.04, 24.2 0.42, 24.99 6.25 M18.74 0 C23.04 -1.45, 23.94 3.05, 24.99 6.25 M24.99 6.25 C25.31 85.74, 25.03 166.01, 24.99 233.66 M24.99 6.25 C24.22 53.87, 24.28 102.43, 24.99 233.66 M24.99 233.66 C24.95 236.69, 23.44 239.58, 18.74 239.9 M24.99 233.66 C23.11 238.8, 23.87 241.84, 18.74 239.9 M18.74 239.9 C13.51 240.61, 10.3 240.69, 6.25 239.9 M18.74 239.9 C13.45 239.46, 8.74 239.47, 6.25 239.9 M6.25 239.9 C2.83 239.12, -1.45 236.69, 0 233.66 M6.25 239.9 C3.79 239.87, -0.59 237.29, 0 233.66 M0 233.66 C-1.17 148.84, -1.41 66.24, 0 6.25 M0 233.66 C-0.39 188.02, -1.27 141.45, 0 6.25 M0 6.25 C0.08 1.69, 0.62 0.8, 6.25 0 M0 6.25 C1.45 2.07, 1.77 0.05, 6.25 0" stroke="#1e1e1e" stroke-width="2" fill="none"></path></g><g stroke-linecap="round" transform="translate(1221.8399153852642 1310.8243568552687) rotate(0 12.493107686145208 91.88030552242803)"><path d="M6.25 0 C7.73 -0.58, 11.2 1.03, 18.74 0 M6.25 0 C10.34 0.03, 12.99 -0.1, 18.74 0 M18.74 0 C22.12 -1.66, 25.1 0.82, 24.99 6.25 M18.74 0 C21.86 0.97, 26.24 3.31, 24.99 6.25 M24.99 6.25 C23.11 44.91, 22.51 86.75, 24.99 177.51 M24.99 6.25 C23.39 45.24, 23.92 84.13, 24.99 177.51 M24.99 177.51 C25.52 181.36, 21.28 184.62, 18.74 183.76 M24.99 177.51 C25.95 183.62, 24.44 184.28, 18.74 183.76 M18.74 183.76 C14.61 184.5, 10.05 183.9, 6.25 183.76 M18.74 183.76 C14.4 183.22, 11.21 183.42, 6.25 183.76 M6.25 183.76 C0.64 182.63, 1.48 181.65, 0 177.51 M6.25 183.76 C1.49 183.23, 1.6 183.73, 0 177.51 M0 177.51 C-0.18 132.78, -2.5 87.48, 0 6.25 M0 177.51 C-1.62 124.62, -1.38 71.16, 0 6.25 M0 6.25 C-1.46 2.88, 3.34 -0.01, 6.25 0 M0 6.25 C-0.32 2.13, 1.07 1.32, 6.25 0" stroke="#1e1e1e" stroke-width="2" fill="none"></path></g><g transform="translate(356.964303851626 1275.5567675535224) rotate(0 23.753158569335938 13.647864789329311)"><text x="0" y="0" font-family="Helvetica, Segoe UI Emoji" font-size="23.73541702492054px" fill="#1e1e1e" text-anchor="start" style="white-space: pre;" direction="ltr" dominant-baseline="text-before-edge">Von:</text></g><g transform="translate(360.26982413771293 1217.932761155026) rotate(0 46.81111145019531 13.647864789329311)"><text x="0" y="0" font-family="Helvetica, Segoe UI Emoji" font-size="23.73541702492054px" fill="#1e1e1e" text-anchor="start" style="white-space: pre;" direction="ltr" dominant-baseline="text-before-edge">Zeitraum</text></g><g stroke-linecap="round" transform="translate(342.85391832611276 1200.0787077428079) rotate(0 120.43765057915044 152.77594194892782)"><path d="M32 0 C101.19 0, 170.37 0, 208.88 0 M32 0 C85.43 0, 138.86 0, 208.88 0 M208.88 0 C230.21 0, 240.88 10.67, 240.88 32 M208.88 0 C230.21 0, 240.88 10.67, 240.88 32 M240.88 32 C240.88 101.48, 240.88 170.96, 240.88 273.55 M240.88 32 C240.88 90.76, 240.88 149.52, 240.88 273.55 M240.88 273.55 C240.88 294.89, 230.21 305.55, 208.88 305.55 M240.88 273.55 C240.88 294.89, 230.21 305.55, 208.88 305.55 M208.88 305.55 C154.66 305.55, 100.45 305.55, 32 305.55 M208.88 305.55 C162.78 305.55, 116.68 305.55, 32 305.55 M32 305.55 C10.67 305.55, 0 294.89, 0 273.55 M32 305.55 C10.67 305.55, 0 294.89, 0 273.55 M0 273.55 C0 187.44, 0 101.33, 0 32 M0 273.55 C0 205.83, 0 138.11, 0 32 M0 32 C0 10.67, 10.67 0, 32 0 M0 32 C0 10.67, 10.67 0, 32 0" stroke="#1e1e1e" stroke-width="2" fill="none"></path></g><g transform="translate(360.1482417823627 1386.6450458575891) rotate(0 19.778839111328125 13.647864789329311)"><text x="0" y="0" font-family="Helvetica, Segoe UI Emoji" font-size="23.73541702492054px" fill="#1e1e1e" text-anchor="start" style="white-space: pre;" direction="ltr" dominant-baseline="text-before-edge">Bis:</text></g><g stroke-linecap="round" transform="translate(352.97125391721966 1421.5605408228425) rotate(0 107.85543575043596 16.52744858705067)"><path d="M8.26 0 C84.47 0, 160.68 0, 207.45 0 C212.96 0, 215.71 2.75, 215.71 8.26 C215.71 12.02, 215.71 15.77, 215.71 24.79 C215.71 30.3, 212.96 33.05, 207.45 33.05 C144.15 33.05, 80.85 33.05, 8.26 33.05 C2.75 33.05, 0 30.3, 0 24.79 C0 18.91, 0 13.02, 0 8.26 C0 2.75, 2.75 0, 8.26 0" stroke="none" stroke-width="0" fill="#343a40"></path><path d="M8.26 0 C84.69 0, 161.12 0, 207.45 0 M8.26 0 C55.45 0, 102.63 0, 207.45 0 M207.45 0 C212.96 0, 215.71 2.75, 215.71 8.26 M207.45 0 C212.96 0, 215.71 2.75, 215.71 8.26 M215.71 8.26 C215.71 12.31, 215.71 16.36, 215.71 24.79 M215.71 8.26 C215.71 13.93, 215.71 19.59, 215.71 24.79 M215.71 24.79 C215.71 30.3, 212.96 33.05, 207.45 33.05 M215.71 24.79 C215.71 30.3, 212.96 33.05, 207.45 33.05 M207.45 33.05 C162.52 33.05, 117.59 33.05, 8.26 33.05 M207.45 33.05 C148.02 33.05, 88.59 33.05, 8.26 33.05 M8.26 33.05 C2.75 33.05, 0 30.3, 0 24.79 M8.26 33.05 C2.75 33.05, 0 30.3, 0 24.79 M0 24.79 C0 20.16, 0 15.53, 0 8.26 M0 24.79 C0 19.84, 0 14.89, 0 8.26 M0 8.26 C0 2.75, 2.75 0, 8.26 0 M0 8.26 C0 2.75, 2.75 0, 8.26 0" stroke="#ffffff" stroke-width="2" fill="none"></path></g><g transform="translate(413.3303670358197 1427.1696975784298) rotate(0 47.49632263183594 10.91829183146345)"><text x="47.49632263183594" y="0" font-family="Helvetica, Segoe UI Emoji" font-size="18.988333619936434px" fill="#ffffff" text-anchor="middle" style="white-space: pre;" direction="ltr" dominant-baseline="text-before-edge">12.12.2022</text></g><g stroke-linecap="round" transform="translate(352.2759548225604 1311.190358305063) rotate(0 109.43624731147028 15.91829183146345)"><path d="M7.96 0 C58.9 0, 109.84 0, 210.91 0 C216.22 0, 218.87 2.65, 218.87 7.96 C218.87 11.53, 218.87 15.11, 218.87 23.88 C218.87 29.18, 216.22 31.84, 210.91 31.84 C154.08 31.84, 97.24 31.84, 7.96 31.84 C2.65 31.84, 0 29.18, 0 23.88 C0 17.75, 0 11.63, 0 7.96 C0 2.65, 2.65 0, 7.96 0" stroke="none" stroke-width="0" fill="#343a40"></path><path d="M7.96 0 C60.91 0, 113.87 0, 210.91 0 M7.96 0 C79.67 0, 151.39 0, 210.91 0 M210.91 0 C216.22 0, 218.87 2.65, 218.87 7.96 M210.91 0 C216.22 0, 218.87 2.65, 218.87 7.96 M218.87 7.96 C218.87 13.16, 218.87 18.36, 218.87 23.88 M218.87 7.96 C218.87 13.09, 218.87 18.22, 218.87 23.88 M218.87 23.88 C218.87 29.18, 216.22 31.84, 210.91 31.84 M218.87 23.88 C218.87 29.18, 216.22 31.84, 210.91 31.84 M210.91 31.84 C164.7 31.84, 118.49 31.84, 7.96 31.84 M210.91 31.84 C131.9 31.84, 52.88 31.84, 7.96 31.84 M7.96 31.84 C2.65 31.84, 0 29.18, 0 23.88 M7.96 31.84 C2.65 31.84, 0 29.18, 0 23.88 M0 23.88 C0 20.26, 0 16.65, 0 7.96 M0 23.88 C0 18.19, 0 12.5, 0 7.96 M0 7.96 C0 2.65, 2.65 0, 7.96 0 M0 7.96 C0 2.65, 2.65 0, 7.96 0" stroke="#ffffff" stroke-width="2" fill="none"></path></g><g transform="translate(414.21587950219475 1316.190358305063) rotate(0 47.49632263183594 10.91829183146345)"><text x="47.49632263183594" y="0" font-family="Helvetica, Segoe UI Emoji" font-size="18.988333619936434px" fill="#ffffff" text-anchor="middle" style="white-space: pre;" direction="ltr" dominant-baseline="text-before-edge">12.12.2022</text></g><g stroke-linecap="round" transform="translate(603.4372423028508 1198.839810003767) rotate(0 102.24125850969892 152.77594194892782)"><path d="M32 0 C67.77 0, 103.55 0, 172.48 0 M32 0 C65.99 0, 99.97 0, 172.48 0 M172.48 0 C193.82 0, 204.48 10.67, 204.48 32 M172.48 0 C193.82 0, 204.48 10.67, 204.48 32 M204.48 32 C204.48 114.56, 204.48 197.12, 204.48 273.55 M204.48 32 C204.48 118.43, 204.48 204.85, 204.48 273.55 M204.48 273.55 C204.48 294.89, 193.82 305.55, 172.48 305.55 M204.48 273.55 C204.48 294.89, 193.82 305.55, 172.48 305.55 M172.48 305.55 C133.94 305.55, 95.39 305.55, 32 305.55 M172.48 305.55 C127.63 305.55, 82.77 305.55, 32 305.55 M32 305.55 C10.67 305.55, 0 294.89, 0 273.55 M32 305.55 C10.67 305.55, 0 294.89, 0 273.55 M0 273.55 C0 204.4, 0 135.25, 0 32 M0 273.55 C0 207.3, 0 141.04, 0 32 M0 32 C0 10.67, 10.67 0, 32 0 M0 32 C0 10.67, 10.67 0, 32 0" stroke="#1e1e1e" stroke-width="2" fill="none"></path></g><g transform="translate(619.0152439059748 1331.4178246400256) rotate(0 26.669921875 11.5)"><text x="0" y="0" font-family="Helvetica, Segoe UI Emoji" font-size="20px" fill="#1e1e1e" text-anchor="start" style="white-space: pre;" direction="ltr" dominant-baseline="text-before-edge">Strom</text></g><g transform="translate(633.7999028435515 1358.876485784778) rotate(0 24.45703125 9.2)"><text x="0" y="0" font-family="Helvetica, Segoe UI Emoji" font-size="16px" fill="#1e1e1e" text-anchor="start" style="white-space: pre;" direction="ltr" dominant-baseline="text-before-edge">Monat:</text></g><g transform="translate(619.7318635498923 1385.8363293777968) rotate(0 19.12109375 9.2)"><text x="0" y="0" font-family="Helvetica, Segoe UI Emoji" font-size="16px" fill="#1e1e1e" text-anchor="start" style="white-space: pre;" direction="ltr" dominant-baseline="text-before-edge">Total:</text></g><g stroke-linecap="round" transform="translate(619.6075715705301 1361.7425783118872) rotate(0 6.305883224605168 5.852693015770299)"><path d="M12.61 5.85 C12.61 6.19, 12.58 6.54, 12.52 6.87 C12.45 7.2, 12.36 7.54, 12.23 7.85 C12.11 8.17, 11.95 8.49, 11.77 8.78 C11.58 9.07, 11.37 9.36, 11.14 9.61 C10.9 9.87, 10.64 10.12, 10.36 10.34 C10.08 10.55, 9.77 10.75, 9.46 10.92 C9.14 11.09, 8.81 11.24, 8.46 11.35 C8.12 11.47, 7.76 11.56, 7.4 11.62 C7.04 11.68, 6.67 11.71, 6.31 11.71 C5.94 11.71, 5.57 11.68, 5.21 11.62 C4.85 11.56, 4.49 11.47, 4.15 11.35 C3.81 11.24, 3.47 11.09, 3.15 10.92 C2.84 10.75, 2.53 10.55, 2.25 10.34 C1.97 10.12, 1.71 9.87, 1.48 9.61 C1.24 9.36, 1.03 9.07, 0.84 8.78 C0.66 8.49, 0.51 8.17, 0.38 7.85 C0.26 7.54, 0.16 7.2, 0.1 6.87 C0.03 6.54, 0 6.19, 0 5.85 C0 5.51, 0.03 5.17, 0.1 4.84 C0.16 4.5, 0.26 4.17, 0.38 3.85 C0.51 3.53, 0.66 3.22, 0.84 2.93 C1.03 2.63, 1.24 2.35, 1.48 2.09 C1.71 1.83, 1.97 1.59, 2.25 1.37 C2.53 1.15, 2.84 0.95, 3.15 0.78 C3.47 0.61, 3.81 0.47, 4.15 0.35 C4.49 0.24, 4.85 0.15, 5.21 0.09 C5.57 0.03, 5.94 0, 6.31 0 C6.67 0, 7.04 0.03, 7.4 0.09 C7.76 0.15, 8.12 0.24, 8.46 0.35 C8.81 0.47, 9.14 0.61, 9.46 0.78 C9.77 0.95, 10.08 1.15, 10.36 1.37 C10.64 1.59, 10.9 1.83, 11.14 2.09 C11.37 2.35, 11.58 2.63, 11.77 2.93 C11.95 3.22, 12.11 3.53, 12.23 3.85 C12.36 4.17, 12.45 4.5, 12.52 4.84 C12.58 5.17, 12.6 5.68, 12.61 5.85 C12.63 6.02, 12.63 5.68, 12.61 5.85" stroke="#1e1e1e" stroke-width="1" fill="none"></path></g><g stroke-linecap="round"><g transform="translate(618.4168066929524 1358.8280177909767) rotate(0 7.56774421715636 8.67828834467798)"><path d="M0 0 C2.52 2.89, 12.61 14.46, 15.14 17.36 M0 0 C2.52 2.89, 12.61 14.46, 15.14 17.36" stroke="#1e1e1e" stroke-width="1" fill="none"></path></g></g><mask></mask><g transform="translate(617.6739225496258 1412.3350885046757) rotate(0 18.33984375 11.5)"><text x="0" y="0" font-family="Helvetica, Segoe UI Emoji" font-size="20px" fill="#1e1e1e" text-anchor="start" style="white-space: pre;" direction="ltr" dominant-baseline="text-before-edge">Gas</text></g><g transform="translate(632.4585814872062 1439.7937496494283) rotate(0 24.45703125 9.200000000000003)"><text x="0" y="0" font-family="Helvetica, Segoe UI Emoji" font-size="16px" fill="#1e1e1e" text-anchor="start" style="white-space: pre;" direction="ltr" dominant-baseline="text-before-edge">Monat:</text></g><g transform="translate(618.3905421935433 1466.753593242447) rotate(0 19.12109375 9.200000000000003)"><text x="0" y="0" font-family="Helvetica, Segoe UI Emoji" font-size="16px" fill="#1e1e1e" text-anchor="start" style="white-space: pre;" direction="ltr" dominant-baseline="text-before-edge">Total:</text></g><g stroke-linecap="round" transform="translate(618.2662502141775 1442.6598421765373) rotate(0 6.305883224605168 5.852693015770299)"><path d="M12.61 5.85 C12.61 6.19, 12.58 6.54, 12.52 6.87 C12.45 7.2, 12.36 7.54, 12.23 7.85 C12.11 8.17, 11.95 8.49, 11.77 8.78 C11.58 9.07, 11.37 9.36, 11.14 9.61 C10.9 9.87, 10.64 10.12, 10.36 10.34 C10.08 10.55, 9.77 10.75, 9.46 10.92 C9.14 11.09, 8.81 11.24, 8.46 11.35 C8.12 11.47, 7.76 11.56, 7.4 11.62 C7.04 11.68, 6.67 11.71, 6.31 11.71 C5.94 11.71, 5.57 11.68, 5.21 11.62 C4.85 11.56, 4.49 11.47, 4.15 11.35 C3.81 11.24, 3.47 11.09, 3.15 10.92 C2.84 10.75, 2.53 10.55, 2.25 10.34 C1.97 10.12, 1.71 9.87, 1.48 9.61 C1.24 9.36, 1.03 9.07, 0.84 8.78 C0.66 8.49, 0.51 8.17, 0.38 7.85 C0.26 7.54, 0.16 7.2, 0.1 6.87 C0.03 6.54, 0 6.19, 0 5.85 C0 5.51, 0.03 5.17, 0.1 4.84 C0.16 4.5, 0.26 4.17, 0.38 3.85 C0.51 3.53, 0.66 3.22, 0.84 2.93 C1.03 2.63, 1.24 2.35, 1.48 2.09 C1.71 1.83, 1.97 1.59, 2.25 1.37 C2.53 1.15, 2.84 0.95, 3.15 0.78 C3.47 0.61, 3.81 0.47, 4.15 0.35 C4.49 0.24, 4.85 0.15, 5.21 0.09 C5.57 0.03, 5.94 0, 6.31 0 C6.67 0, 7.04 0.03, 7.4 0.09 C7.76 0.15, 8.12 0.24, 8.46 0.35 C8.81 0.47, 9.14 0.61, 9.46 0.78 C9.77 0.95, 10.08 1.15, 10.36 1.37 C10.64 1.59, 10.9 1.83, 11.14 2.09 C11.37 2.35, 11.58 2.63, 11.77 2.93 C11.95 3.22, 12.11 3.53, 12.23 3.85 C12.36 4.17, 12.45 4.5, 12.52 4.84 C12.58 5.17, 12.6 5.68, 12.61 5.85 C12.63 6.02, 12.63 5.68, 12.61 5.85" stroke="#1e1e1e" stroke-width="1" fill="none"></path></g><g stroke-linecap="round"><g transform="translate(617.0754853366034 1439.745281655627) rotate(0 7.56774421715636 8.67828834467798)"><path d="M0 0 C2.52 2.89, 12.61 14.46, 15.14 17.36 M0 0 C2.52 2.89, 12.61 14.46, 15.14 17.36" stroke="#1e1e1e" stroke-width="1" fill="none"></path></g></g><mask></mask><g transform="translate(697.9052909573984 1299.6934563731527) rotate(0 17.796875 9.2)"><text x="0" y="0" font-family="Helvetica, Segoe UI Emoji" font-size="16px" fill="#1e1e1e" text-anchor="start" style="white-space: pre;" direction="ltr" dominant-baseline="text-before-edge">123€</text></g><g transform="translate(696.1003307257797 1355.6415947791804) rotate(0 17.796875 9.2)"><text x="0" y="0" font-family="Helvetica, Segoe UI Emoji" font-size="16px" fill="#1e1e1e" text-anchor="start" style="white-space: pre;" direction="ltr" dominant-baseline="text-before-edge">123€</text></g><g transform="translate(697.5169055437345 1377.2879837523299) rotate(0 17.796875 9.2)"><text x="0" y="0" font-family="Helvetica, Segoe UI Emoji" font-size="16px" fill="#1e1e1e" text-anchor="start" style="white-space: pre;" direction="ltr" dominant-baseline="text-before-edge">123€</text></g><g transform="translate(695.0186679674207 1440.9634908838434) rotate(0 17.796875 9.200000000000003)"><text x="0" y="0" font-family="Helvetica, Segoe UI Emoji" font-size="16px" fill="#1e1e1e" text-anchor="start" style="white-space: pre;" direction="ltr" dominant-baseline="text-before-edge">123€</text></g><g transform="translate(696.4352427853792 1462.6098798569928) rotate(0 17.796875 9.200000000000003)"><text x="0" y="0" font-family="Helvetica, Segoe UI Emoji" font-size="16px" fill="#1e1e1e" text-anchor="start" style="white-space: pre;" direction="ltr" dominant-baseline="text-before-edge">123€</text></g></svg>